<svg xmlns="http://www.w3.org/2000/svg" xmlns:xlink="http://www.w3.org/1999/xlink" width="223" height="46.472" viewBox="0 0 223 46.472"><defs><style>.a{fill:url(#a);}.b{fill:url(#b);}.c{fill:#bff4ff;}.d{fill:#89e6ff;}.e{fill:url(#c);}.f{fill:url(#d);}.g{fill:url(#e);}.h{fill:#0063ff;}.i{fill:#fff;font-size:21px;font-family:Audiowide-Regular, Audiowide;}.j{fill:#01a7ff;font-size:11px;font-family:Verdana-Italic, Verdana;font-style:italic;letter-spacing:0.05em;}</style><linearGradient id="a" x1="-0.075" y1="-0.084" x2="1.049" y2="0.861" gradientUnits="objectBoundingBox"><stop offset="0" stop-color="#01a7ff"/><stop offset="1" stop-color="#00d0ff"/></linearGradient><linearGradient id="b" x1="24.552" y1="-0.112" x2="25.676" y2="0.831" xlink:href="#a"/><linearGradient id="c" x1="0.51" y1="-0.228" x2="0.494" y2="0.982" gradientUnits="objectBoundingBox"><stop offset="0.006" stop-color="#0163ff" stop-opacity="0.502"/><stop offset="1" stop-color="#00d0ff" stop-opacity="0.502"/></linearGradient><linearGradient id="d" x1="15.28" y1="-0.29" x2="15.264" y2="0.909" gradientUnits="objectBoundingBox"><stop offset="0.006" stop-color="#0163ff" stop-opacity="0.502"/><stop offset="1" stop-color="#00d0ff" stop-opacity="0.8"/></linearGradient><linearGradient id="e" x1="0.516" y1="-0.246" x2="0.497" y2="0.978" gradientUnits="objectBoundingBox"><stop offset="0.006" stop-color="#00b5ff" stop-opacity="0.302"/><stop offset="0.346" stop-color="#008fff" stop-opacity="0.353"/><stop offset="0.986" stop-color="#002dff" stop-opacity="0.498"/><stop offset="0.994" stop-color="#002cff" stop-opacity="0.502"/></linearGradient></defs><g transform="translate(-87.393 -73.828)"><g transform="translate(87.393 73.828)"><path class="a" d="M87.393,79.194l28.93,5.49v37.377h-3.168l-20.695-7.813Z" transform="translate(-87.393 -75.589)"/><path class="b" d="M159.37,79.079l-28.916,5.567.1,37.377,3.168-.008,20.674-7.868Z" transform="translate(-101.524 -75.552)"/><path class="c" d="M87.483,76.371l28.938,7.407L87.472,78.272Z" transform="translate(-87.419 -74.663)"/><path class="d" d="M88.965,73.85l27.878,9.092L88.965,75.8Z" transform="translate(-87.909 -73.836)"/><path class="c" d="M159.3,76.186l-28.868,7.532,28.906-5.631Z" transform="translate(-101.517 -74.602)"/><path class="d" d="M157.963,73.828l-27.531,9.116,27.563-7.165Z" transform="translate(-101.517 -73.828)"/><path class="e" d="M87.393,79.194l53,35.265-47.936-.211Z" transform="translate(-87.393 -75.589)"/><path class="f" d="M147.7,79.049l-52.781,35.6,47.933-.512Z" transform="translate(-89.862 -75.542)"/><path class="g" d="M94.308,117.141l24.285-29.775,24.073,29.775-20.484,7.6H115Z" transform="translate(-89.663 -78.271)"/><path class="h" d="M128.7,87.366l-3.59,37.377h6.969Z" transform="translate(-99.771 -78.271)"/></g><text class="i" transform="translate(149.393 94.828)"><tspan x="0" y="0">TruyenFun.vn</tspan></text><text class="j" transform="translate(148.393 111.977)"><tspan x="0" y="0">Thế giới trong tầm tay bạn</tspan></text></g></svg>