<svg width="291" height="342" viewBox="0 0 291 342" fill="none" xmlns="http://www.w3.org/2000/svg">
<mask id="mask0_199_1132" style="mask-type:alpha" maskUnits="userSpaceOnUse" x="0" y="0" width="291" height="342">
<rect width="291" height="342" rx="5" fill="url(#paint0_linear_199_1132)"/>
</mask>
<g mask="url(#mask0_199_1132)">
<path d="M84.9556 330.385C84.9548 330.387 84.9525 330.387 84.951 330.386C84.1765 329.758 83.3942 329.114 82.6004 328.529C81.4237 327.657 80.108 327.12 78.8619 326.36C76.7668 325.079 74.8069 323.289 73.0938 321.549C71.647 320.079 70.3082 318.517 68.8845 317.035C68.3367 316.464 67.6923 316.047 67.1831 315.434C66.3381 314.415 65.7092 313.269 64.9723 312.174C62.9776 309.222 59.4898 307.104 56.681 304.963C54.7828 303.516 53.0003 302 51.2217 300.41C50.1182 299.422 49.0109 298.458 47.9692 297.404C47.2516 296.675 46.4375 296.151 45.689 295.468C43.7831 293.724 41.9427 291.617 39.6548 290.39C38.6092 289.831 37.5829 289.044 36.5682 288.376C35.5998 287.74 35.1253 286.991 34.3883 286.127C33.8482 285.494 33.1499 284.642 32.5094 284.125C32.0348 283.743 31.8149 283.82 31.1359 283.824C30.4298 283.827 29.6505 283.669 29.0486 284.132C28.5316 284.53 28.1072 285.286 27.7368 285.822C26.371 287.805 25.2907 289.985 23.5815 291.706C22.3546 292.94 20.6184 293.793 19.1793 294.792C16.5557 296.617 15.1938 299.584 13.3303 302.054C12.0571 303.74 10.8533 305.144 8.69273 305.291C8.02526 305.337 7.37321 305.233 6.7096 305.341C4.32909 305.738 2.83982 307.119 0.930014 308.477C-0.293037 309.349 -1.20743 310.187 -1.95206 311.51C-2.65426 312.76 -3.03236 313.806 -4.08179 314.805C-5.13894 315.808 -5.7138 317.039 -6.83654 317.965C-7.57731 318.578 -8.19463 319.315 -8.93926 319.917C-10.9185 321.514 -13.2643 322.595 -15.2899 324.138C-16.4165 324.998 -17.8208 325.743 -18.6079 326.962C-19.1712 327.834 -19.2754 328.822 -20.0895 329.539C-20.4857 329.89 -20.2851 330.38 -19.7562 330.38H84.9529C84.9552 330.38 84.9566 330.383 84.9556 330.385Z" fill="url(#paint1_linear_199_1132)"/>
<path d="M195.137 318.002C195.137 318.002 195.138 318.003 195.138 318.002C196.122 316.336 197.337 314.832 198.305 313.146C199.161 311.657 199.713 309.902 200.701 308.497C202.503 305.939 207.468 304.392 210.447 304.766C214.741 305.303 219.143 305.283 223.507 305.199C225.775 305.156 228.325 303.551 230.17 302.351C233.364 300.272 236.177 297.559 239.626 295.881C241.794 294.828 243.94 294.133 246.278 293.508C248.106 293.022 249.777 292.208 251.706 292.235C253.172 292.254 254.199 291.919 255.595 291.753C256.988 291.591 258.628 290.715 259.94 290.152C261.278 289.577 262.343 288.836 263.539 288.045C264.778 287.223 266.225 286.332 267.22 285.213C268.721 283.531 269.905 281.339 272.486 281.625C275.268 281.934 277.691 282.678 280.392 283.334C281.85 283.689 283.332 283.932 284.833 283.913C286.017 283.897 287.479 284.152 288.618 283.832C291.164 283.118 293.464 280.795 295.042 278.835C296.627 276.868 297.607 273.434 299.953 272.33C301.566 271.57 303.032 271.898 304.718 272.234C305.204 272.33 306.196 272.539 306.682 272.369C307.376 272.126 307.639 271.165 307.932 270.509C308.402 269.452 308.449 268.411 308.723 267.299C308.981 266.265 309.564 265.428 309.915 264.437C310.378 263.121 310.27 261.72 310.683 260.401C310.845 259.888 311.072 259.51 311.296 259.016C311.443 258.688 311.636 257.851 311.825 257.627C312.616 256.709 314.394 257.071 315.448 257.067C317.045 257.064 318.04 257.175 319.275 258.306C320.564 259.483 320.618 261.524 321.111 263.082C321.517 264.352 321.729 265.563 322.261 266.786C322.828 268.09 323.723 269.101 324.503 270.259C325.768 272.134 326.382 274.271 327.748 276.061C328.488 277.038 328.924 278.033 329.881 278.824C330.765 279.553 331.922 280.19 332.956 280.676C334.665 281.482 336.567 281.555 338.369 282.053C340.337 282.597 342.366 282.929 344.28 283.662C349.631 285.707 353.331 291.02 357.544 294.669C360.187 296.957 362.857 299.176 365.469 301.502C366.831 302.718 368.344 303.617 369.763 304.724C371.037 305.719 372.287 306.881 373.714 307.656C375.527 308.644 377.696 309.346 379.667 309.936C380.624 310.226 381.515 310.141 382.445 310.38C383.425 310.631 384.617 311.163 385.81 311.225C388.46 311.36 390.663 311.121 393.225 312.07C397.654 313.714 401.493 316.97 405.07 319.968C406.586 321.241 408.492 322.422 409.738 323.934C410.849 325.284 411.887 325.836 413.434 326.596C414.503 327.121 415.61 327.696 416.752 328.051C417.574 328.305 418.354 328.251 419.198 328.409C420.121 328.583 420.927 329.154 421.861 329.247H195.608C194.613 329.247 193.736 328.416 193.503 327.449C193.25 326.403 192.921 325.376 192.992 324.293C193.135 322.098 194.029 319.876 195.136 318.002C195.137 318.001 195.137 318.001 195.137 318.002Z" fill="url(#paint2_linear_199_1132)"/>
<path d="M-8.10242 332.245C-8.10242 332.242 -8.10096 332.239 -8.09852 332.238C-5.96839 330.762 -3.80984 329.409 -1.63234 328.009C0.00257492 326.959 1.6533 326.001 3.1807 324.793C3.81632 324.29 4.47725 323.835 5.05595 323.262C5.5556 322.766 5.75798 322.26 6.12165 321.703C6.66241 320.878 7.37392 320.249 8.24039 319.904C9.37882 319.452 10.4414 318.917 11.5007 318.358C12.4684 317.845 13.4266 316.919 14.2267 316.185C15.1722 315.322 16.1462 314.395 17.1518 313.595C17.955 312.953 18.5938 312.112 19.4097 311.499C20.371 310.771 21.4936 310.319 22.4613 309.595C23.6092 308.735 24.6433 307.951 25.9145 307.296C26.9802 306.746 27.8246 305.788 28.8966 305.202C29.3962 304.931 29.7093 304.564 30.3038 304.747C30.8952 304.931 31.3537 305.506 31.9071 305.667C32.2645 305.772 33.3302 305.898 33.6717 305.743C34.1365 305.535 34.4275 304.086 34.6267 303.577C34.8607 302.973 34.9493 302.344 35.139 301.8C35.2623 301.446 35.3762 301.155 35.5564 300.816C35.724 300.5 35.8474 300.08 36.0181 299.795C36.5304 298.944 37.7922 298.381 38.5448 297.746C39.0729 297.3 39.4176 296.898 39.7655 296.376C40.0279 295.981 40.5465 295.599 40.8881 295.282C41.9253 294.321 43.0416 293.518 44.199 292.718C44.9422 292.202 45.7865 291.902 46.498 291.348C46.8996 291.035 47.2886 290.7 47.7092 290.409C48.2721 290.02 48.8033 289.6 49.3504 289.182C50.2833 288.471 51.1245 287.74 51.9467 286.909C52.9871 285.855 54.3247 285.289 55.4347 284.334C56.0166 283.832 56.649 283.398 57.1929 282.848C57.7084 282.326 58.129 281.732 58.6698 281.239C59.8398 280.166 61.1237 279.142 62.0313 277.811C62.3159 277.393 62.4614 277.08 62.844 276.726C63.195 276.4 63.5112 275.999 63.818 275.629C64.1342 275.246 64.3904 274.822 64.7003 274.436C65.1873 273.826 65.8703 273.428 66.3668 272.827C66.8127 272.286 67.2839 271.843 67.7456 271.328C68.1662 270.86 68.416 270.253 68.8303 269.781C69.1686 269.396 69.6461 269.212 70.0161 268.864C70.2881 268.611 70.4493 268.286 70.6992 268.02C71.3949 267.283 72.2645 266.727 73.1405 266.23C74.1398 265.661 74.8987 264.994 76.053 265C77.5962 265.006 79.0445 265.971 80.4928 266.474C81.3593 266.774 82.2637 267.131 83.0701 267.571C84.041 268.096 84.6797 268.596 85.4608 269.383C86.0079 269.936 86.6309 270.3 87.1811 270.8C87.7409 271.309 88.6548 271.518 89.3283 271.888C89.8849 272.194 90.4857 272.599 90.998 272.975C91.3174 273.209 91.5356 273.513 91.8993 273.706C92.4179 273.978 92.7784 274.117 93.2022 274.538C95.5676 276.884 98.7489 278.086 101.702 279.363C102.155 279.559 102.806 279.727 103.192 280.008C103.666 280.353 104.008 280.938 104.406 281.359C105.001 281.988 105.396 282.763 105.924 283.439C106.534 284.221 106.942 284.145 107.689 283.566C108.005 283.322 108.41 282.892 108.792 282.798C109.077 282.725 109.349 282.813 109.637 282.731C109.912 282.652 109.975 282.488 110.336 282.548C110.658 282.601 111.088 282.854 111.351 283.047C112.176 283.655 112.884 284.622 113.488 285.425C113.899 285.969 114.209 286.599 114.655 287.114C115.089 287.617 115.661 288.123 116.018 288.721C116.752 289.944 117.533 291.178 118.444 292.376C119.288 293.489 120.218 294.508 121.034 295.633C121.555 296.354 122.362 296.835 122.969 297.474C123.507 298.04 123.791 298.799 124.275 299.406C125.11 300.453 126.074 301.591 127.014 302.439C127.403 302.79 127.747 303.21 128.139 303.552C128.566 303.925 129.158 304.086 129.613 304.431C130.799 305.326 131.852 306.195 133.171 306.916C135.46 308.166 138.022 309.244 139.799 311.217C140.558 312.058 141.269 312.956 141.974 313.845C142.749 314.819 143.255 315.926 144.239 316.691C144.881 317.191 145.393 317.868 146.035 318.377C146.743 318.936 147.452 319.487 148.094 320.148C148.935 321.02 149.757 321.912 150.674 322.725C151.243 323.231 151.857 323.693 152.54 324.031C153.586 324.549 154.162 325.312 155.044 326.048C155.784 326.665 156.654 327.136 157.445 327.69C158.447 328.392 159.459 329.094 160.515 329.714C161.685 330.397 162.862 330.887 164.161 331.244C165.094 331.5 165.885 331.902 166.767 332.297C168.845 333.23 170.821 334.144 172.282 335.981C172.649 336.44 173.044 336.939 173.36 337.43C173.987 338.4 174.704 339.238 175.432 340.165C175.982 340.864 176.894 341.912 177.784 342.423C177.853 342.463 177.82 342.6 177.74 342.6H-16.3624C-15.6266 342.6 -17.0496 343.535 -17.4154 342.896C-17.8615 342.117 -18.125 341.276 -17.9404 340.295C-17.7253 339.159 -16.8209 338.657 -15.9197 338.084C-14.6263 337.262 -13.6871 336.101 -12.4854 335.165C-11.0984 334.088 -9.54724 333.251 -8.10632 332.252C-8.10388 332.251 -8.10242 332.248 -8.10242 332.245Z" fill="#5F9EFD"/>
<path d="M-8.65028 332.245C-8.65028 332.242 -8.64882 332.239 -8.64637 332.238C-6.51624 330.762 -4.35769 329.409 -2.18019 328.009C-0.545279 326.959 1.10545 326.001 2.63284 324.793C3.26847 324.29 3.9294 323.835 4.5081 323.262C5.00774 322.766 5.21013 322.26 5.5738 321.703C6.11455 320.878 6.82607 320.249 7.69254 319.904C8.83097 319.452 9.89351 318.917 10.9529 318.358C11.9205 317.845 12.8787 316.919 13.6788 316.185C14.6243 315.322 15.5983 314.395 16.6039 313.595C17.4072 312.953 18.0459 312.112 18.8618 311.499C19.8232 310.771 20.9458 310.319 21.9134 309.595C23.0614 308.735 24.0954 307.951 25.3667 307.296C26.4324 306.746 27.2767 305.788 28.3487 305.202C28.8484 304.931 29.1615 304.564 29.756 304.747C30.3473 304.931 30.8059 305.506 31.3593 305.667C31.7166 305.772 32.7823 305.898 33.1238 305.743C33.5887 305.535 33.8796 304.086 34.0789 303.577C34.3129 302.973 34.4014 302.344 34.5911 301.8C34.7145 301.446 34.8283 301.155 35.0086 300.816C35.1762 300.5 35.2995 300.08 35.4703 299.795C35.9826 298.944 37.2443 298.381 37.997 297.746C38.5251 297.3 38.8698 296.898 39.2176 296.376C39.4801 295.981 39.9987 295.599 40.3402 295.282C41.3775 294.321 42.4938 293.518 43.6512 292.718C44.3943 292.202 45.2386 291.902 45.9501 291.348C46.3518 291.035 46.7407 290.7 47.1613 290.409C47.7242 290.02 48.2555 289.6 48.8026 289.182C49.7355 288.471 50.5766 287.74 51.3988 286.909C52.4392 285.855 53.7769 285.289 54.8868 284.334C55.4687 283.832 56.1012 283.398 56.6451 282.848C57.1605 282.326 57.5811 281.732 58.1219 281.239C59.292 280.166 60.5759 279.142 61.4834 277.811C61.768 277.393 61.9135 277.08 62.2961 276.726C62.6471 276.4 62.9634 275.999 63.2701 275.629C63.5864 275.246 63.8425 274.822 64.1524 274.436C64.6394 273.826 65.3225 273.428 65.8189 272.827C66.2648 272.286 66.736 271.843 67.1977 271.328C67.6183 270.86 67.8681 270.253 68.2824 269.781C68.6208 269.396 69.0983 269.212 69.4683 268.864C69.7402 268.611 69.9015 268.286 70.1513 268.02C70.847 267.283 71.7167 266.727 72.5926 266.23C73.5919 265.661 74.3509 264.994 75.5051 265C77.0483 265.006 78.4966 265.971 79.945 266.474C80.8115 266.774 81.7159 267.131 82.5223 267.571C83.4931 268.096 84.1319 268.596 84.913 269.383C85.4601 269.936 86.083 270.3 86.6333 270.8C87.193 271.309 88.1069 271.518 88.7805 271.888C89.337 272.194 89.9379 272.599 90.4502 272.975C90.7696 273.209 90.9878 273.513 91.3514 273.706C91.87 273.978 92.2306 274.117 92.6543 274.538C95.0197 276.884 98.201 278.086 101.155 279.363C101.607 279.559 102.258 279.727 102.644 280.008C103.118 280.353 103.46 280.938 103.858 281.359C104.453 281.988 104.848 282.763 105.376 283.439C105.987 284.221 106.395 284.145 107.141 283.566C107.457 283.322 107.862 282.892 108.244 282.798C108.529 282.725 108.801 282.813 109.089 282.731C109.364 282.652 109.427 282.488 109.788 282.548C110.11 282.601 110.54 282.854 110.803 283.047C111.628 283.655 112.337 284.622 112.941 285.425C113.352 285.969 113.662 286.599 114.107 287.114C114.541 287.617 115.113 288.123 115.47 288.721C116.204 289.944 116.985 291.178 117.896 292.376C118.74 293.489 119.67 294.508 120.486 295.633C121.008 296.354 121.814 296.835 122.421 297.474C122.959 298.04 123.243 298.799 123.727 299.406C124.562 300.453 125.527 301.591 126.466 302.439C126.855 302.79 127.199 303.21 127.592 303.552C128.018 303.925 128.61 304.086 129.065 304.431C130.251 305.326 131.304 306.195 132.623 306.916C134.912 308.166 137.474 309.244 139.251 311.217C140.01 312.058 140.721 312.956 141.427 313.845C142.201 314.819 142.707 315.926 143.691 316.691C144.333 317.191 144.845 317.868 145.487 318.377C146.195 318.936 146.904 319.487 147.546 320.148C148.387 321.02 149.209 321.912 150.126 322.725C150.695 323.231 151.309 323.693 151.992 324.031C153.039 324.549 153.614 325.312 154.496 326.048C155.236 326.665 156.106 327.136 156.897 327.69C157.899 328.392 158.911 329.094 159.967 329.714C161.137 330.397 162.314 330.887 163.613 331.244C164.546 331.5 165.337 331.902 166.219 332.297C168.297 333.23 170.273 334.144 171.734 335.981C172.101 336.44 172.496 336.939 172.813 337.43C173.439 338.4 174.157 339.238 174.884 340.165C175.434 340.864 176.346 341.912 177.236 342.423C177.305 342.463 177.272 342.6 177.192 342.6H-16.9102C-16.1744 342.6 -17.5975 343.535 -17.9633 342.896C-18.4094 342.117 -18.6729 341.276 -18.4882 340.295C-18.2732 339.159 -17.3688 338.657 -16.4675 338.084C-15.1741 337.262 -14.2349 336.101 -13.0332 335.165C-11.6462 334.088 -10.0951 333.251 -8.65417 332.252C-8.65173 332.251 -8.65028 332.248 -8.65028 332.245Z" fill="url(#paint3_linear_199_1132)"/>
<path d="M346.207 299.126H-44C-46.7614 299.126 -49 301.364 -49 304.126V342.06C-49 344.821 -46.7614 347.06 -44 347.06H346.207C348.969 347.06 351.207 344.821 351.207 342.06V304.126C351.207 301.364 348.969 299.126 346.207 299.126Z" fill="url(#paint4_linear_199_1132)"/>
<path d="M268.032 307.291C266.963 307.179 265.891 307.113 264.814 307.083C263.267 307.04 261.986 306.778 260.601 307.484C258.105 308.757 255.601 310.586 253.359 312.249C251.646 313.518 249.829 315.679 247.695 316.257C246.291 316.639 244.281 316.381 242.853 316.092C239.532 315.412 236.021 315.046 232.66 315.725C229.635 316.335 227.004 317.488 223.879 317.349C222.629 317.295 221.371 317.245 220.121 317.241C218.311 317.237 217.509 316.616 215.973 315.721C214.418 314.814 212.79 314.398 211.077 313.877C209.657 313.445 207.933 313.047 206.432 313.341C203.685 313.877 200.544 316.485 198.939 318.704C197.736 320.37 197.122 322.924 194.78 323.341C192.176 323.804 189.275 322.6 186.693 323.221C183.943 323.881 181.234 325.178 178.526 326.03C174.664 327.246 170.728 328.195 166.882 329.46C163.961 330.421 161.557 329.576 158.706 329.128C156.268 328.743 153.71 329.29 151.264 328.831C146.757 327.986 142.324 326.277 137.864 325.162C134.372 324.29 130.572 323.573 126.972 323.495C126.012 323.476 124.789 323.218 123.851 323.434C122.813 323.673 121.984 324.603 121.05 325.089C118.878 326.212 116.231 326.227 113.885 326.806C109.923 327.786 105.459 326.478 101.412 326.794C93.2053 327.438 84.8832 326.794 76.6266 326.528C73.7021 326.435 70.7352 326.177 67.8068 326.215C66.0744 326.239 64.4 326.694 62.6677 326.682C59.8319 326.659 57.1504 326.185 54.4304 327.219C52.7289 327.867 51.1586 328.669 49.3877 329.125C48.1222 329.452 46.7564 329.777 45.7842 330.718C44.3065 332.153 44.4261 334.468 44.0518 336.347C43.7867 337.681 43.3676 338.969 42.9044 340.244C41.8731 343.084 43.6531 346.009 46.642 346.45L166.789 364.157L254.767 366.977C257.307 367.059 259.503 365.222 259.874 362.709L268.039 307.299C268.039 307.295 268.036 307.291 268.032 307.291Z" fill="#79A4FA"/>
<path d="M108.956 289.624C107.827 291.433 106.128 292.792 104.174 293.447C104.174 293.447 103.826 293.121 103.318 292.528C102.474 291.526 101.742 290.426 101.134 289.248C100.617 288.243 100.218 287.172 99.947 286.056C99.8459 285.627 99.7672 285.191 99.7111 284.75C99.6018 283.897 99.5706 283.03 99.6181 282.161C99.669 281.247 99.8116 280.335 100.044 279.44C100.051 279.407 100.062 279.375 100.07 279.342C100.801 276.614 102.179 274.83 102.755 274.575C103.341 274.318 103.413 275.962 105.157 279.158C105.383 279.572 105.638 280.008 105.921 280.474C106.383 281.218 106.927 282.031 107.576 282.906C107.941 283.399 108.341 283.912 108.778 284.447C109.01 284.728 109.251 285.018 109.505 285.31C109.616 285.442 109.727 285.574 109.842 285.703C109.879 285.995 109.89 286.291 109.873 286.589C109.832 287.653 109.515 288.701 108.956 289.624Z" fill="#FF9E12"/>
<path d="M105.815 280.45C104.952 281.043 104.001 281.473 103.008 281.718C101.817 282.016 100.604 282.167 99.3946 282.167C99.4464 281.236 99.5918 280.308 99.8282 279.398C99.8359 279.365 99.847 279.332 99.8548 279.298C100.823 279.498 101.816 279.582 102.814 279.549C103.565 279.514 104.314 279.367 105.037 279.111C105.268 279.531 105.526 279.976 105.815 280.45Z" fill="#F93D31"/>
<path d="M108.877 284.399C107.769 285.737 106.438 286.859 104.953 287.703C103.738 288.381 102.454 288.9 101.131 289.249C100.606 288.234 100.202 287.152 99.927 286.024C101.111 285.88 102.284 285.604 103.426 285.201C104.961 284.715 106.402 283.911 107.659 282.841C108.028 283.339 108.434 283.858 108.877 284.399Z" fill="#F93D31"/>
<path opacity="0.13" d="M109.977 286.553L103.36 292.53C102.189 291.144 100.181 288.321 99.7182 284.702C99.4842 282.936 99.5984 281.118 100.054 279.358C100.429 281.466 101.537 283.318 103.173 284.569C104.059 285.267 105.121 285.698 106.25 285.821C107.38 285.943 108.537 285.751 109.606 285.265C109.718 285.398 109.83 285.53 109.946 285.66C109.984 285.954 109.994 286.253 109.977 286.553Z" fill="#590800"/>
<path d="M93.9474 322.623C93.9474 322.623 95.233 323.466 95.1634 323.773C95.0938 324.079 93.2006 323.218 93.2006 323.218C93.2006 323.218 93.0211 324.419 92.0148 324.149C91.7308 324.075 91.4801 323.91 91.2968 323.675C91.1134 323.441 91.0063 323.149 90.9897 322.838C90.9897 322.838 88.7347 323.265 88.0136 322.557C87.2924 321.848 89.1786 321.819 89.1786 321.819C89.1786 321.819 86.8277 321.239 86.7956 320.763C86.7636 320.288 89.3599 320.545 89.3599 320.545L93.9474 322.623Z" fill="#443551"/>
<path d="M121.071 333.346C121.071 333.346 119.359 332.755 118.961 333.278C118.562 333.801 121.214 334.419 121.214 334.419C121.214 334.419 122.071 336.18 123.308 336.472C124.544 336.763 124.908 335.191 124.908 335.191C124.908 335.191 127.737 337.038 128.947 336.827C130.158 336.615 128.556 335.152 128.556 335.152C128.556 335.152 130.579 336.191 130.718 335.575C130.857 334.958 127.633 333.93 127.633 333.93L121.071 333.346Z" fill="#443551"/>
<path d="M100.476 300.191C100.476 300.191 95.6639 293.593 95.542 292.506C95.4201 291.419 95.907 290.23 96.3292 288.968C96.9559 287.092 97.3147 287.211 97.3656 286.988C97.4586 286.583 96.6882 286.386 96.1142 287.033C95.7128 287.548 95.4045 288.132 95.2054 288.753C95.2054 288.753 93.5297 285.229 93.0582 285.254C92.5867 285.279 93.3618 287.986 93.3618 287.986C93.3618 287.986 91.2642 285.845 90.8178 286.049C90.3714 286.253 92.0304 288.495 92.0304 288.495C92.0304 288.495 90.2328 287.26 89.8362 287.357C89.4395 287.454 91.181 289.165 91.181 289.165C91.181 289.165 89.6127 288.957 89.522 289.38C89.4729 289.611 91.2376 290.609 91.5187 290.827C91.7998 291.044 94.1961 292.907 94.1961 292.907L96.5065 304.464L100.476 300.191Z" fill="#009579"/>
<path d="M126.465 334.077C124.045 335.368 120.046 333.515 120.046 333.515C120.046 333.515 118.981 328.146 117.467 326.712C116.387 325.695 101.738 321.356 99.6016 321.567C97.6243 321.765 93.9424 323.445 93.9424 323.445C93.0984 323.337 92.2775 323.115 91.5003 322.785C90.7399 322.464 90.0452 322.008 89.4459 321.436C89.4459 321.436 90.8687 314.063 92.3932 308.62C93.9177 303.177 105.615 288.695 109.4 286.552C110.719 285.846 112.083 285.246 113.48 284.758C117.842 283.177 123.462 281.931 125.477 282.945C128.232 284.333 132.612 295.878 132.086 309.634C131.743 317.994 129.833 326.297 126.465 334.077Z" fill="url(#paint5_linear_199_1132)"/>
<path d="M124.708 302.099C126.248 298.486 125.355 294.701 122.713 293.645C120.07 292.59 116.68 294.663 115.14 298.276C113.599 301.889 114.493 305.674 117.135 306.73C119.777 307.785 123.168 305.712 124.708 302.099Z" fill="#009579"/>
<path d="M123.549 301.882C123.41 302.18 123.255 302.472 123.085 302.754C122.722 303.373 122.286 303.944 121.788 304.453C120.951 305.347 119.887 305.954 118.756 306.182C118.241 306.272 117.725 306.238 117.244 306.084C117.149 306.052 117.055 306.015 116.961 305.975C114.827 305.012 114.316 301.616 115.818 298.394C117.32 295.171 120.267 293.337 122.402 294.3C124.537 295.263 125.052 298.656 123.549 301.882Z" fill="#CAE7EF"/>
<path d="M123.226 301.691C124.679 298.654 124.182 295.456 122.118 294.548C120.053 293.641 117.202 295.367 115.75 298.405C114.297 301.442 114.794 304.64 116.858 305.548C118.923 306.455 121.774 304.729 123.226 301.691Z" fill="white"/>
<path d="M123.293 302.712C122.927 303.335 122.487 303.91 121.985 304.421C121.141 305.32 120.069 305.931 118.928 306.161C118.409 306.25 117.888 306.217 117.404 306.062C116.968 305.021 117.316 303.454 118.358 302.16C118.369 302.147 118.378 302.137 118.389 302.124C118.638 301.818 118.918 301.542 119.223 301.302C120.423 300.345 121.824 300.125 122.657 300.875C122.891 301.099 123.069 301.38 123.179 301.698C123.289 302.016 123.328 302.362 123.293 302.712Z" fill="url(#paint6_linear_199_1132)"/>
<path d="M121.996 304.406C121.155 305.303 120.086 305.912 118.95 306.141C118.8 306.09 118.662 306.01 118.543 305.904C117.803 305.244 117.971 303.77 118.915 302.62C119.858 301.469 121.221 301.065 121.956 301.731C122.568 302.279 122.557 303.386 121.996 304.406Z" fill="#590800"/>
<path d="M119.417 302.96C119.337 303.115 119.3 303.288 119.311 303.457C119.323 303.626 119.382 303.783 119.48 303.908C119.579 304.034 119.714 304.121 119.867 304.161C120.02 304.2 120.185 304.189 120.34 304.129C120.496 304.07 120.636 303.964 120.741 303.825C120.847 303.686 120.915 303.521 120.935 303.35C120.955 303.179 120.928 303.01 120.856 302.864C120.784 302.719 120.67 302.603 120.53 302.532C120.437 302.485 120.335 302.458 120.228 302.454C120.122 302.45 120.014 302.468 119.911 302.508C119.807 302.548 119.71 302.608 119.626 302.686C119.541 302.763 119.47 302.856 119.417 302.96Z" fill="white"/>
<path d="M118.124 301.418C118.068 301.527 118.042 301.648 118.05 301.767C118.058 301.885 118.099 301.995 118.168 302.082C118.238 302.17 118.332 302.231 118.439 302.259C118.546 302.286 118.661 302.279 118.77 302.237C118.879 302.195 118.976 302.121 119.051 302.024C119.125 301.927 119.172 301.811 119.186 301.691C119.2 301.572 119.181 301.454 119.13 301.352C119.08 301.25 119.001 301.169 118.903 301.119C118.771 301.053 118.615 301.047 118.469 301.103C118.323 301.159 118.199 301.272 118.124 301.418Z" fill="white"/>
<path d="M111.219 298.419C109.379 301.884 106.149 303.657 104.006 302.379C101.863 301.101 101.618 297.254 103.458 293.79C105.298 290.326 108.528 288.551 110.671 289.83C112.815 291.108 113.06 294.952 111.219 298.419Z" fill="#009579"/>
<path d="M111.026 298.503C110.864 298.785 110.69 299.06 110.503 299.326C110.108 299.902 109.651 300.429 109.142 300.896C108.332 301.689 107.322 302.196 106.269 302.34C105.814 302.382 105.366 302.302 104.968 302.106C104.89 302.065 104.813 302.019 104.737 301.97C103.015 300.82 103.039 297.401 104.788 294.337C106.538 291.272 109.351 289.718 111.074 290.867C112.797 292.017 112.776 295.435 111.026 298.503Z" fill="#CAE7EF"/>
<path d="M110.957 297.946C112.548 295.003 112.399 291.888 110.626 290.988C108.853 290.087 106.127 291.743 104.536 294.685C102.946 297.628 103.094 300.743 104.867 301.644C106.641 302.544 109.367 300.889 110.957 297.946Z" fill="white"/>
<path d="M110.689 299.271C110.289 299.851 109.827 300.382 109.313 300.852C108.495 301.65 107.473 302.162 106.409 302.306C105.948 302.349 105.496 302.268 105.093 302.07C104.858 300.995 105.377 299.467 106.465 298.277C106.476 298.264 106.486 298.255 106.497 298.242C106.752 297.964 107.034 297.715 107.337 297.5C108.516 296.658 109.766 296.567 110.388 297.386C110.564 297.648 110.682 297.951 110.734 298.276C110.786 298.601 110.771 298.94 110.689 299.271Z" fill="url(#paint7_linear_199_1132)"/>
<path d="M109.324 300.834C108.509 301.629 107.493 302.139 106.433 302.282C106.307 302.218 106.198 302.125 106.111 302.011C105.559 301.287 105.908 299.839 106.888 298.781C107.868 297.723 109.109 297.448 109.658 298.172C110.116 298.773 109.953 299.872 109.324 300.834Z" fill="#590800"/>
<path d="M107.281 299.17C107.157 299.356 107.099 299.579 107.118 299.794C107.138 300.01 107.234 300.202 107.387 300.335C107.467 300.388 107.558 300.422 107.654 300.434C107.751 300.446 107.85 300.437 107.947 300.407C108.043 300.376 108.134 300.325 108.215 300.257C108.295 300.189 108.362 300.105 108.413 300.011C108.537 299.824 108.595 299.602 108.575 299.386C108.556 299.171 108.46 298.978 108.307 298.846C108.227 298.793 108.136 298.759 108.04 298.747C107.943 298.734 107.844 298.744 107.747 298.774C107.651 298.804 107.559 298.855 107.479 298.923C107.399 298.992 107.331 299.075 107.281 299.17Z" fill="white"/>
<path d="M106.356 297.548C106.269 297.678 106.229 297.834 106.243 297.984C106.257 298.135 106.323 298.269 106.43 298.362C106.486 298.399 106.55 298.422 106.617 298.431C106.685 298.44 106.754 298.433 106.822 298.412C106.889 298.391 106.953 298.355 107.009 298.308C107.065 298.26 107.113 298.201 107.148 298.135C107.234 298.005 107.274 297.849 107.261 297.699C107.247 297.549 107.18 297.414 107.074 297.322C107.018 297.285 106.954 297.261 106.887 297.252C106.819 297.243 106.75 297.25 106.682 297.271C106.614 297.292 106.551 297.328 106.494 297.376C106.438 297.423 106.391 297.482 106.356 297.548Z" fill="white"/>
<path d="M115.747 317.122C115.737 316.943 115.542 315.421 111.736 313.072C109.22 311.545 106.423 310.536 103.491 310.096C103.718 309.4 103.989 308.717 104.302 308.054C105.474 305.555 107.895 301.88 111.428 303.876C115.295 306.063 115.79 312.459 115.794 315.499C115.797 316.315 115.764 316.885 115.75 317.075L115.747 317.122Z" fill="#590800"/>
<path d="M115.885 317.122C115.875 316.94 115.678 315.391 111.833 313.001C109.29 311.447 106.465 310.42 103.502 309.972L103.848 309.003C106.145 308.65 108.456 308.956 110.53 309.887C114.119 311.607 115.933 315.472 115.933 315.472L115.889 317.075L115.885 317.122Z" fill="#8B1229"/>
<path d="M114.067 307.639L113.263 308.056L111.588 308.926L112.023 305.374L112.081 304.913L111.506 304.911L110.283 304.905L110.118 304.225L110.093 304.125L109.958 304.185L108.916 304.641L108.85 304.127L108.798 303.744L108.411 304.206L105.982 307.107L106.506 304.827C106.923 304.351 107.446 303.987 108.023 303.772C108.6 303.557 109.213 303.498 109.801 303.599C111.067 303.853 112.186 304.559 112.968 305.599C112.971 305.599 112.973 305.608 112.973 305.608C113.144 305.825 113.301 306.054 113.444 306.292C113.701 306.712 113.91 307.164 114.067 307.639Z" fill="white"/>
<path d="M102.923 309.839L103.277 304.937L106.123 310.692L102.923 309.839Z" fill="white"/>
<path d="M111.421 312.751L118.16 310.102L114.567 315.792L111.421 312.751Z" fill="white"/>
<path d="M101.084 310.1L103.133 309.397C103.133 309.397 105.828 309.262 109.609 310.981C116.996 314.343 116.53 319.594 116.53 319.594C116.53 319.594 115.672 314.431 108.963 311.885C104.889 310.34 102.398 310.936 102.398 310.936L101.084 310.1Z" fill="#590800"/>
<path d="M114.064 307.675L113.258 308.095C113.121 307.068 112.687 306.126 112.013 305.393L112.072 304.928L111.494 304.926C111.231 304.725 110.946 304.557 110.643 304.425C110.468 304.346 110.287 304.283 110.102 304.234L110.076 304.134L109.941 304.194C109.579 304.113 109.204 304.094 108.829 304.136L108.777 303.75L108.389 304.216C107.617 304.421 106.905 304.85 106.338 305.452L106.477 304.841C106.896 304.361 107.421 303.995 108 303.778C108.579 303.561 109.194 303.501 109.784 303.604C111.055 303.859 112.177 304.571 112.962 305.618C112.966 305.619 112.967 305.628 112.967 305.628C113.13 305.855 113.291 306.09 113.439 306.318C113.698 306.741 113.908 307.196 114.064 307.675Z" fill="#8ECEDD"/>
<path d="M104.456 307.487L104.221 307.01C104.221 307.01 106.207 302.068 109.948 302.787C115.01 303.76 115.867 310.935 115.867 310.935L115.372 311.179C115.372 311.179 114.155 303.967 109.848 303.381C106.298 302.898 104.456 307.487 104.456 307.487Z" fill="#02896F"/>
<path d="M127.143 294.698C126.809 293.399 126.241 292.19 125.467 291.134C124.17 289.353 123.364 289.022 123.364 289.022L125.583 289.423L125.072 288.443C125.072 288.443 127.058 288.942 127.836 290.617C128.613 292.292 128.02 294.501 128.02 294.501L127.563 293.479L127.143 294.698Z" fill="#590800"/>
<path d="M141.45 291.65C141.426 291.725 141.401 291.801 141.376 291.88C140.993 293.032 140.464 294.133 139.804 295.154C139.568 295.522 139.314 295.877 139.043 296.219C138.419 297.008 137.722 297.733 136.964 298.382C135.436 299.69 133.724 300.734 131.897 301.473C130.396 300.154 129.437 298.284 129.199 296.212C129.064 294.871 129.381 293.497 130.095 292.32C130.106 292.303 130.112 292.296 130.112 292.296C130.229 292.243 130.344 292.185 130.457 292.131C130.902 291.916 131.33 291.701 131.741 291.487C132.208 291.245 132.654 291.004 133.078 290.765C134.218 290.128 135.328 289.429 136.404 288.672C136.814 288.381 137.19 288.1 137.534 287.831C140.324 285.659 141.082 284.281 141.491 284.718C141.887 285.136 142.339 287.075 141.936 289.621C141.824 290.306 141.662 290.985 141.45 291.65Z" fill="#FF9E12"/>
<path d="M131.14 306.374C131.14 306.374 139.312 304.571 140.153 303.836C140.994 303.1 141.52 301.678 142.222 300.53C142.919 299.389 142.596 298.627 142.771 298.478C143.089 298.207 143.489 298.72 143.474 299.584C143.443 300.159 143.279 300.726 142.996 301.237C142.996 301.237 147.116 299.552 147.451 299.881C147.787 300.21 144.911 301.869 144.911 301.869C144.911 301.869 148.629 301.429 148.825 301.876C149.02 302.322 145.562 303.122 145.562 303.122C145.562 303.122 148.682 303.546 148.914 303.879C149.145 304.212 145.65 304.392 145.65 304.392C145.65 304.392 147.54 305.137 147.315 305.515C147.194 305.72 144.699 305.23 144.337 305.208C143.975 305.187 140.889 305.016 140.889 305.016L131.175 312.184C131.175 312.184 129.874 311.544 129.799 309.363C129.727 307.17 131.14 306.374 131.14 306.374Z" fill="url(#paint8_linear_199_1132)"/>
<path d="M119.935 333.339C119.935 333.339 118.874 327.981 117.365 326.551C116.289 325.535 101.687 321.206 99.5568 321.416C97.5858 321.614 93.9157 323.29 93.9157 323.29C93.0743 323.182 92.2561 322.961 91.4814 322.632C90.7234 322.312 90.0309 321.856 89.4336 321.285C89.4336 321.285 90.8518 313.928 92.3714 308.497C93.8911 303.065 105.551 288.614 109.324 286.475C110.638 285.771 111.998 285.172 113.391 284.685L116.2 284.503L115.281 289.622C115.281 289.622 111.186 288.08 108.482 288.817C105.779 289.553 100.02 297.111 97.8466 305.785C95.6728 314.459 98.4044 317.657 105.217 320.046C112.03 322.436 116.756 323.977 118.546 325.912C120.335 327.848 119.935 333.339 119.935 333.339Z" fill="#02896F"/>
<path d="M115.53 285.568C115.53 285.568 113.85 285.835 112.227 286.217C111.247 286.474 110.282 286.807 109.343 287.214L110.209 286.315L109.385 286.319C110.042 285.453 110.935 284.81 111.935 284.482C113.306 284.11 114.725 284.08 116.072 284.394L114.709 284.998L115.53 285.568Z" fill="#590800"/>
<path d="M127.776 287.214C125.566 286.466 123.171 286.349 120.834 286.873C118.602 287.371 116.531 288.555 114.896 290.267C114.896 290.267 113.562 284.994 116.514 282.104C116.922 281.68 117.417 281.358 117.957 281.165C118.497 280.973 119.066 280.915 119.617 280.997L117.01 279.513C118.811 278.916 120.721 278.993 122.4 279.73C124.077 280.492 124.397 281.289 124.397 281.289L123.648 278.313C123.648 278.313 127.643 279.418 128.622 282.194C129.327 284.192 127.776 287.214 127.776 287.214Z" fill="#443551"/>
<path opacity="0.72" d="M127.297 285.913C127.297 285.913 126.401 283.249 123.036 282.225C119.627 281.188 117.632 282.45 117.632 282.45L120.188 282.674C119.097 282.779 118.061 283.308 117.288 284.154C116.489 285.021 115.95 286.106 115.744 287.265C115.744 287.265 118.112 284.819 121.278 284.796C123.142 284.769 124.953 285.246 126.535 286.18L126.218 285.049L127.297 285.913Z" fill="#725F82"/>
<path opacity="0.43" d="M131.256 314.461C131.257 314.398 131.236 314.338 131.198 314.292C131.161 314.246 131.108 314.217 131.051 314.212C130.993 314.206 130.935 314.223 130.886 314.261C130.837 314.298 130.801 314.353 130.784 314.414C130.35 316.085 129.659 318.864 128.964 322.169C128.348 325.095 127.807 327.913 127.44 329.89C127.427 329.956 127.437 330.023 127.468 330.078C127.499 330.133 127.548 330.172 127.606 330.187C127.664 330.202 127.726 330.193 127.781 330.16C127.835 330.127 127.877 330.074 127.899 330.011C128.635 327.926 129.633 324.963 130.305 322.44C130.932 319.817 131.252 317.135 131.256 314.461Z" fill="white"/>
<path opacity="0.43" d="M127.541 331.769C127.391 332.438 127.157 332.958 127.019 332.931C126.881 332.904 126.89 332.339 127.039 331.67C127.189 331.001 127.423 330.481 127.562 330.508C127.7 330.536 127.691 331.1 127.541 331.769Z" fill="white"/>
<path d="M104.071 312.808C104.071 312.808 106.481 312.547 109.407 314.257C112.333 315.967 112.824 317.164 112.824 317.164L104.071 312.808Z" fill="#02896F"/>
<path d="M139.147 296.216C138.514 297.015 137.807 297.749 137.037 298.406C136.533 298.169 135.388 297.484 133.885 295.642C131.834 293.129 131.735 291.425 131.735 291.425C132.209 291.18 132.662 290.936 133.092 290.694C133.657 292.059 134.479 293.281 135.513 294.293C136.553 295.219 137.796 295.876 139.147 296.216Z" fill="#F93D31"/>
<path d="M141.521 291.825C140.559 291.767 139.63 291.5 138.793 291.043C137.801 290.524 136.966 289.745 136.364 288.778C136.783 288.48 137.167 288.192 137.518 287.917C138.119 288.419 138.788 288.829 139.507 289.134C140.289 289.508 141.141 289.717 142.016 289.749C141.902 290.45 141.737 291.144 141.521 291.825Z" fill="#F93D31"/>
<path opacity="0.13" d="M141.533 291.787C141.145 292.949 140.61 294.059 139.942 295.089C137.037 299.605 131.943 301.46 131.943 301.46C130.425 300.13 129.455 298.245 129.214 296.156C129.078 294.804 129.398 293.418 130.121 292.232L130.487 292.041C130.487 292.041 134.542 293.985 138.042 293.285C139.286 293.064 140.48 292.552 141.533 291.787Z" fill="#590800"/>
<path opacity="0.67" d="M131.753 292.983C131.693 293 131.632 292.993 131.579 292.964C131.527 292.935 131.488 292.887 131.469 292.828C131.451 292.769 131.454 292.704 131.479 292.645C131.504 292.587 131.549 292.538 131.605 292.51C133.039 291.772 134.425 290.931 135.754 289.994C137.053 289.058 138.181 288.134 139.001 287.427C139.049 287.385 139.109 287.363 139.17 287.364C139.231 287.365 139.288 287.389 139.33 287.433C139.372 287.476 139.396 287.535 139.398 287.598C139.399 287.661 139.378 287.724 139.338 287.774C138.368 289.009 137.237 290.101 135.981 291.013C134.687 291.931 133.254 292.599 131.753 292.983Z" fill="white"/>
<path opacity="0.67" d="M103.11 278.287C103.1 278.222 103.113 278.155 103.148 278.097C103.182 278.039 103.234 277.995 103.296 277.972C103.357 277.95 103.423 277.952 103.481 277.977C103.539 278.001 103.585 278.048 103.61 278.107C104.091 279.29 104.655 280.43 105.298 281.52C105.922 282.548 106.609 283.533 107.355 284.466C107.396 284.516 107.416 284.582 107.412 284.649C107.409 284.717 107.381 284.782 107.334 284.832C107.287 284.882 107.226 284.913 107.161 284.919C107.095 284.926 107.032 284.907 106.982 284.866C106.12 284.156 105.351 283.333 104.694 282.416C103.875 281.193 103.335 279.784 103.11 278.287Z" fill="white"/>
<path d="M209.342 313.404C209.342 313.405 209.341 313.405 209.34 313.405C206.64 313.046 203.631 312.228 200.058 310.874C193.06 308.227 189.317 306.645 182.627 310.191C180.984 311.061 181.762 313.401 183.622 313.401H209.341C209.342 313.401 209.343 313.403 209.342 313.404Z" fill="#5F9EFD"/>
<path d="M398.217 267.812C398.216 267.812 398.215 267.812 398.215 267.812C389.657 264.837 370.39 261.358 361.397 265.008C354.989 267.608 353.287 275.506 348.893 279.912C340.262 288.566 331.345 286.953 317.749 286.602C306.827 286.32 308.513 290.105 300.997 295.345C297.054 298.095 291.44 294.372 287.347 296.332C281.563 299.102 279.75 302.725 277.165 304.982C266.053 314.697 250.069 309.848 237.225 318.096C233.324 320.6 230.724 324.586 225.951 325.195C221.989 325.701 215.815 324.011 211.996 325.257C207.127 326.843 203.571 331.638 200.437 336.482C197.999 340.252 201.172 346.527 205.662 346.527H391.318C394.177 346.527 396.454 344.135 396.312 341.28C396.156 338.12 395.999 334.96 395.843 331.801L398.22 267.813C398.22 267.811 398.218 267.811 398.217 267.812Z" fill="url(#paint9_linear_199_1132)"/>
<path d="M324.921 350.27C324.921 350.27 324.92 350.27 324.92 350.27C316.872 351.678 307.643 351.374 300.066 349.36C293.16 347.523 289.907 342.241 282.696 344.957C278.128 346.674 273.826 350.154 269.277 352.056C254.462 358.245 241.772 344.29 227.744 347.878C216.74 350.691 208.407 358.731 197.052 359.229C185.686 359.723 175.685 362.875 164.346 360.46C151.664 357.755 139.264 352.99 126.231 353.484C117.963 353.797 109.467 356.239 101.183 355.158C96.0326 354.487 91.2755 351.752 86.2328 350.212C81.7264 348.835 76.0935 347.465 71.5948 349.356C68.0221 350.86 65.8885 353.619 62.2078 354.31C53.5616 355.934 47.8205 346.099 39.7106 344.452C36.9674 343.896 33.6571 341.929 30.9988 342.002C29.6372 342.039 28.0126 342.54 26.3223 343.384C24.821 344.134 24 345.743 24 347.421V371.436C24 374.198 26.2386 376.436 29 376.436H319.924C322.686 376.436 324.924 374.198 324.924 371.436V350.274C324.924 350.272 324.923 350.27 324.921 350.27Z" fill="#000045"/>
<g style="mix-blend-mode:overlay" opacity="0.28">
<path d="M-138.849 173.738C-138.849 173.738 -109.147 183.882 -90.3127 183.882C-71.4785 183.882 -70.7548 182.434 -66.4066 186.053C-62.0585 189.677 -61.3348 191.849 -51.9205 191.125C-42.5063 190.401 -26.567 193.296 -19.3239 196.197C-12.0808 199.097 -4.8378 194.749 3.85843 196.197C12.549 197.644 39.3557 207.788 66.8805 205.611C66.8805 205.611 1.68723 203.44 -35.9812 199.815C-73.6497 196.191 -125.081 183.152 -138.843 173.738H-138.849Z" fill="white"/>
</g>
<g style="mix-blend-mode:overlay" opacity="0.28">
<path d="M101 139C101 139 127.543 144.676 143.726 142.802C159.91 140.929 160.387 139.63 164.485 142.275C168.583 144.92 169.426 146.699 177.446 145.148C185.466 143.597 199.454 144.479 205.97 146.219C212.487 147.966 218.279 143.55 225.893 143.912C233.508 144.274 257.56 150.241 281 145.66C281 145.66 224.755 150.289 192.022 150.95C159.289 151.611 113.778 145.636 101.008 139H101Z" fill="white"/>
</g>
<g style="mix-blend-mode:overlay" opacity="0.28">
<path d="M-264.978 114C-264.978 114 -53.1589 162.673 138.289 173.834C329.736 184.986 452.964 130.224 452.964 130.224L455 138.34C455 138.34 296.138 200.201 38.4898 179.915C-219.158 159.636 -266 140.367 -266 140.367L-264.978 114Z" fill="white"/>
</g>
<path opacity="0.2" d="M-114 -39C-114 -39 25.9239 96.1757 291 109C291 109 289.028 102.09 278.192 100.116C267.356 98.1421 255.526 103.078 252.569 96.168C249.611 89.2584 239.761 69.5246 219.066 68.5452C198.372 67.5659 185.564 79.3954 174.72 72.4935C163.876 65.5917 151.068 52.7597 140.232 53.7468C129.396 54.7338 102.787 62.6305 98.8433 50.7855C94.9001 38.9406 94.9001 18.2274 72.2341 -7.42893C49.5681 -33.0852 -18.4223 12.3049 -29.2585 -2.49354C-40.0948 -17.292 -43.0522 -39 -56.8459 -39H-114Z" fill="white"/>
<path opacity="0.2" d="M191 111.94C191 111.94 19.9634 114.287 -98.1857 89.6113C-216.326 64.9354 -261 28.5062 -261 28.5062C-261 28.5062 -235.136 40.2596 -223.968 39.0815C-212.799 37.9034 -198.694 24.392 -189.293 26.1591C-179.892 27.9262 -172.839 50.8349 -165.197 52.013C-157.555 53.1911 -152.85 46.7208 -122.291 47.3098C-91.7312 47.8988 -89.3742 67.8715 -75.8577 77.2779C-62.3412 86.6752 -23.5504 80.803 -5.32899 80.214C12.8924 79.6249 22.2932 98.4286 34.051 100.776C45.8088 103.123 70.4939 94.3144 75.779 96.0725C81.0641 97.8305 84.5996 104.89 90.474 104.301C96.3483 103.712 95.1789 97.2505 101.053 100.776C106.928 104.301 123.39 109.004 128.086 103.712C132.791 98.4195 190.973 111.94 190.973 111.94H191Z" fill="white"/>
<path opacity="0.2" d="M150 29.5247C150 29.5247 308.199 61.3008 382 55.2288C382 55.2288 366.856 48.7868 358.318 49.6287C349.781 50.4706 343.587 55.3053 333.491 45.7508C323.408 36.1963 295.451 27.3179 280.371 35.7371C265.305 44.1563 253.625 39.9849 249.349 36.6938C245.074 33.4027 240 36.5152 230.664 36.3239C221.315 36.1453 210.344 10.7091 197.196 11.0025C184.048 11.2959 179.992 29.3717 172.123 24.7283C164.255 20.085 150 29.5247 150 29.5247Z" fill="white"/>
<path d="M136.718 342.086H-19V310.169C-17.521 309.7 -15.954 309.235 -14.2988 308.781C-5.23943 306.305 6.44116 304.2 20.8405 303.649C28.8111 303.347 37.6188 303.52 47.2729 304.376C83.7307 307.601 116.954 327.586 136.718 342.086Z" fill="url(#paint10_linear_199_1132)"/>
<g style="mix-blend-mode:screen" opacity="0.34">
<path d="M136.718 342.086H130.573C122.879 336.469 109.188 327.061 98.2685 322.74C82.1542 316.362 69.7341 316.025 58.3179 310.99C46.9047 305.953 31.7974 306.289 23.4019 305.619C15.0097 304.946 5.94398 306.289 -2.785 308.303C-7.35087 309.357 -13.8457 311.604 -19 313.508V310.169C-17.521 309.7 -15.954 309.235 -14.2988 308.781C-5.23943 306.305 6.44116 304.2 20.8405 303.649C28.8111 303.347 37.6188 303.52 47.2729 304.376C83.7307 307.601 116.954 327.586 136.718 342.086Z" fill="white"/>
</g>
<path style="mix-blend-mode:multiply" opacity="0.46" d="M99.5366 342.086H-19V310.169C-17.521 309.7 -15.954 309.235 -14.2988 308.781C-14.5096 309.423 -14.604 310.103 -14.5568 310.811C-14.3869 313.278 -12.4202 315.333 -10.1577 316.33C-7.8984 317.328 -5.36215 317.466 -2.89198 317.57C10.0725 318.121 23.0621 318.121 36.0265 317.57C37.6565 317.501 39.3463 317.432 40.8662 318.023C42.3892 318.615 43.7108 320.056 43.6133 321.686C43.4748 324.052 40.5987 325.604 40.5641 327.976C40.5421 329.487 41.7693 330.79 43.1759 331.34C44.5856 331.891 46.1432 331.85 47.6536 331.797C59.7905 331.365 71.9368 330.598 84.0674 331.202C87.1008 331.35 90.1877 331.601 93.004 332.741C95.8204 333.88 98.366 336.054 99.244 338.962C99.5524 339.981 99.6373 341.038 99.5366 342.086Z" fill="url(#paint11_linear_199_1132)"/>
<path d="M38.6621 272.459C39.7016 273.604 40.399 275.46 39.4592 276.745L38.1505 278.533C37.502 279.419 36.1771 279.426 35.7539 278.448C35.3918 277.611 35.1326 276.721 34.9841 275.798C34.6255 273.201 35.3606 268.783 36.4139 268.907C36.4178 268.907 36.4219 268.906 36.4258 268.906C36.4297 268.905 36.4336 268.907 36.4375 268.907C37.4956 269.086 37.6159 271.189 38.6621 272.459Z" fill="#FFBF59"/>
<path opacity="0.13" d="M37.6625 277.824C37.8715 278.238 37.8981 278.764 37.6177 279.149C37.2111 279.708 36.3769 279.714 36.0664 279.119C35.5267 278.084 35.1534 276.952 34.9632 275.765C34.8529 274.962 34.8471 273.984 34.9227 273.022C35.1244 270.455 36.1603 270.898 36.491 273.437C36.5603 273.968 36.6497 274.496 36.7593 275.018C37.0747 276.438 37.3981 277.302 37.6625 277.824Z" fill="#590800"/>
<path d="M68.315 277.942C68.1705 278.244 68.042 278.504 67.9251 278.726C67.7197 279.115 67.5541 279.395 67.4288 279.594C67.273 279.863 66.9202 279.916 66.6574 279.762L62.7255 277.446C62.4897 277.307 62.5211 276.953 62.7756 276.833C63.7559 276.395 64.6821 275.822 65.5274 275.129C66.1745 274.473 66.8574 273.857 67.5721 273.284C67.7364 273.141 67.9278 273.037 68.1313 272.981C68.3348 272.925 68.5448 272.919 68.7449 272.961C69.634 273.257 69.1335 276.229 68.315 277.942Z" fill="#FFBF59"/>
<path opacity="0.13" d="M67.7187 278.423C67.8383 278.618 67.8269 278.928 67.7114 279.133C67.5443 279.429 67.2003 279.461 66.9133 279.291L65.492 278.447C64.3422 277.764 64.4681 276.001 65.5314 275.13C65.5448 275.116 65.5583 275.103 65.5719 275.089C66.2268 274.429 67.2862 274.991 67.2083 275.896C67.1393 276.408 67.1675 276.922 67.2915 277.408C67.3839 277.771 67.528 278.113 67.7187 278.423Z" fill="#590800"/>
<path d="M65.6242 309.039C64.0584 308.648 63.878 307.033 65.3319 306.248C67.3515 305.159 69.9453 303.756 70.5469 303.417C71.5642 302.843 71.884 302.508 74.5753 301.074C76.0135 300.309 77.7494 300.282 77.8002 300.569C77.8511 300.856 76.7903 300.895 76.2278 301.119C76.0311 301.198 76.1246 301.448 76.3337 301.419C76.6174 301.379 76.9021 301.356 77.1866 301.348C78.666 301.236 79.1839 301.521 79.1284 301.796C79.0729 302.072 78.2095 301.929 77.1421 302.084C77.1269 302.086 77.1117 302.088 77.0965 302.091C76.9194 302.116 76.9596 302.497 77.1323 302.531C78.4126 302.692 78.9275 302.771 78.8639 303.097C78.8004 303.424 77.575 303.217 77.0528 303.264C77.011 303.268 76.9654 303.272 76.917 303.275C76.8082 303.283 76.7821 303.532 76.8874 303.554C77.4415 303.688 78.1537 303.803 78.1558 304.086C78.1578 304.369 77.0479 304.199 76.5217 304.194C75.9955 304.19 74.8319 304.118 74.732 304.222C74.6321 304.327 75.0946 304.964 75.5245 305.112C75.9544 305.26 76.195 305.514 76.0511 305.744C75.9072 305.974 75.0415 305.612 74.4998 305.324C73.958 305.037 72.6923 304.097 72.4855 304.116C72.3441 304.129 69.7601 306.552 68.1428 308.081C67.3359 308.844 66.6822 309.303 65.6242 309.039Z" fill="#B70400"/>
<path d="M35.8667 297.038C35.5281 298.79 33.8356 299.263 33.0378 297.715C32.0747 295.846 30.9345 293.639 30.6445 293.102C30.1194 292.128 29.8101 291.843 28.4962 289.255C27.7936 287.873 27.7658 286.083 28.0274 285.992C28.2889 285.901 28.3296 286.991 28.5328 287.542C28.5985 287.715 28.8366 287.624 28.8122 287.44C28.7721 287.137 28.748 286.83 28.7401 286.521C28.6348 285.009 28.8941 284.435 29.1457 284.455C29.3972 284.475 29.2688 285.387 29.4125 286.468C29.4917 287.091 29.6383 287.698 29.8494 288.276C29.7246 287.673 29.715 287.042 29.821 286.419C29.9655 285.075 30.0359 284.532 30.3349 284.554C30.6338 284.575 30.4467 285.869 30.4905 286.402C30.4939 286.444 30.4972 286.489 30.5004 286.536C30.5066 286.63 30.7395 286.628 30.7562 286.534C30.8785 285.944 30.9807 285.193 31.2395 285.153C31.4982 285.113 31.3448 286.282 31.3419 286.826C31.3389 287.371 31.2759 288.581 31.3715 288.671C31.467 288.76 32.0478 288.197 32.1815 287.733C32.3153 287.269 32.5466 286.986 32.7548 287.104C32.963 287.221 32.6363 288.164 32.3747 288.762C32.1131 289.361 31.2584 290.794 31.2757 291.005C31.2879 291.154 33.6376 293.631 35.0265 295.083C35.6597 295.745 36.0439 296.121 35.8667 297.038Z" fill="url(#paint12_linear_199_1132)"/>
<path opacity="0.5" d="M35.9846 296.486C35.7695 297.195 34.7735 297.331 34.4367 296.696C33.9997 295.873 35.1831 295.063 35.8204 295.749C36.0027 295.945 36.0644 296.222 35.9846 296.486Z" fill="#B70400"/>
<path d="M65.6308 310.194C63.8149 314.576 61.3238 319.059 59.5638 324.551C58.1036 329.107 54.427 332.623 53.2168 333.688C52.9722 333.903 52.6394 333.975 52.3288 333.895L51.4767 333.674C51.4171 333.659 51.382 333.598 51.3935 333.538C51.5434 332.892 52.2428 329.476 51.3264 326.524C50.3073 323.255 41.3178 323.191 38.8418 324.6C36.6306 325.858 32.7459 329.468 31.9401 330.225C31.8406 330.319 31.7218 330.384 31.5898 330.419C31.1401 330.539 30.7037 330.256 30.6753 329.804C30.5374 327.61 30.4661 321.241 33.183 312.269C36.5815 301.046 35.0533 296.689 36.0294 288.423C36.5019 284.432 37.7149 279.808 40.4658 276.434C40.466 276.434 40.4664 276.433 40.4667 276.433L40.467 276.433C40.4676 276.432 40.4681 276.432 40.4684 276.431C40.4687 276.43 40.4689 276.43 40.469 276.429L40.4691 276.428C40.4691 276.428 40.4691 276.428 40.469 276.427C40.4687 276.426 40.4689 276.425 40.4696 276.425C40.4734 276.42 40.4767 276.418 40.4792 276.414C40.4813 276.411 40.4829 276.407 40.4854 276.404C42.9026 273.455 46.5 271.463 51.813 271.699C52.7059 271.741 53.5923 271.836 54.468 271.983C54.8255 272.043 55.1874 272.107 55.5575 272.187C64.4116 274.03 69.2775 279.271 69.9134 280.857C69.9596 280.954 69.9839 281.063 69.9846 281.174C69.9089 282.18 69.4029 283.571 67.853 286.176C66.3031 288.782 65.4457 293.74 67.0436 298.955C68.6414 304.17 67.4514 305.81 65.6308 310.194Z" fill="url(#paint13_linear_199_1132)"/>
<path d="M31.9077 329.629C31.4418 329.753 31.0703 330.129 31.2366 330.565C31.7236 331.843 33.6592 333.689 34.0516 333.564C34.5689 333.399 34.7383 332.374 35.2245 332.588C35.6903 332.794 36.0902 332.932 36.2569 332.894C36.9154 332.743 36.681 331.383 37.3506 331.419C37.7538 331.441 38.0634 331.404 38.1414 331.26C38.3781 330.823 33.797 329.862 32.5399 329.607C32.3309 329.565 32.1164 329.573 31.9077 329.629Z" fill="#B70400"/>
<path d="M52.6385 333.263C52.5891 333.246 52.5412 333.234 52.4895 333.224C51.8822 333.116 47.7754 332.396 47.6038 332.741C47.5543 332.84 47.7971 332.965 48.1798 333.095C48.6399 333.251 48.1369 334.172 48.2776 334.63C48.3426 334.841 48.9043 334.91 49.5851 334.914C50.3886 334.919 50.1192 336.334 50.7796 336.764C51.1061 336.976 52.2308 335.818 53.0658 334.872C53.5525 334.321 53.3234 333.495 52.6385 333.263Z" fill="#B70400"/>
<path d="M46.4083 300.527C50.1574 301.493 54.4889 297.94 56.0829 292.591C57.677 287.242 55.93 282.123 52.1809 281.157C48.4318 280.191 44.1003 283.744 42.5062 289.093C40.9122 294.442 42.6592 299.561 46.4083 300.527Z" fill="#B70400"/>
<path d="M65.8287 293.207C65.3999 294.746 64.4955 296.125 63.2605 297.124C62.9366 297.372 62.5179 297.437 62.1187 297.383C62.0832 297.379 62.0474 297.374 62.0112 297.369L61.8014 297.341L61.7975 297.34C61.4301 297.295 61.0291 297.257 60.5978 297.227C60.2053 297.199 59.8569 297.178 59.5348 297.158C59.3329 297.145 59.1455 297.135 58.9703 297.124C58.7599 297.108 58.5596 297.024 58.4307 296.864C58.3686 296.787 58.3096 296.706 58.2541 296.623C57.3642 295.31 57.118 293.249 57.7511 291.125C58.7036 287.931 61.2849 285.804 63.5119 286.378C65.7389 286.952 66.7812 290.012 65.8287 293.207Z" fill="#B70400"/>
<path d="M46.8813 299.729C50.154 300.545 54.0221 297.264 55.521 292.402C57.0198 287.539 55.5819 282.937 52.3092 282.121C49.0366 281.306 45.1685 284.587 43.6696 289.449C42.1707 294.312 43.6086 298.914 46.8813 299.729Z" fill="#CAE7EF"/>
<path d="M47.3078 299.394C50.4252 300.171 54.1098 297.045 55.5375 292.414C56.9653 287.782 55.5955 283.398 52.4781 282.622C49.3607 281.845 45.6761 284.97 44.2483 289.602C42.8206 294.233 44.1903 298.617 47.3078 299.394Z" fill="white"/>
<path d="M50.7465 296.412C52.5161 296.853 54.6077 295.079 55.4182 292.45C56.2286 289.82 55.4511 287.332 53.6815 286.891C51.9119 286.45 49.8203 288.224 49.0098 290.853C48.1993 293.482 48.9769 295.971 50.7465 296.412Z" fill="url(#paint14_linear_199_1132)"/>
<path d="M55.0368 292.368C54.4568 294.25 52.9605 295.519 51.6943 295.203C50.4281 294.888 49.8723 293.107 50.4521 291.226C51.0319 289.345 52.5283 288.076 53.7941 288.392C55.0599 288.707 55.6164 290.488 55.0368 292.368Z" fill="#590800"/>
<path d="M48.3957 292.757C49.4076 293.008 50.5039 292.32 50.8442 291.219C51.1845 290.118 50.6401 289.022 49.6282 288.77C48.6162 288.519 47.52 289.208 47.1797 290.309C46.8393 291.409 47.3838 292.506 48.3957 292.757Z" fill="white"/>
<path d="M51.5645 293.245C51.9347 293.337 52.3359 293.085 52.4604 292.682C52.585 292.279 52.3857 291.878 52.0154 291.786C51.6451 291.694 51.244 291.946 51.1195 292.349C50.9949 292.752 51.1942 293.153 51.5645 293.245Z" fill="white"/>
<path d="M64.6592 293.569C64.5379 293.962 64.3837 294.347 64.1985 294.717C63.8038 295.549 63.234 296.286 62.5377 296.867C62.3641 297.01 62.1811 297.138 61.9906 297.25C61.8745 297.318 61.7389 297.342 61.6079 297.325L61.6045 297.324C61.2501 297.287 60.8646 297.252 60.4496 297.228C60.0718 297.205 59.7349 297.187 59.4267 297.173C59.0743 297.153 58.7311 297.032 58.5236 296.762C58.4831 296.71 58.4443 296.655 58.4074 296.599C57.6737 295.507 57.4972 293.745 58.0584 291.926C58.8937 289.217 61.046 287.389 62.8714 287.844C64.4171 288.228 65.2241 290.129 64.9244 292.351C64.8721 292.761 64.7833 293.169 64.6592 293.569Z" fill="#CAE7EF"/>
<path d="M64.6694 293.573C64.5482 293.967 64.394 294.351 64.2088 294.722C63.8017 295.556 63.2081 296.287 62.4853 296.843C62.2154 297.042 61.9255 297.205 61.6229 297.327C61.6208 297.328 61.6184 297.328 61.6162 297.328C61.262 297.29 60.8767 297.256 60.4618 297.232C60.4511 297.231 60.4403 297.23 60.4296 297.23C59.7813 297.19 59.1104 297.028 58.7571 296.512C58.1639 295.581 57.9366 294.416 58.1185 293.238C58.1461 293.009 58.1856 292.78 58.2369 292.553L58.2382 292.549C58.2786 292.368 58.326 292.189 58.382 292.008C59.1764 289.431 61.2284 287.691 62.9643 288.123C64.4212 288.486 65.1936 290.265 64.9338 292.356C64.8817 292.766 64.7932 293.174 64.6694 293.573Z" fill="white"/>
<path d="M61.8603 293.377C61.4092 294.84 60.2451 295.827 59.2605 295.582C58.2758 295.336 57.8433 293.952 58.2944 292.488C58.7455 291.025 59.9092 290.038 60.8938 290.284C61.8785 290.529 62.3113 291.914 61.8603 293.377Z" fill="url(#paint15_linear_199_1132)"/>
<path d="M60.9694 293.261C60.6466 294.308 59.8139 295.014 59.1095 294.839C58.4051 294.663 58.0955 293.672 58.4182 292.626C58.7409 291.579 59.5736 290.873 60.278 291.048C60.9824 291.224 61.2919 292.215 60.9694 293.261Z" fill="#590800"/>
<path d="M59.7838 293.06C59.726 293.247 59.6184 293.417 59.4747 293.549C59.3311 293.681 59.1578 293.768 58.9767 293.8C58.7957 293.833 58.6151 293.808 58.4577 293.73C58.3003 293.651 58.1732 293.523 58.0925 293.36C58.0118 293.197 57.9811 293.008 58.0043 292.816C58.0275 292.625 58.1035 292.439 58.2228 292.282C58.3421 292.126 58.4992 292.006 58.6743 291.937C58.8495 291.869 59.0348 291.855 59.2068 291.898C59.4374 291.955 59.6277 292.11 59.736 292.327C59.8442 292.545 59.8614 292.809 59.7838 293.06Z" fill="white"/>
<path d="M60.7591 293.905C60.7342 293.985 60.6881 294.058 60.6264 294.114C60.5647 294.171 60.4904 294.208 60.4127 294.222C60.3351 294.236 60.2576 294.225 60.1901 294.191C60.1227 294.158 60.0682 294.102 60.0336 294.033C59.999 293.963 59.9859 293.882 59.9959 293.8C60.0059 293.717 60.0385 293.637 60.0897 293.57C60.1408 293.503 60.2082 293.452 60.2834 293.422C60.3585 293.393 60.4379 293.387 60.5117 293.406C60.5607 293.418 60.606 293.44 60.645 293.472C60.684 293.504 60.7159 293.544 60.7388 293.59C60.7618 293.636 60.7754 293.688 60.7789 293.742C60.7824 293.796 60.7757 293.851 60.7591 293.905Z" fill="white"/>
<path d="M59.6891 287.058C59.5201 287.091 59.4081 286.922 59.5161 286.788C60.0455 286.132 61.4145 284.697 63.9653 283.611C65.8376 282.814 67.2825 282.445 68.206 282.273C68.5564 282.208 68.686 282.587 68.3888 282.786C68.0953 282.983 68.2207 283.425 68.5708 283.427L69.216 283.432C69.6115 283.435 69.8669 283.825 69.6682 284.167C69.2406 284.902 68.6767 285.551 68.0092 286.072C66.4902 287.168 62.8411 286.865 60.5384 287.784C60.4059 287.837 60.2741 287.892 60.1432 287.949C59.873 288.068 59.5903 287.74 59.7687 287.507L59.8796 287.363C59.9899 287.219 59.8673 287.023 59.6891 287.058Z" fill="#590800"/>
<path d="M56.7685 286.129C56.8511 286.826 56.0674 287.107 55.5525 286.631C54.5903 285.741 53.5182 284.982 52.3589 284.373C50.6781 283.584 48.3536 282.736 47.0583 282.282C46.7908 282.188 46.829 281.798 47.1118 281.741C47.3441 281.694 47.4331 281.397 47.2881 281.22C47.0762 280.96 46.906 280.663 46.7847 280.341C46.2297 279.087 47.8371 277.985 49.1105 278.538C49.9519 278.903 50.9169 279.327 51.9175 279.774C55.1525 281.219 56.6696 283.536 57.1871 284.502C57.2792 284.674 57.111 284.855 56.9219 284.795C56.7482 284.74 56.5718 284.896 56.6051 285.072C56.6557 285.341 56.72 285.718 56.7685 286.129Z" fill="#590800"/>
<path opacity="0.88" d="M54.3522 326.874C54.0651 328.403 51.7308 327.809 51.276 326.343C50.2588 323.077 41.2855 323.013 38.814 324.42C36.6067 325.677 32.7287 329.284 31.9247 330.041C31.8255 330.134 31.707 330.199 31.5752 330.234C31.1263 330.353 30.6906 330.071 30.6623 329.62C30.5246 327.428 30.4534 321.065 33.1654 312.101C36.5578 300.889 35.0325 296.535 36.0067 288.277C36.1901 286.727 37.1233 287.097 37.0681 288.653C37.0135 290.189 37.1195 291.764 37.4643 293.312C39.2803 301.46 37.4576 316.968 42.1725 319.415C46.8875 321.863 52.1005 320.753 54.0067 323.838C54.5211 324.671 54.5639 325.747 54.3522 326.874Z" fill="#B70400"/>
<path opacity="0.5" d="M54.0328 313.793C53.3826 313.71 52.0557 314.97 52.5759 315.349C52.8801 315.571 53.2228 315.755 53.608 315.881C54.1855 316.068 54.7426 316.13 55.2754 316.094C55.4502 316.082 54.2056 313.814 54.0328 313.793Z" fill="#B70400"/>
<path d="M56.3709 314.362C55.5316 314.452 55.9033 313.655 56.7402 313.54C57.0828 313.497 57.6152 314.11 57.28 314.197C57.1731 314.225 57.0643 314.25 56.9535 314.272C56.7562 314.312 56.5619 314.342 56.3709 314.362Z" fill="#5B1800"/>
<path opacity="0.43" d="M58.5122 312.439C57.7194 312.894 57.8216 311.798 58.5797 311.288C59.3778 310.741 60.0794 310.065 60.6592 309.294C60.8984 308.976 61.3959 309.133 61.2106 309.482C60.6869 310.471 59.9685 311.343 59.106 312.037C58.9127 312.19 58.7143 312.323 58.5122 312.439Z" fill="white"/>
<path opacity="0.43" d="M62.5354 305.685C62.4475 306.096 62.2892 306.414 62.1822 306.396C62.0751 306.378 62.0601 306.03 62.1476 305.619C62.2351 305.208 62.3931 304.892 62.5008 304.908C62.6085 304.924 62.624 305.275 62.5354 305.685Z" fill="white"/>
<path d="M55.9118 298.515C55.3682 298.59 54.9522 298.079 55.1433 297.571C55.3851 296.927 56.3078 296.914 56.5281 297.551C56.6772 297.982 56.3777 298.45 55.9118 298.515Z" fill="white"/>
<path d="M65.4693 299.603C65.1913 299.463 65.106 299.113 65.2866 298.853C65.5873 298.42 66.2665 298.617 66.2533 299.134C66.2434 299.523 65.8179 299.778 65.4693 299.603Z" fill="white"/>
<path d="M58.6537 299.261C57.3756 299.185 57.1058 298.216 58.3887 298.194C58.5158 298.192 58.6429 298.191 58.7697 298.191C60.2492 298.198 61.4558 298.286 62.4366 298.417C64.8996 298.747 65.2071 301.136 63.5162 302.986L62.6886 303.892C63.9806 302.029 63.4942 299.861 61.2659 299.524C60.5384 299.414 59.6752 299.321 58.6537 299.261Z" fill="#590800"/>
<path d="M60.9514 286.056C60.8198 286.053 60.7699 285.891 60.8772 285.813C61.5643 285.311 62.2771 284.851 63.0117 284.435C63.8832 283.984 64.7921 283.629 65.7226 283.376C65.8882 283.331 65.9897 283.527 65.8615 283.641C65.7484 283.742 65.8141 283.922 65.9643 283.924C66.1705 283.927 66.1961 284.3 65.9947 284.351C65.3445 284.514 64.6997 284.709 64.0626 284.936C63.0849 285.302 62.1507 285.799 61.2846 286.413C61.1666 286.497 61.0089 286.371 61.0735 286.244C61.1173 286.157 61.0574 286.058 60.9601 286.056L60.9514 286.056Z" fill="#8C130D"/>
<path d="M55.896 283.639C56.0145 283.712 56.1497 283.58 56.0709 283.466C55.3076 282.366 54.3217 281.459 53.1744 280.804C51.7488 279.978 50.2615 279.265 48.7242 278.67C48.5523 278.603 48.4205 278.822 48.5627 278.936C48.7128 279.057 48.5548 279.294 48.3798 279.21L48.1927 279.121C48.0035 279.03 47.8415 279.252 47.999 279.388C48.8242 280.101 49.7369 280.701 50.7175 281.175C52.3285 282.1 53.856 283.165 55.2854 284.36C55.4834 284.526 55.796 284.347 55.749 284.094L55.6905 283.778C55.6695 283.665 55.7976 283.578 55.896 283.639Z" fill="#8C130D"/>
<path d="M63.3265 297.029C63.5635 297.153 63.4069 297.493 63.1421 297.445C63.0343 297.425 62.9205 297.405 62.8009 297.385C62.5797 297.348 62.3365 297.31 62.0731 297.275C62.0043 297.266 61.9329 297.256 61.862 297.246L61.8584 297.245C61.4876 297.2 61.0842 297.158 60.6501 297.126C60.255 297.096 59.9027 297.072 59.5805 297.052C59.3772 297.038 59.1879 297.027 59.0114 297.015C58.8939 297.006 58.7847 296.999 58.6822 296.994C58.5713 296.987 58.4676 296.981 58.3709 296.976C58.0694 296.959 57.9992 296.596 58.2892 296.505C58.3553 296.483 58.4266 296.459 58.5037 296.436C58.6104 296.404 58.7297 296.374 58.8537 296.346C59.4716 296.203 60.0996 296.154 60.7186 296.2C61.4279 296.268 62.1156 296.453 62.7568 296.75L62.8238 296.78C63.0038 296.863 63.1714 296.946 63.3265 297.029Z" fill="#B70400"/>
<path d="M38.5979 294.682C38.3434 296.193 37.6855 297.377 37.1284 297.326C36.5714 297.276 36.3259 296.009 36.58 294.498C36.8342 292.987 37.4921 291.803 38.0491 291.854C38.606 291.905 38.8522 293.17 38.5979 294.682Z" fill="#FF5B57"/>
<path d="M38.8396 294.713C38.5854 296.224 37.9274 297.409 37.3705 297.357C36.8136 297.306 36.5676 296.04 36.8217 294.529C37.0759 293.018 37.7337 291.834 38.2912 291.885C38.8487 291.935 39.0945 293.2 38.8396 294.713Z" fill="#8C0000"/>
<path d="M36.9251 307.253C36.7567 308.254 36.3204 309.04 35.9513 309.006C35.5821 308.972 35.4194 308.133 35.5877 307.131C35.7561 306.129 36.1928 305.344 36.5616 305.378C36.9305 305.411 37.0935 306.251 36.9251 307.253Z" fill="#FF5B57"/>
<path d="M37.1112 307.294C36.9429 308.295 36.5065 309.08 36.1374 309.046C35.7683 309.013 35.6051 308.173 35.7739 307.172C35.9426 306.17 36.3785 305.385 36.7478 305.419C37.1171 305.452 37.2796 306.292 37.1112 307.294Z" fill="#8C0000"/>
<path d="M34.9237 313.279C34.7553 314.28 34.3186 315.065 33.9499 315.032C33.5812 314.998 33.418 314.159 33.5865 313.157C33.7549 312.154 34.1911 311.37 34.5602 311.404C34.9294 311.438 35.0921 312.277 34.9237 313.279Z" fill="#FF5B57"/>
<path d="M35.103 313.328C34.9347 314.33 34.4984 315.115 34.1292 315.081C33.7601 315.047 33.5973 314.208 33.7662 313.206C33.9351 312.204 34.3709 311.419 34.7396 311.453C35.1083 311.487 35.2715 312.326 35.103 313.328Z" fill="#8C0000"/>
<path d="M37.5738 311.185C37.4589 311.861 37.165 312.392 36.9152 312.369C36.6654 312.347 36.5559 311.78 36.6701 311.103C36.7842 310.425 37.0784 309.895 37.3282 309.918C37.5781 309.941 37.6879 310.508 37.5738 311.185Z" fill="#FF5B57"/>
<path d="M37.695 311.218C37.5801 311.895 37.2863 312.426 37.0369 312.403C36.7875 312.38 36.6776 311.813 36.7914 311.136C36.9051 310.459 37.1996 309.929 37.4494 309.951C37.6993 309.974 37.8091 310.541 37.695 311.218Z" fill="#8C0000"/>
<path d="M38.756 281.234C38.4819 281.872 38.0744 282.314 37.8456 282.22C37.6169 282.127 37.6536 281.535 37.9281 280.894C38.2025 280.254 38.6096 279.815 38.8384 279.908C39.0672 280.001 39.0296 280.596 38.756 281.234Z" fill="#FF5B57"/>
<path d="M38.8646 281.299C38.5908 281.937 38.1832 282.378 37.9547 282.285C37.7262 282.193 37.7623 281.599 38.0366 280.959C38.3109 280.319 38.7182 279.88 38.9469 279.973C39.1757 280.066 39.1379 280.662 38.8646 281.299Z" fill="#8C0000"/>
<path d="M40.5188 301.83C40.1407 304.079 39.1606 305.844 38.3312 305.767C37.5019 305.69 37.1356 303.806 37.5146 301.555C37.8936 299.304 38.8729 297.541 39.7022 297.618C40.5316 297.695 40.8978 299.579 40.5188 301.83Z" fill="#FF5B57"/>
<path d="M40.8882 301.878C40.51 304.127 39.5295 305.892 38.7001 305.815C37.8707 305.738 37.5049 303.853 37.883 301.603C38.2612 299.352 39.2417 297.589 40.0711 297.666C40.9005 297.743 41.2669 299.627 40.8882 301.878Z" fill="#8C0000"/>
<path d="M38.4984 286.998C38.2322 288.581 37.5424 289.822 36.9586 289.769C36.3748 289.715 36.1173 288.389 36.3836 286.805C36.6499 285.221 37.3395 283.98 37.9233 284.034C38.5072 284.087 38.7633 285.418 38.4984 286.998Z" fill="#FF5B57"/>
<path d="M38.7499 287.059C38.4837 288.642 37.7944 289.884 37.2101 289.83C36.6259 289.777 36.3694 288.45 36.6355 286.866C36.9017 285.283 37.5915 284.042 38.1753 284.095C38.7591 284.149 39.0166 285.475 38.7499 287.059Z" fill="#8C0000"/>
<path opacity="0.26" d="M64.3022 276.399C67.2979 278.355 65.564 281.487 62.0441 280.68C60.3075 280.282 58.6018 279.764 56.9382 279.126C53.591 277.788 51.2203 276.162 49.6681 274.845C48.4987 273.852 49.2048 272.195 50.7597 272.019C50.8703 272.007 50.9814 272.003 51.0921 272.009C51.9602 272.056 52.8222 272.153 53.6743 272.299C54.0445 272.362 54.419 272.43 54.8022 272.514C58.7358 273.345 61.9091 274.836 64.3022 276.399Z" fill="white"/>
<path d="M54.241 272.922C51.6274 272.588 50.2518 268.729 52.7808 267.885C56.7244 266.669 59.4414 266.8 60.8767 267.048C61.2743 267.116 61.2474 267.56 60.8508 267.658L60.3077 267.791C59.9015 267.891 59.9398 268.648 60.3455 268.725C61.367 268.897 62.1017 269.107 62.6178 269.298C63.0583 269.462 62.9339 269.918 62.4585 269.959L60.0548 270.165C59.7023 270.195 59.6263 270.925 59.9539 271.044C60.925 271.293 60.7411 272.487 59.7577 272.749L57.7898 273.273C57.4757 273.356 57.1532 273.369 56.837 273.313C56.3096 273.221 55.3805 273.068 54.241 272.922Z" fill="#590800"/>
<path d="M1.67497 332.291L-6.50334 333.7C-6.50334 333.7 -15.8082 304.093 -16.6546 290.842C-16.6578 290.795 -16.6609 290.748 -16.6641 290.704V290.7C-17.1298 282.173 -8.72177 303.791 -3.13321 318.955C-0.389277 326.4 1.67497 332.291 1.67497 332.291Z" fill="url(#paint16_linear_199_1132)"/>
<g style="mix-blend-mode:multiply" opacity="0.46">
<path d="M1.67497 332.291L-6.50333 333.7C-6.50333 333.7 -15.8082 304.093 -16.6546 290.842C-16.6578 290.795 -16.6609 290.748 -16.6641 290.704C-14.839 298.199 -11.1007 312.907 -8.17109 320.276C-6.04076 325.638 -4.30063 322.813 -3.1332 318.955C-0.389267 326.4 1.67497 332.291 1.67497 332.291Z" fill="#4194F2"/>
</g>
<path d="M26.27 250.888C26.27 250.888 25.2536 260.055 24.2341 260.87C23.2146 261.685 20.1623 270.442 20.1623 270.442C20.1623 270.442 18.9382 279.199 18.1232 281.641C17.6008 283.211 15.1464 288.636 13.4598 292.324C13.4598 292.356 13.4598 292.384 13.4629 292.415C13.4661 292.51 13.4661 292.604 13.4692 292.702C13.7681 306.689 14.6901 344.481 14.6901 344.481L4.13291 344.616L0.476429 344.663L-6.35508 344.748L-2.48463 280.537C-2.48463 280.537 -5.92083 273.925 -6.44948 272.607C-6.97813 271.285 -8.56093 260.977 -8.56093 259.394C-8.56093 258.585 -10.622 255.099 -12.6422 251.873C-14.5806 248.774 -16.4875 245.916 -16.4875 245.916L-21.7771 239.84L-26 230.063L-25.6224 229.607L-24.6847 228.477L-19.9237 236.665C-19.9237 236.665 -8.8284 248.824 -7.50363 249.881C-6.18831 250.939 -3.28074 260.715 -3.01327 261.773C-2.78986 262.682 0.769075 270.247 1.75714 272.336C1.91763 272.673 2.00887 272.868 2.00887 272.868L2.02776 272.437L3.3242 241.955V215.79L4.60177 215.551L6.41427 215.214L7.55653 215L10.055 236.221C10.055 236.221 10.0708 236.203 10.0959 236.171H10.0991C10.6214 235.539 15.6971 229.409 15.9488 228.654C16.2131 227.864 16.5404 220.022 16.5404 220.022L18.3057 218.474L18.6518 218.169C18.6518 218.169 19.7091 224.248 19.9766 225.57C20.2378 226.891 18.1232 233.764 17.3334 234.821C16.6159 235.775 11.3452 242.581 10.3571 243.858C10.2533 243.994 10.1966 244.066 10.1966 244.066C10.1966 244.066 10.4641 247.575 10.8134 251.861C11.32 258.028 11.9997 265.81 12.3144 267.059C12.5252 267.912 12.7392 271.024 12.9217 274.592L14.3157 273.617L17.1068 271.66L19.3473 260.662C19.3473 260.662 21.5846 259.444 22.3996 259.032C23.2146 258.629 23.825 250.275 23.825 250.275L25.5054 250.696L26.27 250.888Z" fill="url(#paint17_linear_199_1132)"/>
<g style="mix-blend-mode:overlay" opacity="0.45">
<path d="M26.2699 250.888C26.2699 250.888 25.2535 260.055 24.234 260.87C23.2144 261.685 20.1621 270.442 20.1621 270.442C20.1621 270.442 19.3597 278.752 18.5447 281.194C18.0224 282.764 15.1463 288.636 13.4596 292.324C13.4596 292.356 13.4596 292.384 13.4628 292.415C12.4464 289.413 13.7806 284.133 14.5956 283.271C15.6309 282.176 18.9821 274.133 19.2873 273.4C19.5926 272.67 19.2873 272.242 19.1646 271.207C19.0419 270.171 21.1754 266.757 21.2981 266.21C21.4208 265.662 20.8104 264.016 20.7506 263.101C20.6876 262.188 23.2491 260.848 23.7966 260.055C24.3441 259.262 24.407 258.167 24.6493 256.949C24.8507 255.942 25.3416 252.034 25.5052 250.696L26.2699 250.888Z" fill="white"/>
</g>
<g style="mix-blend-mode:overlay" opacity="0.45">
<path d="M17.3334 234.821C16.616 235.775 11.3452 242.581 10.3571 243.859C9.9764 243.305 9.76557 242.622 9.77187 241.952C9.7876 240.592 10.5491 239.334 11.5372 238.402C12.1539 237.817 12.8619 237.335 13.4535 236.725C14.1741 235.982 14.6996 235.076 15.2157 234.179C16.0716 232.694 16.9275 231.212 17.7802 229.727C18.054 229.252 18.3341 228.761 18.397 228.216C18.4505 227.738 18.3278 227.25 18.3876 226.772C18.4631 226.152 18.8281 225.608 19.0075 225.01C19.6368 222.889 17.8526 220.513 18.3057 218.474L18.6519 218.169C18.6519 218.169 19.7092 224.248 19.9766 225.57C20.2378 226.892 18.1232 233.764 17.3334 234.821Z" fill="white"/>
</g>
<g style="mix-blend-mode:overlay" opacity="0.45">
<path d="M1.75722 272.336C1.06495 272.547 0.360083 271.748 0.00135803 271.049C-2.37756 266.417 -3.93203 261.42 -5.83894 256.578C-6.55639 254.756 -7.32733 252.953 -8.17695 251.187C-8.5514 250.407 -8.94789 249.63 -9.50486 248.966C-10.3262 247.987 -11.4464 247.314 -12.4722 246.552C-14.0644 245.366 -15.4616 243.918 -16.5944 242.288C-17.4094 241.111 -18.108 239.818 -19.2156 238.912C-19.7348 238.487 -20.3327 238.154 -20.7858 237.663C-22.0036 236.341 -21.8935 234.214 -22.998 232.795C-23.4039 232.272 -23.9546 231.879 -24.4203 231.407C-24.9332 230.891 -25.3391 230.274 -25.6223 229.607L-24.6846 228.477L-19.9236 236.665C-19.9236 236.665 -8.82832 248.824 -7.50355 249.881C-6.18822 250.939 -3.28066 260.715 -3.01319 261.773C-2.78978 262.682 0.769156 270.247 1.75722 272.336Z" fill="white"/>
</g>
<g style="mix-blend-mode:overlay" opacity="0.45">
<path d="M10.0959 236.171C10.0864 236.228 10.077 236.281 10.0644 236.338C9.99201 236.681 9.74657 237.125 9.41617 236.999C9.22736 236.926 9.15499 236.7 9.10779 236.505C8.79312 235.167 8.47845 233.833 8.16378 232.496C7.9026 231.388 7.63828 230.265 7.63198 229.126C7.62569 227.832 7.9498 226.558 7.97183 225.268C8.03161 221.869 6.0303 218.461 6.4142 215.214L7.55646 215L10.0549 236.221C10.0549 236.221 10.0707 236.203 10.0959 236.171Z" fill="white"/>
</g>
<g style="mix-blend-mode:overlay" opacity="0.45">
<path d="M14.3156 273.617C14.303 273.777 14.2873 273.935 14.2653 274.095C14.1772 274.731 13.9569 275.436 13.3779 275.713C12.6982 276.04 11.8517 275.565 11.4993 274.895C11.15 274.224 11.1595 273.431 11.1721 272.676C11.2161 269.378 11.0934 266.077 10.9738 262.783C10.914 261.156 10.8574 259.526 10.6906 257.909C10.5553 256.593 9.6459 254.217 9.98889 252.965C10.162 252.333 10.4452 251.99 10.8133 251.861C11.32 258.028 11.9996 265.81 12.3143 267.059C12.5251 267.912 12.7391 271.024 12.9216 274.592L14.3156 273.617Z" fill="white"/>
</g>
<g style="mix-blend-mode:overlay" opacity="0.45">
<path d="M14.6902 344.481L4.13299 344.616C3.95363 342.719 4.43822 340.727 5.8039 339.424C6.73532 338.534 7.99715 338.03 8.89397 337.105C10.2313 335.72 10.5334 333.669 10.7694 331.759C11.2477 327.851 11.726 323.857 10.9142 320.003C10.2282 316.746 8.64538 313.332 9.90721 310.251C10.7254 308.256 12.6417 306.796 13.1703 304.703C13.7336 302.472 12.5693 300.197 12.3302 297.906C12.1414 296.11 12.5567 294.263 13.4693 292.702C13.7682 306.689 14.6902 344.481 14.6902 344.481Z" fill="white"/>
</g>
<path style="mix-blend-mode:multiply" opacity="0.3" d="M4.41618 264.718C4.34066 266.442 4.26514 268.176 4.49485 269.888C4.70883 271.487 5.11475 273.356 3.99767 274.52C3.86866 274.655 3.70818 274.781 3.52252 274.784C3.20156 274.791 2.99387 274.457 2.85541 274.168C2.5785 273.592 2.3016 273.016 2.02783 272.437L3.32428 241.955V215.79L4.60184 215.551C3.8718 219.975 3.919 224.525 4.73086 228.937C4.98259 230.296 5.3067 231.646 5.47662 233.018C5.72522 235.045 5.63711 237.093 5.54585 239.129C5.17139 247.66 4.79379 256.187 4.41618 264.718Z" fill="url(#paint18_linear_199_1132)"/>
<path style="mix-blend-mode:multiply" opacity="0.3" d="M0.429109 305.902C1.12453 310.795 1.63115 315.311 0.592734 320.141C-0.215971 323.892 -2.05994 327.589 -1.4243 331.372C-1.21977 332.596 -0.760348 333.76 -0.436237 334.956C0.0766773 336.844 0.256036 338.804 0.391345 340.755C0.482599 342.048 0.551828 343.367 0.476308 344.663L-6.3552 344.748L-2.48475 280.537C-2.48475 280.537 -5.92096 273.925 -6.4496 272.607C-6.97825 271.285 -8.56105 260.977 -8.56105 259.394C-8.56105 258.585 -10.6221 255.099 -12.6423 251.873C-11.5819 252.512 -10.6725 253.365 -10.3326 254.529C-10.1785 255.064 -10.1501 255.637 -9.91728 256.143C-9.25647 257.572 -7.24572 257.909 -6.46848 259.277C-5.9776 260.146 -6.10347 261.216 -6.01851 262.21C-5.77306 265.124 -3.65533 267.591 -3.22737 270.483C-2.9662 272.258 -3.35324 274.133 -2.73963 275.817C-2.21728 277.242 -1.05299 278.328 -0.348129 279.668C0.49519 281.267 0.636787 283.129 0.759509 284.933C0.942019 287.569 1.12768 290.206 1.31018 292.843C1.40144 294.156 1.48955 295.493 1.16229 296.767C0.803568 298.174 -0.0366058 299.411 -0.496025 300.789C-0.955445 302.167 -0.927125 303.895 0.18681 304.829C0.372466 304.983 0.592738 305.122 0.690287 305.345C0.787834 305.569 0.671406 305.902 0.429109 305.902Z" fill="url(#paint19_linear_199_1132)"/>
<path d="M49.9107 244.878C48.394 246.137 46.4997 247.09 44.4134 247.804C35.1086 250.998 22.0403 249.466 22.0403 249.466C8.98775 249.466 16.9269 239.412 16.9269 239.412C16.9269 239.412 16.0175 238.789 15.1805 237.811C13.9407 236.366 12.8488 234.141 15.0452 231.989H15.0483C15.4039 231.637 15.8507 231.287 16.3951 230.944C22.569 227.064 42.6796 225.299 49.2059 226.536C55.7321 227.769 48.3216 235.885 48.3216 235.885C48.3216 235.885 51.097 236.479 52.4722 238.062C53.6899 239.466 53.8064 241.646 49.9107 244.878Z" fill="url(#paint20_linear_199_1132)"/>
<path style="mix-blend-mode:multiply" d="M44.4134 247.804C35.1085 250.998 22.0402 249.466 22.0402 249.466C8.98769 249.466 16.9268 239.412 16.9268 239.412C16.9268 239.412 16.0174 238.789 15.1804 237.811C16.0426 238.172 16.9646 238.412 17.7765 238.871C18.0345 239.016 18.3051 239.223 18.3303 239.519C18.3649 239.925 17.9338 240.193 17.5939 240.416C16.5209 241.13 15.8538 242.42 15.8979 243.707C15.9388 244.994 16.6877 246.241 17.8048 246.883C18.3554 247.197 18.9753 247.37 19.5984 247.502C26.7855 249.013 34.2086 245.202 41.4743 246.259C42.6103 246.423 43.8721 246.826 44.4134 247.804Z" fill="url(#paint21_linear_199_1132)"/>
<path d="M34.2812 207.564C34.2812 207.564 34.898 207.844 35.4172 208.361C36.2731 209.213 36.8552 210.708 33.9131 212.634C33.6267 212.823 33.3026 213.014 32.9439 213.213C26.7008 216.633 15.1272 215.019 15.1272 215.019C6.65627 216.356 1.73166 214.997 2.77008 211.727C3.81164 208.458 7.38001 206.227 7.38001 206.227C7.38001 206.227 6.2409 204.912 7.97159 202.662C10.6526 199.175 14.0385 195.94 21.1752 195.789C21.6441 195.78 22.0689 195.786 22.4622 195.808C23.1576 195.84 23.7366 195.915 24.2212 196.025C27.6291 196.784 26.254 199.093 26.254 199.093C26.254 199.093 38.7401 195.676 41.2669 200.283C43.7938 204.89 34.2812 207.564 34.2812 207.564Z" fill="url(#paint22_linear_199_1132)"/>
<g opacity="0.28">
<path d="M33.9131 212.634C33.6267 212.823 33.3026 213.014 32.9439 213.213C26.7008 216.633 15.1272 215.019 15.1272 215.019C6.65627 216.356 1.73166 214.997 2.77008 211.727C3.81164 208.458 7.38001 206.227 7.38001 206.227C7.38001 206.227 6.2409 204.912 7.97159 202.662C10.6526 199.175 14.0385 195.94 21.1752 195.789C21.6441 195.78 22.0689 195.786 22.4622 195.808C23.1576 195.84 23.7366 195.915 24.2212 196.025C23.3622 196.916 22.5629 197.879 22.1853 199.043C21.7133 200.491 22.1129 202.341 23.466 203.033C21.4112 204.235 19.4445 205.588 17.5911 207.083C16.9366 207.608 16.2506 208.241 16.1782 209.075C16.1027 209.943 16.7572 210.739 17.5502 211.101C18.3432 211.46 19.2431 211.473 20.1116 211.451C24.5264 211.34 28.9255 210.532 33.0918 209.065C33.8533 208.795 34.6242 208.502 35.4172 208.361C36.2731 209.213 36.8553 210.708 33.9131 212.634Z" fill="url(#paint23_linear_199_1132)" style="mix-blend-mode:multiply"/>
</g>
<path style="mix-blend-mode:multiply" d="M33.9131 212.634C33.6267 212.823 33.3026 213.014 32.9439 213.213C26.7008 216.633 15.1272 215.019 15.1272 215.019C6.65627 216.356 1.73166 214.997 2.77008 211.727C3.81164 208.458 7.38001 206.227 7.38001 206.227C7.38001 206.227 6.2409 204.912 7.97159 202.662C10.6526 199.175 14.0385 195.94 21.1752 195.789C21.6441 195.78 22.0689 195.786 22.4622 195.808L22.0468 195.837C19.8536 196.746 18.1858 198.817 17.7673 201.151C17.6037 202.064 17.6068 203.033 17.1694 203.848C16.5904 204.934 15.3821 205.488 14.3468 206.152C12.8993 207.08 11.6753 208.351 10.8005 209.83C10.382 210.544 10.0358 211.425 10.3757 212.181C10.7785 213.081 11.9459 213.345 12.9245 213.232C13.9 213.115 14.8566 212.741 15.8352 212.823C16.946 212.914 17.9278 213.578 19.0103 213.839C21.1689 214.361 23.3779 213.235 25.5995 213.216C27.0501 213.203 28.4819 213.663 29.9293 213.559C31.2856 213.461 32.582 212.876 33.9131 212.634Z" fill="url(#paint24_linear_199_1132)"/>
<path d="M22.9247 203.439C19.8882 207.004 11.1529 207.067 11.1529 207.067C11.1529 207.067 10.5141 209.248 7.2132 211.227C3.9123 213.21 -2.81851 211.756 -2.81851 211.756C-15.8899 210.437 -7.17671 202.121 -7.17671 202.121C-7.17671 202.121 -12.589 200.535 -11.2706 198.291C-11.1573 198.096 -11.0346 197.91 -10.9056 197.734C-9.55562 195.849 -7.57319 194.858 -7.57319 194.858C-7.57319 194.858 -8.11443 194.556 -8.4763 193.964C-8.83188 193.388 -9.01753 192.536 -8.36616 191.425C-7.04454 189.181 -0.0462589 184.562 5.36609 184.033C10.7784 183.505 10.9106 189.446 10.9106 189.446C10.9106 189.446 19.8504 187.957 23.4911 190.135C23.9065 190.383 24.2526 190.679 24.5075 191.028C27.0155 194.461 20.4137 198.159 20.4137 198.159C20.4137 198.159 21.8926 198.615 22.9059 199.55C23.853 200.425 24.3942 201.715 22.9247 203.439Z" fill="url(#paint25_linear_199_1132)"/>
<path style="mix-blend-mode:multiply" d="M22.9247 203.439C19.8882 207.004 11.1529 207.067 11.1529 207.067C11.1529 207.067 10.5141 209.248 7.2132 211.227C3.9123 213.21 -2.81851 211.756 -2.81851 211.756C-15.8899 210.437 -7.17671 202.121 -7.17671 202.121C-7.17671 202.121 -12.589 200.535 -11.2706 198.291C-11.1573 198.096 -11.0346 197.91 -10.9056 197.734C-9.55562 195.849 -7.57319 194.858 -7.57319 194.858C-7.57319 194.858 -8.11443 194.556 -8.4763 193.964C-7.13265 194.861 -5.40511 195.091 -3.76882 195.226C-4.6971 195.544 -5.64111 195.871 -6.4152 196.469C-7.19244 197.067 -7.78088 197.992 -7.71794 198.971C-7.65186 199.981 -6.88721 200.849 -5.96522 201.268C-5.04009 201.686 -3.98909 201.712 -2.98214 201.595C-3.14262 203.26 -2.07274 204.899 -0.584348 205.657C0.904047 206.416 2.71655 206.369 4.28047 205.787C5.88215 205.192 7.27929 204.056 8.18554 202.608C10.9578 203.332 13.8937 203.414 16.7037 202.844C17.5848 202.668 18.4847 202.41 19.1581 201.819C19.8347 201.227 20.2217 200.223 19.8567 199.402C19.4634 198.524 18.4218 198.178 17.4935 197.923C19.6049 197.378 21.5213 196.11 22.8461 194.377C23.7712 193.162 24.3061 191.286 23.4911 190.135C23.9065 190.383 24.2526 190.679 24.5075 191.028C27.0155 194.461 20.4137 198.159 20.4137 198.159C20.4137 198.159 21.8926 198.615 22.9059 199.55C23.853 200.425 24.3942 201.715 22.9247 203.439Z" fill="url(#paint26_linear_199_1132)"/>
<path style="mix-blend-mode:multiply" d="M22.9247 203.439C19.8882 207.004 11.1529 207.067 11.1529 207.067C11.1529 207.067 10.5141 209.248 7.2132 211.227C3.9123 213.21 -2.81851 211.756 -2.81851 211.756C-15.8899 210.437 -7.17671 202.121 -7.17671 202.121C-7.17671 202.121 -12.589 200.535 -11.2706 198.291C-11.1573 198.096 -11.0346 197.91 -10.9056 197.734C-10.6475 197.954 -10.4147 198.209 -10.2133 198.47C-9.62485 199.222 -9.12767 200.094 -8.30952 200.585C-7.82808 200.874 -7.26796 201.01 -6.76763 201.268C-6.26416 201.526 -5.7953 201.966 -5.75754 202.526C-5.73551 202.825 -5.83936 203.115 -5.93376 203.398C-6.16347 204.097 -6.33024 204.886 -5.99984 205.541C-5.66628 206.199 -4.62472 206.485 -4.19677 205.887C-2.2584 207.914 0.589377 209.034 3.38995 208.873C6.19052 208.71 8.89355 207.272 10.5865 205.038C12.5374 205.072 14.501 205.107 16.4173 204.748C18.3368 204.389 20.2249 203.603 21.5905 202.212C22.2954 201.497 22.8492 200.519 22.9059 199.55C23.853 200.424 24.3942 201.715 22.9247 203.439Z" fill="url(#paint27_linear_199_1132)"/>
<path d="M10.4763 210.988C10.4039 211.274 10.2938 211.545 10.149 211.797C8.54104 214.585 2.69131 215.261 -1.69521 216.061C-6.47821 216.929 -10.1001 218.232 -13.2877 215.044C-16.4753 211.857 -13.8667 210.409 -13.8667 210.409C-13.8667 210.409 -18.9392 210.554 -18.2154 207.8C-18.099 207.35 -17.7371 206.954 -17.2179 206.602C-16.532 206.133 -15.5659 205.746 -14.5055 205.431C-11.45 204.512 -7.6362 204.175 -7.6362 204.175C-7.6362 204.175 4.24578 200.554 7.4334 202.583C10.621 204.613 5.84116 207.074 5.84116 207.074C5.84116 207.074 8.22008 207.262 9.60149 208.379C10.3252 208.962 10.7752 209.795 10.4763 210.988Z" fill="url(#paint28_linear_199_1132)"/>
<path style="mix-blend-mode:multiply" d="M9.04143 206.938L8.4939 206.617C8.70473 206.683 8.89038 206.793 9.04143 206.938Z" fill="url(#paint29_linear_199_1132)"/>
<path style="mix-blend-mode:multiply" d="M10.4763 210.988C10.4039 211.274 10.2938 211.545 10.149 211.797C8.54104 214.585 2.69131 215.261 -1.69521 216.06C-6.47821 216.929 -10.1001 218.232 -13.2877 215.044C-16.4753 211.856 -13.8667 210.409 -13.8667 210.409C-13.8667 210.409 -18.9392 210.554 -18.2154 207.8C-18.099 207.35 -17.7371 206.954 -17.2179 206.601C-16.532 206.133 -15.5659 205.746 -14.5055 205.431C-14.4551 205.831 -14.4079 206.233 -14.2537 206.595C-13.6999 207.882 -12.0322 208.162 -10.635 208.257C-11.4658 209.053 -11.557 210.44 -10.978 211.432C-10.399 212.423 -9.26305 213.011 -8.11765 213.093C-6.97225 213.178 -5.82999 212.804 -4.83877 212.225C-4.67829 212.133 -4.51466 212.03 -4.33215 212.001C-4.11188 211.967 -3.89162 212.036 -3.67764 212.102C-0.134443 213.2 3.82727 212.885 7.15335 211.243C8.08477 210.783 9.01934 210.167 9.43156 209.213C9.54484 208.955 9.60149 208.666 9.60149 208.379C10.3252 208.962 10.7752 209.795 10.4763 210.988Z" fill="url(#paint30_linear_199_1132)"/>
<path style="mix-blend-mode:multiply" d="M10.149 211.797C8.54104 214.585 2.69131 215.261 -1.69521 216.06C-6.47821 216.929 -10.1001 218.232 -13.2877 215.044C-16.4753 211.856 -13.8667 210.409 -13.8667 210.409C-13.8667 210.409 -18.9392 210.554 -18.2154 207.8C-18.099 207.35 -17.7371 206.954 -17.2179 206.601C-17.1613 207.555 -16.6138 208.518 -15.8208 209.09C-14.625 209.953 -13.0485 210.097 -11.5759 209.981C-12.5105 210.494 -13.3727 211.303 -13.5615 212.35C-13.8132 213.76 -12.7213 215.142 -11.3934 215.68C-10.0655 216.218 -8.57392 216.111 -7.15161 215.935C-3.38499 215.466 0.318684 214.588 4.01292 213.713C6.10234 213.216 8.21378 212.712 10.149 211.797Z" fill="url(#paint31_linear_199_1132)"/>
<path d="M21.2667 342.335C21.2667 342.335 19.6111 324.249 24.5495 315.444C27.5477 310.098 33.1005 308.219 37 307.569" stroke="url(#paint32_linear_199_1132)" stroke-width="0.74" stroke-miterlimit="10"/>
<path d="M34.8439 310.409C32.823 311.346 28.1147 314.099 25.84 317.026C23.6838 319.802 21.6131 317.259 22.6093 314.915C22.6639 314.787 22.7279 314.659 22.8015 314.531C23.9614 312.541 29.8818 307.031 33.5536 307C34.3719 306.993 35.0788 307.259 35.5959 307.894C35.5959 307.894 36.8649 309.474 34.8439 310.409Z" fill="url(#paint33_linear_199_1132)"/>
<g style="mix-blend-mode:multiply" opacity="0.28">
<path d="M34.8439 310.409C32.823 311.346 28.1147 314.099 25.84 317.026C23.6838 319.802 21.6131 317.259 22.6093 314.915C23.615 315.198 24.9623 315.174 26.7555 314.538C30.8875 313.077 32.7732 309.282 33.5536 307C34.3719 306.993 35.0788 307.259 35.5959 307.894C35.5959 307.894 36.8649 309.474 34.8439 310.409Z" fill="#82007E"/>
</g>
<path d="M46.3247 317.681C46.3247 317.681 46.3247 317.681 46.3228 317.685C46.2622 317.94 42.411 334.364 44.299 340.07C44.299 340.07 50.9333 329.707 46.3238 317.683L46.3247 317.681Z" fill="url(#paint34_linear_199_1132)"/>
<g style="mix-blend-mode:multiply" opacity="0.28">
<path d="M46.3157 317.685C46.2551 317.94 42.4071 334.358 44.2936 340.061C44.2936 340.061 47.1922 329.609 46.3157 317.685Z" fill="#82007E"/>
</g>
<path d="M60.2268 324.906C60.2268 324.906 60.2259 324.908 60.225 324.911C60.0091 325.067 46.2141 335.174 43.5228 341.135C43.5228 341.135 54.9672 337.95 60.2288 324.907L60.2268 324.906Z" fill="url(#paint35_linear_199_1132)"/>
<g style="mix-blend-mode:multiply" opacity="0.28">
<path d="M60.2249 324.908C60.0091 325.065 46.2149 335.172 43.5237 341.132C43.5237 341.132 52.601 335.037 60.2249 324.908Z" fill="#82007E"/>
</g>
<path d="M55.9875 313.901C55.9875 313.901 55.9866 313.904 55.9857 313.906C55.8114 314.208 44.6005 333.685 44.5732 341.937C44.5732 341.937 56.6871 331.585 55.9875 313.901Z" fill="url(#paint36_linear_199_1132)"/>
<g style="mix-blend-mode:multiply" opacity="0.28">
<path d="M55.8113 313.904C55.6394 314.206 44.5802 333.614 44.5532 341.836C44.5532 341.836 52.1258 329.685 55.8113 313.904Z" fill="#82007E"/>
</g>
<path d="M57.9689 328.101C57.9689 328.101 57.9689 328.101 57.968 328.103C57.8344 328.249 49.285 337.648 48.2188 342.294C48.2188 342.294 56.0992 338.164 57.9689 328.101Z" fill="url(#paint37_linear_199_1132)"/>
<g style="mix-blend-mode:multiply" opacity="0.28">
<path d="M57.9232 328.101C57.7902 328.247 49.2795 337.631 48.2182 342.27C48.2182 342.27 53.9023 336.487 57.9232 328.101Z" fill="#82007E"/>
</g>
<path d="M64.0088 338.496C64.0088 338.496 64.0088 338.496 64.0068 338.495C63.8116 338.51 51.2089 339.499 47.1386 342.484C47.1386 342.484 55.4902 345.306 64.0098 338.494L64.0088 338.496Z" fill="url(#paint38_linear_199_1132)"/>
<g style="mix-blend-mode:multiply" opacity="0.28">
<path d="M64.0036 338.496C63.8085 338.511 51.2058 339.501 47.1354 342.486C47.1354 342.486 55.2017 342.226 64.0036 338.496Z" fill="#82007E"/>
</g>
<path d="M65.7184 329.399L65.7174 329.401C65.4883 329.532 50.7816 338.012 47.4609 343.671C47.4609 343.671 59.075 341.86 65.7184 329.399Z" fill="url(#paint39_linear_199_1132)"/>
<g style="mix-blend-mode:multiply" opacity="0.28">
<path d="M65.7175 329.402C65.4883 329.532 50.7816 338.012 47.4608 343.671C47.4608 343.671 57.0763 338.651 65.7175 329.402Z" fill="#82007E"/>
</g>
<path d="M43.5162 343.122H14C14 343.122 14.3052 333.804 15.9289 326.513C16.4481 324.194 17.0964 322.083 17.9114 320.538C21.2909 314.137 23.0688 329.786 23.0688 329.786C23.0688 329.786 26.0928 321.252 29.4692 319.827C32.8488 318.404 33.7362 329.962 33.7362 329.962C33.7362 329.962 37.2951 322.139 41.562 322.319C45.829 322.495 43.5162 343.122 43.5162 343.122Z" fill="url(#paint40_linear_199_1132)"/>
<g style="mix-blend-mode:multiply" opacity="0.46">
<path d="M43.1008 343.122H14C14 343.122 14.3052 333.804 15.9289 326.513C16.3128 325.214 16.7534 324.043 17.2568 323.09C20.6333 316.689 22.4112 332.338 22.4112 332.338C22.4112 332.338 25.4351 323.801 28.8147 322.379C32.1911 320.956 33.0817 332.514 33.0817 332.514C33.0817 332.514 36.6374 324.691 40.9044 324.868C44.2367 325.006 43.5602 337.593 43.1008 343.122Z" fill="#4194F2"/>
</g>
</g>
<defs>
<linearGradient id="paint0_linear_199_1132" x1="145.5" y1="0" x2="145.5" y2="342" gradientUnits="userSpaceOnUse">
<stop stop-color="#42ADFF"/>
<stop offset="0.328125" stop-color="#A6A9ED"/>
<stop offset="0.682292" stop-color="#FFA6DD"/>
</linearGradient>
<linearGradient id="paint1_linear_199_1132" x1="-21.0039" y1="307.096" x2="84.954" y2="307.096" gradientUnits="userSpaceOnUse">
<stop stop-color="#90C9FD"/>
<stop offset="0.27" stop-color="#8AC3FD"/>
<stop offset="0.62" stop-color="#79B5FD"/>
<stop offset="1" stop-color="#5F9EFD"/>
</linearGradient>
<linearGradient id="paint2_linear_199_1132" x1="192.981" y1="293.138" x2="421.857" y2="293.138" gradientUnits="userSpaceOnUse">
<stop stop-color="#90C9FD"/>
<stop offset="0.27" stop-color="#8AC3FD"/>
<stop offset="0.62" stop-color="#79B5FD"/>
<stop offset="1" stop-color="#5F9EFD"/>
</linearGradient>
<linearGradient id="paint3_linear_199_1132" x1="-18.5483" y1="304.665" x2="177.648" y2="304.665" gradientUnits="userSpaceOnUse">
<stop stop-color="#ECF6FF"/>
<stop offset="1" stop-color="#77ADFF"/>
</linearGradient>
<linearGradient id="paint4_linear_199_1132" x1="151.102" y1="347.06" x2="151.102" y2="299.126" gradientUnits="userSpaceOnUse">
<stop stop-color="#74BCFD"/>
<stop offset="0.19" stop-color="#79BEFD"/>
<stop offset="0.43" stop-color="#8AC6FD"/>
<stop offset="0.71" stop-color="#A5D3FD"/>
<stop offset="1" stop-color="#CAE4FD"/>
</linearGradient>
<linearGradient id="paint5_linear_199_1132" x1="107.634" y1="331.467" x2="117.26" y2="281.265" gradientUnits="userSpaceOnUse">
<stop stop-color="#009579"/>
<stop offset="1" stop-color="#02B695"/>
</linearGradient>
<linearGradient id="paint6_linear_199_1132" x1="117.639" y1="302.918" x2="122.931" y2="304.203" gradientUnits="userSpaceOnUse">
<stop stop-color="#A43113"/>
<stop offset="1" stop-color="#6F160D"/>
</linearGradient>
<linearGradient id="paint7_linear_199_1132" x1="86.5109" y1="261.324" x2="91.1634" y2="262.453" gradientUnits="userSpaceOnUse">
<stop stop-color="#A43113"/>
<stop offset="1" stop-color="#6F160D"/>
</linearGradient>
<linearGradient id="paint8_linear_199_1132" x1="130.856" y1="304.103" x2="147.975" y2="308.043" gradientUnits="userSpaceOnUse">
<stop stop-color="#009579"/>
<stop offset="1" stop-color="#02B695"/>
</linearGradient>
<linearGradient id="paint9_linear_199_1132" x1="240" y1="317.5" x2="358.5" y2="360.5" gradientUnits="userSpaceOnUse">
<stop stop-color="#478CEC"/>
<stop offset="1" stop-color="#8AC8F9"/>
</linearGradient>
<linearGradient id="paint10_linear_199_1132" x1="58.8591" y1="295.826" x2="58.8591" y2="336.328" gradientUnits="userSpaceOnUse">
<stop stop-color="#D1FAFF"/>
<stop offset="1" stop-color="#79B2F2"/>
</linearGradient>
<linearGradient id="paint11_linear_199_1132" x1="46.3792" y1="317.186" x2="19.1319" y2="357.046" gradientUnits="userSpaceOnUse">
<stop stop-color="#FFA6DD" stop-opacity="0.5"/>
<stop offset="0.21" stop-color="#F2AFDD" stop-opacity="0.63"/>
<stop offset="0.57" stop-color="#DFBDDE" stop-opacity="0.83"/>
<stop offset="0.84" stop-color="#D3C6DF" stop-opacity="0.95"/>
<stop offset="1" stop-color="#CFCAE0"/>
</linearGradient>
<linearGradient id="paint12_linear_199_1132" x1="27.3493" y1="292.352" x2="36.2912" y2="293.158" gradientUnits="userSpaceOnUse">
<stop stop-color="#F93D31"/>
<stop offset="1" stop-color="#B70400"/>
</linearGradient>
<linearGradient id="paint13_linear_199_1132" x1="58.6402" y1="272.949" x2="42.9281" y2="333.788" gradientUnits="userSpaceOnUse">
<stop stop-color="#F93D31"/>
<stop offset="1" stop-color="#B70400"/>
</linearGradient>
<linearGradient id="paint14_linear_199_1132" x1="49.0098" y1="290.853" x2="55.3114" y2="292.796" gradientUnits="userSpaceOnUse">
<stop stop-color="#A43113"/>
<stop offset="1" stop-color="#6F160D"/>
</linearGradient>
<linearGradient id="paint15_linear_199_1132" x1="58.2944" y1="292.488" x2="61.8008" y2="293.57" gradientUnits="userSpaceOnUse">
<stop stop-color="#A43113"/>
<stop offset="1" stop-color="#6F160D"/>
</linearGradient>
<linearGradient id="paint16_linear_199_1132" x1="-4.21253" y1="288.306" x2="-12.0227" y2="342.077" gradientUnits="userSpaceOnUse">
<stop stop-color="#A6CBFF"/>
<stop offset="0.12" stop-color="#A3C6FD"/>
<stop offset="0.26" stop-color="#9AB7F8"/>
<stop offset="0.42" stop-color="#8CA0F0"/>
<stop offset="0.58" stop-color="#787FE4"/>
<stop offset="0.74" stop-color="#5F55D6"/>
<stop offset="0.91" stop-color="#4022C4"/>
<stop offset="1" stop-color="#2E04BA"/>
</linearGradient>
<linearGradient id="paint17_linear_199_1132" x1="0.133434" y1="215" x2="0.133434" y2="344.748" gradientUnits="userSpaceOnUse">
<stop stop-color="#6E0782"/>
<stop offset="1" stop-color="#08204D"/>
</linearGradient>
<linearGradient id="paint18_linear_199_1132" x1="2.02783" y1="245.168" x2="5.63711" y2="245.168" gradientUnits="userSpaceOnUse">
<stop stop-color="#6E0782"/>
<stop offset="1" stop-color="#08204D"/>
</linearGradient>
<linearGradient id="paint19_linear_199_1132" x1="-12.6423" y1="298.309" x2="1.392" y2="298.309" gradientUnits="userSpaceOnUse">
<stop stop-color="#6E0782"/>
<stop offset="1" stop-color="#08204D"/>
</linearGradient>
<linearGradient id="paint20_linear_199_1132" x1="38.9098" y1="227.014" x2="21.647" y2="259.922" gradientUnits="userSpaceOnUse">
<stop stop-color="#FDF9FF"/>
<stop offset="0.963542" stop-color="#ECC2FF"/>
</linearGradient>
<linearGradient id="paint21_linear_199_1132" x1="33.1733" y1="238.984" x2="23.2706" y2="250.19" gradientUnits="userSpaceOnUse">
<stop stop-color="#FFA6DD" stop-opacity="0.5"/>
<stop offset="0.21" stop-color="#F2AFDD" stop-opacity="0.63"/>
<stop offset="0.57" stop-color="#DFBDDE" stop-opacity="0.83"/>
<stop offset="0.84" stop-color="#D3C6DF" stop-opacity="0.95"/>
<stop offset="1" stop-color="#CFCAE0"/>
</linearGradient>
<linearGradient id="paint22_linear_199_1132" x1="30.8734" y1="195.84" x2="6.77899" y2="225.151" gradientUnits="userSpaceOnUse">
<stop stop-color="#F8EDF4"/>
<stop offset="1" stop-color="#EDC8FF"/>
</linearGradient>
<linearGradient id="paint23_linear_199_1132" x1="25.2376" y1="203.832" x2="10.2718" y2="215.538" gradientUnits="userSpaceOnUse">
<stop stop-color="#FACFE9" stop-opacity="0.5"/>
<stop offset="0.21" stop-color="#F2AFDD" stop-opacity="0.63"/>
<stop offset="0.57" stop-color="#DFBDDE" stop-opacity="0.83"/>
<stop offset="0.84" stop-color="#D3C6DF" stop-opacity="0.95"/>
<stop offset="1" stop-color="#CFCAE0"/>
</linearGradient>
<linearGradient id="paint24_linear_199_1132" x1="2.63162" y1="205.657" x2="33.9131" y2="205.657" gradientUnits="userSpaceOnUse">
<stop stop-color="#FFA6DD" stop-opacity="0.5"/>
<stop offset="0.21" stop-color="#F2AFDD" stop-opacity="0.63"/>
<stop offset="0.57" stop-color="#DFBDDE" stop-opacity="0.83"/>
<stop offset="0.84" stop-color="#D3C6DF" stop-opacity="0.95"/>
<stop offset="1" stop-color="#CFCAE0"/>
</linearGradient>
<linearGradient id="paint25_linear_199_1132" x1="11.4676" y1="189.575" x2="-4.6971" y2="220.39" gradientUnits="userSpaceOnUse">
<stop offset="0.12" stop-color="#FFE0F4"/>
<stop offset="1" stop-color="#C8BAF5"/>
</linearGradient>
<linearGradient id="paint26_linear_199_1132" x1="12.1787" y1="192.391" x2="0.583083" y2="207.165" gradientUnits="userSpaceOnUse">
<stop stop-color="#FFA6DD" stop-opacity="0.5"/>
<stop offset="0.21" stop-color="#F2AFDD" stop-opacity="0.63"/>
<stop offset="0.57" stop-color="#DFBDDE" stop-opacity="0.83"/>
<stop offset="0.84" stop-color="#D3C6DF" stop-opacity="0.95"/>
<stop offset="1" stop-color="#CFCAE0"/>
</linearGradient>
<linearGradient id="paint27_linear_199_1132" x1="8.89355" y1="196.346" x2="0.501272" y2="208.76" gradientUnits="userSpaceOnUse">
<stop stop-color="#FFA6DD" stop-opacity="0.5"/>
<stop offset="0.21" stop-color="#F2AFDD" stop-opacity="0.63"/>
<stop offset="0.57" stop-color="#DFBDDE" stop-opacity="0.83"/>
<stop offset="0.84" stop-color="#D3C6DF" stop-opacity="0.95"/>
<stop offset="1" stop-color="#CFCAE0"/>
</linearGradient>
<linearGradient id="paint28_linear_199_1132" x1="-0.12815" y1="202.316" x2="-10.5469" y2="222.178" gradientUnits="userSpaceOnUse">
<stop stop-color="#FFA6DD"/>
<stop offset="0.12" stop-color="#FAA2DC"/>
<stop offset="0.26" stop-color="#EB97D9"/>
<stop offset="0.41" stop-color="#D485D5"/>
<stop offset="0.56" stop-color="#B36BD0"/>
<stop offset="0.72" stop-color="#894AC9"/>
<stop offset="0.89" stop-color="#5623C0"/>
<stop offset="1" stop-color="#2E04BA"/>
</linearGradient>
<linearGradient id="paint29_linear_199_1132" x1="8.84633" y1="206.727" x2="8.65753" y2="206.844" gradientUnits="userSpaceOnUse">
<stop stop-color="#FFA6DD" stop-opacity="0.5"/>
<stop offset="0.21" stop-color="#F2AFDD" stop-opacity="0.63"/>
<stop offset="0.57" stop-color="#DFBDDE" stop-opacity="0.83"/>
<stop offset="0.84" stop-color="#D3C6DF" stop-opacity="0.95"/>
<stop offset="1" stop-color="#CFCAE0"/>
</linearGradient>
<linearGradient id="paint30_linear_199_1132" x1="2.91158" y1="205.5" x2="-12.5293" y2="215.019" gradientUnits="userSpaceOnUse">
<stop stop-color="#FFA6DD" stop-opacity="0.5"/>
<stop offset="0.21" stop-color="#F2AFDD" stop-opacity="0.63"/>
<stop offset="0.57" stop-color="#DFBDDE" stop-opacity="0.83"/>
<stop offset="0.84" stop-color="#D3C6DF" stop-opacity="0.95"/>
<stop offset="1" stop-color="#CFCAE0"/>
</linearGradient>
<linearGradient id="paint31_linear_199_1132" x1="-18.2878" y1="211.838" x2="10.149" y2="211.838" gradientUnits="userSpaceOnUse">
<stop stop-color="#FFA6DD" stop-opacity="0.5"/>
<stop offset="0.21" stop-color="#F2AFDD" stop-opacity="0.63"/>
<stop offset="0.57" stop-color="#DFBDDE" stop-opacity="0.83"/>
<stop offset="0.84" stop-color="#D3C6DF" stop-opacity="0.95"/>
<stop offset="1" stop-color="#CFCAE0"/>
</linearGradient>
<linearGradient id="paint32_linear_199_1132" x1="23.266" y1="313.196" x2="34.5002" y2="335.788" gradientUnits="userSpaceOnUse">
<stop stop-color="#6E0782"/>
<stop offset="1" stop-color="#08204D"/>
</linearGradient>
<linearGradient id="paint33_linear_199_1132" x1="35.7761" y1="309.327" x2="22.2962" y2="315.323" gradientUnits="userSpaceOnUse">
<stop stop-color="#FFA6DD"/>
<stop offset="0.12" stop-color="#FAA2DC"/>
<stop offset="0.26" stop-color="#EB97D9"/>
<stop offset="0.41" stop-color="#D485D5"/>
<stop offset="0.56" stop-color="#B36BD0"/>
<stop offset="0.72" stop-color="#894AC9"/>
<stop offset="0.89" stop-color="#5623C0"/>
<stop offset="1" stop-color="#2E04BA"/>
</linearGradient>
<linearGradient id="paint34_linear_199_1132" x1="53.0169" y1="319.8" x2="41.6747" y2="332.154" gradientUnits="userSpaceOnUse">
<stop stop-color="#FFE2F4"/>
<stop offset="1" stop-color="#9579F0"/>
</linearGradient>
<linearGradient id="paint35_linear_199_1132" x1="64.3197" y1="325.893" x2="42.7942" y2="336.121" gradientUnits="userSpaceOnUse">
<stop stop-color="#FFA6DD"/>
<stop offset="0.12" stop-color="#FAA2DC"/>
<stop offset="0.26" stop-color="#EB97D9"/>
<stop offset="0.41" stop-color="#D485D5"/>
<stop offset="0.56" stop-color="#B36BD0"/>
<stop offset="0.72" stop-color="#894AC9"/>
<stop offset="0.89" stop-color="#5623C0"/>
<stop offset="1" stop-color="#2E04BA"/>
</linearGradient>
<linearGradient id="paint36_linear_199_1132" x1="55.5881" y1="315.679" x2="45.9699" y2="345.456" gradientUnits="userSpaceOnUse">
<stop stop-color="#FFE1F4"/>
<stop offset="0.0001" stop-color="#FFA6DD"/>
<stop offset="1" stop-color="#9879FF"/>
</linearGradient>
<linearGradient id="paint37_linear_199_1132" x1="61.1188" y1="332.395" x2="49.5157" y2="335.059" gradientUnits="userSpaceOnUse">
<stop stop-color="#FFDDF2"/>
<stop offset="1" stop-color="#9076E7"/>
</linearGradient>
<linearGradient id="paint38_linear_199_1132" x1="66.1356" y1="340.996" x2="48.6897" y2="338.87" gradientUnits="userSpaceOnUse">
<stop stop-color="#FFA6DD"/>
<stop offset="0.12" stop-color="#FAA2DC"/>
<stop offset="0.26" stop-color="#EB97D9"/>
<stop offset="0.41" stop-color="#D485D5"/>
<stop offset="0.56" stop-color="#B36BD0"/>
<stop offset="0.72" stop-color="#894AC9"/>
<stop offset="0.89" stop-color="#5623C0"/>
<stop offset="1" stop-color="#2E04BA"/>
</linearGradient>
<linearGradient id="paint39_linear_199_1132" x1="64.7594" y1="330.451" x2="45.4511" y2="344.729" gradientUnits="userSpaceOnUse">
<stop stop-color="#FFD9F0"/>
<stop offset="1" stop-color="#8B04BA"/>
</linearGradient>
<linearGradient id="paint40_linear_199_1132" x1="31.9835" y1="318.665" x2="27.3609" y2="350.494" gradientUnits="userSpaceOnUse">
<stop stop-color="#CEE2FF"/>
<stop offset="1" stop-color="#7B5EDB"/>
</linearGradient>
</defs>
</svg>
