<svg width="291" height="342" viewBox="0 0 291 342" fill="none" xmlns="http://www.w3.org/2000/svg">
<mask id="mask0_199_1577" style="mask-type:alpha" maskUnits="userSpaceOnUse" x="0" y="0" width="291" height="342">
<rect width="291" height="342" rx="5" fill="url(#paint0_linear_199_1577)"/>
</mask>
<g mask="url(#mask0_199_1577)">
<path d="M84.9556 330.385C84.9548 330.387 84.9525 330.387 84.951 330.386C84.1765 329.758 83.3942 329.114 82.6004 328.529C81.4237 327.657 80.108 327.12 78.8619 326.36C76.7668 325.079 74.8069 323.289 73.0938 321.549C71.647 320.079 70.3082 318.517 68.8845 317.035C68.3367 316.464 67.6923 316.047 67.1831 315.434C66.3381 314.415 65.7092 313.269 64.9723 312.174C62.9776 309.222 59.4898 307.104 56.681 304.963C54.7828 303.516 53.0003 302 51.2217 300.41C50.1182 299.422 49.0109 298.458 47.9692 297.404C47.2516 296.675 46.4375 296.151 45.689 295.468C43.7831 293.724 41.9427 291.617 39.6548 290.39C38.6092 289.831 37.5829 289.044 36.5682 288.376C35.5998 287.74 35.1253 286.991 34.3883 286.127C33.8482 285.494 33.1499 284.642 32.5094 284.125C32.0348 283.743 31.8149 283.82 31.1359 283.824C30.4298 283.827 29.6505 283.669 29.0486 284.132C28.5316 284.53 28.1072 285.286 27.7368 285.822C26.371 287.805 25.2907 289.985 23.5815 291.706C22.3546 292.94 20.6184 293.793 19.1793 294.792C16.5557 296.617 15.1938 299.584 13.3303 302.054C12.0571 303.74 10.8533 305.144 8.69273 305.291C8.02526 305.337 7.37321 305.233 6.7096 305.341C4.32909 305.738 2.83982 307.119 0.930014 308.477C-0.293037 309.349 -1.20743 310.187 -1.95206 311.51C-2.65426 312.76 -3.03236 313.806 -4.08179 314.805C-5.13894 315.808 -5.7138 317.039 -6.83654 317.965C-7.57731 318.578 -8.19463 319.315 -8.93926 319.917C-10.9185 321.514 -13.2643 322.595 -15.2899 324.138C-16.4165 324.998 -17.8208 325.743 -18.6079 326.962C-19.1712 327.834 -19.2754 328.822 -20.0895 329.539C-20.4857 329.89 -20.2851 330.38 -19.7562 330.38H84.9529C84.9552 330.38 84.9566 330.383 84.9556 330.385Z" fill="url(#paint1_linear_199_1577)"/>
<path d="M195.137 318.002C195.137 318.002 195.138 318.003 195.138 318.002C196.122 316.336 197.337 314.832 198.305 313.146C199.161 311.657 199.713 309.902 200.701 308.497C202.503 305.939 207.468 304.392 210.447 304.766C214.741 305.303 219.143 305.283 223.507 305.199C225.775 305.156 228.325 303.551 230.17 302.351C233.364 300.272 236.177 297.559 239.626 295.881C241.794 294.828 243.94 294.133 246.278 293.508C248.106 293.022 249.777 292.208 251.706 292.235C253.172 292.254 254.199 291.919 255.595 291.753C256.988 291.591 258.628 290.715 259.94 290.152C261.278 289.577 262.343 288.836 263.539 288.045C264.778 287.223 266.225 286.332 267.22 285.213C268.721 283.531 269.905 281.339 272.486 281.625C275.268 281.934 277.691 282.678 280.392 283.334C281.85 283.689 283.332 283.932 284.833 283.913C286.017 283.897 287.479 284.152 288.618 283.832C291.164 283.118 293.464 280.795 295.042 278.835C296.627 276.868 297.607 273.434 299.953 272.33C301.566 271.57 303.032 271.898 304.718 272.234C305.204 272.33 306.196 272.539 306.682 272.369C307.376 272.126 307.639 271.165 307.932 270.509C308.402 269.452 308.449 268.411 308.723 267.299C308.981 266.265 309.564 265.428 309.915 264.437C310.378 263.121 310.27 261.72 310.683 260.401C310.845 259.888 311.072 259.51 311.296 259.016C311.443 258.688 311.636 257.851 311.825 257.627C312.616 256.709 314.394 257.071 315.448 257.067C317.045 257.064 318.04 257.175 319.275 258.306C320.564 259.483 320.618 261.524 321.111 263.082C321.517 264.352 321.729 265.563 322.261 266.786C322.828 268.09 323.723 269.101 324.503 270.259C325.768 272.134 326.382 274.271 327.748 276.061C328.488 277.038 328.924 278.033 329.881 278.824C330.765 279.553 331.922 280.19 332.956 280.676C334.665 281.482 336.567 281.555 338.369 282.053C340.337 282.597 342.366 282.929 344.28 283.662C349.631 285.707 353.331 291.02 357.544 294.669C360.187 296.957 362.857 299.176 365.469 301.502C366.831 302.718 368.344 303.617 369.763 304.724C371.037 305.719 372.287 306.881 373.714 307.656C375.527 308.644 377.696 309.346 379.667 309.936C380.624 310.226 381.515 310.141 382.445 310.38C383.425 310.631 384.617 311.163 385.81 311.225C388.46 311.36 390.663 311.121 393.225 312.07C397.654 313.714 401.493 316.97 405.07 319.968C406.586 321.241 408.492 322.422 409.738 323.934C410.849 325.284 411.887 325.836 413.434 326.596C414.503 327.121 415.61 327.696 416.752 328.051C417.574 328.305 418.354 328.251 419.198 328.409C420.121 328.583 420.927 329.154 421.861 329.247H195.608C194.613 329.247 193.736 328.416 193.503 327.449C193.25 326.403 192.921 325.376 192.992 324.293C193.135 322.098 194.029 319.876 195.136 318.002C195.137 318.001 195.137 318.001 195.137 318.002Z" fill="url(#paint2_linear_199_1577)"/>
<path d="M-8.10242 332.245C-8.10242 332.242 -8.10096 332.239 -8.09852 332.238C-5.96839 330.762 -3.80984 329.409 -1.63234 328.009C0.00257492 326.959 1.6533 326.001 3.1807 324.793C3.81632 324.29 4.47725 323.835 5.05595 323.262C5.5556 322.766 5.75798 322.26 6.12165 321.703C6.66241 320.878 7.37392 320.249 8.24039 319.904C9.37882 319.452 10.4414 318.917 11.5007 318.358C12.4684 317.845 13.4266 316.919 14.2267 316.185C15.1722 315.322 16.1462 314.395 17.1518 313.595C17.955 312.953 18.5938 312.112 19.4097 311.499C20.371 310.771 21.4936 310.319 22.4613 309.595C23.6092 308.735 24.6433 307.951 25.9145 307.296C26.9802 306.746 27.8246 305.788 28.8966 305.202C29.3962 304.931 29.7093 304.564 30.3038 304.747C30.8952 304.931 31.3537 305.506 31.9071 305.667C32.2645 305.772 33.3302 305.898 33.6717 305.743C34.1365 305.535 34.4275 304.086 34.6267 303.577C34.8607 302.973 34.9493 302.344 35.139 301.8C35.2623 301.446 35.3762 301.155 35.5564 300.816C35.724 300.5 35.8474 300.08 36.0181 299.795C36.5304 298.944 37.7922 298.381 38.5448 297.746C39.0729 297.3 39.4176 296.898 39.7655 296.376C40.0279 295.981 40.5465 295.599 40.8881 295.282C41.9253 294.321 43.0416 293.518 44.199 292.718C44.9422 292.202 45.7865 291.902 46.498 291.348C46.8996 291.035 47.2886 290.7 47.7092 290.409C48.2721 290.02 48.8033 289.6 49.3504 289.182C50.2833 288.471 51.1245 287.74 51.9467 286.909C52.9871 285.855 54.3247 285.289 55.4347 284.334C56.0166 283.832 56.649 283.398 57.1929 282.848C57.7084 282.326 58.129 281.732 58.6698 281.239C59.8398 280.166 61.1237 279.142 62.0313 277.811C62.3159 277.393 62.4614 277.08 62.844 276.726C63.195 276.4 63.5112 275.999 63.818 275.629C64.1342 275.246 64.3904 274.822 64.7003 274.436C65.1873 273.826 65.8703 273.428 66.3668 272.827C66.8127 272.286 67.2839 271.843 67.7456 271.328C68.1662 270.86 68.416 270.253 68.8303 269.781C69.1686 269.396 69.6461 269.212 70.0161 268.864C70.2881 268.611 70.4493 268.286 70.6992 268.02C71.3949 267.283 72.2645 266.727 73.1405 266.23C74.1398 265.661 74.8987 264.994 76.053 265C77.5962 265.006 79.0445 265.971 80.4928 266.474C81.3593 266.774 82.2637 267.131 83.0701 267.571C84.041 268.096 84.6797 268.596 85.4608 269.383C86.0079 269.936 86.6309 270.3 87.1811 270.8C87.7409 271.309 88.6548 271.518 89.3283 271.888C89.8849 272.194 90.4857 272.599 90.998 272.975C91.3174 273.209 91.5356 273.513 91.8993 273.706C92.4179 273.978 92.7784 274.117 93.2022 274.538C95.5676 276.884 98.7489 278.086 101.702 279.363C102.155 279.559 102.806 279.727 103.192 280.008C103.666 280.353 104.008 280.938 104.406 281.359C105.001 281.988 105.396 282.763 105.924 283.439C106.534 284.221 106.942 284.145 107.689 283.566C108.005 283.322 108.41 282.892 108.792 282.798C109.077 282.725 109.349 282.813 109.637 282.731C109.912 282.652 109.975 282.488 110.336 282.548C110.658 282.601 111.088 282.854 111.351 283.047C112.176 283.655 112.884 284.622 113.488 285.425C113.899 285.969 114.209 286.599 114.655 287.114C115.089 287.617 115.661 288.123 116.018 288.721C116.752 289.944 117.533 291.178 118.444 292.376C119.288 293.489 120.218 294.508 121.034 295.633C121.555 296.354 122.362 296.835 122.969 297.474C123.507 298.04 123.791 298.799 124.275 299.406C125.11 300.453 126.074 301.591 127.014 302.439C127.403 302.79 127.747 303.21 128.139 303.552C128.566 303.925 129.158 304.086 129.613 304.431C130.799 305.326 131.852 306.195 133.171 306.916C135.46 308.166 138.022 309.244 139.799 311.217C140.558 312.058 141.269 312.956 141.974 313.845C142.749 314.819 143.255 315.926 144.239 316.691C144.881 317.191 145.393 317.868 146.035 318.377C146.743 318.936 147.452 319.487 148.094 320.148C148.935 321.02 149.757 321.912 150.674 322.725C151.243 323.231 151.857 323.693 152.54 324.031C153.586 324.549 154.162 325.312 155.044 326.048C155.784 326.665 156.654 327.136 157.445 327.69C158.447 328.392 159.459 329.094 160.515 329.714C161.685 330.397 162.862 330.887 164.161 331.244C165.094 331.5 165.885 331.902 166.767 332.297C168.845 333.23 170.821 334.144 172.282 335.981C172.649 336.44 173.044 336.939 173.36 337.43C173.987 338.4 174.704 339.238 175.432 340.165C175.982 340.864 176.894 341.912 177.784 342.423C177.853 342.463 177.82 342.6 177.74 342.6H-16.3624C-15.6266 342.6 -17.0496 343.535 -17.4154 342.896C-17.8615 342.117 -18.125 341.276 -17.9404 340.295C-17.7253 339.159 -16.8209 338.657 -15.9197 338.084C-14.6263 337.262 -13.6871 336.101 -12.4854 335.165C-11.0984 334.088 -9.54724 333.251 -8.10632 332.252C-8.10388 332.251 -8.10242 332.248 -8.10242 332.245Z" fill="#5F9EFD"/>
<path d="M-8.65028 332.245C-8.65028 332.242 -8.64882 332.239 -8.64637 332.238C-6.51624 330.762 -4.35769 329.409 -2.18019 328.009C-0.545279 326.959 1.10545 326.001 2.63284 324.793C3.26847 324.29 3.9294 323.835 4.5081 323.262C5.00774 322.766 5.21013 322.26 5.5738 321.703C6.11455 320.878 6.82607 320.249 7.69254 319.904C8.83097 319.452 9.89351 318.917 10.9529 318.358C11.9205 317.845 12.8787 316.919 13.6788 316.185C14.6243 315.322 15.5983 314.395 16.6039 313.595C17.4072 312.953 18.0459 312.112 18.8618 311.499C19.8232 310.771 20.9458 310.319 21.9134 309.595C23.0614 308.735 24.0954 307.951 25.3667 307.296C26.4324 306.746 27.2767 305.788 28.3487 305.202C28.8484 304.931 29.1615 304.564 29.756 304.747C30.3473 304.931 30.8059 305.506 31.3593 305.667C31.7166 305.772 32.7823 305.898 33.1238 305.743C33.5887 305.535 33.8796 304.086 34.0789 303.577C34.3129 302.973 34.4014 302.344 34.5911 301.8C34.7145 301.446 34.8283 301.155 35.0086 300.816C35.1762 300.5 35.2995 300.08 35.4703 299.795C35.9826 298.944 37.2443 298.381 37.997 297.746C38.5251 297.3 38.8698 296.898 39.2176 296.376C39.4801 295.981 39.9987 295.599 40.3402 295.282C41.3775 294.321 42.4938 293.518 43.6512 292.718C44.3943 292.202 45.2386 291.902 45.9501 291.348C46.3518 291.035 46.7407 290.7 47.1613 290.409C47.7242 290.02 48.2555 289.6 48.8026 289.182C49.7355 288.471 50.5766 287.74 51.3988 286.909C52.4392 285.855 53.7769 285.289 54.8868 284.334C55.4687 283.832 56.1012 283.398 56.6451 282.848C57.1605 282.326 57.5811 281.732 58.1219 281.239C59.292 280.166 60.5759 279.142 61.4834 277.811C61.768 277.393 61.9135 277.08 62.2961 276.726C62.6471 276.4 62.9634 275.999 63.2701 275.629C63.5864 275.246 63.8425 274.822 64.1524 274.436C64.6394 273.826 65.3225 273.428 65.8189 272.827C66.2648 272.286 66.736 271.843 67.1977 271.328C67.6183 270.86 67.8681 270.253 68.2824 269.781C68.6208 269.396 69.0983 269.212 69.4683 268.864C69.7402 268.611 69.9015 268.286 70.1513 268.02C70.847 267.283 71.7167 266.727 72.5926 266.23C73.5919 265.661 74.3509 264.994 75.5051 265C77.0483 265.006 78.4966 265.971 79.945 266.474C80.8115 266.774 81.7159 267.131 82.5223 267.571C83.4931 268.096 84.1319 268.596 84.913 269.383C85.4601 269.936 86.083 270.3 86.6333 270.8C87.193 271.309 88.1069 271.518 88.7805 271.888C89.337 272.194 89.9379 272.599 90.4502 272.975C90.7696 273.209 90.9878 273.513 91.3514 273.706C91.87 273.978 92.2306 274.117 92.6543 274.538C95.0197 276.884 98.201 278.086 101.155 279.363C101.607 279.559 102.258 279.727 102.644 280.008C103.118 280.353 103.46 280.938 103.858 281.359C104.453 281.988 104.848 282.763 105.376 283.439C105.987 284.221 106.395 284.145 107.141 283.566C107.457 283.322 107.862 282.892 108.244 282.798C108.529 282.725 108.801 282.813 109.089 282.731C109.364 282.652 109.427 282.488 109.788 282.548C110.11 282.601 110.54 282.854 110.803 283.047C111.628 283.655 112.337 284.622 112.941 285.425C113.352 285.969 113.662 286.599 114.107 287.114C114.541 287.617 115.113 288.123 115.47 288.721C116.204 289.944 116.985 291.178 117.896 292.376C118.74 293.489 119.67 294.508 120.486 295.633C121.008 296.354 121.814 296.835 122.421 297.474C122.959 298.04 123.243 298.799 123.727 299.406C124.562 300.453 125.527 301.591 126.466 302.439C126.855 302.79 127.199 303.21 127.592 303.552C128.018 303.925 128.61 304.086 129.065 304.431C130.251 305.326 131.304 306.195 132.623 306.916C134.912 308.166 137.474 309.244 139.251 311.217C140.01 312.058 140.721 312.956 141.427 313.845C142.201 314.819 142.707 315.926 143.691 316.691C144.333 317.191 144.845 317.868 145.487 318.377C146.195 318.936 146.904 319.487 147.546 320.148C148.387 321.02 149.209 321.912 150.126 322.725C150.695 323.231 151.309 323.693 151.992 324.031C153.039 324.549 153.614 325.312 154.496 326.048C155.236 326.665 156.106 327.136 156.897 327.69C157.899 328.392 158.911 329.094 159.967 329.714C161.137 330.397 162.314 330.887 163.613 331.244C164.546 331.5 165.337 331.902 166.219 332.297C168.297 333.23 170.273 334.144 171.734 335.981C172.101 336.44 172.496 336.939 172.813 337.43C173.439 338.4 174.157 339.238 174.884 340.165C175.434 340.864 176.346 341.912 177.236 342.423C177.305 342.463 177.272 342.6 177.192 342.6H-16.9102C-16.1744 342.6 -17.5975 343.535 -17.9633 342.896C-18.4094 342.117 -18.6729 341.276 -18.4882 340.295C-18.2732 339.159 -17.3688 338.657 -16.4675 338.084C-15.1741 337.262 -14.2349 336.101 -13.0332 335.165C-11.6462 334.088 -10.0951 333.251 -8.65417 332.252C-8.65173 332.251 -8.65028 332.248 -8.65028 332.245Z" fill="url(#paint3_linear_199_1577)"/>
<path d="M346.207 299.126H-44C-46.7614 299.126 -49 301.364 -49 304.126V342.06C-49 344.821 -46.7614 347.06 -44 347.06H346.207C348.969 347.06 351.207 344.821 351.207 342.06V304.126C351.207 301.364 348.969 299.126 346.207 299.126Z" fill="url(#paint4_linear_199_1577)"/>
<path d="M268.032 307.291C266.963 307.179 265.891 307.113 264.814 307.083C263.267 307.04 261.986 306.778 260.601 307.484C258.105 308.757 255.601 310.586 253.359 312.249C251.646 313.518 249.829 315.679 247.695 316.257C246.291 316.639 244.281 316.381 242.853 316.092C239.532 315.412 236.021 315.046 232.66 315.725C229.635 316.335 227.004 317.488 223.879 317.349C222.629 317.295 221.371 317.245 220.121 317.241C218.311 317.237 217.509 316.616 215.973 315.721C214.418 314.814 212.79 314.398 211.077 313.877C209.657 313.445 207.933 313.047 206.432 313.341C203.685 313.877 200.544 316.485 198.939 318.704C197.736 320.37 197.122 322.924 194.78 323.341C192.176 323.804 189.275 322.6 186.693 323.221C183.943 323.881 181.234 325.178 178.526 326.03C174.664 327.246 170.728 328.195 166.882 329.46C163.961 330.421 161.557 329.576 158.706 329.128C156.268 328.743 153.71 329.29 151.264 328.831C146.757 327.986 142.324 326.277 137.864 325.162C134.372 324.29 130.572 323.573 126.972 323.495C126.012 323.476 124.789 323.218 123.851 323.434C122.813 323.673 121.984 324.603 121.05 325.089C118.878 326.212 116.231 326.227 113.885 326.806C109.923 327.786 105.459 326.478 101.412 326.794C93.2053 327.438 84.8832 326.794 76.6266 326.528C73.7021 326.435 70.7352 326.177 67.8068 326.215C66.0744 326.239 64.4 326.694 62.6677 326.682C59.8319 326.659 57.1504 326.185 54.4304 327.219C52.7289 327.867 51.1586 328.669 49.3877 329.125C48.1222 329.452 46.7564 329.777 45.7842 330.718C44.3065 332.153 44.4261 334.468 44.0518 336.347C43.7867 337.681 43.3676 338.969 42.9044 340.244C41.8731 343.084 43.6531 346.009 46.642 346.45L166.789 364.157L254.767 366.977C257.307 367.059 259.503 365.222 259.874 362.709L268.039 307.299C268.039 307.295 268.036 307.291 268.032 307.291Z" fill="#79A4FA"/>
<path d="M209.342 313.404C209.342 313.405 209.341 313.405 209.34 313.405C206.64 313.046 203.631 312.228 200.058 310.874C193.06 308.227 189.317 306.645 182.627 310.191C180.984 311.061 181.762 313.401 183.622 313.401H209.341C209.342 313.401 209.343 313.403 209.342 313.404Z" fill="#5F9EFD"/>
<path d="M398.217 267.812C398.216 267.812 398.215 267.812 398.215 267.812C389.657 264.837 370.39 261.358 361.397 265.008C354.989 267.608 353.287 275.506 348.893 279.912C340.262 288.566 331.345 286.953 317.749 286.602C306.827 286.32 308.513 290.105 300.997 295.345C297.054 298.095 291.44 294.372 287.347 296.332C281.563 299.102 279.75 302.725 277.165 304.982C266.053 314.697 250.069 309.848 237.225 318.096C233.324 320.6 230.724 324.586 225.951 325.195C221.989 325.701 215.815 324.011 211.996 325.257C207.127 326.843 203.571 331.638 200.437 336.482C197.999 340.252 201.172 346.527 205.662 346.527H391.318C394.177 346.527 396.454 344.135 396.312 341.28C396.156 338.12 395.999 334.96 395.843 331.801L398.22 267.813C398.22 267.811 398.218 267.811 398.217 267.812Z" fill="url(#paint5_linear_199_1577)"/>
<g style="mix-blend-mode:overlay" opacity="0.28">
<path d="M-138.849 173.738C-138.849 173.738 -109.147 183.882 -90.3127 183.882C-71.4785 183.882 -70.7548 182.434 -66.4066 186.053C-62.0585 189.677 -61.3348 191.849 -51.9205 191.125C-42.5063 190.401 -26.567 193.296 -19.3239 196.197C-12.0808 199.097 -4.8378 194.749 3.85843 196.197C12.549 197.644 39.3557 207.788 66.8805 205.611C66.8805 205.611 1.68723 203.44 -35.9812 199.815C-73.6497 196.191 -125.081 183.152 -138.843 173.738H-138.849Z" fill="white"/>
</g>
<g style="mix-blend-mode:overlay" opacity="0.28">
<path d="M101 139C101 139 127.543 144.676 143.726 142.802C159.91 140.929 160.387 139.63 164.485 142.275C168.583 144.92 169.426 146.699 177.446 145.148C185.466 143.597 199.454 144.479 205.97 146.219C212.487 147.966 218.279 143.55 225.893 143.912C233.508 144.274 257.56 150.241 281 145.66C281 145.66 224.755 150.289 192.022 150.95C159.289 151.611 113.778 145.636 101.008 139H101Z" fill="white"/>
</g>
<g style="mix-blend-mode:overlay" opacity="0.28">
<path d="M-264.978 114C-264.978 114 -53.1589 162.673 138.289 173.834C329.736 184.986 452.964 130.224 452.964 130.224L455 138.34C455 138.34 296.138 200.201 38.4898 179.915C-219.158 159.636 -266 140.367 -266 140.367L-264.978 114Z" fill="white"/>
</g>
<path opacity="0.2" d="M-114 -39C-114 -39 25.9239 96.1757 291 109C291 109 289.028 102.09 278.192 100.116C267.356 98.1421 255.526 103.078 252.569 96.168C249.611 89.2584 239.761 69.5246 219.066 68.5452C198.372 67.5659 185.564 79.3954 174.72 72.4935C163.876 65.5917 151.068 52.7597 140.232 53.7468C129.396 54.7338 102.787 62.6305 98.8433 50.7855C94.9001 38.9406 94.9001 18.2274 72.2341 -7.42893C49.5681 -33.0852 -18.4223 12.3049 -29.2585 -2.49354C-40.0948 -17.292 -43.0522 -39 -56.8459 -39H-114Z" fill="white"/>
<path opacity="0.2" d="M191 111.94C191 111.94 19.9634 114.287 -98.1857 89.6113C-216.326 64.9354 -261 28.5062 -261 28.5062C-261 28.5062 -235.136 40.2596 -223.968 39.0815C-212.799 37.9034 -198.694 24.392 -189.293 26.1591C-179.892 27.9262 -172.839 50.8349 -165.197 52.013C-157.555 53.1911 -152.85 46.7208 -122.291 47.3098C-91.7312 47.8988 -89.3742 67.8715 -75.8577 77.2779C-62.3412 86.6752 -23.5504 80.803 -5.32899 80.214C12.8924 79.6249 22.2932 98.4286 34.051 100.776C45.8088 103.123 70.4939 94.3144 75.779 96.0725C81.0641 97.8305 84.5996 104.89 90.474 104.301C96.3483 103.712 95.1789 97.2505 101.053 100.776C106.928 104.301 123.39 109.004 128.086 103.712C132.791 98.4195 190.973 111.94 190.973 111.94H191Z" fill="white"/>
<path opacity="0.2" d="M150 29.5247C150 29.5247 308.199 61.3008 382 55.2288C382 55.2288 366.856 48.7868 358.318 49.6287C349.781 50.4706 343.587 55.3053 333.491 45.7508C323.408 36.1963 295.451 27.3179 280.371 35.7371C265.305 44.1563 253.625 39.9849 249.349 36.6938C245.074 33.4027 240 36.5152 230.664 36.3239C221.315 36.1453 210.344 10.7091 197.196 11.0025C184.048 11.2959 179.992 29.3717 172.123 24.7283C164.255 20.085 150 29.5247 150 29.5247Z" fill="white"/>
<path d="M136.718 342.086H-19V310.169C-17.521 309.7 -15.954 309.235 -14.2988 308.781C-5.23943 306.305 6.44116 304.2 20.8405 303.649C28.8111 303.347 37.6188 303.52 47.2729 304.376C83.7307 307.601 116.954 327.586 136.718 342.086Z" fill="url(#paint6_linear_199_1577)"/>
<g style="mix-blend-mode:screen" opacity="0.34">
<path d="M136.718 342.086H130.573C122.879 336.469 109.188 327.061 98.2685 322.74C82.1542 316.362 69.7341 316.025 58.3179 310.99C46.9047 305.953 31.7974 306.289 23.4019 305.619C15.0097 304.946 5.94398 306.289 -2.785 308.303C-7.35087 309.357 -13.8457 311.604 -19 313.508V310.169C-17.521 309.7 -15.954 309.235 -14.2988 308.781C-5.23943 306.305 6.44116 304.2 20.8405 303.649C28.8111 303.347 37.6188 303.52 47.2729 304.376C83.7307 307.601 116.954 327.586 136.718 342.086Z" fill="white"/>
</g>
<path style="mix-blend-mode:multiply" opacity="0.46" d="M99.5366 342.086H-19V310.169C-17.521 309.7 -15.954 309.235 -14.2988 308.781C-14.5096 309.423 -14.604 310.103 -14.5568 310.811C-14.3869 313.278 -12.4202 315.333 -10.1577 316.33C-7.8984 317.328 -5.36215 317.466 -2.89198 317.57C10.0725 318.121 23.0621 318.121 36.0265 317.57C37.6565 317.501 39.3463 317.432 40.8662 318.023C42.3892 318.615 43.7108 320.056 43.6133 321.686C43.4748 324.052 40.5987 325.604 40.5641 327.976C40.5421 329.487 41.7693 330.79 43.1759 331.34C44.5856 331.891 46.1432 331.85 47.6536 331.797C59.7905 331.365 71.9368 330.598 84.0674 331.202C87.1008 331.35 90.1877 331.601 93.004 332.741C95.8204 333.88 98.366 336.054 99.244 338.962C99.5524 339.981 99.6373 341.038 99.5366 342.086Z" fill="url(#paint7_linear_199_1577)"/>
<path d="M156.172 309.624C157.3 311.434 159 312.792 160.954 313.447C160.954 313.447 161.302 313.121 161.81 312.528C162.654 311.526 163.386 310.426 163.994 309.248C164.511 308.243 164.909 307.172 165.181 306.056C165.282 305.627 165.361 305.191 165.417 304.75C165.526 303.897 165.557 303.03 165.51 302.161C165.459 301.247 165.316 300.335 165.084 299.44C165.077 299.407 165.066 299.375 165.058 299.342C164.327 296.614 162.949 294.83 162.373 294.575C161.787 294.318 161.715 295.962 159.971 299.158C159.745 299.572 159.49 300.008 159.206 300.474C158.745 301.218 158.201 302.031 157.552 302.906C157.187 303.399 156.787 303.913 156.35 304.447C156.118 304.728 155.877 305.018 155.623 305.31C155.512 305.442 155.401 305.574 155.286 305.703C155.249 305.995 155.238 306.292 155.254 306.589C155.296 307.653 155.612 308.702 156.172 309.624Z" fill="#FF9E12"/>
<path d="M159.313 300.45C160.176 301.043 161.127 301.473 162.119 301.718C163.311 302.016 164.524 302.167 165.733 302.167C165.681 301.237 165.536 300.309 165.3 299.398C165.292 299.365 165.281 299.332 165.273 299.299C164.305 299.498 163.312 299.582 162.314 299.549C161.562 299.514 160.814 299.367 160.091 299.111C159.86 299.532 159.601 299.976 159.313 300.45Z" fill="#F93D31"/>
<path d="M156.251 304.399C157.359 305.738 158.69 306.859 160.175 307.703C161.39 308.381 162.674 308.9 163.997 309.249C164.522 308.234 164.926 307.152 165.201 306.024C164.017 305.88 162.844 305.605 161.702 305.201C160.167 304.715 158.726 303.912 157.469 302.841C157.1 303.339 156.694 303.858 156.251 304.399Z" fill="#F93D31"/>
<path opacity="0.13" d="M155.151 306.553L161.768 312.531C162.939 311.144 164.947 308.321 165.41 304.703C165.644 302.936 165.529 301.118 165.074 299.358C164.699 301.466 163.591 303.318 161.955 304.569C161.069 305.267 160.007 305.699 158.878 305.821C157.748 305.943 156.591 305.751 155.522 305.265C155.41 305.398 155.298 305.53 155.182 305.66C155.144 305.954 155.134 306.254 155.151 306.553Z" fill="#590800"/>
<path d="M171.181 342.623C171.181 342.623 169.895 343.466 169.965 343.773C170.034 344.079 171.927 343.218 171.927 343.218C171.927 343.218 172.107 344.419 173.113 344.149C173.397 344.075 173.648 343.91 173.831 343.675C174.014 343.441 174.122 343.149 174.138 342.838C174.138 342.838 176.393 343.265 177.114 342.557C177.836 341.848 175.949 341.819 175.949 341.819C175.949 341.819 178.3 341.239 178.332 340.763C178.364 340.288 175.768 340.545 175.768 340.545L171.181 342.623Z" fill="#443551"/>
<path d="M164.652 320.191C164.652 320.191 169.464 313.593 169.586 312.506C169.708 311.419 169.221 310.231 168.799 308.968C168.172 307.092 167.813 307.211 167.762 306.988C167.669 306.583 168.44 306.386 169.014 307.034C169.415 307.548 169.723 308.132 169.922 308.754C169.922 308.754 171.598 305.229 172.07 305.254C172.541 305.279 171.766 307.986 171.766 307.986C171.766 307.986 173.864 305.845 174.31 306.049C174.757 306.253 173.098 308.495 173.098 308.495C173.098 308.495 174.895 307.26 175.292 307.357C175.688 307.454 173.947 309.165 173.947 309.165C173.947 309.165 175.515 308.957 175.606 309.381C175.655 309.611 173.89 310.609 173.609 310.827C173.328 311.044 170.932 312.907 170.932 312.907L168.621 324.465L164.652 320.191Z" fill="#009579"/>
<path d="M138.663 354.077C141.083 355.368 145.082 353.515 145.082 353.515C145.082 353.515 146.147 348.146 147.661 346.712C148.741 345.695 163.39 341.356 165.526 341.567C167.504 341.765 171.186 343.445 171.186 343.445C172.03 343.337 172.85 343.115 173.628 342.785C174.388 342.465 175.083 342.008 175.682 341.436C175.682 341.436 174.259 334.063 172.735 328.62C171.21 323.177 159.512 308.695 155.728 306.552C154.409 305.846 153.045 305.246 151.648 304.758C147.286 303.177 141.666 301.931 139.651 302.945C136.896 304.333 132.515 315.878 133.041 329.634C133.385 337.994 135.295 346.297 138.663 354.077Z" fill="url(#paint8_linear_199_1577)"/>
<path d="M140.42 322.099C138.88 318.486 139.773 314.701 142.415 313.645C145.058 312.59 148.448 314.663 149.988 318.276C151.529 321.89 150.635 325.674 147.993 326.73C145.351 327.786 141.96 325.712 140.42 322.099Z" fill="#009579"/>
<path d="M141.579 321.882C141.718 322.181 141.873 322.472 142.043 322.754C142.406 323.373 142.842 323.945 143.34 324.453C144.177 325.347 145.241 325.954 146.372 326.183C146.886 326.272 147.403 326.238 147.883 326.084C147.979 326.052 148.073 326.015 148.166 325.975C150.301 325.013 150.812 321.616 149.31 318.394C147.808 315.171 144.861 313.337 142.726 314.3C140.591 315.263 140.076 318.656 141.579 321.882Z" fill="#CAE7EF"/>
<path d="M141.902 321.691C140.449 318.654 140.946 315.456 143.01 314.548C145.075 313.641 147.926 315.367 149.378 318.405C150.83 321.442 150.334 324.64 148.27 325.548C146.205 326.455 143.354 324.729 141.902 321.691Z" fill="white"/>
<path d="M141.835 322.712C142.201 323.335 142.641 323.91 143.142 324.421C143.987 325.32 145.059 325.931 146.2 326.161C146.719 326.25 147.24 326.217 147.724 326.062C148.16 325.021 147.812 323.454 146.77 322.161C146.759 322.147 146.75 322.137 146.739 322.124C146.49 321.818 146.21 321.542 145.905 321.302C144.705 320.345 143.304 320.125 142.471 320.875C142.237 321.099 142.059 321.38 141.949 321.698C141.839 322.016 141.8 322.362 141.835 322.712Z" fill="url(#paint9_linear_199_1577)"/>
<path d="M143.132 324.406C143.973 325.303 145.042 325.912 146.178 326.141C146.328 326.09 146.466 326.01 146.585 325.904C147.325 325.244 147.157 323.771 146.213 322.62C145.27 321.47 143.907 321.065 143.172 321.731C142.56 322.279 142.571 323.386 143.132 324.406Z" fill="#590800"/>
<path d="M145.711 322.96C145.791 323.115 145.828 323.288 145.816 323.457C145.805 323.626 145.746 323.783 145.647 323.908C145.549 324.034 145.414 324.122 145.261 324.161C145.108 324.2 144.943 324.189 144.788 324.13C144.632 324.07 144.492 323.964 144.386 323.825C144.281 323.686 144.213 323.521 144.193 323.35C144.173 323.179 144.2 323.01 144.272 322.864C144.344 322.719 144.458 322.603 144.598 322.532C144.691 322.485 144.793 322.458 144.9 322.454C145.006 322.45 145.114 322.469 145.217 322.508C145.321 322.548 145.418 322.608 145.502 322.686C145.587 322.763 145.658 322.856 145.711 322.96Z" fill="white"/>
<path d="M147.004 321.418C147.06 321.527 147.086 321.649 147.078 321.767C147.07 321.885 147.029 321.995 146.96 322.082C146.89 322.17 146.796 322.231 146.689 322.259C146.582 322.286 146.467 322.279 146.358 322.237C146.249 322.195 146.151 322.121 146.077 322.024C146.003 321.927 145.956 321.811 145.942 321.692C145.928 321.572 145.947 321.454 145.998 321.352C146.048 321.25 146.127 321.169 146.225 321.119C146.357 321.053 146.513 321.047 146.659 321.103C146.805 321.159 146.929 321.273 147.004 321.418Z" fill="white"/>
<path d="M153.909 318.419C155.749 321.885 158.978 323.658 161.122 322.379C163.265 321.101 163.51 317.254 161.67 313.79C159.83 310.326 156.6 308.551 154.457 309.83C152.313 311.108 152.068 314.952 153.909 318.419Z" fill="#009579"/>
<path d="M154.102 318.503C154.263 318.786 154.438 319.06 154.625 319.326C155.02 319.902 155.477 320.43 155.986 320.896C156.796 321.689 157.806 322.197 158.859 322.34C159.314 322.383 159.762 322.302 160.16 322.106C160.238 322.065 160.315 322.019 160.391 321.97C162.113 320.82 162.089 317.401 160.34 314.337C158.59 311.272 155.777 309.718 154.054 310.867C152.331 312.017 152.351 315.435 154.102 318.503Z" fill="#CAE7EF"/>
<path d="M154.171 317.946C152.58 315.004 152.729 311.888 154.502 310.988C156.275 310.087 159.001 311.743 160.592 314.685C162.182 317.628 162.034 320.743 160.26 321.644C158.487 322.544 155.761 320.889 154.171 317.946Z" fill="white"/>
<path d="M154.439 319.271C154.839 319.851 155.301 320.382 155.815 320.852C156.633 321.651 157.655 322.162 158.719 322.306C159.179 322.349 159.632 322.268 160.034 322.07C160.27 320.996 159.751 319.467 158.663 318.277C158.652 318.264 158.642 318.255 158.631 318.242C158.376 317.964 158.094 317.715 157.791 317.5C156.612 316.658 155.361 316.567 154.74 317.386C154.564 317.648 154.446 317.951 154.394 318.276C154.342 318.601 154.357 318.94 154.439 319.271Z" fill="url(#paint10_linear_199_1577)"/>
<path d="M155.804 320.834C156.619 321.63 157.635 322.139 158.695 322.283C158.82 322.218 158.93 322.126 159.017 322.011C159.569 321.288 159.22 319.839 158.24 318.781C157.259 317.723 156.019 317.449 155.47 318.172C155.012 318.773 155.175 319.872 155.804 320.834Z" fill="#590800"/>
<path d="M157.847 319.17C157.971 319.356 158.029 319.579 158.009 319.795C157.99 320.01 157.894 320.203 157.741 320.335C157.661 320.388 157.57 320.422 157.474 320.434C157.377 320.447 157.278 320.437 157.181 320.407C157.085 320.376 156.993 320.325 156.913 320.257C156.833 320.189 156.766 320.105 156.715 320.011C156.591 319.825 156.533 319.602 156.553 319.387C156.572 319.171 156.668 318.979 156.821 318.846C156.901 318.793 156.992 318.759 157.088 318.747C157.185 318.734 157.284 318.744 157.381 318.774C157.477 318.805 157.569 318.855 157.649 318.924C157.729 318.992 157.797 319.076 157.847 319.17Z" fill="white"/>
<path d="M158.772 317.548C158.859 317.678 158.899 317.834 158.885 317.984C158.871 318.135 158.804 318.269 158.698 318.362C158.642 318.399 158.578 318.423 158.511 318.431C158.443 318.44 158.374 318.433 158.306 318.412C158.239 318.391 158.175 318.355 158.119 318.308C158.062 318.26 158.015 318.201 157.98 318.135C157.894 318.005 157.853 317.85 157.867 317.699C157.881 317.549 157.947 317.414 158.054 317.322C158.11 317.285 158.174 317.261 158.241 317.252C158.309 317.244 158.378 317.25 158.446 317.271C158.513 317.293 158.577 317.328 158.634 317.376C158.69 317.423 158.737 317.482 158.772 317.548Z" fill="white"/>
<path d="M149.381 337.122C149.391 336.943 149.586 335.421 153.392 333.073C155.908 331.545 158.705 330.536 161.637 330.096C161.41 329.4 161.139 328.718 160.826 328.054C159.654 325.555 157.233 321.88 153.7 323.876C149.833 326.063 149.338 332.459 149.334 335.499C149.331 336.315 149.364 336.885 149.378 337.075L149.381 337.122Z" fill="#590800"/>
<path d="M149.242 337.122C149.253 336.94 149.45 335.391 153.295 333.001C155.838 331.447 158.663 330.42 161.626 329.972L161.28 329.003C158.983 328.65 156.672 328.956 154.598 329.887C151.009 331.607 149.195 335.472 149.195 335.472L149.239 337.075L149.242 337.122Z" fill="#8B1229"/>
<path d="M151.061 327.639L151.865 328.056L153.54 328.926L153.105 325.374L153.047 324.913L153.622 324.911L154.845 324.905L155.01 324.225L155.035 324.125L155.17 324.185L156.212 324.641L156.278 324.127L156.33 323.744L156.717 324.206L159.145 327.108L158.622 324.827C158.205 324.351 157.682 323.987 157.105 323.772C156.528 323.557 155.915 323.498 155.327 323.599C154.061 323.853 152.942 324.559 152.16 325.599C152.157 325.599 152.155 325.608 152.155 325.608C151.984 325.825 151.827 326.054 151.684 326.293C151.427 326.712 151.217 327.164 151.061 327.639Z" fill="white"/>
<path d="M162.205 329.84L161.851 324.937L159.005 330.693L162.205 329.84Z" fill="white"/>
<path d="M153.707 332.751L146.968 330.102L150.561 335.792L153.707 332.751Z" fill="white"/>
<path d="M164.044 330.1L161.995 329.397C161.995 329.397 159.3 329.263 155.519 330.981C148.132 334.343 148.598 339.594 148.598 339.594C148.598 339.594 149.456 334.431 156.165 331.885C160.239 330.34 162.73 330.936 162.73 330.936L164.044 330.1Z" fill="#590800"/>
<path d="M151.063 327.675L151.87 328.095C152.007 327.068 152.441 326.126 153.114 325.393L153.056 324.928L153.634 324.926C153.897 324.725 154.182 324.557 154.485 324.425C154.659 324.347 154.841 324.283 155.026 324.234L155.051 324.134L155.187 324.194C155.549 324.113 155.924 324.094 156.299 324.136L156.351 323.75L156.739 324.216C157.511 324.421 158.223 324.85 158.79 325.452L158.651 324.841C158.232 324.361 157.707 323.995 157.128 323.778C156.549 323.561 155.934 323.501 155.344 323.604C154.073 323.86 152.951 324.571 152.166 325.619C152.162 325.619 152.161 325.628 152.161 325.628C151.998 325.855 151.837 326.09 151.688 326.318C151.43 326.741 151.22 327.196 151.063 327.675Z" fill="#8ECEDD"/>
<path d="M160.671 327.487L160.907 327.01C160.907 327.01 158.921 322.068 155.18 322.787C150.118 323.76 149.261 330.935 149.261 330.935L149.756 331.179C149.756 331.179 150.973 323.967 155.28 323.381C158.83 322.898 160.671 327.487 160.671 327.487Z" fill="#02896F"/>
<path d="M137.985 314.699C138.319 313.4 138.887 312.191 139.661 311.134C140.958 309.353 141.764 309.022 141.764 309.022L139.545 309.423L140.056 308.443C140.056 308.443 138.07 308.942 137.292 310.617C136.515 312.292 137.108 314.501 137.108 314.501L137.565 313.479L137.985 314.699Z" fill="#590800"/>
<path d="M123.677 311.65C123.702 311.725 123.727 311.801 123.752 311.88C124.135 313.032 124.664 314.133 125.324 315.154C125.56 315.522 125.814 315.877 126.085 316.219C126.709 317.008 127.406 317.733 128.164 318.383C129.692 319.69 131.404 320.734 133.231 321.473C134.732 320.154 135.691 318.284 135.929 316.212C136.064 314.871 135.747 313.497 135.033 312.32C135.022 312.303 135.016 312.297 135.016 312.297C134.899 312.243 134.784 312.185 134.67 312.131C134.226 311.917 133.798 311.701 133.387 311.487C132.92 311.245 132.474 311.005 132.05 310.765C130.91 310.128 129.799 309.429 128.724 308.672C128.314 308.381 127.938 308.1 127.594 307.831C124.804 305.659 124.046 304.281 123.636 304.718C123.241 305.136 122.789 307.075 123.192 309.621C123.304 310.307 123.466 310.985 123.677 311.65Z" fill="#FF9E12"/>
<path d="M133.988 326.374C133.988 326.374 125.816 324.571 124.975 323.836C124.133 323.1 123.608 321.678 122.906 320.53C122.209 319.389 122.532 318.627 122.356 318.478C122.039 318.207 121.638 318.721 121.654 319.584C121.685 320.159 121.849 320.727 122.132 321.238C122.132 321.238 118.012 319.553 117.677 319.881C117.341 320.21 120.217 321.869 120.217 321.869C120.217 321.869 116.498 321.43 116.303 321.876C116.108 322.322 119.566 323.122 119.566 323.122C119.566 323.122 116.446 323.546 116.214 323.879C115.983 324.212 119.478 324.392 119.478 324.392C119.478 324.392 117.588 325.137 117.812 325.515C117.934 325.72 120.429 325.23 120.791 325.209C121.153 325.187 124.239 325.016 124.239 325.016L133.953 332.184C133.953 332.184 135.254 331.544 135.329 329.363C135.401 327.17 133.988 326.374 133.988 326.374Z" fill="url(#paint11_linear_199_1577)"/>
<path d="M145.192 353.339C145.192 353.339 146.254 347.981 147.763 346.551C148.839 345.535 163.441 341.206 165.571 341.416C167.542 341.614 171.212 343.29 171.212 343.29C172.054 343.183 172.872 342.961 173.647 342.632C174.405 342.312 175.097 341.857 175.694 341.286C175.694 341.286 174.276 333.928 172.757 328.497C171.237 323.066 159.577 308.614 155.804 306.476C154.49 305.771 153.13 305.172 151.737 304.685L148.928 304.503L149.847 309.622C149.847 309.622 153.942 308.08 156.646 308.817C159.349 309.553 165.108 317.111 167.281 325.785C169.455 334.459 166.724 337.657 159.911 340.046C153.098 342.436 148.372 343.977 146.582 345.912C144.793 347.848 145.192 353.339 145.192 353.339Z" fill="#02896F"/>
<path d="M149.597 305.568C149.597 305.568 151.278 305.835 152.901 306.218C153.881 306.474 154.846 306.807 155.785 307.214L154.919 306.315L155.743 306.319C155.086 305.453 154.193 304.81 153.193 304.482C151.822 304.11 150.403 304.08 149.056 304.394L150.419 304.998L149.597 305.568Z" fill="#590800"/>
<path d="M137.352 307.214C139.562 306.466 141.957 306.349 144.294 306.874C146.526 307.371 148.597 308.555 150.232 310.267C150.232 310.267 151.565 304.994 148.614 302.104C148.206 301.68 147.711 301.358 147.171 301.166C146.631 300.973 146.062 300.915 145.511 300.997L148.118 299.514C146.317 298.916 144.407 298.993 142.728 299.73C141.051 300.492 140.731 301.289 140.731 301.289L141.48 298.314C141.48 298.314 137.485 299.418 136.505 302.194C135.801 304.192 137.352 307.214 137.352 307.214Z" fill="#443551"/>
<path opacity="0.72" d="M137.831 305.913C137.831 305.913 138.727 303.249 142.092 302.225C145.501 301.188 147.495 302.45 147.495 302.45L144.94 302.674C146.031 302.779 147.067 303.308 147.84 304.155C148.639 305.021 149.178 306.106 149.384 307.265C149.384 307.265 147.016 304.819 143.85 304.796C141.986 304.769 140.175 305.246 138.592 306.18L138.91 305.049L137.831 305.913Z" fill="#725F82"/>
<path opacity="0.43" d="M133.872 334.461C133.871 334.398 133.892 334.338 133.93 334.292C133.967 334.246 134.02 334.217 134.077 334.212C134.135 334.206 134.193 334.223 134.242 334.261C134.291 334.298 134.327 334.353 134.344 334.415C134.777 336.085 135.469 338.864 136.164 342.169C136.78 345.095 137.321 347.913 137.688 349.891C137.701 349.956 137.691 350.023 137.66 350.078C137.629 350.133 137.58 350.172 137.522 350.187C137.464 350.202 137.402 350.193 137.347 350.16C137.293 350.128 137.251 350.074 137.229 350.011C136.493 347.926 135.494 344.963 134.823 342.44C134.196 339.817 133.876 337.135 133.872 334.461Z" fill="white"/>
<path d="M161.057 332.808C161.057 332.808 158.647 332.547 155.721 334.257C152.794 335.967 152.304 337.164 152.304 337.164L161.057 332.808Z" fill="#02896F"/>
<path d="M125.981 316.216C126.614 317.015 127.321 317.749 128.091 318.406C128.595 318.169 129.74 317.485 131.243 315.642C133.293 313.129 133.393 311.425 133.393 311.425C132.919 311.18 132.466 310.936 132.036 310.694C131.471 312.059 130.649 313.282 129.615 314.293C128.575 315.219 127.332 315.876 125.981 316.216Z" fill="#F93D31"/>
<path d="M123.606 311.825C124.569 311.767 125.498 311.5 126.335 311.043C127.327 310.524 128.162 309.745 128.764 308.778C128.345 308.48 127.961 308.192 127.61 307.917C127.009 308.42 126.339 308.829 125.62 309.134C124.839 309.508 123.987 309.717 123.112 309.749C123.226 310.45 123.391 311.144 123.606 311.825Z" fill="#F93D31"/>
<path opacity="0.13" d="M123.595 311.788C123.983 312.949 124.518 314.06 125.186 315.089C128.091 319.606 133.185 321.46 133.185 321.46C134.703 320.13 135.673 318.245 135.914 316.156C136.05 314.804 135.73 313.418 135.007 312.232L134.641 312.041C134.641 312.041 130.586 313.985 127.086 313.285C125.842 313.064 124.648 312.552 123.595 311.788Z" fill="#590800"/>
<path opacity="0.67" d="M133.375 312.983C133.434 313 133.496 312.993 133.549 312.964C133.601 312.936 133.64 312.887 133.659 312.828C133.677 312.769 133.674 312.704 133.649 312.646C133.623 312.587 133.579 312.539 133.523 312.51C132.089 311.772 130.703 310.931 129.374 309.994C128.074 309.058 126.947 308.134 126.127 307.427C126.079 307.385 126.018 307.363 125.958 307.364C125.897 307.365 125.84 307.389 125.798 307.433C125.756 307.476 125.732 307.535 125.73 307.598C125.729 307.661 125.75 307.724 125.79 307.774C126.76 309.009 127.891 310.101 129.147 311.014C130.44 311.932 131.874 312.6 133.375 312.983Z" fill="white"/>
<path opacity="0.67" d="M162.018 298.287C162.028 298.223 162.015 298.155 161.98 298.097C161.946 298.039 161.893 297.995 161.832 297.973C161.771 297.951 161.705 297.952 161.647 297.977C161.589 298.002 161.543 298.048 161.518 298.107C161.037 299.29 160.473 300.43 159.83 301.52C159.206 302.549 158.519 303.533 157.773 304.466C157.732 304.517 157.712 304.582 157.715 304.649C157.719 304.717 157.747 304.782 157.794 304.832C157.84 304.882 157.902 304.913 157.967 304.919C158.032 304.926 158.096 304.907 158.146 304.866C159.008 304.156 159.777 303.333 160.434 302.416C161.253 301.193 161.793 299.784 162.018 298.287Z" fill="white"/>
<path d="M73.1718 303.677C73.1718 303.677 90.8257 315.487 91.8398 316.059C92.8612 316.632 94.7447 315.964 95.8748 315.098C97.0049 314.24 97.6496 313.408 97.9973 313.681C98.345 313.954 97.4685 314.962 96.476 315.759C95.4836 316.557 94.5419 316.652 94.5419 316.652C94.5419 316.652 95.6502 316.816 96.7875 316.196C98.2001 315.419 99.1853 313.865 99.5041 313.865C99.8228 313.865 99.3809 315.555 97.8597 316.788C96.7586 317.688 95.8458 317.899 95.8458 317.899C95.8458 317.899 96.8745 318.104 98.0697 317.409C99.265 316.707 99.7866 315.685 100.359 315.685C100.931 315.685 99.7431 317.518 98.3305 318.349C97.0701 319.099 94.8316 319.051 94.8316 319.051C94.8316 319.051 96.0631 319.473 96.6571 319.91C97.2512 320.346 97.0266 321.245 97.0266 321.245C97.0266 321.245 95.8965 320.53 94.5998 320.284C93.2959 320.039 91.6008 317.511 91.2313 317.225C90.8691 316.938 79.1917 311.896 79.1917 311.896C79.1917 311.896 73.0342 304.577 73.1573 303.671L73.1718 303.677Z" fill="#68004D"/>
<path d="M67.3402 303.997C67.3402 303.997 49.6864 315.807 48.6722 316.379C47.6508 316.952 45.7674 316.284 44.6373 315.419C43.5072 314.56 42.9422 313.817 42.5872 314.09C42.2395 314.362 43.0436 315.289 44.0288 316.08C45.014 316.87 45.963 316.972 45.963 316.972C45.963 316.972 44.8546 317.136 43.7173 316.516C42.3047 315.739 41.3195 314.185 41.0008 314.185C40.682 314.185 41.1239 315.875 42.6452 317.109C43.7463 318.008 44.659 318.219 44.659 318.219C44.659 318.219 43.6304 318.424 42.4351 317.729C41.2398 317.027 40.7182 316.005 40.146 316.005C39.5737 316.005 40.7907 317.681 41.9497 318.56C43.2392 319.541 45.8688 319.405 45.8688 319.405C45.8688 319.405 44.4417 319.793 43.8477 320.236C43.2537 320.673 43.4782 321.572 43.4782 321.572C43.4782 321.572 44.6083 320.857 45.905 320.611C47.2089 320.366 48.9041 317.838 49.2735 317.552C49.6357 317.265 61.3132 312.223 61.3132 312.223C61.3132 312.223 67.4706 304.904 67.3475 303.997H67.3402Z" fill="#68004D"/>
<path d="M40.6023 271.867C40.6168 271.962 40.6313 272.051 40.6458 272.146C40.8704 273.455 41.2978 274.831 41.9859 276.249C42.2178 276.726 42.4713 277.182 42.7538 277.618C43.4275 278.695 44.2099 279.649 45.014 280.487C47.8392 283.411 51.0048 284.896 51.0048 284.896C51.0048 284.896 54.4675 283.104 55.7352 279.077C56.5031 276.658 55.5541 274.613 55.4237 274.341C55.4092 274.32 55.4092 274.313 55.4092 274.313C55.2643 274.232 55.1267 274.15 54.9891 274.068C54.4458 273.748 53.9314 273.428 53.4388 273.114C52.8738 272.76 52.345 272.405 51.8379 272.065C50.2804 271.002 48.991 270.007 47.9188 269.1C47.4407 268.698 47.0133 268.31 46.6149 267.935C43.4203 264.95 42.7321 263.213 42.0874 263.669C41.4716 264.105 40.443 266.327 40.4067 269.4C40.4067 270.177 40.4574 271.002 40.5878 271.867H40.6023Z" fill="#FF7F00"/>
<path d="M42.7611 277.625C43.4348 278.702 44.2172 279.656 45.0213 280.494C45.7312 280.29 47.3684 279.663 49.7227 277.727C52.9391 275.09 53.4462 273.121 53.4462 273.121C52.8811 272.766 52.3523 272.412 51.8452 272.071C51.2874 272.876 49.9255 274.654 47.9044 275.922C46.0065 277.121 43.855 277.509 42.7539 277.632L42.7611 277.625Z" fill="#FFF594"/>
<path d="M40.6022 271.867C41.4933 271.928 42.7827 271.867 44.2967 271.363C46.1512 270.743 47.3175 269.748 47.926 269.1C47.4479 268.698 47.0205 268.31 46.6221 267.935C46.0353 268.276 45.137 268.691 43.7896 269.053C42.3553 269.441 41.2252 269.482 40.4211 269.4C40.4211 270.177 40.4719 271.002 40.6022 271.867Z" fill="#FFF594"/>
<path opacity="0.13" d="M40.6531 272.153C40.8776 273.462 41.305 274.838 41.9932 276.256C44.7822 281.98 51.0121 284.896 51.0121 284.896C51.0121 284.896 54.4748 283.104 55.7425 279.077C56.5104 276.658 55.5614 274.613 55.431 274.341L54.9964 274.061C54.9964 274.061 49.2808 275.745 44.8691 274.409C42.848 273.796 41.5006 272.917 40.6531 272.14V272.153Z" fill="#590800"/>
<path opacity="0.67" d="M52.9607 274.811C53.3156 274.94 53.5764 274.477 53.2577 274.279C51.8958 273.414 50.0558 272.146 48.3969 270.715C46.9046 269.427 45.6441 268.173 44.7241 267.226C44.4634 266.954 44.0142 267.267 44.2098 267.587C44.9415 268.773 46.1005 270.327 47.8753 271.881C49.5487 273.352 51.4901 274.272 52.9607 274.811Z" fill="white"/>
<path d="M90.6083 346.861L88.5582 348.305C88.5582 348.305 85.5737 342.684 83.7771 341.886C82.7992 341.45 76.2433 341.416 70.1221 341.648C65.015 341.839 60.2122 342.213 59.198 342.69C56.9885 343.733 55.8729 347.754 55.8729 347.754H53.7359C53.7359 347.754 50.353 337.988 49.3315 324.387C48.8462 317.913 48.6723 307.964 48.7013 299.071C48.723 289.299 48.9911 280.774 49.3315 279.506C49.9111 277.353 64.0805 269.414 70.6219 267.717C71.3898 267.513 72.0562 267.397 72.5778 267.39C77.5472 267.308 87.0225 275.015 88.551 277.346C90.094 279.677 90.0071 327.678 90.6011 334.506C91.2023 341.334 90.6011 346.868 90.6011 346.868L90.6083 346.861Z" fill="url(#paint12_linear_199_1577)"/>
<path d="M55.3441 327.582C55.7208 330.049 55.1703 332.162 54.1199 332.305C53.0695 332.448 51.9177 330.56 51.541 328.093C51.1643 325.627 51.7149 323.514 52.7652 323.371C53.8156 323.228 54.9674 325.116 55.3441 327.582Z" fill="#68004D"/>
<path d="M55.7643 327.528C56.141 329.995 55.5904 332.107 54.5401 332.25C53.4897 332.394 52.3379 330.506 51.9612 328.039C51.5845 325.572 52.135 323.46 53.1854 323.317C54.2358 323.173 55.3876 325.061 55.7643 327.528Z" fill="#FF7F00"/>
<path d="M52.2362 318.035C52.4029 319.112 52.1421 320.039 51.664 320.1C51.1858 320.161 50.6643 319.344 50.4977 318.267C50.331 317.19 50.5918 316.264 51.0699 316.202C51.5481 316.141 52.0696 316.959 52.2362 318.035Z" fill="#68004D"/>
<path d="M52.4318 318.008C52.5984 319.085 52.3376 320.012 51.8595 320.073C51.3814 320.134 50.8598 319.316 50.6932 318.24C50.5266 317.163 50.7874 316.236 51.2655 316.175C51.7436 316.114 52.2652 316.931 52.4318 318.008Z" fill="#FF7F00"/>
<path d="M55.0544 314.607C55.221 315.684 54.9602 316.611 54.4821 316.672C54.004 316.734 53.4824 315.916 53.3158 314.839C53.1492 313.762 53.4099 312.836 53.8881 312.774C54.3662 312.713 54.8877 313.531 55.0544 314.607Z" fill="#68004D"/>
<path d="M55.2499 314.58C55.4165 315.657 55.1557 316.584 54.6776 316.645C54.1995 316.707 53.6779 315.889 53.5113 314.812C53.3447 313.735 53.6055 312.809 54.0836 312.747C54.5617 312.686 55.0833 313.504 55.2499 314.58Z" fill="#FF7F00"/>
<path d="M52.0697 301.653C52.2146 302.628 51.99 303.466 51.5554 303.527C51.1207 303.589 50.6499 302.839 50.4978 301.865C50.3529 300.89 50.5774 300.052 51.0121 299.991C51.4467 299.929 51.9176 300.679 52.0697 301.653Z" fill="#68004D"/>
<path d="M52.2437 301.626C52.3886 302.6 52.164 303.439 51.7294 303.5C51.2947 303.561 50.8239 302.812 50.6717 301.837C50.5196 300.863 50.7514 300.025 51.1861 299.963C51.6207 299.902 52.0916 300.651 52.2437 301.626Z" fill="#FF7F00"/>
<path d="M51.4611 306.307C51.5336 306.784 51.4177 307.193 51.2076 307.221C50.9975 307.248 50.7657 306.887 50.6933 306.41C50.6208 305.933 50.7367 305.524 50.9468 305.496C51.1569 305.469 51.3887 305.83 51.4611 306.307Z" fill="#68004D"/>
<path d="M51.5407 306.294C51.6132 306.771 51.4972 307.18 51.2872 307.207C51.0771 307.234 50.8453 306.873 50.7728 306.396C50.7004 305.919 50.8163 305.51 51.0264 305.483C51.2365 305.456 51.4683 305.817 51.5407 306.294Z" fill="#FF7F00"/>
<path d="M55.7497 321.013C55.8801 321.865 55.6773 322.594 55.3006 322.642C54.9239 322.69 54.511 322.042 54.3806 321.197C54.2502 320.346 54.4531 319.616 54.8298 319.569C55.2064 319.521 55.6194 320.168 55.7497 321.013Z" fill="#68004D"/>
<path d="M55.9018 320.993C56.0322 321.845 55.8294 322.574 55.4527 322.622C55.076 322.669 54.6631 322.022 54.5327 321.177C54.4023 320.325 54.6052 319.596 54.9819 319.548C55.3585 319.501 55.7715 320.148 55.9018 320.993Z" fill="#FF7F00"/>
<path d="M73.8888 301.169C78.9898 301.169 83.125 295.803 83.125 289.183C83.125 282.563 78.9898 277.196 73.8888 277.196C68.7878 277.196 64.6526 282.563 64.6526 289.183C64.6526 295.803 68.7878 301.169 73.8888 301.169Z" fill="#68004D"/>
<path d="M63.6531 290.198C64.1964 296.801 61.4581 302.383 57.5391 302.669C53.62 302.955 49.998 297.837 49.4547 291.234C48.9114 284.631 51.6496 279.05 55.5687 278.763C59.4877 278.477 63.1098 283.595 63.6531 290.198Z" fill="#68004D"/>
<path d="M65.8625 289.789C66.2319 295.629 69.8467 300.038 73.9324 299.643C78.0181 299.248 81.0244 294.191 80.6549 288.351C80.2855 282.511 76.6707 278.102 72.585 278.498C68.4993 278.893 65.4931 283.949 65.8625 289.789Z" fill="#CAE7EF"/>
<path d="M73.2079 299.201C77.1113 299.103 80.1473 294.504 79.9889 288.928C79.8306 283.352 76.538 278.912 72.6346 279.01C68.7312 279.108 65.6952 283.708 65.8535 289.283C66.0119 294.859 69.3045 299.299 73.2079 299.201Z" fill="white"/>
<path d="M68.9267 289.53C69.1585 293.196 71.4259 295.97 73.9976 295.718C76.5692 295.466 78.4527 292.29 78.2209 288.624C77.989 284.958 75.7217 282.184 73.15 282.436C70.5856 282.688 68.6949 285.864 68.9267 289.53Z" fill="url(#paint13_linear_199_1577)"/>
<path d="M70.2524 289.476C70.419 292.099 72.0417 294.082 73.8744 293.905C75.7072 293.728 77.0618 291.452 76.8952 288.828C76.7286 286.205 75.1059 284.222 73.2732 284.399C71.4404 284.576 70.0858 286.852 70.2524 289.476Z" fill="#590800"/>
<path d="M74.4974 287.363C74.5916 288.883 75.8521 290.007 77.3009 289.864C78.7497 289.721 79.8508 288.372 79.7494 286.852C79.648 285.332 78.3948 284.208 76.9459 284.351C75.4971 284.494 74.396 285.844 74.4974 287.363Z" fill="white"/>
<path d="M72.9327 290.464C72.9689 291.023 73.4253 291.431 73.9541 291.377C74.4829 291.322 74.8886 290.832 74.8524 290.273C74.8161 289.714 74.3598 289.305 73.8309 289.36C73.3021 289.414 72.8964 289.905 72.9327 290.464Z" fill="white"/>
<path d="M51.3236 292.447C52.2943 297.885 55.7136 301.619 58.9589 300.781C62.2043 299.943 64.0442 294.852 63.0735 289.414C62.1028 283.976 58.6836 280.242 55.4383 281.08C52.1929 281.918 50.3529 287.009 51.3236 292.447Z" fill="#CAE7EF"/>
<path d="M51.3237 292.447C52.2509 297.626 55.5035 301.183 58.5968 300.386C61.69 299.589 63.443 294.737 62.5158 289.558C61.5886 284.372 58.336 280.821 55.2427 281.619C52.1495 282.416 50.3965 287.268 51.3237 292.447Z" fill="white"/>
<path d="M59.6936 297.022C61.7755 296.791 63.1125 293.807 62.6797 290.357C62.247 286.907 60.2084 284.298 58.1264 284.529C56.0445 284.76 54.7075 287.744 55.1403 291.194C55.573 294.644 57.6116 297.253 59.6936 297.022Z" fill="url(#paint14_linear_199_1577)"/>
<path d="M56.2858 291.527C56.7204 293.973 58.2562 295.65 59.7122 295.268C61.1683 294.893 61.9941 292.604 61.5595 290.157C61.1248 287.711 59.5891 286.034 58.133 286.416C56.677 286.798 55.8511 289.081 56.2858 291.527Z" fill="#590800"/>
<path d="M58.2272 289.864C58.4808 291.282 59.6181 292.188 60.7699 291.895C61.9217 291.595 62.6534 290.205 62.3998 288.788C62.1463 287.37 61.0089 286.464 59.8571 286.757C58.7053 287.057 57.9737 288.447 58.2272 289.864Z" fill="white"/>
<path d="M57.126 292.563C57.2202 293.081 57.6331 293.415 58.0533 293.305C58.4734 293.196 58.7415 292.685 58.6473 292.167C58.5531 291.65 58.1402 291.316 57.72 291.425C57.2999 291.534 57.0319 292.045 57.126 292.563Z" fill="white"/>
<path d="M90.6082 346.861L88.5581 348.306C88.5581 348.306 85.5735 342.684 83.777 341.886C81.9877 341.082 61.4218 341.648 59.1978 342.69C56.9884 343.733 55.8728 347.754 55.8728 347.754C55.8728 347.754 56.5537 342.125 58.2633 340.769C59.9729 339.413 79.177 338.683 81.908 334.99C84.639 331.296 87.3701 299.023 85.4069 287.118C83.4438 275.213 70.629 267.724 70.629 267.724C71.3969 267.519 72.0633 267.404 72.5849 267.397C77.5543 267.315 87.0296 275.022 88.5581 277.353C90.1011 279.683 90.0142 327.685 90.6082 334.513C91.2094 341.341 90.6082 346.874 90.6082 346.874V346.861Z" fill="#68004D"/>
<path d="M99.6561 271.281C99.6416 271.376 99.6271 271.465 99.6126 271.56C99.3881 272.862 98.9607 274.245 98.2725 275.663C98.0407 276.14 97.7871 276.596 97.5046 277.032C96.8309 278.109 96.0485 279.063 95.2444 279.901C92.4193 282.825 89.2536 284.31 89.2536 284.31C89.2536 284.31 85.7909 282.518 84.5232 278.491C83.7553 276.072 84.7043 274.027 84.8347 273.755C84.8419 273.734 84.8492 273.727 84.8492 273.727C84.9941 273.646 85.1317 273.564 85.2694 273.482C85.8127 273.162 86.327 272.841 86.8196 272.528C87.3846 272.174 87.9134 271.819 88.4205 271.479C89.978 270.416 91.2674 269.421 92.3396 268.514C92.8177 268.112 93.2451 267.724 93.6435 267.349C96.8381 264.364 97.5263 262.627 98.1711 263.083C98.7868 263.519 99.8155 265.741 99.8517 268.814C99.8517 269.591 99.801 270.416 99.6706 271.281H99.6561Z" fill="#FF7F00"/>
<path d="M97.4973 277.039C96.8236 278.116 96.0412 279.07 95.2371 279.908C94.5272 279.704 92.89 279.077 90.5357 277.141C87.3193 274.504 86.8123 272.535 86.8123 272.535C87.3773 272.18 87.9061 271.826 88.4132 271.485C88.971 272.289 90.3329 274.068 92.354 275.336C94.2519 276.535 96.4034 276.923 97.5045 277.046L97.4973 277.039Z" fill="#FFF594"/>
<path d="M99.656 271.281C98.765 271.342 97.4756 271.281 95.9616 270.777C94.1071 270.157 92.9408 269.162 92.3323 268.514C92.8104 268.112 93.2378 267.724 93.6362 267.349C94.223 267.69 95.1212 268.105 96.4686 268.467C97.903 268.855 99.033 268.896 99.8371 268.814C99.8371 269.591 99.7864 270.416 99.656 271.281Z" fill="#FFF594"/>
<path opacity="0.13" d="M99.6053 271.56C99.3807 272.862 98.9533 274.245 98.2651 275.663C95.4762 281.387 89.2463 284.31 89.2463 284.31C89.2463 284.31 85.7836 282.518 84.5159 278.491C83.748 276.072 84.697 274.027 84.8274 273.755L85.262 273.475C85.262 273.475 90.9776 275.158 95.3892 273.823C97.4103 273.21 98.7577 272.33 99.6053 271.554V271.56Z" fill="#590800"/>
<path opacity="0.67" d="M87.2976 274.225C86.9426 274.354 86.6818 273.891 87.0006 273.693C88.3625 272.828 90.2024 271.56 91.8613 270.129C93.3536 268.842 94.6141 267.588 95.5341 266.64C95.7949 266.368 96.244 266.681 96.0484 267.002C95.3168 268.187 94.1577 269.741 92.3829 271.295C90.7095 272.767 88.7681 273.687 87.2976 274.225Z" fill="white"/>
<path d="M69.3975 268.078C69.3975 268.078 62.2476 259.894 63.1603 259.199C64.0731 258.504 70.4986 266.906 70.4986 266.906C70.4986 266.906 67.1446 254.919 68.6803 254.326C70.2161 253.74 72.9471 266.538 72.9471 266.538C72.9471 266.538 74.4249 254.326 77.6123 254.006C80.7997 253.686 74.8233 265.891 74.8233 265.891C74.8233 265.891 80.2854 262.838 81.879 263.642C83.4727 264.446 75.7795 268.078 75.7795 268.078H69.3975Z" fill="#3F0300"/>
<path d="M81.0608 325.109C80.8217 326.683 81.1694 328.039 81.8431 328.128C82.5168 328.216 83.2557 327.01 83.4948 325.436C83.7338 323.862 83.3861 322.506 82.7124 322.417C82.0387 322.328 81.2998 323.535 81.0608 325.109Z" fill="#68004D"/>
<path d="M80.7854 325.068C80.5463 326.642 80.894 327.998 81.5677 328.087C82.2414 328.175 82.9803 326.969 83.2194 325.395C83.4584 323.821 83.1107 322.465 82.437 322.376C81.7633 322.288 81.0244 323.494 80.7854 325.068Z" fill="#FF7F00"/>
<path d="M78.9018 320.414C78.7786 321.211 78.9597 321.886 79.293 321.933C79.6334 321.981 80.0029 321.375 80.126 320.577C80.2492 319.78 80.0681 319.105 79.7349 319.058C79.3944 319.01 79.0249 319.616 78.9018 320.414Z" fill="#68004D"/>
<path d="M78.7641 320.393C78.6409 321.191 78.822 321.865 79.1553 321.913C79.4957 321.961 79.8652 321.354 79.9883 320.557C80.1115 319.76 79.9304 319.085 79.5972 319.037C79.2567 318.989 78.8872 319.596 78.7641 320.393Z" fill="#FF7F00"/>
<path d="M81.669 317.667C81.5749 319.214 82.0312 320.495 82.6905 320.536C83.3497 320.57 83.9582 319.344 84.0523 317.797C84.1465 316.25 83.6901 314.969 83.0309 314.928C82.3717 314.894 81.7632 316.12 81.669 317.667Z" fill="#68004D"/>
<path d="M81.401 317.654C81.3068 319.201 81.7632 320.482 82.4224 320.523C83.0816 320.557 83.6901 319.33 83.7843 317.783C83.8785 316.236 83.4221 314.955 82.7629 314.914C82.1037 314.88 81.4952 316.107 81.401 317.654Z" fill="#FF7F00"/>
<path d="M83.1831 309.204C83.1396 309.967 83.3642 310.601 83.6902 310.621C84.0162 310.642 84.3132 310.035 84.3639 309.272C84.4074 308.509 84.1828 307.875 83.8568 307.854C83.5308 307.834 83.2338 308.44 83.1831 309.204Z" fill="#68004D"/>
<path d="M83.0454 309.197C83.002 309.96 83.2265 310.594 83.5525 310.614C83.8785 310.635 84.1755 310.028 84.2262 309.265C84.2697 308.502 84.0451 307.868 83.7191 307.848C83.3931 307.827 83.0961 308.434 83.0454 309.197Z" fill="#FF7F00"/>
<path d="M83.6467 300.345C83.6033 301.108 83.8278 301.742 84.1538 301.762C84.4798 301.783 84.7768 301.176 84.8275 300.413C84.871 299.65 84.6464 299.016 84.3204 298.996C83.9945 298.975 83.6974 299.582 83.6467 300.345Z" fill="#68004D"/>
<path d="M83.5164 300.338C83.4729 301.101 83.6975 301.735 84.0235 301.755C84.3494 301.776 84.6464 301.169 84.6972 300.406C84.7406 299.643 84.516 299.009 84.1901 298.989C83.8641 298.968 83.5671 299.575 83.5164 300.338Z" fill="#FF7F00"/>
<path d="M81.1835 300.215C81.1473 300.795 81.3211 301.279 81.5674 301.292C81.8137 301.306 82.0455 300.842 82.0818 300.263C82.118 299.684 81.9441 299.2 81.6978 299.186C81.4515 299.173 81.2197 299.636 81.1835 300.215Z" fill="#68004D"/>
<path d="M81.0822 300.209C81.0459 300.788 81.2198 301.272 81.4661 301.285C81.7124 301.299 81.9442 300.836 81.9804 300.256C82.0167 299.677 81.8428 299.193 81.5965 299.18C81.3502 299.166 81.1184 299.629 81.0822 300.209Z" fill="#FF7F00"/>
<path d="M83.27 278.947C83.27 278.947 80.5607 277.264 77.7355 276.801C74.9175 276.337 70.6725 276.078 70.6725 276.078L72.1937 275.424C72.1937 275.424 71.6215 275.254 70.8971 274.484C70.332 273.884 69.4482 271.901 69.4482 271.901C69.4482 271.901 72.4835 272.29 75.91 272.794C80.6766 273.496 83.0019 276.153 83.0019 276.153L82.0312 276.106C82.0312 276.106 83.1396 277.864 83.27 278.947Z" fill="#3F0300"/>
<path opacity="0.61" d="M81.6546 275.424C81.6546 275.424 80.2782 274.123 77.5037 273.387C74.7293 272.657 71.8606 272.617 71.8606 272.617L73.6861 273.325L70.8899 272.855C70.8899 272.855 71.8896 274.054 75.1494 274.279C79.5031 274.579 81.459 276.371 81.459 276.371L80.7781 275.186L81.6618 275.417L81.6546 275.424Z" fill="#8C130D"/>
<path d="M52.1639 278.947C52.1639 278.947 54.0546 277.598 55.967 277.108C58.5822 276.433 60.8278 276.487 60.8278 276.487L59.7847 275.922C59.7847 275.922 60.1831 275.772 60.6757 275.118C61.0596 274.607 61.6681 272.903 61.6681 272.903C61.6681 272.903 60.8278 272.903 57.2203 273.666C53.3157 274.498 52.3378 276.549 52.3378 276.549L53.0042 276.508C53.0042 276.508 52.2436 278.021 52.1494 278.947H52.1639Z" fill="#3F0300"/>
<path opacity="0.61" d="M53.2795 276.051C53.2795 276.051 54.2285 274.934 56.1337 274.307C58.0389 273.68 60.3425 273.489 60.3425 273.489L58.7633 274.252L60.6902 273.85C60.6902 273.85 59.6978 274.586 57.7564 275.07C55.8222 275.554 53.4172 276.869 53.4172 276.869L53.888 275.854L53.2795 276.058V276.051Z" fill="#8C130D"/>
<path opacity="0.24" d="M56.9233 304.291C56.9233 304.291 59.2052 310.294 64.0515 311.541C68.8978 312.788 72.7009 309.592 72.7009 309.592C72.7009 309.592 67.6953 312.257 63.4937 310.471C59.3501 308.713 56.9306 304.284 56.9306 304.284L56.9233 304.291Z" fill="white"/>
<path d="M80.8866 302.948L79.4378 307.064L80.3868 310.335L75.9968 310.062L76.3591 311.098C76.3591 311.098 73.7802 313.184 70.0929 314.09C66.4347 314.983 62.3707 314.349 62.3707 314.349L58.4807 310.485L54.5254 308.516L55.2498 303.105C55.2498 303.105 58.966 313.463 66.2173 313.006C74.8161 312.468 80.8866 302.955 80.8866 302.955V302.948Z" fill="#68004D"/>
<path d="M55.9598 305.422L54.2864 309.027L57.5535 308.168L55.9598 305.422Z" fill="white"/>
<path d="M58.6473 309.415L57.5535 311.541L59.9295 311.016L58.6473 309.415Z" fill="white"/>
<path d="M62.3201 312.461V314.914L64.6527 313.306L62.3201 312.461Z" fill="white"/>
<path d="M67.9487 313.143L70.6797 314.71L71.0275 312.461L67.9487 313.143Z" fill="white"/>
<path d="M76.3591 308.291L80.3796 310.335L78.9598 305.422L76.3591 308.291Z" fill="white"/>
<path d="M73.2876 310.819L76.3591 311.098L75.6347 309.027L73.2876 310.819Z" fill="white"/>
<path d="M55.5033 302.975C55.5033 302.975 58.8356 312.822 66.3477 312.666C73.8598 312.502 80.7996 302.71 80.7996 302.71L81.0821 302.778C81.0821 302.778 74.7074 313.872 66.3767 313.872C58.046 313.872 55.2498 303.35 55.2498 303.35L55.5033 302.982V302.975Z" fill="#590800"/>
<path d="M77.7211 301.394C77.7211 301.394 79.2569 301.906 80.8795 303.241C82.5022 304.577 83.0383 305.837 83.0383 305.837C83.0383 305.837 82.6471 303.48 81.278 302.171C79.9088 300.863 77.7139 301.394 77.7139 301.394H77.7211Z" fill="#68004D"/>
<path d="M57.3578 301.749C57.3578 301.749 56.0973 302.744 55.2498 303.65C54.4022 304.556 53.6923 306.832 53.6923 306.832C53.6923 306.832 53.4387 304.747 54.3298 303.357C55.3439 301.783 57.365 301.749 57.365 301.749H57.3578Z" fill="#68004D"/>
<path d="M1.67497 332.291L-6.50334 333.7C-6.50334 333.7 -15.8082 304.093 -16.6546 290.842C-16.6578 290.795 -16.6609 290.748 -16.6641 290.704V290.7C-17.1298 282.173 -8.72177 303.791 -3.13321 318.955C-0.389277 326.4 1.67497 332.291 1.67497 332.291Z" fill="url(#paint15_linear_199_1577)"/>
<g style="mix-blend-mode:multiply" opacity="0.46">
<path d="M1.67497 332.291L-6.50333 333.7C-6.50333 333.7 -15.8082 304.093 -16.6546 290.842C-16.6578 290.795 -16.6609 290.748 -16.6641 290.704C-14.839 298.199 -11.1007 312.907 -8.17109 320.276C-6.04076 325.638 -4.30063 322.813 -3.1332 318.955C-0.389267 326.4 1.67497 332.291 1.67497 332.291Z" fill="#4194F2"/>
</g>
<path d="M26.27 250.888C26.27 250.888 25.2536 260.055 24.2341 260.87C23.2146 261.685 20.1623 270.442 20.1623 270.442C20.1623 270.442 18.9382 279.199 18.1232 281.641C17.6008 283.211 15.1464 288.636 13.4598 292.324C13.4598 292.356 13.4598 292.384 13.4629 292.415C13.4661 292.51 13.4661 292.604 13.4692 292.702C13.7681 306.689 14.6901 344.481 14.6901 344.481L4.13291 344.616L0.476429 344.663L-6.35508 344.748L-2.48463 280.537C-2.48463 280.537 -5.92083 273.925 -6.44948 272.607C-6.97813 271.285 -8.56093 260.977 -8.56093 259.394C-8.56093 258.585 -10.622 255.099 -12.6422 251.873C-14.5806 248.774 -16.4875 245.916 -16.4875 245.916L-21.7771 239.84L-26 230.063L-25.6224 229.607L-24.6847 228.477L-19.9237 236.665C-19.9237 236.665 -8.8284 248.824 -7.50363 249.881C-6.18831 250.939 -3.28074 260.715 -3.01327 261.773C-2.78986 262.682 0.769075 270.247 1.75714 272.336C1.91763 272.673 2.00887 272.868 2.00887 272.868L2.02776 272.437L3.3242 241.955V215.79L4.60177 215.551L6.41427 215.214L7.55653 215L10.055 236.221C10.055 236.221 10.0708 236.203 10.0959 236.171H10.0991C10.6214 235.539 15.6971 229.409 15.9488 228.654C16.2131 227.864 16.5404 220.022 16.5404 220.022L18.3057 218.474L18.6518 218.169C18.6518 218.169 19.7091 224.248 19.9766 225.57C20.2378 226.891 18.1232 233.764 17.3334 234.821C16.6159 235.775 11.3452 242.581 10.3571 243.858C10.2533 243.994 10.1966 244.066 10.1966 244.066C10.1966 244.066 10.4641 247.575 10.8134 251.861C11.32 258.028 11.9997 265.81 12.3144 267.059C12.5252 267.912 12.7392 271.024 12.9217 274.592L14.3157 273.617L17.1068 271.66L19.3473 260.662C19.3473 260.662 21.5846 259.444 22.3996 259.032C23.2146 258.629 23.825 250.275 23.825 250.275L25.5054 250.696L26.27 250.888Z" fill="url(#paint16_linear_199_1577)"/>
<g style="mix-blend-mode:overlay" opacity="0.45">
<path d="M26.2699 250.888C26.2699 250.888 25.2535 260.055 24.234 260.87C23.2144 261.685 20.1621 270.442 20.1621 270.442C20.1621 270.442 19.3597 278.752 18.5447 281.194C18.0224 282.764 15.1463 288.636 13.4596 292.324C13.4596 292.356 13.4596 292.384 13.4628 292.415C12.4464 289.413 13.7806 284.133 14.5956 283.271C15.6309 282.176 18.9821 274.133 19.2873 273.4C19.5926 272.67 19.2873 272.242 19.1646 271.207C19.0419 270.171 21.1754 266.757 21.2981 266.21C21.4208 265.662 20.8104 264.016 20.7506 263.101C20.6876 262.188 23.2491 260.848 23.7966 260.055C24.3441 259.262 24.407 258.167 24.6493 256.949C24.8507 255.942 25.3416 252.034 25.5052 250.696L26.2699 250.888Z" fill="white"/>
</g>
<g style="mix-blend-mode:overlay" opacity="0.45">
<path d="M17.3334 234.821C16.616 235.775 11.3452 242.581 10.3571 243.859C9.9764 243.305 9.76557 242.622 9.77187 241.952C9.7876 240.592 10.5491 239.334 11.5372 238.402C12.1539 237.817 12.8619 237.335 13.4535 236.725C14.1741 235.982 14.6996 235.076 15.2157 234.179C16.0716 232.694 16.9275 231.212 17.7802 229.727C18.054 229.252 18.3341 228.761 18.397 228.216C18.4505 227.738 18.3278 227.25 18.3876 226.772C18.4631 226.152 18.8281 225.608 19.0075 225.01C19.6368 222.889 17.8526 220.513 18.3057 218.474L18.6519 218.169C18.6519 218.169 19.7092 224.248 19.9766 225.57C20.2378 226.892 18.1232 233.764 17.3334 234.821Z" fill="white"/>
</g>
<g style="mix-blend-mode:overlay" opacity="0.45">
<path d="M1.75722 272.336C1.06495 272.547 0.360083 271.748 0.00135803 271.049C-2.37756 266.417 -3.93203 261.42 -5.83894 256.578C-6.55639 254.756 -7.32733 252.953 -8.17695 251.187C-8.5514 250.407 -8.94789 249.63 -9.50486 248.966C-10.3262 247.987 -11.4464 247.314 -12.4722 246.552C-14.0644 245.366 -15.4616 243.918 -16.5944 242.288C-17.4094 241.111 -18.108 239.818 -19.2156 238.912C-19.7348 238.487 -20.3327 238.154 -20.7858 237.663C-22.0036 236.341 -21.8935 234.214 -22.998 232.795C-23.4039 232.272 -23.9546 231.879 -24.4203 231.407C-24.9332 230.891 -25.3391 230.274 -25.6223 229.607L-24.6846 228.477L-19.9236 236.665C-19.9236 236.665 -8.82832 248.824 -7.50355 249.881C-6.18822 250.939 -3.28066 260.715 -3.01319 261.773C-2.78978 262.682 0.769156 270.247 1.75722 272.336Z" fill="white"/>
</g>
<g style="mix-blend-mode:overlay" opacity="0.45">
<path d="M10.0959 236.171C10.0864 236.228 10.077 236.281 10.0644 236.338C9.99201 236.681 9.74657 237.125 9.41617 236.999C9.22736 236.926 9.15499 236.7 9.10779 236.505C8.79312 235.167 8.47845 233.833 8.16378 232.496C7.9026 231.388 7.63828 230.265 7.63198 229.126C7.62569 227.832 7.9498 226.558 7.97183 225.268C8.03161 221.869 6.0303 218.461 6.4142 215.214L7.55646 215L10.0549 236.221C10.0549 236.221 10.0707 236.203 10.0959 236.171Z" fill="white"/>
</g>
<g style="mix-blend-mode:overlay" opacity="0.45">
<path d="M14.3156 273.617C14.303 273.777 14.2873 273.935 14.2653 274.095C14.1772 274.731 13.9569 275.436 13.3779 275.713C12.6982 276.04 11.8517 275.565 11.4993 274.895C11.15 274.224 11.1595 273.431 11.1721 272.676C11.2161 269.378 11.0934 266.077 10.9738 262.783C10.914 261.156 10.8574 259.526 10.6906 257.909C10.5553 256.593 9.6459 254.217 9.98889 252.965C10.162 252.333 10.4452 251.99 10.8133 251.861C11.32 258.028 11.9996 265.81 12.3143 267.059C12.5251 267.912 12.7391 271.024 12.9216 274.592L14.3156 273.617Z" fill="white"/>
</g>
<g style="mix-blend-mode:overlay" opacity="0.45">
<path d="M14.6902 344.481L4.13299 344.616C3.95363 342.719 4.43822 340.727 5.8039 339.424C6.73532 338.534 7.99715 338.03 8.89397 337.105C10.2313 335.72 10.5334 333.669 10.7694 331.759C11.2477 327.851 11.726 323.857 10.9142 320.003C10.2282 316.746 8.64538 313.332 9.90721 310.251C10.7254 308.256 12.6417 306.796 13.1703 304.703C13.7336 302.472 12.5693 300.197 12.3302 297.906C12.1414 296.11 12.5567 294.263 13.4693 292.702C13.7682 306.689 14.6902 344.481 14.6902 344.481Z" fill="white"/>
</g>
<path style="mix-blend-mode:multiply" opacity="0.3" d="M4.41618 264.718C4.34066 266.442 4.26514 268.176 4.49485 269.888C4.70883 271.487 5.11475 273.356 3.99767 274.52C3.86866 274.655 3.70818 274.781 3.52252 274.784C3.20156 274.791 2.99387 274.457 2.85541 274.168C2.5785 273.592 2.3016 273.016 2.02783 272.437L3.32428 241.955V215.79L4.60184 215.551C3.8718 219.975 3.919 224.525 4.73086 228.937C4.98259 230.296 5.3067 231.646 5.47662 233.018C5.72522 235.045 5.63711 237.093 5.54585 239.129C5.17139 247.66 4.79379 256.187 4.41618 264.718Z" fill="url(#paint17_linear_199_1577)"/>
<path style="mix-blend-mode:multiply" opacity="0.3" d="M0.429109 305.902C1.12453 310.795 1.63115 315.311 0.592734 320.141C-0.215971 323.892 -2.05994 327.589 -1.4243 331.372C-1.21977 332.596 -0.760348 333.76 -0.436237 334.956C0.0766773 336.844 0.256036 338.804 0.391345 340.755C0.482599 342.048 0.551828 343.367 0.476308 344.663L-6.3552 344.748L-2.48475 280.537C-2.48475 280.537 -5.92096 273.925 -6.4496 272.607C-6.97825 271.285 -8.56105 260.977 -8.56105 259.394C-8.56105 258.585 -10.6221 255.099 -12.6423 251.873C-11.5819 252.512 -10.6725 253.365 -10.3326 254.529C-10.1785 255.064 -10.1501 255.637 -9.91728 256.143C-9.25647 257.572 -7.24572 257.909 -6.46848 259.277C-5.9776 260.146 -6.10347 261.216 -6.01851 262.21C-5.77306 265.124 -3.65533 267.591 -3.22737 270.483C-2.9662 272.258 -3.35324 274.133 -2.73963 275.817C-2.21728 277.242 -1.05299 278.328 -0.348129 279.668C0.49519 281.267 0.636787 283.129 0.759509 284.933C0.942019 287.569 1.12768 290.206 1.31018 292.843C1.40144 294.156 1.48955 295.493 1.16229 296.767C0.803568 298.174 -0.0366058 299.411 -0.496025 300.789C-0.955445 302.167 -0.927125 303.895 0.18681 304.829C0.372466 304.983 0.592738 305.122 0.690287 305.345C0.787834 305.569 0.671406 305.902 0.429109 305.902Z" fill="url(#paint18_linear_199_1577)"/>
<path d="M49.9107 244.878C48.394 246.137 46.4997 247.09 44.4134 247.804C35.1086 250.998 22.0403 249.466 22.0403 249.466C8.98775 249.466 16.9269 239.412 16.9269 239.412C16.9269 239.412 16.0175 238.789 15.1805 237.811C13.9407 236.366 12.8488 234.141 15.0452 231.989H15.0483C15.4039 231.637 15.8507 231.287 16.3951 230.944C22.569 227.064 42.6796 225.299 49.2059 226.536C55.7321 227.769 48.3216 235.885 48.3216 235.885C48.3216 235.885 51.097 236.479 52.4722 238.062C53.6899 239.466 53.8064 241.646 49.9107 244.878Z" fill="url(#paint19_linear_199_1577)"/>
<path style="mix-blend-mode:multiply" d="M44.4134 247.804C35.1085 250.998 22.0402 249.466 22.0402 249.466C8.98769 249.466 16.9268 239.412 16.9268 239.412C16.9268 239.412 16.0174 238.789 15.1804 237.811C16.0426 238.172 16.9646 238.412 17.7765 238.871C18.0345 239.016 18.3051 239.223 18.3303 239.519C18.3649 239.925 17.9338 240.193 17.5939 240.416C16.5209 241.13 15.8538 242.42 15.8979 243.707C15.9388 244.994 16.6877 246.241 17.8048 246.883C18.3554 247.197 18.9753 247.37 19.5984 247.502C26.7855 249.013 34.2086 245.202 41.4743 246.259C42.6103 246.423 43.8721 246.826 44.4134 247.804Z" fill="url(#paint20_linear_199_1577)"/>
<path d="M34.2812 207.564C34.2812 207.564 34.898 207.844 35.4172 208.361C36.2731 209.213 36.8552 210.708 33.9131 212.634C33.6267 212.823 33.3026 213.014 32.9439 213.213C26.7008 216.633 15.1272 215.019 15.1272 215.019C6.65627 216.356 1.73166 214.997 2.77008 211.727C3.81164 208.458 7.38001 206.227 7.38001 206.227C7.38001 206.227 6.2409 204.912 7.97159 202.662C10.6526 199.175 14.0385 195.94 21.1752 195.789C21.6441 195.78 22.0689 195.786 22.4622 195.808C23.1576 195.84 23.7366 195.915 24.2212 196.025C27.6291 196.784 26.254 199.093 26.254 199.093C26.254 199.093 38.7401 195.676 41.2669 200.283C43.7938 204.89 34.2812 207.564 34.2812 207.564Z" fill="url(#paint21_linear_199_1577)"/>
<g opacity="0.28">
<path d="M33.9131 212.634C33.6267 212.823 33.3026 213.014 32.9439 213.213C26.7008 216.633 15.1272 215.019 15.1272 215.019C6.65627 216.356 1.73166 214.997 2.77008 211.727C3.81164 208.458 7.38001 206.227 7.38001 206.227C7.38001 206.227 6.2409 204.912 7.97159 202.662C10.6526 199.175 14.0385 195.94 21.1752 195.789C21.6441 195.78 22.0689 195.786 22.4622 195.808C23.1576 195.84 23.7366 195.915 24.2212 196.025C23.3622 196.916 22.5629 197.879 22.1853 199.043C21.7133 200.491 22.1129 202.341 23.466 203.033C21.4112 204.235 19.4445 205.588 17.5911 207.083C16.9366 207.608 16.2506 208.241 16.1782 209.075C16.1027 209.943 16.7572 210.739 17.5502 211.101C18.3432 211.46 19.2431 211.473 20.1116 211.451C24.5264 211.34 28.9255 210.532 33.0918 209.065C33.8533 208.795 34.6242 208.502 35.4172 208.361C36.2731 209.213 36.8553 210.708 33.9131 212.634Z" fill="url(#paint22_linear_199_1577)" style="mix-blend-mode:multiply"/>
</g>
<path style="mix-blend-mode:multiply" d="M33.9131 212.634C33.6267 212.823 33.3026 213.014 32.9439 213.213C26.7008 216.633 15.1272 215.019 15.1272 215.019C6.65627 216.356 1.73166 214.997 2.77008 211.727C3.81164 208.458 7.38001 206.227 7.38001 206.227C7.38001 206.227 6.2409 204.912 7.97159 202.662C10.6526 199.175 14.0385 195.94 21.1752 195.789C21.6441 195.78 22.0689 195.786 22.4622 195.808L22.0468 195.837C19.8536 196.746 18.1858 198.817 17.7673 201.151C17.6037 202.064 17.6068 203.033 17.1694 203.848C16.5904 204.934 15.3821 205.488 14.3468 206.152C12.8993 207.08 11.6753 208.351 10.8005 209.83C10.382 210.544 10.0358 211.425 10.3757 212.181C10.7785 213.081 11.9459 213.345 12.9245 213.232C13.9 213.115 14.8566 212.741 15.8352 212.823C16.946 212.914 17.9278 213.578 19.0103 213.839C21.1689 214.361 23.3779 213.235 25.5995 213.216C27.0501 213.203 28.4819 213.663 29.9293 213.559C31.2856 213.461 32.582 212.876 33.9131 212.634Z" fill="url(#paint23_linear_199_1577)"/>
<path d="M22.9247 203.439C19.8882 207.004 11.1529 207.067 11.1529 207.067C11.1529 207.067 10.5141 209.248 7.2132 211.227C3.9123 213.21 -2.81851 211.756 -2.81851 211.756C-15.8899 210.437 -7.17671 202.121 -7.17671 202.121C-7.17671 202.121 -12.589 200.535 -11.2706 198.291C-11.1573 198.096 -11.0346 197.91 -10.9056 197.734C-9.55562 195.849 -7.57319 194.858 -7.57319 194.858C-7.57319 194.858 -8.11443 194.556 -8.4763 193.964C-8.83188 193.388 -9.01753 192.536 -8.36616 191.425C-7.04454 189.181 -0.0462589 184.562 5.36609 184.033C10.7784 183.505 10.9106 189.446 10.9106 189.446C10.9106 189.446 19.8504 187.957 23.4911 190.135C23.9065 190.383 24.2526 190.679 24.5075 191.028C27.0155 194.461 20.4137 198.159 20.4137 198.159C20.4137 198.159 21.8926 198.615 22.9059 199.55C23.853 200.425 24.3942 201.715 22.9247 203.439Z" fill="url(#paint24_linear_199_1577)"/>
<path style="mix-blend-mode:multiply" d="M22.9247 203.439C19.8882 207.004 11.1529 207.067 11.1529 207.067C11.1529 207.067 10.5141 209.248 7.2132 211.227C3.9123 213.21 -2.81851 211.756 -2.81851 211.756C-15.8899 210.437 -7.17671 202.121 -7.17671 202.121C-7.17671 202.121 -12.589 200.535 -11.2706 198.291C-11.1573 198.096 -11.0346 197.91 -10.9056 197.734C-9.55562 195.849 -7.57319 194.858 -7.57319 194.858C-7.57319 194.858 -8.11443 194.556 -8.4763 193.964C-7.13265 194.861 -5.40511 195.091 -3.76882 195.226C-4.6971 195.544 -5.64111 195.871 -6.4152 196.469C-7.19244 197.067 -7.78088 197.992 -7.71794 198.971C-7.65186 199.981 -6.88721 200.849 -5.96522 201.268C-5.04009 201.686 -3.98909 201.712 -2.98214 201.595C-3.14262 203.26 -2.07274 204.899 -0.584348 205.657C0.904047 206.416 2.71655 206.369 4.28047 205.787C5.88215 205.192 7.27929 204.056 8.18554 202.608C10.9578 203.332 13.8937 203.414 16.7037 202.844C17.5848 202.668 18.4847 202.41 19.1581 201.819C19.8347 201.227 20.2217 200.223 19.8567 199.402C19.4634 198.524 18.4218 198.178 17.4935 197.923C19.6049 197.378 21.5213 196.11 22.8461 194.377C23.7712 193.162 24.3061 191.286 23.4911 190.135C23.9065 190.383 24.2526 190.679 24.5075 191.028C27.0155 194.461 20.4137 198.159 20.4137 198.159C20.4137 198.159 21.8926 198.615 22.9059 199.55C23.853 200.425 24.3942 201.715 22.9247 203.439Z" fill="url(#paint25_linear_199_1577)"/>
<path style="mix-blend-mode:multiply" d="M22.9247 203.439C19.8882 207.004 11.1529 207.067 11.1529 207.067C11.1529 207.067 10.5141 209.248 7.2132 211.227C3.9123 213.21 -2.81851 211.756 -2.81851 211.756C-15.8899 210.437 -7.17671 202.121 -7.17671 202.121C-7.17671 202.121 -12.589 200.535 -11.2706 198.291C-11.1573 198.096 -11.0346 197.91 -10.9056 197.734C-10.6475 197.954 -10.4147 198.209 -10.2133 198.47C-9.62485 199.222 -9.12767 200.094 -8.30952 200.585C-7.82808 200.874 -7.26796 201.01 -6.76763 201.268C-6.26416 201.526 -5.7953 201.966 -5.75754 202.526C-5.73551 202.825 -5.83936 203.115 -5.93376 203.398C-6.16347 204.097 -6.33024 204.886 -5.99984 205.541C-5.66628 206.199 -4.62472 206.485 -4.19677 205.887C-2.2584 207.914 0.589377 209.034 3.38995 208.873C6.19052 208.71 8.89355 207.272 10.5865 205.038C12.5374 205.072 14.501 205.107 16.4173 204.748C18.3368 204.389 20.2249 203.603 21.5905 202.212C22.2954 201.497 22.8492 200.519 22.9059 199.55C23.853 200.424 24.3942 201.715 22.9247 203.439Z" fill="url(#paint26_linear_199_1577)"/>
<path d="M10.4763 210.988C10.4039 211.274 10.2938 211.545 10.149 211.797C8.54104 214.585 2.69131 215.261 -1.69521 216.061C-6.47821 216.929 -10.1001 218.232 -13.2877 215.044C-16.4753 211.857 -13.8667 210.409 -13.8667 210.409C-13.8667 210.409 -18.9392 210.554 -18.2154 207.8C-18.099 207.35 -17.7371 206.954 -17.2179 206.602C-16.532 206.133 -15.5659 205.746 -14.5055 205.431C-11.45 204.512 -7.6362 204.175 -7.6362 204.175C-7.6362 204.175 4.24578 200.554 7.4334 202.583C10.621 204.613 5.84116 207.074 5.84116 207.074C5.84116 207.074 8.22008 207.262 9.60149 208.379C10.3252 208.962 10.7752 209.795 10.4763 210.988Z" fill="url(#paint27_linear_199_1577)"/>
<path style="mix-blend-mode:multiply" d="M9.04143 206.938L8.4939 206.617C8.70473 206.683 8.89038 206.793 9.04143 206.938Z" fill="url(#paint28_linear_199_1577)"/>
<path style="mix-blend-mode:multiply" d="M10.4763 210.988C10.4039 211.274 10.2938 211.545 10.149 211.797C8.54104 214.585 2.69131 215.261 -1.69521 216.06C-6.47821 216.929 -10.1001 218.232 -13.2877 215.044C-16.4753 211.856 -13.8667 210.409 -13.8667 210.409C-13.8667 210.409 -18.9392 210.554 -18.2154 207.8C-18.099 207.35 -17.7371 206.954 -17.2179 206.601C-16.532 206.133 -15.5659 205.746 -14.5055 205.431C-14.4551 205.831 -14.4079 206.233 -14.2537 206.595C-13.6999 207.882 -12.0322 208.162 -10.635 208.257C-11.4658 209.053 -11.557 210.44 -10.978 211.432C-10.399 212.423 -9.26305 213.011 -8.11765 213.093C-6.97225 213.178 -5.82999 212.804 -4.83877 212.225C-4.67829 212.133 -4.51466 212.03 -4.33215 212.001C-4.11188 211.967 -3.89162 212.036 -3.67764 212.102C-0.134443 213.2 3.82727 212.885 7.15335 211.243C8.08477 210.783 9.01934 210.167 9.43156 209.213C9.54484 208.955 9.60149 208.666 9.60149 208.379C10.3252 208.962 10.7752 209.795 10.4763 210.988Z" fill="url(#paint29_linear_199_1577)"/>
<path style="mix-blend-mode:multiply" d="M10.149 211.797C8.54104 214.585 2.69131 215.261 -1.69521 216.06C-6.47821 216.929 -10.1001 218.232 -13.2877 215.044C-16.4753 211.856 -13.8667 210.409 -13.8667 210.409C-13.8667 210.409 -18.9392 210.554 -18.2154 207.8C-18.099 207.35 -17.7371 206.954 -17.2179 206.601C-17.1613 207.555 -16.6138 208.518 -15.8208 209.09C-14.625 209.953 -13.0485 210.097 -11.5759 209.981C-12.5105 210.494 -13.3727 211.303 -13.5615 212.35C-13.8132 213.76 -12.7213 215.142 -11.3934 215.68C-10.0655 216.218 -8.57392 216.111 -7.15161 215.935C-3.38499 215.466 0.318684 214.588 4.01292 213.713C6.10234 213.216 8.21378 212.712 10.149 211.797Z" fill="url(#paint30_linear_199_1577)"/>
<path d="M21.2667 342.335C21.2667 342.335 19.6111 324.249 24.5495 315.444C27.5477 310.098 33.1005 308.219 37 307.569" stroke="url(#paint31_linear_199_1577)" stroke-width="0.74" stroke-miterlimit="10"/>
<path d="M34.8439 310.409C32.823 311.346 28.1147 314.099 25.84 317.026C23.6838 319.802 21.6131 317.259 22.6093 314.915C22.6639 314.787 22.7279 314.659 22.8015 314.531C23.9614 312.541 29.8818 307.031 33.5536 307C34.3719 306.993 35.0788 307.259 35.5959 307.894C35.5959 307.894 36.8649 309.474 34.8439 310.409Z" fill="url(#paint32_linear_199_1577)"/>
<g style="mix-blend-mode:multiply" opacity="0.28">
<path d="M34.8439 310.409C32.823 311.346 28.1147 314.099 25.84 317.026C23.6838 319.802 21.6131 317.259 22.6093 314.915C23.615 315.198 24.9623 315.174 26.7555 314.538C30.8875 313.077 32.7732 309.282 33.5536 307C34.3719 306.993 35.0788 307.259 35.5959 307.894C35.5959 307.894 36.8649 309.474 34.8439 310.409Z" fill="#82007E"/>
</g>
<path d="M46.3247 317.681C46.3247 317.681 46.3247 317.681 46.3228 317.685C46.2622 317.94 42.411 334.364 44.299 340.07C44.299 340.07 50.9333 329.707 46.3238 317.683L46.3247 317.681Z" fill="url(#paint33_linear_199_1577)"/>
<g style="mix-blend-mode:multiply" opacity="0.28">
<path d="M46.3157 317.685C46.2551 317.94 42.4071 334.358 44.2936 340.061C44.2936 340.061 47.1922 329.609 46.3157 317.685Z" fill="#82007E"/>
</g>
<path d="M60.2268 324.906C60.2268 324.906 60.2259 324.908 60.225 324.911C60.0091 325.067 46.2141 335.174 43.5228 341.135C43.5228 341.135 54.9672 337.95 60.2288 324.907L60.2268 324.906Z" fill="url(#paint34_linear_199_1577)"/>
<g style="mix-blend-mode:multiply" opacity="0.28">
<path d="M60.2249 324.908C60.0091 325.065 46.2149 335.172 43.5237 341.132C43.5237 341.132 52.601 335.037 60.2249 324.908Z" fill="#82007E"/>
</g>
<path d="M55.9875 313.901C55.9875 313.901 55.9866 313.904 55.9857 313.906C55.8114 314.208 44.6005 333.685 44.5732 341.937C44.5732 341.937 56.6871 331.585 55.9875 313.901Z" fill="url(#paint35_linear_199_1577)"/>
<g style="mix-blend-mode:multiply" opacity="0.28">
<path d="M55.8113 313.904C55.6394 314.206 44.5802 333.614 44.5532 341.836C44.5532 341.836 52.1258 329.685 55.8113 313.904Z" fill="#82007E"/>
</g>
<path d="M57.9689 328.101C57.9689 328.101 57.9689 328.101 57.968 328.103C57.8344 328.249 49.285 337.648 48.2188 342.294C48.2188 342.294 56.0992 338.164 57.9689 328.101Z" fill="url(#paint36_linear_199_1577)"/>
<g style="mix-blend-mode:multiply" opacity="0.28">
<path d="M57.9232 328.101C57.7902 328.247 49.2795 337.631 48.2182 342.27C48.2182 342.27 53.9023 336.487 57.9232 328.101Z" fill="#82007E"/>
</g>
<path d="M64.0088 338.496C64.0088 338.496 64.0088 338.496 64.0068 338.495C63.8116 338.51 51.2089 339.499 47.1386 342.484C47.1386 342.484 55.4902 345.306 64.0098 338.494L64.0088 338.496Z" fill="url(#paint37_linear_199_1577)"/>
<g style="mix-blend-mode:multiply" opacity="0.28">
<path d="M64.0036 338.496C63.8085 338.511 51.2058 339.501 47.1354 342.486C47.1354 342.486 55.2017 342.226 64.0036 338.496Z" fill="#82007E"/>
</g>
<path d="M65.7184 329.399L65.7174 329.401C65.4883 329.532 50.7816 338.012 47.4609 343.671C47.4609 343.671 59.075 341.86 65.7184 329.399Z" fill="url(#paint38_linear_199_1577)"/>
<g style="mix-blend-mode:multiply" opacity="0.28">
<path d="M65.7175 329.402C65.4883 329.532 50.7816 338.012 47.4608 343.671C47.4608 343.671 57.0763 338.651 65.7175 329.402Z" fill="#82007E"/>
</g>
<path d="M43.5162 343.122H14C14 343.122 14.3052 333.804 15.9289 326.513C16.4481 324.194 17.0964 322.083 17.9114 320.538C21.2909 314.137 23.0688 329.786 23.0688 329.786C23.0688 329.786 26.0928 321.252 29.4692 319.827C32.8488 318.404 33.7362 329.962 33.7362 329.962C33.7362 329.962 37.2951 322.139 41.562 322.319C45.829 322.495 43.5162 343.122 43.5162 343.122Z" fill="url(#paint39_linear_199_1577)"/>
<g style="mix-blend-mode:multiply" opacity="0.46">
<path d="M43.1008 343.122H14C14 343.122 14.3052 333.804 15.9289 326.513C16.3128 325.214 16.7534 324.043 17.2568 323.09C20.6333 316.689 22.4112 332.338 22.4112 332.338C22.4112 332.338 25.4351 323.801 28.8147 322.379C32.1911 320.956 33.0817 332.514 33.0817 332.514C33.0817 332.514 36.6374 324.691 40.9044 324.868C44.2367 325.006 43.5602 337.593 43.1008 343.122Z" fill="#4194F2"/>
</g>
</g>
<defs>
<linearGradient id="paint0_linear_199_1577" x1="145.5" y1="0" x2="145.5" y2="342" gradientUnits="userSpaceOnUse">
<stop stop-color="#42ADFF"/>
<stop offset="0.328125" stop-color="#A6A9ED"/>
<stop offset="0.682292" stop-color="#FFA6DD"/>
</linearGradient>
<linearGradient id="paint1_linear_199_1577" x1="-21.0039" y1="307.096" x2="84.954" y2="307.096" gradientUnits="userSpaceOnUse">
<stop stop-color="#90C9FD"/>
<stop offset="0.27" stop-color="#8AC3FD"/>
<stop offset="0.62" stop-color="#79B5FD"/>
<stop offset="1" stop-color="#5F9EFD"/>
</linearGradient>
<linearGradient id="paint2_linear_199_1577" x1="192.981" y1="293.138" x2="421.857" y2="293.138" gradientUnits="userSpaceOnUse">
<stop stop-color="#90C9FD"/>
<stop offset="0.27" stop-color="#8AC3FD"/>
<stop offset="0.62" stop-color="#79B5FD"/>
<stop offset="1" stop-color="#5F9EFD"/>
</linearGradient>
<linearGradient id="paint3_linear_199_1577" x1="-18.5483" y1="304.665" x2="177.648" y2="304.665" gradientUnits="userSpaceOnUse">
<stop stop-color="#ECF6FF"/>
<stop offset="1" stop-color="#77ADFF"/>
</linearGradient>
<linearGradient id="paint4_linear_199_1577" x1="151.102" y1="347.06" x2="151.102" y2="299.126" gradientUnits="userSpaceOnUse">
<stop stop-color="#74BCFD"/>
<stop offset="0.19" stop-color="#79BEFD"/>
<stop offset="0.43" stop-color="#8AC6FD"/>
<stop offset="0.71" stop-color="#A5D3FD"/>
<stop offset="1" stop-color="#CAE4FD"/>
</linearGradient>
<linearGradient id="paint5_linear_199_1577" x1="240" y1="317.5" x2="358.5" y2="360.5" gradientUnits="userSpaceOnUse">
<stop stop-color="#478CEC"/>
<stop offset="1" stop-color="#8AC8F9"/>
</linearGradient>
<linearGradient id="paint6_linear_199_1577" x1="58.8591" y1="295.826" x2="58.8591" y2="336.328" gradientUnits="userSpaceOnUse">
<stop stop-color="#D1FAFF"/>
<stop offset="1" stop-color="#79B2F2"/>
</linearGradient>
<linearGradient id="paint7_linear_199_1577" x1="46.3792" y1="317.186" x2="19.1319" y2="357.046" gradientUnits="userSpaceOnUse">
<stop stop-color="#FFA6DD" stop-opacity="0.5"/>
<stop offset="0.21" stop-color="#F2AFDD" stop-opacity="0.63"/>
<stop offset="0.57" stop-color="#DFBDDE" stop-opacity="0.83"/>
<stop offset="0.84" stop-color="#D3C6DF" stop-opacity="0.95"/>
<stop offset="1" stop-color="#CFCAE0"/>
</linearGradient>
<linearGradient id="paint8_linear_199_1577" x1="157.494" y1="351.467" x2="147.868" y2="301.265" gradientUnits="userSpaceOnUse">
<stop stop-color="#009579"/>
<stop offset="1" stop-color="#02B695"/>
</linearGradient>
<linearGradient id="paint9_linear_199_1577" x1="147.489" y1="322.918" x2="142.197" y2="324.203" gradientUnits="userSpaceOnUse">
<stop stop-color="#A43113"/>
<stop offset="1" stop-color="#6F160D"/>
</linearGradient>
<linearGradient id="paint10_linear_199_1577" x1="178.617" y1="281.324" x2="173.965" y2="282.454" gradientUnits="userSpaceOnUse">
<stop stop-color="#A43113"/>
<stop offset="1" stop-color="#6F160D"/>
</linearGradient>
<linearGradient id="paint11_linear_199_1577" x1="134.272" y1="324.103" x2="117.153" y2="328.043" gradientUnits="userSpaceOnUse">
<stop stop-color="#009579"/>
<stop offset="1" stop-color="#02B695"/>
</linearGradient>
<linearGradient id="paint12_linear_199_1577" x1="58.4881" y1="270.988" x2="79.9714" y2="350.624" gradientUnits="userSpaceOnUse">
<stop stop-color="#931A6E"/>
<stop offset="1" stop-color="#700D56"/>
</linearGradient>
<linearGradient id="paint13_linear_199_1577" x1="83.7376" y1="288.595" x2="74.4185" y2="289.62" gradientUnits="userSpaceOnUse">
<stop stop-color="#A43113"/>
<stop offset="1" stop-color="#6F160D"/>
</linearGradient>
<linearGradient id="paint14_linear_199_1577" x1="73.7029" y1="287.259" x2="66.3486" y2="289.405" gradientUnits="userSpaceOnUse">
<stop stop-color="#A43113"/>
<stop offset="1" stop-color="#6F160D"/>
</linearGradient>
<linearGradient id="paint15_linear_199_1577" x1="-4.21253" y1="288.306" x2="-12.0227" y2="342.077" gradientUnits="userSpaceOnUse">
<stop stop-color="#A6CBFF"/>
<stop offset="0.12" stop-color="#A3C6FD"/>
<stop offset="0.26" stop-color="#9AB7F8"/>
<stop offset="0.42" stop-color="#8CA0F0"/>
<stop offset="0.58" stop-color="#787FE4"/>
<stop offset="0.74" stop-color="#5F55D6"/>
<stop offset="0.91" stop-color="#4022C4"/>
<stop offset="1" stop-color="#2E04BA"/>
</linearGradient>
<linearGradient id="paint16_linear_199_1577" x1="0.133434" y1="215" x2="0.133434" y2="344.748" gradientUnits="userSpaceOnUse">
<stop stop-color="#6E0782"/>
<stop offset="1" stop-color="#08204D"/>
</linearGradient>
<linearGradient id="paint17_linear_199_1577" x1="2.02783" y1="245.168" x2="5.63711" y2="245.168" gradientUnits="userSpaceOnUse">
<stop stop-color="#6E0782"/>
<stop offset="1" stop-color="#08204D"/>
</linearGradient>
<linearGradient id="paint18_linear_199_1577" x1="-12.6423" y1="298.309" x2="1.392" y2="298.309" gradientUnits="userSpaceOnUse">
<stop stop-color="#6E0782"/>
<stop offset="1" stop-color="#08204D"/>
</linearGradient>
<linearGradient id="paint19_linear_199_1577" x1="38.9098" y1="227.014" x2="21.647" y2="259.922" gradientUnits="userSpaceOnUse">
<stop stop-color="#FDF9FF"/>
<stop offset="0.963542" stop-color="#ECC2FF"/>
</linearGradient>
<linearGradient id="paint20_linear_199_1577" x1="33.1733" y1="238.984" x2="23.2706" y2="250.19" gradientUnits="userSpaceOnUse">
<stop stop-color="#FFA6DD" stop-opacity="0.5"/>
<stop offset="0.21" stop-color="#F2AFDD" stop-opacity="0.63"/>
<stop offset="0.57" stop-color="#DFBDDE" stop-opacity="0.83"/>
<stop offset="0.84" stop-color="#D3C6DF" stop-opacity="0.95"/>
<stop offset="1" stop-color="#CFCAE0"/>
</linearGradient>
<linearGradient id="paint21_linear_199_1577" x1="30.8734" y1="195.84" x2="6.77899" y2="225.151" gradientUnits="userSpaceOnUse">
<stop stop-color="#F8EDF4"/>
<stop offset="1" stop-color="#EDC8FF"/>
</linearGradient>
<linearGradient id="paint22_linear_199_1577" x1="25.2376" y1="203.832" x2="10.2718" y2="215.538" gradientUnits="userSpaceOnUse">
<stop stop-color="#FACFE9" stop-opacity="0.5"/>
<stop offset="0.21" stop-color="#F2AFDD" stop-opacity="0.63"/>
<stop offset="0.57" stop-color="#DFBDDE" stop-opacity="0.83"/>
<stop offset="0.84" stop-color="#D3C6DF" stop-opacity="0.95"/>
<stop offset="1" stop-color="#CFCAE0"/>
</linearGradient>
<linearGradient id="paint23_linear_199_1577" x1="2.63162" y1="205.657" x2="33.9131" y2="205.657" gradientUnits="userSpaceOnUse">
<stop stop-color="#FFA6DD" stop-opacity="0.5"/>
<stop offset="0.21" stop-color="#F2AFDD" stop-opacity="0.63"/>
<stop offset="0.57" stop-color="#DFBDDE" stop-opacity="0.83"/>
<stop offset="0.84" stop-color="#D3C6DF" stop-opacity="0.95"/>
<stop offset="1" stop-color="#CFCAE0"/>
</linearGradient>
<linearGradient id="paint24_linear_199_1577" x1="11.4676" y1="189.575" x2="-4.6971" y2="220.39" gradientUnits="userSpaceOnUse">
<stop offset="0.12" stop-color="#FFE0F4"/>
<stop offset="1" stop-color="#C8BAF5"/>
</linearGradient>
<linearGradient id="paint25_linear_199_1577" x1="12.1787" y1="192.391" x2="0.583083" y2="207.165" gradientUnits="userSpaceOnUse">
<stop stop-color="#FFA6DD" stop-opacity="0.5"/>
<stop offset="0.21" stop-color="#F2AFDD" stop-opacity="0.63"/>
<stop offset="0.57" stop-color="#DFBDDE" stop-opacity="0.83"/>
<stop offset="0.84" stop-color="#D3C6DF" stop-opacity="0.95"/>
<stop offset="1" stop-color="#CFCAE0"/>
</linearGradient>
<linearGradient id="paint26_linear_199_1577" x1="8.89355" y1="196.346" x2="0.501272" y2="208.76" gradientUnits="userSpaceOnUse">
<stop stop-color="#FFA6DD" stop-opacity="0.5"/>
<stop offset="0.21" stop-color="#F2AFDD" stop-opacity="0.63"/>
<stop offset="0.57" stop-color="#DFBDDE" stop-opacity="0.83"/>
<stop offset="0.84" stop-color="#D3C6DF" stop-opacity="0.95"/>
<stop offset="1" stop-color="#CFCAE0"/>
</linearGradient>
<linearGradient id="paint27_linear_199_1577" x1="-0.12815" y1="202.316" x2="-10.5469" y2="222.178" gradientUnits="userSpaceOnUse">
<stop stop-color="#FFA6DD"/>
<stop offset="0.12" stop-color="#FAA2DC"/>
<stop offset="0.26" stop-color="#EB97D9"/>
<stop offset="0.41" stop-color="#D485D5"/>
<stop offset="0.56" stop-color="#B36BD0"/>
<stop offset="0.72" stop-color="#894AC9"/>
<stop offset="0.89" stop-color="#5623C0"/>
<stop offset="1" stop-color="#2E04BA"/>
</linearGradient>
<linearGradient id="paint28_linear_199_1577" x1="8.84633" y1="206.727" x2="8.65753" y2="206.844" gradientUnits="userSpaceOnUse">
<stop stop-color="#FFA6DD" stop-opacity="0.5"/>
<stop offset="0.21" stop-color="#F2AFDD" stop-opacity="0.63"/>
<stop offset="0.57" stop-color="#DFBDDE" stop-opacity="0.83"/>
<stop offset="0.84" stop-color="#D3C6DF" stop-opacity="0.95"/>
<stop offset="1" stop-color="#CFCAE0"/>
</linearGradient>
<linearGradient id="paint29_linear_199_1577" x1="2.91158" y1="205.5" x2="-12.5293" y2="215.019" gradientUnits="userSpaceOnUse">
<stop stop-color="#FFA6DD" stop-opacity="0.5"/>
<stop offset="0.21" stop-color="#F2AFDD" stop-opacity="0.63"/>
<stop offset="0.57" stop-color="#DFBDDE" stop-opacity="0.83"/>
<stop offset="0.84" stop-color="#D3C6DF" stop-opacity="0.95"/>
<stop offset="1" stop-color="#CFCAE0"/>
</linearGradient>
<linearGradient id="paint30_linear_199_1577" x1="-18.2878" y1="211.838" x2="10.149" y2="211.838" gradientUnits="userSpaceOnUse">
<stop stop-color="#FFA6DD" stop-opacity="0.5"/>
<stop offset="0.21" stop-color="#F2AFDD" stop-opacity="0.63"/>
<stop offset="0.57" stop-color="#DFBDDE" stop-opacity="0.83"/>
<stop offset="0.84" stop-color="#D3C6DF" stop-opacity="0.95"/>
<stop offset="1" stop-color="#CFCAE0"/>
</linearGradient>
<linearGradient id="paint31_linear_199_1577" x1="23.266" y1="313.196" x2="34.5002" y2="335.788" gradientUnits="userSpaceOnUse">
<stop stop-color="#6E0782"/>
<stop offset="1" stop-color="#08204D"/>
</linearGradient>
<linearGradient id="paint32_linear_199_1577" x1="35.7761" y1="309.327" x2="22.2962" y2="315.323" gradientUnits="userSpaceOnUse">
<stop stop-color="#FFA6DD"/>
<stop offset="0.12" stop-color="#FAA2DC"/>
<stop offset="0.26" stop-color="#EB97D9"/>
<stop offset="0.41" stop-color="#D485D5"/>
<stop offset="0.56" stop-color="#B36BD0"/>
<stop offset="0.72" stop-color="#894AC9"/>
<stop offset="0.89" stop-color="#5623C0"/>
<stop offset="1" stop-color="#2E04BA"/>
</linearGradient>
<linearGradient id="paint33_linear_199_1577" x1="53.0169" y1="319.8" x2="41.6747" y2="332.154" gradientUnits="userSpaceOnUse">
<stop stop-color="#FFE2F4"/>
<stop offset="1" stop-color="#9579F0"/>
</linearGradient>
<linearGradient id="paint34_linear_199_1577" x1="64.3197" y1="325.893" x2="42.7942" y2="336.121" gradientUnits="userSpaceOnUse">
<stop stop-color="#FFA6DD"/>
<stop offset="0.12" stop-color="#FAA2DC"/>
<stop offset="0.26" stop-color="#EB97D9"/>
<stop offset="0.41" stop-color="#D485D5"/>
<stop offset="0.56" stop-color="#B36BD0"/>
<stop offset="0.72" stop-color="#894AC9"/>
<stop offset="0.89" stop-color="#5623C0"/>
<stop offset="1" stop-color="#2E04BA"/>
</linearGradient>
<linearGradient id="paint35_linear_199_1577" x1="55.5881" y1="315.679" x2="45.9699" y2="345.456" gradientUnits="userSpaceOnUse">
<stop stop-color="#FFE1F4"/>
<stop offset="0.0001" stop-color="#FFA6DD"/>
<stop offset="1" stop-color="#9879FF"/>
</linearGradient>
<linearGradient id="paint36_linear_199_1577" x1="61.1188" y1="332.395" x2="49.5157" y2="335.059" gradientUnits="userSpaceOnUse">
<stop stop-color="#FFDDF2"/>
<stop offset="1" stop-color="#9076E7"/>
</linearGradient>
<linearGradient id="paint37_linear_199_1577" x1="66.1356" y1="340.996" x2="48.6897" y2="338.87" gradientUnits="userSpaceOnUse">
<stop stop-color="#FFA6DD"/>
<stop offset="0.12" stop-color="#FAA2DC"/>
<stop offset="0.26" stop-color="#EB97D9"/>
<stop offset="0.41" stop-color="#D485D5"/>
<stop offset="0.56" stop-color="#B36BD0"/>
<stop offset="0.72" stop-color="#894AC9"/>
<stop offset="0.89" stop-color="#5623C0"/>
<stop offset="1" stop-color="#2E04BA"/>
</linearGradient>
<linearGradient id="paint38_linear_199_1577" x1="64.7594" y1="330.451" x2="45.4511" y2="344.729" gradientUnits="userSpaceOnUse">
<stop stop-color="#FFD9F0"/>
<stop offset="1" stop-color="#8B04BA"/>
</linearGradient>
<linearGradient id="paint39_linear_199_1577" x1="31.9835" y1="318.665" x2="27.3609" y2="350.494" gradientUnits="userSpaceOnUse">
<stop stop-color="#CEE2FF"/>
<stop offset="1" stop-color="#7B5EDB"/>
</linearGradient>
</defs>
</svg>
