<svg width="291" height="342" viewBox="0 0 291 342" fill="none" xmlns="http://www.w3.org/2000/svg">
<mask id="mask0_199_1349" style="mask-type:alpha" maskUnits="userSpaceOnUse" x="0" y="0" width="291" height="342">
<rect width="291" height="342" rx="5" fill="url(#paint0_linear_199_1349)"/>
</mask>
<g mask="url(#mask0_199_1349)">
<path d="M84.9556 330.385C84.9548 330.387 84.9525 330.387 84.951 330.386C84.1765 329.758 83.3942 329.114 82.6004 328.529C81.4237 327.657 80.108 327.12 78.8619 326.36C76.7668 325.079 74.8069 323.289 73.0938 321.549C71.647 320.079 70.3082 318.517 68.8845 317.035C68.3367 316.464 67.6923 316.047 67.1831 315.434C66.3381 314.415 65.7092 313.269 64.9723 312.174C62.9776 309.222 59.4898 307.104 56.681 304.963C54.7828 303.516 53.0003 302 51.2217 300.41C50.1182 299.422 49.0109 298.458 47.9692 297.404C47.2516 296.675 46.4375 296.151 45.689 295.468C43.7831 293.724 41.9427 291.617 39.6548 290.39C38.6092 289.831 37.5829 289.044 36.5682 288.376C35.5998 287.74 35.1253 286.991 34.3883 286.127C33.8482 285.494 33.1499 284.642 32.5094 284.125C32.0348 283.743 31.8149 283.82 31.1359 283.824C30.4298 283.827 29.6505 283.669 29.0486 284.132C28.5316 284.53 28.1072 285.286 27.7368 285.822C26.371 287.805 25.2907 289.985 23.5815 291.706C22.3546 292.94 20.6184 293.793 19.1793 294.792C16.5557 296.617 15.1938 299.584 13.3303 302.054C12.0571 303.74 10.8533 305.144 8.69273 305.291C8.02526 305.337 7.37321 305.233 6.7096 305.341C4.32909 305.738 2.83982 307.119 0.930014 308.477C-0.293037 309.349 -1.20743 310.187 -1.95206 311.51C-2.65426 312.76 -3.03236 313.806 -4.08179 314.805C-5.13894 315.808 -5.7138 317.039 -6.83654 317.965C-7.57731 318.578 -8.19463 319.315 -8.93926 319.917C-10.9185 321.514 -13.2643 322.595 -15.2899 324.138C-16.4165 324.998 -17.8208 325.743 -18.6079 326.962C-19.1712 327.834 -19.2754 328.822 -20.0895 329.539C-20.4857 329.89 -20.2851 330.38 -19.7562 330.38H84.9529C84.9552 330.38 84.9566 330.383 84.9556 330.385Z" fill="url(#paint1_linear_199_1349)"/>
<path d="M195.137 318.002C195.137 318.002 195.138 318.003 195.138 318.002C196.122 316.336 197.337 314.832 198.305 313.146C199.161 311.657 199.713 309.902 200.701 308.497C202.503 305.939 207.468 304.392 210.447 304.766C214.741 305.303 219.143 305.283 223.507 305.199C225.775 305.156 228.325 303.551 230.17 302.351C233.364 300.272 236.177 297.559 239.626 295.881C241.794 294.828 243.94 294.133 246.278 293.508C248.106 293.022 249.777 292.208 251.706 292.235C253.172 292.254 254.199 291.919 255.595 291.753C256.988 291.591 258.628 290.715 259.94 290.152C261.278 289.577 262.343 288.836 263.539 288.045C264.778 287.223 266.225 286.332 267.22 285.213C268.721 283.531 269.905 281.339 272.486 281.625C275.268 281.934 277.691 282.678 280.392 283.334C281.85 283.689 283.332 283.932 284.833 283.913C286.017 283.897 287.479 284.152 288.618 283.832C291.164 283.118 293.464 280.795 295.042 278.835C296.627 276.868 297.607 273.434 299.953 272.33C301.566 271.57 303.032 271.898 304.718 272.234C305.204 272.33 306.196 272.539 306.682 272.369C307.376 272.126 307.639 271.165 307.932 270.509C308.402 269.452 308.449 268.411 308.723 267.299C308.981 266.265 309.564 265.428 309.915 264.437C310.378 263.121 310.27 261.72 310.683 260.401C310.845 259.888 311.072 259.51 311.296 259.016C311.443 258.688 311.636 257.851 311.825 257.627C312.616 256.709 314.394 257.071 315.448 257.067C317.045 257.064 318.04 257.175 319.275 258.306C320.564 259.483 320.618 261.524 321.111 263.082C321.517 264.352 321.729 265.563 322.261 266.786C322.828 268.09 323.723 269.101 324.503 270.259C325.768 272.134 326.382 274.271 327.748 276.061C328.488 277.038 328.924 278.033 329.881 278.824C330.765 279.553 331.922 280.19 332.956 280.676C334.665 281.482 336.567 281.555 338.369 282.053C340.337 282.597 342.366 282.929 344.28 283.662C349.631 285.707 353.331 291.02 357.544 294.669C360.187 296.957 362.857 299.176 365.469 301.502C366.831 302.718 368.344 303.617 369.763 304.724C371.037 305.719 372.287 306.881 373.714 307.656C375.527 308.644 377.696 309.346 379.667 309.936C380.624 310.226 381.515 310.141 382.445 310.38C383.425 310.631 384.617 311.163 385.81 311.225C388.46 311.36 390.663 311.121 393.225 312.07C397.654 313.714 401.493 316.97 405.07 319.968C406.586 321.241 408.492 322.422 409.738 323.934C410.849 325.284 411.887 325.836 413.434 326.596C414.503 327.121 415.61 327.696 416.752 328.051C417.574 328.305 418.354 328.251 419.198 328.409C420.121 328.583 420.927 329.154 421.861 329.247H195.608C194.613 329.247 193.736 328.416 193.503 327.449C193.25 326.403 192.921 325.376 192.992 324.293C193.135 322.098 194.029 319.876 195.136 318.002C195.137 318.001 195.137 318.001 195.137 318.002Z" fill="url(#paint2_linear_199_1349)"/>
<path d="M-8.10242 332.245C-8.10242 332.242 -8.10096 332.239 -8.09852 332.238C-5.96839 330.762 -3.80984 329.409 -1.63234 328.009C0.00257492 326.959 1.6533 326.001 3.1807 324.793C3.81632 324.29 4.47725 323.835 5.05595 323.262C5.5556 322.766 5.75798 322.26 6.12165 321.703C6.66241 320.878 7.37392 320.249 8.24039 319.904C9.37882 319.452 10.4414 318.917 11.5007 318.358C12.4684 317.845 13.4266 316.919 14.2267 316.185C15.1722 315.322 16.1462 314.395 17.1518 313.595C17.955 312.953 18.5938 312.112 19.4097 311.499C20.371 310.771 21.4936 310.319 22.4613 309.595C23.6092 308.735 24.6433 307.951 25.9145 307.296C26.9802 306.746 27.8246 305.788 28.8966 305.202C29.3962 304.931 29.7093 304.564 30.3038 304.747C30.8952 304.931 31.3537 305.506 31.9071 305.667C32.2645 305.772 33.3302 305.898 33.6717 305.743C34.1365 305.535 34.4275 304.086 34.6267 303.577C34.8607 302.973 34.9493 302.344 35.139 301.8C35.2623 301.446 35.3762 301.155 35.5564 300.816C35.724 300.5 35.8474 300.08 36.0181 299.795C36.5304 298.944 37.7922 298.381 38.5448 297.746C39.0729 297.3 39.4176 296.898 39.7655 296.376C40.0279 295.981 40.5465 295.599 40.8881 295.282C41.9253 294.321 43.0416 293.518 44.199 292.718C44.9422 292.202 45.7865 291.902 46.498 291.348C46.8996 291.035 47.2886 290.7 47.7092 290.409C48.2721 290.02 48.8033 289.6 49.3504 289.182C50.2833 288.471 51.1245 287.74 51.9467 286.909C52.9871 285.855 54.3247 285.289 55.4347 284.334C56.0166 283.832 56.649 283.398 57.1929 282.848C57.7084 282.326 58.129 281.732 58.6698 281.239C59.8398 280.166 61.1237 279.142 62.0313 277.811C62.3159 277.393 62.4614 277.08 62.844 276.726C63.195 276.4 63.5112 275.999 63.818 275.629C64.1342 275.246 64.3904 274.822 64.7003 274.436C65.1873 273.826 65.8703 273.428 66.3668 272.827C66.8127 272.286 67.2839 271.843 67.7456 271.328C68.1662 270.86 68.416 270.253 68.8303 269.781C69.1686 269.396 69.6461 269.212 70.0161 268.864C70.2881 268.611 70.4493 268.286 70.6992 268.02C71.3949 267.283 72.2645 266.727 73.1405 266.23C74.1398 265.661 74.8987 264.994 76.053 265C77.5962 265.006 79.0445 265.971 80.4928 266.474C81.3593 266.774 82.2637 267.131 83.0701 267.571C84.041 268.096 84.6797 268.596 85.4608 269.383C86.0079 269.936 86.6309 270.3 87.1811 270.8C87.7409 271.309 88.6548 271.518 89.3283 271.888C89.8849 272.194 90.4857 272.599 90.998 272.975C91.3174 273.209 91.5356 273.513 91.8993 273.706C92.4179 273.978 92.7784 274.117 93.2022 274.538C95.5676 276.884 98.7489 278.086 101.702 279.363C102.155 279.559 102.806 279.727 103.192 280.008C103.666 280.353 104.008 280.938 104.406 281.359C105.001 281.988 105.396 282.763 105.924 283.439C106.534 284.221 106.942 284.145 107.689 283.566C108.005 283.322 108.41 282.892 108.792 282.798C109.077 282.725 109.349 282.813 109.637 282.731C109.912 282.652 109.975 282.488 110.336 282.548C110.658 282.601 111.088 282.854 111.351 283.047C112.176 283.655 112.884 284.622 113.488 285.425C113.899 285.969 114.209 286.599 114.655 287.114C115.089 287.617 115.661 288.123 116.018 288.721C116.752 289.944 117.533 291.178 118.444 292.376C119.288 293.489 120.218 294.508 121.034 295.633C121.555 296.354 122.362 296.835 122.969 297.474C123.507 298.04 123.791 298.799 124.275 299.406C125.11 300.453 126.074 301.591 127.014 302.439C127.403 302.79 127.747 303.21 128.139 303.552C128.566 303.925 129.158 304.086 129.613 304.431C130.799 305.326 131.852 306.195 133.171 306.916C135.46 308.166 138.022 309.244 139.799 311.217C140.558 312.058 141.269 312.956 141.974 313.845C142.749 314.819 143.255 315.926 144.239 316.691C144.881 317.191 145.393 317.868 146.035 318.377C146.743 318.936 147.452 319.487 148.094 320.148C148.935 321.02 149.757 321.912 150.674 322.725C151.243 323.231 151.857 323.693 152.54 324.031C153.586 324.549 154.162 325.312 155.044 326.048C155.784 326.665 156.654 327.136 157.445 327.69C158.447 328.392 159.459 329.094 160.515 329.714C161.685 330.397 162.862 330.887 164.161 331.244C165.094 331.5 165.885 331.902 166.767 332.297C168.845 333.23 170.821 334.144 172.282 335.981C172.649 336.44 173.044 336.939 173.36 337.43C173.987 338.4 174.704 339.238 175.432 340.165C175.982 340.864 176.894 341.912 177.784 342.423C177.853 342.463 177.82 342.6 177.74 342.6H-16.3624C-15.6266 342.6 -17.0496 343.535 -17.4154 342.896C-17.8615 342.117 -18.125 341.276 -17.9404 340.295C-17.7253 339.159 -16.8209 338.657 -15.9197 338.084C-14.6263 337.262 -13.6871 336.101 -12.4854 335.165C-11.0984 334.088 -9.54724 333.251 -8.10632 332.252C-8.10388 332.251 -8.10242 332.248 -8.10242 332.245Z" fill="#5F9EFD"/>
<path d="M-8.65028 332.245C-8.65028 332.242 -8.64882 332.239 -8.64637 332.238C-6.51624 330.762 -4.35769 329.409 -2.18019 328.009C-0.545279 326.959 1.10545 326.001 2.63284 324.793C3.26847 324.29 3.9294 323.835 4.5081 323.262C5.00774 322.766 5.21013 322.26 5.5738 321.703C6.11455 320.878 6.82607 320.249 7.69254 319.904C8.83097 319.452 9.89351 318.917 10.9529 318.358C11.9205 317.845 12.8787 316.919 13.6788 316.185C14.6243 315.322 15.5983 314.395 16.6039 313.595C17.4072 312.953 18.0459 312.112 18.8618 311.499C19.8232 310.771 20.9458 310.319 21.9134 309.595C23.0614 308.735 24.0954 307.951 25.3667 307.296C26.4324 306.746 27.2767 305.788 28.3487 305.202C28.8484 304.931 29.1615 304.564 29.756 304.747C30.3473 304.931 30.8059 305.506 31.3593 305.667C31.7166 305.772 32.7823 305.898 33.1238 305.743C33.5887 305.535 33.8796 304.086 34.0789 303.577C34.3129 302.973 34.4014 302.344 34.5911 301.8C34.7145 301.446 34.8283 301.155 35.0086 300.816C35.1762 300.5 35.2995 300.08 35.4703 299.795C35.9826 298.944 37.2443 298.381 37.997 297.746C38.5251 297.3 38.8698 296.898 39.2176 296.376C39.4801 295.981 39.9987 295.599 40.3402 295.282C41.3775 294.321 42.4938 293.518 43.6512 292.718C44.3943 292.202 45.2386 291.902 45.9501 291.348C46.3518 291.035 46.7407 290.7 47.1613 290.409C47.7242 290.02 48.2555 289.6 48.8026 289.182C49.7355 288.471 50.5766 287.74 51.3988 286.909C52.4392 285.855 53.7769 285.289 54.8868 284.334C55.4687 283.832 56.1012 283.398 56.6451 282.848C57.1605 282.326 57.5811 281.732 58.1219 281.239C59.292 280.166 60.5759 279.142 61.4834 277.811C61.768 277.393 61.9135 277.08 62.2961 276.726C62.6471 276.4 62.9634 275.999 63.2701 275.629C63.5864 275.246 63.8425 274.822 64.1524 274.436C64.6394 273.826 65.3225 273.428 65.8189 272.827C66.2648 272.286 66.736 271.843 67.1977 271.328C67.6183 270.86 67.8681 270.253 68.2824 269.781C68.6208 269.396 69.0983 269.212 69.4683 268.864C69.7402 268.611 69.9015 268.286 70.1513 268.02C70.847 267.283 71.7167 266.727 72.5926 266.23C73.5919 265.661 74.3509 264.994 75.5051 265C77.0483 265.006 78.4966 265.971 79.945 266.474C80.8115 266.774 81.7159 267.131 82.5223 267.571C83.4931 268.096 84.1319 268.596 84.913 269.383C85.4601 269.936 86.083 270.3 86.6333 270.8C87.193 271.309 88.1069 271.518 88.7805 271.888C89.337 272.194 89.9379 272.599 90.4502 272.975C90.7696 273.209 90.9878 273.513 91.3514 273.706C91.87 273.978 92.2306 274.117 92.6543 274.538C95.0197 276.884 98.201 278.086 101.155 279.363C101.607 279.559 102.258 279.727 102.644 280.008C103.118 280.353 103.46 280.938 103.858 281.359C104.453 281.988 104.848 282.763 105.376 283.439C105.987 284.221 106.395 284.145 107.141 283.566C107.457 283.322 107.862 282.892 108.244 282.798C108.529 282.725 108.801 282.813 109.089 282.731C109.364 282.652 109.427 282.488 109.788 282.548C110.11 282.601 110.54 282.854 110.803 283.047C111.628 283.655 112.337 284.622 112.941 285.425C113.352 285.969 113.662 286.599 114.107 287.114C114.541 287.617 115.113 288.123 115.47 288.721C116.204 289.944 116.985 291.178 117.896 292.376C118.74 293.489 119.67 294.508 120.486 295.633C121.008 296.354 121.814 296.835 122.421 297.474C122.959 298.04 123.243 298.799 123.727 299.406C124.562 300.453 125.527 301.591 126.466 302.439C126.855 302.79 127.199 303.21 127.592 303.552C128.018 303.925 128.61 304.086 129.065 304.431C130.251 305.326 131.304 306.195 132.623 306.916C134.912 308.166 137.474 309.244 139.251 311.217C140.01 312.058 140.721 312.956 141.427 313.845C142.201 314.819 142.707 315.926 143.691 316.691C144.333 317.191 144.845 317.868 145.487 318.377C146.195 318.936 146.904 319.487 147.546 320.148C148.387 321.02 149.209 321.912 150.126 322.725C150.695 323.231 151.309 323.693 151.992 324.031C153.039 324.549 153.614 325.312 154.496 326.048C155.236 326.665 156.106 327.136 156.897 327.69C157.899 328.392 158.911 329.094 159.967 329.714C161.137 330.397 162.314 330.887 163.613 331.244C164.546 331.5 165.337 331.902 166.219 332.297C168.297 333.23 170.273 334.144 171.734 335.981C172.101 336.44 172.496 336.939 172.813 337.43C173.439 338.4 174.157 339.238 174.884 340.165C175.434 340.864 176.346 341.912 177.236 342.423C177.305 342.463 177.272 342.6 177.192 342.6H-16.9102C-16.1744 342.6 -17.5975 343.535 -17.9633 342.896C-18.4094 342.117 -18.6729 341.276 -18.4882 340.295C-18.2732 339.159 -17.3688 338.657 -16.4675 338.084C-15.1741 337.262 -14.2349 336.101 -13.0332 335.165C-11.6462 334.088 -10.0951 333.251 -8.65417 332.252C-8.65173 332.251 -8.65028 332.248 -8.65028 332.245Z" fill="url(#paint3_linear_199_1349)"/>
<path d="M346.207 299.126H-44C-46.7614 299.126 -49 301.364 -49 304.126V342.06C-49 344.821 -46.7614 347.06 -44 347.06H346.207C348.969 347.06 351.207 344.821 351.207 342.06V304.126C351.207 301.364 348.969 299.126 346.207 299.126Z" fill="url(#paint4_linear_199_1349)"/>
<path d="M268.032 307.291C266.963 307.179 265.891 307.113 264.814 307.083C263.267 307.04 261.986 306.778 260.601 307.484C258.105 308.757 255.601 310.586 253.359 312.249C251.646 313.518 249.829 315.679 247.695 316.257C246.291 316.639 244.281 316.381 242.853 316.092C239.532 315.412 236.021 315.046 232.66 315.725C229.635 316.335 227.004 317.488 223.879 317.349C222.629 317.295 221.371 317.245 220.121 317.241C218.311 317.237 217.509 316.616 215.973 315.721C214.418 314.814 212.79 314.398 211.077 313.877C209.657 313.445 207.933 313.047 206.432 313.341C203.685 313.877 200.544 316.485 198.939 318.704C197.736 320.37 197.122 322.924 194.78 323.341C192.176 323.804 189.275 322.6 186.693 323.221C183.943 323.881 181.234 325.178 178.526 326.03C174.664 327.246 170.728 328.195 166.882 329.46C163.961 330.421 161.557 329.576 158.706 329.128C156.268 328.743 153.71 329.29 151.264 328.831C146.757 327.986 142.324 326.277 137.864 325.162C134.372 324.29 130.572 323.573 126.972 323.495C126.012 323.476 124.789 323.218 123.851 323.434C122.813 323.673 121.984 324.603 121.05 325.089C118.878 326.212 116.231 326.227 113.885 326.806C109.923 327.786 105.459 326.478 101.412 326.794C93.2053 327.438 84.8832 326.794 76.6266 326.528C73.7021 326.435 70.7352 326.177 67.8068 326.215C66.0744 326.239 64.4 326.694 62.6677 326.682C59.8319 326.659 57.1504 326.185 54.4304 327.219C52.7289 327.867 51.1586 328.669 49.3877 329.125C48.1222 329.452 46.7564 329.777 45.7842 330.718C44.3065 332.153 44.4261 334.468 44.0518 336.347C43.7867 337.681 43.3676 338.969 42.9044 340.244C41.8731 343.084 43.6531 346.009 46.642 346.45L166.789 364.157L254.767 366.977C257.307 367.059 259.503 365.222 259.874 362.709L268.039 307.299C268.039 307.295 268.036 307.291 268.032 307.291Z" fill="#79A4FA"/>
<path opacity="0.44" d="M158.806 358.692C158.375 359.909 142.115 355.439 122.492 348.703C102.87 341.967 87.3111 335.513 87.7417 334.296C88.1724 333.079 104.433 337.549 124.055 344.285C143.678 351.022 159.238 357.47 158.806 358.692Z" fill="#9B9B9B"/>
<path d="M136.544 335.698C134.174 343.108 133.342 349.168 133.342 349.168L131.928 349.256C131.928 349.256 127.059 340.954 120.359 337.981C113.649 335.005 108.145 339.997 108.145 339.997L106.921 339.572C106.921 339.572 104.59 329.776 108.616 316.258C112.641 302.739 116.253 293.755 117.381 293.296C117.963 293.058 120.723 291.79 124.675 291.147C124.72 291.135 124.742 291.131 124.742 291.131C128.455 290.529 133.209 290.488 138.197 292.343C148.54 296.202 150.455 305.659 150.331 307.476C150.202 309.291 138.914 328.288 136.544 335.698Z" fill="url(#paint5_linear_199_1349)"/>
<path d="M134.008 324.452L133.175 325.712C133.175 325.712 129.499 327.194 124.924 327.032C124.924 327.032 124.924 327.032 124.915 327.029C122.494 326.943 119.809 326.396 117.295 324.928C112.288 322.005 112.418 317.631 112.979 315.209C112.993 315.169 113.001 315.149 113.001 315.149C113.257 314.095 113.581 313.426 113.581 313.426L114.595 312.371C114.595 312.371 117.588 317.537 123.158 320.859C128.77 324.205 134.014 324.449 134.014 324.449L134.008 324.452Z" fill="#590800"/>
<path d="M150.088 306.282C150.088 306.282 156.854 298.89 157.865 299.289C158.876 299.688 153.039 305.823 153.039 305.823C153.039 305.823 164.715 303.166 165.277 305.942C165.834 308.717 152.714 307.152 152.714 307.152C152.714 307.152 158.108 310.197 157.353 311.248C156.598 312.298 150.598 308.766 150.598 308.766L150.089 306.294L150.088 306.282Z" fill="#590800"/>
<path d="M137.104 299.761C137.104 299.761 139.798 301.286 142.046 304.034C144.294 306.782 144.527 308.868 144.527 308.868L144.723 307.342L145.686 308.275L147.589 307.085C147.589 307.085 146.627 303.626 144.368 300.77C142.039 297.835 138.718 296.06 138.718 296.06L138.059 297.439C138.059 297.439 138.72 297.96 139.541 298.648C140.223 299.224 140.804 300.087 140.804 300.087L137.848 298.096L137.11 299.758L137.104 299.761Z" fill="#590800"/>
<path d="M131.615 296.751C131.615 296.751 128.498 296.365 124.924 297.2C121.355 298.036 119.868 299.095 119.868 299.095L120.248 298.008L119.273 298.392L118.566 296.341C118.566 296.341 121.599 294.194 125.251 293.285C129.011 292.352 132.784 292.91 132.784 292.91L132.392 294.379C132.392 294.379 131.531 294.399 130.434 294.456C129.519 294.508 129.055 294.686 129.055 294.686L132.125 295.018L131.609 296.755L131.615 296.751Z" fill="#590800"/>
<path d="M142.623 315.496C144.738 311.074 143.871 306.338 140.686 304.918C137.502 303.498 133.205 305.932 131.09 310.354C128.975 314.777 129.842 319.512 133.027 320.932C136.211 322.352 140.508 319.918 142.623 315.496Z" fill="#9CA000"/>
<path d="M128.527 309.46C130.643 305.038 129.776 300.302 126.591 298.883C123.406 297.463 119.11 299.897 116.995 304.319C114.88 308.741 115.747 313.477 118.931 314.897C122.116 316.316 126.412 313.882 128.527 309.46Z" fill="#9CA000"/>
<path d="M128.052 309.235C129.971 305.276 129.367 301.114 126.701 299.939C124.035 298.763 120.318 301.02 118.399 304.979C116.479 308.938 117.084 313.1 119.749 314.275C122.415 315.45 126.132 313.194 128.052 309.235Z" fill="#CAE7EF"/>
<path d="M128.03 309.253C126.215 313.047 122.696 315.205 120.176 314.08C117.656 312.955 117.082 308.971 118.897 305.178C120.712 301.384 124.231 299.226 126.751 300.351C129.271 301.476 129.845 305.46 128.03 309.253Z" fill="white"/>
<path d="M126.713 308.574C125.515 311.075 123.196 312.498 121.537 311.754C119.872 311.014 119.496 308.383 120.693 305.886C121.891 303.384 124.209 301.962 125.868 302.705C127.527 303.449 127.909 306.077 126.713 308.574Z" fill="url(#paint6_linear_199_1349)"/>
<path d="M125.855 308.238C126.717 306.46 126.446 304.591 125.249 304.063C124.051 303.535 122.382 304.549 121.52 306.327C120.657 308.105 120.929 309.975 122.126 310.502C123.323 311.03 124.993 310.017 125.855 308.238Z" fill="#590800"/>
<path d="M127.182 309.553C128.266 309.136 128.878 307.991 128.549 306.995C128.221 305.999 127.075 305.531 125.992 305.948C124.908 306.365 124.295 307.51 124.624 308.505C124.953 309.501 126.098 309.97 127.182 309.553Z" fill="white"/>
<path d="M123.772 308.297C123.587 308.68 123.156 308.867 122.809 308.711C122.461 308.555 122.331 308.121 122.511 307.736C122.692 307.352 123.126 307.171 123.475 307.322C123.822 307.478 123.952 307.913 123.772 308.297Z" fill="white"/>
<path d="M131.602 310.27C129.564 314.189 130.016 318.408 132.611 319.694C135.207 320.981 138.963 318.85 141.001 314.93C143.039 311.011 142.588 306.793 139.992 305.506C137.397 304.219 133.64 306.351 131.602 310.27Z" fill="#CAE7EF"/>
<path d="M131.588 310.26C129.646 313.991 130.077 318.011 132.548 319.241C135.02 320.466 138.598 318.436 140.536 314.704C142.478 310.973 142.047 306.953 139.576 305.723C137.103 304.498 133.525 306.528 131.588 310.26Z" fill="white"/>
<path d="M132.954 310.843C131.677 313.303 131.96 315.954 133.589 316.765C135.218 317.575 137.577 316.232 138.855 313.772C140.133 311.312 139.85 308.661 138.221 307.851C136.592 307.04 134.232 308.384 132.954 310.843Z" fill="url(#paint7_linear_199_1349)"/>
<path d="M133.765 311.306C132.851 313.066 133.052 314.962 134.221 315.541C135.385 316.12 137.071 315.162 137.99 313.403C138.904 311.642 138.703 309.747 137.535 309.167C136.371 308.589 134.684 309.546 133.765 311.306Z" fill="#590800"/>
<path d="M137.189 312.977C136.653 314.009 136.974 315.218 137.902 315.677C138.835 316.138 140.025 315.675 140.559 314.648C141.094 313.621 140.775 312.407 139.847 311.948C138.914 311.488 137.724 311.95 137.189 312.977Z" fill="white"/>
<path d="M135.019 312.928C134.821 313.306 134.939 313.747 135.282 313.913C135.624 314.084 136.058 313.914 136.252 313.535C136.451 313.156 136.333 312.715 135.99 312.549C135.646 312.383 135.213 312.548 135.019 312.928Z" fill="white"/>
<path d="M124.906 326.86C124.906 326.86 124.906 326.86 124.897 326.857C122.479 326.771 119.797 326.225 117.287 324.761C112.287 321.845 112.416 317.483 112.976 315.067C112.991 315.027 112.998 315.007 112.998 315.007C112.998 315.007 117.897 318.708 121.134 322.434C124.365 326.163 124.913 326.856 124.913 326.856L124.906 326.86Z" fill="#8B1229"/>
<path d="M113.605 313.361L112.796 314.866C112.796 314.866 110.502 320.307 114.899 324.105C121.705 329.98 131.926 326.664 131.948 326.604C131.97 326.544 133.217 325.665 133.217 325.665C133.217 325.665 121.558 329.272 115.438 323.534C110.461 318.868 113.605 313.361 113.605 313.361Z" fill="#DCED00"/>
<path d="M131.91 349.159C131.91 349.159 127.044 340.861 120.348 337.889C113.643 334.914 108.143 339.904 108.143 339.904L106.919 339.479C106.919 339.479 104.59 329.688 108.613 316.175C112.636 302.663 116.246 293.683 117.372 293.224C117.954 292.986 120.713 291.718 124.662 291.076C124.001 291.238 118.57 292.945 113.561 306.328C108.216 320.611 108.394 330.214 114.206 333.498C120.014 336.78 121.59 335.763 127.104 341.418C132.532 346.986 131.834 349.682 131.91 349.159Z" fill="#9CA000"/>
<path d="M117.564 292.565C117.564 292.565 117.896 283.864 116.279 283.133C114.659 282.408 115.905 291.568 115.905 291.568C115.903 291.573 106.813 283.2 104.864 285.343C102.913 287.492 114.403 292.499 114.403 292.499C114.403 292.499 106.171 290.374 105.658 291.763C105.146 293.152 114.886 294.441 114.886 294.441L117.564 292.565Z" fill="#590800"/>
<path d="M144.967 320.214C144.967 320.214 142.669 335.214 142.603 336.039C142.537 336.864 143.52 337.74 144.4 338.096C145.281 338.453 146.506 338.654 146.439 338.96C146.37 339.272 144.956 338.998 144.159 338.701C143.361 338.405 143.02 337.882 143.02 337.882C143.02 337.882 143.242 338.608 143.969 339.054C144.878 339.608 146.155 339.611 146.246 339.803C146.338 339.99 145.135 340.362 143.909 339.918C143.015 339.596 142.613 339.128 142.613 339.128C142.613 339.128 142.787 339.822 143.582 340.274C144.377 340.726 145.179 340.652 145.351 340.995C145.522 341.338 144.074 341.527 143.216 341.081C142.356 340.639 141.297 338.395 141.297 338.395C141.297 338.395 141.688 339.841 141.581 340.366C141.473 340.892 140.841 341.092 140.841 341.092C140.841 341.092 140.967 340.147 140.737 339.278C140.507 338.408 141.616 336.44 141.69 336.114C141.764 335.788 141.526 326.912 141.526 326.912C141.526 326.912 144.358 320.476 144.967 320.214Z" fill="#B3CC00"/>
<path d="M110.59 308.119C110.59 308.119 102.584 321.228 102.096 321.913C101.608 322.598 100.266 322.704 99.3429 322.463C98.4243 322.223 97.329 321.655 97.1811 321.935C97.0314 322.22 98.3186 322.841 99.1369 323.079C99.9552 323.318 100.565 323.11 100.565 323.11C100.565 323.11 99.9163 323.548 99.055 323.468C97.9804 323.365 96.9782 322.612 96.7817 322.709C96.5869 322.801 97.2861 323.804 98.537 324.181C99.4477 324.455 100.069 324.327 100.069 324.327C100.069 324.327 99.4791 324.768 98.5603 324.652C97.6415 324.537 97.0616 324.005 96.7033 324.172C96.3451 324.339 97.356 325.343 98.3199 325.5C99.2819 325.663 101.579 324.53 101.579 324.53C101.579 324.53 100.328 325.432 100.068 325.907C99.8084 326.382 100.172 326.912 100.172 326.912C100.172 326.912 100.693 326.098 101.441 325.553C102.189 325.008 102.607 322.81 102.762 322.511C102.917 322.212 108.907 315.399 108.907 315.399C108.907 315.399 110.896 308.684 110.59 308.119Z" fill="#9CA000"/>
<path d="M107.194 338.527C107.194 338.527 102.105 337.537 102.196 338.178C102.288 338.819 106.184 338.838 106.184 338.838C106.184 338.838 101.583 339.109 101.639 339.649C101.7 340.191 106.721 339.387 106.721 339.387C106.721 339.387 103.1 340.614 103.592 341.171C104.085 341.728 108.448 338.963 108.448 338.963L107.198 338.529L107.194 338.527Z" fill="#9CA000"/>
<path d="M132.953 324.545L131.885 325.378L128.715 327.834L128.969 324.334L128.996 323.934L128.335 324.068L126.166 324.509L124.802 322.399L124.729 322.286L124.57 322.278L123.436 322.221L122.686 321.172L122.418 320.792L121.582 320.392L119.944 319.614L119.902 319.057L119.888 318.868L119.413 318.638L117.299 317.618L117.235 316.611L117.216 316.319L116.972 316.345L113.112 316.736L114.53 313.738L114.786 313.196C114.786 313.196 115.786 315.459 120.555 319.229C126.616 324.025 132.937 324.545 132.937 324.545L132.953 324.545Z" fill="white"/>
<path d="M132.944 324.693L131.87 325.537C131.37 325.381 130.329 325.039 128.946 324.482L128.972 324.076L128.308 324.212C127.261 323.772 126.052 323.21 124.758 322.523L124.685 322.408L124.525 322.4C124.319 322.286 124.107 322.175 123.894 322.053C123.474 321.822 123.056 321.558 122.631 321.28L122.362 320.895L121.522 320.49C120.946 320.066 120.381 319.599 119.834 319.139L119.82 318.947L119.343 318.714C118.546 318.017 117.805 317.311 117.155 316.657L117.137 316.362L116.891 316.388C115.412 314.896 114.442 313.75 114.442 313.75L114.7 313.201C114.7 313.201 115.704 315.493 120.497 319.309C126.587 324.165 132.94 324.692 132.94 324.692L132.944 324.693Z" fill="#CAE7EF"/>
<path d="M112.771 318.807L114.886 318.039L113.564 321.098C113.564 321.098 112.882 319.623 112.771 318.807Z" fill="white"/>
<path d="M121.233 326.2L123.122 323.945L123.15 326.51C123.15 326.51 122.065 326.49 121.232 326.205L121.233 326.2Z" fill="white"/>
<path d="M128.247 326.668L127.337 328.413L128.997 327.327L129.05 326.576L128.247 326.668Z" fill="#9CA000"/>
<path opacity="0.43" d="M142.498 321.42C142.147 321.05 139.05 326.122 137.277 331.102C135.505 336.082 134.099 340.836 134.452 340.956C134.985 341.138 136.37 335.578 138.362 330.699C140.353 325.82 142.853 321.792 142.496 321.414L142.498 321.42Z" fill="white"/>
<path opacity="0.43" d="M143.746 318.732C143.167 319.729 142.826 320.612 142.989 320.709C143.148 320.805 143.75 320.074 144.328 319.082C144.905 318.091 145.248 317.202 145.085 317.105C144.927 317.009 144.324 317.741 143.746 318.732Z" fill="white"/>
<path d="M110.298 325.165C110.07 326.799 109.386 328.1 108.775 328.069C108.164 328.038 107.854 326.685 108.083 325.051C108.312 323.417 108.995 322.116 109.606 322.147C110.217 322.177 110.527 323.531 110.298 325.165Z" fill="#DCED00"/>
<path d="M110.566 325.189C110.337 326.823 109.654 328.124 109.043 328.093C108.432 328.063 108.122 326.709 108.35 325.075C108.579 323.441 109.262 322.14 109.874 322.171C110.485 322.202 110.795 323.555 110.566 325.189Z" fill="#7A7A00"/>
<path d="M134.263 330.813C133.702 332.031 133.603 333.173 134.043 333.365C134.483 333.558 135.294 332.725 135.855 331.507C136.416 330.289 136.516 329.147 136.076 328.955C135.635 328.762 134.824 329.595 134.263 330.813Z" fill="#DCED00"/>
<path d="M134.064 330.728C133.503 331.946 133.404 333.088 133.844 333.28C134.284 333.473 135.095 332.639 135.656 331.421C136.217 330.204 136.317 329.062 135.877 328.87C135.437 328.677 134.625 329.51 134.064 330.728Z" fill="#7A7A00"/>
<path d="M133.929 335.349C133.555 336.157 133.49 336.915 133.784 337.038C134.076 337.166 134.612 336.611 134.984 335.807C135.358 334.999 135.423 334.241 135.13 334.118C134.838 333.99 134.302 334.545 133.929 335.349Z" fill="#DCED00"/>
<path d="M133.802 335.288C133.427 336.097 133.362 336.854 133.656 336.978C133.948 337.105 134.484 336.55 134.856 335.747C135.231 334.938 135.296 334.181 135.002 334.058C134.71 333.93 134.174 334.485 133.802 335.288Z" fill="#7A7A00"/>
<path d="M110.68 329.933C110.562 330.779 110.21 331.445 109.895 331.429C109.579 331.413 109.419 330.716 109.537 329.87C109.655 329.025 110.007 328.358 110.323 328.374C110.638 328.39 110.798 329.088 110.68 329.933Z" fill="#DCED00"/>
<path d="M110.818 329.949C110.7 330.795 110.348 331.461 110.032 331.445C109.717 331.43 109.557 330.732 109.675 329.886C109.793 329.041 110.145 328.375 110.46 328.39C110.776 328.406 110.936 329.104 110.818 329.949Z" fill="#7A7A00"/>
<path d="M108.247 330.062C108.162 330.663 107.912 331.146 107.685 331.132C107.458 331.118 107.347 330.62 107.429 330.018C107.515 329.417 107.764 328.934 107.991 328.948C108.218 328.962 108.329 329.459 108.247 330.062Z" fill="#DCED00"/>
<path d="M108.344 330.074C108.258 330.676 108.009 331.158 107.782 331.144C107.555 331.13 107.444 330.633 107.525 330.03C107.611 329.429 107.86 328.946 108.087 328.96C108.314 328.975 108.425 329.472 108.344 330.074Z" fill="#7A7A00"/>
<path d="M108.392 319.786C108.202 320.39 107.871 320.833 107.65 320.777C107.43 320.721 107.402 320.188 107.589 319.578C107.779 318.975 108.111 318.531 108.331 318.587C108.551 318.643 108.579 319.177 108.392 319.786Z" fill="#DCED00"/>
<path d="M108.493 319.816C108.303 320.419 107.972 320.863 107.751 320.807C107.531 320.751 107.503 320.217 107.69 319.608C107.88 319.005 108.212 318.561 108.432 318.617C108.653 318.673 108.68 319.207 108.493 319.816Z" fill="#7A7A00"/>
<path d="M134.688 322.406C134.688 322.406 134.212 323.75 133.666 325.236C133.119 326.722 132.102 328.569 132.102 328.569C132.102 328.569 133.821 327.338 134.511 325.675C135.198 324.017 134.688 322.406 134.688 322.406Z" fill="#9CA000"/>
<path d="M116.439 310.774C116.439 310.774 114.5 312.129 113.524 313.104C112.549 314.079 111.088 315.949 111.088 315.949C111.088 315.949 111.851 313.021 113.271 311.798C114.647 310.615 116.439 310.774 116.439 310.774Z" fill="#9CA000"/>
<path d="M111.579 322.486C111.579 322.486 112.479 325.225 115.713 327.098C119.371 329.219 122.178 329.114 122.178 329.114C122.178 329.114 118.777 329.868 114.86 327.74C112.106 326.247 111.577 322.479 111.577 322.479L111.579 322.486Z" fill="#9CA000"/>
<path d="M209.342 313.404C209.342 313.405 209.341 313.405 209.34 313.405C206.64 313.046 203.631 312.228 200.058 310.874C193.06 308.227 189.317 306.645 182.627 310.191C180.984 311.061 181.762 313.401 183.622 313.401H209.341C209.342 313.401 209.343 313.403 209.342 313.404Z" fill="#5F9EFD"/>
<path d="M398.217 267.812C398.216 267.812 398.215 267.812 398.215 267.812C389.657 264.837 370.39 261.358 361.397 265.008C354.989 267.608 353.287 275.506 348.893 279.912C340.262 288.566 331.345 286.953 317.749 286.602C306.827 286.32 308.513 290.105 300.997 295.345C297.054 298.095 291.44 294.372 287.347 296.332C281.563 299.102 279.75 302.725 277.165 304.982C266.053 314.697 250.069 309.848 237.225 318.096C233.324 320.6 230.724 324.586 225.951 325.195C221.989 325.701 215.815 324.011 211.996 325.257C207.127 326.843 203.571 331.638 200.437 336.482C197.999 340.252 201.172 346.527 205.662 346.527H391.318C394.177 346.527 396.454 344.135 396.312 341.28C396.156 338.12 395.999 334.96 395.843 331.801L398.22 267.813C398.22 267.811 398.218 267.811 398.217 267.812Z" fill="url(#paint8_linear_199_1349)"/>
<g style="mix-blend-mode:overlay" opacity="0.28">
<path d="M-138.849 173.738C-138.849 173.738 -109.147 183.882 -90.3127 183.882C-71.4785 183.882 -70.7548 182.434 -66.4066 186.053C-62.0585 189.677 -61.3348 191.849 -51.9205 191.125C-42.5063 190.401 -26.567 193.296 -19.3239 196.197C-12.0808 199.097 -4.8378 194.749 3.85843 196.197C12.549 197.644 39.3557 207.788 66.8805 205.611C66.8805 205.611 1.68723 203.44 -35.9812 199.815C-73.6497 196.191 -125.081 183.152 -138.843 173.738H-138.849Z" fill="white"/>
</g>
<g style="mix-blend-mode:overlay" opacity="0.28">
<path d="M101 139C101 139 127.543 144.676 143.726 142.802C159.91 140.929 160.387 139.63 164.485 142.275C168.583 144.92 169.426 146.699 177.446 145.148C185.466 143.597 199.454 144.479 205.97 146.219C212.487 147.966 218.279 143.55 225.893 143.912C233.508 144.274 257.56 150.241 281 145.66C281 145.66 224.755 150.289 192.022 150.95C159.289 151.611 113.778 145.636 101.008 139H101Z" fill="white"/>
</g>
<g style="mix-blend-mode:overlay" opacity="0.28">
<path d="M-264.978 114C-264.978 114 -53.1589 162.673 138.289 173.834C329.736 184.986 452.964 130.224 452.964 130.224L455 138.34C455 138.34 296.138 200.201 38.4898 179.915C-219.158 159.636 -266 140.367 -266 140.367L-264.978 114Z" fill="white"/>
</g>
<path opacity="0.2" d="M-114 -39C-114 -39 25.9239 96.1757 291 109C291 109 289.028 102.09 278.192 100.116C267.356 98.1421 255.526 103.078 252.569 96.168C249.611 89.2584 239.761 69.5246 219.066 68.5452C198.372 67.5659 185.564 79.3954 174.72 72.4935C163.876 65.5917 151.068 52.7597 140.232 53.7468C129.396 54.7338 102.787 62.6305 98.8433 50.7855C94.9001 38.9406 94.9001 18.2274 72.2341 -7.42893C49.5681 -33.0852 -18.4223 12.3049 -29.2585 -2.49354C-40.0948 -17.292 -43.0522 -39 -56.8459 -39H-114Z" fill="white"/>
<path opacity="0.2" d="M191 111.94C191 111.94 19.9634 114.287 -98.1857 89.6113C-216.326 64.9354 -261 28.5062 -261 28.5062C-261 28.5062 -235.136 40.2596 -223.968 39.0815C-212.799 37.9034 -198.694 24.392 -189.293 26.1591C-179.892 27.9262 -172.839 50.8349 -165.197 52.013C-157.555 53.1911 -152.85 46.7208 -122.291 47.3098C-91.7312 47.8988 -89.3742 67.8715 -75.8577 77.2779C-62.3412 86.6752 -23.5504 80.803 -5.32899 80.214C12.8924 79.6249 22.2932 98.4286 34.051 100.776C45.8088 103.123 70.4939 94.3144 75.779 96.0725C81.0641 97.8305 84.5996 104.89 90.474 104.301C96.3483 103.712 95.1789 97.2505 101.053 100.776C106.928 104.301 123.39 109.004 128.086 103.712C132.791 98.4195 190.973 111.94 190.973 111.94H191Z" fill="white"/>
<path opacity="0.2" d="M150 29.5247C150 29.5247 308.199 61.3008 382 55.2288C382 55.2288 366.856 48.7868 358.318 49.6287C349.781 50.4706 343.587 55.3053 333.491 45.7508C323.408 36.1963 295.451 27.3179 280.371 35.7371C265.305 44.1563 253.625 39.9849 249.349 36.6938C245.074 33.4027 240 36.5152 230.664 36.3239C221.315 36.1453 210.344 10.7091 197.196 11.0025C184.048 11.2959 179.992 29.3717 172.123 24.7283C164.255 20.085 150 29.5247 150 29.5247Z" fill="white"/>
<path d="M136.718 342.086H-19V310.169C-17.521 309.7 -15.954 309.235 -14.2988 308.781C-5.23943 306.305 6.44116 304.2 20.8405 303.649C28.8111 303.347 37.6188 303.52 47.2729 304.376C83.7307 307.601 116.954 327.586 136.718 342.086Z" fill="url(#paint9_linear_199_1349)"/>
<g style="mix-blend-mode:screen" opacity="0.34">
<path d="M136.718 342.086H130.573C122.879 336.469 109.188 327.061 98.2685 322.74C82.1542 316.362 69.7341 316.025 58.3179 310.99C46.9047 305.953 31.7974 306.289 23.4019 305.619C15.0097 304.946 5.94398 306.289 -2.785 308.303C-7.35087 309.357 -13.8457 311.604 -19 313.508V310.169C-17.521 309.7 -15.954 309.235 -14.2988 308.781C-5.23943 306.305 6.44116 304.2 20.8405 303.649C28.8111 303.347 37.6188 303.52 47.2729 304.376C83.7307 307.601 116.954 327.586 136.718 342.086Z" fill="white"/>
</g>
<path style="mix-blend-mode:multiply" opacity="0.46" d="M99.5366 342.086H-19V310.169C-17.521 309.7 -15.954 309.235 -14.2988 308.781C-14.5096 309.423 -14.604 310.103 -14.5568 310.811C-14.3869 313.278 -12.4202 315.333 -10.1577 316.33C-7.8984 317.328 -5.36215 317.466 -2.89198 317.57C10.0725 318.121 23.0621 318.121 36.0265 317.57C37.6565 317.501 39.3463 317.432 40.8662 318.023C42.3892 318.615 43.7108 320.056 43.6133 321.686C43.4748 324.052 40.5987 325.604 40.5641 327.976C40.5421 329.487 41.7693 330.79 43.1759 331.34C44.5856 331.891 46.1432 331.85 47.6536 331.797C59.7905 331.365 71.9368 330.598 84.0674 331.202C87.1008 331.35 90.1877 331.601 93.004 332.741C95.8204 333.88 98.366 336.054 99.244 338.962C99.5524 339.981 99.6373 341.038 99.5366 342.086Z" fill="url(#paint10_linear_199_1349)"/>
<path d="M88.042 287.941C86.7268 288.842 85.629 290.564 86.295 292.033L87.1368 293.89C87.5897 294.889 88.8788 295.173 89.5383 294.314C90.1095 293.57 90.5871 292.752 90.958 291.878C91.9251 289.447 92.2187 285.049 91.1314 284.961C91.1274 284.961 91.1235 284.959 91.1197 284.958C91.1158 284.957 91.1115 284.957 91.1075 284.957C90.0026 284.921 89.3901 286.923 88.042 287.941Z" fill="#FFBF59"/>
<path opacity="0.13" d="M87.7714 293.306C87.4573 293.674 87.3076 294.207 87.5096 294.654C87.7861 295.265 88.5738 295.441 89.0154 294.947C89.8251 294.041 90.4841 293.001 90.9638 291.868C91.2648 291.109 91.5002 290.159 91.6487 289.208C92.0432 286.682 90.894 286.918 89.9727 289.296C89.7764 289.803 89.56 290.302 89.3241 290.792C88.6822 292.084 88.1592 292.851 87.7714 293.306Z" fill="#590800"/>
<path d="M57.7809 286.948C57.8552 287.266 57.9229 287.541 57.9882 287.776C58.1028 288.189 58.2031 288.49 58.2821 288.705C58.3761 288.997 58.7044 289.117 58.9934 289.023L63.4952 287.559C63.7522 287.475 63.7982 287.125 63.5777 286.964C62.6995 286.353 61.9072 285.623 61.2236 284.794C60.7295 284.039 60.1903 283.315 59.6093 282.626C59.4784 282.456 59.3112 282.32 59.1208 282.227C58.9304 282.133 58.722 282.086 58.512 282.088C57.5541 282.198 57.3621 285.145 57.7809 286.948Z" fill="#FFBF59"/>
<path opacity="0.13" d="M58.2739 287.521C58.1079 287.686 58.0471 287.995 58.1175 288.221C58.2142 288.532 58.5267 288.627 58.8336 288.526L60.5611 287.958C61.8069 287.548 62.0672 285.817 61.2236 284.794C61.2067 284.768 61.1898 284.742 61.1729 284.717C60.6622 283.943 59.5061 284.294 59.3694 285.202C59.3193 285.705 59.1713 286.192 58.9341 286.634C58.7581 286.963 58.5355 287.261 58.2739 287.521Z" fill="#590800"/>
<path d="M53.7598 317.539C55.474 317.494 56.0833 315.93 54.7209 314.869C52.9703 313.507 50.8248 311.833 50.3162 311.422C49.4242 310.7 49.1793 310.331 46.7999 308.499C45.5283 307.521 43.7864 307.166 43.669 307.42C43.5516 307.675 44.6108 307.913 45.1257 308.225C45.2962 308.33 45.1654 308.552 44.9756 308.49C44.6907 308.396 44.4008 308.317 44.1073 308.254C42.6435 307.869 42.0563 308.033 42.0486 308.297C42.0409 308.561 42.9433 308.594 43.9824 308.94C43.9909 308.943 43.9994 308.945 44.0079 308.948C44.1695 309.001 44.0586 309.354 43.8892 309.353C42.563 309.257 42.0263 309.231 42.015 309.544C42.0036 309.857 43.2853 309.9 43.8002 310.043C43.8406 310.054 43.8847 310.066 43.9317 310.078C44.0294 310.103 44.0006 310.34 43.9 310.34C43.3109 310.359 42.5675 310.328 42.5001 310.589C42.4327 310.849 43.5896 310.903 44.1205 311C44.6514 311.096 45.8397 311.251 45.9162 311.366C45.9927 311.481 45.3801 311.979 44.9131 312.033C44.4461 312.088 44.1451 312.276 44.237 312.515C44.3289 312.754 45.2841 312.586 45.896 312.424C46.5078 312.263 47.999 311.639 48.2028 311.696C48.3443 311.735 50.4445 314.535 51.7159 316.244C52.3233 317.061 52.7488 317.565 53.7598 317.539Z" fill="#B70400"/>
<path d="M85.1146 312.652C85.0737 314.343 86.6098 315.069 87.7483 313.83C89.2372 312.209 91.0846 310.202 91.5344 309.731C92.3165 308.911 92.7086 308.702 94.7019 306.506C95.7673 305.334 96.2217 303.641 95.969 303.502C95.7163 303.364 95.4145 304.391 95.0705 304.873C94.9531 305.035 94.7368 304.882 94.8116 304.696C94.9214 304.424 95.0162 304.146 95.0956 303.863C95.5653 302.449 95.4296 301.853 95.161 301.821C94.8925 301.79 94.8105 302.681 94.4029 303.679C94.399 303.689 94.3951 303.698 94.3911 303.708C94.3273 303.866 93.9759 303.721 93.9862 303.551C94.1539 302.247 94.2088 301.718 93.8902 301.679C93.5716 301.64 93.4604 302.905 93.2877 303.403C93.2741 303.442 93.2596 303.485 93.2447 303.53C93.2126 303.628 92.9723 303.578 92.9777 303.475C92.9897 302.89 93.0608 302.157 92.799 302.068C92.5371 301.978 92.4202 303.119 92.2939 303.636C92.1676 304.153 91.946 305.315 91.8246 305.381C91.7032 305.446 91.2278 304.796 91.1978 304.33C91.1677 303.863 90.9922 303.548 90.7459 303.619C90.4995 303.689 90.6183 304.648 90.7504 305.269C90.8826 305.889 91.4387 307.419 91.3704 307.616C91.3232 307.752 88.3771 309.572 86.5646 310.681C85.689 311.217 85.1394 311.622 85.1146 312.652Z" fill="url(#paint11_linear_199_1349)"/>
<path opacity="0.5" d="M85.3499 311.99C85.4071 312.723 86.3116 313.048 86.8106 312.515C87.4832 311.797 86.5625 310.698 85.7308 311.226C85.472 311.39 85.326 311.683 85.3499 311.99Z" fill="#B70400"/>
<path d="M53.0242 319.186C53.8275 323.768 55.2868 328.579 55.7746 334.219C56.1787 338.891 59.0485 342.997 60.0221 344.269C60.2216 344.53 60.5358 344.666 60.8616 344.65L61.7871 344.604C61.8475 344.601 61.8944 344.55 61.8969 344.49C61.8971 343.837 61.9916 340.407 63.604 337.741C65.3937 334.791 74.4563 336.497 76.619 338.342C78.5433 339.984 81.594 344.202 82.2432 345.112C82.3262 345.229 82.435 345.32 82.5639 345.381C82.991 345.586 83.489 345.392 83.6281 344.945C84.2833 342.838 85.832 336.722 85.1967 327.568C84.3995 316.082 86.956 312.182 87.9058 304.022C88.3631 300.082 88.2231 295.386 86.2432 291.592C86.243 291.592 86.2427 291.591 86.2425 291.591L86.2422 291.591C86.2417 291.59 86.2414 291.589 86.2412 291.589C86.241 291.588 86.241 291.587 86.2411 291.587L86.2411 291.586C86.2412 291.586 86.2413 291.585 86.2415 291.585C86.242 291.584 86.2421 291.583 86.2415 291.582C86.2387 291.577 86.236 291.574 86.2344 291.57C86.233 291.567 86.2322 291.563 86.2304 291.559C84.487 288.241 81.332 285.613 75.9293 284.796C75.021 284.661 74.1067 284.578 73.1909 284.548C72.817 284.535 72.4377 284.526 72.0467 284.529C62.7044 284.565 56.5821 288.66 55.5715 290.064C55.5022 290.149 55.4524 290.248 55.4256 290.356C55.2667 291.34 55.4509 292.78 56.4017 295.597C57.3526 298.413 57.0565 303.362 54.2293 308.075C51.4022 312.788 52.2166 314.602 53.0242 319.186Z" fill="url(#paint12_linear_199_1349)"/>
<path d="M74.3547 313.468C70.3683 313.664 66.8529 309.399 66.5028 303.943C66.1527 298.487 69.1005 293.906 73.0869 293.711C77.0733 293.516 80.5887 297.781 80.9388 303.236C81.2889 308.692 78.3411 313.273 74.3547 313.468Z" fill="#B70400"/>
<path d="M56.9346 302.431C57.0054 303.994 57.59 305.497 58.595 306.699C58.8632 307.003 59.2592 307.145 59.6612 307.171C59.7037 307.174 59.7467 307.176 59.7902 307.179L60.0071 307.193L60.0114 307.193C60.3901 307.222 60.801 307.264 61.2404 307.319C61.6406 307.369 61.9948 307.416 62.3222 307.461C62.5278 307.487 62.718 307.515 62.8962 307.538C63.1114 307.565 63.3317 307.523 63.5013 307.391C63.5804 307.33 63.6571 307.265 63.731 307.197C64.9298 306.109 65.6578 304.176 65.5188 302.011C65.3098 298.753 63.2182 296.204 60.8515 296.32C58.4849 296.436 56.7256 299.174 56.9346 302.431Z" fill="#B70400"/>
<path d="M74.055 312.545C70.5486 312.698 67.4169 308.82 67.0603 303.883C66.7037 298.947 69.2571 294.821 72.7636 294.669C76.27 294.517 79.4016 298.395 79.7583 303.331C80.1149 308.268 77.5614 312.393 74.055 312.545Z" fill="#CAE7EF"/>
<path d="M73.716 312.138C70.3759 312.284 67.3929 308.589 67.0532 303.887C66.7135 299.185 69.1458 295.256 72.4859 295.11C75.826 294.965 78.8091 298.659 79.1488 303.362C79.4884 308.064 77.0561 311.993 73.716 312.138Z" fill="white"/>
<path d="M71.0453 308.593C69.1492 308.675 67.4559 306.578 67.2631 303.909C67.0702 301.239 68.4509 299.009 70.347 298.926C72.243 298.844 73.9363 300.941 74.1292 303.61C74.322 306.279 72.9413 308.51 71.0453 308.593Z" fill="url(#paint13_linear_199_1349)"/>
<path d="M67.6906 303.896C67.8286 305.806 69.0401 307.306 70.3967 307.247C71.7534 307.188 72.7408 305.592 72.6028 303.683C72.4649 301.773 71.2533 300.273 69.8972 300.332C68.541 300.391 67.5527 301.987 67.6906 303.896Z" fill="#590800"/>
<path d="M74.1595 305.586C73.0815 305.633 72.1423 304.77 72.0618 303.658C71.9813 302.546 72.7899 301.607 73.8679 301.56C74.9459 301.513 75.8851 302.377 75.9656 303.489C76.0461 304.6 75.2375 305.54 74.1595 305.586Z" fill="white"/>
<path d="M70.9801 305.43C70.5856 305.448 70.242 305.132 70.2125 304.725C70.1831 304.318 70.4789 303.974 70.8734 303.957C71.2679 303.94 71.6115 304.256 71.641 304.663C71.6704 305.07 71.3746 305.413 70.9801 305.43Z" fill="white"/>
<path d="M57.9909 303.035C58.0197 303.434 58.0839 303.831 58.1829 304.221C58.3837 305.091 58.7841 305.905 59.3499 306.593C59.49 306.761 59.6429 306.917 59.8069 307.06C59.9115 307.151 60.0442 307.2 60.181 307.209L60.1847 307.209C60.5522 307.241 60.9503 307.282 61.3759 307.338C61.7636 307.388 62.1086 307.436 62.4238 307.481C62.7863 307.53 63.1617 307.48 63.4421 307.256C63.4933 307.215 63.5432 307.173 63.5917 307.128C64.5946 306.225 65.1936 304.575 65.0601 302.728C64.8615 299.98 63.1205 297.82 61.1656 297.905C59.5102 297.977 58.2404 299.639 58.0131 301.821C57.9682 302.223 57.9608 302.629 57.9909 303.035Z" fill="#CAE7EF"/>
<path d="M57.9867 303.037C58.0154 303.436 58.0797 303.833 58.1787 304.222C58.3913 305.098 58.8176 305.91 59.4164 306.58C59.6419 306.822 59.8963 307.033 60.1732 307.208C60.1752 307.21 60.1776 307.21 60.18 307.21C60.5473 307.242 60.9453 307.283 61.3708 307.34C61.3866 307.342 61.4022 307.344 61.4178 307.346C62.0754 307.431 62.7803 307.41 63.2674 306.978C64.0899 306.202 64.5978 305.131 64.695 303.97C64.7217 303.746 64.7362 303.52 64.7385 303.293L64.7382 303.289C64.7404 303.109 64.7353 302.928 64.7219 302.744C64.533 300.129 62.872 298.072 61.0125 298.153C59.4519 298.221 58.2458 299.774 58.0098 301.822C57.9646 302.224 57.9568 302.631 57.9867 303.037Z" fill="white"/>
<path d="M60.8298 303.422C60.9372 304.907 61.8797 306.074 62.9347 306.028C63.9897 305.982 64.7579 304.741 64.6506 303.256C64.5433 301.77 63.6011 300.604 62.5461 300.649C61.4911 300.695 60.7225 301.936 60.8298 303.422Z" fill="url(#paint14_linear_199_1349)"/>
<path d="M61.7458 303.49C61.8226 304.553 62.4968 305.388 63.2516 305.355C64.0063 305.322 64.5561 304.434 64.4793 303.372C64.4026 302.309 63.7283 301.474 62.9736 301.507C62.2188 301.54 61.6691 302.428 61.7458 303.49Z" fill="#590800"/>
<path d="M62.9691 303.54C62.9828 303.728 63.0505 303.911 63.1637 304.064C63.2769 304.216 63.4304 304.332 63.6049 304.397C63.7794 304.462 63.9671 304.473 64.1441 304.429C64.3211 304.384 64.4796 304.286 64.5995 304.147C64.7194 304.007 64.7953 303.833 64.8176 303.646C64.8399 303.459 64.8076 303.268 64.7249 303.097C64.6421 302.925 64.5126 302.781 64.3526 302.683C64.1927 302.584 64.0095 302.536 63.8263 302.544C63.5806 302.555 63.3523 302.665 63.1915 302.852C63.0308 303.039 62.9507 303.286 62.9691 303.54Z" fill="white"/>
<path d="M61.8533 304.149C61.8593 304.23 61.8884 304.308 61.937 304.374C61.9856 304.439 62.0516 304.489 62.1265 304.517C62.2015 304.545 62.282 304.549 62.358 304.53C62.434 304.511 62.502 304.469 62.5534 304.409C62.6049 304.349 62.6374 304.275 62.647 304.194C62.6565 304.114 62.6427 304.032 62.6071 303.959C62.5716 303.885 62.516 303.824 62.4473 303.781C62.3787 303.739 62.3 303.719 62.2214 303.722C62.1691 303.724 62.1181 303.737 62.0713 303.76C62.0245 303.782 61.9828 303.815 61.9487 303.854C61.9145 303.894 61.8885 303.94 61.8721 303.991C61.8557 304.042 61.8493 304.095 61.8533 304.149Z" fill="white"/>
<path d="M64.4346 297.557C64.5957 297.622 64.742 297.475 64.6623 297.321C64.282 296.584 63.2496 294.956 60.9722 293.43C59.2756 292.294 57.9117 291.658 57.0318 291.317C56.7093 291.193 56.5087 291.537 56.7546 291.781C56.9975 292.022 56.788 292.428 56.4528 292.365L55.7639 292.235C55.376 292.162 55.0421 292.498 55.1654 292.873C55.4211 293.652 55.83 294.375 56.3697 294.997C57.629 296.341 61.3366 296.76 63.4182 298.086C63.5479 298.169 63.676 298.254 63.8025 298.341C64.0402 298.505 64.3777 298.238 64.2528 297.978L64.1808 297.828C64.1013 297.663 64.2644 297.489 64.4346 297.557Z" fill="#590800"/>
<path d="M67.2771 297.426C67.0386 298.067 67.7043 298.495 68.2966 298.154C69.4778 297.473 70.742 296.945 72.0607 296.583C73.912 296.159 76.4178 295.804 77.8033 295.623C78.0768 295.588 78.1224 295.207 77.8652 295.102C77.6518 295.015 77.631 294.709 77.8118 294.571C78.0804 294.366 78.3162 294.118 78.5101 293.836C79.3339 292.773 78.0696 291.386 76.7438 291.651C75.7981 291.841 74.6994 292.064 73.5563 292.305C70.0356 293.047 68.0022 294.937 67.2588 295.76C67.1262 295.906 67.2472 296.12 67.4453 296.1C67.6271 296.082 67.7625 296.274 67.6872 296.439C67.5729 296.69 67.4203 297.042 67.2771 297.426Z" fill="#590800"/>
<path opacity="0.88" d="M60.4037 337.574C60.3271 339.175 62.8011 339.057 63.626 337.693C65.4142 334.743 74.4697 336.449 76.6306 338.293C78.5534 339.935 81.6019 344.152 82.2504 345.062C82.3333 345.178 82.442 345.269 82.5707 345.331C82.9975 345.535 83.4951 345.342 83.634 344.895C84.2887 342.789 85.8363 336.674 85.2015 327.523C84.4049 316.039 86.9594 312.14 87.9084 303.982C88.093 302.391 87.0695 302.578 86.7492 304.146C86.445 305.635 85.9705 307.13 85.2628 308.552C81.5285 316.053 79.7394 331.372 74.417 332.804C69.0946 334.236 64.1021 332.138 61.4603 334.739C60.7528 335.436 60.4572 336.455 60.4037 337.574Z" fill="#B70400"/>
<path opacity="0.5" d="M64.2134 324.951C64.8831 324.999 65.8454 326.491 65.2282 326.743C64.8951 326.88 64.5364 326.977 64.1529 327.019C63.5819 327.081 63.0533 327.043 62.5649 326.928C62.3874 326.886 64.032 324.938 64.2134 324.951Z" fill="#B70400"/>
<path d="M61.7325 324.982C62.5256 325.226 62.353 324.398 61.5666 324.133C61.2289 324.022 60.591 324.518 60.9136 324.668C61.0024 324.71 61.0933 324.749 61.1863 324.787C61.3691 324.862 61.5513 324.927 61.7325 324.982Z" fill="#5B1800"/>
<path opacity="0.43" d="M60.0467 322.711C60.716 323.282 60.8518 322.202 60.2291 321.581C59.5591 320.902 59.0158 320.116 58.6165 319.265C58.4455 318.9 57.9165 318.954 58.0246 319.342C58.3172 320.389 58.831 321.364 59.53 322.196C59.6927 322.386 59.8656 322.557 60.0467 322.711Z" fill="white"/>
<path opacity="0.43" d="M57.6168 315.279C57.6105 315.695 57.6976 316.035 57.8108 316.039C57.924 316.043 58.0204 315.709 58.0272 315.292C58.034 314.876 57.9466 314.538 57.8332 314.532C57.7198 314.526 57.6222 314.863 57.6168 315.279Z" fill="white"/>
<path d="M65.6348 309.671C66.154 309.847 66.6706 309.422 66.5953 308.881C66.5008 308.201 65.6115 307.993 65.2407 308.564C64.9788 308.967 65.1737 309.514 65.6348 309.671Z" fill="white"/>
<path d="M56.0359 308.691C56.3501 308.611 56.5169 308.271 56.3897 307.97C56.1849 307.485 55.4804 307.542 55.3708 308.052C55.2868 308.443 55.6482 308.79 56.0359 308.691Z" fill="white"/>
<path d="M62.7795 309.919C64.0318 310.092 64.4732 309.216 63.235 308.955C63.1263 308.932 63.0174 308.91 62.9084 308.889C58.0286 307.954 55.9445 308.462 55.2503 308.74C55.0798 308.809 55.0355 309.005 55.1313 309.164L55.9167 310.468C56.0786 310.737 56.4854 310.535 56.3631 310.246C56.3143 310.131 56.3579 310.004 56.4742 309.961C57.0055 309.769 58.7156 309.358 62.7795 309.919Z" fill="#590800"/>
<path d="M63.382 296.349C63.5126 296.372 63.5958 296.219 63.5052 296.122C62.9417 295.515 62.3434 294.942 61.7136 294.407C60.9476 293.804 60.1214 293.287 59.2496 292.865C59.1003 292.792 58.9647 292.963 59.0648 293.096C59.1535 293.213 59.0534 293.376 58.9092 293.35C58.7105 293.314 58.6067 293.673 58.7903 293.758C59.3913 294.037 59.9798 294.345 60.5538 294.68C61.4448 295.221 62.2614 295.879 62.9822 296.636C63.0798 296.739 63.2571 296.646 63.2218 296.51C63.1976 296.416 63.277 296.331 63.372 296.347L63.382 296.349Z" fill="#8C130D"/>
<path d="M68.7314 295.157C68.5997 295.202 68.5012 295.044 68.6052 294.952C69.6075 294.066 70.7841 293.404 72.0617 293.01C73.6598 292.506 75.2929 292.12 76.9485 291.856C77.1251 291.828 77.1999 292.063 77.0395 292.141C76.8708 292.223 76.9653 292.479 77.1483 292.436L77.3667 292.385C77.5668 292.338 77.6688 292.584 77.4874 292.679C76.5121 293.19 75.4765 293.579 74.403 293.835C72.5921 294.399 70.8321 295.113 69.1403 295.97C68.9158 296.084 68.6644 295.848 68.7682 295.619L68.8958 295.337C68.9434 295.232 68.8405 295.119 68.7314 295.157Z" fill="#8C130D"/>
<path d="M58.6796 306.693C58.4302 306.76 58.5026 307.112 58.7617 307.118C58.8739 307.12 58.9924 307.124 59.1168 307.128C59.3425 307.137 59.59 307.149 59.8569 307.168C59.9266 307.173 59.9991 307.177 60.0711 307.181L60.0748 307.181C60.4495 307.211 60.8555 307.25 61.2894 307.305C61.6846 307.354 62.0363 307.4 62.3576 307.444C62.5608 307.47 62.7493 307.497 62.9254 307.52C63.0429 307.535 63.1519 307.549 63.2539 307.564C63.3718 307.581 63.4816 307.596 63.5833 307.611C63.8715 307.652 64.0075 307.321 63.7498 307.183C63.6897 307.15 63.6251 307.113 63.5544 307.077C63.4567 307.025 63.3459 306.975 63.2304 306.924C62.655 306.67 62.0485 306.502 61.4296 306.425C60.717 306.35 59.9994 306.389 59.3025 306.542L59.2298 306.558C59.0343 306.6 58.8509 306.645 58.6796 306.693Z" fill="#B70400"/>
<path d="M83.3107 309.633C83.2126 311.138 83.6032 312.408 84.1832 312.469C84.7632 312.529 85.3132 311.357 85.4118 309.851C85.5103 308.345 85.1197 307.075 84.5397 307.015C83.9598 306.955 83.4092 308.126 83.3107 309.633Z" fill="#FF5B57"/>
<path d="M83.0677 309.612C82.9692 311.118 83.3598 312.388 83.9398 312.448C84.5198 312.508 85.0703 311.336 85.1689 309.83C85.2674 308.324 84.8768 307.054 84.2963 306.994C83.7159 306.933 83.1661 308.103 83.0677 309.612Z" fill="#8C0000"/>
<path d="M82.2863 322.266C82.2208 323.265 82.4798 324.107 82.8643 324.147C83.2488 324.186 83.6134 323.41 83.6789 322.411C83.7444 321.413 83.4849 320.571 83.1008 320.531C82.7168 320.491 82.3517 321.268 82.2863 322.266Z" fill="#FF5B57"/>
<path d="M82.0957 322.267C82.0303 323.265 82.2893 324.107 82.6738 324.147C83.0583 324.187 83.4233 323.41 83.4883 322.412C83.5534 321.413 83.2948 320.571 82.9103 320.531C82.5258 320.491 82.1612 321.268 82.0957 322.267Z" fill="#8C0000"/>
<path d="M82.9603 328.58C82.8948 329.578 83.1543 330.421 83.5383 330.46C83.9224 330.5 84.2874 329.723 84.3529 328.725C84.4183 327.726 84.1593 326.884 83.7748 326.845C83.3904 326.805 83.0258 327.581 82.9603 328.58Z" fill="#FF5B57"/>
<path d="M82.7744 328.59C82.7089 329.589 82.968 330.431 83.3524 330.471C83.7369 330.51 84.1015 329.734 84.1665 328.735C84.2315 327.736 83.973 326.895 83.589 326.855C83.2049 326.815 82.8399 327.592 82.7744 328.59Z" fill="#8C0000"/>
<path d="M80.826 325.967C80.7829 326.642 80.957 327.211 81.2171 327.238C81.4773 327.265 81.7231 326.74 81.767 326.065C81.811 325.39 81.6365 324.822 81.3763 324.795C81.1162 324.768 80.8699 325.292 80.826 325.967Z" fill="#FF5B57"/>
<path d="M80.7004 325.974C80.6573 326.649 80.8313 327.218 81.091 327.245C81.3507 327.272 81.597 326.747 81.6414 326.072C81.6857 325.397 81.5109 324.829 81.2507 324.802C80.9906 324.774 80.7443 325.299 80.7004 325.974Z" fill="#8C0000"/>
<path d="M86.0402 296.448C86.1688 297.117 86.4799 297.622 86.7353 297.577C86.9906 297.532 87.0933 296.954 86.9649 296.283C86.8366 295.612 86.5253 295.109 86.2699 295.154C86.0145 295.199 85.912 295.78 86.0402 296.448Z" fill="#FF5B57"/>
<path d="M85.9204 296.488C86.0486 297.157 86.36 297.662 86.615 297.617C86.8699 297.573 86.9735 296.994 86.8451 296.323C86.7168 295.653 86.4055 295.149 86.1501 295.194C85.8948 295.239 85.7923 295.821 85.9204 296.488Z" fill="#8C0000"/>
<path d="M79.8912 316.216C79.7444 318.458 80.3261 320.35 81.19 320.439C82.0539 320.527 82.8733 318.783 83.0196 316.54C83.1658 314.297 82.5847 312.406 81.7208 312.317C80.8569 312.229 80.0375 313.973 79.8912 316.216Z" fill="#FF5B57"/>
<path d="M79.5203 316.184C79.3735 318.426 79.9556 320.319 80.8195 320.407C81.6835 320.495 82.5025 318.752 82.6497 316.508C82.7968 314.265 82.2143 312.374 81.3504 312.286C80.4865 312.197 79.667 313.941 79.5203 316.184Z" fill="#8C0000"/>
<path d="M85.0404 302.146C84.937 303.724 85.3465 305.056 85.9545 305.119C86.5625 305.182 87.139 303.954 87.2424 302.375C87.3458 300.797 86.9363 299.466 86.3283 299.403C85.7204 299.34 85.1441 300.572 85.0404 302.146Z" fill="#FF5B57"/>
<path d="M84.7816 302.152C84.6782 303.731 85.0873 305.062 85.6957 305.125C86.3041 305.188 86.8797 303.96 86.9831 302.382C87.0866 300.803 86.677 299.472 86.0691 299.409C85.4611 299.346 84.8845 300.574 84.7816 302.152Z" fill="#8C0000"/>
<path opacity="0.26" d="M62.4469 286.271C58.9732 287.499 59.9384 290.942 63.6367 290.843C65.3397 290.798 67.0391 290.646 68.7254 290.386C72.2963 289.786 74.9823 288.733 76.8045 287.805C78.1529 287.118 77.8435 285.379 76.3855 284.923C76.2891 284.893 76.1906 284.87 76.0908 284.855C75.2211 284.729 74.3462 284.652 73.4699 284.623C73.0916 284.61 72.7079 284.601 72.3123 284.604C68.4301 284.618 65.0974 285.333 62.4469 286.271Z" fill="white"/>
<path d="M72.8928 284.968C75.4903 285.161 77.5504 281.732 75.2652 280.456C71.6353 278.538 68.9124 278.138 67.4352 278.096C67.0407 278.085 66.9733 278.519 67.334 278.684L67.8063 278.899C68.1767 279.069 67.9854 279.795 67.5803 279.79C66.5301 279.755 65.7547 279.811 65.1995 279.893C64.7407 279.961 64.7597 280.425 65.2087 280.552L67.5224 281.207C67.8523 281.301 67.7723 282.017 67.4347 282.064C66.4484 282.111 66.3667 283.301 67.2625 283.731L69.1022 284.614C69.3701 284.743 69.658 284.811 69.9536 284.818C70.5225 284.833 71.5918 284.871 72.8928 284.968Z" fill="#590800"/>
<path d="M1.67497 332.291L-6.50334 333.7C-6.50334 333.7 -15.8082 304.093 -16.6546 290.842C-16.6578 290.795 -16.6609 290.748 -16.6641 290.704V290.7C-17.1298 282.173 -8.72177 303.791 -3.13321 318.955C-0.389277 326.4 1.67497 332.291 1.67497 332.291Z" fill="url(#paint15_linear_199_1349)"/>
<g style="mix-blend-mode:multiply" opacity="0.46">
<path d="M1.67497 332.291L-6.50333 333.7C-6.50333 333.7 -15.8082 304.093 -16.6546 290.842C-16.6578 290.795 -16.6609 290.748 -16.6641 290.704C-14.839 298.199 -11.1007 312.907 -8.17109 320.276C-6.04076 325.638 -4.30063 322.813 -3.1332 318.955C-0.389267 326.4 1.67497 332.291 1.67497 332.291Z" fill="#4194F2"/>
</g>
<path d="M26.27 250.888C26.27 250.888 25.2536 260.055 24.2341 260.87C23.2146 261.685 20.1623 270.442 20.1623 270.442C20.1623 270.442 18.9382 279.199 18.1232 281.641C17.6008 283.211 15.1464 288.636 13.4598 292.324C13.4598 292.356 13.4598 292.384 13.4629 292.415C13.4661 292.51 13.4661 292.604 13.4692 292.702C13.7681 306.689 14.6901 344.481 14.6901 344.481L4.13291 344.616L0.476429 344.663L-6.35508 344.748L-2.48463 280.537C-2.48463 280.537 -5.92083 273.925 -6.44948 272.607C-6.97813 271.285 -8.56093 260.977 -8.56093 259.394C-8.56093 258.585 -10.622 255.099 -12.6422 251.873C-14.5806 248.774 -16.4875 245.916 -16.4875 245.916L-21.7771 239.84L-26 230.063L-25.6224 229.607L-24.6847 228.477L-19.9237 236.665C-19.9237 236.665 -8.8284 248.824 -7.50363 249.881C-6.18831 250.939 -3.28074 260.715 -3.01327 261.773C-2.78986 262.682 0.769075 270.247 1.75714 272.336C1.91763 272.673 2.00887 272.868 2.00887 272.868L2.02776 272.437L3.3242 241.955V215.79L4.60177 215.551L6.41427 215.214L7.55653 215L10.055 236.221C10.055 236.221 10.0708 236.203 10.0959 236.171H10.0991C10.6214 235.539 15.6971 229.409 15.9488 228.654C16.2131 227.864 16.5404 220.022 16.5404 220.022L18.3057 218.474L18.6518 218.169C18.6518 218.169 19.7091 224.248 19.9766 225.57C20.2378 226.891 18.1232 233.764 17.3334 234.821C16.6159 235.775 11.3452 242.581 10.3571 243.858C10.2533 243.994 10.1966 244.066 10.1966 244.066C10.1966 244.066 10.4641 247.575 10.8134 251.861C11.32 258.028 11.9997 265.81 12.3144 267.059C12.5252 267.912 12.7392 271.024 12.9217 274.592L14.3157 273.617L17.1068 271.66L19.3473 260.662C19.3473 260.662 21.5846 259.444 22.3996 259.032C23.2146 258.629 23.825 250.275 23.825 250.275L25.5054 250.696L26.27 250.888Z" fill="url(#paint16_linear_199_1349)"/>
<g style="mix-blend-mode:overlay" opacity="0.45">
<path d="M26.2699 250.888C26.2699 250.888 25.2535 260.055 24.234 260.87C23.2144 261.685 20.1621 270.442 20.1621 270.442C20.1621 270.442 19.3597 278.752 18.5447 281.194C18.0224 282.764 15.1463 288.636 13.4596 292.324C13.4596 292.356 13.4596 292.384 13.4628 292.415C12.4464 289.413 13.7806 284.133 14.5956 283.271C15.6309 282.176 18.9821 274.133 19.2873 273.4C19.5926 272.67 19.2873 272.242 19.1646 271.207C19.0419 270.171 21.1754 266.757 21.2981 266.21C21.4208 265.662 20.8104 264.016 20.7506 263.101C20.6876 262.188 23.2491 260.848 23.7966 260.055C24.3441 259.262 24.407 258.167 24.6493 256.949C24.8507 255.942 25.3416 252.034 25.5052 250.696L26.2699 250.888Z" fill="white"/>
</g>
<g style="mix-blend-mode:overlay" opacity="0.45">
<path d="M17.3334 234.821C16.616 235.775 11.3452 242.581 10.3571 243.859C9.9764 243.305 9.76557 242.622 9.77187 241.952C9.7876 240.592 10.5491 239.334 11.5372 238.402C12.1539 237.817 12.8619 237.335 13.4535 236.725C14.1741 235.982 14.6996 235.076 15.2157 234.179C16.0716 232.694 16.9275 231.212 17.7802 229.727C18.054 229.252 18.3341 228.761 18.397 228.216C18.4505 227.738 18.3278 227.25 18.3876 226.772C18.4631 226.152 18.8281 225.608 19.0075 225.01C19.6368 222.889 17.8526 220.513 18.3057 218.474L18.6519 218.169C18.6519 218.169 19.7092 224.248 19.9766 225.57C20.2378 226.892 18.1232 233.764 17.3334 234.821Z" fill="white"/>
</g>
<g style="mix-blend-mode:overlay" opacity="0.45">
<path d="M1.75722 272.336C1.06495 272.547 0.360083 271.748 0.00135803 271.049C-2.37756 266.417 -3.93203 261.42 -5.83894 256.578C-6.55639 254.756 -7.32733 252.953 -8.17695 251.187C-8.5514 250.407 -8.94789 249.63 -9.50486 248.966C-10.3262 247.987 -11.4464 247.314 -12.4722 246.552C-14.0644 245.366 -15.4616 243.918 -16.5944 242.288C-17.4094 241.111 -18.108 239.818 -19.2156 238.912C-19.7348 238.487 -20.3327 238.154 -20.7858 237.663C-22.0036 236.341 -21.8935 234.214 -22.998 232.795C-23.4039 232.272 -23.9546 231.879 -24.4203 231.407C-24.9332 230.891 -25.3391 230.274 -25.6223 229.607L-24.6846 228.477L-19.9236 236.665C-19.9236 236.665 -8.82832 248.824 -7.50355 249.881C-6.18822 250.939 -3.28066 260.715 -3.01319 261.773C-2.78978 262.682 0.769156 270.247 1.75722 272.336Z" fill="white"/>
</g>
<g style="mix-blend-mode:overlay" opacity="0.45">
<path d="M10.0959 236.171C10.0864 236.228 10.077 236.281 10.0644 236.338C9.99201 236.681 9.74657 237.125 9.41617 236.999C9.22736 236.926 9.15499 236.7 9.10779 236.505C8.79312 235.167 8.47845 233.833 8.16378 232.496C7.9026 231.388 7.63828 230.265 7.63198 229.126C7.62569 227.832 7.9498 226.558 7.97183 225.268C8.03161 221.869 6.0303 218.461 6.4142 215.214L7.55646 215L10.0549 236.221C10.0549 236.221 10.0707 236.203 10.0959 236.171Z" fill="white"/>
</g>
<g style="mix-blend-mode:overlay" opacity="0.45">
<path d="M14.3156 273.617C14.303 273.777 14.2873 273.935 14.2653 274.095C14.1772 274.731 13.9569 275.436 13.3779 275.713C12.6982 276.04 11.8517 275.565 11.4993 274.895C11.15 274.224 11.1595 273.431 11.1721 272.676C11.2161 269.378 11.0934 266.077 10.9738 262.783C10.914 261.156 10.8574 259.526 10.6906 257.909C10.5553 256.593 9.6459 254.217 9.98889 252.965C10.162 252.333 10.4452 251.99 10.8133 251.861C11.32 258.028 11.9996 265.81 12.3143 267.059C12.5251 267.912 12.7391 271.024 12.9216 274.592L14.3156 273.617Z" fill="white"/>
</g>
<g style="mix-blend-mode:overlay" opacity="0.45">
<path d="M14.6902 344.481L4.13299 344.616C3.95363 342.719 4.43822 340.727 5.8039 339.424C6.73532 338.534 7.99715 338.03 8.89397 337.105C10.2313 335.72 10.5334 333.669 10.7694 331.759C11.2477 327.851 11.726 323.857 10.9142 320.003C10.2282 316.746 8.64538 313.332 9.90721 310.251C10.7254 308.256 12.6417 306.796 13.1703 304.703C13.7336 302.472 12.5693 300.197 12.3302 297.906C12.1414 296.11 12.5567 294.263 13.4693 292.702C13.7682 306.689 14.6902 344.481 14.6902 344.481Z" fill="white"/>
</g>
<path style="mix-blend-mode:multiply" opacity="0.3" d="M4.41618 264.718C4.34066 266.442 4.26514 268.176 4.49485 269.888C4.70883 271.487 5.11475 273.356 3.99767 274.52C3.86866 274.655 3.70818 274.781 3.52252 274.784C3.20156 274.791 2.99387 274.457 2.85541 274.168C2.5785 273.592 2.3016 273.016 2.02783 272.437L3.32428 241.955V215.79L4.60184 215.551C3.8718 219.975 3.919 224.525 4.73086 228.937C4.98259 230.296 5.3067 231.646 5.47662 233.018C5.72522 235.045 5.63711 237.093 5.54585 239.129C5.17139 247.66 4.79379 256.187 4.41618 264.718Z" fill="url(#paint17_linear_199_1349)"/>
<path style="mix-blend-mode:multiply" opacity="0.3" d="M0.429109 305.902C1.12453 310.795 1.63115 315.311 0.592734 320.141C-0.215971 323.892 -2.05994 327.589 -1.4243 331.372C-1.21977 332.596 -0.760348 333.76 -0.436237 334.956C0.0766773 336.844 0.256036 338.804 0.391345 340.755C0.482599 342.048 0.551828 343.367 0.476308 344.663L-6.3552 344.748L-2.48475 280.537C-2.48475 280.537 -5.92096 273.925 -6.4496 272.607C-6.97825 271.285 -8.56105 260.977 -8.56105 259.394C-8.56105 258.585 -10.6221 255.099 -12.6423 251.873C-11.5819 252.512 -10.6725 253.365 -10.3326 254.529C-10.1785 255.064 -10.1501 255.637 -9.91728 256.143C-9.25647 257.572 -7.24572 257.909 -6.46848 259.277C-5.9776 260.146 -6.10347 261.216 -6.01851 262.21C-5.77306 265.124 -3.65533 267.591 -3.22737 270.483C-2.9662 272.258 -3.35324 274.133 -2.73963 275.817C-2.21728 277.242 -1.05299 278.328 -0.348129 279.668C0.49519 281.267 0.636787 283.129 0.759509 284.933C0.942019 287.569 1.12768 290.206 1.31018 292.843C1.40144 294.156 1.48955 295.493 1.16229 296.767C0.803568 298.174 -0.0366058 299.411 -0.496025 300.789C-0.955445 302.167 -0.927125 303.895 0.18681 304.829C0.372466 304.983 0.592738 305.122 0.690287 305.345C0.787834 305.569 0.671406 305.902 0.429109 305.902Z" fill="url(#paint18_linear_199_1349)"/>
<path d="M49.9107 244.878C48.394 246.137 46.4997 247.09 44.4134 247.804C35.1086 250.998 22.0403 249.466 22.0403 249.466C8.98775 249.466 16.9269 239.412 16.9269 239.412C16.9269 239.412 16.0175 238.789 15.1805 237.811C13.9407 236.366 12.8488 234.141 15.0452 231.989H15.0483C15.4039 231.637 15.8507 231.287 16.3951 230.944C22.569 227.064 42.6796 225.299 49.2059 226.536C55.7321 227.769 48.3216 235.885 48.3216 235.885C48.3216 235.885 51.097 236.479 52.4722 238.062C53.6899 239.466 53.8064 241.646 49.9107 244.878Z" fill="url(#paint19_linear_199_1349)"/>
<path style="mix-blend-mode:multiply" d="M44.4134 247.804C35.1085 250.998 22.0402 249.466 22.0402 249.466C8.98769 249.466 16.9268 239.412 16.9268 239.412C16.9268 239.412 16.0174 238.789 15.1804 237.811C16.0426 238.172 16.9646 238.412 17.7765 238.871C18.0345 239.016 18.3051 239.223 18.3303 239.519C18.3649 239.925 17.9338 240.193 17.5939 240.416C16.5209 241.13 15.8538 242.42 15.8979 243.707C15.9388 244.994 16.6877 246.241 17.8048 246.883C18.3554 247.197 18.9753 247.37 19.5984 247.502C26.7855 249.013 34.2086 245.202 41.4743 246.259C42.6103 246.423 43.8721 246.826 44.4134 247.804Z" fill="url(#paint20_linear_199_1349)"/>
<path d="M34.2812 207.564C34.2812 207.564 34.898 207.844 35.4172 208.361C36.2731 209.213 36.8552 210.708 33.9131 212.634C33.6267 212.823 33.3026 213.014 32.9439 213.213C26.7008 216.633 15.1272 215.019 15.1272 215.019C6.65627 216.356 1.73166 214.997 2.77008 211.727C3.81164 208.458 7.38001 206.227 7.38001 206.227C7.38001 206.227 6.2409 204.912 7.97159 202.662C10.6526 199.175 14.0385 195.94 21.1752 195.789C21.6441 195.78 22.0689 195.786 22.4622 195.808C23.1576 195.84 23.7366 195.915 24.2212 196.025C27.6291 196.784 26.254 199.093 26.254 199.093C26.254 199.093 38.7401 195.676 41.2669 200.283C43.7938 204.89 34.2812 207.564 34.2812 207.564Z" fill="url(#paint21_linear_199_1349)"/>
<g opacity="0.28">
<path d="M33.9131 212.634C33.6267 212.823 33.3026 213.014 32.9439 213.213C26.7008 216.633 15.1272 215.019 15.1272 215.019C6.65627 216.356 1.73166 214.997 2.77008 211.727C3.81164 208.458 7.38001 206.227 7.38001 206.227C7.38001 206.227 6.2409 204.912 7.97159 202.662C10.6526 199.175 14.0385 195.94 21.1752 195.789C21.6441 195.78 22.0689 195.786 22.4622 195.808C23.1576 195.84 23.7366 195.915 24.2212 196.025C23.3622 196.916 22.5629 197.879 22.1853 199.043C21.7133 200.491 22.1129 202.341 23.466 203.033C21.4112 204.235 19.4445 205.588 17.5911 207.083C16.9366 207.608 16.2506 208.241 16.1782 209.075C16.1027 209.943 16.7572 210.739 17.5502 211.101C18.3432 211.46 19.2431 211.473 20.1116 211.451C24.5264 211.34 28.9255 210.532 33.0918 209.065C33.8533 208.795 34.6242 208.502 35.4172 208.361C36.2731 209.213 36.8553 210.708 33.9131 212.634Z" fill="url(#paint22_linear_199_1349)" style="mix-blend-mode:multiply"/>
</g>
<path style="mix-blend-mode:multiply" d="M33.9131 212.634C33.6267 212.823 33.3026 213.014 32.9439 213.213C26.7008 216.633 15.1272 215.019 15.1272 215.019C6.65627 216.356 1.73166 214.997 2.77008 211.727C3.81164 208.458 7.38001 206.227 7.38001 206.227C7.38001 206.227 6.2409 204.912 7.97159 202.662C10.6526 199.175 14.0385 195.94 21.1752 195.789C21.6441 195.78 22.0689 195.786 22.4622 195.808L22.0468 195.837C19.8536 196.746 18.1858 198.817 17.7673 201.151C17.6037 202.064 17.6068 203.033 17.1694 203.848C16.5904 204.934 15.3821 205.488 14.3468 206.152C12.8993 207.08 11.6753 208.351 10.8005 209.83C10.382 210.544 10.0358 211.425 10.3757 212.181C10.7785 213.081 11.9459 213.345 12.9245 213.232C13.9 213.115 14.8566 212.741 15.8352 212.823C16.946 212.914 17.9278 213.578 19.0103 213.839C21.1689 214.361 23.3779 213.235 25.5995 213.216C27.0501 213.203 28.4819 213.663 29.9293 213.559C31.2856 213.461 32.582 212.876 33.9131 212.634Z" fill="url(#paint23_linear_199_1349)"/>
<path d="M22.9247 203.439C19.8882 207.004 11.1529 207.067 11.1529 207.067C11.1529 207.067 10.5141 209.248 7.2132 211.227C3.9123 213.21 -2.81851 211.756 -2.81851 211.756C-15.8899 210.437 -7.17671 202.121 -7.17671 202.121C-7.17671 202.121 -12.589 200.535 -11.2706 198.291C-11.1573 198.096 -11.0346 197.91 -10.9056 197.734C-9.55562 195.849 -7.57319 194.858 -7.57319 194.858C-7.57319 194.858 -8.11443 194.556 -8.4763 193.964C-8.83188 193.388 -9.01753 192.536 -8.36616 191.425C-7.04454 189.181 -0.0462589 184.562 5.36609 184.033C10.7784 183.505 10.9106 189.446 10.9106 189.446C10.9106 189.446 19.8504 187.957 23.4911 190.135C23.9065 190.383 24.2526 190.679 24.5075 191.028C27.0155 194.461 20.4137 198.159 20.4137 198.159C20.4137 198.159 21.8926 198.615 22.9059 199.55C23.853 200.425 24.3942 201.715 22.9247 203.439Z" fill="url(#paint24_linear_199_1349)"/>
<path style="mix-blend-mode:multiply" d="M22.9247 203.439C19.8882 207.004 11.1529 207.067 11.1529 207.067C11.1529 207.067 10.5141 209.248 7.2132 211.227C3.9123 213.21 -2.81851 211.756 -2.81851 211.756C-15.8899 210.437 -7.17671 202.121 -7.17671 202.121C-7.17671 202.121 -12.589 200.535 -11.2706 198.291C-11.1573 198.096 -11.0346 197.91 -10.9056 197.734C-9.55562 195.849 -7.57319 194.858 -7.57319 194.858C-7.57319 194.858 -8.11443 194.556 -8.4763 193.964C-7.13265 194.861 -5.40511 195.091 -3.76882 195.226C-4.6971 195.544 -5.64111 195.871 -6.4152 196.469C-7.19244 197.067 -7.78088 197.992 -7.71794 198.971C-7.65186 199.981 -6.88721 200.849 -5.96522 201.268C-5.04009 201.686 -3.98909 201.712 -2.98214 201.595C-3.14262 203.26 -2.07274 204.899 -0.584348 205.657C0.904047 206.416 2.71655 206.369 4.28047 205.787C5.88215 205.192 7.27929 204.056 8.18554 202.608C10.9578 203.332 13.8937 203.414 16.7037 202.844C17.5848 202.668 18.4847 202.41 19.1581 201.819C19.8347 201.227 20.2217 200.223 19.8567 199.402C19.4634 198.524 18.4218 198.178 17.4935 197.923C19.6049 197.378 21.5213 196.11 22.8461 194.377C23.7712 193.162 24.3061 191.286 23.4911 190.135C23.9065 190.383 24.2526 190.679 24.5075 191.028C27.0155 194.461 20.4137 198.159 20.4137 198.159C20.4137 198.159 21.8926 198.615 22.9059 199.55C23.853 200.425 24.3942 201.715 22.9247 203.439Z" fill="url(#paint25_linear_199_1349)"/>
<path style="mix-blend-mode:multiply" d="M22.9247 203.439C19.8882 207.004 11.1529 207.067 11.1529 207.067C11.1529 207.067 10.5141 209.248 7.2132 211.227C3.9123 213.21 -2.81851 211.756 -2.81851 211.756C-15.8899 210.437 -7.17671 202.121 -7.17671 202.121C-7.17671 202.121 -12.589 200.535 -11.2706 198.291C-11.1573 198.096 -11.0346 197.91 -10.9056 197.734C-10.6475 197.954 -10.4147 198.209 -10.2133 198.47C-9.62485 199.222 -9.12767 200.094 -8.30952 200.585C-7.82808 200.874 -7.26796 201.01 -6.76763 201.268C-6.26416 201.526 -5.7953 201.966 -5.75754 202.526C-5.73551 202.825 -5.83936 203.115 -5.93376 203.398C-6.16347 204.097 -6.33024 204.886 -5.99984 205.541C-5.66628 206.199 -4.62472 206.485 -4.19677 205.887C-2.2584 207.914 0.589377 209.034 3.38995 208.873C6.19052 208.71 8.89355 207.272 10.5865 205.038C12.5374 205.072 14.501 205.107 16.4173 204.748C18.3368 204.389 20.2249 203.603 21.5905 202.212C22.2954 201.497 22.8492 200.519 22.9059 199.55C23.853 200.424 24.3942 201.715 22.9247 203.439Z" fill="url(#paint26_linear_199_1349)"/>
<path d="M10.4763 210.988C10.4039 211.274 10.2938 211.545 10.149 211.797C8.54104 214.585 2.69131 215.261 -1.69521 216.061C-6.47821 216.929 -10.1001 218.232 -13.2877 215.044C-16.4753 211.857 -13.8667 210.409 -13.8667 210.409C-13.8667 210.409 -18.9392 210.554 -18.2154 207.8C-18.099 207.35 -17.7371 206.954 -17.2179 206.602C-16.532 206.133 -15.5659 205.746 -14.5055 205.431C-11.45 204.512 -7.6362 204.175 -7.6362 204.175C-7.6362 204.175 4.24578 200.554 7.4334 202.583C10.621 204.613 5.84116 207.074 5.84116 207.074C5.84116 207.074 8.22008 207.262 9.60149 208.379C10.3252 208.962 10.7752 209.795 10.4763 210.988Z" fill="url(#paint27_linear_199_1349)"/>
<path style="mix-blend-mode:multiply" d="M9.04143 206.938L8.4939 206.617C8.70473 206.683 8.89038 206.793 9.04143 206.938Z" fill="url(#paint28_linear_199_1349)"/>
<path style="mix-blend-mode:multiply" d="M10.4763 210.988C10.4039 211.274 10.2938 211.545 10.149 211.797C8.54104 214.585 2.69131 215.261 -1.69521 216.06C-6.47821 216.929 -10.1001 218.232 -13.2877 215.044C-16.4753 211.856 -13.8667 210.409 -13.8667 210.409C-13.8667 210.409 -18.9392 210.554 -18.2154 207.8C-18.099 207.35 -17.7371 206.954 -17.2179 206.601C-16.532 206.133 -15.5659 205.746 -14.5055 205.431C-14.4551 205.831 -14.4079 206.233 -14.2537 206.595C-13.6999 207.882 -12.0322 208.162 -10.635 208.257C-11.4658 209.053 -11.557 210.44 -10.978 211.432C-10.399 212.423 -9.26305 213.011 -8.11765 213.093C-6.97225 213.178 -5.82999 212.804 -4.83877 212.225C-4.67829 212.133 -4.51466 212.03 -4.33215 212.001C-4.11188 211.967 -3.89162 212.036 -3.67764 212.102C-0.134443 213.2 3.82727 212.885 7.15335 211.243C8.08477 210.783 9.01934 210.167 9.43156 209.213C9.54484 208.955 9.60149 208.666 9.60149 208.379C10.3252 208.962 10.7752 209.795 10.4763 210.988Z" fill="url(#paint29_linear_199_1349)"/>
<path style="mix-blend-mode:multiply" d="M10.149 211.797C8.54104 214.585 2.69131 215.261 -1.69521 216.06C-6.47821 216.929 -10.1001 218.232 -13.2877 215.044C-16.4753 211.856 -13.8667 210.409 -13.8667 210.409C-13.8667 210.409 -18.9392 210.554 -18.2154 207.8C-18.099 207.35 -17.7371 206.954 -17.2179 206.601C-17.1613 207.555 -16.6138 208.518 -15.8208 209.09C-14.625 209.953 -13.0485 210.097 -11.5759 209.981C-12.5105 210.494 -13.3727 211.303 -13.5615 212.35C-13.8132 213.76 -12.7213 215.142 -11.3934 215.68C-10.0655 216.218 -8.57392 216.111 -7.15161 215.935C-3.38499 215.466 0.318684 214.588 4.01292 213.713C6.10234 213.216 8.21378 212.712 10.149 211.797Z" fill="url(#paint30_linear_199_1349)"/>
<path d="M21.2667 342.335C21.2667 342.335 19.6111 324.249 24.5495 315.444C27.5477 310.098 33.1005 308.219 37 307.569" stroke="url(#paint31_linear_199_1349)" stroke-width="0.74" stroke-miterlimit="10"/>
<path d="M34.8439 310.409C32.823 311.346 28.1147 314.099 25.84 317.026C23.6838 319.802 21.6131 317.259 22.6093 314.915C22.6639 314.787 22.7279 314.659 22.8015 314.531C23.9614 312.541 29.8818 307.031 33.5536 307C34.3719 306.993 35.0788 307.259 35.5959 307.894C35.5959 307.894 36.8649 309.474 34.8439 310.409Z" fill="url(#paint32_linear_199_1349)"/>
<g style="mix-blend-mode:multiply" opacity="0.28">
<path d="M34.8439 310.409C32.823 311.346 28.1147 314.099 25.84 317.026C23.6838 319.802 21.6131 317.259 22.6093 314.915C23.615 315.198 24.9623 315.174 26.7555 314.538C30.8875 313.077 32.7732 309.282 33.5536 307C34.3719 306.993 35.0788 307.259 35.5959 307.894C35.5959 307.894 36.8649 309.474 34.8439 310.409Z" fill="#82007E"/>
</g>
<path d="M46.3247 317.681C46.3247 317.681 46.3247 317.681 46.3228 317.685C46.2622 317.94 42.411 334.364 44.299 340.07C44.299 340.07 50.9333 329.707 46.3238 317.683L46.3247 317.681Z" fill="url(#paint33_linear_199_1349)"/>
<g style="mix-blend-mode:multiply" opacity="0.28">
<path d="M46.3157 317.685C46.2551 317.94 42.4071 334.358 44.2936 340.061C44.2936 340.061 47.1922 329.609 46.3157 317.685Z" fill="#82007E"/>
</g>
<path d="M60.2268 324.906C60.2268 324.906 60.2259 324.908 60.225 324.911C60.0091 325.067 46.2141 335.174 43.5228 341.135C43.5228 341.135 54.9672 337.95 60.2288 324.907L60.2268 324.906Z" fill="url(#paint34_linear_199_1349)"/>
<g style="mix-blend-mode:multiply" opacity="0.28">
<path d="M60.2249 324.908C60.0091 325.065 46.2149 335.172 43.5237 341.132C43.5237 341.132 52.601 335.037 60.2249 324.908Z" fill="#82007E"/>
</g>
<path d="M55.9875 313.901C55.9875 313.901 55.9866 313.904 55.9857 313.906C55.8114 314.208 44.6005 333.685 44.5732 341.937C44.5732 341.937 56.6871 331.585 55.9875 313.901Z" fill="url(#paint35_linear_199_1349)"/>
<g style="mix-blend-mode:multiply" opacity="0.28">
<path d="M55.8113 313.904C55.6394 314.206 44.5802 333.614 44.5532 341.836C44.5532 341.836 52.1258 329.685 55.8113 313.904Z" fill="#82007E"/>
</g>
<path d="M57.9689 328.101C57.9689 328.101 57.9689 328.101 57.968 328.103C57.8344 328.249 49.285 337.648 48.2188 342.294C48.2188 342.294 56.0992 338.164 57.9689 328.101Z" fill="url(#paint36_linear_199_1349)"/>
<g style="mix-blend-mode:multiply" opacity="0.28">
<path d="M57.9232 328.101C57.7902 328.247 49.2795 337.631 48.2182 342.27C48.2182 342.27 53.9023 336.487 57.9232 328.101Z" fill="#82007E"/>
</g>
<path d="M64.0088 338.496C64.0088 338.496 64.0088 338.496 64.0068 338.495C63.8116 338.51 51.2089 339.499 47.1386 342.484C47.1386 342.484 55.4902 345.306 64.0098 338.494L64.0088 338.496Z" fill="url(#paint37_linear_199_1349)"/>
<g style="mix-blend-mode:multiply" opacity="0.28">
<path d="M64.0036 338.496C63.8085 338.511 51.2058 339.501 47.1354 342.486C47.1354 342.486 55.2017 342.226 64.0036 338.496Z" fill="#82007E"/>
</g>
<path d="M65.7184 329.399L65.7174 329.401C65.4883 329.532 50.7816 338.012 47.4609 343.671C47.4609 343.671 59.075 341.86 65.7184 329.399Z" fill="url(#paint38_linear_199_1349)"/>
<g style="mix-blend-mode:multiply" opacity="0.28">
<path d="M65.7175 329.402C65.4883 329.532 50.7816 338.012 47.4608 343.671C47.4608 343.671 57.0763 338.651 65.7175 329.402Z" fill="#82007E"/>
</g>
<path d="M43.5162 343.122H14C14 343.122 14.3052 333.804 15.9289 326.513C16.4481 324.194 17.0964 322.083 17.9114 320.538C21.2909 314.137 23.0688 329.786 23.0688 329.786C23.0688 329.786 26.0928 321.252 29.4692 319.827C32.8488 318.404 33.7362 329.962 33.7362 329.962C33.7362 329.962 37.2951 322.139 41.562 322.319C45.829 322.495 43.5162 343.122 43.5162 343.122Z" fill="url(#paint39_linear_199_1349)"/>
<g style="mix-blend-mode:multiply" opacity="0.46">
<path d="M43.1008 343.122H14C14 343.122 14.3052 333.804 15.9289 326.513C16.3128 325.214 16.7534 324.043 17.2568 323.09C20.6333 316.689 22.4112 332.338 22.4112 332.338C22.4112 332.338 25.4351 323.801 28.8147 322.379C32.1911 320.956 33.0817 332.514 33.0817 332.514C33.0817 332.514 36.6374 324.691 40.9044 324.868C44.2367 325.006 43.5602 337.593 43.1008 343.122Z" fill="#4194F2"/>
</g>
</g>
<defs>
<linearGradient id="paint0_linear_199_1349" x1="145.5" y1="0" x2="145.5" y2="342" gradientUnits="userSpaceOnUse">
<stop stop-color="#42ADFF"/>
<stop offset="0.328125" stop-color="#A6A9ED"/>
<stop offset="0.682292" stop-color="#FFA6DD"/>
</linearGradient>
<linearGradient id="paint1_linear_199_1349" x1="-21.0039" y1="307.096" x2="84.954" y2="307.096" gradientUnits="userSpaceOnUse">
<stop stop-color="#90C9FD"/>
<stop offset="0.27" stop-color="#8AC3FD"/>
<stop offset="0.62" stop-color="#79B5FD"/>
<stop offset="1" stop-color="#5F9EFD"/>
</linearGradient>
<linearGradient id="paint2_linear_199_1349" x1="192.981" y1="293.138" x2="421.857" y2="293.138" gradientUnits="userSpaceOnUse">
<stop stop-color="#90C9FD"/>
<stop offset="0.27" stop-color="#8AC3FD"/>
<stop offset="0.62" stop-color="#79B5FD"/>
<stop offset="1" stop-color="#5F9EFD"/>
</linearGradient>
<linearGradient id="paint3_linear_199_1349" x1="-18.5483" y1="304.665" x2="177.648" y2="304.665" gradientUnits="userSpaceOnUse">
<stop stop-color="#ECF6FF"/>
<stop offset="1" stop-color="#77ADFF"/>
</linearGradient>
<linearGradient id="paint4_linear_199_1349" x1="151.102" y1="347.06" x2="151.102" y2="299.126" gradientUnits="userSpaceOnUse">
<stop stop-color="#74BCFD"/>
<stop offset="0.19" stop-color="#79BEFD"/>
<stop offset="0.43" stop-color="#8AC6FD"/>
<stop offset="0.71" stop-color="#A5D3FD"/>
<stop offset="1" stop-color="#CAE4FD"/>
</linearGradient>
<linearGradient id="paint5_linear_199_1349" x1="136.603" y1="291.801" x2="119.071" y2="345.014" gradientUnits="userSpaceOnUse">
<stop stop-color="#DCED00"/>
<stop offset="1" stop-color="#9CA000"/>
</linearGradient>
<linearGradient id="paint6_linear_199_1349" x1="120.686" y1="305.888" x2="126.631" y2="308.736" gradientUnits="userSpaceOnUse">
<stop stop-color="#A43113"/>
<stop offset="1" stop-color="#6F160D"/>
</linearGradient>
<linearGradient id="paint7_linear_199_1349" x1="138.86" y1="313.778" x2="133.014" y2="310.738" gradientUnits="userSpaceOnUse">
<stop stop-color="#A43113"/>
<stop offset="1" stop-color="#6F160D"/>
</linearGradient>
<linearGradient id="paint8_linear_199_1349" x1="240" y1="317.5" x2="358.5" y2="360.5" gradientUnits="userSpaceOnUse">
<stop stop-color="#478CEC"/>
<stop offset="1" stop-color="#8AC8F9"/>
</linearGradient>
<linearGradient id="paint9_linear_199_1349" x1="58.8591" y1="295.826" x2="58.8591" y2="336.328" gradientUnits="userSpaceOnUse">
<stop stop-color="#D1FAFF"/>
<stop offset="1" stop-color="#79B2F2"/>
</linearGradient>
<linearGradient id="paint10_linear_199_1349" x1="46.3792" y1="317.186" x2="19.1319" y2="357.046" gradientUnits="userSpaceOnUse">
<stop stop-color="#FFA6DD" stop-opacity="0.5"/>
<stop offset="0.21" stop-color="#F2AFDD" stop-opacity="0.63"/>
<stop offset="0.57" stop-color="#DFBDDE" stop-opacity="0.83"/>
<stop offset="0.84" stop-color="#D3C6DF" stop-opacity="0.95"/>
<stop offset="1" stop-color="#CFCAE0"/>
</linearGradient>
<linearGradient id="paint11_linear_199_1349" x1="95.1693" y1="309.673" x2="85.6563" y2="308.267" gradientUnits="userSpaceOnUse">
<stop stop-color="#F93D31"/>
<stop offset="1" stop-color="#B70400"/>
</linearGradient>
<linearGradient id="paint12_linear_199_1349" x1="68.766" y1="284.658" x2="71.7877" y2="346.325" gradientUnits="userSpaceOnUse">
<stop stop-color="#F93D31"/>
<stop offset="1" stop-color="#B70400"/>
</linearGradient>
<linearGradient id="paint13_linear_199_1349" x1="74.1292" y1="303.61" x2="67.2773" y2="304.105" gradientUnits="userSpaceOnUse">
<stop stop-color="#A43113"/>
<stop offset="1" stop-color="#6F160D"/>
</linearGradient>
<linearGradient id="paint14_linear_199_1349" x1="64.6506" y1="303.256" x2="60.8378" y2="303.531" gradientUnits="userSpaceOnUse">
<stop stop-color="#A43113"/>
<stop offset="1" stop-color="#6F160D"/>
</linearGradient>
<linearGradient id="paint15_linear_199_1349" x1="-4.21253" y1="288.306" x2="-12.0227" y2="342.077" gradientUnits="userSpaceOnUse">
<stop stop-color="#A6CBFF"/>
<stop offset="0.12" stop-color="#A3C6FD"/>
<stop offset="0.26" stop-color="#9AB7F8"/>
<stop offset="0.42" stop-color="#8CA0F0"/>
<stop offset="0.58" stop-color="#787FE4"/>
<stop offset="0.74" stop-color="#5F55D6"/>
<stop offset="0.91" stop-color="#4022C4"/>
<stop offset="1" stop-color="#2E04BA"/>
</linearGradient>
<linearGradient id="paint16_linear_199_1349" x1="0.133434" y1="215" x2="0.133434" y2="344.748" gradientUnits="userSpaceOnUse">
<stop stop-color="#6E0782"/>
<stop offset="1" stop-color="#08204D"/>
</linearGradient>
<linearGradient id="paint17_linear_199_1349" x1="2.02783" y1="245.168" x2="5.63711" y2="245.168" gradientUnits="userSpaceOnUse">
<stop stop-color="#6E0782"/>
<stop offset="1" stop-color="#08204D"/>
</linearGradient>
<linearGradient id="paint18_linear_199_1349" x1="-12.6423" y1="298.309" x2="1.392" y2="298.309" gradientUnits="userSpaceOnUse">
<stop stop-color="#6E0782"/>
<stop offset="1" stop-color="#08204D"/>
</linearGradient>
<linearGradient id="paint19_linear_199_1349" x1="38.9098" y1="227.014" x2="21.647" y2="259.922" gradientUnits="userSpaceOnUse">
<stop stop-color="#FDF9FF"/>
<stop offset="0.963542" stop-color="#ECC2FF"/>
</linearGradient>
<linearGradient id="paint20_linear_199_1349" x1="33.1733" y1="238.984" x2="23.2706" y2="250.19" gradientUnits="userSpaceOnUse">
<stop stop-color="#FFA6DD" stop-opacity="0.5"/>
<stop offset="0.21" stop-color="#F2AFDD" stop-opacity="0.63"/>
<stop offset="0.57" stop-color="#DFBDDE" stop-opacity="0.83"/>
<stop offset="0.84" stop-color="#D3C6DF" stop-opacity="0.95"/>
<stop offset="1" stop-color="#CFCAE0"/>
</linearGradient>
<linearGradient id="paint21_linear_199_1349" x1="30.8734" y1="195.84" x2="6.77899" y2="225.151" gradientUnits="userSpaceOnUse">
<stop stop-color="#F8EDF4"/>
<stop offset="1" stop-color="#EDC8FF"/>
</linearGradient>
<linearGradient id="paint22_linear_199_1349" x1="25.2376" y1="203.832" x2="10.2718" y2="215.538" gradientUnits="userSpaceOnUse">
<stop stop-color="#FACFE9" stop-opacity="0.5"/>
<stop offset="0.21" stop-color="#F2AFDD" stop-opacity="0.63"/>
<stop offset="0.57" stop-color="#DFBDDE" stop-opacity="0.83"/>
<stop offset="0.84" stop-color="#D3C6DF" stop-opacity="0.95"/>
<stop offset="1" stop-color="#CFCAE0"/>
</linearGradient>
<linearGradient id="paint23_linear_199_1349" x1="2.63162" y1="205.657" x2="33.9131" y2="205.657" gradientUnits="userSpaceOnUse">
<stop stop-color="#FFA6DD" stop-opacity="0.5"/>
<stop offset="0.21" stop-color="#F2AFDD" stop-opacity="0.63"/>
<stop offset="0.57" stop-color="#DFBDDE" stop-opacity="0.83"/>
<stop offset="0.84" stop-color="#D3C6DF" stop-opacity="0.95"/>
<stop offset="1" stop-color="#CFCAE0"/>
</linearGradient>
<linearGradient id="paint24_linear_199_1349" x1="11.4676" y1="189.575" x2="-4.6971" y2="220.39" gradientUnits="userSpaceOnUse">
<stop offset="0.12" stop-color="#FFE0F4"/>
<stop offset="1" stop-color="#C8BAF5"/>
</linearGradient>
<linearGradient id="paint25_linear_199_1349" x1="12.1787" y1="192.391" x2="0.583083" y2="207.165" gradientUnits="userSpaceOnUse">
<stop stop-color="#FFA6DD" stop-opacity="0.5"/>
<stop offset="0.21" stop-color="#F2AFDD" stop-opacity="0.63"/>
<stop offset="0.57" stop-color="#DFBDDE" stop-opacity="0.83"/>
<stop offset="0.84" stop-color="#D3C6DF" stop-opacity="0.95"/>
<stop offset="1" stop-color="#CFCAE0"/>
</linearGradient>
<linearGradient id="paint26_linear_199_1349" x1="8.89355" y1="196.346" x2="0.501272" y2="208.76" gradientUnits="userSpaceOnUse">
<stop stop-color="#FFA6DD" stop-opacity="0.5"/>
<stop offset="0.21" stop-color="#F2AFDD" stop-opacity="0.63"/>
<stop offset="0.57" stop-color="#DFBDDE" stop-opacity="0.83"/>
<stop offset="0.84" stop-color="#D3C6DF" stop-opacity="0.95"/>
<stop offset="1" stop-color="#CFCAE0"/>
</linearGradient>
<linearGradient id="paint27_linear_199_1349" x1="-0.12815" y1="202.316" x2="-10.5469" y2="222.178" gradientUnits="userSpaceOnUse">
<stop stop-color="#FFA6DD"/>
<stop offset="0.12" stop-color="#FAA2DC"/>
<stop offset="0.26" stop-color="#EB97D9"/>
<stop offset="0.41" stop-color="#D485D5"/>
<stop offset="0.56" stop-color="#B36BD0"/>
<stop offset="0.72" stop-color="#894AC9"/>
<stop offset="0.89" stop-color="#5623C0"/>
<stop offset="1" stop-color="#2E04BA"/>
</linearGradient>
<linearGradient id="paint28_linear_199_1349" x1="8.84633" y1="206.727" x2="8.65753" y2="206.844" gradientUnits="userSpaceOnUse">
<stop stop-color="#FFA6DD" stop-opacity="0.5"/>
<stop offset="0.21" stop-color="#F2AFDD" stop-opacity="0.63"/>
<stop offset="0.57" stop-color="#DFBDDE" stop-opacity="0.83"/>
<stop offset="0.84" stop-color="#D3C6DF" stop-opacity="0.95"/>
<stop offset="1" stop-color="#CFCAE0"/>
</linearGradient>
<linearGradient id="paint29_linear_199_1349" x1="2.91158" y1="205.5" x2="-12.5293" y2="215.019" gradientUnits="userSpaceOnUse">
<stop stop-color="#FFA6DD" stop-opacity="0.5"/>
<stop offset="0.21" stop-color="#F2AFDD" stop-opacity="0.63"/>
<stop offset="0.57" stop-color="#DFBDDE" stop-opacity="0.83"/>
<stop offset="0.84" stop-color="#D3C6DF" stop-opacity="0.95"/>
<stop offset="1" stop-color="#CFCAE0"/>
</linearGradient>
<linearGradient id="paint30_linear_199_1349" x1="-18.2878" y1="211.838" x2="10.149" y2="211.838" gradientUnits="userSpaceOnUse">
<stop stop-color="#FFA6DD" stop-opacity="0.5"/>
<stop offset="0.21" stop-color="#F2AFDD" stop-opacity="0.63"/>
<stop offset="0.57" stop-color="#DFBDDE" stop-opacity="0.83"/>
<stop offset="0.84" stop-color="#D3C6DF" stop-opacity="0.95"/>
<stop offset="1" stop-color="#CFCAE0"/>
</linearGradient>
<linearGradient id="paint31_linear_199_1349" x1="23.266" y1="313.196" x2="34.5002" y2="335.788" gradientUnits="userSpaceOnUse">
<stop stop-color="#6E0782"/>
<stop offset="1" stop-color="#08204D"/>
</linearGradient>
<linearGradient id="paint32_linear_199_1349" x1="35.7761" y1="309.327" x2="22.2962" y2="315.323" gradientUnits="userSpaceOnUse">
<stop stop-color="#FFA6DD"/>
<stop offset="0.12" stop-color="#FAA2DC"/>
<stop offset="0.26" stop-color="#EB97D9"/>
<stop offset="0.41" stop-color="#D485D5"/>
<stop offset="0.56" stop-color="#B36BD0"/>
<stop offset="0.72" stop-color="#894AC9"/>
<stop offset="0.89" stop-color="#5623C0"/>
<stop offset="1" stop-color="#2E04BA"/>
</linearGradient>
<linearGradient id="paint33_linear_199_1349" x1="53.0169" y1="319.8" x2="41.6747" y2="332.154" gradientUnits="userSpaceOnUse">
<stop stop-color="#FFE2F4"/>
<stop offset="1" stop-color="#9579F0"/>
</linearGradient>
<linearGradient id="paint34_linear_199_1349" x1="64.3197" y1="325.893" x2="42.7942" y2="336.121" gradientUnits="userSpaceOnUse">
<stop stop-color="#FFA6DD"/>
<stop offset="0.12" stop-color="#FAA2DC"/>
<stop offset="0.26" stop-color="#EB97D9"/>
<stop offset="0.41" stop-color="#D485D5"/>
<stop offset="0.56" stop-color="#B36BD0"/>
<stop offset="0.72" stop-color="#894AC9"/>
<stop offset="0.89" stop-color="#5623C0"/>
<stop offset="1" stop-color="#2E04BA"/>
</linearGradient>
<linearGradient id="paint35_linear_199_1349" x1="55.5881" y1="315.679" x2="45.9699" y2="345.456" gradientUnits="userSpaceOnUse">
<stop stop-color="#FFE1F4"/>
<stop offset="0.0001" stop-color="#FFA6DD"/>
<stop offset="1" stop-color="#9879FF"/>
</linearGradient>
<linearGradient id="paint36_linear_199_1349" x1="61.1188" y1="332.395" x2="49.5157" y2="335.059" gradientUnits="userSpaceOnUse">
<stop stop-color="#FFDDF2"/>
<stop offset="1" stop-color="#9076E7"/>
</linearGradient>
<linearGradient id="paint37_linear_199_1349" x1="66.1356" y1="340.996" x2="48.6897" y2="338.87" gradientUnits="userSpaceOnUse">
<stop stop-color="#FFA6DD"/>
<stop offset="0.12" stop-color="#FAA2DC"/>
<stop offset="0.26" stop-color="#EB97D9"/>
<stop offset="0.41" stop-color="#D485D5"/>
<stop offset="0.56" stop-color="#B36BD0"/>
<stop offset="0.72" stop-color="#894AC9"/>
<stop offset="0.89" stop-color="#5623C0"/>
<stop offset="1" stop-color="#2E04BA"/>
</linearGradient>
<linearGradient id="paint38_linear_199_1349" x1="64.7594" y1="330.451" x2="45.4511" y2="344.729" gradientUnits="userSpaceOnUse">
<stop stop-color="#FFD9F0"/>
<stop offset="1" stop-color="#8B04BA"/>
</linearGradient>
<linearGradient id="paint39_linear_199_1349" x1="31.9835" y1="318.665" x2="27.3609" y2="350.494" gradientUnits="userSpaceOnUse">
<stop stop-color="#CEE2FF"/>
<stop offset="1" stop-color="#7B5EDB"/>
</linearGradient>
</defs>
</svg>
