<svg width="291" height="342" viewBox="0 0 291 342" fill="none" xmlns="http://www.w3.org/2000/svg">
<mask id="mask0_199_8569" style="mask-type:alpha" maskUnits="userSpaceOnUse" x="0" y="0" width="291" height="342">
<rect width="291" height="342" rx="5" fill="url(#paint0_linear_199_8569)"/>
</mask>
<g mask="url(#mask0_199_8569)">
<path d="M84.9556 330.385C84.9548 330.387 84.9525 330.387 84.951 330.386C84.1765 329.758 83.3942 329.114 82.6004 328.529C81.4237 327.657 80.108 327.12 78.8619 326.36C76.7668 325.079 74.8069 323.289 73.0938 321.549C71.647 320.079 70.3082 318.517 68.8845 317.035C68.3367 316.464 67.6923 316.047 67.1831 315.434C66.3381 314.415 65.7092 313.269 64.9723 312.174C62.9776 309.222 59.4898 307.104 56.681 304.963C54.7828 303.516 53.0003 302 51.2217 300.41C50.1182 299.422 49.0109 298.458 47.9692 297.404C47.2516 296.675 46.4375 296.151 45.689 295.468C43.7831 293.724 41.9427 291.617 39.6548 290.39C38.6092 289.831 37.5829 289.044 36.5682 288.376C35.5998 287.74 35.1253 286.991 34.3883 286.127C33.8482 285.494 33.1499 284.642 32.5094 284.125C32.0348 283.743 31.8149 283.82 31.1359 283.824C30.4298 283.827 29.6505 283.669 29.0486 284.132C28.5316 284.53 28.1072 285.286 27.7368 285.822C26.371 287.805 25.2907 289.985 23.5815 291.706C22.3546 292.94 20.6184 293.793 19.1793 294.792C16.5557 296.617 15.1938 299.584 13.3303 302.054C12.0571 303.74 10.8533 305.144 8.69273 305.291C8.02526 305.337 7.37321 305.233 6.7096 305.341C4.32909 305.738 2.83982 307.119 0.930014 308.477C-0.293037 309.349 -1.20743 310.187 -1.95206 311.51C-2.65426 312.76 -3.03236 313.806 -4.08179 314.805C-5.13894 315.808 -5.7138 317.039 -6.83654 317.965C-7.57731 318.578 -8.19463 319.315 -8.93926 319.917C-10.9185 321.514 -13.2643 322.595 -15.2899 324.138C-16.4165 324.998 -17.8208 325.743 -18.6079 326.962C-19.1712 327.834 -19.2754 328.822 -20.0895 329.539C-20.4857 329.89 -20.2851 330.38 -19.7562 330.38H84.9529C84.9552 330.38 84.9566 330.383 84.9556 330.385Z" fill="url(#paint1_linear_199_8569)"/>
<path d="M195.137 318.002C195.137 318.002 195.138 318.003 195.138 318.002C196.122 316.336 197.337 314.832 198.305 313.146C199.161 311.657 199.713 309.902 200.701 308.497C202.503 305.939 207.468 304.392 210.447 304.766C214.741 305.303 219.143 305.283 223.507 305.199C225.775 305.156 228.325 303.551 230.17 302.351C233.364 300.272 236.177 297.559 239.626 295.881C241.794 294.828 243.94 294.133 246.278 293.508C248.106 293.022 249.777 292.208 251.706 292.235C253.172 292.254 254.199 291.919 255.595 291.753C256.988 291.591 258.628 290.715 259.94 290.152C261.278 289.577 262.343 288.836 263.539 288.045C264.778 287.223 266.225 286.332 267.22 285.213C268.721 283.531 269.905 281.339 272.486 281.625C275.268 281.934 277.691 282.678 280.392 283.334C281.85 283.689 283.332 283.932 284.833 283.913C286.017 283.897 287.479 284.152 288.618 283.832C291.164 283.118 293.464 280.795 295.042 278.835C296.627 276.868 297.607 273.434 299.953 272.33C301.566 271.57 303.032 271.898 304.718 272.234C305.204 272.33 306.196 272.539 306.682 272.369C307.376 272.126 307.639 271.165 307.932 270.509C308.402 269.452 308.449 268.411 308.723 267.299C308.981 266.265 309.564 265.428 309.915 264.437C310.378 263.121 310.27 261.72 310.683 260.401C310.845 259.888 311.072 259.51 311.296 259.016C311.443 258.688 311.636 257.851 311.825 257.627C312.616 256.709 314.394 257.071 315.448 257.067C317.045 257.064 318.04 257.175 319.275 258.306C320.564 259.483 320.618 261.524 321.111 263.082C321.517 264.352 321.729 265.563 322.261 266.786C322.828 268.09 323.723 269.101 324.503 270.259C325.768 272.134 326.382 274.271 327.748 276.061C328.488 277.038 328.924 278.033 329.881 278.824C330.765 279.553 331.922 280.19 332.956 280.676C334.665 281.482 336.567 281.555 338.369 282.053C340.337 282.597 342.366 282.929 344.28 283.662C349.631 285.707 353.331 291.02 357.544 294.669C360.187 296.957 362.857 299.176 365.469 301.502C366.831 302.718 368.344 303.617 369.763 304.724C371.037 305.719 372.287 306.881 373.714 307.656C375.527 308.644 377.696 309.346 379.667 309.936C380.624 310.226 381.515 310.141 382.445 310.38C383.425 310.631 384.617 311.163 385.81 311.225C388.46 311.36 390.663 311.121 393.225 312.07C397.654 313.714 401.493 316.97 405.07 319.968C406.586 321.241 408.492 322.422 409.738 323.934C410.849 325.284 411.887 325.836 413.434 326.596C414.503 327.121 415.61 327.696 416.752 328.051C417.574 328.305 418.354 328.251 419.198 328.409C420.121 328.583 420.927 329.154 421.861 329.247H195.608C194.613 329.247 193.736 328.416 193.503 327.449C193.25 326.403 192.921 325.376 192.992 324.293C193.135 322.098 194.029 319.876 195.136 318.002C195.137 318.001 195.137 318.001 195.137 318.002Z" fill="url(#paint2_linear_199_8569)"/>
<path d="M-8.10242 332.245C-8.10242 332.242 -8.10096 332.239 -8.09852 332.238C-5.96839 330.762 -3.80984 329.409 -1.63234 328.009C0.00257492 326.959 1.6533 326.001 3.1807 324.793C3.81632 324.29 4.47725 323.835 5.05595 323.262C5.5556 322.766 5.75798 322.26 6.12165 321.703C6.66241 320.878 7.37392 320.249 8.24039 319.904C9.37882 319.452 10.4414 318.917 11.5007 318.358C12.4684 317.845 13.4266 316.919 14.2267 316.185C15.1722 315.322 16.1462 314.395 17.1518 313.595C17.955 312.953 18.5938 312.112 19.4097 311.499C20.371 310.771 21.4936 310.319 22.4613 309.595C23.6092 308.735 24.6433 307.951 25.9145 307.296C26.9802 306.746 27.8246 305.788 28.8966 305.202C29.3962 304.931 29.7093 304.564 30.3038 304.747C30.8952 304.931 31.3537 305.506 31.9071 305.667C32.2645 305.772 33.3302 305.898 33.6717 305.743C34.1365 305.535 34.4275 304.086 34.6267 303.577C34.8607 302.973 34.9493 302.344 35.139 301.8C35.2623 301.446 35.3762 301.155 35.5564 300.816C35.724 300.5 35.8474 300.08 36.0181 299.795C36.5304 298.944 37.7922 298.381 38.5448 297.746C39.0729 297.3 39.4176 296.898 39.7655 296.376C40.0279 295.981 40.5465 295.599 40.8881 295.282C41.9253 294.321 43.0416 293.518 44.199 292.718C44.9422 292.202 45.7865 291.902 46.498 291.348C46.8996 291.035 47.2886 290.7 47.7092 290.409C48.2721 290.02 48.8033 289.6 49.3504 289.182C50.2833 288.471 51.1245 287.74 51.9467 286.909C52.9871 285.855 54.3247 285.289 55.4347 284.334C56.0166 283.832 56.649 283.398 57.1929 282.848C57.7084 282.326 58.129 281.732 58.6698 281.239C59.8398 280.166 61.1237 279.142 62.0313 277.811C62.3159 277.393 62.4614 277.08 62.844 276.726C63.195 276.4 63.5112 275.999 63.818 275.629C64.1342 275.246 64.3904 274.822 64.7003 274.436C65.1873 273.826 65.8703 273.428 66.3668 272.827C66.8127 272.286 67.2839 271.843 67.7456 271.328C68.1662 270.86 68.416 270.253 68.8303 269.781C69.1686 269.396 69.6461 269.212 70.0161 268.864C70.2881 268.611 70.4493 268.286 70.6992 268.02C71.3949 267.283 72.2645 266.727 73.1405 266.23C74.1398 265.661 74.8987 264.994 76.053 265C77.5962 265.006 79.0445 265.971 80.4928 266.474C81.3593 266.774 82.2637 267.131 83.0701 267.571C84.041 268.096 84.6797 268.596 85.4608 269.383C86.0079 269.936 86.6309 270.3 87.1811 270.8C87.7409 271.309 88.6548 271.518 89.3283 271.888C89.8849 272.194 90.4857 272.599 90.998 272.975C91.3174 273.209 91.5356 273.513 91.8993 273.706C92.4179 273.978 92.7784 274.117 93.2022 274.538C95.5676 276.884 98.7489 278.086 101.702 279.363C102.155 279.559 102.806 279.727 103.192 280.008C103.666 280.353 104.008 280.938 104.406 281.359C105.001 281.988 105.396 282.763 105.924 283.439C106.534 284.221 106.942 284.145 107.689 283.566C108.005 283.322 108.41 282.892 108.792 282.798C109.077 282.725 109.349 282.813 109.637 282.731C109.912 282.652 109.975 282.488 110.336 282.548C110.658 282.601 111.088 282.854 111.351 283.047C112.176 283.655 112.884 284.622 113.488 285.425C113.899 285.969 114.209 286.599 114.655 287.114C115.089 287.617 115.661 288.123 116.018 288.721C116.752 289.944 117.533 291.178 118.444 292.376C119.288 293.489 120.218 294.508 121.034 295.633C121.555 296.354 122.362 296.835 122.969 297.474C123.507 298.04 123.791 298.799 124.275 299.406C125.11 300.453 126.074 301.591 127.014 302.439C127.403 302.79 127.747 303.21 128.139 303.552C128.566 303.925 129.158 304.086 129.613 304.431C130.799 305.326 131.852 306.195 133.171 306.916C135.46 308.166 138.022 309.244 139.799 311.217C140.558 312.058 141.269 312.956 141.974 313.845C142.749 314.819 143.255 315.926 144.239 316.691C144.881 317.191 145.393 317.868 146.035 318.377C146.743 318.936 147.452 319.487 148.094 320.148C148.935 321.02 149.757 321.912 150.674 322.725C151.243 323.231 151.857 323.693 152.54 324.031C153.586 324.549 154.162 325.312 155.044 326.048C155.784 326.665 156.654 327.136 157.445 327.69C158.447 328.392 159.459 329.094 160.515 329.714C161.685 330.397 162.862 330.887 164.161 331.244C165.094 331.5 165.885 331.902 166.767 332.297C168.845 333.23 170.821 334.144 172.282 335.981C172.649 336.44 173.044 336.939 173.36 337.43C173.987 338.4 174.704 339.238 175.432 340.165C175.982 340.864 176.894 341.912 177.784 342.423C177.853 342.463 177.82 342.6 177.74 342.6H-16.3624C-15.6266 342.6 -17.0496 343.535 -17.4154 342.896C-17.8615 342.117 -18.125 341.276 -17.9404 340.295C-17.7253 339.159 -16.8209 338.657 -15.9197 338.084C-14.6263 337.262 -13.6871 336.101 -12.4854 335.165C-11.0984 334.088 -9.54724 333.251 -8.10632 332.252C-8.10388 332.251 -8.10242 332.248 -8.10242 332.245Z" fill="#5F9EFD"/>
<path d="M-8.65015 332.245C-8.65015 332.242 -8.64869 332.239 -8.64625 332.238C-6.51612 330.762 -4.35757 329.409 -2.18007 328.009C-0.545156 326.959 1.10557 326.001 2.63297 324.793C3.26859 324.29 3.92952 323.835 4.50822 323.262C5.00787 322.766 5.21025 322.26 5.57392 321.703C6.11467 320.878 6.82619 320.249 7.69266 319.904C8.83109 319.452 9.89363 318.917 10.953 318.358C11.9207 317.845 12.8789 316.919 13.6789 316.185C14.6245 315.322 15.5984 314.395 16.6041 313.595C17.4073 312.953 18.0461 312.112 18.8619 311.499C19.8233 310.771 20.9459 310.319 21.9136 309.595C23.0615 308.735 24.0956 307.951 25.3668 307.296C26.4325 306.746 27.2768 305.788 28.3489 305.202C28.8485 304.931 29.1616 304.564 29.7561 304.747C30.3475 304.931 30.806 305.506 31.3594 305.667C31.7167 305.772 32.7824 305.898 33.1239 305.743C33.5888 305.535 33.8797 304.086 34.079 303.577C34.313 302.973 34.4015 302.344 34.5913 301.8C34.7146 301.446 34.8284 301.155 35.0087 300.816C35.1763 300.5 35.2996 300.08 35.4704 299.795C35.9827 298.944 37.2444 298.381 37.9971 297.746C38.5252 297.3 38.8699 296.898 39.2177 296.376C39.4802 295.981 39.9988 295.599 40.3403 295.282C41.3776 294.321 42.4939 293.518 43.6513 292.718C44.3944 292.202 45.2388 291.902 45.9503 291.348C46.3519 291.035 46.7409 290.7 47.1614 290.409C47.7243 290.02 48.2556 289.6 48.8027 289.182C49.7356 288.471 50.5768 287.74 51.3989 286.909C52.4394 285.855 53.777 285.289 54.887 284.334C55.4688 283.832 56.1013 283.398 56.6452 282.848C57.1607 282.326 57.5813 281.732 58.122 281.239C59.2921 280.166 60.576 279.142 61.4836 277.811C61.7682 277.393 61.9136 277.08 62.2963 276.726C62.6473 276.4 62.9635 275.999 63.2702 275.629C63.5865 275.246 63.8426 274.822 64.1525 274.436C64.6395 273.826 65.3226 273.428 65.8191 272.827C66.265 272.286 66.7361 271.843 67.1978 271.328C67.6184 270.86 67.8683 270.253 68.2825 269.781C68.6209 269.396 69.0984 269.212 69.4684 268.864C69.7403 268.611 69.9016 268.286 70.1514 268.02C70.8471 267.283 71.7168 266.727 72.5927 266.23C73.592 265.661 74.351 264.994 75.5052 265C77.0484 265.006 78.4968 265.971 79.9451 266.474C80.8116 266.774 81.716 267.131 82.5224 267.571C83.4932 268.096 84.132 268.596 84.9131 269.383C85.4602 269.936 86.0832 270.3 86.6334 270.8C87.1931 271.309 88.107 271.518 88.7806 271.888C89.3372 272.194 89.938 272.599 90.4503 272.975C90.7697 273.209 90.9879 273.513 91.3516 273.706C91.8702 273.978 92.2307 274.117 92.6544 274.538C95.0198 276.884 98.2011 278.086 101.155 279.363C101.607 279.559 102.258 279.727 102.644 280.008C103.119 280.353 103.46 280.938 103.859 281.359C104.453 281.988 104.848 282.763 105.376 283.439C105.987 284.221 106.395 284.145 107.141 283.566C107.457 283.322 107.862 282.892 108.245 282.798C108.529 282.725 108.801 282.813 109.089 282.731C109.364 282.652 109.427 282.488 109.788 282.548C110.11 282.601 110.54 282.854 110.803 283.047C111.628 283.655 112.337 284.622 112.941 285.425C113.352 285.969 113.662 286.599 114.108 287.114C114.541 287.617 115.113 288.123 115.471 288.721C116.204 289.944 116.985 291.178 117.896 292.376C118.74 293.489 119.67 294.508 120.486 295.633C121.008 296.354 121.814 296.835 122.421 297.474C122.959 298.04 123.243 298.799 123.727 299.406C124.562 300.453 125.527 301.591 126.466 302.439C126.855 302.79 127.2 303.21 127.592 303.552C128.019 303.925 128.61 304.086 129.065 304.431C130.251 305.326 131.304 306.195 132.623 306.916C134.912 308.166 137.474 309.244 139.251 311.217C140.01 312.058 140.722 312.956 141.427 313.845C142.202 314.819 142.707 315.926 143.691 316.691C144.333 317.191 144.845 317.868 145.487 318.377C146.195 318.936 146.904 319.487 147.546 320.148C148.387 321.02 149.209 321.912 150.126 322.725C150.695 323.231 151.309 323.693 151.992 324.031C153.039 324.549 153.614 325.312 154.497 326.048C155.237 326.665 156.106 327.136 156.897 327.69C157.899 328.392 158.911 329.094 159.967 329.714C161.137 330.397 162.314 330.887 163.614 331.244C164.546 331.5 165.337 331.902 166.219 332.297C168.297 333.23 170.273 334.144 171.734 335.981C172.101 336.44 172.496 336.939 172.813 337.43C173.439 338.4 174.157 339.238 174.884 340.165C175.434 340.864 176.346 341.912 177.236 342.423C177.305 342.463 177.272 342.6 177.192 342.6H-16.9101C-16.1743 342.6 -17.5974 343.535 -17.9631 342.896C-18.4093 342.117 -18.6728 341.276 -18.4881 340.295C-18.2731 339.159 -17.3686 338.657 -16.4674 338.084C-15.174 337.262 -14.2348 336.101 -13.0331 335.165C-11.6461 334.088 -10.095 333.251 -8.65405 332.252C-8.65161 332.251 -8.65015 332.248 -8.65015 332.245Z" fill="url(#paint3_linear_199_8569)"/>
<path d="M346.207 299.126H-44C-46.7614 299.126 -49 301.364 -49 304.126V342.06C-49 344.821 -46.7614 347.06 -44 347.06H346.207C348.969 347.06 351.207 344.821 351.207 342.06V304.126C351.207 301.364 348.969 299.126 346.207 299.126Z" fill="url(#paint4_linear_199_8569)"/>
<path d="M268.032 307.291C266.963 307.179 265.891 307.113 264.814 307.083C263.267 307.04 261.986 306.778 260.601 307.484C258.105 308.757 255.601 310.586 253.359 312.249C251.646 313.518 249.829 315.679 247.695 316.257C246.291 316.639 244.281 316.381 242.853 316.092C239.532 315.412 236.021 315.046 232.66 315.725C229.635 316.335 227.004 317.488 223.879 317.349C222.629 317.295 221.371 317.245 220.121 317.241C218.311 317.237 217.509 316.616 215.973 315.721C214.418 314.814 212.79 314.398 211.077 313.877C209.657 313.445 207.933 313.047 206.432 313.341C203.685 313.877 200.544 316.485 198.939 318.704C197.736 320.37 197.122 322.924 194.78 323.341C192.176 323.804 189.275 322.6 186.693 323.221C183.943 323.881 181.234 325.178 178.526 326.03C174.664 327.246 170.728 328.195 166.882 329.46C163.961 330.421 161.557 329.576 158.706 329.128C156.268 328.743 153.71 329.29 151.264 328.831C146.757 327.986 142.324 326.277 137.864 325.162C134.372 324.29 130.572 323.573 126.972 323.495C126.012 323.476 124.789 323.218 123.851 323.434C122.813 323.673 121.984 324.603 121.05 325.089C118.878 326.212 116.231 326.227 113.885 326.806C109.923 327.786 105.459 326.478 101.412 326.794C93.2053 327.438 84.8832 326.794 76.6266 326.528C73.7021 326.435 70.7352 326.177 67.8068 326.215C66.0744 326.239 64.4 326.694 62.6677 326.682C59.8319 326.659 57.1504 326.185 54.4304 327.219C52.7289 327.867 51.1586 328.669 49.3877 329.125C48.1222 329.452 46.7564 329.777 45.7842 330.718C44.3065 332.153 44.4261 334.468 44.0518 336.347C43.7867 337.681 43.3676 338.969 42.9044 340.244C41.8731 343.084 43.6531 346.009 46.642 346.45L166.789 364.157L254.767 366.977C257.307 367.059 259.503 365.222 259.874 362.709L268.039 307.299C268.039 307.295 268.036 307.291 268.032 307.291Z" fill="#79A4FA"/>
<path d="M209.342 313.404C209.342 313.405 209.341 313.405 209.34 313.405C206.64 313.046 203.631 312.228 200.058 310.874C193.06 308.227 189.317 306.645 182.627 310.191C180.984 311.061 181.762 313.401 183.622 313.401H209.341C209.342 313.401 209.343 313.403 209.342 313.404Z" fill="#5F9EFD"/>
<path d="M398.216 267.812C398.216 267.812 398.215 267.812 398.215 267.812C389.657 264.837 370.39 261.358 361.397 265.008C354.988 267.608 353.287 275.506 348.892 279.912C340.262 288.566 331.345 286.953 317.749 286.602C306.826 286.32 308.513 290.105 300.997 295.345C297.054 298.095 291.44 294.372 287.346 296.332C281.563 299.102 279.75 302.725 277.165 304.982C266.053 314.697 250.068 309.848 237.225 318.096C233.324 320.6 230.723 324.586 225.951 325.195C221.988 325.701 215.815 324.011 211.996 325.257C207.127 326.843 203.571 331.638 200.437 336.482C197.999 340.252 201.172 346.527 205.662 346.527H391.318C394.177 346.527 396.454 344.135 396.312 341.28C396.156 338.12 395.999 334.96 395.843 331.801L398.219 267.813C398.219 267.811 398.218 267.811 398.216 267.812Z" fill="url(#paint5_linear_199_8569)"/>
<path d="M47.8555 285.308L45.3325 291.813L44.3047 294.465C44.3047 294.465 41.626 292.543 40.1443 289.455C38.667 286.371 37.9106 280.698 39.3434 280.538C39.3478 280.533 39.3523 280.533 39.3567 280.533C40.8073 280.409 41.7818 282.958 43.6461 284.191C45.5061 285.424 47.8599 285.308 47.8599 285.308H47.8555Z" fill="#FFBF59"/>
<path opacity="0.13" d="M45.3325 291.813L44.3047 294.465C44.3047 294.465 41.626 292.543 40.1443 289.455C38.667 286.371 37.9106 280.698 39.3434 280.538C39.5748 281.588 40.3846 284.845 42.2178 287.964C43.8464 290.736 44.892 291.564 45.337 291.813H45.3325Z" fill="#590800"/>
<path d="M82.9006 280.703C82.8294 281.116 82.7627 281.472 82.7004 281.784C82.5847 282.322 82.4779 282.718 82.3934 282.999C82.2465 283.479 82.1531 283.63 82.1531 283.63L74.6199 281.624C74.6199 281.624 74.8957 281.423 75.3096 281.09C76.1283 280.436 77.4721 279.265 78.2107 278.144C78.8782 277.134 79.4877 275.986 80.1418 275.247C80.5734 274.758 81.0318 274.451 81.5346 274.486C82.8027 274.571 83.3011 278.353 82.9006 280.707V280.703Z" fill="#FFBF59"/>
<path opacity="0.13" d="M82.7004 281.779C82.5847 282.318 82.4779 282.714 82.3934 282.994L75.3096 281.081C76.1283 280.427 77.4721 279.256 78.2107 278.135C78.8782 277.125 79.4877 275.977 80.1418 275.238C80.1908 275.817 80.3287 276.898 80.6713 278.544C81.0763 280.476 82.1486 281.414 82.7004 281.779Z" fill="#590800"/>
<path d="M90.7142 310.671C90.7142 310.671 96.0448 318.756 96.8858 319.975C97.7268 321.194 98.1806 321.545 100.299 324.789C101.429 326.525 101.687 328.803 101.344 328.927C101.002 329.052 100.81 327.668 100.463 326.974C100.116 326.28 99.6579 325.728 99.6579 325.728C99.6579 325.728 99.9738 326.36 100.303 328.282C100.632 330.204 100.352 330.948 100.005 330.93C99.6579 330.912 99.7202 329.746 99.3909 328.376C99.0616 327.005 98.5722 326.089 98.5722 326.089C98.5722 326.089 98.8703 326.734 98.8392 328.451C98.808 330.169 98.7769 330.863 98.3675 330.845C97.9581 330.827 98.0516 329.172 97.927 328.496C97.8024 327.819 97.6289 326.369 97.6289 326.369C97.6289 326.369 97.6467 327.584 97.5488 328.34C97.4509 329.097 97.4064 330.058 97.0593 330.12C96.7122 330.182 96.7746 328.687 96.7123 327.993C96.65 327.299 96.5877 325.755 96.4453 325.644C96.3029 325.532 95.5776 326.275 95.453 326.872C95.3284 327.472 95.0436 327.833 94.7455 327.69C94.4474 327.548 94.7767 326.333 95.0614 325.564C95.3462 324.789 96.3385 322.929 96.2895 322.662C96.2406 322.395 89.1613 316.331 89.1613 316.331C89.1613 316.331 89.4327 311.36 90.7275 310.662L90.7142 310.671Z" fill="#B70400"/>
<path d="M47.7709 316.411C47.7709 316.411 42.4403 324.496 41.5993 325.715C40.7583 326.934 40.3045 327.285 38.1865 330.529C37.0563 332.265 36.7982 334.543 37.1408 334.667C37.4879 334.792 37.6748 333.408 38.0218 332.714C38.3689 332.02 38.8272 331.468 38.8272 331.468C38.8272 331.468 38.5113 332.1 38.182 334.022C37.8527 335.944 38.1331 336.688 38.4801 336.67C38.8272 336.652 38.7649 335.486 39.0942 334.116C39.4234 332.745 39.9129 331.829 39.9129 331.829C39.9129 331.829 39.6148 332.474 39.6459 334.191C39.6771 335.909 39.7082 336.603 40.1176 336.585C40.527 336.567 40.4335 334.912 40.5581 334.236C40.6827 333.559 40.8562 332.109 40.8562 332.109C40.8562 332.109 40.8384 333.324 40.9363 334.08C41.0298 334.836 41.0787 335.798 41.4258 335.86C41.7729 335.922 41.7106 334.427 41.7728 333.733C41.8351 333.039 41.8975 331.495 42.0398 331.384C42.1822 331.272 42.9075 332.015 43.0321 332.612C43.1567 333.212 43.4414 333.573 43.7396 333.43C44.0377 333.288 43.7084 332.073 43.4237 331.303C43.1389 330.529 42.1466 328.669 42.1956 328.402C42.2445 328.135 49.3238 322.071 49.3238 322.071C49.3238 322.071 49.0524 317.1 47.7576 316.402L47.7709 316.411Z" fill="url(#paint6_linear_199_8569)"/>
<path opacity="0.5" d="M48.4962 319.094L42.2089 328.411L49.1903 322.182L48.4962 319.094Z" fill="#B70400"/>
<path d="M91.7286 322.306C91.0567 328.273 89.5438 334.578 89.3792 341.894C89.2057 349.209 84.2488 355.683 84.2488 355.683H82.202C82.202 355.683 82.202 355.634 82.1931 355.541C82.1397 354.7 81.7259 350.277 79.3765 346.935C76.7735 343.237 64.9953 346.014 62.3078 348.532C59.6202 351.051 55.3308 357.863 55.3308 357.863L54.076 358.535C54.076 358.535 50.0357 350.045 50.1158 335.166C50.2004 320.286 46.5028 315.409 44.5672 304.931C43.6328 299.871 43.4236 293.798 45.7063 288.774C45.7107 288.77 45.7063 288.765 45.7063 288.765C45.7107 288.756 45.7152 288.752 45.7152 288.739C47.7264 284.338 51.6554 280.743 58.6992 279.345C59.816 279.123 61.004 278.958 62.2811 278.851C62.7705 278.811 63.2689 278.776 63.7851 278.754C76.0793 278.211 84.4757 283.105 85.9219 284.858C86.042 285.005 86.1177 285.13 86.1399 285.228C86.4336 286.487 86.3134 288.36 85.2989 292.058C84.2889 295.756 85.0942 302.127 89.2101 308.032C93.3305 313.932 92.4094 316.335 91.7331 322.302L91.7286 322.306Z" fill="url(#paint7_linear_199_8569)"/>
<path d="M63.3802 316.215C68.6293 316.215 72.8846 310.491 72.8846 303.431C72.8846 296.371 68.6293 290.647 63.3802 290.647C58.1311 290.647 53.8759 296.371 53.8759 303.431C53.8759 310.491 58.1311 316.215 63.3802 316.215Z" fill="#B70400"/>
<path d="M85.1388 300.748C85.1388 302.964 84.4402 304.962 83.3189 306.359C83.1454 306.573 82.963 306.777 82.7716 306.955C82.4735 306.982 82.1442 307.013 81.7927 307.053C81.6993 307.062 81.6058 307.075 81.5079 307.084H81.5035C81.0096 307.147 80.4712 307.227 79.9016 307.325C79.381 307.414 78.9183 307.498 78.4956 307.574C78.2286 307.623 77.9794 307.667 77.748 307.712C77.5923 307.738 77.4499 307.765 77.3164 307.792C77.0806 307.663 76.8492 307.503 76.6267 307.325C74.9626 305.999 73.8457 303.551 73.8457 300.748C73.8457 296.534 76.3775 293.113 79.4923 293.113C82.607 293.113 85.1388 296.53 85.1388 300.748Z" fill="#B70400"/>
<path d="M63.7851 314.947C68.4567 314.947 72.2438 309.791 72.2438 303.431C72.2438 297.071 68.4567 291.916 63.7851 291.916C59.1135 291.916 55.3264 297.071 55.3264 303.431C55.3264 309.791 59.1135 314.947 63.7851 314.947Z" fill="#CAE7EF"/>
<path d="M64.1856 314.404C68.636 314.404 72.2438 309.491 72.2438 303.431C72.2438 297.371 68.636 292.458 64.1856 292.458C59.7351 292.458 56.1273 297.371 56.1273 303.431C56.1273 309.491 59.7351 314.404 64.1856 314.404Z" fill="white"/>
<path d="M67.3137 309.661C69.84 309.661 71.8879 306.872 71.8879 303.431C71.8879 299.991 69.84 297.202 67.3137 297.202C64.7875 297.202 62.7395 299.991 62.7395 303.431C62.7395 306.872 64.7875 309.661 67.3137 309.661Z" fill="url(#paint8_linear_199_8569)"/>
<path d="M71.3004 303.431C71.3004 305.892 69.8365 307.885 68.03 307.885C66.2234 307.885 64.7595 305.892 64.7595 303.431C64.7595 300.97 66.2234 298.977 68.03 298.977C69.8365 298.977 71.3004 300.97 71.3004 303.431Z" fill="#590800"/>
<path d="M62.9976 306.016C64.4254 306.016 65.5828 304.859 65.5828 303.431C65.5828 302.003 64.4254 300.846 62.9976 300.846C61.5698 300.846 60.4124 302.003 60.4124 303.431C60.4124 304.859 61.5698 306.016 62.9976 306.016Z" fill="white"/>
<path d="M67.0867 305.611C67.6101 305.611 68.0345 305.187 68.0345 304.664C68.0345 304.14 67.6101 303.716 67.0867 303.716C66.5632 303.716 66.1389 304.14 66.1389 304.664C66.1389 305.187 66.5632 305.611 67.0867 305.611Z" fill="white"/>
<path d="M83.8572 301.625C83.8572 302.154 83.8083 302.67 83.7148 303.16C83.5013 304.37 83.0341 305.447 82.3933 306.27C82.1619 306.573 81.9038 306.844 81.628 307.075C81.539 307.084 81.4455 307.098 81.3521 307.107H81.3476C80.8626 307.169 80.3376 307.245 79.7769 307.338C79.2697 307.422 78.8114 307.503 78.402 307.578C78.1395 307.623 77.8992 307.667 77.6723 307.707C77.3741 307.569 77.0849 307.4 76.8179 307.187C75.3985 306.083 74.4463 304.001 74.4463 301.616C74.4463 298.074 76.551 295.204 79.154 295.204C81.3565 295.204 83.2031 297.268 83.7148 300.058C83.8127 300.552 83.8617 301.077 83.8617 301.616L83.8572 301.625Z" fill="#CAE7EF"/>
<path d="M83.8573 301.625C83.8573 302.154 83.8083 302.67 83.7149 303.16C83.4835 304.383 82.9762 305.456 82.2955 306.257C82.0062 306.59 81.6903 306.875 81.3477 307.111H81.3432C80.8582 307.173 80.3332 307.249 79.7725 307.342C79.2653 307.427 78.807 307.507 78.3976 307.583C77.9793 307.463 77.5833 307.253 77.2229 306.982C76.1594 306.19 75.3585 304.828 75.0381 303.2C74.9847 302.919 74.9402 302.63 74.918 302.332C74.8957 302.096 74.8868 301.865 74.8868 301.625C74.8868 298.256 76.8936 295.52 79.3721 295.52C81.45 295.52 83.1987 297.446 83.7104 300.063C83.8083 300.557 83.8573 301.082 83.8573 301.62V301.625Z" fill="white"/>
<path d="M80.1507 302.31C80.1507 304.223 79.0116 305.776 77.6055 305.776C76.1994 305.776 75.0603 304.223 75.0603 302.31C75.0603 300.397 76.1994 298.844 77.6055 298.844C79.0116 298.844 80.1507 300.397 80.1507 302.31Z" fill="url(#paint9_linear_199_8569)"/>
<path d="M78.9537 302.457C78.9537 303.827 78.1395 304.935 77.1339 304.935C76.1283 304.935 75.314 303.827 75.314 302.457C75.314 301.086 76.1283 299.978 77.1339 299.978C78.1395 299.978 78.9537 301.086 78.9537 302.457Z" fill="#590800"/>
<path d="M77.3474 302.599C77.3474 303.275 76.7957 303.827 76.1193 303.827C75.443 303.827 74.8912 303.275 74.8912 302.599C74.8912 301.923 75.443 301.371 76.1193 301.371C76.7957 301.371 77.3474 301.923 77.3474 302.599Z" fill="white"/>
<path d="M78.8248 303.302C78.8248 303.591 78.5889 303.827 78.2997 303.827C78.0105 303.827 77.7747 303.591 77.7747 303.302C77.7747 303.013 78.0105 302.777 78.2997 302.777C78.5889 302.777 78.8248 303.013 78.8248 303.302Z" fill="white"/>
<path d="M74.4463 295.097C74.4463 295.097 75.3184 292.165 79.154 289.326C82.9896 286.487 85.5436 285.828 85.5436 285.828L83.5591 288.004L86.9007 287.217C86.9007 287.217 86.6916 289.419 85.3034 291.052C83.7682 292.859 78.9582 293.633 76.3507 295.471C75.3318 296.192 74.6376 296.864 74.6376 296.864L75.5854 294.576L74.4507 295.097H74.4463Z" fill="#590800"/>
<path d="M72.0347 297.086C72.0347 297.086 68.6085 294.83 65.0443 294.207C61.4802 293.584 56.1273 293.237 56.1273 293.237L58.0451 292.356C58.0451 292.356 57.3198 292.125 56.4076 291.097C55.6957 290.296 54.5789 287.631 54.5789 287.631C54.5789 287.631 58.4144 288.151 62.7394 288.828C68.7642 289.771 71.6965 293.335 71.6965 293.335L70.4684 293.273C70.4684 293.273 71.8656 295.635 72.0347 297.086Z" fill="#590800"/>
<path opacity="0.88" d="M82.1887 355.541C82.1353 354.7 81.7215 350.277 79.3721 346.935C76.7691 343.237 64.991 346.014 62.3034 348.532C59.6158 351.051 55.3264 357.863 55.3264 357.863L54.0716 358.535C54.0716 358.535 50.0313 350.045 50.1114 335.166C50.196 320.286 46.4984 315.41 44.5628 304.931C43.6284 299.871 43.4192 293.798 45.7019 288.774C45.5417 289.522 43.0588 301.509 48.4295 310.666C53.9782 320.117 57.6268 339.793 64.7507 341.306C71.8834 342.819 78.273 339.793 81.9707 342.988C85.6683 346.183 82.1842 355.545 82.1842 355.545L82.1887 355.541Z" fill="#B70400"/>
<path opacity="0.5" d="M71.8878 329.177C71.8878 329.177 74.0503 332.865 77.521 333.066C84.0798 333.444 85.7751 324.295 85.7751 324.295C85.7751 324.295 84.6226 329.533 77.2674 330.418C73.592 330.859 71.8878 329.177 71.8878 329.177Z" fill="#B70400"/>
<path d="M71.8878 329.177C71.8878 329.177 75.8302 331.005 80.6669 329.177C85.5036 327.348 86.1355 322.302 86.1355 322.302C86.1355 322.302 85.8819 327.837 81.2187 329.986C76.551 332.136 71.8878 329.172 71.8878 329.172V329.177Z" fill="#5B1800"/>
<path opacity="0.43" d="M73.908 328.905C73.908 328.905 79.2875 329.03 82.2287 325.795C85.1699 322.56 84.9029 318.627 84.9029 318.627C84.9029 318.627 86.0821 322.8 83.1988 326.538C80.2442 330.369 73.908 328.905 73.908 328.905Z" fill="white"/>
<path opacity="0.43" d="M85.1298 317.43C85.1743 317.968 85.0853 318.413 84.934 318.426C84.7827 318.44 84.627 318.012 84.5825 317.474C84.538 316.936 84.627 316.491 84.7783 316.477C84.9296 316.464 85.0853 316.891 85.1298 317.43Z" fill="white"/>
<path d="M72.8801 311.289L73.1916 307.196L75.5009 310.27L72.8801 311.289Z" fill="white"/>
<path d="M85.9086 308.597L86.9142 305.776L87.8353 308.98L85.9086 308.597Z" fill="white"/>
<path d="M62.3033 317.892C62.3033 317.892 69.6586 311.547 77.7702 309.612C85.8818 307.676 88.1111 309.109 88.1111 309.109L84.8762 315.16L86.4959 310.671C86.4959 310.671 84.6226 309.696 78.0238 310.915C71.5185 312.117 62.3033 317.892 62.3033 317.892Z" fill="#590800"/>
<path d="M75.7501 293.348C75.7501 293.348 76.9293 291.862 78.2731 290.639C79.8972 289.157 82.0552 288.147 82.0552 288.147L81.3255 289.224L84.458 288.507C84.458 288.507 82.073 289.419 79.8126 290.914C77.6768 292.325 76.3464 294.14 76.3464 294.14L76.5377 293.175L75.7546 293.348H75.7501Z" fill="#8C130D"/>
<path d="M69.9967 292.356C69.9967 292.356 68.2569 290.607 64.7595 289.624C61.2621 288.641 57.0305 288.343 57.0305 288.343L59.9317 289.539L56.3987 288.908C56.3987 288.908 58.2275 290.065 61.7783 290.821C65.3291 291.577 69.7431 293.629 69.7431 293.629L68.8798 292.04L69.9922 292.356H69.9967Z" fill="#8C130D"/>
<path d="M84.7917 306.884C84.7917 306.884 83.964 306.862 82.5891 306.982C82.2954 307.009 81.9751 307.035 81.6324 307.08C81.5434 307.089 81.45 307.102 81.3566 307.111H81.3521C80.8671 307.173 80.342 307.249 79.7814 307.342C79.2741 307.427 78.8158 307.507 78.4065 307.583C78.1439 307.627 77.9037 307.672 77.6767 307.712C77.5254 307.738 77.383 307.761 77.254 307.787C76.0571 308.01 75.5187 308.126 75.5187 308.126C75.5187 308.126 75.888 307.756 76.5777 307.338C76.6533 307.293 76.7334 307.24 76.8269 307.191C76.9515 307.12 77.0894 307.049 77.2362 306.978C77.8503 306.675 78.6245 306.395 79.5367 306.234C80.48 306.074 81.4589 306.123 82.3088 306.248C82.3399 306.252 82.3755 306.257 82.4067 306.261C82.6647 306.301 82.905 306.346 83.132 306.399C84.1242 306.613 84.8006 306.88 84.8006 306.88L84.7917 306.884Z" fill="#B70400"/>
<path d="M51.4285 311.988C51.7044 313.923 51.2995 315.588 50.5252 315.694C49.751 315.806 48.8967 314.324 48.6208 312.388C48.3449 310.453 48.7498 308.789 49.5241 308.682C50.2983 308.571 51.1526 310.052 51.4285 311.988Z" fill="#FF5B57"/>
<path d="M51.74 311.943C52.0159 313.879 51.611 315.543 50.8368 315.65C50.0625 315.761 49.2082 314.279 48.9323 312.344C48.6565 310.408 49.0614 308.744 49.8356 308.637C50.6098 308.526 51.4642 310.008 51.74 311.943Z" fill="#8C0000"/>
<path d="M53.6578 328.296C53.8402 329.582 53.5732 330.681 53.0615 330.756C52.5454 330.832 51.9803 329.849 51.7979 328.563C51.6154 327.277 51.8824 326.178 52.3941 326.102C52.9103 326.026 53.4754 327.01 53.6578 328.296Z" fill="#FF5B57"/>
<path d="M53.9026 328.282C54.085 329.568 53.818 330.667 53.3063 330.743C52.7901 330.818 52.2251 329.835 52.0426 328.549C51.8602 327.263 52.1271 326.164 52.6388 326.089C53.155 326.013 53.7201 326.996 53.9026 328.282Z" fill="#8C0000"/>
<path d="M53.2395 336.536C53.4219 337.822 53.1549 338.921 52.6432 338.997C52.1271 339.073 51.562 338.089 51.3795 336.803C51.1971 335.517 51.4641 334.418 51.9758 334.343C52.4919 334.267 53.057 335.25 53.2395 336.536Z" fill="#FF5B57"/>
<path d="M53.4842 336.536C53.6667 337.822 53.3997 338.921 52.888 338.997C52.3718 339.073 51.8067 338.089 51.6243 336.803C51.4418 335.517 51.7088 334.418 52.2205 334.343C52.7367 334.267 53.3018 335.25 53.4842 336.536Z" fill="#8C0000"/>
<path d="M55.8114 332.99C55.936 333.858 55.7535 334.601 55.4065 334.65C55.0594 334.699 54.6767 334.036 54.5521 333.168C54.4276 332.3 54.61 331.557 54.957 331.508C55.3041 331.459 55.6868 332.122 55.8114 332.99Z" fill="#FF5B57"/>
<path d="M55.976 332.99C56.1006 333.858 55.9182 334.601 55.5711 334.65C55.2241 334.699 54.8414 334.036 54.7168 333.168C54.5922 332.3 54.7746 331.557 55.1217 331.508C55.4688 331.459 55.8514 332.122 55.976 332.99Z" fill="#8C0000"/>
<path d="M46.9033 295.07C46.7965 295.938 46.4227 296.61 46.0756 296.565C45.7285 296.521 45.5328 295.782 45.644 294.91C45.7553 294.038 46.1246 293.371 46.4716 293.415C46.8187 293.46 47.0145 294.198 46.9033 295.07Z" fill="#FF5B57"/>
<path d="M47.059 295.11C46.9522 295.978 46.5785 296.65 46.2314 296.605C45.8843 296.561 45.6885 295.822 45.7998 294.95C45.911 294.078 46.2804 293.411 46.6274 293.455C46.9745 293.5 47.1703 294.238 47.059 295.11Z" fill="#8C0000"/>
<path d="M56.3676 320.286C56.7814 323.17 56.1807 325.644 55.0238 325.808C53.8669 325.973 52.5988 323.77 52.185 320.883C51.7712 317.999 52.3718 315.525 53.5287 315.361C54.6856 315.196 55.9538 317.399 56.3676 320.286Z" fill="#FF5B57"/>
<path d="M56.8438 320.22C57.2576 323.103 56.6569 325.577 55.5 325.741C54.3431 325.906 53.075 323.704 52.6612 320.816C52.2474 317.932 52.848 315.458 54.0049 315.294C55.1618 315.129 56.43 317.332 56.8438 320.22Z" fill="#8C0000"/>
<path d="M48.6386 302.403C48.9278 304.432 48.5051 306.172 47.6908 306.288C46.8765 306.404 45.9822 304.851 45.6929 302.822C45.4037 300.793 45.8264 299.053 46.6407 298.937C47.455 298.821 48.3494 300.374 48.6386 302.403Z" fill="#FF5B57"/>
<path d="M48.9767 302.39C49.2659 304.419 48.8432 306.159 48.0289 306.274C47.2147 306.39 46.3203 304.837 46.0311 302.808C45.7418 300.779 46.1646 299.039 46.9788 298.924C47.7931 298.808 48.6875 300.361 48.9767 302.39Z" fill="#8C0000"/>
<path opacity="0.26" d="M85.9219 284.863C83.1275 285.473 76.3374 286.674 68.9244 285.833C59.2198 284.729 54.2762 280.938 54.2762 280.938L58.6992 279.35C59.816 279.127 61.0041 278.963 62.2811 278.856C62.7705 278.816 63.2689 278.78 63.7851 278.758C76.0793 278.215 84.4758 283.11 85.9219 284.863Z" fill="white"/>
<path d="M51.4241 282.149C51.4241 282.149 54.2006 276.747 59.6603 273.548C66.753 269.387 71.3049 270.037 71.3049 270.037L66.0099 272.747C66.0099 272.747 67.2202 272.408 69.6185 272.213C73.1159 271.928 74.3173 272.529 74.3173 272.529L66.3392 275.176C66.3392 275.176 67.3715 274.971 69.9967 275.114C72.4885 275.247 73.3607 275.63 73.3607 275.63L67.5228 278.762C67.5228 278.762 56.1763 279.403 51.4241 282.153V282.149Z" fill="#590800"/>
<path d="M119.009 305.304C117.634 309.073 114.422 310.595 114.422 310.595C114.422 310.595 113.923 310.306 113.167 309.754C112.255 309.073 110.96 308.001 109.718 306.564C108.904 305.616 108.108 304.512 107.462 303.258C107.231 302.808 107.022 302.341 106.835 301.852C106.457 300.864 106.194 299.907 106.03 298.986C105.829 297.882 105.767 296.828 105.794 295.858C105.794 295.818 105.794 295.782 105.794 295.742C105.918 292.543 107.058 290.256 107.663 289.851C108.281 289.437 108.811 291.257 111.721 294.447C112.099 294.861 112.517 295.293 112.975 295.751C113.719 296.481 114.577 297.273 115.574 298.109C116.135 298.581 116.744 299.071 117.403 299.569C117.75 299.831 118.11 300.103 118.489 300.374C118.653 300.499 118.818 300.619 118.991 300.739C118.991 300.739 119.147 301.108 119.267 301.722C119.432 302.572 119.521 303.889 119.009 305.304Z" fill="#FF9E12"/>
<path d="M112.976 295.751C112.397 296.338 111.458 297.104 110.074 297.731C108.53 298.434 107.022 298.804 106.025 298.986C105.825 297.882 105.763 296.828 105.789 295.858C105.789 295.818 105.789 295.782 105.789 295.742C106.577 295.742 107.925 295.702 109.269 295.395C110.337 295.15 111.165 294.763 111.716 294.447C112.095 294.861 112.513 295.293 112.971 295.751H112.976Z" fill="#F93D31"/>
<path d="M117.403 299.569C116.887 300.539 115.739 302.381 113.736 304.045C112.321 305.224 110.8 306.056 109.718 306.559C108.904 305.611 108.108 304.508 107.462 303.253C108.228 303.035 109.487 302.581 111.298 301.607C113.701 300.303 115.045 298.795 115.574 298.105C116.135 298.577 116.744 299.066 117.403 299.564V299.569Z" fill="#F93D31"/>
<path opacity="0.13" d="M119.267 301.722L113.167 309.754C111.431 308.468 108.339 305.763 106.831 301.852C105.994 299.685 105.736 297.633 105.789 295.858C106.586 297.558 108.085 299.756 110.813 300.975C114.484 302.612 117.309 301.189 118.484 300.379C118.649 300.503 118.813 300.623 118.987 300.744C118.987 300.744 119.143 301.113 119.263 301.727L119.267 301.722Z" fill="#590800"/>
<path d="M110.617 315.022C110.617 315.022 104.81 322.831 103.658 323.343C102.506 323.855 101.068 323.699 99.5644 323.646C97.3351 323.566 97.3574 323.112 97.0993 323.13C96.6321 323.161 96.641 324.117 97.5131 324.558C98.3897 324.998 99.6534 325.016 99.6534 325.016C99.6534 325.016 96.2895 328.153 96.4541 328.692C96.6187 329.226 99.3508 327.406 99.3508 327.406C99.3508 327.406 97.6243 330.556 97.9759 331.001C98.3274 331.446 100.294 328.767 100.294 328.767C100.294 328.767 99.4665 331.263 99.689 331.686C99.9115 332.109 101.273 329.515 101.273 329.515C101.273 329.515 101.5 331.392 101.989 331.352C102.256 331.33 102.83 328.954 102.986 328.554C103.142 328.153 104.481 324.754 104.481 324.754L116.433 318.133L110.608 315.018L110.617 315.022Z" fill="#009579"/>
<path d="M150.379 351.233C147.9 353.182 142.73 351.977 142.73 351.977C142.73 351.977 140.047 346.237 137.893 344.968C136.358 344.07 118.088 342.37 115.65 343.055C113.394 343.696 109.545 346.348 109.545 346.348C109.545 346.348 108.272 346.472 106.515 346.134C104.953 345.836 103.751 345.071 103.751 345.071C103.751 345.071 103.431 336.572 103.751 330.2C104.072 323.828 113.843 305.242 117.688 302.056C118.729 301.198 120.242 300.187 121.968 299.191C126.636 296.508 132.865 293.922 135.49 294.621C139.081 295.578 147.295 307.471 150.379 322.872C153.458 338.272 150.379 351.229 150.379 351.229V351.233Z" fill="url(#paint10_linear_199_8569)"/>
<path d="M139.679 315.802C140.49 311.433 138.43 307.388 135.079 306.766C131.727 306.145 128.353 309.182 127.543 313.551C126.733 317.919 128.792 321.964 132.144 322.586C135.495 323.208 138.869 320.171 139.679 315.802Z" fill="#009579"/>
<path d="M138.45 315.81C138.37 316.17 138.267 316.522 138.147 316.864C137.88 317.652 137.52 318.368 137.088 318.996C136.247 320.228 135.148 321.114 133.964 321.51C133.364 321.71 132.745 321.781 132.131 321.706C132.007 321.688 131.886 321.666 131.762 321.643C128.932 321.012 127.339 317.372 128.202 313.518C129.065 309.665 132.056 307.053 134.885 307.685C137.72 308.317 139.313 311.957 138.45 315.81Z" fill="#CAE7EF"/>
<path d="M137.968 315.722C138.79 312.05 137.27 308.585 134.575 307.982C131.879 307.379 129.028 309.867 128.207 313.538C127.385 317.21 128.905 320.675 131.6 321.278C134.296 321.881 137.147 319.393 137.968 315.722Z" fill="white"/>
<path d="M138.147 316.865C137.88 317.652 137.52 318.369 137.088 318.996C136.247 320.229 135.148 321.114 133.964 321.51C133.364 321.71 132.745 321.781 132.131 321.706C131.317 320.651 131.277 318.862 132.14 317.243C132.149 317.225 132.158 317.212 132.167 317.194C132.385 316.798 132.634 316.437 132.919 316.126C134.067 314.84 135.664 314.319 136.866 314.973C137.551 315.343 137.987 316.033 138.147 316.86V316.865Z" fill="url(#paint11_linear_199_8569)"/>
<path d="M137.088 318.996C136.247 320.228 135.148 321.114 133.964 321.51C133.769 321.483 133.586 321.425 133.413 321.332C132.34 320.753 132.118 319.103 132.905 317.648C133.693 316.193 135.201 315.481 136.265 316.064C137.155 316.544 137.457 317.763 137.084 318.996H137.088Z" fill="#590800"/>
<path d="M133.64 317.915C133.502 318.435 133.809 318.969 134.329 319.107C134.85 319.245 135.384 318.938 135.522 318.417C135.66 317.897 135.353 317.363 134.832 317.225C134.311 317.087 133.777 317.394 133.64 317.915Z" fill="white"/>
<path d="M131.824 316.477C131.726 316.842 131.944 317.216 132.305 317.314C132.67 317.412 133.043 317.194 133.141 316.833C133.239 316.469 133.021 316.095 132.661 315.997C132.296 315.899 131.922 316.117 131.824 316.477Z" fill="white"/>
<path d="M123.543 314.778C122.32 319.032 119.009 321.697 116.152 320.731C113.296 319.766 111.974 315.534 113.198 311.28C114.422 307.026 117.732 304.361 120.589 305.327C123.445 306.292 124.767 310.524 123.543 314.778Z" fill="#009579"/>
<path d="M123.437 314.925C123.325 315.276 123.192 315.614 123.049 315.939C122.725 316.691 122.324 317.367 121.875 317.946C120.994 319.08 119.926 319.85 118.849 320.117C118.302 320.255 117.75 320.26 117.22 320.117C117.114 320.086 117.011 320.055 116.905 320.015C114.506 319.094 113.545 315.312 114.751 311.574C115.961 307.836 118.885 305.554 121.283 306.475C123.686 307.396 124.647 311.174 123.441 314.916L123.437 314.925Z" fill="#CAE7EF"/>
<path d="M114.746 311.583C113.594 315.143 114.515 318.742 116.798 319.623C119.085 320.504 121.87 318.329 123.023 314.769C124.175 311.209 123.254 307.609 120.971 306.728C118.684 305.847 115.899 308.023 114.746 311.583Z" fill="white"/>
<path d="M123.049 315.939C122.725 316.691 122.324 317.367 121.875 317.946C120.994 319.08 119.926 319.85 118.849 320.117C118.302 320.255 117.75 320.26 117.22 320.117C116.633 318.987 116.811 317.207 117.754 315.685C117.763 315.668 117.772 315.659 117.781 315.641C118.017 315.272 118.279 314.938 118.564 314.662C119.721 313.505 121.176 313.154 122.151 313.928C122.707 314.364 123.005 315.094 123.049 315.935V315.939Z" fill="url(#paint12_linear_199_8569)"/>
<path d="M121.87 317.95C120.989 319.085 119.921 319.855 118.845 320.122C118.676 320.077 118.524 319.997 118.382 319.886C117.514 319.201 117.514 317.536 118.373 316.175C119.232 314.813 120.633 314.261 121.497 314.951C122.217 315.521 122.338 316.762 121.866 317.946L121.87 317.95Z" fill="#590800"/>
<path d="M118.987 316.513C118.804 317.016 119.009 317.576 119.45 317.772C119.886 317.964 120.393 317.714 120.575 317.212C120.758 316.709 120.553 316.148 120.113 315.952C119.677 315.761 119.169 316.01 118.987 316.513Z" fill="white"/>
<path d="M117.568 314.898C117.439 315.249 117.585 315.641 117.888 315.779C118.195 315.912 118.546 315.739 118.676 315.387C118.805 315.036 118.658 314.644 118.355 314.506C118.048 314.373 117.697 314.546 117.568 314.898Z" fill="white"/>
<path d="M116.648 322.764C116.728 322.952 117.546 324.506 122.754 325.711C128.311 326.996 133.221 326.068 133.221 326.068C133.221 326.068 133.261 327.12 133.103 328.522C132.755 331.589 131.462 336.337 126.695 335.418C121.478 334.407 118.419 327.752 117.229 324.511C116.906 323.643 116.722 323.019 116.663 322.816L116.649 322.768L116.648 322.764Z" fill="#590800"/>
<path d="M116.648 322.764C116.728 322.952 117.546 324.506 122.754 325.711C128.311 326.996 133.221 326.068 133.221 326.068L133.208 327.202C133.208 327.202 129.614 329.069 125.406 328.538C120.739 327.948 117.229 324.511 117.229 324.511L116.663 322.816L116.649 322.768L116.648 322.764Z" fill="#8B1229"/>
<path d="M122.188 332.426L122.926 331.715L124.466 330.227L125.352 334.129L125.463 334.636L126.108 334.441L127.481 334.033L127.929 334.694L127.993 334.79L128.124 334.681L129.117 333.846L129.392 334.366L129.597 334.754L129.853 334.134L131.45 330.243L131.746 332.829C131.746 332.829 130.903 334.972 128.529 335.244C126.756 335.446 125.286 334.885 124.205 334.207L124.195 334.199C123.901 334.013 123.633 333.824 123.405 333.635C122.616 333 122.183 332.423 122.183 332.423L122.188 332.426Z" fill="white"/>
<path d="M133.753 326.06L135.278 331.444L129.784 326.246L133.753 326.06Z" fill="white"/>
<path d="M123.435 325.951L116.849 331.093L118.685 323.776L123.435 325.951Z" fill="white"/>
<path d="M135.877 325.011L133.86 326.442C133.86 326.442 130.903 327.493 126.024 326.971C116.494 325.952 115 320.296 115 320.296C115 320.296 117.936 325.411 126.402 325.809C131.539 326.049 134.09 324.58 134.09 324.58L135.877 325.011Z" fill="#590800"/>
<path d="M122.188 332.427L122.926 331.715C123.145 332.142 123.896 333.387 125.352 334.129L125.464 334.636L126.109 334.441C126.457 334.554 126.839 334.64 127.251 334.678C127.491 334.7 127.715 334.705 127.929 334.694L127.994 334.79L128.124 334.681C128.599 334.64 129.016 334.525 129.387 334.366L129.593 334.755L129.849 334.134C131.128 333.379 131.664 332.144 131.664 332.144L131.742 332.834C131.742 332.834 130.899 334.977 128.525 335.249C126.753 335.451 125.282 334.89 124.201 334.212L124.191 334.204C123.924 334.019 123.652 333.831 123.401 333.64C122.612 333.005 122.179 332.428 122.179 332.428L122.188 332.427Z" fill="#8ECEDD"/>
<path d="M133.024 329.315L133.471 329.738C133.471 329.738 133.155 335.628 128.69 336.139C122.647 336.83 118.912 329.55 118.912 329.55L119.374 329.125C119.374 329.125 123.525 336.327 128.574 335.48C132.736 334.785 133.024 329.315 133.024 329.315Z" fill="#02896F"/>
<path d="M140.616 306.675C140.616 306.675 139.7 304.784 137.715 303.089C135.735 301.393 134.707 301.197 134.707 301.197L137.395 301.171L136.541 300.196C136.541 300.196 138.979 300.325 140.332 302.016C141.684 303.703 141.582 306.274 141.582 306.274L140.777 305.242L140.616 306.679V306.675Z" fill="#590800"/>
<path d="M156.186 300.027C156.177 300.116 156.168 300.205 156.159 300.299C156.03 301.558 155.736 302.897 155.193 304.29C155.011 304.757 154.811 305.207 154.584 305.643C154.045 306.706 153.4 307.663 152.724 308.504C150.357 311.449 147.602 313.038 147.602 313.038C147.602 313.038 144.39 311.516 143.015 307.747C142.187 305.482 142.917 303.48 143.015 303.213C143.024 303.191 143.028 303.182 143.028 303.182C143.153 303.097 143.268 303.008 143.389 302.924C143.856 302.59 144.296 302.256 144.723 301.932C145.208 301.562 145.667 301.197 146.098 300.842C147.438 299.742 148.532 298.723 149.44 297.794C149.845 297.38 150.21 296.988 150.539 296.614C153.231 293.593 153.752 291.893 154.348 292.294C154.926 292.676 155.981 294.741 156.19 297.669C156.239 298.408 156.239 299.2 156.168 300.036L156.186 300.027Z" fill="#FF9E12"/>
<path d="M147.593 318.769C147.593 318.769 156.586 315.054 157.365 314.061C158.143 313.069 158.375 311.392 158.882 309.977C159.385 308.571 158.806 307.796 158.971 307.596C159.265 307.231 159.87 307.712 160.079 308.668C160.288 309.625 159.968 310.595 159.968 310.595C159.968 310.595 164.293 307.863 164.773 308.157C165.25 308.45 162.357 310.889 162.357 310.889C162.357 310.889 166.549 309.616 166.896 310.07C167.243 310.519 163.447 312.139 163.447 312.139C163.447 312.139 167.176 311.948 167.537 312.264C167.893 312.584 163.888 313.519 163.888 313.519C163.888 313.519 166.277 313.941 166.117 314.404C166.033 314.658 163.007 314.644 162.584 314.698C162.161 314.751 158.535 315.214 158.535 315.214L149.191 325.181C149.191 325.181 147.513 324.749 146.846 322.36C146.174 319.953 147.598 318.774 147.598 318.774L147.593 318.769Z" fill="url(#paint13_linear_199_8569)"/>
<path d="M142.735 351.976C142.735 351.976 140.051 346.236 137.898 344.968C136.363 344.069 118.093 342.37 115.654 343.055C113.398 343.696 109.549 346.348 109.549 346.348C109.549 346.348 108.277 346.472 106.519 346.134C104.957 345.836 103.756 345.071 103.756 345.071C103.756 345.071 103.436 336.572 103.756 330.2C104.076 323.828 113.848 305.242 117.692 302.056C118.733 301.197 120.246 300.187 121.973 299.191L125.212 298.39L125.515 304.286C125.515 304.286 120.304 303.445 117.332 304.842C114.368 306.239 109.652 315.886 109.438 326.013C109.224 336.14 113.287 339.117 121.91 340.318C130.538 341.52 136.487 342.232 139.104 344.003C141.724 345.769 142.73 351.976 142.73 351.976H142.735Z" fill="#02896F"/>
<path d="M125.203 299.226C125.203 299.226 123.334 299.871 121.563 300.632C120.108 301.26 118.502 302.332 118.502 302.332L119.263 301.162L118.315 301.34C118.315 301.34 119.014 299.702 120.771 298.79C122.938 297.66 125.519 297.825 125.519 297.825L124.108 298.772L125.208 299.226H125.203Z" fill="#590800"/>
<path d="M139.66 298.181C139.66 298.181 135.695 297.482 131.504 299.275C127.317 301.068 125.515 304.29 125.515 304.29C125.515 304.29 122.556 298.737 125.212 294.915C126.569 292.961 128.522 293.032 128.522 293.032L125.096 291.942C125.096 291.942 127.9 290.243 131.415 291.039C133.568 291.529 134.151 292.338 134.151 292.338L132.487 289.206C132.487 289.206 137.422 289.58 139.304 292.445C140.657 294.505 139.664 298.181 139.664 298.181H139.66Z" fill="#443551"/>
<path opacity="0.72" d="M138.681 296.855C138.681 296.855 136.946 294.132 132.803 293.722C128.607 293.304 126.645 295.102 126.645 295.102L129.644 294.808C129.644 294.808 127.966 295.128 126.698 297.033C125.563 298.737 125.741 300.753 125.741 300.753C125.741 300.753 127.819 297.584 131.459 296.895C135.099 296.205 137.876 297.304 137.876 297.304L137.213 296.134L138.681 296.85V296.855Z" fill="#725F82"/>
<path opacity="0.43" d="M149.765 328.18C149.685 327.833 149.177 327.882 149.16 328.233C149.071 330.222 148.968 333.519 148.999 337.417C149.026 340.866 149.12 344.176 149.2 346.495C149.213 346.868 149.756 346.895 149.809 346.526C150.161 344.003 150.601 340.421 150.753 337.417C150.922 334.022 150.259 330.36 149.765 328.18Z" fill="white"/>
<path d="M116 336.248C116 336.248 118.683 335.464 122.474 336.684C126.261 337.903 127.128 339.078 127.128 339.078L116 336.243V336.248Z" fill="#02896F"/>
<path d="M154.588 305.638C154.05 306.702 153.405 307.658 152.728 308.499C152.083 308.348 150.575 307.832 148.346 306.119C145.302 303.783 144.732 301.927 144.732 301.927C145.217 301.558 145.676 301.193 146.107 300.837C146.655 301.576 147.981 303.195 149.867 304.29C151.643 305.327 153.596 305.58 154.588 305.643V305.638Z" fill="#F93D31"/>
<path d="M156.186 300.027C155.389 300.134 154.228 300.147 152.844 299.747C151.144 299.253 150.036 298.376 149.453 297.789C149.858 297.375 150.223 296.984 150.552 296.61C151.095 296.904 151.927 297.246 153.16 297.518C154.473 297.807 155.483 297.785 156.208 297.66C156.257 298.399 156.257 299.191 156.186 300.027Z" fill="#F93D31"/>
<path opacity="0.13" d="M156.163 300.299C156.034 301.558 155.741 302.897 155.198 304.29C153.031 309.901 147.611 313.033 147.611 313.033C147.611 313.033 144.399 311.512 143.024 307.743C142.196 305.478 142.926 303.476 143.024 303.209L143.398 302.919C143.398 302.919 148.626 304.21 152.506 302.692C154.286 301.994 155.443 301.082 156.159 300.299H156.163Z" fill="#590800"/>
<path opacity="0.67" d="M145.271 303.516C144.959 303.663 144.697 303.235 144.973 303.022C146.143 302.119 147.722 300.815 149.124 299.355C150.383 298.043 151.447 296.779 152.212 295.822C152.43 295.551 152.853 295.822 152.697 296.134C152.114 297.304 151.158 298.853 149.663 300.432C148.248 301.932 146.561 302.911 145.271 303.511V303.516Z" fill="white"/>
<path opacity="0.67" d="M109.18 293.869C109.033 293.531 109.496 293.264 109.714 293.562C110.439 294.554 111.432 295.805 112.593 296.984C113.696 298.105 114.844 299.079 115.774 299.814C116.068 300.045 115.779 300.503 115.445 300.334C114.471 299.84 113.296 299.124 112.126 298.105C110.693 296.859 109.754 295.195 109.176 293.865L109.18 293.869Z" fill="white"/>
<g style="mix-blend-mode:overlay" opacity="0.28">
<path d="M-138.849 173.738C-138.849 173.738 -109.147 183.882 -90.3127 183.882C-71.4785 183.882 -70.7548 182.434 -66.4066 186.053C-62.0585 189.677 -61.3348 191.849 -51.9205 191.125C-42.5063 190.401 -26.567 193.296 -19.3239 196.197C-12.0808 199.097 -4.8378 194.749 3.85843 196.197C12.549 197.644 39.3557 207.788 66.8805 205.611C66.8805 205.611 1.68723 203.44 -35.9812 199.815C-73.6497 196.191 -125.081 183.152 -138.843 173.738H-138.849Z" fill="white"/>
</g>
<g style="mix-blend-mode:overlay" opacity="0.28">
<path d="M101 139C101 139 127.543 144.676 143.726 142.802C159.91 140.929 160.387 139.63 164.485 142.275C168.583 144.92 169.426 146.699 177.446 145.148C185.466 143.597 199.454 144.479 205.97 146.219C212.487 147.966 218.279 143.55 225.893 143.912C233.508 144.274 257.56 150.241 281 145.66C281 145.66 224.755 150.289 192.022 150.95C159.289 151.611 113.778 145.636 101.008 139H101Z" fill="white"/>
</g>
<g style="mix-blend-mode:overlay" opacity="0.28">
<path d="M-264.978 114C-264.978 114 -53.1589 162.673 138.289 173.834C329.736 184.986 452.964 130.224 452.964 130.224L455 138.34C455 138.34 296.138 200.201 38.4898 179.915C-219.158 159.636 -266 140.367 -266 140.367L-264.978 114Z" fill="white"/>
</g>
<path opacity="0.2" d="M-114 -39C-114 -39 25.9239 96.1757 291 109C291 109 289.028 102.09 278.192 100.116C267.356 98.1421 255.526 103.078 252.569 96.168C249.611 89.2584 239.761 69.5246 219.066 68.5452C198.372 67.5659 185.564 79.3954 174.72 72.4935C163.876 65.5917 151.068 52.7597 140.232 53.7468C129.396 54.7338 102.787 62.6305 98.8433 50.7855C94.9001 38.9406 94.9001 18.2274 72.2341 -7.42893C49.5681 -33.0852 -18.4223 12.3049 -29.2585 -2.49354C-40.0948 -17.292 -43.0522 -39 -56.8459 -39H-114Z" fill="white"/>
<path opacity="0.2" d="M191 111.94C191 111.94 19.9634 114.287 -98.1857 89.6113C-216.326 64.9354 -261 28.5062 -261 28.5062C-261 28.5062 -235.136 40.2596 -223.968 39.0815C-212.799 37.9034 -198.694 24.392 -189.293 26.1591C-179.892 27.9262 -172.839 50.8349 -165.197 52.013C-157.555 53.1911 -152.85 46.7208 -122.291 47.3098C-91.7312 47.8988 -89.3742 67.8715 -75.8577 77.2779C-62.3412 86.6752 -23.5504 80.803 -5.32899 80.214C12.8924 79.6249 22.2932 98.4286 34.051 100.776C45.8088 103.123 70.4939 94.3144 75.779 96.0725C81.0641 97.8305 84.5996 104.89 90.474 104.301C96.3483 103.712 95.1789 97.2505 101.053 100.776C106.928 104.301 123.39 109.004 128.086 103.712C132.791 98.4195 190.973 111.94 190.973 111.94H191Z" fill="white"/>
<path opacity="0.2" d="M150 29.5247C150 29.5247 308.199 61.3008 382 55.2288C382 55.2288 366.856 48.7868 358.318 49.6287C349.781 50.4706 343.587 55.3053 333.491 45.7508C323.408 36.1963 295.451 27.3179 280.371 35.7371C265.305 44.1563 253.625 39.9849 249.349 36.6938C245.074 33.4027 240 36.5152 230.664 36.3239C221.315 36.1453 210.344 10.7091 197.196 11.0025C184.048 11.2959 179.992 29.3717 172.123 24.7283C164.255 20.085 150 29.5247 150 29.5247Z" fill="white"/>
<path d="M1.67497 332.291L-6.50334 333.7C-6.50334 333.7 -15.8082 304.093 -16.6546 290.842C-16.6578 290.795 -16.6609 290.748 -16.6641 290.704V290.7C-17.1298 282.173 -8.72177 303.791 -3.13321 318.955C-0.389277 326.4 1.67497 332.291 1.67497 332.291Z" fill="url(#paint14_linear_199_8569)"/>
<g style="mix-blend-mode:multiply" opacity="0.46">
<path d="M1.67497 332.291L-6.50333 333.7C-6.50333 333.7 -15.8082 304.093 -16.6546 290.842C-16.6578 290.795 -16.6609 290.748 -16.6641 290.704C-14.839 298.199 -11.1007 312.907 -8.17109 320.276C-6.04076 325.638 -4.30063 322.813 -3.1332 318.955C-0.389267 326.4 1.67497 332.291 1.67497 332.291Z" fill="#4194F2"/>
</g>
<path d="M39.8439 317.71C39.8439 317.71 39.8439 317.71 39.842 317.715C39.7814 317.969 35.9301 334.393 37.8182 340.099C37.8182 340.099 44.4525 329.737 39.8429 317.712L39.8439 317.71Z" fill="url(#paint15_linear_199_8569)"/>
<g style="mix-blend-mode:multiply" opacity="0.28">
<path d="M39.8346 317.715C39.774 317.969 35.926 334.387 37.8125 340.091C37.8125 340.091 40.7112 329.638 39.8346 317.715Z" fill="#82007E"/>
</g>
<path d="M53.7459 324.936C53.7459 324.936 53.7449 324.938 53.744 324.94C53.5282 325.097 39.7332 335.204 37.0418 341.164C37.0418 341.164 48.4862 337.979 53.7478 324.936L53.7459 324.936Z" fill="url(#paint16_linear_199_8569)"/>
<g style="mix-blend-mode:multiply" opacity="0.28">
<path d="M53.7439 324.938C53.528 325.094 39.7338 335.201 37.0426 341.161C37.0426 341.161 46.12 335.067 53.7439 324.938Z" fill="#82007E"/>
</g>
<path d="M49.5065 313.931C49.5065 313.931 49.5055 313.933 49.5046 313.935C49.3303 314.237 38.1194 333.715 38.0921 341.966C38.0921 341.966 50.206 331.615 49.5065 313.931Z" fill="url(#paint17_linear_199_8569)"/>
<g style="mix-blend-mode:multiply" opacity="0.28">
<path d="M49.3302 313.934C49.1583 314.235 38.0991 333.643 38.0721 341.865C38.0721 341.865 45.6447 329.714 49.3302 313.934Z" fill="#82007E"/>
</g>
<path d="M51.488 328.13C51.488 328.13 51.488 328.13 51.4871 328.132C51.3536 328.278 42.8041 337.678 41.738 342.323C41.738 342.323 49.6184 338.194 51.488 328.13Z" fill="url(#paint18_linear_199_8569)"/>
<g style="mix-blend-mode:multiply" opacity="0.28">
<path d="M51.4424 328.13C51.3095 328.276 42.7988 337.661 41.7375 342.299C41.7375 342.299 47.4215 336.517 51.4424 328.13Z" fill="#82007E"/>
</g>
<path d="M57.5278 338.525C57.5278 338.525 57.5278 338.525 57.5258 338.524C57.3307 338.539 44.728 339.528 40.6576 342.513C40.6576 342.513 49.0093 345.335 57.5288 338.523L57.5278 338.525Z" fill="url(#paint19_linear_199_8569)"/>
<g style="mix-blend-mode:multiply" opacity="0.28">
<path d="M57.5227 338.526C57.3275 338.54 44.7248 339.53 40.6544 342.515C40.6544 342.515 48.7208 342.255 57.5227 338.526Z" fill="#82007E"/>
</g>
<path d="M59.2374 329.429L59.2365 329.431C59.0073 329.561 44.3007 338.042 40.98 343.7C40.98 343.7 52.594 341.889 59.2374 329.429Z" fill="url(#paint20_linear_199_8569)"/>
<g style="mix-blend-mode:multiply" opacity="0.28">
<path d="M59.2365 329.431C59.0073 329.561 44.3006 338.042 40.9799 343.7C40.9799 343.7 50.5953 338.68 59.2365 329.431Z" fill="#82007E"/>
</g>
<path d="M19.8613 336.627C19.8613 336.627 24.3457 319.028 31.9429 312.38C36.5556 308.343 42.4169 308.428 46.3094 309.119" stroke="url(#paint21_linear_199_8569)" stroke-width="0.74" stroke-miterlimit="10"/>
<path d="M43.3284 311.074C41.1105 311.282 35.7525 312.304 32.6303 314.302C29.6707 316.197 28.5689 313.109 30.2911 311.233C30.3853 311.13 30.4885 311.031 30.6006 310.935C32.3589 309.447 39.7805 306.233 43.2514 307.431C44.0251 307.698 44.6025 308.184 44.8774 308.956C44.8774 308.956 45.5454 310.869 43.3284 311.074Z" fill="url(#paint22_linear_199_8569)"/>
<g style="mix-blend-mode:multiply" opacity="0.28">
<path d="M43.3284 311.074C41.1105 311.282 35.7525 312.304 32.6303 314.302C29.6707 316.197 28.5689 313.109 30.2911 311.233C31.1446 311.835 32.4223 312.263 34.3249 312.263C38.7076 312.267 41.7533 309.321 43.2514 307.431C44.0251 307.698 44.6025 308.184 44.8774 308.956C44.8774 308.956 45.5454 310.869 43.3284 311.074Z" fill="#82007E"/>
</g>
<path d="M-1.1823 329.268C-0.268114 326.457 1.39256 323.663 4.10555 322.48C6.81855 321.297 10.6465 322.485 11.3886 325.354C12.3356 322.688 13.7468 320.189 15.5431 318.002C16.3289 317.047 17.2377 316.118 18.4209 315.744C21.1705 314.876 24.0085 317.597 24.3899 320.453C24.7714 323.31 23.4836 326.091 22.2287 328.679C25.4335 324.721 29.603 321.543 34.277 319.501C36.8829 318.362 40.4227 317.794 42.1674 320.048C43.4899 321.756 43.0241 324.198 42.352 326.241C41.1315 329.955 39.441 333.512 37.3299 336.798C38.9576 334.196 43.5717 334.48 44.8865 337.265C45.9817 339.584 44.8489 342.285 43.7197 344.582C41.3535 349.397 38.9584 354.199 36.5368 358.988C28.345 355.443 20.229 351.725 12.1992 347.833C7.71331 345.66 2.66639 343.402 -0.970249 339.905C-4.17179 336.824 -2.45929 333.214 -1.1773 329.271L-1.1823 329.268Z" fill="url(#paint23_linear_199_8569)"/>
<path d="M-2.59489 331.635C-1.63237 328.769 0.069654 325.905 2.7822 324.652C5.49474 323.399 9.26461 324.526 9.94241 327.418C10.9346 324.697 12.3834 322.137 14.2076 319.886C15.0056 318.903 15.925 317.943 17.1052 317.541C19.8476 316.606 22.6056 319.305 22.9262 322.192C23.2469 325.078 21.9146 327.921 20.6189 330.568C23.8746 326.494 28.0708 323.19 32.7441 321.028C35.3497 319.822 38.8693 319.175 40.5531 321.423C41.8294 323.127 41.3187 325.61 40.6116 327.694C39.3273 331.481 37.5804 335.118 35.4221 338.49C37.0876 335.82 41.6548 336.015 42.9019 338.811C43.9406 341.138 42.7637 343.897 41.5984 346.247C39.1565 351.172 36.6862 356.084 34.19 360.984C26.1426 357.558 18.1738 353.955 10.294 350.173C5.89179 348.062 0.935308 345.877 -2.59857 342.407C-5.70959 339.35 -3.9398 335.658 -2.59 331.638L-2.59489 331.635Z" fill="url(#paint24_linear_199_8569)"/>
<path d="M26.27 250.888C26.27 250.888 25.2536 260.055 24.2341 260.87C23.2146 261.685 20.1623 270.442 20.1623 270.442C20.1623 270.442 18.9382 279.199 18.1232 281.641C17.6008 283.211 15.1464 288.636 13.4598 292.324C13.4598 292.356 13.4598 292.384 13.4629 292.415C13.4661 292.51 13.4661 292.604 13.4692 292.702C13.7681 306.689 14.6901 344.481 14.6901 344.481L4.13291 344.616L0.476429 344.663L-6.35508 344.748L-2.48463 280.537C-2.48463 280.537 -5.92083 273.925 -6.44948 272.607C-6.97813 271.285 -8.56093 260.977 -8.56093 259.394C-8.56093 258.585 -10.622 255.099 -12.6422 251.873C-14.5806 248.774 -16.4875 245.916 -16.4875 245.916L-21.7771 239.84L-26 230.063L-25.6224 229.607L-24.6847 228.477L-19.9237 236.665C-19.9237 236.665 -8.8284 248.824 -7.50363 249.881C-6.18831 250.939 -3.28074 260.715 -3.01327 261.773C-2.78986 262.682 0.769075 270.247 1.75714 272.336C1.91763 272.673 2.00887 272.868 2.00887 272.868L2.02776 272.437L3.3242 241.955V215.79L4.60177 215.551L6.41427 215.214L7.55653 215L10.055 236.221C10.055 236.221 10.0708 236.203 10.0959 236.171H10.0991C10.6214 235.539 15.6971 229.409 15.9488 228.654C16.2131 227.864 16.5404 220.022 16.5404 220.022L18.3057 218.474L18.6518 218.169C18.6518 218.169 19.7091 224.248 19.9766 225.57C20.2378 226.891 18.1232 233.764 17.3334 234.821C16.6159 235.775 11.3452 242.581 10.3571 243.858C10.2533 243.994 10.1966 244.066 10.1966 244.066C10.1966 244.066 10.4641 247.575 10.8134 251.861C11.32 258.028 11.9997 265.81 12.3144 267.059C12.5252 267.912 12.7392 271.024 12.9217 274.592L14.3157 273.617L17.1068 271.66L19.3473 260.662C19.3473 260.662 21.5846 259.444 22.3996 259.032C23.2146 258.629 23.825 250.275 23.825 250.275L25.5054 250.696L26.27 250.888Z" fill="url(#paint25_linear_199_8569)"/>
<g style="mix-blend-mode:overlay" opacity="0.45">
<path d="M26.27 250.888C26.27 250.888 25.2536 260.055 24.2341 260.87C23.2146 261.685 20.1622 270.442 20.1622 270.442C20.1622 270.442 19.3598 278.752 18.5448 281.194C18.0225 282.764 15.1464 288.636 13.4598 292.324C13.4598 292.356 13.4598 292.384 13.4629 292.415C12.4465 289.413 13.7807 284.133 14.5957 283.271C15.631 282.176 18.9822 274.133 19.2875 273.4C19.5927 272.67 19.2875 272.242 19.1647 271.207C19.042 270.171 21.1755 266.757 21.2982 266.21C21.4209 265.662 20.8105 264.016 20.7507 263.101C20.6878 262.188 23.2492 260.848 23.7967 260.055C24.3442 259.262 24.4072 258.167 24.6495 256.949C24.8509 255.942 25.3417 252.034 25.5054 250.696L26.27 250.888Z" fill="white"/>
</g>
<g style="mix-blend-mode:overlay" opacity="0.45">
<path d="M17.3334 234.821C16.616 235.775 11.3452 242.581 10.3571 243.859C9.9764 243.305 9.76557 242.622 9.77187 241.952C9.7876 240.592 10.5491 239.334 11.5372 238.402C12.1539 237.817 12.8619 237.335 13.4535 236.725C14.1741 235.982 14.6996 235.076 15.2157 234.179C16.0716 232.694 16.9275 231.212 17.7802 229.727C18.054 229.252 18.3341 228.761 18.397 228.216C18.4505 227.738 18.3278 227.25 18.3876 226.772C18.4631 226.152 18.8281 225.608 19.0075 225.01C19.6368 222.889 17.8526 220.513 18.3057 218.474L18.6519 218.169C18.6519 218.169 19.7092 224.248 19.9766 225.57C20.2378 226.892 18.1232 233.764 17.3334 234.821Z" fill="white"/>
</g>
<g style="mix-blend-mode:overlay" opacity="0.45">
<path d="M1.7571 272.336C1.06483 272.547 0.359961 271.748 0.00123596 271.049C-2.37768 266.417 -3.93215 261.42 -5.83906 256.578C-6.55651 254.756 -7.32746 252.953 -8.17707 251.187C-8.55153 250.407 -8.94801 249.63 -9.50498 248.966C-10.3263 247.987 -11.4465 247.314 -12.4723 246.552C-14.0646 245.366 -15.4617 243.918 -16.5945 242.288C-17.4095 241.111 -18.1081 239.818 -19.2157 238.912C-19.7349 238.487 -20.3328 238.154 -20.7859 237.663C-22.0037 236.341 -21.8936 234.214 -22.9981 232.795C-23.404 232.272 -23.9547 231.879 -24.4204 231.407C-24.9333 230.891 -25.3392 230.274 -25.6224 229.607L-24.6847 228.477L-19.9237 236.665C-19.9237 236.665 -8.82844 248.824 -7.50367 249.881C-6.18835 250.939 -3.28078 260.715 -3.01331 261.773C-2.7899 262.682 0.769033 270.247 1.7571 272.336Z" fill="white"/>
</g>
<g style="mix-blend-mode:overlay" opacity="0.45">
<path d="M10.096 236.171C10.0865 236.228 10.0771 236.281 10.0645 236.338C9.99214 236.681 9.74669 237.125 9.41629 236.999C9.22749 236.926 9.15511 236.7 9.10791 236.505C8.79324 235.167 8.47857 233.833 8.1639 232.496C7.90272 231.388 7.6384 230.265 7.6321 229.126C7.62581 227.832 7.94992 226.558 7.97195 225.268C8.03174 221.869 6.03042 218.461 6.41432 215.214L7.55658 215L10.0551 236.221C10.0551 236.221 10.0708 236.203 10.096 236.171Z" fill="white"/>
</g>
<g style="mix-blend-mode:overlay" opacity="0.45">
<path d="M14.3156 273.617C14.303 273.777 14.2873 273.935 14.2653 274.095C14.1772 274.731 13.9569 275.436 13.3779 275.713C12.6982 276.04 11.8517 275.565 11.4993 274.895C11.15 274.224 11.1595 273.431 11.1721 272.676C11.2161 269.378 11.0934 266.077 10.9738 262.783C10.914 261.156 10.8574 259.526 10.6906 257.909C10.5553 256.593 9.6459 254.217 9.98889 252.965C10.162 252.333 10.4452 251.99 10.8133 251.861C11.32 258.028 11.9996 265.81 12.3143 267.059C12.5251 267.912 12.7391 271.024 12.9216 274.592L14.3156 273.617Z" fill="white"/>
</g>
<g style="mix-blend-mode:overlay" opacity="0.45">
<path d="M14.6901 344.481L4.13287 344.616C3.95351 342.719 4.4381 340.727 5.80378 339.424C6.7352 338.534 7.99703 338.03 8.89384 337.105C10.2312 335.72 10.5333 333.669 10.7693 331.759C11.2476 327.851 11.7259 323.857 10.914 320.003C10.228 316.746 8.64525 313.332 9.90708 310.251C10.7252 308.256 12.6416 306.796 13.1702 304.703C13.7335 302.472 12.5692 300.197 12.3301 297.906C12.1412 296.11 12.5566 294.263 13.4692 292.702C13.7681 306.689 14.6901 344.481 14.6901 344.481Z" fill="white"/>
</g>
<path style="mix-blend-mode:multiply" opacity="0.3" d="M4.41606 264.718C4.34054 266.442 4.26502 268.176 4.49473 269.888C4.70871 271.487 5.11463 273.356 3.99755 274.52C3.86853 274.655 3.70805 274.781 3.5224 274.784C3.20143 274.791 2.99375 274.457 2.85529 274.168C2.57838 273.592 2.30147 273.016 2.02771 272.437L3.32415 241.955V215.79L4.60172 215.551C3.87168 219.975 3.91888 224.525 4.73073 228.937C4.98247 230.296 5.30658 231.646 5.4765 233.018C5.72509 235.045 5.63699 237.093 5.54573 239.129C5.17127 247.66 4.79367 256.187 4.41606 264.718Z" fill="url(#paint26_linear_199_8569)"/>
<path style="mix-blend-mode:multiply" opacity="0.3" d="M0.429231 305.902C1.12465 310.795 1.63127 315.311 0.592856 320.141C-0.215849 323.892 -2.05982 327.589 -1.42418 331.372C-1.21965 332.596 -0.760226 333.76 -0.436115 334.956C0.0767994 336.844 0.256158 338.804 0.391467 340.755C0.482721 342.048 0.55195 343.367 0.47643 344.663L-6.35508 344.748L-2.48463 280.537C-2.48463 280.537 -5.92083 273.925 -6.44948 272.607C-6.97813 271.285 -8.56093 260.977 -8.56093 259.394C-8.56093 258.585 -10.622 255.099 -12.6422 251.873C-11.5818 252.512 -10.6724 253.365 -10.3325 254.529C-10.1783 255.064 -10.15 255.637 -9.91716 256.143C-9.25635 257.572 -7.2456 257.909 -6.46836 259.277C-5.97747 260.146 -6.10334 261.216 -6.01838 262.21C-5.77294 265.124 -3.6552 267.591 -3.22725 270.483C-2.96607 272.258 -3.35312 274.133 -2.73951 275.817C-2.21716 277.242 -1.05287 278.328 -0.348007 279.668C0.495312 281.267 0.636909 283.129 0.759631 284.933C0.942141 287.569 1.1278 290.206 1.31031 292.843C1.40156 294.156 1.48967 295.493 1.16242 296.767C0.80369 298.174 -0.0364838 299.411 -0.495903 300.789C-0.955323 302.167 -0.927003 303.895 0.186933 304.829C0.372588 304.983 0.59286 305.122 0.690409 305.345C0.787956 305.569 0.671528 305.902 0.429231 305.902Z" fill="url(#paint27_linear_199_8569)"/>
<path d="M49.9109 244.878C48.3941 246.137 46.4998 247.09 44.4136 247.804C35.1087 250.998 22.0404 249.466 22.0404 249.466C8.98788 249.466 16.927 239.412 16.927 239.412C16.927 239.412 16.0176 238.789 15.1806 237.811C13.9408 236.366 12.8489 234.141 15.0453 231.989H15.0484C15.404 231.637 15.8509 231.287 16.3952 230.944C22.5691 227.064 42.6797 225.299 49.206 226.536C55.7323 227.769 48.3218 235.885 48.3218 235.885C48.3218 235.885 51.0972 236.479 52.4723 238.062C53.6901 239.466 53.8065 241.646 49.9109 244.878Z" fill="url(#paint28_linear_199_8569)"/>
<path style="mix-blend-mode:multiply" d="M44.4136 247.804C35.1088 250.998 22.0405 249.466 22.0405 249.466C8.98793 249.466 16.9271 239.412 16.9271 239.412C16.9271 239.412 16.0177 238.789 15.1807 237.811C16.0429 238.172 16.9648 238.412 17.7767 238.871C18.0347 239.016 18.3053 239.223 18.3305 239.519C18.3651 239.925 17.934 240.193 17.5942 240.416C16.5212 241.13 15.8541 242.42 15.8981 243.707C15.939 244.994 16.6879 246.241 17.805 246.883C18.3557 247.197 18.9756 247.37 19.5986 247.502C26.7857 249.013 34.2088 245.202 41.4746 246.259C42.6105 246.423 43.8724 246.826 44.4136 247.804Z" fill="url(#paint29_linear_199_8569)"/>
<path d="M34.2811 207.564C34.2811 207.564 34.8979 207.844 35.4171 208.361C36.273 209.213 36.8551 210.708 33.913 212.634C33.6266 212.823 33.3025 213.014 32.9438 213.213C26.7007 216.633 15.1271 215.019 15.1271 215.019C6.65614 216.356 1.73154 214.997 2.76995 211.727C3.81151 208.458 7.37988 206.227 7.37988 206.227C7.37988 206.227 6.24078 204.912 7.97147 202.662C10.6525 199.175 14.0383 195.94 21.1751 195.789C21.6439 195.78 22.0687 195.786 22.4621 195.808C23.1575 195.84 23.7365 195.915 24.2211 196.025C27.629 196.784 26.2539 199.093 26.2539 199.093C26.2539 199.093 38.74 195.676 41.2668 200.283C43.7936 204.89 34.2811 207.564 34.2811 207.564Z" fill="url(#paint30_linear_199_8569)"/>
<g opacity="0.28">
<path d="M33.913 212.634C33.6266 212.823 33.3025 213.014 32.9438 213.213C26.7007 216.633 15.1271 215.019 15.1271 215.019C6.65614 216.356 1.73154 214.997 2.76995 211.727C3.81152 208.458 7.37988 206.227 7.37988 206.227C7.37988 206.227 6.24078 204.912 7.97147 202.662C10.6525 199.175 14.0383 195.94 21.1751 195.789C21.6439 195.78 22.0687 195.786 22.4621 195.808C23.1575 195.84 23.7365 195.915 24.2211 196.025C23.362 196.916 22.5628 197.879 22.1852 199.043C21.7132 200.491 22.1128 202.341 23.4659 203.033C21.4111 204.235 19.4444 205.588 17.591 207.083C16.9365 207.608 16.2505 208.241 16.1781 209.075C16.1026 209.943 16.7571 210.739 17.5501 211.101C18.343 211.46 19.243 211.473 20.1115 211.451C24.5263 211.34 28.9254 210.532 33.0917 209.065C33.8532 208.795 34.6241 208.502 35.4171 208.361C36.273 209.213 36.8551 210.708 33.913 212.634Z" fill="url(#paint31_linear_199_8569)" style="mix-blend-mode:multiply"/>
</g>
<path style="mix-blend-mode:multiply" d="M33.913 212.634C33.6266 212.823 33.3025 213.014 32.9438 213.213C26.7007 216.633 15.1271 215.019 15.1271 215.019C6.65614 216.356 1.73154 214.997 2.76995 211.727C3.81151 208.458 7.37988 206.227 7.37988 206.227C7.37988 206.227 6.24078 204.912 7.97147 202.662C10.6525 199.175 14.0383 195.94 21.1751 195.789C21.6439 195.78 22.0687 195.786 22.4621 195.808L22.0467 195.837C19.8534 196.746 18.1857 198.817 17.7672 201.151C17.6036 202.064 17.6067 203.033 17.1693 203.848C16.5903 204.934 15.382 205.488 14.3467 206.152C12.8992 207.08 11.6751 208.351 10.8004 209.83C10.3818 210.544 10.0357 211.425 10.3756 212.181C10.7783 213.081 11.9458 213.345 12.9244 213.232C13.8999 213.115 14.8565 212.741 15.8351 212.823C16.9459 212.914 17.9277 213.578 19.0101 213.839C21.1688 214.361 23.3778 213.235 25.5993 213.216C27.05 213.203 28.4817 213.663 29.9292 213.559C31.2855 213.461 32.5819 212.876 33.913 212.634Z" fill="url(#paint32_linear_199_8569)"/>
<path d="M22.9246 203.439C19.888 207.004 11.1528 207.067 11.1528 207.067C11.1528 207.067 10.514 209.248 7.21308 211.227C3.91218 213.21 -2.81863 211.756 -2.81863 211.756C-15.8901 210.437 -7.17683 202.121 -7.17683 202.121C-7.17683 202.121 -12.5892 200.535 -11.2707 198.291C-11.1574 198.096 -11.0347 197.91 -10.9057 197.734C-9.55574 195.849 -7.57331 194.858 -7.57331 194.858C-7.57331 194.858 -8.11455 194.556 -8.47642 193.964C-8.832 193.388 -9.01765 192.536 -8.36629 191.425C-7.04467 189.181 -0.046381 184.562 5.36596 184.033C10.7783 183.505 10.9105 189.446 10.9105 189.446C10.9105 189.446 19.8503 187.957 23.491 190.135C23.9064 190.383 24.2525 190.679 24.5074 191.028C27.0153 194.461 20.4135 198.159 20.4135 198.159C20.4135 198.159 21.8925 198.615 22.9057 199.55C23.8529 200.425 24.3941 201.715 22.9246 203.439Z" fill="url(#paint33_linear_199_8569)"/>
<path style="mix-blend-mode:multiply" d="M22.9246 203.439C19.888 207.004 11.1528 207.067 11.1528 207.067C11.1528 207.067 10.514 209.248 7.21308 211.227C3.91218 213.21 -2.81863 211.756 -2.81863 211.756C-15.8901 210.437 -7.17683 202.121 -7.17683 202.121C-7.17683 202.121 -12.5892 200.535 -11.2707 198.291C-11.1574 198.096 -11.0347 197.91 -10.9057 197.734C-9.55574 195.849 -7.57331 194.858 -7.57331 194.858C-7.57331 194.858 -8.11455 194.556 -8.47642 193.964C-7.13278 194.861 -5.40523 195.091 -3.76894 195.226C-4.69722 195.544 -5.64123 195.871 -6.41533 196.469C-7.19256 197.067 -7.781 197.992 -7.71806 198.971C-7.65198 199.981 -6.88733 200.849 -5.96534 201.268C-5.04021 201.686 -3.98921 201.712 -2.98226 201.595C-3.14274 203.26 -2.07286 204.899 -0.58447 205.657C0.903925 206.416 2.71643 206.369 4.28035 205.787C5.88202 205.192 7.27917 204.056 8.18542 202.608C10.9577 203.332 13.8935 203.414 16.7036 202.844C17.5846 202.668 18.4846 202.41 19.158 201.819C19.8345 201.227 20.2216 200.223 19.8566 199.402C19.4632 198.524 18.4217 198.178 17.4934 197.923C19.6048 197.378 21.5212 196.11 22.8459 194.377C23.7711 193.162 24.306 191.286 23.491 190.135C23.9064 190.383 24.2525 190.679 24.5074 191.028C27.0153 194.461 20.4135 198.159 20.4135 198.159C20.4135 198.159 21.8925 198.615 22.9057 199.55C23.8529 200.425 24.3941 201.715 22.9246 203.439Z" fill="url(#paint34_linear_199_8569)"/>
<path style="mix-blend-mode:multiply" d="M22.9246 203.439C19.888 207.004 11.1528 207.067 11.1528 207.067C11.1528 207.067 10.514 209.248 7.21308 211.227C3.91218 213.21 -2.81863 211.756 -2.81863 211.756C-15.8901 210.437 -7.17683 202.121 -7.17683 202.121C-7.17683 202.121 -12.5892 200.535 -11.2707 198.291C-11.1574 198.096 -11.0347 197.91 -10.9057 197.734C-10.6477 197.954 -10.4148 198.209 -10.2134 198.47C-9.62497 199.222 -9.12779 200.094 -8.30965 200.585C-7.8282 200.874 -7.26808 201.01 -6.76776 201.268C-6.26428 201.526 -5.79542 201.966 -5.75766 202.526C-5.73564 202.825 -5.83948 203.115 -5.93388 203.398C-6.16359 204.097 -6.33036 204.886 -5.99996 205.541C-5.66641 206.199 -4.62485 206.485 -4.19689 205.887C-2.25852 207.914 0.589255 209.034 3.38983 208.873C6.1904 208.71 8.89342 207.272 10.5864 205.038C12.5373 205.072 14.5009 205.107 16.4172 204.748C18.3367 204.389 20.2247 203.603 21.5904 202.212C22.2953 201.497 22.8491 200.519 22.9057 199.55C23.8529 200.424 24.3941 201.715 22.9246 203.439Z" fill="url(#paint35_linear_199_8569)"/>
<path d="M10.4763 210.988C10.4039 211.274 10.2938 211.545 10.149 211.797C8.54104 214.585 2.69131 215.261 -1.69521 216.061C-6.47821 216.929 -10.1001 218.232 -13.2877 215.044C-16.4753 211.857 -13.8667 210.409 -13.8667 210.409C-13.8667 210.409 -18.9392 210.554 -18.2154 207.8C-18.099 207.35 -17.7371 206.954 -17.2179 206.602C-16.532 206.133 -15.5659 205.746 -14.5055 205.431C-11.45 204.512 -7.6362 204.175 -7.6362 204.175C-7.6362 204.175 4.24578 200.554 7.4334 202.583C10.621 204.613 5.84116 207.074 5.84116 207.074C5.84116 207.074 8.22008 207.262 9.60149 208.379C10.3252 208.962 10.7752 209.795 10.4763 210.988Z" fill="url(#paint36_linear_199_8569)"/>
<path style="mix-blend-mode:multiply" d="M9.04143 206.938L8.4939 206.617C8.70473 206.683 8.89038 206.793 9.04143 206.938Z" fill="url(#paint37_linear_199_8569)"/>
<path style="mix-blend-mode:multiply" d="M10.4763 210.988C10.4039 211.274 10.2938 211.545 10.149 211.797C8.54104 214.585 2.69131 215.261 -1.69521 216.06C-6.47821 216.929 -10.1001 218.232 -13.2877 215.044C-16.4753 211.856 -13.8667 210.409 -13.8667 210.409C-13.8667 210.409 -18.9392 210.554 -18.2154 207.8C-18.099 207.35 -17.7371 206.954 -17.2179 206.601C-16.532 206.133 -15.5659 205.746 -14.5055 205.431C-14.4551 205.831 -14.4079 206.233 -14.2537 206.595C-13.6999 207.882 -12.0322 208.162 -10.635 208.257C-11.4658 209.053 -11.557 210.44 -10.978 211.432C-10.399 212.423 -9.26305 213.011 -8.11765 213.093C-6.97225 213.178 -5.82999 212.804 -4.83877 212.225C-4.67829 212.133 -4.51466 212.03 -4.33215 212.001C-4.11188 211.967 -3.89162 212.036 -3.67764 212.102C-0.134443 213.2 3.82727 212.885 7.15335 211.243C8.08477 210.783 9.01934 210.167 9.43156 209.213C9.54484 208.955 9.60149 208.666 9.60149 208.379C10.3252 208.962 10.7752 209.795 10.4763 210.988Z" fill="url(#paint38_linear_199_8569)"/>
<path style="mix-blend-mode:multiply" d="M10.149 211.797C8.54104 214.585 2.69131 215.261 -1.69521 216.06C-6.47821 216.929 -10.1001 218.232 -13.2877 215.044C-16.4753 211.856 -13.8667 210.409 -13.8667 210.409C-13.8667 210.409 -18.9392 210.554 -18.2154 207.8C-18.099 207.35 -17.7371 206.954 -17.2179 206.601C-17.1613 207.555 -16.6138 208.518 -15.8208 209.09C-14.625 209.953 -13.0485 210.097 -11.5759 209.981C-12.5105 210.494 -13.3727 211.303 -13.5615 212.35C-13.8132 213.76 -12.7213 215.142 -11.3934 215.68C-10.0655 216.218 -8.57392 216.111 -7.15161 215.935C-3.38499 215.466 0.318684 214.588 4.01292 213.713C6.10234 213.216 8.21378 212.712 10.149 211.797Z" fill="url(#paint39_linear_199_8569)"/>
</g>
<defs>
<linearGradient id="paint0_linear_199_8569" x1="145.5" y1="0" x2="145.5" y2="342" gradientUnits="userSpaceOnUse">
<stop stop-color="#42ADFF"/>
<stop offset="0.328125" stop-color="#A6A9ED"/>
<stop offset="0.682292" stop-color="#FFA6DD"/>
</linearGradient>
<linearGradient id="paint1_linear_199_8569" x1="-21.0039" y1="307.096" x2="84.954" y2="307.096" gradientUnits="userSpaceOnUse">
<stop stop-color="#90C9FD"/>
<stop offset="0.27" stop-color="#8AC3FD"/>
<stop offset="0.62" stop-color="#79B5FD"/>
<stop offset="1" stop-color="#5F9EFD"/>
</linearGradient>
<linearGradient id="paint2_linear_199_8569" x1="192.981" y1="293.138" x2="421.857" y2="293.138" gradientUnits="userSpaceOnUse">
<stop stop-color="#90C9FD"/>
<stop offset="0.27" stop-color="#8AC3FD"/>
<stop offset="0.62" stop-color="#79B5FD"/>
<stop offset="1" stop-color="#5F9EFD"/>
</linearGradient>
<linearGradient id="paint3_linear_199_8569" x1="-18.5482" y1="304.665" x2="177.648" y2="304.665" gradientUnits="userSpaceOnUse">
<stop stop-color="#ECF6FF"/>
<stop offset="1" stop-color="#77ADFF"/>
</linearGradient>
<linearGradient id="paint4_linear_199_8569" x1="151.102" y1="347.06" x2="151.102" y2="299.126" gradientUnits="userSpaceOnUse">
<stop stop-color="#74BCFD"/>
<stop offset="0.19" stop-color="#79BEFD"/>
<stop offset="0.43" stop-color="#8AC6FD"/>
<stop offset="0.71" stop-color="#A5D3FD"/>
<stop offset="1" stop-color="#CAE4FD"/>
</linearGradient>
<linearGradient id="paint5_linear_199_8569" x1="240" y1="317.5" x2="358.5" y2="360.5" gradientUnits="userSpaceOnUse">
<stop stop-color="#478CEC"/>
<stop offset="1" stop-color="#8AC8F9"/>
</linearGradient>
<linearGradient id="paint6_linear_199_8569" x1="37.0029" y1="326.538" x2="49.3372" y2="326.538" gradientUnits="userSpaceOnUse">
<stop stop-color="#F93D31"/>
<stop offset="1" stop-color="#B70400"/>
</linearGradient>
<linearGradient id="paint7_linear_199_8569" x1="68.1101" y1="278.718" x2="68.1101" y2="358.54" gradientUnits="userSpaceOnUse">
<stop stop-color="#F93D31"/>
<stop offset="1" stop-color="#B70400"/>
</linearGradient>
<linearGradient id="paint8_linear_199_8569" x1="62.744" y1="303.431" x2="71.8879" y2="303.431" gradientUnits="userSpaceOnUse">
<stop stop-color="#A43113"/>
<stop offset="1" stop-color="#6F160D"/>
</linearGradient>
<linearGradient id="paint9_linear_199_8569" x1="75.0603" y1="302.31" x2="80.1507" y2="302.31" gradientUnits="userSpaceOnUse">
<stop stop-color="#A43113"/>
<stop offset="1" stop-color="#6F160D"/>
</linearGradient>
<linearGradient id="paint10_linear_199_8569" x1="127.681" y1="352.346" x2="127.681" y2="294.51" gradientUnits="userSpaceOnUse">
<stop stop-color="#009579"/>
<stop offset="1" stop-color="#02B695"/>
</linearGradient>
<linearGradient id="paint11_linear_199_8569" x1="131.504" y1="318.217" x2="138.147" y2="318.217" gradientUnits="userSpaceOnUse">
<stop stop-color="#A43113"/>
<stop offset="1" stop-color="#6F160D"/>
</linearGradient>
<linearGradient id="paint12_linear_199_8569" x1="117.104" y1="316.582" x2="122.91" y2="317.272" gradientUnits="userSpaceOnUse">
<stop stop-color="#A43113"/>
<stop offset="1" stop-color="#6F160D"/>
</linearGradient>
<linearGradient id="paint13_linear_199_8569" x1="146.663" y1="316.322" x2="167.559" y2="316.322" gradientUnits="userSpaceOnUse">
<stop stop-color="#009579"/>
<stop offset="1" stop-color="#02B695"/>
</linearGradient>
<linearGradient id="paint14_linear_199_8569" x1="-4.21253" y1="288.306" x2="-12.0227" y2="342.077" gradientUnits="userSpaceOnUse">
<stop stop-color="#A6CBFF"/>
<stop offset="0.12" stop-color="#A3C6FD"/>
<stop offset="0.26" stop-color="#9AB7F8"/>
<stop offset="0.42" stop-color="#8CA0F0"/>
<stop offset="0.58" stop-color="#787FE4"/>
<stop offset="0.74" stop-color="#5F55D6"/>
<stop offset="0.91" stop-color="#4022C4"/>
<stop offset="1" stop-color="#2E04BA"/>
</linearGradient>
<linearGradient id="paint15_linear_199_8569" x1="46.5361" y1="319.829" x2="35.1939" y2="332.184" gradientUnits="userSpaceOnUse">
<stop stop-color="#FFE2F4"/>
<stop offset="1" stop-color="#9579F0"/>
</linearGradient>
<linearGradient id="paint16_linear_199_8569" x1="57.8387" y1="325.922" x2="36.3132" y2="336.151" gradientUnits="userSpaceOnUse">
<stop stop-color="#FFA6DD"/>
<stop offset="0.12" stop-color="#FAA2DC"/>
<stop offset="0.26" stop-color="#EB97D9"/>
<stop offset="0.41" stop-color="#D485D5"/>
<stop offset="0.56" stop-color="#B36BD0"/>
<stop offset="0.72" stop-color="#894AC9"/>
<stop offset="0.89" stop-color="#5623C0"/>
<stop offset="1" stop-color="#2E04BA"/>
</linearGradient>
<linearGradient id="paint17_linear_199_8569" x1="49.107" y1="315.709" x2="39.4889" y2="345.485" gradientUnits="userSpaceOnUse">
<stop stop-color="#FFE1F4"/>
<stop offset="0.0001" stop-color="#FFA6DD"/>
<stop offset="1" stop-color="#9879FF"/>
</linearGradient>
<linearGradient id="paint18_linear_199_8569" x1="54.638" y1="332.425" x2="43.0348" y2="335.088" gradientUnits="userSpaceOnUse">
<stop stop-color="#FFDDF2"/>
<stop offset="1" stop-color="#9076E7"/>
</linearGradient>
<linearGradient id="paint19_linear_199_8569" x1="59.6546" y1="341.025" x2="42.2087" y2="338.899" gradientUnits="userSpaceOnUse">
<stop stop-color="#FFA6DD"/>
<stop offset="0.12" stop-color="#FAA2DC"/>
<stop offset="0.26" stop-color="#EB97D9"/>
<stop offset="0.41" stop-color="#D485D5"/>
<stop offset="0.56" stop-color="#B36BD0"/>
<stop offset="0.72" stop-color="#894AC9"/>
<stop offset="0.89" stop-color="#5623C0"/>
<stop offset="1" stop-color="#2E04BA"/>
</linearGradient>
<linearGradient id="paint20_linear_199_8569" x1="58.2784" y1="330.48" x2="38.9701" y2="344.758" gradientUnits="userSpaceOnUse">
<stop stop-color="#FFD9F0"/>
<stop offset="1" stop-color="#8B04BA"/>
</linearGradient>
<linearGradient id="paint21_linear_199_8569" x1="31.4845" y1="309.832" x2="34.522" y2="334.879" gradientUnits="userSpaceOnUse">
<stop stop-color="#6E0782"/>
<stop offset="1" stop-color="#08204D"/>
</linearGradient>
<linearGradient id="paint22_linear_199_8569" x1="44.5684" y1="310.367" x2="29.8596" y2="311.513" gradientUnits="userSpaceOnUse">
<stop stop-color="#FFA6DD"/>
<stop offset="0.12" stop-color="#FAA2DC"/>
<stop offset="0.26" stop-color="#EB97D9"/>
<stop offset="0.41" stop-color="#D485D5"/>
<stop offset="0.56" stop-color="#B36BD0"/>
<stop offset="0.72" stop-color="#894AC9"/>
<stop offset="0.89" stop-color="#5623C0"/>
<stop offset="1" stop-color="#2E04BA"/>
</linearGradient>
<linearGradient id="paint23_linear_199_8569" x1="34.5768" y1="315.242" x2="14.1724" y2="349.648" gradientUnits="userSpaceOnUse">
<stop stop-color="#C5D5FC"/>
<stop offset="1" stop-color="#AFB1F2"/>
</linearGradient>
<linearGradient id="paint24_linear_199_8569" x1="33.1269" y1="316.708" x2="12.2131" y2="351.973" gradientUnits="userSpaceOnUse">
<stop stop-color="#80A7F4"/>
<stop offset="1" stop-color="#5F5CEF"/>
</linearGradient>
<linearGradient id="paint25_linear_199_8569" x1="0.133434" y1="215" x2="0.133434" y2="344.748" gradientUnits="userSpaceOnUse">
<stop stop-color="#6E0782"/>
<stop offset="1" stop-color="#08204D"/>
</linearGradient>
<linearGradient id="paint26_linear_199_8569" x1="2.02771" y1="245.168" x2="5.63699" y2="245.168" gradientUnits="userSpaceOnUse">
<stop stop-color="#6E0782"/>
<stop offset="1" stop-color="#08204D"/>
</linearGradient>
<linearGradient id="paint27_linear_199_8569" x1="-12.6422" y1="298.309" x2="1.39212" y2="298.309" gradientUnits="userSpaceOnUse">
<stop stop-color="#6E0782"/>
<stop offset="1" stop-color="#08204D"/>
</linearGradient>
<linearGradient id="paint28_linear_199_8569" x1="38.91" y1="227.014" x2="21.6471" y2="259.922" gradientUnits="userSpaceOnUse">
<stop stop-color="#EAD5F4"/>
<stop offset="0.963542" stop-color="#ECC2FF"/>
</linearGradient>
<linearGradient id="paint29_linear_199_8569" x1="33.1736" y1="238.984" x2="23.2709" y2="250.19" gradientUnits="userSpaceOnUse">
<stop stop-color="#FFA6DD" stop-opacity="0.5"/>
<stop offset="0.21" stop-color="#F2AFDD" stop-opacity="0.63"/>
<stop offset="0.57" stop-color="#DFBDDE" stop-opacity="0.83"/>
<stop offset="0.84" stop-color="#D3C6DF" stop-opacity="0.95"/>
<stop offset="1" stop-color="#CFCAE0"/>
</linearGradient>
<linearGradient id="paint30_linear_199_8569" x1="30.8732" y1="195.84" x2="6.77887" y2="225.151" gradientUnits="userSpaceOnUse">
<stop stop-color="#EAD5F4"/>
<stop offset="1" stop-color="#EDC8FF"/>
</linearGradient>
<linearGradient id="paint31_linear_199_8569" x1="25.2375" y1="203.832" x2="10.2717" y2="215.538" gradientUnits="userSpaceOnUse">
<stop stop-color="#FACFE9" stop-opacity="0.5"/>
<stop offset="0.21" stop-color="#F2AFDD" stop-opacity="0.63"/>
<stop offset="0.57" stop-color="#DFBDDE" stop-opacity="0.83"/>
<stop offset="0.84" stop-color="#D3C6DF" stop-opacity="0.95"/>
<stop offset="1" stop-color="#CFCAE0"/>
</linearGradient>
<linearGradient id="paint32_linear_199_8569" x1="2.6315" y1="205.657" x2="33.9129" y2="205.657" gradientUnits="userSpaceOnUse">
<stop stop-color="#FFA6DD" stop-opacity="0.5"/>
<stop offset="0.21" stop-color="#F2AFDD" stop-opacity="0.63"/>
<stop offset="0.57" stop-color="#DFBDDE" stop-opacity="0.83"/>
<stop offset="0.84" stop-color="#D3C6DF" stop-opacity="0.95"/>
<stop offset="1" stop-color="#CFCAE0"/>
</linearGradient>
<linearGradient id="paint33_linear_199_8569" x1="11.4674" y1="189.575" x2="-4.69722" y2="220.39" gradientUnits="userSpaceOnUse">
<stop offset="0.12" stop-color="#FFE0F4"/>
<stop offset="1" stop-color="#C8BAF5"/>
</linearGradient>
<linearGradient id="paint34_linear_199_8569" x1="12.1786" y1="192.391" x2="0.582961" y2="207.165" gradientUnits="userSpaceOnUse">
<stop stop-color="#FFA6DD" stop-opacity="0.5"/>
<stop offset="0.21" stop-color="#F2AFDD" stop-opacity="0.63"/>
<stop offset="0.57" stop-color="#DFBDDE" stop-opacity="0.83"/>
<stop offset="0.84" stop-color="#D3C6DF" stop-opacity="0.95"/>
<stop offset="1" stop-color="#CFCAE0"/>
</linearGradient>
<linearGradient id="paint35_linear_199_8569" x1="8.89343" y1="196.346" x2="0.50115" y2="208.76" gradientUnits="userSpaceOnUse">
<stop stop-color="#FFA6DD" stop-opacity="0.5"/>
<stop offset="0.21" stop-color="#F2AFDD" stop-opacity="0.63"/>
<stop offset="0.57" stop-color="#DFBDDE" stop-opacity="0.83"/>
<stop offset="0.84" stop-color="#D3C6DF" stop-opacity="0.95"/>
<stop offset="1" stop-color="#CFCAE0"/>
</linearGradient>
<linearGradient id="paint36_linear_199_8569" x1="-0.12815" y1="202.316" x2="-10.5469" y2="222.178" gradientUnits="userSpaceOnUse">
<stop stop-color="#FFA6DD"/>
<stop offset="0.12" stop-color="#FAA2DC"/>
<stop offset="0.26" stop-color="#EB97D9"/>
<stop offset="0.41" stop-color="#D485D5"/>
<stop offset="0.56" stop-color="#B36BD0"/>
<stop offset="0.72" stop-color="#894AC9"/>
<stop offset="0.89" stop-color="#5623C0"/>
<stop offset="1" stop-color="#2E04BA"/>
</linearGradient>
<linearGradient id="paint37_linear_199_8569" x1="8.84633" y1="206.727" x2="8.65753" y2="206.844" gradientUnits="userSpaceOnUse">
<stop stop-color="#FFA6DD" stop-opacity="0.5"/>
<stop offset="0.21" stop-color="#F2AFDD" stop-opacity="0.63"/>
<stop offset="0.57" stop-color="#DFBDDE" stop-opacity="0.83"/>
<stop offset="0.84" stop-color="#D3C6DF" stop-opacity="0.95"/>
<stop offset="1" stop-color="#CFCAE0"/>
</linearGradient>
<linearGradient id="paint38_linear_199_8569" x1="2.91158" y1="205.5" x2="-12.5293" y2="215.019" gradientUnits="userSpaceOnUse">
<stop stop-color="#FFA6DD" stop-opacity="0.5"/>
<stop offset="0.21" stop-color="#F2AFDD" stop-opacity="0.63"/>
<stop offset="0.57" stop-color="#DFBDDE" stop-opacity="0.83"/>
<stop offset="0.84" stop-color="#D3C6DF" stop-opacity="0.95"/>
<stop offset="1" stop-color="#CFCAE0"/>
</linearGradient>
<linearGradient id="paint39_linear_199_8569" x1="-18.2878" y1="211.838" x2="10.149" y2="211.838" gradientUnits="userSpaceOnUse">
<stop stop-color="#FFA6DD" stop-opacity="0.5"/>
<stop offset="0.21" stop-color="#F2AFDD" stop-opacity="0.63"/>
<stop offset="0.57" stop-color="#DFBDDE" stop-opacity="0.83"/>
<stop offset="0.84" stop-color="#D3C6DF" stop-opacity="0.95"/>
<stop offset="1" stop-color="#CFCAE0"/>
</linearGradient>
</defs>
</svg>
