<svg width="291" height="342" viewBox="0 0 291 342" fill="none" xmlns="http://www.w3.org/2000/svg">
<mask id="mask0_199_9165" style="mask-type:alpha" maskUnits="userSpaceOnUse" x="0" y="0" width="291" height="342">
<rect width="291" height="342" rx="5" fill="url(#paint0_linear_199_9165)"/>
</mask>
<g mask="url(#mask0_199_9165)">
<path d="M84.9556 330.385C84.9548 330.387 84.9525 330.387 84.951 330.386C84.1765 329.758 83.3942 329.114 82.6004 328.529C81.4237 327.657 80.108 327.12 78.8619 326.36C76.7668 325.079 74.8069 323.289 73.0938 321.549C71.647 320.079 70.3082 318.517 68.8845 317.035C68.3367 316.464 67.6923 316.047 67.1831 315.434C66.3381 314.415 65.7092 313.269 64.9723 312.174C62.9776 309.222 59.4898 307.104 56.681 304.963C54.7828 303.516 53.0003 302 51.2217 300.41C50.1182 299.422 49.0109 298.458 47.9692 297.404C47.2516 296.675 46.4375 296.151 45.689 295.468C43.7831 293.724 41.9427 291.617 39.6548 290.39C38.6092 289.831 37.5829 289.044 36.5682 288.376C35.5998 287.74 35.1253 286.991 34.3883 286.127C33.8482 285.494 33.1499 284.642 32.5094 284.125C32.0348 283.743 31.8149 283.82 31.1359 283.824C30.4298 283.827 29.6505 283.669 29.0486 284.132C28.5316 284.53 28.1072 285.286 27.7368 285.822C26.371 287.805 25.2907 289.985 23.5815 291.706C22.3546 292.94 20.6184 293.793 19.1793 294.792C16.5557 296.617 15.1938 299.584 13.3303 302.054C12.0571 303.74 10.8533 305.144 8.69273 305.291C8.02526 305.337 7.37321 305.233 6.7096 305.341C4.32909 305.738 2.83982 307.119 0.930014 308.477C-0.293037 309.349 -1.20743 310.187 -1.95206 311.51C-2.65426 312.76 -3.03236 313.806 -4.08179 314.805C-5.13894 315.808 -5.7138 317.039 -6.83654 317.965C-7.57731 318.578 -8.19463 319.315 -8.93926 319.917C-10.9185 321.514 -13.2643 322.595 -15.2899 324.138C-16.4165 324.998 -17.8208 325.743 -18.6079 326.962C-19.1712 327.834 -19.2754 328.822 -20.0895 329.539C-20.4857 329.89 -20.2851 330.38 -19.7562 330.38H84.9529C84.9552 330.38 84.9566 330.383 84.9556 330.385Z" fill="url(#paint1_linear_199_9165)"/>
<path d="M195.137 318.002C195.137 318.002 195.138 318.003 195.138 318.002C196.122 316.336 197.337 314.832 198.305 313.146C199.161 311.657 199.713 309.902 200.701 308.497C202.503 305.939 207.468 304.392 210.447 304.766C214.741 305.303 219.143 305.283 223.507 305.199C225.775 305.156 228.325 303.551 230.17 302.351C233.364 300.272 236.177 297.559 239.626 295.881C241.794 294.828 243.94 294.133 246.278 293.508C248.106 293.022 249.777 292.208 251.706 292.235C253.172 292.254 254.199 291.919 255.595 291.753C256.988 291.591 258.628 290.715 259.94 290.152C261.278 289.577 262.343 288.836 263.539 288.045C264.778 287.223 266.225 286.332 267.22 285.213C268.721 283.531 269.905 281.339 272.486 281.625C275.268 281.934 277.691 282.678 280.392 283.334C281.85 283.689 283.332 283.932 284.833 283.913C286.017 283.897 287.479 284.152 288.618 283.832C291.164 283.118 293.464 280.795 295.042 278.835C296.627 276.868 297.607 273.434 299.953 272.33C301.566 271.57 303.032 271.898 304.718 272.234C305.204 272.33 306.196 272.539 306.682 272.369C307.376 272.126 307.639 271.165 307.932 270.509C308.402 269.452 308.449 268.411 308.723 267.299C308.981 266.265 309.564 265.428 309.915 264.437C310.378 263.121 310.27 261.72 310.683 260.401C310.845 259.888 311.072 259.51 311.296 259.016C311.443 258.688 311.636 257.851 311.825 257.627C312.616 256.709 314.394 257.071 315.448 257.067C317.045 257.064 318.04 257.175 319.275 258.306C320.564 259.483 320.618 261.524 321.111 263.082C321.517 264.352 321.729 265.563 322.261 266.786C322.828 268.09 323.723 269.101 324.503 270.259C325.768 272.134 326.382 274.271 327.748 276.061C328.488 277.038 328.924 278.033 329.881 278.824C330.765 279.553 331.922 280.19 332.956 280.676C334.665 281.482 336.567 281.555 338.369 282.053C340.337 282.597 342.366 282.929 344.28 283.662C349.631 285.707 353.331 291.02 357.544 294.669C360.187 296.957 362.857 299.176 365.469 301.502C366.831 302.718 368.344 303.617 369.763 304.724C371.037 305.719 372.287 306.881 373.714 307.656C375.527 308.644 377.696 309.346 379.667 309.936C380.624 310.226 381.515 310.141 382.445 310.38C383.425 310.631 384.617 311.163 385.81 311.225C388.46 311.36 390.663 311.121 393.225 312.07C397.654 313.714 401.493 316.97 405.07 319.968C406.586 321.241 408.492 322.422 409.738 323.934C410.849 325.284 411.887 325.836 413.434 326.596C414.503 327.121 415.61 327.696 416.752 328.051C417.574 328.305 418.354 328.251 419.198 328.409C420.121 328.583 420.927 329.154 421.861 329.247H195.608C194.613 329.247 193.736 328.416 193.503 327.449C193.25 326.403 192.921 325.376 192.992 324.293C193.135 322.098 194.029 319.876 195.136 318.002C195.137 318.001 195.137 318.001 195.137 318.002Z" fill="url(#paint2_linear_199_9165)"/>
<path d="M-8.10242 332.245C-8.10242 332.242 -8.10096 332.239 -8.09852 332.238C-5.96839 330.762 -3.80984 329.409 -1.63234 328.009C0.00257492 326.959 1.6533 326.001 3.1807 324.793C3.81632 324.29 4.47725 323.835 5.05595 323.262C5.5556 322.766 5.75798 322.26 6.12165 321.703C6.66241 320.878 7.37392 320.249 8.24039 319.904C9.37882 319.452 10.4414 318.917 11.5007 318.358C12.4684 317.845 13.4266 316.919 14.2267 316.185C15.1722 315.322 16.1462 314.395 17.1518 313.595C17.955 312.953 18.5938 312.112 19.4097 311.499C20.371 310.771 21.4936 310.319 22.4613 309.595C23.6092 308.735 24.6433 307.951 25.9145 307.296C26.9802 306.746 27.8246 305.788 28.8966 305.202C29.3962 304.931 29.7093 304.564 30.3038 304.747C30.8952 304.931 31.3537 305.506 31.9071 305.667C32.2645 305.772 33.3302 305.898 33.6717 305.743C34.1365 305.535 34.4275 304.086 34.6267 303.577C34.8607 302.973 34.9493 302.344 35.139 301.8C35.2623 301.446 35.3762 301.155 35.5564 300.816C35.724 300.5 35.8474 300.08 36.0181 299.795C36.5304 298.944 37.7922 298.381 38.5448 297.746C39.0729 297.3 39.4176 296.898 39.7655 296.376C40.0279 295.981 40.5465 295.599 40.8881 295.282C41.9253 294.321 43.0416 293.518 44.199 292.718C44.9422 292.202 45.7865 291.902 46.498 291.348C46.8996 291.035 47.2886 290.7 47.7092 290.409C48.2721 290.02 48.8033 289.6 49.3504 289.182C50.2833 288.471 51.1245 287.74 51.9467 286.909C52.9871 285.855 54.3247 285.289 55.4347 284.334C56.0166 283.832 56.649 283.398 57.1929 282.848C57.7084 282.326 58.129 281.732 58.6698 281.239C59.8398 280.166 61.1237 279.142 62.0313 277.811C62.3159 277.393 62.4614 277.08 62.844 276.726C63.195 276.4 63.5112 275.999 63.818 275.629C64.1342 275.246 64.3904 274.822 64.7003 274.436C65.1873 273.826 65.8703 273.428 66.3668 272.827C66.8127 272.286 67.2839 271.843 67.7456 271.328C68.1662 270.86 68.416 270.253 68.8303 269.781C69.1686 269.396 69.6461 269.212 70.0161 268.864C70.2881 268.611 70.4493 268.286 70.6992 268.02C71.3949 267.283 72.2645 266.727 73.1405 266.23C74.1398 265.661 74.8987 264.994 76.053 265C77.5962 265.006 79.0445 265.971 80.4928 266.474C81.3593 266.774 82.2637 267.131 83.0701 267.571C84.041 268.096 84.6797 268.596 85.4608 269.383C86.0079 269.936 86.6309 270.3 87.1811 270.8C87.7409 271.309 88.6548 271.518 89.3283 271.888C89.8849 272.194 90.4857 272.599 90.998 272.975C91.3174 273.209 91.5356 273.513 91.8993 273.706C92.4179 273.978 92.7784 274.117 93.2022 274.538C95.5676 276.884 98.7489 278.086 101.702 279.363C102.155 279.559 102.806 279.727 103.192 280.008C103.666 280.353 104.008 280.938 104.406 281.359C105.001 281.988 105.396 282.763 105.924 283.439C106.534 284.221 106.942 284.145 107.689 283.566C108.005 283.322 108.41 282.892 108.792 282.798C109.077 282.725 109.349 282.813 109.637 282.731C109.912 282.652 109.975 282.488 110.336 282.548C110.658 282.601 111.088 282.854 111.351 283.047C112.176 283.655 112.884 284.622 113.488 285.425C113.899 285.969 114.209 286.599 114.655 287.114C115.089 287.617 115.661 288.123 116.018 288.721C116.752 289.944 117.533 291.178 118.444 292.376C119.288 293.489 120.218 294.508 121.034 295.633C121.555 296.354 122.362 296.835 122.969 297.474C123.507 298.04 123.791 298.799 124.275 299.406C125.11 300.453 126.074 301.591 127.014 302.439C127.403 302.79 127.747 303.21 128.139 303.552C128.566 303.925 129.158 304.086 129.613 304.431C130.799 305.326 131.852 306.195 133.171 306.916C135.46 308.166 138.022 309.244 139.799 311.217C140.558 312.058 141.269 312.956 141.974 313.845C142.749 314.819 143.255 315.926 144.239 316.691C144.881 317.191 145.393 317.868 146.035 318.377C146.743 318.936 147.452 319.487 148.094 320.148C148.935 321.02 149.757 321.912 150.674 322.725C151.243 323.231 151.857 323.693 152.54 324.031C153.586 324.549 154.162 325.312 155.044 326.048C155.784 326.665 156.654 327.136 157.445 327.69C158.447 328.392 159.459 329.094 160.515 329.714C161.685 330.397 162.862 330.887 164.161 331.244C165.094 331.5 165.885 331.902 166.767 332.297C168.845 333.23 170.821 334.144 172.282 335.981C172.649 336.44 173.044 336.939 173.36 337.43C173.987 338.4 174.704 339.238 175.432 340.165C175.982 340.864 176.894 341.912 177.784 342.423C177.853 342.463 177.82 342.6 177.74 342.6H-16.3624C-15.6266 342.6 -17.0496 343.535 -17.4154 342.896C-17.8615 342.117 -18.125 341.276 -17.9404 340.295C-17.7253 339.159 -16.8209 338.657 -15.9197 338.084C-14.6263 337.262 -13.6871 336.101 -12.4854 335.165C-11.0984 334.088 -9.54724 333.251 -8.10632 332.252C-8.10388 332.251 -8.10242 332.248 -8.10242 332.245Z" fill="#5F9EFD"/>
<path d="M-8.65015 332.245C-8.65015 332.242 -8.64869 332.239 -8.64625 332.238C-6.51612 330.762 -4.35757 329.409 -2.18007 328.009C-0.545156 326.959 1.10557 326.001 2.63297 324.793C3.26859 324.29 3.92952 323.835 4.50822 323.262C5.00787 322.766 5.21025 322.26 5.57392 321.703C6.11467 320.878 6.82619 320.249 7.69266 319.904C8.83109 319.452 9.89363 318.917 10.953 318.358C11.9207 317.845 12.8789 316.919 13.6789 316.185C14.6245 315.322 15.5984 314.395 16.6041 313.595C17.4073 312.953 18.0461 312.112 18.8619 311.499C19.8233 310.771 20.9459 310.319 21.9136 309.595C23.0615 308.735 24.0956 307.951 25.3668 307.296C26.4325 306.746 27.2768 305.788 28.3489 305.202C28.8485 304.931 29.1616 304.564 29.7561 304.747C30.3475 304.931 30.806 305.506 31.3594 305.667C31.7167 305.772 32.7824 305.898 33.1239 305.743C33.5888 305.535 33.8797 304.086 34.079 303.577C34.313 302.973 34.4015 302.344 34.5913 301.8C34.7146 301.446 34.8284 301.155 35.0087 300.816C35.1763 300.5 35.2996 300.08 35.4704 299.795C35.9827 298.944 37.2444 298.381 37.9971 297.746C38.5252 297.3 38.8699 296.898 39.2177 296.376C39.4802 295.981 39.9988 295.599 40.3403 295.282C41.3776 294.321 42.4939 293.518 43.6513 292.718C44.3944 292.202 45.2388 291.902 45.9503 291.348C46.3519 291.035 46.7409 290.7 47.1614 290.409C47.7243 290.02 48.2556 289.6 48.8027 289.182C49.7356 288.471 50.5768 287.74 51.3989 286.909C52.4394 285.855 53.777 285.289 54.887 284.334C55.4688 283.832 56.1013 283.398 56.6452 282.848C57.1607 282.326 57.5813 281.732 58.122 281.239C59.2921 280.166 60.576 279.142 61.4836 277.811C61.7682 277.393 61.9136 277.08 62.2963 276.726C62.6473 276.4 62.9635 275.999 63.2702 275.629C63.5865 275.246 63.8426 274.822 64.1525 274.436C64.6395 273.826 65.3226 273.428 65.8191 272.827C66.265 272.286 66.7361 271.843 67.1978 271.328C67.6184 270.86 67.8683 270.253 68.2825 269.781C68.6209 269.396 69.0984 269.212 69.4684 268.864C69.7403 268.611 69.9016 268.286 70.1514 268.02C70.8471 267.283 71.7168 266.727 72.5927 266.23C73.592 265.661 74.351 264.994 75.5052 265C77.0484 265.006 78.4968 265.971 79.9451 266.474C80.8116 266.774 81.716 267.131 82.5224 267.571C83.4932 268.096 84.132 268.596 84.9131 269.383C85.4602 269.936 86.0832 270.3 86.6334 270.8C87.1931 271.309 88.107 271.518 88.7806 271.888C89.3372 272.194 89.938 272.599 90.4503 272.975C90.7697 273.209 90.9879 273.513 91.3516 273.706C91.8702 273.978 92.2307 274.117 92.6544 274.538C95.0198 276.884 98.2011 278.086 101.155 279.363C101.607 279.559 102.258 279.727 102.644 280.008C103.119 280.353 103.46 280.938 103.859 281.359C104.453 281.988 104.848 282.763 105.376 283.439C105.987 284.221 106.395 284.145 107.141 283.566C107.457 283.322 107.862 282.892 108.245 282.798C108.529 282.725 108.801 282.813 109.089 282.731C109.364 282.652 109.427 282.488 109.788 282.548C110.11 282.601 110.54 282.854 110.803 283.047C111.628 283.655 112.337 284.622 112.941 285.425C113.352 285.969 113.662 286.599 114.108 287.114C114.541 287.617 115.113 288.123 115.471 288.721C116.204 289.944 116.985 291.178 117.896 292.376C118.74 293.489 119.67 294.508 120.486 295.633C121.008 296.354 121.814 296.835 122.421 297.474C122.959 298.04 123.243 298.799 123.727 299.406C124.562 300.453 125.527 301.591 126.466 302.439C126.855 302.79 127.2 303.21 127.592 303.552C128.019 303.925 128.61 304.086 129.065 304.431C130.251 305.326 131.304 306.195 132.623 306.916C134.912 308.166 137.474 309.244 139.251 311.217C140.01 312.058 140.722 312.956 141.427 313.845C142.202 314.819 142.707 315.926 143.691 316.691C144.333 317.191 144.845 317.868 145.487 318.377C146.195 318.936 146.904 319.487 147.546 320.148C148.387 321.02 149.209 321.912 150.126 322.725C150.695 323.231 151.309 323.693 151.992 324.031C153.039 324.549 153.614 325.312 154.497 326.048C155.237 326.665 156.106 327.136 156.897 327.69C157.899 328.392 158.911 329.094 159.967 329.714C161.137 330.397 162.314 330.887 163.614 331.244C164.546 331.5 165.337 331.902 166.219 332.297C168.297 333.23 170.273 334.144 171.734 335.981C172.101 336.44 172.496 336.939 172.813 337.43C173.439 338.4 174.157 339.238 174.884 340.165C175.434 340.864 176.346 341.912 177.236 342.423C177.305 342.463 177.272 342.6 177.192 342.6H-16.9101C-16.1743 342.6 -17.5974 343.535 -17.9631 342.896C-18.4093 342.117 -18.6728 341.276 -18.4881 340.295C-18.2731 339.159 -17.3686 338.657 -16.4674 338.084C-15.174 337.262 -14.2348 336.101 -13.0331 335.165C-11.6461 334.088 -10.095 333.251 -8.65405 332.252C-8.65161 332.251 -8.65015 332.248 -8.65015 332.245Z" fill="url(#paint3_linear_199_9165)"/>
<path d="M346.207 299.126H-44C-46.7614 299.126 -49 301.364 -49 304.126V342.06C-49 344.821 -46.7614 347.06 -44 347.06H346.207C348.969 347.06 351.207 344.821 351.207 342.06V304.126C351.207 301.364 348.969 299.126 346.207 299.126Z" fill="url(#paint4_linear_199_9165)"/>
<g style="mix-blend-mode:multiply" opacity="0.4">
<path d="M0.603273 338.903C5.04156 339.857 10.644 339.995 15.5956 340.055C25.5474 340.172 35.4507 340.249 45.3984 340.488C53.5555 340.682 61.7489 340.864 69.9222 340.718C78.152 340.573 86.3333 340.189 94.5753 340.075C110.893 339.853 127.224 340.043 143.542 339.881C160.111 339.716 176.51 338.729 193.014 338.204C209.324 337.682 225.573 337.885 241.867 338.406C258 338.923 274.091 339.667 290.252 340.039C306.635 340.415 322.965 340.282 339.324 339.792C352.921 339.388 366.544 338.822 380.178 338.41C378.529 338.426 376.875 338.45 375.226 338.463C342.266 338.758 309.476 337.594 276.61 336.769C243.391 335.94 210.1 336.187 176.837 336.235C160.321 336.256 143.906 336.478 127.434 336.979C110.922 337.476 94.4176 338.095 77.8691 338.362C61.757 338.624 45.6288 338.418 29.5087 338.515C21.6427 338.564 13.8373 338.515 5.99147 338.265C1.57744 338.123 -2.69916 337.678 -6.99597 337.286V337.327C-4.22305 337.573 -1.92711 338.358 0.607319 338.903H0.603273Z" fill="#4EC9F5"/>
</g>
<g style="mix-blend-mode:multiply" opacity="0.4">
<path d="M361.879 325.152C354.999 325.285 348.172 325.233 341.284 325.196C325.487 325.115 309.658 325.039 293.866 325.144C277.818 325.253 261.84 325.774 245.861 326.336C238.205 326.607 230.598 327.25 222.893 327.278C219.773 327.29 216.64 327.193 213.512 327.12C215.27 327.379 217.008 327.666 218.831 327.864C222.675 328.284 226.839 328.301 230.804 328.333C238.286 328.394 245.784 328.361 253.266 328.268C268.61 328.074 283.865 327.407 299.197 327.145C314.392 326.886 329.622 326.518 344.829 326.482C351.292 326.465 357.752 326.457 364.215 326.397C369.64 326.348 375.266 326.275 380.473 325.6C374.498 324.889 368.039 325.03 361.883 325.148L361.879 325.152Z" fill="#4EC9F5"/>
</g>
<g style="mix-blend-mode:multiply" opacity="0.4">
<path d="M275.639 316.918C283.728 316.898 291.784 316.667 299.521 315.661C304.864 314.965 310.058 314.096 315.414 313.417C280.624 314.452 245.865 314.452 211.078 315.681C184.287 316.627 79.405 315.552 63.0626 315.56C52.8562 315.564 42.3749 314.545 32.0633 314.452C31.3923 314.46 30.7213 314.468 30.0503 314.476C27.8554 314.513 25.6767 314.561 23.5061 314.634C22.3743 314.699 21.2465 314.776 20.1228 314.877C19.8884 314.897 19.7065 314.856 19.6014 314.796C18.9344 314.828 18.2634 314.86 17.5965 314.901C16.7638 314.949 15.927 314.998 15.0944 315.042C22.4753 315.6 29.4844 316.764 36.9422 317.245C46.6353 317.876 56.4658 317.755 66.2155 318.135C76.6604 318.543 87.0366 318.749 97.5341 318.696C107.773 318.648 118.004 318.47 128.242 318.438C144.666 318.389 161.069 318.991 177.492 318.68C193.972 318.365 210.185 316.999 226.636 316.538C243.031 316.077 259.265 316.958 275.648 316.91L275.639 316.918Z" fill="#4EC9F5"/>
</g>
<g style="mix-blend-mode:multiply" opacity="0.4">
<path d="M187.541 310.556C194.728 310.576 201.907 310.418 209.09 310.438C216.026 310.463 222.95 310.632 229.866 310.83C243.884 311.235 257.89 311.708 271.905 311.016C281.739 310.531 291.424 309.715 301.117 308.906C300.919 308.906 300.717 308.898 300.519 308.894C293.348 308.749 286.21 308.441 279.031 308.373C264.41 308.227 249.802 308.644 235.182 308.563C227.877 308.522 220.634 308.223 213.342 308.106C206.094 307.989 198.847 308.021 191.599 308.094C178.761 308.219 165.899 308.397 153.106 307.912C157.807 308.417 162.366 309.117 167.088 309.614C173.737 310.317 180.681 310.535 187.541 310.556Z" fill="#4EC9F5"/>
</g>
<g style="mix-blend-mode:multiply" opacity="0.4">
<path d="M73.9361 310.2C84.4901 310.406 95.0361 310.216 105.57 309.941C112.951 309.747 120.748 309.589 127.818 308.607C119.35 308.636 110.877 308.652 102.397 308.595C87.9381 308.494 73.4833 308.336 59.0286 308.175C47.6863 308.045 36.3966 307.973 25.0664 308.175C24.549 308.183 22.726 308.243 20.5311 308.276C27.4634 308.825 34.517 309.125 41.5827 309.319C52.351 309.614 63.1556 309.998 73.932 310.208L73.9361 310.2Z" fill="#4EC9F5"/>
</g>
<g style="mix-blend-mode:multiply" opacity="0.4">
<path d="M26.3033 332.601C34.5412 332.646 42.7872 332.468 51.0211 332.387C65.5284 332.25 79.8376 332.747 94.3004 333.062C119.289 333.604 146.998 333.915 170.204 329.566C167.585 329.554 164.965 329.542 162.346 329.533C128.97 329.449 95.5737 329.683 62.1976 329.784C45.932 329.833 29.6664 330.128 13.3967 330.015C8.1015 329.978 2.73351 330.039 -2.52129 329.732C-3.98455 329.647 -5.50845 329.538 -7 329.38V329.679C-3.25697 329.849 0.469906 330.136 4.18465 330.54C11.4444 331.332 18.6717 332.565 26.3033 332.606V332.601Z" fill="#4EC9F5"/>
</g>
<g style="mix-blend-mode:multiply" opacity="0.3">
<path d="M32.7505 302.98C65.8517 302.617 98.8721 302.621 131.941 303.385C148.49 303.765 165.018 304.266 181.534 304.82C197.856 305.365 214.235 305.422 230.598 305.167C263.19 304.658 295.814 303.441 328.216 301.986C344.061 301.279 360.395 300.588 376.301 301.396C388.072 301.994 399.645 303.296 411.432 303.85V298.837H-7V303.445C6.25018 303.304 19.5004 303.126 32.7505 302.98Z" fill="#4EC9F5"/>
</g>
<path opacity="0.4" d="M300.119 308.83C287.047 308.599 273.918 308.749 260.837 308.66C248.383 308.575 236.018 308.146 223.548 308.167C210.581 308.187 197.699 307.977 184.74 307.815C172.035 307.653 159.464 307.124 146.731 307.31C146.404 307.314 146.428 307.508 146.752 307.512C158.862 307.686 170.903 308.316 183.002 308.583C195.949 308.87 208.879 309.052 221.843 309.076C247.85 309.121 274.197 310.459 300.159 309.226C300.79 309.197 300.754 308.846 300.119 308.834V308.83Z" fill="white"/>
<path opacity="0.4" d="M120.764 308.316C103.011 307.977 85.0076 308.753 67.307 308.183C58.1919 307.888 48.9354 307.977 39.792 307.766C35.6084 307.669 31.4167 307.597 27.225 307.564C22.3542 307.528 17.0913 307.843 12.2811 307.572C11.9416 307.552 11.8243 307.742 12.1598 307.783C19.5408 308.639 28.3972 308.041 36.0611 308.304C46.0371 308.644 55.9849 308.728 65.9771 308.878C84.2274 309.157 102.575 309.157 120.793 308.656C121.351 308.639 121.302 308.324 120.76 308.316H120.764Z" fill="white"/>
<path opacity="0.4" d="M311.926 313.745C286.917 313.906 261.929 314.844 236.916 315.131C213.362 315.398 189.905 315.923 166.324 315.952C142.418 315.98 118.513 316.069 94.6319 315.616C69.9182 315.147 45.3783 314.4 20.6403 314.586C20.3007 314.586 20.329 314.792 20.6605 314.796C44.7275 314.978 68.7258 315.818 92.7685 316.275C116.666 316.732 140.551 316.667 164.476 316.651C188.05 316.635 211.462 316.045 235 315.758C260.591 315.446 286.489 315.123 311.95 314.016C312.371 313.995 312.354 313.749 311.926 313.749V313.745Z" fill="white"/>
<mask id="mask1_199_9165" style="mask-type:luminance" maskUnits="userSpaceOnUse" x="75" y="285" width="35" height="22">
<path d="M109.884 305.659L96.7751 306.5C94.0668 306.674 91.3546 306.678 88.6463 306.508L75 305.659V285H109.884V305.659Z" fill="white"/>
</mask>
<g mask="url(#mask1_199_9165)">
<path d="M87.0573 298.168C87.0573 298.168 82.3146 302.43 82.0365 302.642C81.7583 302.854 81.1837 302.709 80.8216 302.48C80.4595 302.251 80.0587 301.862 79.9665 301.957C79.8743 302.052 80.3503 302.492 80.6673 302.705C80.9843 302.918 81.2641 302.92 81.2641 302.92C81.2641 302.92 80.9444 303.009 80.5928 302.853C80.1522 302.659 79.8091 302.208 79.7167 302.219C79.6244 302.23 79.8143 302.74 80.301 303.074C80.6553 303.317 80.93 303.351 80.93 303.351C80.93 303.351 80.6363 303.451 80.261 303.273C79.8858 303.095 79.6977 302.795 79.529 302.813C79.3604 302.831 79.6805 303.387 80.0696 303.588C80.4577 303.791 81.5419 303.651 81.5419 303.651C81.5419 303.651 80.9203 303.846 80.7614 304.004C80.6026 304.161 80.7012 304.431 80.7012 304.431C80.7012 304.431 81.0048 304.17 81.3771 304.052C81.7495 303.934 82.1564 303.088 82.2515 302.987C82.3475 302.885 85.5817 300.929 85.5817 300.929C85.5817 300.929 87.122 298.446 87.0537 298.17L87.0573 298.168Z" fill="#9CA000"/>
<path d="M98.4437 305.454C98.1965 308.664 98.4739 311.203 98.4739 311.203L97.8738 311.347C97.8738 311.347 94.9056 308.33 91.7039 307.629C88.4983 306.927 86.6485 309.392 86.6485 309.392L86.0741 309.313C86.0741 309.313 84.0425 305.49 84.3608 299.656C84.6791 293.821 85.2959 289.874 85.7354 289.598C85.9618 289.456 87.018 288.726 88.656 288.16C88.6748 288.153 88.6832 288.15 88.6832 288.15C90.2214 287.619 92.2681 287.235 94.6139 287.612C99.4787 288.394 101.297 292.111 101.432 292.863C101.565 293.615 98.6889 302.244 98.4418 305.454L98.4437 305.454Z" fill="url(#paint5_linear_199_9165)"/>
<path d="M97.017 300.906L96.8615 301.492C96.8615 301.492 95.572 302.509 93.6741 303.008C93.6741 303.008 93.6721 303.008 93.6701 303.01C92.6638 303.274 91.4853 303.393 90.2394 303.139C87.7594 302.63 87.1739 300.938 87.0473 299.941C87.0455 299.926 87.0456 299.916 87.0456 299.916C86.9945 299.481 87.0308 299.184 87.0308 299.184L87.2902 298.656C87.2902 298.656 89.2727 300.27 92.0438 300.862C94.8346 301.457 97.0189 300.909 97.0189 300.909L97.017 300.906Z" fill="#590800"/>
<path d="M100.961 291.902C100.961 291.902 103.074 288.407 103.544 288.491C104.015 288.575 102.169 291.492 102.169 291.492C102.169 291.492 106.858 289.536 107.383 290.612C107.907 291.691 102.167 292.052 102.167 292.052C102.167 292.052 104.773 292.872 104.563 293.353C104.352 293.833 101.434 292.863 101.434 292.863L100.963 291.903L100.961 291.902Z" fill="#590800"/>
<path d="M94.9499 290.429C94.9499 290.429 96.2542 290.84 97.4911 291.778C98.7299 292.717 99.045 293.541 99.045 293.541L98.972 292.912L99.4788 293.215L100.164 292.59C100.164 292.59 99.3985 291.267 98.1427 290.289C96.8508 289.282 95.2531 288.818 95.2531 288.818L95.1143 289.425C95.1143 289.425 95.4483 289.583 95.8685 289.8C96.2177 289.981 96.5536 290.285 96.5536 290.285L95.0913 289.706L94.9516 290.432L94.9499 290.429Z" fill="#590800"/>
<path d="M92.5626 289.78C92.5626 289.78 91.1975 289.859 89.7689 290.466C88.3384 291.074 87.8164 291.613 87.8164 291.613L87.8664 291.146L87.4923 291.374L86.9801 290.601C86.9801 290.601 88.046 289.505 89.5027 288.863C91.0017 288.201 92.6642 288.143 92.6642 288.143L92.6506 288.765C92.6506 288.765 92.288 288.837 91.8275 288.945C91.4448 289.035 91.2666 289.142 91.2666 289.142L92.6042 289.043L92.5623 289.781L92.5626 289.78Z" fill="#590800"/>
<path d="M93.6721 303.008C93.6721 303.008 93.6701 303.008 93.6681 303.01C92.6618 303.274 91.4833 303.393 90.2374 303.139C87.7574 302.63 87.1719 300.938 87.0453 299.941C87.0435 299.926 87.0436 299.916 87.0436 299.916C87.0436 299.916 89.5956 300.739 91.4711 301.772C93.3446 302.809 93.6701 303.01 93.6701 303.01L93.6721 303.008Z" fill="#8B1229"/>
<path d="M87.0289 299.182L86.916 299.855C86.916 299.855 86.7733 302.219 89.1292 303.134C92.776 304.551 96.4759 302.03 96.4761 302.007C96.4763 301.983 96.8577 301.492 96.8577 301.492C96.8577 301.492 92.6088 304.299 89.264 302.852C86.5438 301.674 87.025 299.182 87.025 299.182L87.0289 299.182Z" fill="#DCED00"/>
<path d="M97.8738 311.347C97.8738 311.347 94.9057 308.33 91.7039 307.629C88.4983 306.927 86.6486 309.392 86.6486 309.392L86.0742 309.313C86.0742 309.313 84.0426 305.49 84.3608 299.656C84.6791 293.821 85.2959 289.874 85.7354 289.599C85.9618 289.456 87.018 288.726 88.656 288.161C88.3893 288.277 86.2218 289.395 85.4637 295.25C84.6549 301.499 85.7393 305.413 88.5912 306.307C91.4411 307.201 92.0164 306.664 94.9873 308.553C97.9143 310.412 97.8941 311.568 97.8719 311.347L97.8738 311.347Z" fill="#9CA000"/>
<path d="M86.3968 289.249C86.3968 289.249 85.6371 285.713 84.8733 285.543C84.1095 285.373 85.5864 288.974 85.5864 288.974C85.5864 288.974 80.8565 286.287 80.2501 287.299C79.6435 288.312 85.0448 289.463 85.0448 289.463C85.0448 289.463 81.326 289.23 81.2519 289.827C81.1779 290.424 85.4511 290.209 85.4511 290.209L86.3968 289.249Z" fill="#590800"/>
<path d="M99.1707 297.004C99.1707 297.004 101.376 302.986 101.521 303.305C101.666 303.625 102.244 303.764 102.67 303.728C103.096 303.692 103.633 303.537 103.67 303.664C103.707 303.793 103.082 303.958 102.7 303.999C102.318 304.04 102.072 303.908 102.072 303.908C102.072 303.908 102.313 304.136 102.697 304.163C103.178 304.198 103.691 303.958 103.77 304.011C103.846 304.063 103.442 304.425 102.853 304.494C102.428 304.542 102.166 304.445 102.166 304.445C102.166 304.445 102.38 304.67 102.795 304.688C103.21 304.707 103.517 304.529 103.657 304.624C103.797 304.719 103.254 305.061 102.817 305.058C102.379 305.055 101.485 304.425 101.485 304.425C101.485 304.425 101.943 304.888 102.01 305.101C102.076 305.313 101.864 305.508 101.864 305.508C101.864 305.508 101.717 305.134 101.444 304.856C101.17 304.578 101.204 303.639 101.166 303.506C101.129 303.372 99.1816 300.129 99.1816 300.129C99.1816 300.129 98.9778 297.214 99.1688 297.003L99.1707 297.004Z" fill="#B3CC00"/>
<path d="M96.5916 301.065L96.2757 301.514L95.3382 302.84L94.9311 301.472L94.8853 301.317L94.6355 301.449L93.813 301.883L92.9474 301.244L92.9024 301.21L92.8352 301.225L92.3607 301.343L91.9022 301.033L91.7356 300.921L91.3358 300.871L90.5538 300.773L90.4552 300.565L90.4223 300.494L90.1938 300.464L89.1795 300.332L89.0056 299.954L88.9573 299.845L88.8603 299.884L87.3398 300.504L87.4825 299.184L87.5084 298.946C87.5084 298.946 88.2468 299.689 90.7492 300.546C93.9277 301.638 96.5935 301.063 96.5935 301.063L96.5916 301.065Z" fill="white"/>
<path d="M96.5915 301.065L96.2757 301.514C96.0489 301.516 95.5756 301.513 94.9311 301.472L94.8852 301.317L94.6355 301.449C94.1448 301.411 93.5735 301.344 92.9474 301.244L92.9023 301.21L92.8351 301.225C92.7347 301.208 92.6323 301.191 92.528 301.173C92.3232 301.137 92.1146 301.088 91.9022 301.035L91.7356 300.923L91.3357 300.874C91.0388 300.782 90.742 300.677 90.4551 300.567L90.4223 300.496L90.1938 300.466C89.7694 300.299 89.3648 300.123 89.0075 299.956L88.9592 299.847L88.8622 299.886C88.0435 299.501 87.4844 299.186 87.4844 299.186L87.5104 298.948C87.5104 298.948 88.2488 299.691 90.7511 300.549C93.9297 301.64 96.5955 301.065 96.5955 301.065L96.5915 301.065Z" fill="#CAE7EF"/>
<path d="M87.5597 301.433L88.3382 300.863L88.2403 302.238C88.2403 302.238 87.7283 301.742 87.5597 301.431L87.5597 301.433Z" fill="white"/>
<path d="M91.9876 303.24L92.44 302.116L92.8387 303.122C92.8387 303.122 92.3819 303.25 91.9876 303.242L91.9876 303.24Z" fill="white"/>
<path d="M94.8739 302.502L94.7519 303.308L95.2885 302.67L95.1986 302.367L94.8739 302.502Z" fill="#9CA000"/>
<path opacity="0.43" d="M99.2241 299.019C99.0251 298.893 98.1556 301.257 97.8803 303.477C97.6051 305.696 97.4726 307.79 97.6467 307.811C97.909 307.844 97.946 305.414 98.3331 303.223C98.7182 301.031 99.4267 299.148 99.2238 299.021L99.2241 299.019Z" fill="white"/>
<path opacity="0.43" d="M99.4916 297.759C99.3394 298.217 99.2828 298.609 99.3648 298.637C99.447 298.663 99.6352 298.315 99.7874 297.857C99.9396 297.399 99.9962 297.007 99.9143 296.979C99.8321 296.953 99.6438 297.301 99.4916 297.759Z" fill="white"/>
<path d="M86.2037 303.445C86.2834 304.133 86.1257 304.715 85.8512 304.749C85.5768 304.782 85.2872 304.25 85.2076 303.562C85.1279 302.875 85.2856 302.292 85.56 302.259C85.8344 302.225 86.124 302.758 86.2037 303.445Z" fill="#DCED00"/>
<path d="M86.3187 303.431C86.3983 304.119 86.2406 304.702 85.9662 304.735C85.6901 304.766 85.4022 304.236 85.3225 303.548C85.2429 302.861 85.4006 302.278 85.675 302.245C85.9494 302.211 86.239 302.744 86.3187 303.431Z" fill="#7A7A00"/>
<path d="M96.6082 303.623C96.4932 304.165 96.5771 304.642 96.7941 304.687C97.0109 304.734 97.2795 304.33 97.3944 303.788C97.5094 303.246 97.4255 302.769 97.2085 302.724C96.9918 302.677 96.7231 303.081 96.6082 303.623Z" fill="#DCED00"/>
<path d="M96.5172 303.604C96.4023 304.146 96.4862 304.623 96.7032 304.668C96.9199 304.715 97.1886 304.311 97.3035 303.769C97.4185 303.227 97.3346 302.749 97.1176 302.704C96.9006 302.66 96.6322 303.062 96.5172 303.604Z" fill="#7A7A00"/>
<path d="M96.8871 305.541C96.8106 305.901 96.8669 306.216 97.01 306.248C97.1534 306.278 97.3314 306.012 97.4079 305.652C97.4844 305.291 97.4281 304.977 97.2849 304.945C97.1416 304.915 96.9635 305.181 96.8871 305.541Z" fill="#DCED00"/>
<path d="M96.827 305.528C96.7505 305.888 96.8068 306.203 96.95 306.235C97.0933 306.264 97.2714 305.998 97.3479 305.638C97.4243 305.278 97.368 304.963 97.2249 304.931C97.0815 304.902 96.9035 305.168 96.827 305.528Z" fill="#7A7A00"/>
<path d="M86.7719 305.386C86.8133 305.74 86.7322 306.042 86.5891 306.058C86.448 306.075 86.2992 305.8 86.2576 305.447C86.2161 305.092 86.2973 304.79 86.4404 304.774C86.5834 304.758 86.7302 305.033 86.7719 305.386Z" fill="#DCED00"/>
<path d="M86.8304 305.379C86.8718 305.734 86.7906 306.036 86.6476 306.052C86.5064 306.068 86.3577 305.793 86.316 305.44C86.2746 305.085 86.3558 304.784 86.4988 304.767C86.64 304.751 86.7887 305.026 86.8304 305.379Z" fill="#7A7A00"/>
<path d="M85.769 305.655C85.799 305.909 85.7405 306.124 85.6378 306.135C85.5371 306.147 85.4302 305.951 85.3999 305.699C85.3698 305.444 85.4283 305.229 85.531 305.218C85.6318 305.207 85.7386 305.403 85.769 305.655Z" fill="#DCED00"/>
<path d="M85.8113 305.65C85.8414 305.904 85.7829 306.119 85.6802 306.131C85.5794 306.142 85.4726 305.946 85.4423 305.694C85.4122 305.44 85.4707 305.224 85.5734 305.213C85.6742 305.202 85.781 305.398 85.8113 305.65Z" fill="#7A7A00"/>
<path d="M84.9115 301.368C84.8949 301.63 84.7955 301.838 84.6911 301.831C84.5866 301.824 84.5143 301.606 84.5309 301.344C84.5475 301.082 84.6469 300.874 84.7513 300.881C84.8558 300.888 84.9282 301.105 84.9115 301.368Z" fill="#DCED00"/>
<path d="M84.955 301.371C84.9384 301.633 84.839 301.841 84.7345 301.834C84.6301 301.827 84.5577 301.61 84.5744 301.348C84.591 301.085 84.6903 300.877 84.7948 300.884C84.8992 300.891 84.9716 301.109 84.955 301.371Z" fill="#7A7A00"/>
<path d="M96.8746 299.918C96.8746 299.918 96.8729 300.518 96.8627 301.182C96.8524 301.849 96.6923 302.719 96.6923 302.719C96.6923 302.719 97.2513 302.002 97.2959 301.249C97.3405 300.496 96.8727 299.918 96.8727 299.918L96.8746 299.918Z" fill="#9CA000"/>
<path d="M87.9811 297.745C87.9811 297.745 87.3663 298.526 87.1012 299.035C86.8361 299.543 86.5019 300.469 86.5019 300.469C86.5019 300.469 86.3817 299.213 86.7962 298.549C87.1987 297.906 87.9812 297.743 87.9812 297.743L87.9811 297.745Z" fill="#9CA000"/>
<path d="M87.5439 303.101C87.5439 303.101 88.3082 304.03 89.8987 304.346C91.6978 304.705 92.8274 304.325 92.8274 304.325C92.8274 304.325 91.5488 305.025 89.6449 304.697C88.3041 304.467 87.5459 303.103 87.5459 303.103L87.5439 303.101Z" fill="#9CA000"/>
<path d="M92.6507 291.907C92.6507 291.907 93.8472 293.386 93.2264 295.514C92.6863 297.363 90.5963 299.152 87.9692 298.317C85.3427 297.483 85.8198 294.453 86.6925 293.13C87.5652 291.806 90.5975 289.821 92.6507 291.907Z" fill="#9CA000"/>
<path d="M92.1712 291.998C92.1712 291.998 93.3909 293.167 93.0136 295.064C92.6869 296.711 90.9432 298.447 88.4807 297.966C86.0182 297.484 86.1839 294.821 86.8606 293.598C87.5378 292.374 90.1198 290.383 92.1712 291.998Z" fill="#DEDEDE"/>
<path d="M92.2811 292.295C92.2811 292.295 93.2543 293.378 92.814 294.96C92.4314 296.336 90.8292 297.683 88.7475 297.093C86.6658 296.505 86.9735 294.255 87.6294 293.266C88.2853 292.276 90.6224 290.773 92.2811 292.295Z" fill="#F5F5F5"/>
<path d="M94.2643 292.46C94.2643 292.46 93.1812 293.724 93.6743 295.63C94.1027 297.285 95.8909 298.943 98.2102 298.301C100.53 297.658 100.184 294.96 99.4513 293.758C98.7188 292.555 96.1107 290.689 94.2643 292.46Z" fill="#9CA000"/>
<path d="M94.5655 292.418C94.5655 292.418 93.4521 293.412 93.745 295.117C93.9999 296.598 95.5142 298.212 97.7195 297.878C99.9248 297.543 99.8375 295.164 99.2618 294.048C98.6867 292.931 96.4303 291.057 94.5655 292.418Z" fill="#DEDEDE"/>
<path d="M94.5648 292.675C94.5648 292.675 93.663 293.661 94.0295 295.184C94.348 296.508 95.7696 297.858 97.6636 297.389C99.5576 296.92 99.3247 294.769 98.7514 293.8C98.1781 292.831 96.0952 291.301 94.5648 292.674V292.675Z" fill="#F5F5F5"/>
<path d="M96 295C96 294.448 96.4375 294 96.9772 294C97.5169 294 97.9544 294.448 97.9544 295" stroke="#590800" stroke-width="0.5" stroke-linecap="round" stroke-linejoin="round"/>
<path d="M90 295C90 294.448 90.4375 294 90.9772 294C91.5169 294 91.9544 294.448 91.9544 295" stroke="#590800" stroke-width="0.5" stroke-linecap="round" stroke-linejoin="round"/>
<path d="M91.0186 297.641C91.0062 297.647 90.9943 297.654 90.9818 297.66C90.9931 297.781 91.046 297.92 91.1333 298.065C91.1767 298.042 91.22 298.018 91.2622 297.993C91.1476 297.879 91.0638 297.761 91.0186 297.641Z" fill="#038055"/>
<path d="M90.9872 297.522C90.9825 297.55 90.9801 297.578 90.9795 297.607C90.9795 297.624 90.9795 297.642 90.9819 297.66C90.9943 297.654 91.0068 297.648 91.0187 297.642C91.0038 297.602 90.9932 297.563 90.9872 297.523" fill="#C6CCCD"/>
</g>
<mask id="mask2_199_9165" style="mask-type:luminance" maskUnits="userSpaceOnUse" x="113" y="278" width="57" height="37">
<path d="M169.61 278H113V314.994H169.61V278Z" fill="white"/>
</mask>
<g mask="url(#mask2_199_9165)">
<path d="M147.811 309.129C147.811 309.129 159.343 313.159 159.99 313.332C160.637 313.502 161.546 312.819 162.015 312.148C162.484 311.477 162.694 310.899 162.929 311C163.163 311.101 162.856 311.821 162.452 312.435C162.047 313.049 161.554 313.252 161.554 313.252C161.554 313.252 162.185 313.175 162.694 312.637C163.329 311.97 163.604 310.919 163.778 310.867C163.947 310.818 163.992 311.857 163.377 312.807C162.929 313.498 162.472 313.761 162.472 313.761C162.472 313.761 163.062 313.716 163.596 313.126C164.129 312.536 164.238 311.865 164.55 311.772C164.861 311.679 164.521 312.924 163.895 313.628C163.337 314.254 162.116 314.577 162.116 314.577C162.116 314.577 162.852 314.626 163.252 314.784C163.648 314.941 163.676 315.495 163.676 315.495C163.676 315.495 162.945 315.256 162.201 315.321C161.457 315.386 160.111 314.193 159.869 314.084C159.626 313.975 152.46 312.904 152.46 312.904C152.46 312.904 147.904 309.654 147.819 309.112L147.811 309.129Z" fill="#68004D"/>
<path d="M136.554 309.982C136.554 309.982 124.831 313.413 124.173 313.551C123.518 313.688 122.645 312.961 122.208 312.265C121.776 311.57 121.618 311.045 121.379 311.134C121.141 311.222 121.387 311.894 121.759 312.528C122.131 313.163 122.612 313.393 122.612 313.393C122.612 313.393 121.986 313.284 121.505 312.722C120.902 312.023 120.684 310.96 120.514 310.899C120.345 310.843 120.252 311.877 120.818 312.86C121.23 313.571 121.674 313.858 121.674 313.858C121.674 313.858 121.084 313.785 120.583 313.167C120.082 312.548 120.005 311.873 119.702 311.764C119.395 311.655 119.718 312.831 120.163 313.543C120.66 314.335 122.083 314.743 122.083 314.743C122.083 314.743 121.246 314.703 120.842 314.84C120.438 314.978 120.381 315.531 120.381 315.531C120.381 315.531 121.121 315.333 121.864 315.434C122.604 315.535 124.011 314.416 124.257 314.323C124.508 314.226 131.715 313.527 131.715 313.527C131.715 313.527 136.432 310.515 136.542 309.982H136.554Z" fill="#68004D"/>
<path d="M124.524 289.294C124.536 289.35 124.548 289.403 124.561 289.46C124.742 290.232 125.042 291.04 125.49 291.861C125.644 292.135 125.806 292.398 125.979 292.649C126.404 293.263 126.885 293.805 127.374 294.274C129.088 295.907 130.931 296.671 130.931 296.671C130.931 296.671 132.803 295.458 133.348 293.005C133.676 291.529 133.057 290.345 132.972 290.187C132.964 290.175 132.96 290.171 132.96 290.171C132.875 290.127 132.794 290.082 132.714 290.042C132.394 289.872 132.095 289.702 131.8 289.532C131.469 289.342 131.153 289.152 130.854 288.966C129.933 288.392 129.165 287.851 128.522 287.35C128.235 287.127 127.976 286.913 127.742 286.707C125.818 285.05 125.353 284.039 125.013 284.334C124.686 284.621 124.201 285.991 124.31 287.827C124.338 288.291 124.403 288.78 124.52 289.298L124.524 289.294Z" fill="#FF7F00"/>
<path d="M125.983 292.653C126.408 293.267 126.889 293.809 127.378 294.278C127.766 294.128 128.663 293.684 129.908 292.435C131.606 290.729 131.808 289.528 131.808 289.528C131.477 289.338 131.161 289.148 130.862 288.962C130.583 289.468 129.892 290.583 128.809 291.42C127.79 292.212 126.598 292.532 125.987 292.649L125.983 292.653Z" fill="#FFF594"/>
<path d="M124.524 289.294C125.029 289.294 125.753 289.205 126.582 288.841C127.596 288.392 128.215 287.754 128.526 287.341C128.239 287.119 127.98 286.905 127.746 286.699C127.43 286.925 126.941 287.208 126.198 287.479C125.405 287.766 124.775 287.839 124.314 287.822C124.342 288.287 124.407 288.776 124.524 289.294Z" fill="#FFF594"/>
<path opacity="0.13" d="M124.565 289.464C124.746 290.236 125.046 291.044 125.494 291.865C127.305 295.175 130.935 296.675 130.935 296.675C130.935 296.675 132.807 295.462 133.352 293.009C133.68 291.533 133.061 290.349 132.976 290.191L132.722 290.042C132.722 290.042 129.577 291.279 127.038 290.656C125.874 290.369 125.082 289.896 124.569 289.468L124.565 289.464Z" fill="#590800"/>
<path opacity="0.67" d="M131.598 290.563C131.804 290.628 131.929 290.341 131.743 290.232C130.943 289.767 129.852 289.088 128.857 288.295C127.964 287.584 127.2 286.889 126.646 286.355C126.489 286.206 126.25 286.408 126.371 286.59C126.832 287.269 127.552 288.15 128.615 289.011C129.617 289.823 130.749 290.296 131.598 290.563Z" fill="white"/>
<path d="M155.843 332.145L154.751 333.09C154.751 333.09 152.835 329.849 151.789 329.44C151.223 329.218 147.532 329.461 144.096 329.845C141.23 330.164 138.542 330.58 137.997 330.904C136.796 331.615 136.339 334.065 136.339 334.065L135.139 334.15C135.139 334.15 132.823 328.442 131.667 320.354C131.117 316.501 130.596 310.559 130.236 305.24C129.832 299.395 129.617 294.286 129.759 293.518C129.993 292.208 137.625 286.893 141.234 285.615C141.659 285.462 142.027 285.365 142.322 285.341C145.115 285.09 150.774 289.322 151.732 290.656C152.698 291.99 154.691 320.697 155.313 324.756C155.94 328.814 155.839 332.149 155.839 332.149L155.843 332.145Z" fill="url(#paint6_linear_199_9165)"/>
<path d="M134.472 314.274C134.609 314.913 134.504 315.475 134.237 315.532C133.971 315.588 133.643 315.119 133.506 314.481C133.368 313.842 133.473 313.28 133.74 313.223C134.007 313.167 134.334 313.636 134.472 314.274Z" fill="#68004D"/>
<path d="M134.577 314.254C134.714 314.893 134.609 315.455 134.343 315.511C134.076 315.568 133.748 315.099 133.611 314.46C133.473 313.822 133.579 313.26 133.845 313.203C134.112 313.147 134.44 313.615 134.577 314.254Z" fill="#FF7F00"/>
<path d="M132.241 306.647C132.366 307.225 132.273 307.734 132.031 307.787C131.788 307.839 131.493 307.415 131.368 306.833C131.242 306.255 131.335 305.746 131.578 305.693C131.82 305.64 132.115 306.065 132.241 306.647Z" fill="#68004D"/>
<path d="M132.338 306.627C132.463 307.205 132.37 307.714 132.128 307.766C131.885 307.819 131.59 307.395 131.465 306.812C131.339 306.23 131.432 305.725 131.675 305.673C131.917 305.62 132.212 306.049 132.338 306.627Z" fill="#FF7F00"/>
<path d="M132.095 309.456C132.156 309.739 132.111 309.986 131.994 310.01C131.877 310.034 131.731 309.828 131.671 309.545C131.61 309.262 131.655 309.016 131.772 308.991C131.889 308.967 132.035 309.173 132.095 309.452V309.456Z" fill="#68004D"/>
<path d="M132.144 309.448C132.204 309.731 132.16 309.978 132.043 310.002C131.925 310.026 131.78 309.82 131.719 309.537C131.659 309.254 131.703 309.007 131.82 308.983C131.938 308.959 132.083 309.165 132.144 309.448Z" fill="#FF7F00"/>
<path d="M144.519 305.459C147.389 305.255 149.488 301.88 149.206 297.921C148.924 293.962 146.369 290.918 143.499 291.122C140.628 291.326 138.53 294.701 138.812 298.66C139.093 302.62 141.649 305.664 144.519 305.459Z" fill="#68004D"/>
<path d="M138.272 299.339C138.858 303.263 137.556 306.715 135.361 307.043C133.166 307.37 130.915 304.452 130.325 300.527C129.739 296.602 131.04 293.15 133.235 292.823C135.43 292.495 137.681 295.414 138.272 299.339Z" fill="#68004D"/>
<path d="M139.496 299.003C139.953 302.479 142.172 304.973 144.456 304.573C146.736 304.173 148.215 301.028 147.759 297.552C147.302 294.076 145.083 291.582 142.799 291.982C140.519 292.382 139.04 295.527 139.496 299.003Z" fill="#CAE7EF"/>
<path d="M144.013 304.343C146.206 304.129 147.72 301.257 147.394 297.928C147.068 294.6 145.026 292.076 142.834 292.291C140.641 292.505 139.127 295.377 139.453 298.706C139.778 302.034 141.82 304.558 144.013 304.343Z" fill="white"/>
<path d="M144.25 297.208C144.371 298.114 145.123 298.732 145.932 298.591C146.74 298.449 147.302 297.596 147.181 296.691C147.059 295.785 146.307 295.167 145.499 295.308C144.691 295.45 144.129 296.303 144.25 297.208Z" fill="white"/>
<path d="M143.502 299.12C143.547 299.452 143.821 299.678 144.117 299.625C144.412 299.573 144.618 299.262 144.573 298.93C144.529 298.599 144.254 298.372 143.959 298.425C143.664 298.477 143.458 298.789 143.502 299.12Z" fill="white"/>
<path d="M131.432 301.174C132.208 304.387 134.29 306.481 136.081 305.85C137.871 305.22 138.692 302.103 137.912 298.886C137.136 295.672 135.054 293.578 133.263 294.209C131.473 294.84 130.652 297.956 131.432 301.174Z" fill="#CAE7EF"/>
<path d="M131.432 301.174C132.172 304.238 134.157 306.23 135.858 305.628C137.564 305.026 138.344 302.059 137.605 298.995C136.865 295.931 134.88 293.938 133.178 294.54C131.473 295.143 130.692 298.11 131.432 301.174Z" fill="white"/>
<path d="M136.348 303.562C137.51 303.341 138.136 301.502 137.745 299.456C137.355 297.41 136.097 295.932 134.934 296.153C133.772 296.375 133.146 298.213 133.537 300.259C133.927 302.305 135.186 303.784 136.348 303.562Z" fill="url(#paint7_linear_199_9165)"/>
<path d="M134.181 300.422C134.529 301.865 135.466 302.807 136.271 302.524C137.075 302.241 137.443 300.838 137.095 299.395C136.748 297.952 135.81 297.01 135.006 297.293C134.201 297.576 133.833 298.979 134.181 300.422Z" fill="#590800"/>
<path d="M135.204 299.355C135.406 300.191 136.085 300.689 136.719 300.466C137.354 300.244 137.706 299.383 137.504 298.542C137.301 297.701 136.622 297.208 135.988 297.431C135.353 297.653 135.001 298.514 135.204 299.355Z" fill="white"/>
<path d="M134.698 301.012C134.771 301.319 135.022 301.501 135.252 301.42C135.483 301.339 135.612 301.024 135.539 300.717C135.466 300.41 135.216 300.228 134.985 300.309C134.751 300.389 134.626 300.705 134.698 301.012Z" fill="white"/>
<path d="M155.843 332.145L154.751 333.09C154.751 333.09 152.835 329.849 151.788 329.44C150.75 329.032 139.205 330.192 137.997 330.904C136.796 331.615 136.339 334.065 136.339 334.065C136.339 334.065 136.485 330.673 137.386 329.792C138.288 328.911 149.06 327.706 150.442 325.39C151.821 323.074 151.987 303.664 150.374 296.622C148.761 289.581 141.234 285.615 141.234 285.615C141.659 285.462 142.027 285.365 142.322 285.341C145.115 285.09 150.774 289.322 151.732 290.656C152.698 291.99 154.691 320.697 155.313 324.756C155.94 328.814 155.839 332.149 155.839 332.149L155.843 332.145Z" fill="#68004D"/>
<path d="M157.718 286.581C157.714 286.638 157.71 286.695 157.702 286.751C157.629 287.539 157.452 288.384 157.12 289.257C157.007 289.552 156.886 289.835 156.748 290.11C156.417 290.781 156.017 291.384 155.6 291.913C154.133 293.772 152.419 294.787 152.419 294.787C152.419 294.787 150.394 293.853 149.509 291.497C148.975 290.082 149.42 288.821 149.484 288.655C149.489 288.643 149.493 288.635 149.493 288.635C149.569 288.582 149.642 288.526 149.719 288.469C150.01 288.255 150.285 288.045 150.548 287.839C150.851 287.604 151.134 287.374 151.404 287.147C152.237 286.448 152.92 285.801 153.482 285.215C153.733 284.952 153.959 284.706 154.165 284.467C155.835 282.555 156.15 281.488 156.53 281.735C156.894 281.969 157.569 283.259 157.718 285.094C157.755 285.559 157.759 286.052 157.718 286.577V286.581Z" fill="#FF7F00"/>
<path d="M156.752 290.114C156.421 290.785 156.021 291.388 155.604 291.917C155.2 291.824 154.25 291.513 152.84 290.45C150.915 289.003 150.548 287.843 150.548 287.843C150.851 287.608 151.134 287.378 151.405 287.151C151.752 287.612 152.593 288.619 153.785 289.294C154.905 289.932 156.134 290.082 156.752 290.11V290.114Z" fill="#FFF594"/>
<path d="M157.718 286.581C157.217 286.654 156.49 286.666 155.62 286.428C154.553 286.129 153.85 285.583 153.482 285.219C153.733 284.956 153.959 284.71 154.165 284.471C154.509 284.653 155.034 284.864 155.806 285.025C156.631 285.199 157.266 285.179 157.718 285.098C157.755 285.563 157.759 286.056 157.718 286.581Z" fill="#FFF594"/>
<path opacity="0.13" d="M157.706 286.755C157.633 287.543 157.456 288.388 157.124 289.261C155.798 292.794 152.419 294.791 152.419 294.791C152.419 294.791 150.394 293.857 149.509 291.501C148.975 290.086 149.42 288.825 149.484 288.659L149.719 288.477C149.719 288.477 153.005 289.253 155.43 288.279C156.542 287.83 157.262 287.252 157.706 286.755Z" fill="#590800"/>
<path opacity="0.67" d="M150.895 288.837C150.701 288.93 150.535 288.663 150.705 288.53C151.433 287.956 152.419 287.127 153.288 286.205C154.072 285.377 154.731 284.576 155.204 283.97C155.338 283.796 155.604 283.97 155.511 284.164C155.152 284.9 154.561 285.878 153.632 286.881C152.755 287.83 151.7 288.457 150.899 288.837H150.895Z" fill="white"/>
<path d="M140.559 285.874C140.559 285.874 136.19 281.266 136.671 280.813C137.152 280.361 141.125 285.13 141.125 285.13C141.125 285.13 138.728 278.097 139.565 277.681C140.406 277.268 142.483 284.811 142.483 284.811C142.483 284.811 142.795 277.45 144.577 277.131C146.356 276.812 143.514 284.346 143.514 284.346C143.514 284.346 146.457 282.305 147.387 282.721C148.316 283.138 144.145 285.619 144.145 285.619L140.555 285.874H140.559Z" fill="#3F0300"/>
<path d="M149.573 315.042C149.585 315.972 149.901 316.72 150.273 316.716C150.645 316.712 150.936 315.952 150.923 315.022C150.911 314.092 150.596 313.345 150.224 313.349C149.852 313.353 149.561 314.113 149.573 315.042Z" fill="#68004D"/>
<path d="M149.424 315.042C149.436 315.972 149.751 316.72 150.123 316.716C150.495 316.712 150.786 315.952 150.774 315.022C150.762 314.092 150.446 313.345 150.075 313.349C149.703 313.353 149.412 314.113 149.424 315.042Z" fill="#FF7F00"/>
<path d="M150.062 309.921C150.071 310.378 150.224 310.75 150.406 310.745C150.588 310.745 150.733 310.37 150.725 309.909C150.717 309.452 150.564 309.08 150.382 309.084C150.2 309.084 150.054 309.46 150.062 309.921Z" fill="#68004D"/>
<path d="M149.99 309.921C149.998 310.378 150.151 310.75 150.333 310.745C150.515 310.745 150.661 310.37 150.653 309.909C150.645 309.452 150.491 309.08 150.309 309.084C150.127 309.084 149.982 309.46 149.99 309.921Z" fill="#FF7F00"/>
<path d="M149.949 304.601C149.957 305.058 150.111 305.43 150.293 305.426C150.475 305.426 150.62 305.05 150.612 304.589C150.604 304.133 150.451 303.761 150.269 303.765C150.087 303.765 149.941 304.141 149.949 304.601Z" fill="#68004D"/>
<path d="M149.877 304.605C149.885 305.062 150.038 305.434 150.22 305.43C150.402 305.43 150.548 305.054 150.539 304.593C150.531 304.137 150.378 303.765 150.196 303.769C150.014 303.769 149.868 304.145 149.877 304.605Z" fill="#FF7F00"/>
<path d="M148.559 304.622C148.563 304.969 148.68 305.252 148.822 305.252C148.963 305.252 149.072 304.965 149.064 304.618C149.06 304.27 148.943 303.987 148.801 303.987C148.66 303.987 148.551 304.274 148.559 304.622Z" fill="#68004D"/>
<path d="M148.502 304.626C148.506 304.973 148.624 305.256 148.765 305.256C148.906 305.256 149.016 304.969 149.008 304.622C149.003 304.274 148.886 303.991 148.745 303.991C148.603 303.991 148.494 304.278 148.502 304.626Z" fill="#FF7F00"/>
<path d="M148.826 291.824C148.826 291.824 147.229 290.927 145.62 290.765C144.015 290.599 141.618 290.616 141.618 290.616L142.447 290.163C142.447 290.163 142.116 290.082 141.675 289.654C141.331 289.318 140.749 288.166 140.749 288.166C140.749 288.166 142.475 288.275 144.424 288.441C147.136 288.671 148.559 290.167 148.559 290.167L148.009 290.179C148.009 290.179 148.708 291.19 148.826 291.828V291.824Z" fill="#3F0300"/>
<path opacity="0.61" d="M147.771 289.779C147.771 289.779 146.942 289.055 145.349 288.728C143.761 288.401 142.14 288.494 142.14 288.494L143.195 288.845L141.602 288.675C141.602 288.675 142.213 289.35 144.06 289.359C146.522 289.367 147.698 290.357 147.698 290.357L147.265 289.674L147.771 289.779Z" fill="#8C130D"/>
<path d="M131.331 293.065C131.331 293.065 132.338 292.184 133.393 291.812C134.832 291.307 136.101 291.246 136.101 291.246L135.491 290.951C135.491 290.951 135.705 290.846 135.959 290.434C136.158 290.11 136.424 289.068 136.424 289.068C136.424 289.068 135.951 289.1 133.955 289.702C131.796 290.353 131.331 291.622 131.331 291.622L131.707 291.57C131.707 291.57 131.343 292.503 131.331 293.061V293.065Z" fill="#3F0300"/>
<path opacity="0.61" d="M131.832 291.291C131.832 291.291 132.317 290.583 133.364 290.131C134.411 289.678 135.697 289.472 135.697 289.472L134.84 289.993L135.903 289.674C135.903 289.674 135.373 290.155 134.306 290.523C133.239 290.89 131.942 291.772 131.942 291.772L132.164 291.145L131.832 291.291Z" fill="#8C130D"/>
<path opacity="0.24" d="M135.082 308.029C135.082 308.029 136.622 311.53 139.399 312.079C142.176 312.633 144.181 310.572 144.181 310.572C144.181 310.572 141.481 312.362 139.04 311.469C136.63 310.584 135.082 308.029 135.082 308.029Z" fill="white"/>
<path d="M148.51 306.271L147.868 308.789L148.539 310.709L146.057 310.721L146.303 311.328C146.303 311.328 144.941 312.678 142.904 313.365C140.883 314.048 138.571 313.826 138.571 313.826L136.214 311.667L133.906 310.649L134.084 307.387C134.084 307.387 136.618 313.43 140.677 312.872C145.495 312.205 148.502 306.275 148.502 306.275L148.51 306.271Z" fill="#68004D"/>
<path d="M134.589 308.745L133.801 310.968L135.604 310.325L134.589 308.745Z" fill="white"/>
<path d="M136.271 311.024L135.745 312.342L137.063 311.934L136.271 311.024Z" fill="white"/>
<path d="M138.466 312.702L138.571 314.169L139.816 313.114L138.466 312.702Z" fill="white"/>
<path d="M141.663 312.888L143.268 313.712L143.365 312.354L141.663 312.888Z" fill="white"/>
<path d="M146.186 309.646L148.539 310.709L147.528 307.827L146.186 309.646Z" fill="white"/>
<path d="M144.565 311.279L146.307 311.328L145.81 310.115L144.565 311.279Z" fill="white"/>
<path d="M134.229 307.302C134.229 307.302 136.521 313.058 140.741 312.662C144.957 312.265 148.446 306.129 148.446 306.129L148.607 306.158C148.607 306.158 145.495 313.046 140.806 313.377C136.02 313.717 134.1 307.528 134.1 307.528L134.229 307.298V307.302Z" fill="#590800"/>
<path d="M146.663 305.47C146.663 305.47 147.548 305.713 148.518 306.449C149.489 307.184 149.844 307.916 149.844 307.916C149.844 307.916 149.525 306.521 148.7 305.794C147.876 305.066 146.663 305.47 146.663 305.47Z" fill="#68004D"/>
<path d="M135.22 306.493C135.22 306.493 134.553 307.14 134.112 307.714C133.676 308.288 133.372 309.678 133.372 309.678C133.372 309.678 133.138 308.441 133.583 307.576C134.088 306.594 135.22 306.493 135.22 306.493Z" fill="#68004D"/>
<path d="M144.587 295L141.772 298.329" stroke="#70170E" stroke-linecap="round" stroke-linejoin="round"/>
<path d="M145.883 298.222L141.54 298.597" stroke="#70170E" stroke-linecap="round" stroke-linejoin="round"/>
</g>
<path d="M91.2212 311.48C95.7565 311.545 98.683 311.145 101.812 310.069C104.94 308.994 105.276 305.853 102.964 304.73C101.092 303.82 95.514 304.447 91.3223 304.39C87.1306 304.33 81.5726 303.549 79.6769 304.402C77.3324 305.461 77.579 308.61 80.6793 309.77C83.7756 310.93 86.69 311.415 91.2253 311.476L91.2212 311.48Z" fill="#F2A73D"/>
<path d="M87.5549 307.268C87.5711 306.132 88.6948 305.114 90.5138 304.37C86.4433 304.237 81.4513 303.602 79.6727 304.402C77.3283 305.461 77.5748 308.61 80.6752 309.77C83.7714 310.93 86.6858 311.415 91.2211 311.476C92.4863 311.492 93.6222 311.476 94.6772 311.415C90.5016 310.765 87.5266 309.132 87.5549 307.264V307.268Z" fill="#EF9337"/>
<g style="mix-blend-mode:screen" opacity="0.5">
<path d="M91.298 305.829C95.8535 305.894 101.836 305.251 104.281 306.072C104.055 305.526 103.61 305.049 102.96 304.73C101.088 303.82 95.5099 304.447 91.3182 304.39C87.1265 304.33 81.5685 303.549 79.6727 304.402C79.0098 304.701 78.5571 305.166 78.3146 305.704C80.7803 304.952 86.7425 305.764 91.298 305.825V305.829Z" fill="#FFB64D"/>
</g>
<g style="mix-blend-mode:screen" opacity="0.5">
<path d="M99.1114 305.445C99.1033 305.926 97.8987 306.298 96.4234 306.274C94.9439 306.254 93.7515 305.849 93.7596 305.368C93.7676 304.887 94.9722 304.515 96.4517 304.536C97.9311 304.556 99.1235 304.96 99.1154 305.441L99.1114 305.445Z" fill="#FFB64D"/>
</g>
<g style="mix-blend-mode:screen" opacity="0.5">
<path d="M100.554 305.441C100.554 305.712 100.28 305.926 99.9481 305.922C99.6167 305.918 99.3499 305.696 99.3539 305.425C99.3539 305.154 99.6288 304.94 99.9603 304.944C100.292 304.948 100.558 305.17 100.554 305.441Z" fill="#FFB64D"/>
</g>
<path d="M142.989 321.906C149.27 321.995 153.316 321.518 157.646 320.232C161.975 318.947 162.432 315.168 159.226 313.809C156.635 312.71 148.911 313.454 143.11 313.369C137.31 313.288 129.609 312.33 126.986 313.357C123.744 314.626 124.096 318.418 128.384 319.824C132.673 321.231 136.707 321.817 142.989 321.906Z" fill="#F2A73D"/>
<path d="M137.9 316.825C137.92 315.459 139.472 314.234 141.99 313.345C136.356 313.175 129.439 312.395 126.982 313.357C123.74 314.626 124.092 318.418 128.38 319.824C132.669 321.231 136.703 321.817 142.985 321.906C144.735 321.93 146.311 321.906 147.771 321.841C141.99 321.049 137.867 319.076 137.9 316.825Z" fill="#EF9337"/>
<g style="mix-blend-mode:screen" opacity="0.5">
<path d="M143.082 315.107C149.387 315.196 157.674 314.44 161.057 315.43C160.742 314.771 160.127 314.197 159.222 313.813C156.631 312.714 148.906 313.458 143.106 313.373C137.305 313.292 129.605 312.334 126.982 313.361C126.068 313.721 125.438 314.278 125.102 314.925C128.514 314.028 136.772 315.018 143.078 315.107H143.082Z" fill="#FFB64D"/>
</g>
<g style="mix-blend-mode:screen" opacity="0.5">
<path d="M153.899 314.662C153.891 315.24 152.225 315.685 150.176 315.657C148.126 315.628 146.473 315.135 146.481 314.561C146.489 313.983 148.155 313.539 150.204 313.567C152.253 313.595 153.907 314.088 153.899 314.662Z" fill="#FFB64D"/>
</g>
<g style="mix-blend-mode:screen" opacity="0.5">
<path d="M155.895 314.662C155.891 314.986 155.515 315.244 155.055 315.236C154.594 315.228 154.226 314.962 154.23 314.638C154.234 314.315 154.61 314.056 155.071 314.064C155.532 314.072 155.899 314.339 155.895 314.662Z" fill="#FFB64D"/>
</g>
<path d="M259.032 303.291C257.963 303.179 256.891 303.113 255.814 303.083C254.267 303.04 252.986 302.778 251.601 303.484C249.105 304.757 246.601 306.586 244.359 308.249C242.646 309.518 240.829 311.679 238.695 312.257C237.291 312.639 235.281 312.381 233.853 312.092C230.532 311.412 227.021 311.046 223.66 311.725C220.635 312.335 218.004 313.488 214.879 313.349C213.629 313.295 212.371 313.245 211.121 313.241C209.311 313.237 208.509 312.616 206.973 311.721C205.418 310.814 203.79 310.398 202.077 309.877C200.657 309.445 198.933 309.047 197.432 309.341C194.685 309.877 191.544 312.485 189.939 314.704C188.736 316.37 188.122 318.924 185.78 319.341C183.176 319.804 180.275 318.6 177.693 319.221C174.943 319.881 172.234 321.178 169.526 322.03C165.664 323.246 161.728 324.195 157.882 325.46C154.961 326.421 152.557 325.576 149.706 325.128C147.268 324.743 144.71 325.29 142.264 324.831C137.757 323.986 133.324 322.277 128.864 321.162C125.372 320.29 121.572 319.573 117.972 319.495C117.012 319.476 115.789 319.218 114.851 319.434C113.813 319.673 112.984 320.603 112.05 321.089C109.878 322.212 107.231 322.227 104.885 322.806C100.923 323.786 96.459 322.478 92.4117 322.794C84.2053 323.438 75.8832 322.794 67.6266 322.528C64.7021 322.435 61.7352 322.177 58.8068 322.215C57.0744 322.239 55.4 322.694 53.6677 322.682C50.8319 322.659 48.1504 322.185 45.4304 323.219C43.7289 323.867 42.1586 324.669 40.3877 325.125C39.1222 325.452 37.7564 325.777 36.7842 326.718C35.3065 328.153 35.4261 330.468 35.0518 332.347C34.7867 333.681 34.3676 334.969 33.9044 336.244C32.8731 339.084 34.6531 342.009 37.642 342.45L157.789 360.157L245.767 362.977C248.307 363.059 250.503 361.222 250.874 358.709L259.039 303.299C259.039 303.295 259.036 303.291 259.032 303.291Z" fill="#79A4FA"/>
<path d="M209.342 313.404C209.342 313.405 209.341 313.405 209.34 313.405C206.64 313.046 203.631 312.228 200.058 310.874C193.06 308.227 189.317 306.645 182.627 310.191C180.984 311.061 181.762 313.401 183.622 313.401H209.341C209.342 313.401 209.343 313.403 209.342 313.404Z" fill="#5F9EFD"/>
<path d="M398.216 267.812C398.216 267.812 398.215 267.812 398.215 267.812C389.657 264.837 370.39 261.358 361.397 265.008C354.988 267.608 353.287 275.506 348.892 279.912C340.262 288.566 331.345 286.953 317.749 286.602C306.826 286.32 308.513 290.105 300.997 295.345C297.054 298.095 291.44 294.372 287.346 296.332C281.563 299.102 279.75 302.725 277.165 304.982C266.053 314.697 250.068 309.848 237.225 318.096C233.324 320.6 230.723 324.586 225.951 325.195C221.988 325.701 215.815 324.011 211.996 325.257C207.127 326.843 203.571 331.638 200.437 336.482C197.999 340.252 201.172 346.527 205.662 346.527H391.318C394.177 346.527 396.454 344.135 396.312 341.28C396.156 338.12 395.999 334.96 395.843 331.801L398.219 267.813C398.219 267.811 398.218 267.811 398.216 267.812Z" fill="url(#paint8_linear_199_9165)"/>
<path d="M325.921 350.27C325.921 350.27 325.92 350.27 325.92 350.27C317.872 351.678 308.643 351.374 301.066 349.36C294.16 347.523 290.907 342.241 283.696 344.957C279.128 346.674 274.826 350.154 270.277 352.056C255.462 358.245 242.772 344.29 228.744 347.878C217.74 350.691 209.407 358.731 198.052 359.229C186.686 359.723 176.685 362.875 165.346 360.46C152.664 357.755 140.264 352.99 127.231 353.484C118.963 353.797 110.467 356.239 102.183 355.158C97.0326 354.487 92.2755 351.752 87.2328 350.212C82.7264 348.835 77.0935 347.465 72.5948 349.356C69.0221 350.86 66.8885 353.619 63.2078 354.31C54.5616 355.934 48.8205 346.099 40.7106 344.452C37.9674 343.896 34.6571 341.929 31.9988 342.002C30.6372 342.039 29.0126 342.54 27.3223 343.384C25.821 344.134 25 345.743 25 347.421V371.436C25 374.198 27.2386 376.436 30 376.436H320.924C323.686 376.436 325.924 374.198 325.924 371.436V350.274C325.924 350.272 325.923 350.27 325.921 350.27Z" fill="#000045"/>
<g style="mix-blend-mode:overlay" opacity="0.28">
<path d="M-138.849 173.738C-138.849 173.738 -109.147 183.882 -90.3127 183.882C-71.4785 183.882 -70.7548 182.434 -66.4066 186.053C-62.0585 189.677 -61.3348 191.849 -51.9205 191.125C-42.5063 190.401 -26.567 193.296 -19.3239 196.197C-12.0808 199.097 -4.8378 194.749 3.85843 196.197C12.549 197.644 39.3557 207.788 66.8805 205.611C66.8805 205.611 1.68723 203.44 -35.9812 199.815C-73.6497 196.191 -125.081 183.152 -138.843 173.738H-138.849Z" fill="white"/>
</g>
<g style="mix-blend-mode:overlay" opacity="0.28">
<path d="M101 139C101 139 127.543 144.676 143.726 142.802C159.91 140.929 160.387 139.63 164.485 142.275C168.583 144.92 169.426 146.699 177.446 145.148C185.466 143.597 199.454 144.479 205.97 146.219C212.487 147.966 218.279 143.55 225.893 143.912C233.508 144.274 257.56 150.241 281 145.66C281 145.66 224.755 150.289 192.022 150.95C159.289 151.611 113.778 145.636 101.008 139H101Z" fill="white"/>
</g>
<g style="mix-blend-mode:overlay" opacity="0.28">
<path d="M-264.978 114C-264.978 114 -53.1589 162.673 138.289 173.834C329.736 184.986 452.964 130.224 452.964 130.224L455 138.34C455 138.34 296.138 200.201 38.4898 179.915C-219.158 159.636 -266 140.367 -266 140.367L-264.978 114Z" fill="white"/>
</g>
<path opacity="0.2" d="M-114 -39C-114 -39 25.9239 96.1757 291 109C291 109 289.028 102.09 278.192 100.116C267.356 98.1421 255.526 103.078 252.569 96.168C249.611 89.2584 239.761 69.5246 219.066 68.5452C198.372 67.5659 185.564 79.3954 174.72 72.4935C163.876 65.5917 151.068 52.7597 140.232 53.7468C129.396 54.7338 102.787 62.6305 98.8433 50.7855C94.9001 38.9406 94.9001 18.2274 72.2341 -7.42893C49.5681 -33.0852 -18.4223 12.3049 -29.2585 -2.49354C-40.0948 -17.292 -43.0522 -39 -56.8459 -39H-114Z" fill="white"/>
<path opacity="0.2" d="M191 111.94C191 111.94 19.9634 114.287 -98.1857 89.6113C-216.326 64.9354 -261 28.5062 -261 28.5062C-261 28.5062 -235.136 40.2596 -223.968 39.0815C-212.799 37.9034 -198.694 24.392 -189.293 26.1591C-179.892 27.9262 -172.839 50.8349 -165.197 52.013C-157.555 53.1911 -152.85 46.7208 -122.291 47.3098C-91.7312 47.8988 -89.3742 67.8715 -75.8577 77.2779C-62.3412 86.6752 -23.5504 80.803 -5.32899 80.214C12.8924 79.6249 22.2932 98.4286 34.051 100.776C45.8088 103.123 70.4939 94.3144 75.779 96.0725C81.0641 97.8305 84.5996 104.89 90.474 104.301C96.3483 103.712 95.1789 97.2505 101.053 100.776C106.928 104.301 123.39 109.004 128.086 103.712C132.791 98.4195 190.973 111.94 190.973 111.94H191Z" fill="white"/>
<path opacity="0.2" d="M150 29.5247C150 29.5247 308.199 61.3008 382 55.2288C382 55.2288 366.856 48.7868 358.318 49.6287C349.781 50.4706 343.587 55.3053 333.491 45.7508C323.408 36.1963 295.451 27.3179 280.371 35.7371C265.305 44.1563 253.625 39.9849 249.349 36.6938C245.074 33.4027 240 36.5152 230.664 36.3239C221.315 36.1453 210.344 10.7091 197.196 11.0025C184.048 11.2959 179.992 29.3717 172.123 24.7283C164.255 20.085 150 29.5247 150 29.5247Z" fill="white"/>
<path d="M1.67497 332.291L-6.50334 333.7C-6.50334 333.7 -15.8082 304.093 -16.6546 290.842C-16.6578 290.795 -16.6609 290.748 -16.6641 290.704V290.7C-17.1298 282.173 -8.72177 303.791 -3.13321 318.955C-0.389277 326.4 1.67497 332.291 1.67497 332.291Z" fill="url(#paint9_linear_199_9165)"/>
<g style="mix-blend-mode:multiply" opacity="0.46">
<path d="M1.67497 332.291L-6.50333 333.7C-6.50333 333.7 -15.8082 304.093 -16.6546 290.842C-16.6578 290.795 -16.6609 290.748 -16.6641 290.704C-14.839 298.199 -11.1007 312.907 -8.17109 320.276C-6.04076 325.638 -4.30063 322.813 -3.1332 318.955C-0.389267 326.4 1.67497 332.291 1.67497 332.291Z" fill="#4194F2"/>
</g>
<path d="M41.8439 316.71C41.8439 316.71 41.8439 316.71 41.842 316.715C41.7814 316.969 37.9301 333.393 39.8182 339.099C39.8182 339.099 46.4525 328.737 41.8429 316.712L41.8439 316.71Z" fill="url(#paint10_linear_199_9165)"/>
<g style="mix-blend-mode:multiply" opacity="0.28">
<path d="M41.8346 316.715C41.774 316.969 37.926 333.387 39.8125 339.091C39.8125 339.091 42.7112 328.638 41.8346 316.715Z" fill="#82007E"/>
</g>
<path d="M55.7459 323.936C55.7459 323.936 55.7449 323.938 55.744 323.94C55.5282 324.097 41.7332 334.204 39.0418 340.164C39.0418 340.164 50.4862 336.979 55.7478 323.936L55.7459 323.936Z" fill="url(#paint11_linear_199_9165)"/>
<g style="mix-blend-mode:multiply" opacity="0.28">
<path d="M55.7439 323.938C55.528 324.094 41.7338 334.201 39.0426 340.161C39.0426 340.161 48.12 334.067 55.7439 323.938Z" fill="#82007E"/>
</g>
<path d="M51.5065 312.931C51.5065 312.931 51.5055 312.933 51.5046 312.935C51.3303 313.237 40.1194 332.715 40.0921 340.966C40.0921 340.966 52.206 330.615 51.5065 312.931Z" fill="url(#paint12_linear_199_9165)"/>
<g style="mix-blend-mode:multiply" opacity="0.28">
<path d="M51.3302 312.934C51.1583 313.235 40.0991 332.643 40.0721 340.865C40.0721 340.865 47.6447 328.714 51.3302 312.934Z" fill="#82007E"/>
</g>
<path d="M53.488 327.13C53.488 327.13 53.488 327.13 53.4871 327.132C53.3536 327.278 44.8041 336.678 43.738 341.323C43.738 341.323 51.6184 337.194 53.488 327.13Z" fill="url(#paint13_linear_199_9165)"/>
<g style="mix-blend-mode:multiply" opacity="0.28">
<path d="M53.4424 327.13C53.3095 327.276 44.7988 336.661 43.7375 341.299C43.7375 341.299 49.4215 335.517 53.4424 327.13Z" fill="#82007E"/>
</g>
<path d="M59.5278 337.525C59.5278 337.525 59.5278 337.525 59.5258 337.524C59.3307 337.539 46.728 338.528 42.6576 341.513C42.6576 341.513 51.0093 344.335 59.5288 337.523L59.5278 337.525Z" fill="url(#paint14_linear_199_9165)"/>
<g style="mix-blend-mode:multiply" opacity="0.28">
<path d="M59.5227 337.526C59.3275 337.54 46.7248 338.53 42.6544 341.515C42.6544 341.515 50.7208 341.255 59.5227 337.526Z" fill="#82007E"/>
</g>
<path d="M61.2374 328.429L61.2365 328.431C61.0073 328.561 46.3007 337.042 42.98 342.7C42.98 342.7 54.594 340.889 61.2374 328.429Z" fill="url(#paint15_linear_199_9165)"/>
<g style="mix-blend-mode:multiply" opacity="0.28">
<path d="M61.2365 328.431C61.0073 328.561 46.3006 337.042 42.9799 342.7C42.9799 342.7 52.5953 337.68 61.2365 328.431Z" fill="#82007E"/>
</g>
<path d="M21.8613 335.627C21.8613 335.627 26.3457 318.028 33.9429 311.38C38.5556 307.343 44.4169 307.428 48.3094 308.119" stroke="url(#paint16_linear_199_9165)" stroke-width="0.74" stroke-miterlimit="10"/>
<path d="M45.3284 310.074C43.1105 310.282 37.7525 311.304 34.6303 313.302C31.6707 315.197 30.5689 312.109 32.2911 310.233C32.3853 310.13 32.4885 310.031 32.6006 309.935C34.3589 308.447 41.7805 305.233 45.2514 306.431C46.0251 306.698 46.6025 307.184 46.8774 307.956C46.8774 307.956 47.5454 309.869 45.3284 310.074Z" fill="url(#paint17_linear_199_9165)"/>
<g style="mix-blend-mode:multiply" opacity="0.28">
<path d="M45.3284 310.074C43.1105 310.282 37.7525 311.304 34.6303 313.302C31.6707 315.197 30.5689 312.109 32.2911 310.233C33.1446 310.835 34.4223 311.263 36.3249 311.263C40.7076 311.267 43.7533 308.321 45.2514 306.431C46.0251 306.698 46.6025 307.184 46.8774 307.956C46.8774 307.956 47.5454 309.869 45.3284 310.074Z" fill="#82007E"/>
</g>
<path d="M0.817704 328.268C1.73189 325.457 3.39256 322.663 6.10555 321.48C8.81855 320.297 12.6465 321.485 13.3886 324.354C14.3356 321.688 15.7468 319.189 17.5431 317.002C18.3289 316.047 19.2377 315.118 20.4209 314.744C23.1705 313.876 26.0085 316.597 26.3899 319.453C26.7714 322.31 25.4836 325.091 24.2287 327.679C27.4335 323.721 31.603 320.543 36.277 318.501C38.8829 317.362 42.4227 316.794 44.1674 319.048C45.4899 320.756 45.0241 323.198 44.352 325.241C43.1315 328.955 41.441 332.512 39.3299 335.798C40.9576 333.196 45.5717 333.48 46.8865 336.265C47.9817 338.584 46.8489 341.285 45.7197 343.582C43.3535 348.397 40.9584 353.199 38.5368 357.988C30.345 354.443 22.229 350.725 14.1992 346.833C9.71331 344.66 4.66639 342.402 1.02975 338.905C-2.17179 335.824 -0.459287 332.214 0.822698 328.271L0.817704 328.268Z" fill="url(#paint18_linear_199_9165)"/>
<path d="M-0.594888 330.635C0.36763 327.769 2.06965 324.905 4.7822 323.652C7.49474 322.399 11.2646 323.526 11.9424 326.418C12.9346 323.697 14.3834 321.137 16.2076 318.886C17.0056 317.903 17.925 316.943 19.1052 316.541C21.8476 315.606 24.6056 318.305 24.9262 321.192C25.2469 324.078 23.9146 326.921 22.6189 329.568C25.8746 325.494 30.0708 322.19 34.7441 320.028C37.3497 318.822 40.8693 318.175 42.5531 320.423C43.8294 322.127 43.3187 324.61 42.6116 326.694C41.3273 330.481 39.5804 334.118 37.4221 337.49C39.0876 334.82 43.6548 335.015 44.9019 337.811C45.9406 340.138 44.7637 342.897 43.5984 345.247C41.1565 350.172 38.6862 355.084 36.19 359.984C28.1426 356.558 20.1738 352.955 12.294 349.173C7.89179 347.062 2.93531 344.877 -0.598567 341.407C-3.70959 338.35 -1.9398 334.658 -0.589998 330.638L-0.594888 330.635Z" fill="url(#paint19_linear_199_9165)"/>
<path d="M26.27 250.888C26.27 250.888 25.2536 260.055 24.2341 260.87C23.2146 261.685 20.1623 270.442 20.1623 270.442C20.1623 270.442 18.9382 279.199 18.1232 281.641C17.6008 283.211 15.1464 288.636 13.4598 292.324C13.4598 292.356 13.4598 292.384 13.4629 292.415C13.4661 292.51 13.4661 292.604 13.4692 292.702C13.7681 306.689 14.6901 344.481 14.6901 344.481L4.13291 344.616L0.476429 344.663L-6.35508 344.748L-2.48463 280.537C-2.48463 280.537 -5.92083 273.925 -6.44948 272.607C-6.97813 271.285 -8.56093 260.977 -8.56093 259.394C-8.56093 258.585 -10.622 255.099 -12.6422 251.873C-14.5806 248.774 -16.4875 245.916 -16.4875 245.916L-21.7771 239.84L-26 230.063L-25.6224 229.607L-24.6847 228.477L-19.9237 236.665C-19.9237 236.665 -8.8284 248.824 -7.50363 249.881C-6.18831 250.939 -3.28074 260.715 -3.01327 261.773C-2.78986 262.682 0.769075 270.247 1.75714 272.336C1.91763 272.673 2.00887 272.868 2.00887 272.868L2.02776 272.437L3.3242 241.955V215.79L4.60177 215.551L6.41427 215.214L7.55653 215L10.055 236.221C10.055 236.221 10.0708 236.203 10.0959 236.171H10.0991C10.6214 235.539 15.6971 229.409 15.9488 228.654C16.2131 227.864 16.5404 220.022 16.5404 220.022L18.3057 218.474L18.6518 218.169C18.6518 218.169 19.7091 224.248 19.9766 225.57C20.2378 226.891 18.1232 233.764 17.3334 234.821C16.6159 235.775 11.3452 242.581 10.3571 243.858C10.2533 243.994 10.1966 244.066 10.1966 244.066C10.1966 244.066 10.4641 247.575 10.8134 251.861C11.32 258.028 11.9997 265.81 12.3144 267.059C12.5252 267.912 12.7392 271.024 12.9217 274.592L14.3157 273.617L17.1068 271.66L19.3473 260.662C19.3473 260.662 21.5846 259.444 22.3996 259.032C23.2146 258.629 23.825 250.275 23.825 250.275L25.5054 250.696L26.27 250.888Z" fill="url(#paint20_linear_199_9165)"/>
<g style="mix-blend-mode:overlay" opacity="0.45">
<path d="M26.27 250.888C26.27 250.888 25.2536 260.055 24.2341 260.87C23.2146 261.685 20.1622 270.442 20.1622 270.442C20.1622 270.442 19.3598 278.752 18.5448 281.194C18.0225 282.764 15.1464 288.636 13.4598 292.324C13.4598 292.356 13.4598 292.384 13.4629 292.415C12.4465 289.413 13.7807 284.133 14.5957 283.271C15.631 282.176 18.9822 274.133 19.2875 273.4C19.5927 272.67 19.2875 272.242 19.1647 271.207C19.042 270.171 21.1755 266.757 21.2982 266.21C21.4209 265.662 20.8105 264.016 20.7507 263.101C20.6878 262.188 23.2492 260.848 23.7967 260.055C24.3442 259.262 24.4072 258.167 24.6495 256.949C24.8509 255.942 25.3417 252.034 25.5054 250.696L26.27 250.888Z" fill="white"/>
</g>
<g style="mix-blend-mode:overlay" opacity="0.45">
<path d="M17.3334 234.821C16.616 235.775 11.3452 242.581 10.3571 243.859C9.9764 243.305 9.76557 242.622 9.77187 241.952C9.7876 240.592 10.5491 239.334 11.5372 238.402C12.1539 237.817 12.8619 237.335 13.4535 236.725C14.1741 235.982 14.6996 235.076 15.2157 234.179C16.0716 232.694 16.9275 231.212 17.7802 229.727C18.054 229.252 18.3341 228.761 18.397 228.216C18.4505 227.738 18.3278 227.25 18.3876 226.772C18.4631 226.152 18.8281 225.608 19.0075 225.01C19.6368 222.889 17.8526 220.513 18.3057 218.474L18.6519 218.169C18.6519 218.169 19.7092 224.248 19.9766 225.57C20.2378 226.892 18.1232 233.764 17.3334 234.821Z" fill="white"/>
</g>
<g style="mix-blend-mode:overlay" opacity="0.45">
<path d="M1.7571 272.336C1.06483 272.547 0.359961 271.748 0.00123596 271.049C-2.37768 266.417 -3.93215 261.42 -5.83906 256.578C-6.55651 254.756 -7.32746 252.953 -8.17707 251.187C-8.55153 250.407 -8.94801 249.63 -9.50498 248.966C-10.3263 247.987 -11.4465 247.314 -12.4723 246.552C-14.0646 245.366 -15.4617 243.918 -16.5945 242.288C-17.4095 241.111 -18.1081 239.818 -19.2157 238.912C-19.7349 238.487 -20.3328 238.154 -20.7859 237.663C-22.0037 236.341 -21.8936 234.214 -22.9981 232.795C-23.404 232.272 -23.9547 231.879 -24.4204 231.407C-24.9333 230.891 -25.3392 230.274 -25.6224 229.607L-24.6847 228.477L-19.9237 236.665C-19.9237 236.665 -8.82844 248.824 -7.50367 249.881C-6.18835 250.939 -3.28078 260.715 -3.01331 261.773C-2.7899 262.682 0.769033 270.247 1.7571 272.336Z" fill="white"/>
</g>
<g style="mix-blend-mode:overlay" opacity="0.45">
<path d="M10.096 236.171C10.0865 236.228 10.0771 236.281 10.0645 236.338C9.99214 236.681 9.74669 237.125 9.41629 236.999C9.22749 236.926 9.15511 236.7 9.10791 236.505C8.79324 235.167 8.47857 233.833 8.1639 232.496C7.90272 231.388 7.6384 230.265 7.6321 229.126C7.62581 227.832 7.94992 226.558 7.97195 225.268C8.03174 221.869 6.03042 218.461 6.41432 215.214L7.55658 215L10.0551 236.221C10.0551 236.221 10.0708 236.203 10.096 236.171Z" fill="white"/>
</g>
<g style="mix-blend-mode:overlay" opacity="0.45">
<path d="M14.3157 273.617C14.3032 273.777 14.2874 273.935 14.2654 274.095C14.1773 274.731 13.957 275.436 13.378 275.713C12.6983 276.04 11.8519 275.565 11.4994 274.895C11.1501 274.224 11.1596 273.431 11.1722 272.676C11.2162 269.378 11.0935 266.077 10.9739 262.783C10.9141 261.156 10.8575 259.526 10.6907 257.909C10.5554 256.593 9.64602 254.217 9.98901 252.965C10.1621 252.333 10.4453 251.99 10.8135 251.861C11.3201 258.028 11.9998 265.81 12.3144 267.059C12.5253 267.912 12.7392 271.024 12.9217 274.592L14.3157 273.617Z" fill="white"/>
</g>
<g style="mix-blend-mode:overlay" opacity="0.45">
<path d="M14.6901 344.481L4.13287 344.616C3.95351 342.719 4.4381 340.727 5.80378 339.424C6.7352 338.534 7.99703 338.03 8.89384 337.105C10.2312 335.72 10.5333 333.669 10.7693 331.759C11.2476 327.851 11.7259 323.857 10.914 320.003C10.228 316.746 8.64525 313.332 9.90708 310.251C10.7252 308.256 12.6416 306.796 13.1702 304.703C13.7335 302.472 12.5692 300.197 12.3301 297.906C12.1412 296.11 12.5566 294.263 13.4692 292.702C13.7681 306.689 14.6901 344.481 14.6901 344.481Z" fill="white"/>
</g>
<path style="mix-blend-mode:multiply" opacity="0.3" d="M4.41606 264.718C4.34054 266.442 4.26502 268.176 4.49473 269.888C4.70871 271.487 5.11463 273.356 3.99755 274.52C3.86853 274.655 3.70805 274.781 3.5224 274.784C3.20143 274.791 2.99375 274.457 2.85529 274.168C2.57838 273.592 2.30147 273.016 2.02771 272.437L3.32415 241.955V215.79L4.60172 215.551C3.87168 219.975 3.91888 224.525 4.73073 228.937C4.98247 230.296 5.30658 231.646 5.4765 233.018C5.72509 235.045 5.63699 237.093 5.54573 239.129C5.17127 247.66 4.79367 256.187 4.41606 264.718Z" fill="url(#paint21_linear_199_9165)"/>
<path style="mix-blend-mode:multiply" opacity="0.3" d="M0.429231 305.902C1.12465 310.795 1.63127 315.311 0.592856 320.141C-0.215849 323.892 -2.05982 327.589 -1.42418 331.372C-1.21965 332.596 -0.760226 333.76 -0.436115 334.956C0.0767994 336.844 0.256158 338.804 0.391467 340.755C0.482721 342.048 0.55195 343.367 0.47643 344.663L-6.35508 344.748L-2.48463 280.537C-2.48463 280.537 -5.92083 273.925 -6.44948 272.607C-6.97813 271.285 -8.56093 260.977 -8.56093 259.394C-8.56093 258.585 -10.622 255.099 -12.6422 251.873C-11.5818 252.512 -10.6724 253.365 -10.3325 254.529C-10.1783 255.064 -10.15 255.637 -9.91716 256.143C-9.25635 257.572 -7.2456 257.909 -6.46836 259.277C-5.97747 260.146 -6.10334 261.216 -6.01838 262.21C-5.77294 265.124 -3.6552 267.591 -3.22725 270.483C-2.96607 272.258 -3.35312 274.133 -2.73951 275.817C-2.21716 277.242 -1.05287 278.328 -0.348007 279.668C0.495312 281.267 0.636909 283.129 0.759631 284.933C0.942141 287.569 1.1278 290.206 1.31031 292.843C1.40156 294.156 1.48967 295.493 1.16242 296.767C0.80369 298.174 -0.0364838 299.411 -0.495903 300.789C-0.955323 302.167 -0.927003 303.895 0.186933 304.829C0.372588 304.983 0.59286 305.122 0.690409 305.345C0.787956 305.569 0.671528 305.902 0.429231 305.902Z" fill="url(#paint22_linear_199_9165)"/>
<path d="M49.9109 244.878C48.3941 246.137 46.4998 247.09 44.4136 247.804C35.1087 250.998 22.0404 249.466 22.0404 249.466C8.98788 249.466 16.927 239.412 16.927 239.412C16.927 239.412 16.0176 238.789 15.1806 237.811C13.9408 236.366 12.8489 234.141 15.0453 231.989H15.0484C15.404 231.637 15.8509 231.287 16.3952 230.944C22.5691 227.064 42.6797 225.299 49.206 226.536C55.7323 227.769 48.3218 235.885 48.3218 235.885C48.3218 235.885 51.0972 236.479 52.4723 238.062C53.6901 239.466 53.8065 241.646 49.9109 244.878Z" fill="url(#paint23_linear_199_9165)"/>
<path style="mix-blend-mode:multiply" d="M44.4136 247.804C35.1088 250.998 22.0405 249.466 22.0405 249.466C8.98793 249.466 16.9271 239.412 16.9271 239.412C16.9271 239.412 16.0177 238.789 15.1807 237.811C16.0429 238.172 16.9648 238.412 17.7767 238.871C18.0347 239.016 18.3053 239.223 18.3305 239.519C18.3651 239.925 17.934 240.193 17.5942 240.416C16.5212 241.13 15.8541 242.42 15.8981 243.707C15.939 244.994 16.6879 246.241 17.805 246.883C18.3557 247.197 18.9756 247.37 19.5986 247.502C26.7857 249.013 34.2088 245.202 41.4746 246.259C42.6105 246.423 43.8724 246.826 44.4136 247.804Z" fill="url(#paint24_linear_199_9165)"/>
<path d="M34.2811 207.564C34.2811 207.564 34.8979 207.844 35.4171 208.361C36.273 209.213 36.8551 210.708 33.913 212.634C33.6266 212.823 33.3025 213.014 32.9438 213.213C26.7007 216.633 15.1271 215.019 15.1271 215.019C6.65614 216.356 1.73154 214.997 2.76995 211.727C3.81151 208.458 7.37988 206.227 7.37988 206.227C7.37988 206.227 6.24078 204.912 7.97147 202.662C10.6525 199.175 14.0383 195.94 21.1751 195.789C21.6439 195.78 22.0687 195.786 22.4621 195.808C23.1575 195.84 23.7365 195.915 24.2211 196.025C27.629 196.784 26.2539 199.093 26.2539 199.093C26.2539 199.093 38.74 195.676 41.2668 200.283C43.7936 204.89 34.2811 207.564 34.2811 207.564Z" fill="url(#paint25_linear_199_9165)"/>
<g opacity="0.28">
<path d="M33.913 212.634C33.6266 212.823 33.3025 213.014 32.9438 213.213C26.7007 216.633 15.1271 215.019 15.1271 215.019C6.65614 216.356 1.73154 214.997 2.76995 211.727C3.81152 208.458 7.37988 206.227 7.37988 206.227C7.37988 206.227 6.24078 204.912 7.97147 202.662C10.6525 199.175 14.0383 195.94 21.1751 195.789C21.6439 195.78 22.0687 195.786 22.4621 195.808C23.1575 195.84 23.7365 195.915 24.2211 196.025C23.362 196.916 22.5628 197.879 22.1852 199.043C21.7132 200.491 22.1128 202.341 23.4659 203.033C21.4111 204.235 19.4444 205.588 17.591 207.083C16.9365 207.608 16.2505 208.241 16.1781 209.075C16.1026 209.943 16.7571 210.739 17.5501 211.101C18.343 211.46 19.243 211.473 20.1115 211.451C24.5263 211.34 28.9254 210.532 33.0917 209.065C33.8532 208.795 34.6241 208.502 35.4171 208.361C36.273 209.213 36.8551 210.708 33.913 212.634Z" fill="url(#paint26_linear_199_9165)" style="mix-blend-mode:multiply"/>
</g>
<path style="mix-blend-mode:multiply" d="M33.913 212.634C33.6266 212.823 33.3025 213.014 32.9438 213.213C26.7007 216.633 15.1271 215.019 15.1271 215.019C6.65614 216.356 1.73154 214.997 2.76995 211.727C3.81151 208.458 7.37988 206.227 7.37988 206.227C7.37988 206.227 6.24078 204.912 7.97147 202.662C10.6525 199.175 14.0383 195.94 21.1751 195.789C21.6439 195.78 22.0687 195.786 22.4621 195.808L22.0467 195.837C19.8534 196.746 18.1857 198.817 17.7672 201.151C17.6036 202.064 17.6067 203.033 17.1693 203.848C16.5903 204.934 15.382 205.488 14.3467 206.152C12.8992 207.08 11.6751 208.351 10.8004 209.83C10.3818 210.544 10.0357 211.425 10.3756 212.181C10.7783 213.081 11.9458 213.345 12.9244 213.232C13.8999 213.115 14.8565 212.741 15.8351 212.823C16.9459 212.914 17.9277 213.578 19.0101 213.839C21.1688 214.361 23.3778 213.235 25.5993 213.216C27.05 213.203 28.4817 213.663 29.9292 213.559C31.2855 213.461 32.5819 212.876 33.913 212.634Z" fill="url(#paint27_linear_199_9165)"/>
<path d="M22.9246 203.439C19.888 207.004 11.1528 207.067 11.1528 207.067C11.1528 207.067 10.514 209.248 7.21308 211.227C3.91218 213.21 -2.81863 211.756 -2.81863 211.756C-15.8901 210.437 -7.17683 202.121 -7.17683 202.121C-7.17683 202.121 -12.5892 200.535 -11.2707 198.291C-11.1574 198.096 -11.0347 197.91 -10.9057 197.734C-9.55574 195.849 -7.57331 194.858 -7.57331 194.858C-7.57331 194.858 -8.11455 194.556 -8.47642 193.964C-8.832 193.388 -9.01765 192.536 -8.36629 191.425C-7.04467 189.181 -0.046381 184.562 5.36596 184.033C10.7783 183.505 10.9105 189.446 10.9105 189.446C10.9105 189.446 19.8503 187.957 23.491 190.135C23.9064 190.383 24.2525 190.679 24.5074 191.028C27.0153 194.461 20.4135 198.159 20.4135 198.159C20.4135 198.159 21.8925 198.615 22.9057 199.55C23.8529 200.425 24.3941 201.715 22.9246 203.439Z" fill="url(#paint28_linear_199_9165)"/>
<path style="mix-blend-mode:multiply" d="M22.9246 203.439C19.888 207.004 11.1528 207.067 11.1528 207.067C11.1528 207.067 10.514 209.248 7.21308 211.227C3.91218 213.21 -2.81863 211.756 -2.81863 211.756C-15.8901 210.437 -7.17683 202.121 -7.17683 202.121C-7.17683 202.121 -12.5892 200.535 -11.2707 198.291C-11.1574 198.096 -11.0347 197.91 -10.9057 197.734C-9.55574 195.849 -7.57331 194.858 -7.57331 194.858C-7.57331 194.858 -8.11455 194.556 -8.47642 193.964C-7.13278 194.861 -5.40523 195.091 -3.76894 195.226C-4.69722 195.544 -5.64123 195.871 -6.41533 196.469C-7.19256 197.067 -7.781 197.992 -7.71806 198.971C-7.65198 199.981 -6.88733 200.849 -5.96534 201.268C-5.04021 201.686 -3.98921 201.712 -2.98226 201.595C-3.14274 203.26 -2.07286 204.899 -0.58447 205.657C0.903925 206.416 2.71643 206.369 4.28035 205.787C5.88202 205.192 7.27917 204.056 8.18542 202.608C10.9577 203.332 13.8935 203.414 16.7036 202.844C17.5846 202.668 18.4846 202.41 19.158 201.819C19.8345 201.227 20.2216 200.223 19.8566 199.402C19.4632 198.524 18.4217 198.178 17.4934 197.923C19.6048 197.378 21.5212 196.11 22.8459 194.377C23.7711 193.162 24.306 191.286 23.491 190.135C23.9064 190.383 24.2525 190.679 24.5074 191.028C27.0153 194.461 20.4135 198.159 20.4135 198.159C20.4135 198.159 21.8925 198.615 22.9057 199.55C23.8529 200.425 24.3941 201.715 22.9246 203.439Z" fill="url(#paint29_linear_199_9165)"/>
<path style="mix-blend-mode:multiply" d="M22.9246 203.439C19.888 207.004 11.1528 207.067 11.1528 207.067C11.1528 207.067 10.514 209.248 7.21308 211.227C3.91218 213.21 -2.81863 211.756 -2.81863 211.756C-15.8901 210.437 -7.17683 202.121 -7.17683 202.121C-7.17683 202.121 -12.5892 200.535 -11.2707 198.291C-11.1574 198.096 -11.0347 197.91 -10.9057 197.734C-10.6477 197.954 -10.4148 198.209 -10.2134 198.47C-9.62497 199.222 -9.12779 200.094 -8.30965 200.585C-7.8282 200.874 -7.26808 201.01 -6.76776 201.268C-6.26428 201.526 -5.79542 201.966 -5.75766 202.526C-5.73564 202.825 -5.83948 203.115 -5.93388 203.398C-6.16359 204.097 -6.33036 204.886 -5.99996 205.541C-5.66641 206.199 -4.62485 206.485 -4.19689 205.887C-2.25852 207.914 0.589255 209.034 3.38983 208.873C6.1904 208.71 8.89342 207.272 10.5864 205.038C12.5373 205.072 14.5009 205.107 16.4172 204.748C18.3367 204.389 20.2247 203.603 21.5904 202.212C22.2953 201.497 22.8491 200.519 22.9057 199.55C23.8529 200.424 24.3941 201.715 22.9246 203.439Z" fill="url(#paint30_linear_199_9165)"/>
<path d="M10.4763 210.988C10.4039 211.274 10.2938 211.545 10.149 211.797C8.54104 214.585 2.69131 215.261 -1.69521 216.061C-6.47821 216.929 -10.1001 218.232 -13.2877 215.044C-16.4753 211.857 -13.8667 210.409 -13.8667 210.409C-13.8667 210.409 -18.9392 210.554 -18.2154 207.8C-18.099 207.35 -17.7371 206.954 -17.2179 206.602C-16.532 206.133 -15.5659 205.746 -14.5055 205.431C-11.45 204.512 -7.6362 204.175 -7.6362 204.175C-7.6362 204.175 4.24578 200.554 7.4334 202.583C10.621 204.613 5.84116 207.074 5.84116 207.074C5.84116 207.074 8.22008 207.262 9.60149 208.379C10.3252 208.962 10.7752 209.795 10.4763 210.988Z" fill="url(#paint31_linear_199_9165)"/>
<path style="mix-blend-mode:multiply" d="M9.04143 206.938L8.4939 206.617C8.70473 206.683 8.89038 206.793 9.04143 206.938Z" fill="url(#paint32_linear_199_9165)"/>
<path style="mix-blend-mode:multiply" d="M10.4763 210.988C10.4039 211.274 10.2938 211.545 10.149 211.797C8.54104 214.585 2.69131 215.261 -1.69521 216.06C-6.47821 216.929 -10.1001 218.232 -13.2877 215.044C-16.4753 211.856 -13.8667 210.409 -13.8667 210.409C-13.8667 210.409 -18.9392 210.554 -18.2154 207.8C-18.099 207.35 -17.7371 206.954 -17.2179 206.601C-16.532 206.133 -15.5659 205.746 -14.5055 205.431C-14.4551 205.831 -14.4079 206.233 -14.2537 206.595C-13.6999 207.882 -12.0322 208.162 -10.635 208.257C-11.4658 209.053 -11.557 210.44 -10.978 211.432C-10.399 212.423 -9.26305 213.011 -8.11765 213.093C-6.97225 213.178 -5.82999 212.804 -4.83877 212.225C-4.67829 212.133 -4.51466 212.03 -4.33215 212.001C-4.11188 211.967 -3.89162 212.036 -3.67764 212.102C-0.134443 213.2 3.82727 212.885 7.15335 211.243C8.08477 210.783 9.01934 210.167 9.43156 209.213C9.54484 208.955 9.60149 208.666 9.60149 208.379C10.3252 208.962 10.7752 209.795 10.4763 210.988Z" fill="url(#paint33_linear_199_9165)"/>
<path style="mix-blend-mode:multiply" d="M10.149 211.797C8.54104 214.585 2.69131 215.261 -1.69521 216.06C-6.47821 216.929 -10.1001 218.232 -13.2877 215.044C-16.4753 211.856 -13.8667 210.409 -13.8667 210.409C-13.8667 210.409 -18.9392 210.554 -18.2154 207.8C-18.099 207.35 -17.7371 206.954 -17.2179 206.601C-17.1613 207.555 -16.6138 208.518 -15.8208 209.09C-14.625 209.953 -13.0485 210.097 -11.5759 209.981C-12.5105 210.494 -13.3727 211.303 -13.5615 212.35C-13.8132 213.76 -12.7213 215.142 -11.3934 215.68C-10.0655 216.218 -8.57392 216.111 -7.15161 215.935C-3.38499 215.466 0.318684 214.588 4.01292 213.713C6.10234 213.216 8.21378 212.712 10.149 211.797Z" fill="url(#paint34_linear_199_9165)"/>
</g>
<defs>
<linearGradient id="paint0_linear_199_9165" x1="145.5" y1="0" x2="145.5" y2="342" gradientUnits="userSpaceOnUse">
<stop stop-color="#42ADFF"/>
<stop offset="0.328125" stop-color="#A6A9ED"/>
<stop offset="0.682292" stop-color="#FFA6DD"/>
</linearGradient>
<linearGradient id="paint1_linear_199_9165" x1="-21.0039" y1="307.096" x2="84.954" y2="307.096" gradientUnits="userSpaceOnUse">
<stop stop-color="#90C9FD"/>
<stop offset="0.27" stop-color="#8AC3FD"/>
<stop offset="0.62" stop-color="#79B5FD"/>
<stop offset="1" stop-color="#5F9EFD"/>
</linearGradient>
<linearGradient id="paint2_linear_199_9165" x1="192.981" y1="293.138" x2="421.857" y2="293.138" gradientUnits="userSpaceOnUse">
<stop stop-color="#90C9FD"/>
<stop offset="0.27" stop-color="#8AC3FD"/>
<stop offset="0.62" stop-color="#79B5FD"/>
<stop offset="1" stop-color="#5F9EFD"/>
</linearGradient>
<linearGradient id="paint3_linear_199_9165" x1="-18.5482" y1="304.665" x2="177.648" y2="304.665" gradientUnits="userSpaceOnUse">
<stop stop-color="#ECF6FF"/>
<stop offset="1" stop-color="#77ADFF"/>
</linearGradient>
<linearGradient id="paint4_linear_199_9165" x1="151.102" y1="347.06" x2="151.102" y2="299.126" gradientUnits="userSpaceOnUse">
<stop stop-color="#74BCFD"/>
<stop offset="0.19" stop-color="#79BEFD"/>
<stop offset="0.43" stop-color="#8AC6FD"/>
<stop offset="0.71" stop-color="#A5D3FD"/>
<stop offset="1" stop-color="#CAE4FD"/>
</linearGradient>
<linearGradient id="paint5_linear_199_9165" x1="93.8693" y1="287.511" x2="91.0184" y2="310.496" gradientUnits="userSpaceOnUse">
<stop stop-color="#DCED00"/>
<stop offset="1" stop-color="#9CA000"/>
</linearGradient>
<linearGradient id="paint6_linear_199_9165" x1="134.568" y1="288.021" x2="151.463" y2="334.268" gradientUnits="userSpaceOnUse">
<stop stop-color="#931A6E"/>
<stop offset="1" stop-color="#700D56"/>
</linearGradient>
<linearGradient id="paint7_linear_199_9165" x1="163.439" y1="290.896" x2="159.344" y2="292.34" gradientUnits="userSpaceOnUse">
<stop stop-color="#A43113"/>
<stop offset="1" stop-color="#6F160D"/>
</linearGradient>
<linearGradient id="paint8_linear_199_9165" x1="240" y1="317.5" x2="358.5" y2="360.5" gradientUnits="userSpaceOnUse">
<stop stop-color="#478CEC"/>
<stop offset="1" stop-color="#8AC8F9"/>
</linearGradient>
<linearGradient id="paint9_linear_199_9165" x1="-4.21253" y1="288.306" x2="-12.0227" y2="342.077" gradientUnits="userSpaceOnUse">
<stop stop-color="#A6CBFF"/>
<stop offset="0.12" stop-color="#A3C6FD"/>
<stop offset="0.26" stop-color="#9AB7F8"/>
<stop offset="0.42" stop-color="#8CA0F0"/>
<stop offset="0.58" stop-color="#787FE4"/>
<stop offset="0.74" stop-color="#5F55D6"/>
<stop offset="0.91" stop-color="#4022C4"/>
<stop offset="1" stop-color="#2E04BA"/>
</linearGradient>
<linearGradient id="paint10_linear_199_9165" x1="48.5361" y1="318.829" x2="37.1939" y2="331.184" gradientUnits="userSpaceOnUse">
<stop stop-color="#FFE2F4"/>
<stop offset="1" stop-color="#9579F0"/>
</linearGradient>
<linearGradient id="paint11_linear_199_9165" x1="59.8387" y1="324.922" x2="38.3132" y2="335.151" gradientUnits="userSpaceOnUse">
<stop stop-color="#FFA6DD"/>
<stop offset="0.12" stop-color="#FAA2DC"/>
<stop offset="0.26" stop-color="#EB97D9"/>
<stop offset="0.41" stop-color="#D485D5"/>
<stop offset="0.56" stop-color="#B36BD0"/>
<stop offset="0.72" stop-color="#894AC9"/>
<stop offset="0.89" stop-color="#5623C0"/>
<stop offset="1" stop-color="#2E04BA"/>
</linearGradient>
<linearGradient id="paint12_linear_199_9165" x1="51.107" y1="314.709" x2="41.4889" y2="344.485" gradientUnits="userSpaceOnUse">
<stop stop-color="#FFE1F4"/>
<stop offset="0.0001" stop-color="#FFA6DD"/>
<stop offset="1" stop-color="#9879FF"/>
</linearGradient>
<linearGradient id="paint13_linear_199_9165" x1="56.638" y1="331.425" x2="45.0348" y2="334.088" gradientUnits="userSpaceOnUse">
<stop stop-color="#FFDDF2"/>
<stop offset="1" stop-color="#9076E7"/>
</linearGradient>
<linearGradient id="paint14_linear_199_9165" x1="61.6546" y1="340.025" x2="44.2087" y2="337.899" gradientUnits="userSpaceOnUse">
<stop stop-color="#FFA6DD"/>
<stop offset="0.12" stop-color="#FAA2DC"/>
<stop offset="0.26" stop-color="#EB97D9"/>
<stop offset="0.41" stop-color="#D485D5"/>
<stop offset="0.56" stop-color="#B36BD0"/>
<stop offset="0.72" stop-color="#894AC9"/>
<stop offset="0.89" stop-color="#5623C0"/>
<stop offset="1" stop-color="#2E04BA"/>
</linearGradient>
<linearGradient id="paint15_linear_199_9165" x1="60.2784" y1="329.48" x2="40.9701" y2="343.758" gradientUnits="userSpaceOnUse">
<stop stop-color="#FFD9F0"/>
<stop offset="1" stop-color="#8B04BA"/>
</linearGradient>
<linearGradient id="paint16_linear_199_9165" x1="33.4845" y1="308.832" x2="36.522" y2="333.879" gradientUnits="userSpaceOnUse">
<stop stop-color="#6E0782"/>
<stop offset="1" stop-color="#08204D"/>
</linearGradient>
<linearGradient id="paint17_linear_199_9165" x1="46.5684" y1="309.367" x2="31.8596" y2="310.513" gradientUnits="userSpaceOnUse">
<stop stop-color="#FFA6DD"/>
<stop offset="0.12" stop-color="#FAA2DC"/>
<stop offset="0.26" stop-color="#EB97D9"/>
<stop offset="0.41" stop-color="#D485D5"/>
<stop offset="0.56" stop-color="#B36BD0"/>
<stop offset="0.72" stop-color="#894AC9"/>
<stop offset="0.89" stop-color="#5623C0"/>
<stop offset="1" stop-color="#2E04BA"/>
</linearGradient>
<linearGradient id="paint18_linear_199_9165" x1="36.5768" y1="314.242" x2="16.1724" y2="348.648" gradientUnits="userSpaceOnUse">
<stop stop-color="#C5D5FC"/>
<stop offset="1" stop-color="#AFB1F2"/>
</linearGradient>
<linearGradient id="paint19_linear_199_9165" x1="35.1269" y1="315.708" x2="14.2131" y2="350.973" gradientUnits="userSpaceOnUse">
<stop stop-color="#80A7F4"/>
<stop offset="1" stop-color="#5F5CEF"/>
</linearGradient>
<linearGradient id="paint20_linear_199_9165" x1="0.133434" y1="215" x2="0.133434" y2="344.748" gradientUnits="userSpaceOnUse">
<stop stop-color="#6E0782"/>
<stop offset="1" stop-color="#08204D"/>
</linearGradient>
<linearGradient id="paint21_linear_199_9165" x1="2.02771" y1="245.168" x2="5.63699" y2="245.168" gradientUnits="userSpaceOnUse">
<stop stop-color="#6E0782"/>
<stop offset="1" stop-color="#08204D"/>
</linearGradient>
<linearGradient id="paint22_linear_199_9165" x1="-12.6422" y1="298.309" x2="1.39212" y2="298.309" gradientUnits="userSpaceOnUse">
<stop stop-color="#6E0782"/>
<stop offset="1" stop-color="#08204D"/>
</linearGradient>
<linearGradient id="paint23_linear_199_9165" x1="38.91" y1="227.014" x2="21.6471" y2="259.922" gradientUnits="userSpaceOnUse">
<stop stop-color="#EAD5F4"/>
<stop offset="0.963542" stop-color="#ECC2FF"/>
</linearGradient>
<linearGradient id="paint24_linear_199_9165" x1="33.1736" y1="238.984" x2="23.2709" y2="250.19" gradientUnits="userSpaceOnUse">
<stop stop-color="#FFA6DD" stop-opacity="0.5"/>
<stop offset="0.21" stop-color="#F2AFDD" stop-opacity="0.63"/>
<stop offset="0.57" stop-color="#DFBDDE" stop-opacity="0.83"/>
<stop offset="0.84" stop-color="#D3C6DF" stop-opacity="0.95"/>
<stop offset="1" stop-color="#CFCAE0"/>
</linearGradient>
<linearGradient id="paint25_linear_199_9165" x1="30.8732" y1="195.84" x2="6.77887" y2="225.151" gradientUnits="userSpaceOnUse">
<stop stop-color="#EAD5F4"/>
<stop offset="1" stop-color="#EDC8FF"/>
</linearGradient>
<linearGradient id="paint26_linear_199_9165" x1="25.2375" y1="203.832" x2="10.2717" y2="215.538" gradientUnits="userSpaceOnUse">
<stop stop-color="#FACFE9" stop-opacity="0.5"/>
<stop offset="0.21" stop-color="#F2AFDD" stop-opacity="0.63"/>
<stop offset="0.57" stop-color="#DFBDDE" stop-opacity="0.83"/>
<stop offset="0.84" stop-color="#D3C6DF" stop-opacity="0.95"/>
<stop offset="1" stop-color="#CFCAE0"/>
</linearGradient>
<linearGradient id="paint27_linear_199_9165" x1="2.6315" y1="205.657" x2="33.9129" y2="205.657" gradientUnits="userSpaceOnUse">
<stop stop-color="#FFA6DD" stop-opacity="0.5"/>
<stop offset="0.21" stop-color="#F2AFDD" stop-opacity="0.63"/>
<stop offset="0.57" stop-color="#DFBDDE" stop-opacity="0.83"/>
<stop offset="0.84" stop-color="#D3C6DF" stop-opacity="0.95"/>
<stop offset="1" stop-color="#CFCAE0"/>
</linearGradient>
<linearGradient id="paint28_linear_199_9165" x1="11.4674" y1="189.575" x2="-4.69722" y2="220.39" gradientUnits="userSpaceOnUse">
<stop offset="0.12" stop-color="#FFE0F4"/>
<stop offset="1" stop-color="#C8BAF5"/>
</linearGradient>
<linearGradient id="paint29_linear_199_9165" x1="12.1786" y1="192.391" x2="0.582961" y2="207.165" gradientUnits="userSpaceOnUse">
<stop stop-color="#FFA6DD" stop-opacity="0.5"/>
<stop offset="0.21" stop-color="#F2AFDD" stop-opacity="0.63"/>
<stop offset="0.57" stop-color="#DFBDDE" stop-opacity="0.83"/>
<stop offset="0.84" stop-color="#D3C6DF" stop-opacity="0.95"/>
<stop offset="1" stop-color="#CFCAE0"/>
</linearGradient>
<linearGradient id="paint30_linear_199_9165" x1="8.89343" y1="196.346" x2="0.50115" y2="208.76" gradientUnits="userSpaceOnUse">
<stop stop-color="#FFA6DD" stop-opacity="0.5"/>
<stop offset="0.21" stop-color="#F2AFDD" stop-opacity="0.63"/>
<stop offset="0.57" stop-color="#DFBDDE" stop-opacity="0.83"/>
<stop offset="0.84" stop-color="#D3C6DF" stop-opacity="0.95"/>
<stop offset="1" stop-color="#CFCAE0"/>
</linearGradient>
<linearGradient id="paint31_linear_199_9165" x1="-0.12815" y1="202.316" x2="-10.5469" y2="222.178" gradientUnits="userSpaceOnUse">
<stop stop-color="#FFA6DD"/>
<stop offset="0.12" stop-color="#FAA2DC"/>
<stop offset="0.26" stop-color="#EB97D9"/>
<stop offset="0.41" stop-color="#D485D5"/>
<stop offset="0.56" stop-color="#B36BD0"/>
<stop offset="0.72" stop-color="#894AC9"/>
<stop offset="0.89" stop-color="#5623C0"/>
<stop offset="1" stop-color="#2E04BA"/>
</linearGradient>
<linearGradient id="paint32_linear_199_9165" x1="8.84633" y1="206.727" x2="8.65753" y2="206.844" gradientUnits="userSpaceOnUse">
<stop stop-color="#FFA6DD" stop-opacity="0.5"/>
<stop offset="0.21" stop-color="#F2AFDD" stop-opacity="0.63"/>
<stop offset="0.57" stop-color="#DFBDDE" stop-opacity="0.83"/>
<stop offset="0.84" stop-color="#D3C6DF" stop-opacity="0.95"/>
<stop offset="1" stop-color="#CFCAE0"/>
</linearGradient>
<linearGradient id="paint33_linear_199_9165" x1="2.91158" y1="205.5" x2="-12.5293" y2="215.019" gradientUnits="userSpaceOnUse">
<stop stop-color="#FFA6DD" stop-opacity="0.5"/>
<stop offset="0.21" stop-color="#F2AFDD" stop-opacity="0.63"/>
<stop offset="0.57" stop-color="#DFBDDE" stop-opacity="0.83"/>
<stop offset="0.84" stop-color="#D3C6DF" stop-opacity="0.95"/>
<stop offset="1" stop-color="#CFCAE0"/>
</linearGradient>
<linearGradient id="paint34_linear_199_9165" x1="-18.2878" y1="211.838" x2="10.149" y2="211.838" gradientUnits="userSpaceOnUse">
<stop stop-color="#FFA6DD" stop-opacity="0.5"/>
<stop offset="0.21" stop-color="#F2AFDD" stop-opacity="0.63"/>
<stop offset="0.57" stop-color="#DFBDDE" stop-opacity="0.83"/>
<stop offset="0.84" stop-color="#D3C6DF" stop-opacity="0.95"/>
<stop offset="1" stop-color="#CFCAE0"/>
</linearGradient>
</defs>
</svg>
