<svg width="291" height="342" viewBox="0 0 291 342" fill="none" xmlns="http://www.w3.org/2000/svg">
<mask id="mask0_199_6492" style="mask-type:alpha" maskUnits="userSpaceOnUse" x="0" y="0" width="291" height="342">
<rect width="291" height="342" rx="5" fill="url(#paint0_linear_199_6492)"/>
</mask>
<g mask="url(#mask0_199_6492)">
<path d="M84.9556 330.385C84.9548 330.387 84.9525 330.387 84.951 330.386C84.1765 329.758 83.3942 329.114 82.6004 328.529C81.4237 327.657 80.108 327.12 78.8619 326.36C76.7668 325.079 74.8069 323.289 73.0938 321.549C71.647 320.079 70.3082 318.517 68.8845 317.035C68.3367 316.464 67.6923 316.047 67.1831 315.434C66.3381 314.415 65.7092 313.269 64.9723 312.174C62.9776 309.222 59.4898 307.104 56.681 304.963C54.7828 303.516 53.0003 302 51.2217 300.41C50.1182 299.422 49.0109 298.458 47.9692 297.404C47.2516 296.675 46.4375 296.151 45.689 295.468C43.7831 293.724 41.9427 291.617 39.6548 290.39C38.6092 289.831 37.5829 289.044 36.5682 288.376C35.5998 287.74 35.1253 286.991 34.3883 286.127C33.8482 285.494 33.1499 284.642 32.5094 284.125C32.0348 283.743 31.8149 283.82 31.1359 283.824C30.4298 283.827 29.6505 283.669 29.0486 284.132C28.5316 284.53 28.1072 285.286 27.7368 285.822C26.371 287.805 25.2907 289.985 23.5815 291.706C22.3546 292.94 20.6184 293.793 19.1793 294.792C16.5557 296.617 15.1938 299.584 13.3303 302.054C12.0571 303.74 10.8533 305.144 8.69273 305.291C8.02526 305.337 7.37321 305.233 6.7096 305.341C4.32909 305.738 2.83982 307.119 0.930014 308.477C-0.293037 309.349 -1.20743 310.187 -1.95206 311.51C-2.65426 312.76 -3.03236 313.806 -4.08179 314.805C-5.13894 315.808 -5.7138 317.039 -6.83654 317.965C-7.57731 318.578 -8.19463 319.315 -8.93926 319.917C-10.9185 321.514 -13.2643 322.595 -15.2899 324.138C-16.4165 324.998 -17.8208 325.743 -18.6079 326.962C-19.1712 327.834 -19.2754 328.822 -20.0895 329.539C-20.4857 329.89 -20.2851 330.38 -19.7562 330.38H84.9529C84.9552 330.38 84.9566 330.383 84.9556 330.385Z" fill="url(#paint1_linear_199_6492)"/>
<path d="M195.137 318.002C195.137 318.002 195.138 318.003 195.138 318.002C196.122 316.336 197.337 314.832 198.305 313.146C199.161 311.657 199.713 309.902 200.701 308.497C202.503 305.939 207.468 304.392 210.447 304.766C214.741 305.303 219.143 305.283 223.507 305.199C225.775 305.156 228.326 303.551 230.17 302.351C233.364 300.272 236.177 297.559 239.626 295.881C241.795 294.828 243.94 294.133 246.278 293.508C248.107 293.022 249.777 292.208 251.706 292.235C253.172 292.254 254.199 291.919 255.595 291.753C256.988 291.591 258.628 290.715 259.94 290.152C261.278 289.577 262.343 288.836 263.539 288.045C264.778 287.223 266.225 286.332 267.22 285.213C268.721 283.531 269.905 281.339 272.487 281.625C275.268 281.934 277.691 282.678 280.392 283.334C281.85 283.689 283.332 283.932 284.833 283.913C286.017 283.897 287.479 284.152 288.618 283.832C291.164 283.118 293.464 280.795 295.042 278.835C296.627 276.868 297.607 273.434 299.953 272.33C301.566 271.57 303.032 271.898 304.718 272.234C305.204 272.33 306.196 272.539 306.682 272.369C307.376 272.126 307.639 271.165 307.932 270.509C308.403 269.452 308.449 268.411 308.723 267.299C308.981 266.265 309.564 265.428 309.915 264.437C310.378 263.121 310.27 261.72 310.683 260.401C310.845 259.888 311.072 259.51 311.296 259.016C311.443 258.688 311.636 257.851 311.825 257.627C312.616 256.709 314.394 257.071 315.448 257.067C317.045 257.064 318.04 257.175 319.275 258.306C320.564 259.483 320.618 261.524 321.111 263.082C321.517 264.352 321.729 265.563 322.261 266.786C322.828 268.09 323.723 269.101 324.503 270.259C325.768 272.134 326.382 274.271 327.748 276.061C328.488 277.038 328.924 278.033 329.881 278.824C330.765 279.553 331.922 280.19 332.956 280.676C334.665 281.482 336.567 281.555 338.369 282.053C340.337 282.597 342.366 282.929 344.28 283.662C349.631 285.707 353.331 291.02 357.544 294.669C360.187 296.957 362.857 299.176 365.469 301.502C366.831 302.718 368.344 303.617 369.763 304.724C371.037 305.719 372.287 306.881 373.714 307.656C375.528 308.644 377.696 309.346 379.667 309.936C380.624 310.226 381.515 310.141 382.445 310.38C383.425 310.631 384.617 311.163 385.81 311.225C388.46 311.36 390.663 311.121 393.225 312.07C397.654 313.714 401.493 316.97 405.07 319.968C406.586 321.241 408.492 322.422 409.738 323.934C410.849 325.284 411.887 325.836 413.434 326.596C414.503 327.121 415.61 327.696 416.752 328.051C417.574 328.305 418.354 328.251 419.199 328.409C420.121 328.583 420.927 329.154 421.861 329.247H195.608C194.613 329.247 193.736 328.416 193.503 327.449C193.25 326.403 192.921 325.376 192.992 324.293C193.135 322.098 194.029 319.876 195.136 318.002C195.137 318.001 195.137 318.001 195.137 318.002Z" fill="url(#paint2_linear_199_6492)"/>
<path d="M110.658 268.641C110.658 268.641 119.068 266.147 119.517 265.974C119.966 265.801 120.209 265.021 120.2 264.434C120.191 263.845 120.071 263.419 120.25 263.381C120.429 263.343 120.552 263.891 120.573 264.417C120.593 264.942 120.394 265.27 120.394 265.27C120.394 265.27 120.728 264.959 120.799 264.434C120.89 263.777 120.605 263.05 120.684 262.95C120.763 262.85 121.224 263.44 121.265 264.249C121.294 264.839 121.139 265.185 121.139 265.185C121.139 265.185 121.465 264.912 121.529 264.343C121.591 263.774 121.374 263.337 121.517 263.155C121.661 262.97 121.984 263.839 121.913 264.51C121.852 265.109 121.277 265.813 121.277 265.813C121.277 265.813 121.726 265.531 122.025 265.458C122.321 265.385 122.57 265.696 122.57 265.696C122.57 265.696 122.045 265.866 121.638 266.215C121.23 266.567 119.948 266.435 119.76 266.476C119.572 266.517 114.949 268.899 114.949 268.899C114.949 268.899 110.93 268.919 110.658 268.638V268.641Z" fill="#68004D"/>
<path d="M102.262 267.3C102.262 267.3 93.5231 266.555 93.0479 266.476C92.5727 266.4 92.1796 265.684 92.0681 265.106C91.9596 264.528 91.9889 264.135 91.807 264.132C91.6251 264.132 91.6134 264.642 91.6985 265.165C91.7836 265.687 92.0476 265.965 92.0476 265.965C92.0476 265.965 91.6574 265.728 91.4814 265.229C91.2614 264.604 91.3905 263.836 91.2937 263.754C91.1969 263.671 90.8624 264.34 90.9856 265.144C91.0766 265.728 91.2995 266.036 91.2995 266.036C91.2995 266.036 90.924 265.833 90.748 265.291C90.572 264.748 90.6982 264.276 90.5222 264.123C90.3461 263.971 90.2552 264.842 90.3696 265.434C90.4958 266.094 91.3435 266.737 91.3435 266.737C91.3435 266.737 90.795 266.493 90.487 266.479C90.1819 266.467 90 266.822 90 266.822C90 266.822 90.5486 266.881 91.0179 267.142C91.4873 267.403 92.7193 267.016 92.91 267.019C93.1007 267.019 98.1111 268.424 98.1111 268.424C98.1111 268.424 102.051 267.632 102.265 267.303L102.262 267.3Z" fill="#68004D"/>
<path d="M99.44 250.87C99.4341 250.911 99.4282 250.949 99.4224 250.99C99.3461 251.553 99.3314 252.172 99.4224 252.838C99.4517 253.061 99.4927 253.281 99.5456 253.495C99.6688 254.017 99.8506 254.504 100.056 254.944C100.781 256.484 101.816 257.473 101.816 257.473C101.816 257.473 103.383 257.147 104.386 255.645C104.99 254.742 104.882 253.789 104.864 253.662C104.864 253.654 104.864 253.648 104.864 253.648C104.82 253.598 104.776 253.545 104.735 253.495C104.565 253.299 104.406 253.108 104.257 252.917C104.084 252.703 103.922 252.495 103.77 252.292C103.3 251.668 102.928 251.107 102.629 250.606C102.497 250.383 102.376 250.172 102.274 249.972C101.414 248.365 101.37 247.567 101.065 247.678C100.772 247.784 100.091 248.576 99.6893 249.834C99.5896 250.151 99.5045 250.497 99.4487 250.873L99.44 250.87Z" fill="#FF7F00"/>
<path d="M99.5455 253.495C99.6687 254.017 99.8506 254.504 100.056 254.944C100.355 254.944 101.068 254.88 102.227 254.37C103.805 253.668 104.251 252.917 104.251 252.917C104.078 252.703 103.916 252.495 103.764 252.293C103.444 252.557 102.693 253.126 101.752 253.404C100.866 253.668 99.9826 253.575 99.5426 253.495H99.5455Z" fill="#FFF594"/>
<path d="M99.4399 250.87C99.7773 251.002 100.285 251.131 100.933 251.102C101.728 251.066 102.309 250.799 102.626 250.603C102.494 250.38 102.373 250.169 102.271 249.969C102.001 250.04 101.602 250.101 101.033 250.089C100.429 250.078 99.9885 249.96 99.6834 249.828C99.5837 250.145 99.4986 250.491 99.4429 250.867L99.4399 250.87Z" fill="#FFF594"/>
<path opacity="0.13" d="M99.4224 250.993C99.3461 251.556 99.3314 252.175 99.4224 252.841C99.7744 255.528 101.816 257.473 101.816 257.473C101.816 257.473 103.383 257.147 104.386 255.645C104.99 254.742 104.882 253.789 104.864 253.662L104.732 253.495C104.732 253.495 102.306 253.507 100.769 252.43C100.065 251.937 99.6541 251.415 99.4253 250.993H99.4224Z" fill="#590800"/>
<path opacity="0.67" d="M103.849 253.554C103.969 253.651 104.131 253.492 104.031 253.369C103.614 252.85 103.06 252.111 102.602 251.325C102.189 250.618 101.857 249.952 101.625 249.45C101.558 249.306 101.344 249.383 101.379 249.535C101.511 250.107 101.763 250.887 102.253 251.738C102.714 252.545 103.347 253.152 103.849 253.551V253.554Z" fill="white"/>
<path d="M109.279 287.685L108.302 288.034C108.302 288.034 107.859 285.368 107.266 284.822C106.944 284.526 104.412 283.731 102.013 283.094C100.012 282.563 98.1052 282.144 97.6534 282.22C96.6648 282.384 95.7261 283.904 95.7261 283.904L94.8989 283.649C94.8989 283.649 94.8314 279.228 96.1574 273.51C96.791 270.788 97.9849 266.675 99.126 263.02C100.373 259.001 101.558 255.528 101.851 255.047C102.35 254.232 108.839 252.656 111.585 252.735C111.91 252.744 112.18 252.774 112.385 252.835C114.319 253.393 117.009 257.696 117.305 258.837C117.607 259.981 111.485 279.715 110.848 282.595C110.215 285.476 109.282 287.682 109.282 287.682L109.279 287.685Z" fill="url(#paint3_linear_199_6492)"/>
<path d="M98.0788 275.546C97.9116 276.605 97.4305 277.409 97.0081 277.342C96.5828 277.274 96.3774 276.362 96.5446 275.303C96.7118 274.244 97.1929 273.44 97.6153 273.507C98.0407 273.575 98.246 274.487 98.0788 275.546Z" fill="#68004D"/>
<path d="M98.249 275.576C98.0818 276.635 97.6007 277.438 97.1782 277.371C96.7529 277.304 96.5475 276.391 96.7148 275.332C96.882 274.273 97.363 273.469 97.7855 273.537C98.2108 273.604 98.4162 274.517 98.249 275.576Z" fill="#FF7F00"/>
<path d="M98.0905 271.249C98.0172 271.712 97.8001 272.061 97.6065 272.032C97.4129 272.003 97.3161 271.601 97.3895 271.14C97.4628 270.677 97.6799 270.328 97.8735 270.357C98.0671 270.386 98.1639 270.788 98.0905 271.249Z" fill="#68004D"/>
<path d="M98.167 271.261C98.0937 271.724 97.8766 272.073 97.683 272.044C97.4894 272.014 97.3926 271.613 97.4659 271.152C97.5392 270.689 97.7563 270.339 97.9499 270.369C98.1435 270.398 98.2403 270.8 98.167 271.261Z" fill="#FF7F00"/>
<path d="M99.613 270.175C99.5397 270.638 99.3226 270.988 99.129 270.958C98.9354 270.929 98.8386 270.527 98.9119 270.066C98.9853 269.603 99.2023 269.254 99.3959 269.283C99.5895 269.313 99.6863 269.714 99.613 270.175Z" fill="#68004D"/>
<path d="M99.6924 270.187C99.619 270.65 99.402 270.999 99.2084 270.97C99.0147 270.941 98.9179 270.539 98.9913 270.078C99.0646 269.615 99.2817 269.266 99.4753 269.295C99.6689 269.324 99.7657 269.726 99.6924 270.187Z" fill="#FF7F00"/>
<path d="M100.103 264.49C100.035 264.909 99.8418 265.226 99.6658 265.2C99.4898 265.173 99.4018 264.81 99.4693 264.39C99.5367 263.971 99.7303 263.654 99.9064 263.68C100.082 263.707 100.17 264.07 100.103 264.49Z" fill="#68004D"/>
<path d="M100.173 264.502C100.106 264.921 99.9124 265.238 99.7364 265.212C99.5604 265.185 99.4724 264.821 99.5399 264.402C99.6073 263.982 99.8009 263.666 99.977 263.692C100.153 263.718 100.241 264.082 100.173 264.502Z" fill="#FF7F00"/>
<path d="M99.2727 266.332C99.2405 266.538 99.1466 266.69 99.0586 266.678C98.9735 266.664 98.9295 266.488 98.9618 266.285C98.994 266.08 99.0879 265.927 99.1759 265.939C99.261 265.954 99.305 266.13 99.2727 266.332Z" fill="#68004D"/>
<path d="M99.308 266.338C99.2757 266.543 99.1789 266.696 99.0939 266.684C99.0088 266.672 98.9648 266.494 98.997 266.291C99.0293 266.086 99.1232 265.933 99.2112 265.945C99.2963 265.96 99.3403 266.136 99.308 266.338Z" fill="#FF7F00"/>
<path d="M99.0703 272.894C99.0117 273.258 98.8415 273.537 98.689 273.51C98.5364 273.487 98.4602 273.17 98.5159 272.806C98.5746 272.443 98.7447 272.164 98.8972 272.19C99.0498 272.214 99.1261 272.531 99.0703 272.894Z" fill="#68004D"/>
<path d="M99.1321 272.903C99.0734 273.267 98.9032 273.546 98.7507 273.519C98.5982 273.496 98.5219 273.179 98.5776 272.815C98.6363 272.451 98.8064 272.173 98.959 272.199C99.1115 272.223 99.1878 272.539 99.1321 272.903Z" fill="#FF7F00"/>
<path d="M113.692 263.045C114.532 260.322 113.612 257.621 111.638 257.012C109.664 256.404 107.383 258.118 106.544 260.842C105.704 263.565 106.624 266.266 108.598 266.874C110.572 267.483 112.853 265.768 113.692 263.045Z" fill="#68004D"/>
<path d="M106.034 261.16C105.407 263.941 103.641 265.913 102.086 265.561C100.531 265.211 99.7802 262.671 100.408 259.893C101.036 257.112 102.802 255.141 104.356 255.493C105.911 255.845 106.662 258.382 106.034 261.16Z" fill="#68004D"/>
<path d="M106.944 261.257C106.348 263.704 107.187 265.948 108.818 266.274C110.449 266.596 112.256 264.877 112.852 262.431C113.447 259.984 112.608 257.74 110.977 257.414C109.346 257.092 107.539 258.811 106.944 261.257Z" fill="#CAE7EF"/>
<path d="M112.516 262.588C113.162 260.275 112.452 258.056 110.929 257.63C109.406 257.205 107.647 258.735 107.001 261.047C106.355 263.36 107.066 265.579 108.589 266.005C110.112 266.43 111.87 264.9 112.516 262.588Z" fill="white"/>
<path d="M108.161 261.515C107.786 263.053 108.314 264.461 109.338 264.666C110.361 264.871 111.497 263.789 111.869 262.252C112.245 260.715 111.717 259.307 110.693 259.101C109.669 258.899 108.534 259.978 108.161 261.515Z" fill="url(#paint4_linear_199_6492)"/>
<path d="M108.68 261.65C108.413 262.75 108.789 263.76 109.522 263.903C110.256 264.05 111.065 263.276 111.335 262.176C111.602 261.075 111.227 260.066 110.493 259.923C109.76 259.776 108.95 260.55 108.68 261.65Z" fill="#590800"/>
<path d="M110.59 261.29C110.435 261.926 110.778 262.536 111.356 262.654C111.934 262.768 112.529 262.346 112.685 261.706C112.84 261.067 112.497 260.459 111.919 260.342C111.341 260.228 110.746 260.65 110.59 261.29Z" fill="white"/>
<path d="M109.593 262.375C109.537 262.61 109.66 262.833 109.874 262.874C110.086 262.915 110.303 262.759 110.361 262.527C110.42 262.296 110.294 262.07 110.08 262.029C109.869 261.988 109.651 262.143 109.593 262.375Z" fill="white"/>
<path d="M100.98 260.615C100.666 262.967 101.514 264.912 102.878 264.953C104.239 264.994 105.597 263.123 105.911 260.767C106.225 258.415 105.377 256.47 104.013 256.429C102.652 256.388 101.294 258.259 100.98 260.615Z" fill="#CAE7EF"/>
<path d="M100.98 260.615C100.681 262.856 101.49 264.707 102.787 264.748C104.084 264.789 105.377 263.002 105.677 260.761C105.976 258.52 105.166 256.669 103.87 256.628C102.573 256.587 101.279 258.373 100.98 260.615Z" fill="white"/>
<path d="M105.637 261.101C105.907 259.63 105.449 258.313 104.614 258.16C103.779 258.007 102.883 259.075 102.613 260.546C102.343 262.017 102.801 263.333 103.636 263.486C104.471 263.64 105.367 262.572 105.637 261.101Z" fill="url(#paint5_linear_199_6492)"/>
<path d="M103.016 260.826C102.875 261.885 103.256 262.756 103.87 262.777C104.483 262.794 105.093 261.952 105.234 260.896C105.374 259.84 104.993 258.966 104.38 258.945C103.767 258.925 103.157 259.77 103.016 260.826Z" fill="#590800"/>
<path d="M103.978 260.377C103.896 260.99 104.222 261.501 104.706 261.515C105.19 261.53 105.647 261.046 105.729 260.433C105.811 259.82 105.486 259.309 105.002 259.295C104.518 259.28 104.06 259.764 103.978 260.377Z" fill="white"/>
<path d="M103.209 261.354C103.18 261.58 103.297 261.765 103.476 261.77C103.652 261.776 103.82 261.597 103.852 261.374C103.881 261.149 103.764 260.964 103.585 260.958C103.409 260.952 103.242 261.131 103.209 261.354Z" fill="white"/>
<path d="M109.279 287.685L108.302 288.034C108.302 288.034 107.859 285.368 107.266 284.822C106.677 284.279 98.6479 282.059 97.6534 282.22C96.6648 282.384 95.7261 283.904 95.7261 283.904C95.7261 283.904 96.703 281.671 97.5361 281.313C98.3692 280.956 105.894 282.95 107.419 281.756C108.944 280.563 114.093 267.614 114.844 262.48C115.592 257.347 111.585 252.738 111.585 252.738C111.91 252.747 112.18 252.777 112.385 252.838C114.319 253.395 117.009 257.699 117.305 258.84C117.607 259.984 111.485 279.718 110.848 282.598C110.215 285.479 109.282 287.685 109.282 287.685H109.279Z" fill="#68004D"/>
<path d="M122.369 257.673C122.351 257.708 122.333 257.746 122.316 257.784C122.064 258.294 121.723 258.814 121.277 259.312C121.125 259.48 120.969 259.638 120.808 259.785C120.412 260.145 119.987 260.448 119.57 260.694C118.106 261.559 116.692 261.791 116.692 261.791C116.692 261.791 115.581 260.641 115.598 258.834C115.61 257.749 116.235 257.021 116.32 256.924C116.326 256.916 116.329 256.913 116.329 256.913C116.393 256.895 116.458 256.878 116.522 256.86C116.772 256.792 117.012 256.722 117.241 256.652C117.505 256.572 117.754 256.49 117.995 256.411C118.734 256.159 119.356 255.904 119.887 255.657C120.122 255.549 120.339 255.44 120.538 255.335C122.152 254.49 122.641 253.856 122.829 254.12C123.011 254.372 123.128 255.411 122.753 256.678C122.656 256.998 122.533 257.329 122.369 257.673Z" fill="#FF7F00"/>
<path d="M120.802 259.785C120.406 260.145 119.98 260.448 119.564 260.694C119.314 260.527 118.763 260.072 118.094 258.996C117.182 257.529 117.237 256.655 117.237 256.655C117.501 256.575 117.751 256.493 117.991 256.414C118.106 256.813 118.408 257.705 119.027 258.468C119.611 259.186 120.394 259.603 120.802 259.788V259.785Z" fill="#FFF594"/>
<path d="M122.368 257.673C122.016 257.59 121.523 257.411 121.004 257.024C120.367 256.546 120.039 256 119.886 255.66C120.121 255.552 120.338 255.443 120.538 255.338C120.719 255.549 121.016 255.824 121.494 256.135C122.001 256.467 122.43 256.617 122.755 256.681C122.658 257.001 122.535 257.332 122.371 257.676L122.368 257.673Z" fill="#FFF594"/>
<path opacity="0.13" d="M122.312 257.784C122.06 258.294 121.72 258.814 121.274 259.312C119.47 261.334 116.689 261.791 116.689 261.791C116.689 261.791 115.577 260.641 115.595 258.834C115.606 257.749 116.231 257.021 116.316 256.925L116.519 256.863C116.519 256.863 118.516 258.239 120.394 258.215C121.253 258.204 121.887 258.004 122.315 257.784H122.312Z" fill="#590800"/>
<path opacity="0.67" d="M117.214 257.411C117.058 257.423 117.017 257.203 117.167 257.156C117.804 256.963 118.678 256.663 119.499 256.27C120.238 255.918 120.887 255.555 121.362 255.273C121.497 255.194 121.632 255.376 121.517 255.481C121.086 255.88 120.438 256.382 119.555 256.81C118.719 257.218 117.853 257.362 117.217 257.411H117.214Z" fill="white"/>
<path d="M109.279 287.685C109.279 287.685 112.421 286.605 112.74 286.822C113.06 287.042 110.737 288.134 110.737 288.134C110.737 288.134 113.327 287.878 113.521 288.195C113.749 288.568 110.831 288.891 110.831 288.891C110.831 288.891 112.84 289.647 112.561 290.011C112.35 290.29 109.053 288.779 108.675 288.471C108.352 288.207 108.299 288.034 108.299 288.034L109.276 287.685H109.279Z" fill="#68004D"/>
<path d="M94.9019 283.651C94.9019 283.651 91.4257 282.616 91.414 283.009C91.4022 283.402 93.9456 284.03 93.9456 284.03C93.9456 284.03 91.7806 284.326 91.7454 284.675C91.7102 285.027 94.3797 284.834 94.3797 284.834C94.3797 284.834 93.2151 286.321 93.6111 286.514C94.0071 286.708 95.732 283.904 95.732 283.904L94.9048 283.648L94.9019 283.651Z" fill="#68004D"/>
<path d="M111.065 252.744C111.065 252.744 109.338 248.526 109.778 248.347C110.218 248.168 111.64 252.392 111.64 252.392C111.64 252.392 111.86 247.059 112.532 247C113.201 246.942 112.635 252.533 112.635 252.533C112.635 252.533 114.756 247.687 116.029 247.936C117.302 248.186 113.444 252.492 113.444 252.492C113.444 252.492 115.944 251.888 116.46 252.41C116.973 252.929 113.535 253.507 113.535 253.507L111.068 252.747L111.065 252.744Z" fill="#3F0300"/>
<path d="M108.346 277.597C108.053 278.216 108.017 278.814 108.267 278.931C108.516 279.049 108.953 278.641 109.247 278.022C109.54 277.403 109.575 276.805 109.326 276.687C109.076 276.57 108.639 276.978 108.346 277.597Z" fill="#68004D"/>
<path d="M108.243 277.55C107.95 278.169 107.915 278.767 108.161 278.885C108.411 279.002 108.848 278.594 109.141 277.975C109.434 277.356 109.47 276.758 109.223 276.64C108.977 276.523 108.537 276.931 108.243 277.55Z" fill="#FF7F00"/>
<path d="M108.103 275.408C107.956 275.719 107.938 276.021 108.062 276.08C108.188 276.139 108.408 275.933 108.554 275.622C108.701 275.311 108.719 275.009 108.595 274.951C108.469 274.892 108.249 275.097 108.103 275.408Z" fill="#68004D"/>
<path d="M108.053 275.385C107.906 275.696 107.888 275.998 108.012 276.057C108.138 276.115 108.358 275.91 108.504 275.599C108.651 275.288 108.669 274.986 108.545 274.927C108.419 274.868 108.199 275.074 108.053 275.385Z" fill="#FF7F00"/>
<path d="M109.525 274.607C109.293 275.232 109.308 275.816 109.558 275.91C109.807 276.004 110.2 275.573 110.432 274.945C110.663 274.317 110.649 273.736 110.399 273.642C110.15 273.548 109.757 273.98 109.525 274.607Z" fill="#68004D"/>
<path d="M109.423 274.572C109.191 275.197 109.206 275.781 109.455 275.875C109.704 275.969 110.097 275.537 110.329 274.91C110.561 274.282 110.546 273.701 110.297 273.607C110.047 273.513 109.654 273.944 109.423 274.572Z" fill="#FF7F00"/>
<path d="M111.183 271.31C111.068 271.618 111.074 271.906 111.197 271.953C111.321 272 111.514 271.786 111.629 271.478C111.743 271.17 111.737 270.882 111.614 270.835C111.491 270.788 111.297 271.002 111.183 271.31Z" fill="#68004D"/>
<path d="M111.133 271.29C111.018 271.598 111.024 271.885 111.147 271.932C111.271 271.979 111.464 271.765 111.579 271.457C111.693 271.149 111.687 270.861 111.564 270.815C111.441 270.768 111.247 270.982 111.133 271.29Z" fill="#FF7F00"/>
<path d="M112.488 267.72C112.374 268.028 112.38 268.315 112.503 268.362C112.626 268.409 112.82 268.195 112.934 267.887C113.048 267.579 113.043 267.291 112.919 267.244C112.796 267.198 112.603 267.412 112.488 267.72Z" fill="#68004D"/>
<path d="M112.438 267.702C112.324 268.01 112.33 268.298 112.453 268.344C112.576 268.391 112.77 268.177 112.884 267.869C112.999 267.561 112.993 267.274 112.869 267.227C112.746 267.18 112.553 267.394 112.438 267.702Z" fill="#FF7F00"/>
<path d="M111.549 267.37C111.461 267.605 111.467 267.825 111.561 267.86C111.655 267.896 111.802 267.734 111.89 267.499C111.978 267.265 111.972 267.045 111.878 267.01C111.784 266.974 111.637 267.136 111.549 267.37Z" fill="#68004D"/>
<path d="M111.511 267.356C111.423 267.591 111.429 267.811 111.523 267.846C111.617 267.881 111.764 267.72 111.852 267.485C111.94 267.25 111.934 267.03 111.84 266.995C111.746 266.96 111.599 267.121 111.511 267.356Z" fill="#FF7F00"/>
<path d="M115.055 258.872C115.055 258.872 114.219 257.857 113.186 257.329C112.154 256.801 110.546 256.191 110.546 256.191L111.218 256.103C111.218 256.103 111.018 255.965 110.834 255.56C110.693 255.246 110.602 254.325 110.602 254.325C110.602 254.325 111.728 254.847 112.99 255.464C114.747 256.323 115.31 257.69 115.31 257.69L114.94 257.555C114.94 257.555 115.146 258.412 115.061 258.872H115.055Z" fill="#3F0300"/>
<path opacity="0.61" d="M114.876 257.229C114.876 257.229 114.509 256.528 113.529 255.898C112.55 255.267 111.441 254.906 111.441 254.906L112.057 255.414L111.033 254.886C111.033 254.886 111.268 255.499 112.5 255.98C114.146 256.625 114.676 257.593 114.676 257.593L114.562 257.024L114.873 257.227L114.876 257.229Z" fill="#8C130D"/>
<path d="M103.019 255.161C103.019 255.161 103.922 254.833 104.726 254.859C105.823 254.894 106.686 255.185 106.686 255.185L106.351 254.827C106.351 254.827 106.521 254.812 106.8 254.601C107.014 254.437 107.466 253.809 107.466 253.809C107.466 253.809 107.14 253.709 105.647 253.595C104.031 253.472 103.394 254.199 103.394 254.199L103.658 254.264C103.658 254.264 103.171 254.795 103.019 255.164V255.161Z" fill="#3F0300"/>
<path opacity="0.61" d="M103.814 254.102C103.814 254.102 104.321 253.756 105.14 253.724C105.958 253.692 106.873 253.888 106.873 253.888L106.164 254.014L106.958 254.079C106.958 254.079 106.48 254.264 105.671 254.232C104.861 254.199 103.764 254.452 103.764 254.452L104.075 254.088L103.814 254.1V254.102Z" fill="#8C130D"/>
<path opacity="0.24" d="M101.643 266.153C101.643 266.153 101.763 268.896 103.479 269.987C105.195 271.079 107.073 270.219 107.073 270.219C107.073 270.219 104.799 270.718 103.397 269.483C102.016 268.265 101.64 266.153 101.64 266.153H101.643Z" fill="white"/>
<path d="M111.089 268.462L110.006 269.981L109.956 271.439L108.293 270.803L108.302 271.272C108.302 271.272 107.041 271.824 105.498 271.753C103.966 271.686 102.479 270.938 102.479 270.938L101.464 268.881L100.185 267.599L101.15 265.461C101.15 265.461 101.276 270.163 104.139 270.844C107.536 271.648 111.092 268.459 111.092 268.459L111.089 268.462Z" fill="#68004D"/>
<path d="M101.13 266.505L100.024 267.787L101.397 267.825L101.13 266.505Z" fill="white"/>
<path d="M101.664 268.468L100.968 269.213L101.954 269.28L101.664 268.468Z" fill="white"/>
<path d="M102.696 270.16L102.385 271.166L103.494 270.785L102.696 270.16Z" fill="white"/>
<path d="M104.791 271.114L105.647 272.082L106.064 271.199L104.791 271.114Z" fill="white"/>
<path d="M108.657 270.116L109.956 271.439L110.03 269.248L108.657 270.116Z" fill="white"/>
<path d="M107.149 270.791L108.302 271.272L108.284 270.333L107.149 270.791Z" fill="white"/>
<path d="M101.262 265.443C101.262 265.443 101.303 269.891 104.227 270.721C107.155 271.551 111.083 268.35 111.083 268.35L111.186 268.412C111.186 268.412 107.313 272.214 104.087 271.219C100.86 270.225 101.118 265.564 101.118 265.564L101.265 265.443H101.262Z" fill="#590800"/>
<path d="M110.059 267.447C110.059 267.447 110.59 267.84 111.048 268.582C111.505 269.327 111.555 269.908 111.555 269.908C111.555 269.908 111.705 268.893 111.338 268.189C110.974 267.485 110.059 267.444 110.059 267.444V267.447Z" fill="#68004D"/>
<path d="M102.136 265.159C102.136 265.159 101.52 265.417 101.077 265.69C100.634 265.962 100.071 266.813 100.071 266.813C100.071 266.813 100.235 265.924 100.757 265.461C101.35 264.933 102.136 265.159 102.136 265.159Z" fill="#68004D"/>
<path d="M-8.10242 332.245C-8.10242 332.242 -8.10096 332.239 -8.09852 332.238C-5.96839 330.762 -3.80984 329.409 -1.63234 328.009C0.00257492 326.959 1.6533 326.001 3.1807 324.793C3.81632 324.29 4.47725 323.835 5.05595 323.262C5.5556 322.766 5.75798 322.26 6.12165 321.703C6.66241 320.878 7.37392 320.249 8.24039 319.904C9.37882 319.452 10.4414 318.917 11.5007 318.358C12.4684 317.845 13.4266 316.919 14.2267 316.185C15.1722 315.322 16.1462 314.395 17.1518 313.595C17.955 312.953 18.5938 312.112 19.4097 311.499C20.371 310.771 21.4936 310.319 22.4613 309.595C23.6092 308.735 24.6433 307.951 25.9145 307.296C26.9802 306.746 27.8246 305.788 28.8966 305.202C29.3962 304.931 29.7093 304.564 30.3038 304.747C30.8952 304.931 31.3537 305.506 31.9071 305.667C32.2645 305.772 33.3302 305.898 33.6717 305.743C34.1365 305.535 34.4275 304.086 34.6267 303.577C34.8607 302.973 34.9493 302.344 35.139 301.8C35.2623 301.446 35.3762 301.155 35.5564 300.816C35.724 300.5 35.8474 300.08 36.0181 299.795C36.5304 298.944 37.7922 298.381 38.5448 297.746C39.0729 297.3 39.4176 296.898 39.7655 296.376C40.0279 295.981 40.5465 295.599 40.8881 295.282C41.9253 294.321 43.0416 293.518 44.199 292.718C44.9422 292.202 45.7865 291.902 46.498 291.348C46.8996 291.035 47.2886 290.7 47.7092 290.409C48.2721 290.02 48.8033 289.6 49.3504 289.182C50.2833 288.471 51.1245 287.74 51.9467 286.909C52.9871 285.855 54.3247 285.289 55.4347 284.334C56.0166 283.832 56.649 283.398 57.1929 282.848C57.7084 282.326 58.129 281.732 58.6698 281.239C59.8398 280.166 61.1237 279.142 62.0313 277.811C62.3159 277.393 62.4614 277.08 62.844 276.726C63.195 276.4 63.5112 275.999 63.818 275.629C64.1342 275.246 64.3904 274.822 64.7003 274.436C65.1873 273.826 65.8703 273.428 66.3668 272.827C66.8127 272.286 67.2839 271.843 67.7456 271.328C68.1662 270.86 68.416 270.253 68.8303 269.781C69.1686 269.396 69.6461 269.212 70.0161 268.864C70.2881 268.611 70.4493 268.286 70.6992 268.02C71.3949 267.283 72.2645 266.727 73.1405 266.23C74.1398 265.661 74.8987 264.994 76.053 265C77.5962 265.006 79.0445 265.971 80.4928 266.474C81.3593 266.774 82.2637 267.131 83.0701 267.571C84.041 268.096 84.6797 268.596 85.4608 269.383C86.0079 269.936 86.6309 270.3 87.1811 270.8C87.7409 271.309 88.6548 271.518 89.3283 271.888C89.8849 272.194 90.4857 272.599 90.998 272.975C91.3174 273.209 91.5356 273.513 91.8993 273.706C92.4179 273.978 92.7784 274.117 93.2022 274.538C95.5676 276.884 98.7489 278.086 101.702 279.363C102.155 279.559 102.806 279.727 103.192 280.008C103.666 280.353 104.008 280.938 104.406 281.359C105.001 281.988 105.396 282.763 105.924 283.439C106.534 284.221 106.942 284.145 107.689 283.566C108.005 283.322 108.41 282.892 108.792 282.798C109.077 282.725 109.349 282.813 109.637 282.731C109.912 282.652 109.975 282.488 110.336 282.548C110.658 282.601 111.088 282.854 111.351 283.047C112.176 283.655 112.884 284.622 113.488 285.425C113.899 285.969 114.209 286.599 114.655 287.114C115.089 287.617 115.661 288.123 116.018 288.721C116.752 289.944 117.533 291.178 118.444 292.376C119.288 293.489 120.218 294.508 121.034 295.633C121.555 296.354 122.362 296.835 122.969 297.474C123.507 298.04 123.791 298.799 124.275 299.406C125.11 300.453 126.074 301.591 127.014 302.439C127.403 302.79 127.747 303.21 128.139 303.552C128.566 303.925 129.158 304.086 129.613 304.431C130.799 305.326 131.852 306.195 133.171 306.916C135.46 308.166 138.022 309.244 139.799 311.217C140.558 312.058 141.269 312.956 141.974 313.845C142.749 314.819 143.255 315.926 144.239 316.691C144.881 317.191 145.393 317.868 146.035 318.377C146.743 318.936 147.452 319.487 148.094 320.148C148.935 321.02 149.757 321.912 150.674 322.725C151.243 323.231 151.857 323.693 152.54 324.031C153.586 324.549 154.162 325.312 155.044 326.048C155.784 326.665 156.654 327.136 157.445 327.69C158.447 328.392 159.459 329.094 160.515 329.714C161.685 330.397 162.862 330.887 164.161 331.244C165.094 331.5 165.885 331.902 166.767 332.297C168.845 333.23 170.821 334.144 172.282 335.981C172.649 336.44 173.044 336.939 173.36 337.43C173.987 338.4 174.704 339.238 175.432 340.165C175.982 340.864 176.894 341.912 177.784 342.423C177.853 342.463 177.82 342.6 177.74 342.6H-16.3624C-15.6266 342.6 -17.0496 343.535 -17.4154 342.896C-17.8615 342.117 -18.125 341.276 -17.9404 340.295C-17.7253 339.159 -16.8209 338.657 -15.9197 338.084C-14.6263 337.262 -13.6871 336.101 -12.4854 335.165C-11.0984 334.088 -9.54724 333.251 -8.10632 332.252C-8.10388 332.251 -8.10242 332.248 -8.10242 332.245Z" fill="#5F9EFD"/>
<path d="M-8.65015 332.245C-8.65015 332.242 -8.64869 332.239 -8.64625 332.238C-6.51612 330.762 -4.35757 329.409 -2.18007 328.009C-0.545156 326.959 1.10557 326.001 2.63297 324.793C3.26859 324.29 3.92952 323.835 4.50822 323.262C5.00787 322.766 5.21025 322.26 5.57392 321.703C6.11467 320.878 6.82619 320.249 7.69266 319.904C8.83109 319.452 9.89363 318.917 10.953 318.358C11.9207 317.845 12.8789 316.919 13.6789 316.185C14.6245 315.322 15.5984 314.395 16.6041 313.595C17.4073 312.953 18.0461 312.112 18.8619 311.499C19.8233 310.771 20.9459 310.319 21.9136 309.595C23.0615 308.735 24.0956 307.951 25.3668 307.296C26.4325 306.746 27.2768 305.788 28.3489 305.202C28.8485 304.931 29.1616 304.564 29.7561 304.747C30.3475 304.931 30.806 305.506 31.3594 305.667C31.7167 305.772 32.7824 305.898 33.1239 305.743C33.5888 305.535 33.8797 304.086 34.079 303.577C34.313 302.973 34.4015 302.344 34.5913 301.8C34.7146 301.446 34.8284 301.155 35.0087 300.816C35.1763 300.5 35.2996 300.08 35.4704 299.795C35.9827 298.944 37.2444 298.381 37.9971 297.746C38.5252 297.3 38.8699 296.898 39.2177 296.376C39.4802 295.981 39.9988 295.599 40.3403 295.282C41.3776 294.321 42.4939 293.518 43.6513 292.718C44.3944 292.202 45.2388 291.902 45.9503 291.348C46.3519 291.035 46.7409 290.7 47.1614 290.409C47.7243 290.02 48.2556 289.6 48.8027 289.182C49.7356 288.471 50.5768 287.74 51.3989 286.909C52.4394 285.855 53.777 285.289 54.887 284.334C55.4688 283.832 56.1013 283.398 56.6452 282.848C57.1607 282.326 57.5813 281.732 58.122 281.239C59.2921 280.166 60.576 279.142 61.4836 277.811C61.7682 277.393 61.9136 277.08 62.2963 276.726C62.6473 276.4 62.9635 275.999 63.2702 275.629C63.5865 275.246 63.8426 274.822 64.1525 274.436C64.6395 273.826 65.3226 273.428 65.8191 272.827C66.265 272.286 66.7361 271.843 67.1978 271.328C67.6184 270.86 67.8683 270.253 68.2825 269.781C68.6209 269.396 69.0984 269.212 69.4684 268.864C69.7403 268.611 69.9016 268.286 70.1514 268.02C70.8471 267.283 71.7168 266.727 72.5927 266.23C73.592 265.661 74.351 264.994 75.5052 265C77.0484 265.006 78.4968 265.971 79.9451 266.474C80.8116 266.774 81.716 267.131 82.5224 267.571C83.4932 268.096 84.132 268.596 84.9131 269.383C85.4602 269.936 86.0832 270.3 86.6334 270.8C87.1931 271.309 88.107 271.518 88.7806 271.888C89.3372 272.194 89.938 272.599 90.4503 272.975C90.7697 273.209 90.9879 273.513 91.3516 273.706C91.8702 273.978 92.2307 274.117 92.6544 274.538C95.0198 276.884 98.2011 278.086 101.155 279.363C101.607 279.559 102.258 279.727 102.644 280.008C103.119 280.353 103.46 280.938 103.859 281.359C104.453 281.988 104.848 282.763 105.376 283.439C105.987 284.221 106.395 284.145 107.141 283.566C107.457 283.322 107.862 282.892 108.245 282.798C108.529 282.725 108.801 282.813 109.089 282.731C109.364 282.652 109.427 282.488 109.788 282.548C110.11 282.601 110.54 282.854 110.803 283.047C111.628 283.655 112.337 284.622 112.941 285.425C113.352 285.969 113.662 286.599 114.108 287.114C114.541 287.617 115.113 288.123 115.471 288.721C116.204 289.944 116.985 291.178 117.896 292.376C118.74 293.489 119.67 294.508 120.486 295.633C121.008 296.354 121.814 296.835 122.421 297.474C122.959 298.04 123.243 298.799 123.727 299.406C124.562 300.453 125.527 301.591 126.466 302.439C126.855 302.79 127.2 303.21 127.592 303.552C128.019 303.925 128.61 304.086 129.065 304.431C130.251 305.326 131.304 306.195 132.623 306.916C134.912 308.166 137.474 309.244 139.251 311.217C140.01 312.058 140.722 312.956 141.427 313.845C142.202 314.819 142.707 315.926 143.691 316.691C144.333 317.191 144.845 317.868 145.487 318.377C146.195 318.936 146.904 319.487 147.546 320.148C148.387 321.02 149.209 321.912 150.126 322.725C150.695 323.231 151.309 323.693 151.992 324.031C153.039 324.549 153.614 325.312 154.497 326.048C155.237 326.665 156.106 327.136 156.897 327.69C157.899 328.392 158.911 329.094 159.967 329.714C161.137 330.397 162.314 330.887 163.614 331.244C164.546 331.5 165.337 331.902 166.219 332.297C168.297 333.23 170.273 334.144 171.734 335.981C172.101 336.44 172.496 336.939 172.813 337.43C173.439 338.4 174.157 339.238 174.884 340.165C175.434 340.864 176.346 341.912 177.236 342.423C177.305 342.463 177.272 342.6 177.192 342.6H-16.9101C-16.1743 342.6 -17.5974 343.535 -17.9631 342.896C-18.4093 342.117 -18.6728 341.276 -18.4881 340.295C-18.2731 339.159 -17.3686 338.657 -16.4674 338.084C-15.174 337.262 -14.2348 336.101 -13.0331 335.165C-11.6461 334.088 -10.095 333.251 -8.65405 332.252C-8.65161 332.251 -8.65015 332.248 -8.65015 332.245Z" fill="url(#paint6_linear_199_6492)"/>
<path d="M346.207 299.126H-44C-46.7614 299.126 -49 301.364 -49 304.126V342.06C-49 344.821 -46.7614 347.06 -44 347.06H346.207C348.969 347.06 351.207 344.821 351.207 342.06V304.126C351.207 301.364 348.969 299.126 346.207 299.126Z" fill="url(#paint7_linear_199_6492)"/>
<path d="M137.864 318.263C137.864 318.263 125.317 318.62 124.63 318.585C123.942 318.549 123.265 317.599 123.013 316.794C122.761 315.989 122.655 314.894 122.396 314.92C122.136 314.945 122.289 316.213 122.494 316.936C122.699 317.659 123.117 318.018 123.117 318.018C123.117 318.018 122.524 317.744 122.194 317.063C121.78 316.211 121.84 315.096 121.687 314.995C121.534 314.895 121.169 315.902 121.475 317.022C121.698 317.838 122.065 318.24 122.065 318.24C122.065 318.24 121.498 318.015 121.161 317.271C120.824 316.526 120.925 315.835 120.649 315.647C120.373 315.46 120.145 316.703 120.472 317.5C120.796 318.299 122.602 319.47 122.602 319.47C122.602 319.47 121.421 318.971 120.982 319.004C120.543 319.038 120.347 319.57 120.347 319.57C120.347 319.57 121.135 319.564 121.845 319.861C122.554 320.158 124.242 319.406 124.513 319.377C124.787 319.346 132.133 320.528 132.133 320.528C132.133 320.528 137.606 318.764 137.855 318.262L137.864 318.263Z" fill="#9CA000"/>
<path opacity="0.44" d="M188.923 322.946C189.26 323.86 176.272 329.499 159.911 335.539C143.549 341.579 130.013 345.732 129.675 344.818C129.338 343.904 142.326 338.265 158.687 332.225C175.049 326.185 188.585 322.032 188.923 322.946Z" fill="#9B9B9B"/>
<path d="M162.854 319.457C165.323 325.294 168.102 329.482 168.102 329.482L167.183 330.276C167.183 330.276 159.266 327.683 153.034 329.351C146.794 331.021 145.787 337.004 145.787 337.004L144.711 337.384C144.711 337.384 137.704 332.536 132.987 322.045C128.27 311.555 125.781 304.095 126.301 303.216C126.568 302.762 127.756 300.532 130.108 298.062C130.134 298.032 130.146 298.019 130.146 298.019C132.357 295.701 135.589 293.18 140.031 291.718C149.245 288.689 155.783 293.545 156.7 294.738C157.612 295.932 160.381 313.621 162.85 319.458L162.854 319.457Z" fill="url(#paint8_linear_199_6492)"/>
<path d="M156.248 312.793L156.506 313.958C156.506 313.958 155.17 316.902 152.302 319.49C152.302 319.49 152.299 319.492 152.297 319.497C150.777 320.869 148.823 322.142 146.415 322.823C141.618 324.175 139.066 321.746 137.943 320.117C137.926 320.091 137.917 320.074 137.917 320.074C137.435 319.36 137.23 318.807 137.23 318.807L137.206 317.65C137.206 317.65 142.132 318.681 147.513 317.212C152.93 315.729 156.255 312.798 156.255 312.798L156.248 312.793Z" fill="#590800"/>
<path d="M155.008 293.484C155.008 293.484 155.543 285.462 156.441 285.184C157.34 284.906 156.748 291.675 156.748 291.675C156.748 291.675 163.181 284.016 165.071 285.425C166.962 286.837 157.251 292.656 157.251 292.656C157.251 292.656 162.55 291.734 162.616 292.765C162.682 293.796 156.703 294.737 156.703 294.737L155.011 293.483L155.008 293.484Z" fill="#590800"/>
<path d="M143.165 296.342C143.165 296.342 145.817 295.88 148.828 296.403C151.842 296.924 153.138 298.081 153.138 298.081L152.442 297.047L153.602 297.119L154.236 295.407C154.236 295.407 151.701 293.786 148.621 293.21C145.452 292.617 142.239 293.249 142.239 293.249L142.544 294.436C142.544 294.436 143.272 294.411 144.203 294.411C144.976 294.411 145.839 294.639 145.839 294.639L142.758 294.948L143.17 296.344L143.165 296.342Z" fill="#590800"/>
<path d="M138.403 297.363C138.403 297.363 136.088 298.735 134.139 301.089C132.186 303.444 131.761 304.859 131.761 304.859L131.426 303.997L130.978 304.734L129.384 303.845C129.384 303.845 130.258 300.966 132.225 298.526C134.247 296.013 137.102 294.409 137.102 294.409L137.64 295.509C137.64 295.509 137.071 295.963 136.364 296.568C135.775 297.071 135.56 297.419 135.56 297.419L137.811 296.038L138.404 297.366L138.403 297.363Z" fill="#590800"/>
<path d="M155.58 303.57C154.569 299.722 151.356 297.231 148.403 298.007C145.451 298.783 143.877 302.531 144.888 306.379C145.899 310.228 149.112 312.719 152.065 311.943C155.017 311.167 156.591 307.418 155.58 303.57Z" fill="#9CA000"/>
<path d="M143.259 307.177C142.248 303.329 139.035 300.838 136.083 301.614C133.13 302.39 131.556 306.138 132.567 309.987C133.578 313.835 136.792 316.326 139.744 315.55C142.697 314.774 144.271 311.026 143.259 307.177Z" fill="#9CA000"/>
<path d="M142.872 307.275C141.973 303.856 139.209 301.619 136.699 302.279C134.188 302.938 132.88 306.245 133.779 309.664C134.677 313.083 137.441 315.32 139.952 314.66C142.463 314.001 143.77 310.694 142.872 307.275Z" fill="#CAE7EF"/>
<path d="M142.848 307.262C143.703 310.521 142.458 313.671 140.067 314.301C137.676 314.931 135.044 312.8 134.185 309.542C133.326 306.284 134.575 303.133 136.965 302.503C139.356 301.873 141.989 304.004 142.848 307.262Z" fill="white"/>
<path d="M141.532 307.533C142.097 309.679 141.275 311.757 139.7 312.173C138.122 312.586 136.388 311.182 135.823 309.036C135.258 306.89 136.08 304.812 137.656 304.396C139.232 303.979 140.968 305.387 141.532 307.533Z" fill="url(#paint9_linear_199_6492)"/>
<path d="M140.759 307.804C140.356 306.268 139.114 305.262 137.986 305.559C136.858 305.855 136.271 307.341 136.675 308.877C137.078 310.414 138.32 311.419 139.448 311.123C140.576 310.826 141.163 309.34 140.759 307.804Z" fill="#590800"/>
<path d="M142.252 307.929C142.721 307.135 142.457 306.112 141.663 305.643C140.869 305.175 139.846 305.439 139.377 306.233C138.909 307.027 139.173 308.05 139.967 308.519C140.761 308.987 141.784 308.723 142.252 307.929Z" fill="white"/>
<path d="M139.324 308.936C139.41 309.26 139.216 309.596 138.887 309.68C138.563 309.767 138.226 309.572 138.142 309.244C138.058 308.915 138.25 308.583 138.579 308.499C138.903 308.412 139.239 308.607 139.324 308.936Z" fill="white"/>
<path d="M145.092 306.078C145.865 309.529 148.545 311.867 151.079 311.299C153.613 310.732 155.041 307.474 154.268 304.023C153.495 300.572 150.815 298.234 148.281 298.802C145.747 299.369 144.319 302.627 145.092 306.078Z" fill="#CAE7EF"/>
<path d="M145.092 306.078C145.829 309.364 148.381 311.592 150.795 311.048C153.211 310.508 154.569 307.404 153.831 304.118C153.094 300.832 150.542 298.604 148.128 299.148C145.712 299.688 144.355 302.792 145.092 306.078Z" fill="white"/>
<path d="M146.385 305.713C146.87 307.88 148.554 309.348 150.144 308.992C151.734 308.637 152.629 306.589 152.144 304.423C151.658 302.256 149.975 300.788 148.384 301.143C146.794 301.498 145.899 303.546 146.385 305.713Z" fill="url(#paint10_linear_199_6492)"/>
<path d="M147.21 305.573C147.559 307.124 148.762 308.174 149.901 307.919C151.04 307.664 151.679 306.2 151.334 304.651C150.985 303.1 149.783 302.05 148.644 302.305C147.505 302.56 146.866 304.025 147.21 305.573Z" fill="#590800"/>
<path d="M150.356 304.826C150.556 305.725 151.452 306.292 152.349 306.089C153.248 305.889 153.815 304.993 153.612 304.096C153.409 303.198 152.516 302.63 151.619 302.833C150.72 303.032 150.153 303.928 150.356 304.826Z" fill="white"/>
<path d="M148.989 305.943C149.061 306.272 149.39 306.478 149.719 306.406C150.048 306.334 150.254 306.006 150.182 305.676C150.11 305.347 149.782 305.141 149.452 305.213C149.123 305.285 148.917 305.614 148.989 305.943Z" fill="white"/>
<path d="M152.299 319.491C152.299 319.491 152.295 319.493 152.294 319.498C150.773 320.87 148.82 322.144 146.411 322.825C141.615 324.177 139.062 321.748 137.939 320.119C137.922 320.093 137.913 320.075 137.913 320.075C137.913 320.075 143.12 319.208 147.333 319.32C151.547 319.44 152.297 319.497 152.297 319.497L152.299 319.491Z" fill="#8B1229"/>
<path d="M137.224 318.806L137.636 320.085C137.636 320.085 139.522 324.347 144.469 323.819C152.127 323 156.318 315.249 156.297 315.207C156.276 315.165 156.499 313.962 156.499 313.962C156.499 313.962 151.607 322.711 144.449 323.202C138.628 323.602 137.217 318.809 137.217 318.809L137.224 318.806Z" fill="#DCED00"/>
<path d="M167.183 330.276C167.183 330.276 159.266 327.683 153.034 329.351C146.794 331.021 145.787 337.004 145.787 337.004L144.711 337.384C144.711 337.384 137.704 332.536 132.987 322.046C128.27 311.555 125.781 304.095 126.301 303.217C126.568 302.762 127.756 300.532 130.108 298.062C129.747 298.506 126.967 302.42 130.934 313.345C135.167 325.002 140.6 330.866 146.396 329.852C152.187 328.84 152.708 327.381 159.61 327.999C166.409 328.605 167.418 330.645 167.179 330.278L167.183 330.276Z" fill="#9CA000"/>
<path d="M127.142 302.008C127.142 302.008 122.618 296.512 121.128 296.904C119.639 297.297 125.476 302.259 125.476 302.259C125.476 302.259 114.776 301.835 114.631 304.152C114.486 306.473 124.971 303.604 124.971 303.604C124.971 303.604 118.258 306.558 118.668 307.669C119.078 308.779 126.356 304.541 126.356 304.541L127.142 302.008Z" fill="#590800"/>
<path d="M157.775 314.252C157.775 314.252 164.496 303.652 164.822 303.044C165.148 302.435 164.674 301.365 164.109 300.742C163.544 300.119 162.661 299.464 162.815 299.254C162.973 299.043 163.976 299.823 164.497 300.371C165.018 300.919 165.107 301.462 165.107 301.462C165.107 301.462 165.173 300.812 164.758 300.18C164.238 299.387 163.248 298.871 163.238 298.684C163.228 298.502 164.278 298.701 165.089 299.54C165.673 300.148 165.833 300.672 165.833 300.672C165.833 300.672 165.93 300.07 165.462 299.398C164.995 298.726 164.35 298.46 164.331 298.127C164.312 297.795 165.496 298.235 166.015 298.921C166.534 299.611 166.616 301.761 166.616 301.761C166.616 301.761 166.793 300.492 167.046 300.134C167.298 299.776 167.856 299.876 167.856 299.876C167.856 299.876 167.448 300.552 167.34 301.312C167.231 302.072 165.723 303.142 165.559 303.359C165.395 303.577 162.65 310.499 162.65 310.499C162.65 310.499 158.336 314.302 157.777 314.256L157.775 314.252Z" fill="#B3CC00"/>
<path d="M144.715 337.383C144.715 337.383 140.769 339.394 141.177 339.736C141.584 340.078 144.207 338.092 144.207 338.092C144.207 338.092 141.266 340.617 141.6 340.916C141.934 341.215 144.865 338.147 144.865 338.147C144.865 338.147 143.102 340.747 143.73 340.833C144.356 340.917 145.791 337.002 145.791 337.002L144.715 337.383Z" fill="#9CA000"/>
<path d="M168.102 329.482C168.102 329.482 171.085 327.888 171.275 328.17C171.466 328.451 168.871 329.513 168.871 329.513C168.871 329.513 171.712 328.691 172.001 329.093C172.29 329.496 168.651 330.016 168.651 330.016C168.651 330.016 171.093 330.062 171.01 330.498C170.926 330.934 167.183 330.276 167.183 330.276L168.102 329.482Z" fill="#9CA000"/>
<path d="M155.648 313.456L155.501 314.526L155.061 317.693L153.112 315.667L152.892 315.439L152.575 315.895L151.528 317.397L149.437 317.062L149.328 317.043L149.224 317.13L148.501 317.765L147.419 317.637L147.026 317.592L146.282 317.867L144.826 318.403L144.466 318.128L144.344 318.033L143.918 318.187L142.025 318.874L141.379 318.369L141.196 318.222L141.061 318.377L138.963 320.837L138.02 318.4L137.849 317.959C137.849 317.959 139.812 318.591 144.963 317.829C151.507 316.864 155.65 313.451 155.65 313.451L155.648 313.456Z" fill="white"/>
<path d="M155.648 313.456L155.501 314.526C155.106 314.734 154.276 315.158 153.112 315.667L152.892 315.439L152.575 315.895C151.682 316.272 150.623 316.672 149.437 317.062L149.328 317.043L149.224 317.13C149.033 317.192 148.839 317.255 148.64 317.317C148.249 317.44 147.84 317.542 147.42 317.641L147.028 317.595L146.284 317.871C145.682 317.979 145.068 318.063 144.468 318.131L144.346 318.037L143.919 318.191C143.026 318.281 142.16 318.34 141.384 318.371L141.201 318.224L141.066 318.379C139.287 318.447 138.025 318.401 138.025 318.401L137.855 317.961C137.855 317.961 139.817 318.592 144.968 317.831C151.513 316.866 155.655 313.453 155.655 313.453L155.648 313.456Z" fill="#CAE7EF"/>
<path d="M140.187 322.262L141.033 320.561L142.105 323.055C142.105 323.055 140.762 322.651 140.186 322.259L140.187 322.262Z" fill="white"/>
<path d="M149.563 321.42L149.339 319.046L150.945 320.445C150.945 320.445 150.262 321.081 149.565 321.424L149.563 321.42Z" fill="white"/>
<path d="M153.944 317.522L154.458 319.04L154.82 317.44L154.39 316.992L153.944 317.522Z" fill="#9CA000"/>
<path opacity="0.43" d="M158.402 307.499C157.94 307.459 158.557 312.379 160.081 316.508C161.606 320.638 163.266 324.419 163.59 324.299C164.078 324.119 161.947 319.837 160.643 315.655C159.336 311.474 158.873 307.541 158.404 307.503L158.402 307.499Z" fill="white"/>
<path opacity="0.43" d="M157.731 305.053C157.879 305.992 158.135 306.729 158.303 306.704C158.471 306.676 158.485 305.896 158.337 304.958C158.189 304.019 157.934 303.282 157.765 303.307C157.598 303.336 157.583 304.115 157.731 305.053Z" fill="white"/>
<path d="M139.635 327.006C140.395 328.137 140.646 329.298 140.197 329.604C139.747 329.911 138.759 329.241 137.999 328.111C137.238 326.981 136.987 325.82 137.437 325.513C137.886 325.207 138.874 325.876 139.635 327.006Z" fill="#DCED00"/>
<path d="M139.824 326.879C140.584 328.009 140.835 329.17 140.385 329.477C139.931 329.781 138.948 329.114 138.187 327.983C137.427 326.853 137.176 325.692 137.625 325.385C138.075 325.079 139.063 325.748 139.824 326.879Z" fill="#7A7A00"/>
<path d="M157.989 317.914C158.278 318.965 158.856 319.724 159.276 319.607C159.697 319.493 159.802 318.544 159.513 317.492C159.224 316.44 158.646 315.681 158.226 315.799C157.805 315.913 157.7 316.862 157.989 317.914Z" fill="#DCED00"/>
<path d="M157.813 317.962C158.102 319.014 158.68 319.773 159.1 319.655C159.521 319.541 159.626 318.592 159.337 317.54C159.048 316.488 158.47 315.729 158.05 315.847C157.63 315.965 157.523 316.91 157.813 317.962Z" fill="#7A7A00"/>
<path d="M160.21 321.016C160.402 321.715 160.785 322.215 161.064 322.141C161.342 322.063 161.412 321.437 161.221 320.738C161.029 320.039 160.646 319.54 160.367 319.614C160.089 319.691 160.018 320.317 160.21 321.016Z" fill="#DCED00"/>
<path d="M160.093 321.047C160.285 321.746 160.668 322.246 160.947 322.172C161.225 322.094 161.296 321.468 161.104 320.769C160.912 320.07 160.529 319.57 160.25 319.644C159.972 319.722 159.902 320.348 160.093 321.047Z" fill="#7A7A00"/>
<path d="M142.382 329.886C142.775 330.469 142.906 331.071 142.67 331.228C142.438 331.384 141.93 331.038 141.538 330.458C141.145 329.875 141.014 329.274 141.25 329.117C141.485 328.959 141.99 329.307 142.382 329.886Z" fill="#DCED00"/>
<path d="M142.478 329.821C142.871 330.404 143.002 331.006 142.766 331.163C142.534 331.319 142.026 330.973 141.634 330.394C141.241 329.81 141.11 329.209 141.346 329.052C141.578 328.896 142.086 329.242 142.478 329.821Z" fill="#7A7A00"/>
<path d="M140.871 331.263C141.153 331.68 141.246 332.11 141.076 332.222C140.91 332.333 140.546 332.086 140.265 331.673C139.983 331.256 139.891 330.826 140.06 330.714C140.226 330.603 140.59 330.85 140.871 331.263Z" fill="#DCED00"/>
<path d="M140.941 331.216C141.223 331.634 141.315 332.063 141.146 332.175C140.98 332.286 140.616 332.04 140.335 331.626C140.053 331.209 139.96 330.78 140.13 330.667C140.296 330.557 140.66 330.803 140.941 331.216Z" fill="#7A7A00"/>
<path d="M135.497 324.541C135.705 325.015 135.72 325.469 135.531 325.551C135.342 325.633 135.018 325.318 134.811 324.844C134.603 324.371 134.588 323.917 134.777 323.835C134.966 323.752 135.289 324.068 135.497 324.541Z" fill="#DCED00"/>
<path d="M135.576 324.508C135.784 324.981 135.799 325.435 135.61 325.517C135.421 325.599 135.097 325.284 134.889 324.811C134.682 324.337 134.667 323.883 134.856 323.801C135.045 323.719 135.368 324.034 135.576 324.508Z" fill="#7A7A00"/>
<path d="M155.106 311.195C155.106 311.195 155.645 312.244 156.228 313.416C156.812 314.59 157.319 316.257 157.319 316.257C157.319 316.257 157.649 314.499 157.046 313.142C156.444 311.785 155.103 311.196 155.103 311.196L155.106 311.195Z" fill="#9CA000"/>
<path d="M137.591 315.433C137.591 315.433 137.222 317.354 137.218 318.483C137.214 319.611 137.466 321.532 137.466 321.532C137.466 321.532 136.121 319.445 136.245 317.908C136.368 316.42 137.59 315.429 137.59 315.429L137.591 315.433Z" fill="#9CA000"/>
<path d="M141.667 325.194C141.667 325.194 143.843 326.126 146.91 325.243C150.38 324.243 152.012 322.558 152.012 322.558C152.012 322.558 150.409 324.937 146.783 326.085C144.231 326.895 141.673 325.196 141.673 325.196L141.667 325.194Z" fill="#9CA000"/>
<path d="M226.156 302.29C225.081 302.274 224.007 302.304 222.932 302.37C221.388 302.465 220.088 302.318 218.772 303.144C216.399 304.635 214.068 306.679 211.983 308.535C210.39 309.952 208.772 312.266 206.699 313.032C205.334 313.538 203.309 313.46 201.861 313.298C198.492 312.918 194.962 312.866 191.675 313.841C188.717 314.718 186.199 316.101 183.074 316.241C181.824 316.299 180.567 316.361 179.321 316.468C177.519 316.626 176.664 316.078 175.055 315.323C173.425 314.559 171.767 314.289 170.014 313.923C168.561 313.619 166.808 313.376 165.339 313.802C162.651 314.581 159.755 317.458 158.354 319.811C157.304 321.578 156.92 324.177 154.624 324.801C152.072 325.494 149.075 324.553 146.559 325.402C143.878 326.304 141.296 327.836 138.674 328.927C134.936 330.481 131.1 331.777 127.382 333.38C124.558 334.597 122.089 333.97 119.209 333.778C116.746 333.611 114.247 334.384 111.77 334.145C107.206 333.704 102.638 332.397 98.0966 331.683C94.5412 331.126 90.6921 330.75 87.0998 330.993C86.1412 331.06 84.9 330.911 83.9854 331.21C82.973 331.541 82.2296 332.541 81.3429 333.108C79.2793 334.42 76.6445 334.671 74.3596 335.456C70.5002 336.785 65.9375 335.88 61.9346 336.555C53.8181 337.928 45.4717 338.027 37.2242 338.498C34.3031 338.666 31.3249 338.673 28.4116 338.972C26.6882 339.149 25.061 339.752 23.3345 339.895C20.5079 340.124 17.7948 339.89 15.1777 341.162C13.5407 341.959 12.0481 342.899 10.3248 343.51C9.09356 343.949 7.76205 344.394 6.87749 345.418C5.53349 346.979 5.85879 349.274 5.65337 351.179C5.50806 352.531 5.20537 353.851 4.8576 355.163C4.08327 358.083 6.11674 360.838 9.13296 361.011L130.38 367.947L218.259 362.921C220.796 362.776 222.82 360.751 222.965 358.215L226.163 302.297C226.163 302.293 226.16 302.29 226.156 302.29Z" fill="#79A4FA"/>
<path d="M209.342 313.404C209.342 313.405 209.341 313.405 209.34 313.405C206.64 313.046 203.631 312.228 200.059 310.874C193.06 308.227 189.317 306.645 182.627 310.191C180.984 311.061 181.762 313.401 183.622 313.401H209.341C209.342 313.401 209.343 313.403 209.342 313.404Z" fill="#5F9EFD"/>
<path d="M379.883 271.371C379.882 271.371 379.882 271.371 379.881 271.371C371.323 268.396 352.056 264.917 343.063 268.566C336.655 271.167 334.953 279.065 330.559 283.471C321.928 292.125 313.012 290.512 299.415 290.161C288.493 289.879 290.179 293.664 282.663 298.904C278.72 301.654 273.106 297.931 269.013 299.891C263.229 302.661 261.416 306.284 258.831 308.541C247.719 318.256 231.735 313.407 218.891 321.655C214.99 324.159 212.39 328.145 207.617 328.754C203.655 329.26 197.482 327.57 193.662 328.816C188.793 330.402 185.237 335.197 182.104 340.041C179.665 343.811 182.838 350.086 187.328 350.086H372.985C375.843 350.086 378.12 347.694 377.979 344.839C377.822 341.679 377.666 338.519 377.509 335.36L379.886 271.372C379.886 271.37 379.884 271.37 379.883 271.371Z" fill="url(#paint11_linear_199_6492)"/>
<path d="M324.921 347.27C324.921 347.27 324.92 347.27 324.92 347.27C316.872 348.678 307.643 348.374 300.066 346.36C293.16 344.523 289.907 339.241 282.696 341.957C278.128 343.674 273.826 347.154 269.277 349.056C254.462 355.245 241.772 341.29 227.744 344.878C216.74 347.691 208.407 355.731 197.052 356.229C185.686 356.723 175.685 359.875 164.346 357.46C151.664 354.755 139.264 349.99 126.231 350.484C117.963 350.797 109.467 353.239 101.183 352.158C96.0326 351.487 91.2755 348.752 86.2328 347.212C81.7264 345.835 76.0935 344.465 71.5948 346.356C68.0221 347.86 65.8885 350.619 62.2078 351.31C53.5616 352.934 47.8205 343.099 39.7106 341.452C36.9674 340.896 33.6571 338.929 30.9988 339.002C29.6372 339.039 28.0126 339.54 26.3223 340.384C24.821 341.134 24 342.743 24 344.421V368.436C24 371.198 26.2386 373.436 29 373.436H319.924C322.686 373.436 324.924 371.198 324.924 368.436V347.274C324.924 347.272 324.923 347.27 324.921 347.27Z" fill="#000045"/>
<g style="mix-blend-mode:overlay" opacity="0.28">
<path d="M-138.849 173.738C-138.849 173.738 -109.147 183.882 -90.3127 183.882C-71.4785 183.882 -70.7548 182.434 -66.4066 186.053C-62.0585 189.677 -61.3348 191.849 -51.9205 191.125C-42.5063 190.401 -26.567 193.296 -19.3239 196.197C-12.0808 199.097 -4.8378 194.749 3.85843 196.197C12.549 197.644 39.3557 207.788 66.8805 205.611C66.8805 205.611 1.68723 203.44 -35.9812 199.815C-73.6497 196.191 -125.081 183.152 -138.843 173.738H-138.849Z" fill="white"/>
</g>
<g style="mix-blend-mode:overlay" opacity="0.28">
<path d="M101 139C101 139 127.543 144.676 143.726 142.802C159.91 140.929 160.387 139.63 164.485 142.275C168.583 144.92 169.426 146.699 177.446 145.148C185.466 143.597 199.454 144.479 205.97 146.219C212.487 147.966 218.279 143.55 225.893 143.912C233.508 144.274 257.56 150.241 281 145.66C281 145.66 224.755 150.289 192.022 150.95C159.289 151.611 113.778 145.636 101.008 139H101Z" fill="white"/>
</g>
<g style="mix-blend-mode:overlay" opacity="0.28">
<path d="M-264.978 114C-264.978 114 -53.1589 162.673 138.289 173.834C329.736 184.986 452.964 130.224 452.964 130.224L455 138.34C455 138.34 296.138 200.201 38.4898 179.915C-219.158 159.636 -266 140.367 -266 140.367L-264.978 114Z" fill="white"/>
</g>
<path opacity="0.2" d="M-114 -39C-114 -39 25.9239 96.1757 291 109C291 109 289.028 102.09 278.192 100.116C267.356 98.1421 255.526 103.078 252.569 96.168C249.611 89.2584 239.761 69.5246 219.066 68.5452C198.372 67.5659 185.564 79.3954 174.72 72.4935C163.876 65.5917 151.068 52.7597 140.232 53.7468C129.396 54.7338 102.787 62.6305 98.8433 50.7855C94.9001 38.9406 94.9001 18.2274 72.2341 -7.42893C49.5681 -33.0852 -18.4223 12.3049 -29.2585 -2.49354C-40.0948 -17.292 -43.0522 -39 -56.8459 -39H-114Z" fill="white"/>
<path opacity="0.2" d="M191 111.94C191 111.94 19.9634 114.287 -98.1857 89.6113C-216.326 64.9354 -261 28.5062 -261 28.5062C-261 28.5062 -235.136 40.2596 -223.968 39.0815C-212.799 37.9034 -198.694 24.392 -189.293 26.1591C-179.892 27.9262 -172.839 50.8349 -165.197 52.013C-157.555 53.1911 -152.85 46.7208 -122.291 47.3098C-91.7312 47.8988 -89.3742 67.8715 -75.8577 77.2779C-62.3412 86.6752 -23.5504 80.803 -5.32899 80.214C12.8924 79.6249 22.2932 98.4286 34.051 100.776C45.8088 103.123 70.4939 94.3144 75.779 96.0725C81.0641 97.8305 84.5996 104.89 90.474 104.301C96.3483 103.712 95.1789 97.2505 101.053 100.776C106.928 104.301 123.39 109.004 128.086 103.712C132.791 98.4195 190.973 111.94 190.973 111.94H191Z" fill="white"/>
<path opacity="0.2" d="M150 29.5247C150 29.5247 308.199 61.3008 382 55.2288C382 55.2288 366.856 48.7868 358.318 49.6287C349.781 50.4706 343.587 55.3053 333.491 45.7508C323.408 36.1963 295.451 27.3179 280.371 35.7371C265.305 44.1563 253.625 39.9849 249.349 36.6938C245.074 33.4027 240 36.5152 230.664 36.3239C221.315 36.1453 210.344 10.7091 197.196 11.0025C184.048 11.2959 179.992 29.3717 172.123 24.7283C164.255 20.085 150 29.5247 150 29.5247Z" fill="white"/>
<path d="M40.2339 316.475C40.2339 316.475 40.2339 316.475 40.2321 316.48C40.1714 316.734 36.3202 333.158 38.2083 338.864C38.2083 338.864 44.8425 328.502 40.233 316.478L40.2339 316.475Z" fill="url(#paint12_linear_199_6492)"/>
<g style="mix-blend-mode:multiply" opacity="0.28">
<path d="M40.2248 316.48C40.1642 316.734 36.3162 333.152 38.2026 338.856C38.2026 338.856 41.1013 328.403 40.2248 316.48Z" fill="#82007E"/>
</g>
<path d="M54.136 323.701C54.136 323.701 54.1351 323.703 54.1341 323.705C53.9183 323.862 40.1233 333.969 37.432 339.929C37.432 339.929 48.8764 336.744 54.138 323.702L54.136 323.701Z" fill="url(#paint13_linear_199_6492)"/>
<g style="mix-blend-mode:multiply" opacity="0.28">
<path d="M54.134 323.703C53.9182 323.86 40.1239 333.966 37.4328 339.927C37.4328 339.927 46.5101 333.832 54.134 323.703Z" fill="#82007E"/>
</g>
<path d="M49.8966 312.696C49.8966 312.696 49.8957 312.698 49.8948 312.7C49.7204 313.003 38.5096 332.48 38.4822 340.731C38.4822 340.731 50.5961 330.38 49.8966 312.696Z" fill="url(#paint14_linear_199_6492)"/>
<g style="mix-blend-mode:multiply" opacity="0.28">
<path d="M49.7204 312.699C49.5484 313 38.4892 332.408 38.4622 340.631C38.4622 340.631 46.0349 328.479 49.7204 312.699Z" fill="#82007E"/>
</g>
<path d="M51.8781 326.895C51.8781 326.895 51.8781 326.895 51.8772 326.897C51.7436 327.044 43.1942 336.443 42.1281 341.089C42.1281 341.089 50.0084 336.959 51.8781 326.895Z" fill="url(#paint15_linear_199_6492)"/>
<g style="mix-blend-mode:multiply" opacity="0.28">
<path d="M51.8325 326.895C51.6995 327.041 43.1888 336.426 42.1275 341.064C42.1275 341.064 47.8116 335.282 51.8325 326.895Z" fill="#82007E"/>
</g>
<path d="M57.9179 337.29C57.9179 337.29 57.9179 337.29 57.9159 337.289C57.7207 337.304 45.1181 338.293 41.0477 341.279C41.0477 341.279 49.3993 344.1 57.9189 337.288L57.9179 337.29Z" fill="url(#paint16_linear_199_6492)"/>
<g style="mix-blend-mode:multiply" opacity="0.28">
<path d="M57.9128 337.291C57.7176 337.306 45.1149 338.295 41.0445 341.28C41.0445 341.28 49.1109 341.02 57.9128 337.291Z" fill="#82007E"/>
</g>
<path d="M59.6276 328.194L59.6266 328.196C59.3975 328.326 44.6908 336.807 41.3701 342.465C41.3701 342.465 52.9842 340.654 59.6276 328.194Z" fill="url(#paint17_linear_199_6492)"/>
<g style="mix-blend-mode:multiply" opacity="0.28">
<path d="M59.6266 328.196C59.3974 328.327 44.6907 336.807 41.37 342.466C41.37 342.466 50.9854 337.446 59.6266 328.196Z" fill="#82007E"/>
</g>
<path d="M20.2514 335.392C20.2514 335.392 24.7358 317.793 32.333 311.145C36.9457 307.108 42.807 307.193 46.6995 307.884" stroke="url(#paint18_linear_199_6492)" stroke-width="0.74" stroke-miterlimit="10"/>
<path d="M43.7184 309.84C41.5006 310.047 36.1426 311.069 33.0204 313.068C30.0607 314.962 28.9589 311.874 30.6811 309.998C30.7753 309.896 30.8785 309.796 30.9906 309.7C32.7489 308.212 40.1705 304.998 43.6415 306.196C44.4151 306.463 44.9925 306.949 45.2674 307.721C45.2674 307.721 45.9355 309.634 43.7184 309.84Z" fill="url(#paint19_linear_199_6492)"/>
<g style="mix-blend-mode:multiply" opacity="0.28">
<path d="M43.7184 309.84C41.5006 310.047 36.1426 311.069 33.0204 313.068C30.0607 314.962 28.9589 311.874 30.6811 309.998C31.5346 310.6 32.8124 311.028 34.7149 311.028C39.0976 311.032 42.1433 308.086 43.6415 306.196C44.4151 306.463 44.9925 306.949 45.2674 307.721C45.2674 307.721 45.9355 309.634 43.7184 309.84Z" fill="#82007E"/>
</g>
<path d="M-0.792098 328.033C0.122084 325.222 1.78276 322.428 4.49575 321.245C7.20874 320.062 11.0367 321.251 11.7788 324.12C12.7258 321.453 14.137 318.954 15.9333 316.767C16.7191 315.812 17.6279 314.883 18.8111 314.51C21.5607 313.641 24.3987 316.362 24.7801 319.219C25.1616 322.075 23.8738 324.856 22.6189 327.444C25.8237 323.486 29.9932 320.308 34.6672 318.266C37.2731 317.127 40.8129 316.559 42.5576 318.813C43.8801 320.521 43.4143 322.963 42.7422 325.006C41.5217 328.721 39.8312 332.277 37.7201 335.563C39.3478 332.961 43.9619 333.245 45.2767 336.03C46.3719 338.349 45.2391 341.051 44.1099 343.347C41.7437 348.162 39.3486 352.964 36.927 357.753C28.7352 354.208 20.6192 350.49 12.5894 346.598C8.10351 344.425 3.05659 342.168 -0.580051 338.67C-3.7816 335.589 -2.06909 331.979 -0.787105 328.036L-0.792098 328.033Z" fill="url(#paint20_linear_199_6492)"/>
<path d="M-2.20469 330.4C-1.24217 327.534 0.459852 324.67 3.1724 323.417C5.88494 322.165 9.65481 323.292 10.3326 326.183C11.3248 323.462 12.7736 320.902 14.5978 318.651C15.3958 317.668 16.3151 316.708 17.4954 316.306C20.2378 315.371 22.9957 318.07 23.3164 320.957C23.6371 323.843 22.3048 326.686 21.0091 329.333C24.2648 325.259 28.461 321.956 33.1343 319.793C35.7399 318.587 39.2595 317.94 40.9433 320.188C42.2196 321.892 41.7089 324.375 41.0018 326.459C39.7175 330.246 37.9706 333.883 35.8123 337.255C37.4778 334.586 42.045 334.781 43.292 337.576C44.3308 339.903 43.1539 342.662 41.9886 345.012C39.5467 349.937 37.0764 354.849 34.5802 359.749C26.5328 356.323 18.564 352.72 10.6842 348.939C6.28198 346.827 1.32551 344.642 -2.20837 341.172C-5.31939 338.115 -3.5496 334.423 -2.1998 330.403L-2.20469 330.4Z" fill="url(#paint21_linear_199_6492)"/>
<path d="M1.67497 332.291L-6.50334 333.7C-6.50334 333.7 -15.8082 304.093 -16.6546 290.842C-16.6578 290.795 -16.6609 290.748 -16.6641 290.704V290.7C-17.1298 282.173 -8.72177 303.791 -3.13321 318.955C-0.389277 326.4 1.67497 332.291 1.67497 332.291Z" fill="url(#paint22_linear_199_6492)"/>
<g style="mix-blend-mode:multiply" opacity="0.46">
<path d="M1.67497 332.291L-6.50333 333.7C-6.50333 333.7 -15.8082 304.093 -16.6546 290.842C-16.6578 290.795 -16.6609 290.748 -16.6641 290.704C-14.839 298.199 -11.1007 312.907 -8.17109 320.276C-6.04076 325.638 -4.30063 322.813 -3.1332 318.955C-0.389267 326.4 1.67497 332.291 1.67497 332.291Z" fill="#4194F2"/>
</g>
<path d="M26.27 250.888C26.27 250.888 25.2536 260.055 24.2341 260.87C23.2146 261.685 20.1623 270.442 20.1623 270.442C20.1623 270.442 18.9382 279.199 18.1232 281.641C17.6008 283.211 15.1464 288.636 13.4598 292.324C13.4598 292.356 13.4598 292.384 13.4629 292.415C13.4661 292.51 13.4661 292.604 13.4692 292.702C13.7681 306.689 14.6901 344.481 14.6901 344.481L4.13291 344.616L0.476429 344.663L-6.35508 344.748L-2.48463 280.537C-2.48463 280.537 -5.92083 273.925 -6.44948 272.607C-6.97813 271.285 -8.56093 260.977 -8.56093 259.394C-8.56093 258.585 -10.622 255.099 -12.6422 251.873C-14.5806 248.774 -16.4875 245.916 -16.4875 245.916L-21.7771 239.84L-26 230.063L-25.6224 229.607L-24.6847 228.477L-19.9237 236.665C-19.9237 236.665 -8.8284 248.824 -7.50363 249.881C-6.18831 250.939 -3.28074 260.715 -3.01327 261.773C-2.78986 262.682 0.769075 270.247 1.75714 272.336C1.91763 272.673 2.00887 272.868 2.00887 272.868L2.02776 272.437L3.3242 241.955V215.79L4.60177 215.551L6.41427 215.214L7.55653 215L10.055 236.221C10.055 236.221 10.0708 236.203 10.0959 236.171H10.0991C10.6214 235.539 15.6971 229.409 15.9488 228.654C16.2131 227.864 16.5404 220.022 16.5404 220.022L18.3057 218.474L18.6518 218.169C18.6518 218.169 19.7091 224.248 19.9766 225.57C20.2378 226.891 18.1232 233.764 17.3334 234.821C16.6159 235.775 11.3452 242.581 10.3571 243.858C10.2533 243.994 10.1966 244.066 10.1966 244.066C10.1966 244.066 10.4641 247.575 10.8134 251.861C11.32 258.028 11.9997 265.81 12.3144 267.059C12.5252 267.912 12.7392 271.024 12.9217 274.592L14.3157 273.617L17.1068 271.66L19.3473 260.662C19.3473 260.662 21.5846 259.444 22.3996 259.032C23.2146 258.629 23.825 250.275 23.825 250.275L25.5054 250.696L26.27 250.888Z" fill="url(#paint23_linear_199_6492)"/>
<g style="mix-blend-mode:overlay" opacity="0.45">
<path d="M26.27 250.888C26.27 250.888 25.2536 260.055 24.2341 260.87C23.2146 261.685 20.1622 270.442 20.1622 270.442C20.1622 270.442 19.3598 278.752 18.5448 281.194C18.0225 282.764 15.1464 288.636 13.4598 292.324C13.4598 292.356 13.4598 292.384 13.4629 292.415C12.4465 289.413 13.7807 284.133 14.5957 283.271C15.631 282.176 18.9822 274.133 19.2875 273.4C19.5927 272.67 19.2875 272.242 19.1647 271.207C19.042 270.171 21.1755 266.757 21.2982 266.21C21.4209 265.662 20.8105 264.016 20.7507 263.101C20.6878 262.188 23.2492 260.848 23.7967 260.055C24.3442 259.262 24.4072 258.167 24.6495 256.949C24.8509 255.942 25.3417 252.034 25.5054 250.696L26.27 250.888Z" fill="white"/>
</g>
<g style="mix-blend-mode:overlay" opacity="0.45">
<path d="M17.3334 234.821C16.6159 235.775 11.3452 242.581 10.3571 243.859C9.97634 243.305 9.76551 242.622 9.7718 241.952C9.78754 240.592 10.549 239.334 11.5371 238.402C12.1539 237.817 12.8619 237.335 13.4535 236.725C14.1741 235.982 14.6996 235.076 15.2156 234.179C16.0715 232.694 16.9274 231.212 17.7802 229.727C18.0539 229.252 18.334 228.761 18.3969 228.216C18.4504 227.738 18.3277 227.25 18.3875 226.772C18.463 226.152 18.828 225.608 19.0074 225.01C19.6367 222.889 17.8526 220.513 18.3057 218.474L18.6518 218.169C18.6518 218.169 19.7091 224.248 19.9766 225.57C20.2378 226.892 18.1232 233.764 17.3334 234.821Z" fill="white"/>
</g>
<g style="mix-blend-mode:overlay" opacity="0.45">
<path d="M1.7571 272.336C1.06483 272.547 0.359961 271.748 0.00123596 271.049C-2.37768 266.417 -3.93215 261.42 -5.83906 256.578C-6.55651 254.756 -7.32746 252.953 -8.17707 251.187C-8.55153 250.407 -8.94801 249.63 -9.50498 248.966C-10.3263 247.987 -11.4465 247.314 -12.4723 246.552C-14.0646 245.366 -15.4617 243.918 -16.5945 242.288C-17.4095 241.111 -18.1081 239.818 -19.2157 238.912C-19.7349 238.487 -20.3328 238.154 -20.7859 237.663C-22.0037 236.341 -21.8936 234.214 -22.9981 232.795C-23.404 232.272 -23.9547 231.879 -24.4204 231.407C-24.9333 230.891 -25.3392 230.274 -25.6224 229.607L-24.6847 228.477L-19.9237 236.665C-19.9237 236.665 -8.82844 248.824 -7.50367 249.881C-6.18835 250.939 -3.28078 260.715 -3.01331 261.773C-2.7899 262.682 0.769033 270.247 1.7571 272.336Z" fill="white"/>
</g>
<g style="mix-blend-mode:overlay" opacity="0.45">
<path d="M10.0959 236.171C10.0865 236.228 10.077 236.281 10.0644 236.338C9.99208 236.681 9.74663 237.125 9.41623 236.999C9.22743 236.926 9.15505 236.7 9.10785 236.505C8.79318 235.167 8.47851 233.833 8.16384 232.496C7.90266 231.388 7.63834 230.265 7.63204 229.126C7.62575 227.832 7.94986 226.558 7.97189 225.268C8.03168 221.869 6.03036 218.461 6.41426 215.214L7.55652 215L10.055 236.221C10.055 236.221 10.0707 236.203 10.0959 236.171Z" fill="white"/>
</g>
<g style="mix-blend-mode:overlay" opacity="0.45">
<path d="M14.3157 273.617C14.3031 273.777 14.2874 273.935 14.2653 274.095C14.1772 274.731 13.957 275.436 13.378 275.713C12.6983 276.04 11.8518 275.565 11.4994 274.895C11.1501 274.224 11.1595 273.431 11.1721 272.676C11.2162 269.378 11.0934 266.077 10.9739 262.783C10.9141 261.156 10.8574 259.526 10.6907 257.909C10.5554 256.593 9.64596 254.217 9.98895 252.965C10.162 252.333 10.4452 251.99 10.8134 251.861C11.32 258.028 11.9997 265.81 12.3144 267.059C12.5252 267.912 12.7392 271.024 12.9217 274.592L14.3157 273.617Z" fill="white"/>
</g>
<g style="mix-blend-mode:overlay" opacity="0.45">
<path d="M14.6901 344.481L4.13287 344.616C3.95351 342.719 4.4381 340.727 5.80378 339.424C6.7352 338.534 7.99703 338.03 8.89384 337.105C10.2312 335.72 10.5333 333.669 10.7693 331.759C11.2476 327.851 11.7259 323.857 10.914 320.003C10.228 316.746 8.64525 313.332 9.90708 310.251C10.7252 308.256 12.6416 306.796 13.1702 304.703C13.7335 302.472 12.5692 300.197 12.3301 297.906C12.1412 296.11 12.5566 294.263 13.4692 292.702C13.7681 306.689 14.6901 344.481 14.6901 344.481Z" fill="white"/>
</g>
<path style="mix-blend-mode:multiply" opacity="0.3" d="M4.41606 264.718C4.34054 266.442 4.26502 268.176 4.49473 269.888C4.70871 271.487 5.11463 273.356 3.99755 274.52C3.86853 274.655 3.70805 274.781 3.5224 274.784C3.20143 274.791 2.99375 274.457 2.85529 274.168C2.57838 273.592 2.30147 273.016 2.02771 272.437L3.32415 241.955V215.79L4.60172 215.551C3.87168 219.975 3.91888 224.525 4.73073 228.937C4.98247 230.296 5.30658 231.646 5.4765 233.018C5.72509 235.045 5.63699 237.093 5.54573 239.129C5.17127 247.66 4.79367 256.187 4.41606 264.718Z" fill="url(#paint24_linear_199_6492)"/>
<path style="mix-blend-mode:multiply" opacity="0.3" d="M0.429231 305.902C1.12465 310.795 1.63127 315.311 0.592856 320.141C-0.215849 323.892 -2.05982 327.589 -1.42418 331.372C-1.21965 332.596 -0.760226 333.76 -0.436115 334.956C0.0767994 336.844 0.256158 338.804 0.391467 340.755C0.482721 342.048 0.55195 343.367 0.47643 344.663L-6.35508 344.748L-2.48463 280.537C-2.48463 280.537 -5.92083 273.925 -6.44948 272.607C-6.97813 271.285 -8.56093 260.977 -8.56093 259.394C-8.56093 258.585 -10.622 255.099 -12.6422 251.873C-11.5818 252.512 -10.6724 253.365 -10.3325 254.529C-10.1783 255.064 -10.15 255.637 -9.91716 256.143C-9.25635 257.572 -7.2456 257.909 -6.46836 259.277C-5.97747 260.146 -6.10334 261.216 -6.01838 262.21C-5.77294 265.124 -3.6552 267.591 -3.22725 270.483C-2.96607 272.258 -3.35312 274.133 -2.73951 275.817C-2.21716 277.242 -1.05287 278.328 -0.348007 279.668C0.495312 281.267 0.636909 283.129 0.759631 284.933C0.942141 287.569 1.1278 290.206 1.31031 292.843C1.40156 294.156 1.48967 295.493 1.16242 296.767C0.80369 298.174 -0.0364838 299.411 -0.495903 300.789C-0.955323 302.167 -0.927003 303.895 0.186933 304.829C0.372588 304.983 0.59286 305.122 0.690409 305.345C0.787956 305.569 0.671528 305.902 0.429231 305.902Z" fill="url(#paint25_linear_199_6492)"/>
<path d="M49.9109 244.878C48.3941 246.137 46.4998 247.09 44.4136 247.804C35.1087 250.998 22.0404 249.466 22.0404 249.466C8.98788 249.466 16.927 239.412 16.927 239.412C16.927 239.412 16.0176 238.789 15.1806 237.811C13.9408 236.366 12.8489 234.141 15.0453 231.989H15.0484C15.404 231.637 15.8509 231.287 16.3952 230.944C22.5691 227.064 42.6797 225.299 49.206 226.536C55.7323 227.769 48.3218 235.885 48.3218 235.885C48.3218 235.885 51.0972 236.479 52.4723 238.062C53.6901 239.466 53.8065 241.646 49.9109 244.878Z" fill="url(#paint26_linear_199_6492)"/>
<path style="mix-blend-mode:multiply" d="M44.4135 247.804C35.1087 250.998 22.0404 249.466 22.0404 249.466C8.98787 249.466 16.927 239.412 16.927 239.412C16.927 239.412 16.0176 238.789 15.1806 237.811C16.0428 238.172 16.9648 238.412 17.7766 238.871C18.0347 239.016 18.3053 239.223 18.3305 239.519C18.3651 239.925 17.934 240.193 17.5941 240.416C16.5211 241.13 15.854 242.42 15.898 243.707C15.939 244.994 16.6879 246.241 17.805 246.883C18.3556 247.197 18.9755 247.37 19.5986 247.502C26.7857 249.013 34.2088 245.202 41.4745 246.259C42.6105 246.423 43.8723 246.826 44.4135 247.804Z" fill="url(#paint27_linear_199_6492)"/>
<path d="M34.2811 207.564C34.2811 207.564 34.8979 207.844 35.4171 208.361C36.273 209.213 36.8551 210.708 33.913 212.634C33.6266 212.823 33.3025 213.014 32.9438 213.213C26.7007 216.633 15.1271 215.019 15.1271 215.019C6.65614 216.356 1.73154 214.997 2.76995 211.727C3.81151 208.458 7.37988 206.227 7.37988 206.227C7.37988 206.227 6.24078 204.912 7.97147 202.662C10.6525 199.175 14.0383 195.94 21.1751 195.789C21.6439 195.78 22.0687 195.786 22.4621 195.808C23.1575 195.84 23.7365 195.915 24.2211 196.025C27.629 196.784 26.2539 199.093 26.2539 199.093C26.2539 199.093 38.74 195.676 41.2668 200.283C43.7936 204.89 34.2811 207.564 34.2811 207.564Z" fill="url(#paint28_linear_199_6492)"/>
<g opacity="0.28">
<path d="M33.913 212.634C33.6266 212.823 33.3025 213.014 32.9438 213.213C26.7007 216.633 15.1271 215.019 15.1271 215.019C6.65614 216.356 1.73154 214.997 2.76995 211.727C3.81152 208.458 7.37988 206.227 7.37988 206.227C7.37988 206.227 6.24078 204.912 7.97147 202.662C10.6525 199.175 14.0383 195.94 21.1751 195.789C21.6439 195.78 22.0687 195.786 22.4621 195.808C23.1575 195.84 23.7365 195.915 24.2211 196.025C23.362 196.916 22.5628 197.879 22.1852 199.043C21.7132 200.491 22.1128 202.341 23.4659 203.033C21.4111 204.235 19.4444 205.588 17.591 207.083C16.9365 207.608 16.2505 208.241 16.1781 209.075C16.1026 209.943 16.7571 210.739 17.5501 211.101C18.343 211.46 19.243 211.473 20.1115 211.451C24.5263 211.34 28.9254 210.532 33.0917 209.065C33.8532 208.795 34.6241 208.502 35.4171 208.361C36.273 209.213 36.8551 210.708 33.913 212.634Z" fill="url(#paint29_linear_199_6492)" style="mix-blend-mode:multiply"/>
</g>
<path style="mix-blend-mode:multiply" d="M33.913 212.634C33.6266 212.823 33.3025 213.014 32.9438 213.213C26.7007 216.633 15.1271 215.019 15.1271 215.019C6.65614 216.356 1.73154 214.997 2.76995 211.727C3.81151 208.458 7.37988 206.227 7.37988 206.227C7.37988 206.227 6.24078 204.912 7.97147 202.662C10.6525 199.175 14.0383 195.94 21.1751 195.789C21.6439 195.78 22.0687 195.786 22.4621 195.808L22.0467 195.837C19.8534 196.746 18.1857 198.817 17.7672 201.151C17.6036 202.064 17.6067 203.033 17.1693 203.848C16.5903 204.934 15.382 205.488 14.3467 206.152C12.8992 207.08 11.6751 208.351 10.8004 209.83C10.3818 210.544 10.0357 211.425 10.3756 212.181C10.7783 213.081 11.9458 213.345 12.9244 213.232C13.8999 213.115 14.8565 212.741 15.8351 212.823C16.9459 212.914 17.9277 213.578 19.0101 213.839C21.1688 214.361 23.3778 213.235 25.5993 213.216C27.05 213.203 28.4817 213.663 29.9292 213.559C31.2855 213.461 32.5819 212.876 33.913 212.634Z" fill="url(#paint30_linear_199_6492)"/>
<path d="M22.9247 203.439C19.8881 207.004 11.1528 207.067 11.1528 207.067C11.1528 207.067 10.514 209.248 7.21314 211.227C3.91224 213.21 -2.81857 211.756 -2.81857 211.756C-15.89 210.437 -7.17677 202.121 -7.17677 202.121C-7.17677 202.121 -12.5891 200.535 -11.2706 198.291C-11.1574 198.096 -11.0346 197.91 -10.9056 197.734C-9.55568 195.849 -7.57325 194.858 -7.57325 194.858C-7.57325 194.858 -8.11449 194.556 -8.47636 193.964C-8.83194 193.388 -9.01759 192.536 -8.36622 191.425C-7.04461 189.181 -0.04632 184.562 5.36602 184.033C10.7784 183.505 10.9105 189.446 10.9105 189.446C10.9105 189.446 19.8503 187.957 23.4911 190.135C23.9064 190.383 24.2526 190.679 24.5075 191.028C27.0154 194.461 20.4136 198.159 20.4136 198.159C20.4136 198.159 21.8926 198.615 22.9058 199.55C23.853 200.425 24.3942 201.715 22.9247 203.439Z" fill="url(#paint31_linear_199_6492)"/>
<path style="mix-blend-mode:multiply" d="M22.9247 203.439C19.8881 207.004 11.1528 207.067 11.1528 207.067C11.1528 207.067 10.514 209.248 7.21314 211.227C3.91224 213.21 -2.81857 211.756 -2.81857 211.756C-15.89 210.437 -7.17677 202.121 -7.17677 202.121C-7.17677 202.121 -12.5891 200.535 -11.2706 198.291C-11.1574 198.096 -11.0346 197.91 -10.9056 197.734C-9.55568 195.849 -7.57325 194.858 -7.57325 194.858C-7.57325 194.858 -8.11449 194.556 -8.47636 193.964C-7.13272 194.861 -5.40517 195.091 -3.76888 195.226C-4.69716 195.544 -5.64117 195.871 -6.41526 196.469C-7.1925 197.067 -7.78094 197.992 -7.718 198.971C-7.65192 199.981 -6.88727 200.849 -5.96528 201.268C-5.04015 201.686 -3.98915 201.712 -2.9822 201.595C-3.14268 203.26 -2.0728 204.899 -0.584409 205.657C0.903986 206.416 2.71649 206.369 4.28041 205.787C5.88209 205.192 7.27923 204.056 8.18548 202.608C10.9577 203.332 13.8936 203.414 16.7036 202.844C17.5847 202.668 18.4847 202.41 19.1581 201.819C19.8346 201.227 20.2216 200.223 19.8566 199.402C19.4633 198.524 18.4217 198.178 17.4934 197.923C19.6049 197.378 21.5212 196.11 22.846 194.377C23.7711 193.162 24.3061 191.286 23.4911 190.135C23.9064 190.383 24.2526 190.679 24.5075 191.028C27.0154 194.461 20.4136 198.159 20.4136 198.159C20.4136 198.159 21.8926 198.615 22.9058 199.55C23.853 200.425 24.3942 201.715 22.9247 203.439Z" fill="url(#paint32_linear_199_6492)"/>
<path style="mix-blend-mode:multiply" d="M22.9247 203.439C19.8881 207.004 11.1528 207.067 11.1528 207.067C11.1528 207.067 10.514 209.248 7.21314 211.227C3.91224 213.21 -2.81857 211.756 -2.81857 211.756C-15.89 210.437 -7.17677 202.121 -7.17677 202.121C-7.17677 202.121 -12.5891 200.535 -11.2706 198.291C-11.1574 198.096 -11.0346 197.91 -10.9056 197.734C-10.6476 197.954 -10.4147 198.209 -10.2133 198.47C-9.62491 199.222 -9.12773 200.094 -8.30959 200.585C-7.82814 200.874 -7.26802 201.01 -6.76769 201.268C-6.26422 201.526 -5.79536 201.966 -5.7576 202.526C-5.73558 202.825 -5.83942 203.115 -5.93382 203.398C-6.16353 204.097 -6.3303 204.886 -5.9999 205.541C-5.66634 206.199 -4.62478 206.485 -4.19683 205.887C-2.25846 207.914 0.589316 209.034 3.38989 208.873C6.19046 208.71 8.89348 207.272 10.5864 205.038C12.5374 205.072 14.5009 205.107 16.4173 204.748C18.3368 204.389 20.2248 203.603 21.5905 202.212C22.2953 201.497 22.8492 200.519 22.9058 199.55C23.853 200.424 24.3942 201.715 22.9247 203.439Z" fill="url(#paint33_linear_199_6492)"/>
<path d="M10.4763 210.988C10.4039 211.274 10.2938 211.545 10.149 211.797C8.54104 214.585 2.69131 215.261 -1.69521 216.061C-6.47821 216.929 -10.1001 218.232 -13.2877 215.044C-16.4753 211.857 -13.8667 210.409 -13.8667 210.409C-13.8667 210.409 -18.9392 210.554 -18.2154 207.8C-18.099 207.35 -17.7371 206.954 -17.2179 206.602C-16.532 206.133 -15.5659 205.746 -14.5055 205.431C-11.45 204.512 -7.6362 204.175 -7.6362 204.175C-7.6362 204.175 4.24578 200.554 7.4334 202.583C10.621 204.613 5.84116 207.074 5.84116 207.074C5.84116 207.074 8.22008 207.262 9.60149 208.379C10.3252 208.962 10.7752 209.795 10.4763 210.988Z" fill="url(#paint34_linear_199_6492)"/>
<path style="mix-blend-mode:multiply" d="M9.04136 206.938L8.49384 206.617C8.70467 206.683 8.89032 206.793 9.04136 206.938Z" fill="url(#paint35_linear_199_6492)"/>
<path style="mix-blend-mode:multiply" d="M10.4763 210.988C10.4039 211.274 10.2938 211.545 10.149 211.797C8.54104 214.585 2.69131 215.261 -1.69521 216.06C-6.47821 216.929 -10.1001 218.232 -13.2877 215.044C-16.4753 211.856 -13.8667 210.409 -13.8667 210.409C-13.8667 210.409 -18.9392 210.554 -18.2154 207.8C-18.099 207.35 -17.7371 206.954 -17.2179 206.601C-16.532 206.133 -15.5659 205.746 -14.5055 205.431C-14.4551 205.831 -14.4079 206.233 -14.2537 206.595C-13.6999 207.882 -12.0322 208.162 -10.635 208.257C-11.4658 209.053 -11.557 210.44 -10.978 211.432C-10.399 212.423 -9.26305 213.011 -8.11765 213.093C-6.97225 213.178 -5.82999 212.804 -4.83877 212.225C-4.67829 212.133 -4.51466 212.03 -4.33215 212.001C-4.11188 211.967 -3.89162 212.036 -3.67764 212.102C-0.134443 213.2 3.82727 212.885 7.15335 211.243C8.08477 210.783 9.01934 210.167 9.43156 209.213C9.54484 208.955 9.60149 208.666 9.60149 208.379C10.3252 208.962 10.7752 209.795 10.4763 210.988Z" fill="url(#paint36_linear_199_6492)"/>
<path style="mix-blend-mode:multiply" d="M10.149 211.797C8.54104 214.585 2.69131 215.261 -1.69521 216.06C-6.47821 216.929 -10.1001 218.232 -13.2877 215.044C-16.4753 211.856 -13.8667 210.409 -13.8667 210.409C-13.8667 210.409 -18.9392 210.554 -18.2154 207.8C-18.099 207.35 -17.7371 206.954 -17.2179 206.601C-17.1613 207.555 -16.6138 208.518 -15.8208 209.09C-14.625 209.953 -13.0485 210.097 -11.5759 209.981C-12.5105 210.494 -13.3727 211.303 -13.5615 212.35C-13.8132 213.76 -12.7213 215.142 -11.3934 215.68C-10.0655 216.218 -8.57392 216.111 -7.15161 215.935C-3.38499 215.466 0.318684 214.588 4.01292 213.713C6.10234 213.216 8.21378 212.712 10.149 211.797Z" fill="url(#paint37_linear_199_6492)"/>
</g>
<defs>
<linearGradient id="paint0_linear_199_6492" x1="145.5" y1="0" x2="145.5" y2="342" gradientUnits="userSpaceOnUse">
<stop stop-color="#42ADFF"/>
<stop offset="0.328125" stop-color="#A6A9ED"/>
<stop offset="0.682292" stop-color="#FFA6DD"/>
</linearGradient>
<linearGradient id="paint1_linear_199_6492" x1="-21.0039" y1="307.096" x2="84.954" y2="307.096" gradientUnits="userSpaceOnUse">
<stop stop-color="#90C9FD"/>
<stop offset="0.27" stop-color="#8AC3FD"/>
<stop offset="0.62" stop-color="#79B5FD"/>
<stop offset="1" stop-color="#5F9EFD"/>
</linearGradient>
<linearGradient id="paint2_linear_199_6492" x1="192.981" y1="293.138" x2="421.857" y2="293.138" gradientUnits="userSpaceOnUse">
<stop stop-color="#90C9FD"/>
<stop offset="0.27" stop-color="#8AC3FD"/>
<stop offset="0.62" stop-color="#79B5FD"/>
<stop offset="1" stop-color="#5F9EFD"/>
</linearGradient>
<linearGradient id="paint3_linear_199_6492" x1="106.495" y1="252.632" x2="105.799" y2="287.976" gradientUnits="userSpaceOnUse">
<stop stop-color="#931A6E"/>
<stop offset="1" stop-color="#700D56"/>
</linearGradient>
<linearGradient id="paint4_linear_199_6492" x1="118.778" y1="264.556" x2="115.051" y2="263.817" gradientUnits="userSpaceOnUse">
<stop stop-color="#A43113"/>
<stop offset="1" stop-color="#6F160D"/>
</linearGradient>
<linearGradient id="paint5_linear_199_6492" x1="122.057" y1="261.865" x2="118.942" y2="261.768" gradientUnits="userSpaceOnUse">
<stop stop-color="#A43113"/>
<stop offset="1" stop-color="#6F160D"/>
</linearGradient>
<linearGradient id="paint6_linear_199_6492" x1="-18.5482" y1="304.665" x2="177.648" y2="304.665" gradientUnits="userSpaceOnUse">
<stop stop-color="#ECF6FF"/>
<stop offset="1" stop-color="#77ADFF"/>
</linearGradient>
<linearGradient id="paint7_linear_199_6492" x1="151.102" y1="347.06" x2="151.102" y2="299.126" gradientUnits="userSpaceOnUse">
<stop stop-color="#74BCFD"/>
<stop offset="0.19" stop-color="#79BEFD"/>
<stop offset="0.43" stop-color="#8AC6FD"/>
<stop offset="0.71" stop-color="#A5D3FD"/>
<stop offset="1" stop-color="#CAE4FD"/>
</linearGradient>
<linearGradient id="paint8_linear_199_6492" x1="138.638" y1="292.216" x2="154.427" y2="334.985" gradientUnits="userSpaceOnUse">
<stop stop-color="#DCED00"/>
<stop offset="1" stop-color="#9CA000"/>
</linearGradient>
<linearGradient id="paint9_linear_199_6492" x1="135.826" y1="309.054" x2="141.536" y2="307.554" gradientUnits="userSpaceOnUse">
<stop stop-color="#A43113"/>
<stop offset="1" stop-color="#6F160D"/>
</linearGradient>
<linearGradient id="paint10_linear_199_6492" x1="152.126" y1="304.426" x2="146.365" y2="305.716" gradientUnits="userSpaceOnUse">
<stop stop-color="#A43113"/>
<stop offset="1" stop-color="#6F160D"/>
</linearGradient>
<linearGradient id="paint11_linear_199_6492" x1="221.666" y1="321.059" x2="340.166" y2="364.059" gradientUnits="userSpaceOnUse">
<stop stop-color="#478CEC"/>
<stop offset="1" stop-color="#8AC8F9"/>
</linearGradient>
<linearGradient id="paint12_linear_199_6492" x1="46.9262" y1="318.594" x2="35.584" y2="330.949" gradientUnits="userSpaceOnUse">
<stop stop-color="#FFE2F4"/>
<stop offset="1" stop-color="#9579F0"/>
</linearGradient>
<linearGradient id="paint13_linear_199_6492" x1="58.2288" y1="324.687" x2="36.7033" y2="334.916" gradientUnits="userSpaceOnUse">
<stop stop-color="#FFA6DD"/>
<stop offset="0.12" stop-color="#FAA2DC"/>
<stop offset="0.26" stop-color="#EB97D9"/>
<stop offset="0.41" stop-color="#D485D5"/>
<stop offset="0.56" stop-color="#B36BD0"/>
<stop offset="0.72" stop-color="#894AC9"/>
<stop offset="0.89" stop-color="#5623C0"/>
<stop offset="1" stop-color="#2E04BA"/>
</linearGradient>
<linearGradient id="paint14_linear_199_6492" x1="49.4972" y1="314.474" x2="39.879" y2="344.25" gradientUnits="userSpaceOnUse">
<stop stop-color="#FFE1F4"/>
<stop offset="0.0001" stop-color="#FFA6DD"/>
<stop offset="1" stop-color="#9879FF"/>
</linearGradient>
<linearGradient id="paint15_linear_199_6492" x1="55.028" y1="331.19" x2="43.4249" y2="333.854" gradientUnits="userSpaceOnUse">
<stop stop-color="#FFDDF2"/>
<stop offset="1" stop-color="#9076E7"/>
</linearGradient>
<linearGradient id="paint16_linear_199_6492" x1="60.0447" y1="339.79" x2="42.5988" y2="337.664" gradientUnits="userSpaceOnUse">
<stop stop-color="#FFA6DD"/>
<stop offset="0.12" stop-color="#FAA2DC"/>
<stop offset="0.26" stop-color="#EB97D9"/>
<stop offset="0.41" stop-color="#D485D5"/>
<stop offset="0.56" stop-color="#B36BD0"/>
<stop offset="0.72" stop-color="#894AC9"/>
<stop offset="0.89" stop-color="#5623C0"/>
<stop offset="1" stop-color="#2E04BA"/>
</linearGradient>
<linearGradient id="paint17_linear_199_6492" x1="58.6686" y1="329.246" x2="39.3602" y2="343.524" gradientUnits="userSpaceOnUse">
<stop stop-color="#FFD9F0"/>
<stop offset="1" stop-color="#8B04BA"/>
</linearGradient>
<linearGradient id="paint18_linear_199_6492" x1="31.8746" y1="308.597" x2="34.9121" y2="333.645" gradientUnits="userSpaceOnUse">
<stop stop-color="#6E0782"/>
<stop offset="1" stop-color="#08204D"/>
</linearGradient>
<linearGradient id="paint19_linear_199_6492" x1="44.9585" y1="309.132" x2="30.2497" y2="310.278" gradientUnits="userSpaceOnUse">
<stop stop-color="#FFA6DD"/>
<stop offset="0.12" stop-color="#FAA2DC"/>
<stop offset="0.26" stop-color="#EB97D9"/>
<stop offset="0.41" stop-color="#D485D5"/>
<stop offset="0.56" stop-color="#B36BD0"/>
<stop offset="0.72" stop-color="#894AC9"/>
<stop offset="0.89" stop-color="#5623C0"/>
<stop offset="1" stop-color="#2E04BA"/>
</linearGradient>
<linearGradient id="paint20_linear_199_6492" x1="34.967" y1="314.007" x2="14.5626" y2="348.413" gradientUnits="userSpaceOnUse">
<stop stop-color="#C5D5FC"/>
<stop offset="1" stop-color="#AFB1F2"/>
</linearGradient>
<linearGradient id="paint21_linear_199_6492" x1="33.5171" y1="315.473" x2="12.6033" y2="350.738" gradientUnits="userSpaceOnUse">
<stop stop-color="#80A7F4"/>
<stop offset="1" stop-color="#5F5CEF"/>
</linearGradient>
<linearGradient id="paint22_linear_199_6492" x1="-4.21253" y1="288.306" x2="-12.0227" y2="342.077" gradientUnits="userSpaceOnUse">
<stop stop-color="#A6CBFF"/>
<stop offset="0.12" stop-color="#A3C6FD"/>
<stop offset="0.26" stop-color="#9AB7F8"/>
<stop offset="0.42" stop-color="#8CA0F0"/>
<stop offset="0.58" stop-color="#787FE4"/>
<stop offset="0.74" stop-color="#5F55D6"/>
<stop offset="0.91" stop-color="#4022C4"/>
<stop offset="1" stop-color="#2E04BA"/>
</linearGradient>
<linearGradient id="paint23_linear_199_6492" x1="0.133434" y1="215" x2="0.133434" y2="344.748" gradientUnits="userSpaceOnUse">
<stop stop-color="#6E0782"/>
<stop offset="1" stop-color="#08204D"/>
</linearGradient>
<linearGradient id="paint24_linear_199_6492" x1="2.02771" y1="245.168" x2="5.63699" y2="245.168" gradientUnits="userSpaceOnUse">
<stop stop-color="#6E0782"/>
<stop offset="1" stop-color="#08204D"/>
</linearGradient>
<linearGradient id="paint25_linear_199_6492" x1="-12.6422" y1="298.309" x2="1.39212" y2="298.309" gradientUnits="userSpaceOnUse">
<stop stop-color="#6E0782"/>
<stop offset="1" stop-color="#08204D"/>
</linearGradient>
<linearGradient id="paint26_linear_199_6492" x1="38.91" y1="227.014" x2="21.6471" y2="259.922" gradientUnits="userSpaceOnUse">
<stop stop-color="#EAD5F4"/>
<stop offset="0.963542" stop-color="#ECC2FF"/>
</linearGradient>
<linearGradient id="paint27_linear_199_6492" x1="33.1735" y1="238.984" x2="23.2708" y2="250.19" gradientUnits="userSpaceOnUse">
<stop stop-color="#FFA6DD" stop-opacity="0.5"/>
<stop offset="0.21" stop-color="#F2AFDD" stop-opacity="0.63"/>
<stop offset="0.57" stop-color="#DFBDDE" stop-opacity="0.83"/>
<stop offset="0.84" stop-color="#D3C6DF" stop-opacity="0.95"/>
<stop offset="1" stop-color="#CFCAE0"/>
</linearGradient>
<linearGradient id="paint28_linear_199_6492" x1="30.8732" y1="195.84" x2="6.77887" y2="225.151" gradientUnits="userSpaceOnUse">
<stop stop-color="#EAD5F4"/>
<stop offset="1" stop-color="#EDC8FF"/>
</linearGradient>
<linearGradient id="paint29_linear_199_6492" x1="25.2375" y1="203.832" x2="10.2717" y2="215.538" gradientUnits="userSpaceOnUse">
<stop stop-color="#FACFE9" stop-opacity="0.5"/>
<stop offset="0.21" stop-color="#F2AFDD" stop-opacity="0.63"/>
<stop offset="0.57" stop-color="#DFBDDE" stop-opacity="0.83"/>
<stop offset="0.84" stop-color="#D3C6DF" stop-opacity="0.95"/>
<stop offset="1" stop-color="#CFCAE0"/>
</linearGradient>
<linearGradient id="paint30_linear_199_6492" x1="2.6315" y1="205.657" x2="33.9129" y2="205.657" gradientUnits="userSpaceOnUse">
<stop stop-color="#FFA6DD" stop-opacity="0.5"/>
<stop offset="0.21" stop-color="#F2AFDD" stop-opacity="0.63"/>
<stop offset="0.57" stop-color="#DFBDDE" stop-opacity="0.83"/>
<stop offset="0.84" stop-color="#D3C6DF" stop-opacity="0.95"/>
<stop offset="1" stop-color="#CFCAE0"/>
</linearGradient>
<linearGradient id="paint31_linear_199_6492" x1="11.4675" y1="189.575" x2="-4.69716" y2="220.39" gradientUnits="userSpaceOnUse">
<stop offset="0.12" stop-color="#FFE0F4"/>
<stop offset="1" stop-color="#C8BAF5"/>
</linearGradient>
<linearGradient id="paint32_linear_199_6492" x1="12.1787" y1="192.391" x2="0.583022" y2="207.165" gradientUnits="userSpaceOnUse">
<stop stop-color="#FFA6DD" stop-opacity="0.5"/>
<stop offset="0.21" stop-color="#F2AFDD" stop-opacity="0.63"/>
<stop offset="0.57" stop-color="#DFBDDE" stop-opacity="0.83"/>
<stop offset="0.84" stop-color="#D3C6DF" stop-opacity="0.95"/>
<stop offset="1" stop-color="#CFCAE0"/>
</linearGradient>
<linearGradient id="paint33_linear_199_6492" x1="8.89349" y1="196.346" x2="0.501211" y2="208.76" gradientUnits="userSpaceOnUse">
<stop stop-color="#FFA6DD" stop-opacity="0.5"/>
<stop offset="0.21" stop-color="#F2AFDD" stop-opacity="0.63"/>
<stop offset="0.57" stop-color="#DFBDDE" stop-opacity="0.83"/>
<stop offset="0.84" stop-color="#D3C6DF" stop-opacity="0.95"/>
<stop offset="1" stop-color="#CFCAE0"/>
</linearGradient>
<linearGradient id="paint34_linear_199_6492" x1="-0.12815" y1="202.316" x2="-10.5469" y2="222.178" gradientUnits="userSpaceOnUse">
<stop stop-color="#FFA6DD"/>
<stop offset="0.12" stop-color="#FAA2DC"/>
<stop offset="0.26" stop-color="#EB97D9"/>
<stop offset="0.41" stop-color="#D485D5"/>
<stop offset="0.56" stop-color="#B36BD0"/>
<stop offset="0.72" stop-color="#894AC9"/>
<stop offset="0.89" stop-color="#5623C0"/>
<stop offset="1" stop-color="#2E04BA"/>
</linearGradient>
<linearGradient id="paint35_linear_199_6492" x1="8.84627" y1="206.727" x2="8.65746" y2="206.844" gradientUnits="userSpaceOnUse">
<stop stop-color="#FFA6DD" stop-opacity="0.5"/>
<stop offset="0.21" stop-color="#F2AFDD" stop-opacity="0.63"/>
<stop offset="0.57" stop-color="#DFBDDE" stop-opacity="0.83"/>
<stop offset="0.84" stop-color="#D3C6DF" stop-opacity="0.95"/>
<stop offset="1" stop-color="#CFCAE0"/>
</linearGradient>
<linearGradient id="paint36_linear_199_6492" x1="2.91158" y1="205.5" x2="-12.5293" y2="215.019" gradientUnits="userSpaceOnUse">
<stop stop-color="#FFA6DD" stop-opacity="0.5"/>
<stop offset="0.21" stop-color="#F2AFDD" stop-opacity="0.63"/>
<stop offset="0.57" stop-color="#DFBDDE" stop-opacity="0.83"/>
<stop offset="0.84" stop-color="#D3C6DF" stop-opacity="0.95"/>
<stop offset="1" stop-color="#CFCAE0"/>
</linearGradient>
<linearGradient id="paint37_linear_199_6492" x1="-18.2878" y1="211.838" x2="10.149" y2="211.838" gradientUnits="userSpaceOnUse">
<stop stop-color="#FFA6DD" stop-opacity="0.5"/>
<stop offset="0.21" stop-color="#F2AFDD" stop-opacity="0.63"/>
<stop offset="0.57" stop-color="#DFBDDE" stop-opacity="0.83"/>
<stop offset="0.84" stop-color="#D3C6DF" stop-opacity="0.95"/>
<stop offset="1" stop-color="#CFCAE0"/>
</linearGradient>
</defs>
</svg>
