<svg width="291" height="342" viewBox="0 0 291 342" fill="none" xmlns="http://www.w3.org/2000/svg">
<mask id="mask0_199_5116" style="mask-type:alpha" maskUnits="userSpaceOnUse" x="0" y="0" width="291" height="342">
<rect width="291" height="342" rx="5" fill="url(#paint0_linear_199_5116)"/>
</mask>
<g mask="url(#mask0_199_5116)">
<path d="M84.9556 330.385C84.9548 330.387 84.9525 330.387 84.951 330.386C84.1765 329.758 83.3942 329.114 82.6004 328.529C81.4237 327.657 80.108 327.12 78.8619 326.36C76.7668 325.079 74.8069 323.289 73.0938 321.549C71.647 320.079 70.3082 318.517 68.8845 317.035C68.3367 316.464 67.6923 316.047 67.1831 315.434C66.3381 314.415 65.7092 313.269 64.9723 312.174C62.9776 309.222 59.4898 307.104 56.681 304.963C54.7828 303.516 53.0003 302 51.2217 300.41C50.1182 299.422 49.0109 298.458 47.9692 297.404C47.2516 296.675 46.4375 296.151 45.689 295.468C43.7831 293.724 41.9427 291.617 39.6548 290.39C38.6092 289.831 37.5829 289.044 36.5682 288.376C35.5998 287.74 35.1253 286.991 34.3883 286.127C33.8482 285.494 33.1499 284.642 32.5094 284.125C32.0348 283.743 31.8149 283.82 31.1359 283.824C30.4298 283.827 29.6505 283.669 29.0486 284.132C28.5316 284.53 28.1072 285.286 27.7368 285.822C26.371 287.805 25.2907 289.985 23.5815 291.706C22.3546 292.94 20.6184 293.793 19.1793 294.792C16.5557 296.617 15.1938 299.584 13.3303 302.054C12.0571 303.74 10.8533 305.144 8.69273 305.291C8.02526 305.337 7.37321 305.233 6.7096 305.341C4.32909 305.738 2.83982 307.119 0.930014 308.477C-0.293037 309.349 -1.20743 310.187 -1.95206 311.51C-2.65426 312.76 -3.03236 313.806 -4.08179 314.805C-5.13894 315.808 -5.7138 317.039 -6.83654 317.965C-7.57731 318.578 -8.19463 319.315 -8.93926 319.917C-10.9185 321.514 -13.2643 322.595 -15.2899 324.138C-16.4165 324.998 -17.8208 325.743 -18.6079 326.962C-19.1712 327.834 -19.2754 328.822 -20.0895 329.539C-20.4857 329.89 -20.2851 330.38 -19.7562 330.38H84.9529C84.9552 330.38 84.9566 330.383 84.9556 330.385Z" fill="url(#paint1_linear_199_5116)"/>
<path d="M195.137 318.002C195.137 318.002 195.138 318.003 195.138 318.002C196.122 316.336 197.337 314.832 198.305 313.146C199.161 311.657 199.713 309.902 200.701 308.497C202.503 305.939 207.468 304.392 210.447 304.766C214.741 305.303 219.143 305.283 223.507 305.199C225.775 305.156 228.326 303.551 230.17 302.351C233.364 300.272 236.177 297.559 239.626 295.881C241.795 294.828 243.94 294.133 246.278 293.508C248.107 293.022 249.777 292.208 251.706 292.235C253.172 292.254 254.199 291.919 255.595 291.753C256.988 291.591 258.628 290.715 259.94 290.152C261.278 289.577 262.343 288.836 263.539 288.045C264.778 287.223 266.225 286.332 267.22 285.213C268.721 283.531 269.905 281.339 272.487 281.625C275.268 281.934 277.691 282.678 280.392 283.334C281.85 283.689 283.332 283.932 284.833 283.913C286.017 283.897 287.479 284.152 288.618 283.832C291.164 283.118 293.464 280.795 295.042 278.835C296.627 276.868 297.607 273.434 299.953 272.33C301.566 271.57 303.032 271.898 304.718 272.234C305.204 272.33 306.196 272.539 306.682 272.369C307.376 272.126 307.639 271.165 307.932 270.509C308.403 269.452 308.449 268.411 308.723 267.299C308.981 266.265 309.564 265.428 309.915 264.437C310.378 263.121 310.27 261.72 310.683 260.401C310.845 259.888 311.072 259.51 311.296 259.016C311.443 258.688 311.636 257.851 311.825 257.627C312.616 256.709 314.394 257.071 315.448 257.067C317.045 257.064 318.04 257.175 319.275 258.306C320.564 259.483 320.618 261.524 321.111 263.082C321.517 264.352 321.729 265.563 322.261 266.786C322.828 268.09 323.723 269.101 324.503 270.259C325.768 272.134 326.382 274.271 327.748 276.061C328.488 277.038 328.924 278.033 329.881 278.824C330.765 279.553 331.922 280.19 332.956 280.676C334.665 281.482 336.567 281.555 338.369 282.053C340.337 282.597 342.366 282.929 344.28 283.662C349.631 285.707 353.331 291.02 357.544 294.669C360.187 296.957 362.857 299.176 365.469 301.502C366.831 302.718 368.344 303.617 369.763 304.724C371.037 305.719 372.287 306.881 373.714 307.656C375.528 308.644 377.696 309.346 379.667 309.936C380.624 310.226 381.515 310.141 382.445 310.38C383.425 310.631 384.617 311.163 385.81 311.225C388.46 311.36 390.663 311.121 393.225 312.07C397.654 313.714 401.493 316.97 405.07 319.968C406.586 321.241 408.492 322.422 409.738 323.934C410.849 325.284 411.887 325.836 413.434 326.596C414.503 327.121 415.61 327.696 416.752 328.051C417.574 328.305 418.354 328.251 419.199 328.409C420.121 328.583 420.927 329.154 421.861 329.247H195.608C194.613 329.247 193.736 328.416 193.503 327.449C193.25 326.403 192.921 325.376 192.992 324.293C193.135 322.098 194.029 319.876 195.136 318.002C195.137 318.001 195.137 318.001 195.137 318.002Z" fill="url(#paint2_linear_199_5116)"/>
<path d="M-8.10242 332.245C-8.10242 332.242 -8.10096 332.239 -8.09852 332.238C-5.96839 330.762 -3.80984 329.409 -1.63234 328.009C0.00257492 326.959 1.6533 326.001 3.1807 324.793C3.81632 324.29 4.47725 323.835 5.05595 323.262C5.5556 322.766 5.75798 322.26 6.12165 321.703C6.66241 320.878 7.37392 320.249 8.24039 319.904C9.37882 319.452 10.4414 318.917 11.5007 318.358C12.4684 317.845 13.4266 316.919 14.2267 316.185C15.1722 315.322 16.1462 314.395 17.1518 313.595C17.955 312.953 18.5938 312.112 19.4097 311.499C20.371 310.771 21.4936 310.319 22.4613 309.595C23.6092 308.735 24.6433 307.951 25.9145 307.296C26.9802 306.746 27.8246 305.788 28.8966 305.202C29.3962 304.931 29.7093 304.564 30.3038 304.747C30.8952 304.931 31.3537 305.506 31.9071 305.667C32.2645 305.772 33.3302 305.898 33.6717 305.743C34.1365 305.535 34.4275 304.086 34.6267 303.577C34.8607 302.973 34.9493 302.344 35.139 301.8C35.2623 301.446 35.3762 301.155 35.5564 300.816C35.724 300.5 35.8474 300.08 36.0181 299.795C36.5304 298.944 37.7922 298.381 38.5448 297.746C39.0729 297.3 39.4176 296.898 39.7655 296.376C40.0279 295.981 40.5465 295.599 40.8881 295.282C41.9253 294.321 43.0416 293.518 44.199 292.718C44.9422 292.202 45.7865 291.902 46.498 291.348C46.8996 291.035 47.2886 290.7 47.7092 290.409C48.2721 290.02 48.8033 289.6 49.3504 289.182C50.2833 288.471 51.1245 287.74 51.9467 286.909C52.9871 285.855 54.3247 285.289 55.4347 284.334C56.0166 283.832 56.649 283.398 57.1929 282.848C57.7084 282.326 58.129 281.732 58.6698 281.239C59.8398 280.166 61.1237 279.142 62.0313 277.811C62.3159 277.393 62.4614 277.08 62.844 276.726C63.195 276.4 63.5112 275.999 63.818 275.629C64.1342 275.246 64.3904 274.822 64.7003 274.436C65.1873 273.826 65.8703 273.428 66.3668 272.827C66.8127 272.286 67.2839 271.843 67.7456 271.328C68.1662 270.86 68.416 270.253 68.8303 269.781C69.1686 269.396 69.6461 269.212 70.0161 268.864C70.2881 268.611 70.4493 268.286 70.6992 268.02C71.3949 267.283 72.2645 266.727 73.1405 266.23C74.1398 265.661 74.8987 264.994 76.053 265C77.5962 265.006 79.0445 265.971 80.4928 266.474C81.3593 266.774 82.2637 267.131 83.0701 267.571C84.041 268.096 84.6797 268.596 85.4608 269.383C86.0079 269.936 86.6309 270.3 87.1811 270.8C87.7409 271.309 88.6548 271.518 89.3283 271.888C89.8849 272.194 90.4857 272.599 90.998 272.975C91.3174 273.209 91.5356 273.513 91.8993 273.706C92.4179 273.978 92.7784 274.117 93.2022 274.538C95.5676 276.884 98.7489 278.086 101.702 279.363C102.155 279.559 102.806 279.727 103.192 280.008C103.666 280.353 104.008 280.938 104.406 281.359C105.001 281.988 105.396 282.763 105.924 283.439C106.534 284.221 106.942 284.145 107.689 283.566C108.005 283.322 108.41 282.892 108.792 282.798C109.077 282.725 109.349 282.813 109.637 282.731C109.912 282.652 109.975 282.488 110.336 282.548C110.658 282.601 111.088 282.854 111.351 283.047C112.176 283.655 112.884 284.622 113.488 285.425C113.899 285.969 114.209 286.599 114.655 287.114C115.089 287.617 115.661 288.123 116.018 288.721C116.752 289.944 117.533 291.178 118.444 292.376C119.288 293.489 120.218 294.508 121.034 295.633C121.555 296.354 122.362 296.835 122.969 297.474C123.507 298.04 123.791 298.799 124.275 299.406C125.11 300.453 126.074 301.591 127.014 302.439C127.403 302.79 127.747 303.21 128.139 303.552C128.566 303.925 129.158 304.086 129.613 304.431C130.799 305.326 131.852 306.195 133.171 306.916C135.46 308.166 138.022 309.244 139.799 311.217C140.558 312.058 141.269 312.956 141.974 313.845C142.749 314.819 143.255 315.926 144.239 316.691C144.881 317.191 145.393 317.868 146.035 318.377C146.743 318.936 147.452 319.487 148.094 320.148C148.935 321.02 149.757 321.912 150.674 322.725C151.243 323.231 151.857 323.693 152.54 324.031C153.586 324.549 154.162 325.312 155.044 326.048C155.784 326.665 156.654 327.136 157.445 327.69C158.447 328.392 159.459 329.094 160.515 329.714C161.685 330.397 162.862 330.887 164.161 331.244C165.094 331.5 165.885 331.902 166.767 332.297C168.845 333.23 170.821 334.144 172.282 335.981C172.649 336.44 173.044 336.939 173.36 337.43C173.987 338.4 174.704 339.238 175.432 340.165C175.982 340.864 176.894 341.912 177.784 342.423C177.853 342.463 177.82 342.6 177.74 342.6H-16.3624C-15.6266 342.6 -17.0496 343.535 -17.4154 342.896C-17.8615 342.117 -18.125 341.276 -17.9404 340.295C-17.7253 339.159 -16.8209 338.657 -15.9197 338.084C-14.6263 337.262 -13.6871 336.101 -12.4854 335.165C-11.0984 334.088 -9.54724 333.251 -8.10632 332.252C-8.10388 332.251 -8.10242 332.248 -8.10242 332.245Z" fill="#5F9EFD"/>
<path d="M-8.65018 332.245C-8.65018 332.242 -8.64873 332.239 -8.64628 332.238C-6.51615 330.762 -4.3576 329.409 -2.1801 328.009C-0.545187 326.959 1.10554 326.001 2.63293 324.793C3.26856 324.29 3.92949 323.835 4.50819 323.262C5.00784 322.766 5.21022 322.26 5.57389 321.703C6.11464 320.878 6.82616 320.249 7.69263 319.904C8.83106 319.452 9.8936 318.917 10.953 318.358C11.9206 317.845 12.8788 316.919 13.6789 316.185C14.6244 315.322 15.5984 314.395 16.604 313.595C17.4073 312.953 18.046 312.112 18.8619 311.499C19.8233 310.771 20.9459 310.319 21.9135 309.595C23.0615 308.735 24.0955 307.951 25.3668 307.296C26.4325 306.746 27.2768 305.788 28.3488 305.202C28.8485 304.931 29.1616 304.564 29.7561 304.747C30.3474 304.931 30.806 305.506 31.3594 305.667C31.7167 305.772 32.7824 305.898 33.1239 305.743C33.5888 305.535 33.8797 304.086 34.0789 303.577C34.313 302.973 34.4015 302.344 34.5912 301.8C34.7146 301.446 34.8284 301.155 35.0087 300.816C35.1763 300.5 35.2996 300.08 35.4704 299.795C35.9827 298.944 37.2444 298.381 37.997 297.746C38.5252 297.3 38.8698 296.898 39.2177 296.376C39.4802 295.981 39.9988 295.599 40.3403 295.282C41.3775 294.321 42.4939 293.518 43.6513 292.718C44.3944 292.202 45.2387 291.902 45.9502 291.348C46.3519 291.035 46.7408 290.7 47.1614 290.409C47.7243 290.02 48.2556 289.6 48.8027 289.182C49.7355 288.471 50.5767 287.74 51.3989 286.909C52.4393 285.855 53.777 285.289 54.8869 284.334C55.4688 283.832 56.1013 283.398 56.6452 282.848C57.1606 282.326 57.5812 281.732 58.122 281.239C59.292 280.166 60.576 279.142 61.4835 277.811C61.7681 277.393 61.9136 277.08 62.2962 276.726C62.6472 276.4 62.9635 275.999 63.2702 275.629C63.5864 275.246 63.8426 274.822 64.1525 274.436C64.6395 273.826 65.3226 273.428 65.819 272.827C66.2649 272.286 66.7361 271.843 67.1978 271.328C67.6184 270.86 67.8682 270.253 68.2825 269.781C68.6209 269.396 69.0984 269.212 69.4684 268.864C69.7403 268.611 69.9016 268.286 70.1514 268.02C70.8471 267.283 71.7167 266.727 72.5927 266.23C73.592 265.661 74.351 264.994 75.5052 265C77.0484 265.006 78.4967 265.971 79.9451 266.474C80.8115 266.774 81.716 267.131 82.5224 267.571C83.4932 268.096 84.132 268.596 84.9131 269.383C85.4602 269.936 86.0831 270.3 86.6334 270.8C87.1931 271.309 88.107 271.518 88.7806 271.888C89.3371 272.194 89.938 272.599 90.4503 272.975C90.7697 273.209 90.9879 273.513 91.3515 273.706C91.8701 273.978 92.2306 274.117 92.6544 274.538C95.0198 276.884 98.2011 278.086 101.155 279.363C101.607 279.559 102.258 279.727 102.644 280.008C103.118 280.353 103.46 280.938 103.858 281.359C104.453 281.988 104.848 282.763 105.376 283.439C105.987 284.221 106.395 284.145 107.141 283.566C107.457 283.322 107.862 282.892 108.245 282.798C108.529 282.725 108.801 282.813 109.089 282.731C109.364 282.652 109.427 282.488 109.788 282.548C110.11 282.601 110.54 282.854 110.803 283.047C111.628 283.655 112.337 284.622 112.941 285.425C113.352 285.969 113.662 286.599 114.107 287.114C114.541 287.617 115.113 288.123 115.47 288.721C116.204 289.944 116.985 291.178 117.896 292.376C118.74 293.489 119.67 294.508 120.486 295.633C121.008 296.354 121.814 296.835 122.421 297.474C122.959 298.04 123.243 298.799 123.727 299.406C124.562 300.453 125.527 301.591 126.466 302.439C126.855 302.79 127.199 303.21 127.592 303.552C128.019 303.925 128.61 304.086 129.065 304.431C130.251 305.326 131.304 306.195 132.623 306.916C134.912 308.166 137.474 309.244 139.251 311.217C140.01 312.058 140.722 312.956 141.427 313.845C142.201 314.819 142.707 315.926 143.691 316.691C144.333 317.191 144.845 317.868 145.487 318.377C146.195 318.936 146.904 319.487 147.546 320.148C148.387 321.02 149.209 321.912 150.126 322.725C150.695 323.231 151.309 323.693 151.992 324.031C153.039 324.549 153.614 325.312 154.497 326.048C155.236 326.665 156.106 327.136 156.897 327.69C157.899 328.392 158.911 329.094 159.967 329.714C161.137 330.397 162.314 330.887 163.613 331.244C164.546 331.5 165.337 331.902 166.219 332.297C168.297 333.23 170.273 334.144 171.734 335.981C172.101 336.44 172.496 336.939 172.813 337.43C173.439 338.4 174.157 339.238 174.884 340.165C175.434 340.864 176.346 341.912 177.236 342.423C177.305 342.463 177.272 342.6 177.192 342.6H-16.9101C-16.1743 342.6 -17.5974 343.535 -17.9632 342.896C-18.4093 342.117 -18.6728 341.276 -18.4881 340.295C-18.2731 339.159 -17.3687 338.657 -16.4674 338.084C-15.174 337.262 -14.2348 336.101 -13.0331 335.165C-11.6461 334.088 -10.095 333.251 -8.65408 332.252C-8.65164 332.251 -8.65018 332.248 -8.65018 332.245Z" fill="url(#paint3_linear_199_5116)"/>
<path d="M346.207 299.126H-44C-46.7614 299.126 -49 301.364 -49 304.126V342.06C-49 344.821 -46.7614 347.06 -44 347.06H346.207C348.969 347.06 351.207 344.821 351.207 342.06V304.126C351.207 301.364 348.969 299.126 346.207 299.126Z" fill="url(#paint4_linear_199_5116)"/>
<path d="M268.032 307.291C266.963 307.179 265.891 307.113 264.814 307.083C263.267 307.04 261.986 306.778 260.601 307.484C258.105 308.757 255.601 310.586 253.359 312.249C251.646 313.518 249.829 315.679 247.695 316.257C246.291 316.639 244.281 316.381 242.853 316.092C239.532 315.412 236.021 315.046 232.66 315.725C229.635 316.335 227.004 317.488 223.879 317.349C222.629 317.295 221.371 317.245 220.121 317.241C218.311 317.237 217.509 316.616 215.973 315.721C214.418 314.814 212.79 314.398 211.077 313.877C209.657 313.445 207.933 313.047 206.432 313.341C203.685 313.877 200.544 316.485 198.939 318.704C197.736 320.37 197.122 322.924 194.78 323.341C192.176 323.804 189.275 322.6 186.693 323.221C183.943 323.881 181.234 325.178 178.526 326.03C174.664 327.246 170.728 328.195 166.882 329.46C163.961 330.421 161.557 329.576 158.706 329.128C156.268 328.743 153.71 329.29 151.264 328.831C146.757 327.986 142.324 326.277 137.864 325.162C134.372 324.29 130.572 323.573 126.972 323.495C126.012 323.476 124.789 323.218 123.851 323.434C122.813 323.673 121.984 324.603 121.05 325.089C118.878 326.212 116.231 326.227 113.885 326.806C109.923 327.786 105.459 326.478 101.412 326.794C93.2053 327.438 84.8832 326.794 76.6266 326.528C73.7021 326.435 70.7352 326.177 67.8068 326.215C66.0744 326.239 64.4 326.694 62.6677 326.682C59.8319 326.659 57.1504 326.185 54.4304 327.219C52.7289 327.867 51.1586 328.669 49.3877 329.125C48.1222 329.452 46.7564 329.777 45.7842 330.718C44.3065 332.153 44.4261 334.468 44.0518 336.347C43.7867 337.681 43.3676 338.969 42.9044 340.244C41.8731 343.084 43.6531 346.009 46.642 346.45L166.789 364.157L254.767 366.977C257.307 367.059 259.503 365.222 259.874 362.709L268.039 307.299C268.039 307.295 268.036 307.291 268.032 307.291Z" fill="#79A4FA"/>
<path d="M42.8438 317.71C42.8438 317.71 42.8438 317.71 42.8419 317.715C42.7813 317.969 38.9301 334.393 40.8181 340.099C40.8181 340.099 47.4524 329.737 42.8429 317.712L42.8438 317.71Z" fill="url(#paint5_linear_199_5116)"/>
<g style="mix-blend-mode:multiply" opacity="0.28">
<path d="M42.8346 317.715C42.774 317.969 38.926 334.387 40.8125 340.091C40.8125 340.091 43.7112 329.638 42.8346 317.715Z" fill="#82007E"/>
</g>
<path d="M56.7459 324.936C56.7459 324.936 56.7449 324.938 56.744 324.94C56.5281 325.097 42.7331 335.204 40.0418 341.164C40.0418 341.164 51.4862 337.979 56.7478 324.936L56.7459 324.936Z" fill="url(#paint6_linear_199_5116)"/>
<g style="mix-blend-mode:multiply" opacity="0.28">
<path d="M56.7439 324.938C56.5281 325.094 42.7338 335.201 40.0426 341.161C40.0426 341.161 49.12 335.067 56.7439 324.938Z" fill="#82007E"/>
</g>
<path d="M52.5065 313.931C52.5065 313.931 52.5055 313.933 52.5046 313.935C52.3303 314.237 41.1194 333.715 41.0921 341.966C41.0921 341.966 53.206 331.615 52.5065 313.931Z" fill="url(#paint7_linear_199_5116)"/>
<g style="mix-blend-mode:multiply" opacity="0.28">
<path d="M52.3302 313.934C52.1582 314.235 41.0991 333.643 41.0721 341.865C41.0721 341.865 48.6447 329.714 52.3302 313.934Z" fill="#82007E"/>
</g>
<path d="M54.4879 328.13C54.4879 328.13 54.4879 328.13 54.487 328.132C54.3535 328.278 45.804 337.678 44.7379 342.323C44.7379 342.323 52.6183 338.194 54.4879 328.13Z" fill="url(#paint8_linear_199_5116)"/>
<g style="mix-blend-mode:multiply" opacity="0.28">
<path d="M54.4424 328.13C54.3094 328.276 45.7987 337.661 44.7374 342.299C44.7374 342.299 50.4215 336.517 54.4424 328.13Z" fill="#82007E"/>
</g>
<path d="M60.5278 338.525C60.5278 338.525 60.5278 338.525 60.5258 338.524C60.3306 338.539 47.7279 339.528 43.6576 342.513C43.6576 342.513 52.0092 345.335 60.5288 338.523L60.5278 338.525Z" fill="url(#paint9_linear_199_5116)"/>
<g style="mix-blend-mode:multiply" opacity="0.28">
<path d="M60.5226 338.526C60.3275 338.54 47.7248 339.53 43.6544 342.515C43.6544 342.515 51.7207 342.255 60.5226 338.526Z" fill="#82007E"/>
</g>
<path d="M62.2374 329.429L62.2365 329.431C62.0073 329.561 47.3007 338.042 43.98 343.7C43.98 343.7 55.594 341.889 62.2374 329.429Z" fill="url(#paint10_linear_199_5116)"/>
<g style="mix-blend-mode:multiply" opacity="0.28">
<path d="M62.2365 329.431C62.0073 329.561 47.3006 338.042 43.9799 343.7C43.9799 343.7 53.5953 338.68 62.2365 329.431Z" fill="#82007E"/>
</g>
<path d="M22.8612 336.627C22.8612 336.627 27.3457 319.028 34.9429 312.38C39.5555 308.343 45.4169 308.428 49.3094 309.119" stroke="url(#paint11_linear_199_5116)" stroke-width="0.74" stroke-miterlimit="10"/>
<path d="M46.3283 311.074C44.1104 311.282 38.7524 312.304 35.6303 314.302C32.6706 316.197 31.5688 313.109 33.291 311.233C33.3852 311.13 33.4884 311.031 33.6005 310.935C35.3588 309.447 42.7804 306.233 46.2514 307.431C47.025 307.698 47.6024 308.184 47.8773 308.956C47.8773 308.956 48.5453 310.869 46.3283 311.074Z" fill="url(#paint12_linear_199_5116)"/>
<g style="mix-blend-mode:multiply" opacity="0.28">
<path d="M46.3283 311.074C44.1104 311.282 38.7524 312.304 35.6303 314.302C32.6706 316.197 31.5688 313.109 33.291 311.233C34.1445 311.835 35.4222 312.263 37.3248 312.263C41.7075 312.267 44.7532 309.321 46.2514 307.431C47.025 307.698 47.6024 308.184 47.8773 308.956C47.8773 308.956 48.5453 310.869 46.3283 311.074Z" fill="#82007E"/>
</g>
<path d="M1.81776 329.268C2.73195 326.457 4.39262 323.663 7.10562 322.48C9.81861 321.297 13.6465 322.485 14.3886 325.354C15.3357 322.688 16.7469 320.189 18.5432 318.002C19.3289 317.047 20.2377 316.118 21.421 315.744C24.1706 314.876 27.0085 317.597 27.39 320.453C27.7715 323.31 26.4837 326.091 25.2288 328.679C28.4335 324.721 32.6031 321.543 37.277 319.501C39.8829 318.362 43.4228 317.794 45.1674 320.048C46.4899 321.756 46.0241 324.198 45.3521 326.241C44.1316 329.955 42.4411 333.512 40.33 336.798C41.9577 334.196 46.5718 334.48 47.8866 337.265C48.9818 339.584 47.849 342.285 46.7198 344.582C44.3536 349.397 41.9585 354.199 39.5369 358.988C31.345 355.443 23.229 351.725 15.1993 347.833C10.7134 345.66 5.66646 343.402 2.02981 339.905C-1.17173 336.824 0.540774 333.214 1.82276 329.271L1.81776 329.268Z" fill="url(#paint13_linear_199_5116)"/>
<path d="M0.405204 331.635C1.36772 328.769 3.06975 325.905 5.78229 324.652C8.49483 323.399 12.2647 324.526 12.9425 327.418C13.9347 324.697 15.3835 322.137 17.2077 319.886C18.0057 318.903 18.925 317.943 20.1053 317.541C22.8477 316.606 25.6056 319.305 25.9263 322.192C26.247 325.078 24.9147 327.921 23.619 330.568C26.8747 326.494 31.0709 323.19 35.7442 321.028C38.3497 319.822 41.8694 319.175 43.5532 321.423C44.8295 323.127 44.3188 325.61 43.6117 327.694C42.3274 331.481 40.5805 335.118 38.4222 338.49C40.0877 335.82 44.6548 336.015 45.9019 338.811C46.9407 341.138 45.7638 343.897 44.5985 346.247C42.1566 351.172 39.6863 356.084 37.1901 360.984C29.1427 357.558 21.1739 353.955 13.294 350.173C8.89188 348.062 3.9354 345.877 0.401524 342.407C-2.7095 339.35 -0.939706 335.658 0.410093 331.638L0.405204 331.635Z" fill="url(#paint14_linear_199_5116)"/>
<path d="M209.342 313.404C209.342 313.405 209.341 313.405 209.34 313.405C206.64 313.046 203.631 312.228 200.059 310.874C193.06 308.227 189.317 306.645 182.627 310.191C180.984 311.061 181.762 313.401 183.622 313.401H209.341C209.342 313.401 209.343 313.403 209.342 313.404Z" fill="#5F9EFD"/>
<path d="M398.217 267.812C398.216 267.812 398.215 267.812 398.215 267.812C389.657 264.837 370.39 261.358 361.397 265.008C354.988 267.608 353.287 275.506 348.892 279.912C340.262 288.566 331.345 286.953 317.749 286.602C306.826 286.32 308.513 290.105 300.997 295.345C297.054 298.095 291.44 294.372 287.346 296.332C281.563 299.102 279.75 302.725 277.165 304.982C266.053 314.697 250.069 309.848 237.225 318.096C233.324 320.6 230.723 324.586 225.951 325.195C221.989 325.701 215.815 324.011 211.996 325.257C207.127 326.843 203.571 331.638 200.437 336.482C197.999 340.252 201.172 346.527 205.662 346.527H391.318C394.177 346.527 396.454 344.135 396.312 341.28C396.156 338.12 395.999 334.96 395.843 331.801L398.219 267.813C398.22 267.811 398.218 267.811 398.217 267.812Z" fill="url(#paint15_linear_199_5116)"/>
<path d="M63.086 273.554C63.086 273.554 58.5142 268.349 58.2865 268.045C58.0589 267.741 58.224 267.116 58.4785 266.728C58.733 266.339 59.1616 265.906 59.0589 265.808C58.9562 265.706 58.4741 266.219 58.2374 266.563C58.0008 266.906 57.9964 267.21 57.9964 267.21C57.9964 267.21 57.9026 266.862 58.0767 266.482C58.291 266.005 58.7866 265.639 58.7777 265.536C58.7687 265.433 58.2107 265.634 57.8401 266.161C57.5722 266.54 57.532 266.84 57.532 266.84C57.532 266.84 57.4294 266.518 57.6258 266.112C57.8222 265.706 58.1526 265.505 58.1348 265.322C58.1169 265.139 57.5097 265.478 57.2865 265.897C57.0633 266.317 57.2017 267.496 57.2017 267.496C57.2017 267.496 56.9963 266.817 56.8311 266.643C56.6659 266.469 56.3668 266.572 56.3668 266.572C56.3668 266.572 56.6481 266.906 56.7731 267.313C56.8981 267.719 57.8088 268.17 57.9205 268.277C58.0276 268.384 60.117 271.92 60.117 271.92C60.117 271.92 62.7958 273.626 63.0949 273.554H63.086Z" fill="#9CA000"/>
<path d="M71.3811 284.591C69.7739 287.698 68.9702 290.354 68.9702 290.354L68.3095 290.243C68.3095 290.243 66.6219 285.966 63.7155 283.908C60.809 281.845 57.9115 283.524 57.9115 283.524L57.3713 283.202C57.3713 283.202 56.9606 278.519 59.7554 272.818C62.5502 267.121 64.8405 263.433 65.3986 263.344C65.6843 263.299 67.0505 263.018 68.9301 263.143C68.9524 263.143 68.9613 263.143 68.9613 263.143C70.7248 263.263 72.9348 263.75 75.118 265.121C79.6495 267.969 79.8906 272.456 79.7075 273.264C79.52 274.072 72.9839 281.483 71.3722 284.586L71.3811 284.591Z" fill="url(#paint16_linear_199_5116)"/>
<path d="M70.8454 279.233L70.3855 279.702C70.3855 279.702 68.622 279.974 66.5594 279.43C66.5594 279.43 66.5594 279.43 66.5549 279.43C65.4611 279.139 64.2869 278.622 63.2422 277.715C61.1706 275.907 61.5189 273.996 61.9386 272.983C61.9475 272.965 61.952 272.956 61.952 272.956C62.135 272.518 62.3314 272.255 62.3314 272.255L62.8583 271.893C62.8583 271.893 63.8673 274.483 66.171 276.523C68.4881 278.581 70.8498 279.229 70.8498 279.229L70.8454 279.233Z" fill="#590800"/>
<path d="M79.6495 272.108C79.6495 272.108 83.2435 269.509 83.681 269.791C84.1185 270.072 81.0335 272.206 81.0335 272.206C81.0335 272.206 86.5517 272.242 86.6187 273.541C86.6857 274.84 80.7924 272.764 80.7924 272.764C80.7924 272.764 83.0515 274.688 82.6363 275.081C82.2211 275.47 79.7165 273.264 79.7165 273.264L79.654 272.103L79.6495 272.108Z" fill="#590800"/>
<path d="M74.2652 268.081C74.2652 268.081 75.3948 269.045 76.2341 270.509C77.0735 271.974 77.0377 272.929 77.0377 272.929L77.2297 272.268L77.6092 272.786L78.5602 272.452C78.5602 272.452 78.3548 270.804 77.5154 269.291C76.6493 267.732 75.2519 266.594 75.2519 266.594L74.8546 267.143C74.8546 267.143 75.1224 267.442 75.4483 267.84C75.7207 268.17 75.9305 268.616 75.9305 268.616L74.7117 267.42L74.2652 268.085V268.081Z" fill="#590800"/>
<path d="M72.1535 266.415C72.1535 266.415 70.7561 265.915 69.0685 265.915C67.3809 265.915 66.6308 266.232 66.6308 266.232L66.8764 265.786L66.4076 265.853L66.2245 264.862C66.2245 264.862 67.7559 264.219 69.4837 264.196C71.265 264.17 72.9526 264.817 72.9526 264.817L72.6758 265.433C72.6758 265.433 72.283 265.353 71.7785 265.264C71.3588 265.192 71.1356 265.223 71.1356 265.223L72.5151 265.692L72.1624 266.411L72.1535 266.415Z" fill="#590800"/>
<path d="M75.5626 275.87C76.8415 274.084 76.7682 271.841 75.3988 270.86C74.0295 269.88 71.8827 270.534 70.6038 272.32C69.3249 274.106 69.3982 276.349 70.7676 277.329C72.1369 278.31 74.2837 277.656 75.5626 275.87Z" fill="#9CA000"/>
<path d="M69.693 271.909C70.9719 270.123 70.8986 267.88 69.5293 266.9C68.1599 265.92 66.0131 266.573 64.7342 268.359C63.4553 270.146 63.5286 272.388 64.898 273.369C66.2673 274.349 68.4141 273.696 69.693 271.909Z" fill="#9CA000"/>
<path d="M69.5121 271.776C70.6475 270.19 70.6236 268.228 69.4588 267.395C68.2939 266.561 66.4292 267.17 65.2939 268.756C64.1585 270.342 64.1824 272.303 65.3473 273.137C66.5121 273.971 68.3768 273.362 69.5121 271.776Z" fill="#CAE7EF"/>
<path d="M69.515 271.795C68.4345 273.309 66.6576 273.889 65.546 273.094C64.4343 272.3 64.412 270.429 65.4969 268.92C66.5817 267.411 68.3542 266.826 69.4658 267.621C70.5775 268.416 70.5999 270.286 69.515 271.795Z" fill="white"/>
<path d="M68.9345 271.331C68.2202 272.327 67.0505 272.71 66.3183 272.188C65.5861 271.666 65.5727 270.434 66.287 269.433C67.0014 268.438 68.1711 268.054 68.9033 268.576C69.6355 269.099 69.6489 270.331 68.9345 271.331Z" fill="url(#paint17_linear_199_5116)"/>
<path d="M68.545 271.065C69.056 270.351 69.046 269.469 68.5227 269.094C67.9994 268.719 67.161 268.994 66.65 269.708C66.1391 270.422 66.149 271.304 66.6723 271.679C67.1956 272.053 68.034 271.778 68.545 271.065Z" fill="#590800"/>
<path d="M68.872 271.791C69.38 271.791 69.7917 271.379 69.7917 270.871C69.7917 270.363 69.38 269.951 68.872 269.951C68.3641 269.951 67.9523 270.363 67.9523 270.871C67.9523 271.379 68.3641 271.791 68.872 271.791Z" fill="white"/>
<path d="M67.5639 270.884C67.4568 271.036 67.2469 271.072 67.0951 270.96C66.9433 270.853 66.9076 270.643 67.0192 270.491C67.1309 270.34 67.3362 270.304 67.488 270.416C67.6398 270.523 67.6755 270.733 67.5639 270.884Z" fill="white"/>
<path d="M70.8052 272.331C69.6132 273.876 69.564 275.836 70.698 276.715C71.832 277.59 73.7206 277.05 74.9126 275.505C76.1046 273.961 76.1537 272.001 75.0197 271.121C73.8857 270.246 71.9972 270.786 70.8052 272.331Z" fill="#CAE7EF"/>
<path d="M70.8052 272.331C69.6667 273.8 69.6221 275.671 70.7025 276.505C71.7829 277.34 73.5777 276.822 74.7161 275.354C75.8546 273.885 75.8993 272.014 74.8188 271.179C73.7384 270.344 71.9436 270.862 70.8052 272.331Z" fill="white"/>
<path d="M71.4168 272.751C70.6668 273.719 70.6355 274.952 71.3499 275.501C72.0597 276.05 73.2473 275.711 73.9973 274.742C74.7474 273.773 74.7787 272.541 74.0643 271.992C73.3545 271.443 72.1669 271.782 71.4168 272.751Z" fill="url(#paint18_linear_199_5116)"/>
<path d="M71.7695 273.054C71.2338 273.746 71.2114 274.63 71.7204 275.023C72.2294 275.416 73.0776 275.175 73.6134 274.478C74.1491 273.786 74.1714 272.902 73.6625 272.51C73.1535 272.117 72.3053 272.358 71.7695 273.054Z" fill="#590800"/>
<path d="M73.1937 274.126C72.8812 274.528 72.9571 275.108 73.3589 275.416C73.7607 275.729 74.3411 275.653 74.6492 275.251C74.9572 274.849 74.8858 274.269 74.484 273.961C74.0822 273.648 73.5018 273.724 73.1937 274.126Z" fill="white"/>
<path d="M72.2383 273.938C72.1267 274.086 72.1535 274.295 72.3008 274.411C72.4481 274.523 72.658 274.496 72.774 274.349C72.8857 274.202 72.8589 273.992 72.7115 273.876C72.5642 273.76 72.3544 273.791 72.2383 273.938Z" fill="white"/>
<path d="M66.5594 279.43C66.5594 279.43 66.5594 279.43 66.5549 279.43C65.4611 279.139 64.2869 278.621 63.2422 277.715C61.1706 275.907 61.5189 273.996 61.9386 272.983C61.9475 272.965 61.952 272.956 61.952 272.956C61.952 272.956 63.9253 275.099 65.1441 277.081C66.3585 279.063 66.5594 279.43 66.5594 279.43Z" fill="#8B1229"/>
<path d="M62.3314 272.255L61.8627 272.831C61.8627 272.831 60.4608 274.987 62.202 277.117C64.8897 280.407 69.7382 280.005 69.7516 279.983C69.765 279.961 70.39 279.702 70.39 279.702C70.39 279.702 64.8718 280.081 62.4833 276.92C60.5412 274.353 62.3314 272.255 62.3314 272.255Z" fill="#DCED00"/>
<path d="M68.3095 290.243C68.3095 290.243 66.6219 285.966 63.7155 283.908C60.809 281.845 57.9115 283.524 57.9115 283.524L57.3713 283.202C57.3713 283.202 56.9606 278.519 59.7554 272.818C62.5502 267.121 64.8405 263.433 65.3986 263.344C65.6843 263.299 67.0505 263.018 68.9301 263.143C68.6131 263.143 65.9745 263.344 62.7288 268.88C59.2687 274.786 58.6883 279.157 61.1617 281.265C63.6306 283.367 64.4342 283.077 66.604 286.225C68.7425 289.328 68.2336 290.475 68.305 290.243H68.3095Z" fill="#9CA000"/>
<path d="M66.2112 263.272C66.2112 263.272 66.9523 259.415 66.2603 258.919C65.5682 258.424 65.5192 262.652 65.5192 262.652C65.5192 262.652 61.9296 257.955 60.8938 258.714C59.8581 259.468 64.7691 262.915 64.7691 262.915C64.7691 262.915 61.1483 261.103 60.8224 261.67C60.4965 262.237 64.8584 263.83 64.8584 263.83L66.2112 263.272Z" fill="#590800"/>
<path d="M71.8008 280.599C71.8008 280.599 78.6718 279.72 79.0423 279.644C79.4129 279.568 79.7031 278.988 79.77 278.528C79.837 278.068 79.8013 277.461 79.9442 277.456C80.087 277.447 80.1138 278.153 80.0602 278.564C80.0067 278.974 79.8102 279.206 79.8102 279.206C79.8102 279.206 80.1094 279.006 80.2344 278.608C80.3862 278.108 80.2611 277.505 80.3326 277.438C80.4085 277.371 80.6942 277.889 80.6228 278.523C80.5692 278.988 80.404 279.238 80.404 279.238C80.404 279.238 80.6942 279.068 80.8148 278.631C80.9353 278.197 80.8192 277.827 80.9532 277.702C81.0871 277.577 81.3193 278.233 81.2076 278.697C81.1005 279.162 80.212 279.952 80.212 279.952C80.212 279.952 80.8148 279.581 81.0558 279.559C81.2969 279.537 81.4532 279.814 81.4532 279.814C81.4532 279.814 81.0246 279.881 80.663 280.099C80.3013 280.323 79.3191 280.059 79.1673 280.064C79.0155 280.073 75.109 281.345 75.109 281.345C75.109 281.345 71.9749 280.849 71.7963 280.599H71.8008Z" fill="#B3CC00"/>
<path d="M57.3758 283.198C57.3758 283.198 55.1301 282.229 55.1301 282.524C55.1301 282.818 56.8981 283.229 56.8981 283.229C56.8981 283.229 54.7908 282.872 54.7819 283.117C54.7729 283.363 57.1079 283.528 57.1079 283.528C57.1079 283.528 55.3801 283.693 55.5676 283.992C55.7551 284.287 57.9204 283.519 57.9204 283.519L57.3802 283.198H57.3758Z" fill="#9CA000"/>
<path d="M68.9747 290.35C68.9747 290.35 70.7025 291.055 70.6489 291.234C70.5953 291.412 69.2292 290.685 69.2292 290.685C69.2292 290.685 70.5775 291.604 70.5105 291.868C70.4391 292.131 68.939 290.77 68.939 290.77C68.939 290.77 69.7783 291.823 69.564 291.939C69.3497 292.055 68.3095 290.238 68.3095 290.238L68.9702 290.35H68.9747Z" fill="#9CA000"/>
<path d="M70.3587 279.157L69.8185 279.412L68.2247 280.162L68.5729 278.648L68.6131 278.479L68.305 278.47L67.296 278.438L66.8183 277.371L66.7915 277.313L66.7201 277.291L66.2111 277.148L65.9433 276.608L65.845 276.411L65.4924 276.153L64.8048 275.639L64.8227 275.389V275.304L64.6307 275.152L63.7422 274.483L63.7824 274.032L63.7958 273.902L63.6842 273.889L61.9118 273.661L62.7511 272.492L62.9029 272.282C62.9029 272.282 63.202 273.38 65.1084 275.527C67.5282 278.26 70.3543 279.144 70.3543 279.144L70.3587 279.157Z" fill="white"/>
<path d="M70.3587 279.157L69.8185 279.412C69.6042 279.291 69.1578 279.037 68.5729 278.653L68.6131 278.483L68.305 278.474C67.863 278.175 67.3585 277.804 66.8183 277.376L66.7915 277.318L66.7201 277.296C66.6353 277.224 66.546 277.153 66.4567 277.081C66.2826 276.938 66.1129 276.782 65.9388 276.617L65.8406 276.42L65.4879 276.162C65.2557 275.916 65.0325 275.657 64.8182 275.403V275.318L64.6262 275.166C64.3137 274.782 64.028 274.398 63.778 274.05L63.7914 273.92L63.6798 273.907C63.1128 273.108 62.7511 272.51 62.7511 272.51L62.9029 272.3C62.9029 272.3 63.202 273.398 65.1084 275.545C67.5282 278.278 70.3543 279.162 70.3543 279.162L70.3587 279.157Z" fill="#CAE7EF"/>
<path d="M61.626 274.67L62.6663 274.55L61.8359 275.8C61.8359 275.8 61.6171 275.059 61.626 274.675V274.67Z" fill="white"/>
<path d="M64.845 278.747L65.8763 277.925L65.7156 279.09C65.7156 279.09 65.2155 278.965 64.8495 278.747H64.845Z" fill="white"/>
<path d="M67.9657 279.595L67.4211 280.291L68.2693 279.974L68.3452 279.639L67.9657 279.595Z" fill="#9CA000"/>
<path opacity="0.43" d="M74.8947 278.483C74.7474 278.273 72.8768 280.269 71.6579 282.367C70.4391 284.466 69.4212 286.506 69.5864 286.604C69.8364 286.747 70.9034 284.336 72.2205 282.305C73.5375 280.278 75.0421 278.693 74.8947 278.483Z" fill="white"/>
<path opacity="0.43" d="M75.6939 277.34C75.3501 277.733 75.1269 278.104 75.1939 278.166C75.2653 278.229 75.6001 277.961 75.9484 277.563C76.2966 277.166 76.5154 276.8 76.4484 276.737C76.377 276.675 76.0421 276.943 75.6939 277.34Z" fill="white"/>
<path d="M59.9965 277.385C59.7866 278.108 59.3804 278.622 59.0902 278.537C58.8 278.452 58.7375 277.8 58.9518 277.077C59.1616 276.354 59.5679 275.84 59.8581 275.925C60.1483 276.01 60.2108 276.662 59.9965 277.385Z" fill="#DCED00"/>
<path d="M60.1126 277.421C59.9028 278.144 59.4965 278.657 59.2063 278.572C58.9161 278.488 58.8536 277.836 59.0679 277.113C59.2777 276.389 59.684 275.876 59.9742 275.961C60.2644 276.046 60.3269 276.697 60.1126 277.421Z" fill="#7A7A00"/>
<path d="M70.323 281.979C69.9792 282.474 69.8587 282.983 70.0551 283.122C70.2516 283.26 70.6936 282.97 71.0373 282.479C71.3811 281.983 71.5017 281.474 71.3052 281.336C71.1088 281.198 70.6668 281.488 70.323 281.979Z" fill="#DCED00"/>
<path d="M70.2427 281.921C69.8989 282.416 69.7783 282.925 69.9748 283.064C70.1712 283.202 70.6132 282.912 70.957 282.421C71.3007 281.925 71.4213 281.416 71.2248 281.278C71.0284 281.14 70.5864 281.43 70.2427 281.921Z" fill="#7A7A00"/>
<path d="M69.7872 284.015C69.5595 284.341 69.4792 284.68 69.6086 284.774C69.7381 284.863 70.0328 284.675 70.2605 284.345C70.4882 284.019 70.5685 283.68 70.4391 283.586C70.3096 283.497 70.0149 283.684 69.7872 284.015Z" fill="#DCED00"/>
<path d="M69.7337 283.974C69.506 284.3 69.4256 284.64 69.5551 284.733C69.6846 284.823 69.9793 284.635 70.2069 284.305C70.4346 283.979 70.515 283.64 70.3855 283.546C70.256 283.457 69.9614 283.644 69.7337 283.974Z" fill="#7A7A00"/>
<path d="M59.7375 279.568C59.6304 279.939 59.4205 280.206 59.2687 280.162C59.1214 280.117 59.0857 279.782 59.1973 279.407C59.3045 279.037 59.5143 278.769 59.6661 278.813C59.8179 278.858 59.8491 279.193 59.7375 279.568Z" fill="#DCED00"/>
<path d="M59.8 279.586C59.6929 279.956 59.483 280.224 59.3312 280.18C59.1839 280.135 59.1482 279.8 59.2598 279.425C59.367 279.055 59.5768 278.787 59.7286 278.831C59.8759 278.876 59.9116 279.211 59.8 279.586Z" fill="#7A7A00"/>
<path d="M58.6214 279.407C58.5455 279.675 58.3937 279.863 58.2865 279.831C58.1794 279.8 58.1571 279.559 58.2329 279.291C58.3088 279.023 58.4606 278.836 58.5678 278.867C58.6749 278.898 58.6973 279.139 58.6214 279.407Z" fill="#DCED00"/>
<path d="M58.666 279.421C58.5901 279.689 58.4383 279.876 58.3312 279.845C58.224 279.814 58.2017 279.572 58.2776 279.305C58.3535 279.037 58.5053 278.849 58.6124 278.88C58.7196 278.912 58.7419 279.153 58.666 279.421Z" fill="#7A7A00"/>
<path d="M59.5857 274.76C59.4563 275.014 59.2688 275.179 59.1705 275.13C59.0678 275.081 59.0902 274.831 59.2196 274.577C59.3491 274.322 59.5366 274.157 59.6349 274.206C59.7375 274.255 59.7152 274.505 59.5857 274.76Z" fill="#DCED00"/>
<path d="M59.6259 274.782C59.4964 275.036 59.3089 275.202 59.2107 275.153C59.108 275.103 59.1303 274.853 59.2553 274.599C59.3848 274.344 59.5723 274.179 59.6705 274.228C59.7732 274.277 59.7509 274.527 59.6214 274.782H59.6259Z" fill="#7A7A00"/>
<path d="M71.2427 278.224C71.2427 278.224 70.9213 278.791 70.5552 279.412C70.1891 280.037 69.573 280.773 69.573 280.773C69.573 280.773 70.4837 280.394 70.9302 279.706C71.3767 279.019 71.2427 278.22 71.2427 278.22V278.224Z" fill="#9CA000"/>
<path d="M63.9967 271.407C63.9967 271.407 62.9967 271.817 62.4743 272.157C61.952 272.496 61.1394 273.193 61.1394 273.193C61.1394 273.193 61.6975 271.942 62.4475 271.536C63.1708 271.143 64.0012 271.411 64.0012 271.411L63.9967 271.407Z" fill="#9CA000"/>
<path d="M60.7197 276.237C60.7197 276.237 60.943 277.523 62.2779 278.675C63.7869 279.979 65.0593 280.22 65.0593 280.22C65.0593 280.22 63.4788 280.198 61.8493 278.867C60.7063 277.934 60.7197 276.237 60.7197 276.237Z" fill="#9CA000"/>
<path d="M58.2107 266.5C57.0946 266.5 56.1838 265.464 56.0052 264.397C55.7998 263.174 56.34 261.964 56.7686 261.161C56.8937 260.928 57.0231 260.696 57.1481 260.469C57.541 259.768 57.9518 259.04 58.1527 258.263C58.3804 257.406 58.3491 256.151 57.5276 255.433C57.2374 255.178 56.8803 255.017 56.5052 254.848C56.2642 254.74 56.0186 254.629 55.7864 254.49C54.4247 253.678 53.7327 251.861 54.2194 250.347C54.4605 249.593 54.9426 248.954 55.407 248.343C55.5811 248.115 55.7507 247.887 55.9114 247.655C56.3222 247.057 56.9472 245.901 56.5231 244.887C56.3222 244.405 55.9249 244.043 55.5052 243.664C55.3177 243.494 55.1257 243.32 54.9516 243.133C54.1256 242.253 53.6792 241.057 53.7194 239.847C53.7595 238.641 54.2908 237.48 55.1748 236.655C55.2507 236.583 55.3712 236.588 55.4427 236.663C55.5141 236.739 55.5096 236.86 55.4337 236.931C54.6212 237.686 54.1345 238.753 54.0988 239.86C54.0587 240.967 54.4694 242.066 55.2284 242.874C55.3936 243.048 55.5766 243.217 55.7597 243.383C56.1927 243.776 56.6347 244.177 56.8713 244.74C57.3624 245.914 56.6749 247.2 56.2195 247.865C56.0543 248.102 55.8802 248.338 55.7061 248.57C55.2418 249.187 54.7998 249.771 54.5765 250.463C54.1435 251.816 54.7596 253.441 55.9784 254.165C56.1927 254.294 56.4293 254.397 56.6615 254.504C57.0455 254.678 57.4473 254.857 57.7776 255.147C58.7331 255.977 58.7732 257.397 58.5232 258.361C58.3045 259.183 57.8848 259.933 57.483 260.656C57.3535 260.884 57.2285 261.111 57.1035 261.344C56.7017 262.103 56.1927 263.237 56.3802 264.344C56.541 265.29 57.4116 266.255 58.4072 266.116C58.5098 266.103 58.6036 266.174 58.617 266.277C58.6304 266.38 58.5589 266.473 58.4563 266.487C58.3759 266.496 58.2955 266.505 58.2152 266.505L58.2107 266.5Z" fill="#FF8A8A"/>
<path d="M55.8489 234.663H55.34H55.215H54.706L53.6925 237.199H55.215H55.34H56.8624L55.8489 234.663Z" fill="#C94EFF"/>
<path d="M65.6174 225.685C65.6174 231.168 61.0055 235.614 55.3132 235.614C54.7729 235.614 54.2461 235.574 53.7327 235.503C53.7238 235.503 53.7193 235.503 53.7193 235.503C48.777 234.766 45 230.654 45 225.69C45 220.725 49.027 216.359 54.197 215.827C54.5631 215.787 54.9337 215.765 55.3042 215.765C60.9966 215.765 65.6085 220.207 65.6085 225.69L65.6174 225.685Z" fill="#C94EFF"/>
<path d="M55.7864 223.498C56.8368 223.498 57.6883 222.646 57.6883 221.596C57.6883 220.545 56.8368 219.694 55.7864 219.694C54.736 219.694 53.8845 220.545 53.8845 221.596C53.8845 222.646 54.736 223.498 55.7864 223.498Z" fill="#E9A9FF"/>
<path d="M51.9156 226.038C51.9156 226.842 51.2638 227.498 50.4557 227.498C49.6476 227.498 48.9958 226.846 48.9958 226.038C48.9958 225.23 49.6476 224.578 50.4557 224.578C51.2638 224.578 51.9156 225.23 51.9156 226.038Z" fill="#E9A9FF"/>
<path d="M55.7194 226.542C55.7194 226.962 55.3801 227.301 54.9605 227.301C54.5408 227.301 54.2015 226.962 54.2015 226.542C54.2015 226.123 54.5408 225.783 54.9605 225.783C55.3801 225.783 55.7194 226.123 55.7194 226.542Z" fill="#E9A9FF"/>
<path d="M60.6037 227.94C61.9006 227.94 62.952 226.888 62.952 225.591C62.952 224.294 61.9006 223.243 60.6037 223.243C59.3067 223.243 58.2553 224.294 58.2553 225.591C58.2553 226.888 59.3067 227.94 60.6037 227.94Z" fill="#E9A9FF"/>
<path d="M59.8447 231.302C59.8447 232.003 59.2777 232.57 58.5768 232.57C57.8758 232.57 57.3088 232.003 57.3088 231.302C57.3088 230.601 57.8758 230.034 58.5768 230.034C59.2777 230.034 59.8447 230.601 59.8447 231.302Z" fill="#E9A9FF"/>
<path d="M56.2284 231.11C56.2284 231.529 55.8891 231.869 55.4694 231.869C55.0497 231.869 54.7104 231.529 54.7104 231.11C54.7104 230.69 55.0497 230.351 55.4694 230.351C55.8891 230.351 56.2284 230.69 56.2284 231.11Z" fill="#E9A9FF"/>
<path d="M50.7102 231.172C50.7102 231.699 50.286 232.123 49.7592 232.123C49.2324 232.123 48.8083 231.699 48.8083 231.172C48.8083 230.645 49.2324 230.221 49.7592 230.221C50.286 230.221 50.7102 230.645 50.7102 231.172Z" fill="#E9A9FF"/>
<path d="M49.5673 220.774C50.164 220.774 50.6477 220.29 50.6477 219.694C50.6477 219.097 50.164 218.613 49.5673 218.613C48.9706 218.613 48.4869 219.097 48.4869 219.694C48.4869 220.29 48.9706 220.774 49.5673 220.774Z" fill="#E9A9FF"/>
<path opacity="0.38" d="M65.6174 225.685C65.6174 231.168 61.0055 235.614 55.3132 235.614C54.773 235.614 54.2462 235.574 53.7327 235.503C53.7238 235.503 53.7193 235.503 53.7193 235.503C53.7193 235.503 60.1706 233.61 60.3135 226.346C60.4519 219.194 54.3935 215.926 54.2015 215.827C54.5676 215.787 54.9382 215.765 55.3087 215.765C61.0011 215.765 65.613 220.207 65.613 225.69L65.6174 225.685Z" fill="#6C0A9C"/>
<path opacity="0.29" d="M50.4557 218.082C46.9332 220.997 45.9287 223.056 46.0224 226.038C46.1162 229.02 47.4154 230.377 49.7593 230.855C52.1032 231.328 53.3845 229.873 53.0497 227.944C52.7193 226.016 51.7281 224.542 51.9157 222.122C52.0987 219.703 53.1523 219.18 53.1032 218.086C53.0497 216.993 51.1299 217.533 50.4557 218.086V218.082Z" fill="#F7DEFF"/>
<path d="M108.802 245.161C108.802 245.161 116.187 239.45 116.566 239.107C116.946 238.763 116.888 237.897 116.651 237.316C116.414 236.736 116.133 236.361 116.294 236.254C116.455 236.147 116.789 236.642 117.013 237.156C117.236 237.669 117.164 238.071 117.164 238.071C117.164 238.071 117.374 237.633 117.245 237.084C117.08 236.397 116.522 235.785 116.562 235.655C116.602 235.526 117.285 235.932 117.638 236.722C117.892 237.294 117.87 237.7 117.87 237.7C117.87 237.7 118.089 237.303 117.932 236.718C117.776 236.133 117.392 235.78 117.464 235.544C117.535 235.307 118.187 236.044 118.379 236.736C118.549 237.352 118.249 238.272 118.249 238.272C118.249 238.272 118.589 237.821 118.857 237.633C119.124 237.446 119.491 237.66 119.491 237.66C119.491 237.66 119.035 238.031 118.767 238.535C118.499 239.04 117.173 239.406 117.004 239.517C116.834 239.629 113.164 243.772 113.164 243.772C113.164 243.772 109.186 245.339 108.807 245.165L108.802 245.161Z" fill="#68004D"/>
<path d="M99.958 247.062C99.958 247.062 91.0021 249.683 90.5021 249.79C90.0021 249.897 89.3324 249.339 89.002 248.808C88.6716 248.277 88.5511 247.875 88.368 247.942C88.185 248.009 88.3725 248.522 88.6582 249.009C88.944 249.496 89.3101 249.67 89.3101 249.67C89.3101 249.67 88.8323 249.585 88.4663 249.156C88.0064 248.621 87.8412 247.808 87.7117 247.763C87.5823 247.719 87.5108 248.513 87.9439 249.259C88.2564 249.804 88.6002 250.022 88.6002 250.022C88.6002 250.022 88.1493 249.969 87.7653 249.496C87.3814 249.022 87.3233 248.509 87.0912 248.424C86.859 248.344 87.1045 249.241 87.4438 249.781C87.8233 250.389 88.9127 250.697 88.9127 250.697C88.9127 250.697 88.2743 250.665 87.9662 250.773C87.6582 250.88 87.6135 251.299 87.6135 251.299C87.6135 251.299 88.1805 251.148 88.7475 251.228C89.3145 251.308 90.386 250.451 90.578 250.375C90.77 250.304 96.2792 249.768 96.2792 249.768C96.2792 249.768 99.8822 247.469 99.967 247.058L99.958 247.062Z" fill="#68004D"/>
<path d="M90.8369 231.852C90.8459 231.892 90.8548 231.936 90.8682 231.981C91.0066 232.57 91.2343 233.191 91.578 233.816C91.6941 234.026 91.8191 234.227 91.9531 234.419C92.2745 234.888 92.6451 235.303 93.0156 235.66C94.3238 236.91 95.7345 237.49 95.7345 237.49C95.7345 237.49 97.1632 236.566 97.5784 234.687C97.8284 233.557 97.3552 232.655 97.2882 232.535L97.2793 232.521C97.2168 232.49 97.1543 232.454 97.0918 232.423C96.8507 232.294 96.6185 232.164 96.3953 232.035C96.1408 231.892 95.8998 231.744 95.6721 231.602C94.9667 231.164 94.3818 230.749 93.8907 230.365C93.6719 230.195 93.4755 230.03 93.2924 229.874C91.8236 228.61 91.4664 227.834 91.2075 228.061C90.9575 228.28 90.5869 229.325 90.6717 230.731C90.6941 231.084 90.7432 231.459 90.8325 231.852H90.8369Z" fill="#FF7F00"/>
<path d="M91.9486 234.414C92.27 234.883 92.6406 235.298 93.0111 235.655C93.3103 235.544 93.9934 235.205 94.9443 234.249C96.2435 232.945 96.3953 232.03 96.3953 232.03C96.1408 231.887 95.8997 231.74 95.672 231.597C95.4577 231.981 94.9309 232.834 94.105 233.477C93.3281 234.079 92.4129 234.325 91.9486 234.419V234.414Z" fill="#FFF594"/>
<path d="M90.8369 231.852C91.2209 231.852 91.7745 231.785 92.4084 231.508C93.1853 231.168 93.654 230.677 93.8951 230.365C93.6764 230.195 93.4799 230.03 93.2969 229.874C93.0558 230.048 92.6852 230.262 92.1138 230.472C91.5066 230.691 91.0289 230.744 90.6762 230.731C90.6985 231.084 90.7476 231.459 90.8369 231.852Z" fill="#FFF594"/>
<path opacity="0.13" d="M90.8637 231.977C91.0021 232.566 91.2298 233.186 91.5735 233.811C92.9576 236.338 95.7301 237.486 95.7301 237.486C95.7301 237.486 97.1587 236.562 97.5739 234.682C97.8239 233.553 97.3507 232.651 97.2837 232.53L97.0873 232.419C97.0873 232.419 94.6853 233.361 92.7477 232.887C91.8593 232.669 91.2521 232.307 90.8592 231.981L90.8637 231.977Z" fill="#590800"/>
<path opacity="0.67" d="M96.239 232.816C96.3953 232.865 96.4935 232.646 96.3507 232.561C95.739 232.209 94.9041 231.686 94.1452 231.084C93.4621 230.539 92.8772 230.008 92.4531 229.601C92.3325 229.485 92.1495 229.642 92.2432 229.78C92.5959 230.298 93.1451 230.972 93.9577 231.633C94.7256 232.253 95.5872 232.615 96.239 232.816Z" fill="white"/>
<path d="M114.763 264.586L113.928 265.309C113.928 265.309 112.463 262.831 111.664 262.519C111.231 262.349 108.414 262.537 105.789 262.827C103.601 263.072 101.547 263.389 101.128 263.635C100.213 264.18 99.8643 266.05 99.8643 266.05L98.9446 266.117C98.9446 266.117 97.1766 261.755 96.2926 255.576C95.8729 252.634 95.4756 248.094 95.1988 244.026C94.8907 239.562 94.73 235.66 94.8327 235.071C95.0113 234.07 100.842 230.012 103.601 229.034C103.927 228.918 104.208 228.842 104.432 228.825C106.566 228.633 110.887 231.865 111.619 232.883C112.356 233.901 113.879 255.835 114.356 258.938C114.834 262.041 114.758 264.586 114.758 264.586H114.763Z" fill="url(#paint19_linear_199_5116)"/>
<path d="M98.9803 256.858C99.2214 257.974 99.0562 258.956 98.6097 259.054C98.1633 259.152 97.6052 258.326 97.3641 257.21C97.123 256.094 97.2882 255.112 97.7347 255.014C98.1812 254.916 98.7392 255.742 98.9803 256.858Z" fill="#68004D"/>
<path d="M99.1589 256.817C99.4 257.934 99.2348 258.916 98.7883 259.014C98.3419 259.112 97.7838 258.286 97.5427 257.17C97.3016 256.054 97.4668 255.072 97.9133 254.974C98.3597 254.875 98.9178 255.701 99.1589 256.817Z" fill="#FF7F00"/>
<path d="M97.3374 252.585C97.4445 253.072 97.3642 253.505 97.1588 253.545C96.9534 253.585 96.7034 253.228 96.6007 252.742C96.4936 252.255 96.5739 251.822 96.7793 251.782C96.9847 251.741 97.2347 252.099 97.3374 252.585Z" fill="#68004D"/>
<path d="M97.4177 252.567C97.5249 253.054 97.4445 253.487 97.2391 253.527C97.0337 253.572 96.7837 253.21 96.681 252.724C96.5739 252.237 96.6543 251.804 96.8596 251.764C97.065 251.719 97.315 252.081 97.4177 252.567Z" fill="#FF7F00"/>
<path d="M98.4356 250.938C98.5427 251.424 98.4624 251.858 98.257 251.898C98.0517 251.942 97.8016 251.581 97.699 251.094C97.5918 250.607 97.6722 250.174 97.8775 250.134C98.0829 250.09 98.3329 250.451 98.4356 250.938Z" fill="#68004D"/>
<path d="M98.516 250.92C98.6231 251.406 98.5427 251.839 98.3374 251.88C98.132 251.924 97.882 251.563 97.7793 251.076C97.6722 250.589 97.7525 250.156 97.9579 250.116C98.1633 250.072 98.4133 250.433 98.516 250.92Z" fill="#FF7F00"/>
<path d="M96.7302 245.107C96.824 245.549 96.7525 245.938 96.5695 245.978C96.3864 246.018 96.1587 245.692 96.0605 245.25C95.9668 244.808 96.0382 244.42 96.2212 244.379C96.4043 244.339 96.632 244.665 96.7302 245.107Z" fill="#68004D"/>
<path d="M96.8061 245.089C96.8998 245.531 96.8284 245.92 96.6453 245.96C96.4623 246 96.2346 245.674 96.1364 245.232C96.0381 244.79 96.114 244.402 96.2971 244.361C96.4801 244.321 96.7078 244.647 96.8061 245.089Z" fill="#FF7F00"/>
<path d="M96.6185 247.254C96.6632 247.469 96.6319 247.661 96.5382 247.679C96.4489 247.696 96.3373 247.54 96.2926 247.326C96.248 247.112 96.2792 246.92 96.373 246.902C96.4623 246.884 96.5739 247.04 96.6185 247.254Z" fill="#68004D"/>
<path d="M96.6542 247.245C96.6989 247.46 96.6676 247.652 96.5739 247.67C96.4801 247.687 96.373 247.531 96.3283 247.317C96.2837 247.103 96.3149 246.911 96.4087 246.893C96.498 246.875 96.6096 247.031 96.6542 247.245Z" fill="#FF7F00"/>
<path d="M98.9446 253.84C99.0294 254.224 98.9669 254.563 98.8062 254.599C98.6455 254.634 98.449 254.349 98.3642 253.965C98.2794 253.581 98.3419 253.241 98.5026 253.206C98.6633 253.17 98.8598 253.456 98.9446 253.84Z" fill="#68004D"/>
<path d="M99.0071 253.826C99.0919 254.21 99.0294 254.549 98.8687 254.585C98.708 254.621 98.5115 254.335 98.4267 253.951C98.3419 253.567 98.4044 253.228 98.5651 253.192C98.7258 253.157 98.9223 253.442 99.0071 253.826Z" fill="#FF7F00"/>
<path d="M106.118 244.192C108.311 244.036 109.915 241.457 109.7 238.432C109.485 235.407 107.532 233.081 105.338 233.237C103.144 233.393 101.54 235.972 101.755 238.997C101.971 242.023 103.924 244.348 106.118 244.192Z" fill="#68004D"/>
<path d="M101.338 239.522C101.784 242.522 100.788 245.156 99.1142 245.406C97.44 245.656 95.7167 243.428 95.2658 240.428C94.8193 237.428 95.8149 234.794 97.4891 234.544C99.1634 234.294 100.887 236.522 101.338 239.522Z" fill="#68004D"/>
<path d="M102.275 239.267C102.623 241.924 104.32 243.83 106.066 243.522C107.807 243.214 108.936 240.812 108.588 238.156C108.24 235.499 106.543 233.593 104.798 233.901C103.052 234.209 101.927 236.611 102.275 239.267Z" fill="#CAE7EF"/>
<path d="M105.724 243.35C107.398 243.186 108.553 240.992 108.304 238.45C108.055 235.908 106.497 233.979 104.823 234.143C103.15 234.307 101.995 236.501 102.243 239.043C102.492 241.585 104.051 243.514 105.724 243.35Z" fill="white"/>
<path d="M103.583 239.053C103.802 240.723 104.869 241.919 105.963 241.727C107.057 241.535 107.767 240.026 107.548 238.357C107.329 236.687 106.262 235.49 105.168 235.682C104.074 235.874 103.365 237.383 103.583 239.053Z" fill="url(#paint20_linear_199_5116)"/>
<path d="M104.15 238.99C104.307 240.183 105.07 241.04 105.851 240.901C106.633 240.763 107.142 239.682 106.985 238.49C106.829 237.298 106.066 236.441 105.284 236.58C104.503 236.718 103.994 237.798 104.15 238.99Z" fill="#590800"/>
<path d="M105.905 237.897C105.994 238.589 106.57 239.062 107.191 238.955C107.811 238.848 108.235 238.196 108.146 237.504C108.057 236.812 107.481 236.339 106.86 236.446C106.24 236.553 105.816 237.205 105.905 237.897Z" fill="white"/>
<path d="M105.333 239.357C105.365 239.611 105.579 239.785 105.802 239.745C106.03 239.705 106.186 239.468 106.15 239.214C106.115 238.959 105.905 238.785 105.682 238.825C105.454 238.865 105.298 239.102 105.333 239.357Z" fill="white"/>
<path d="M96.1141 240.924C96.7078 243.379 98.2972 244.982 99.6634 244.5C101.03 244.018 101.659 241.638 101.065 239.178C100.471 236.722 98.8821 235.12 97.5159 235.602C96.1497 236.084 95.5203 238.464 96.1141 240.924Z" fill="#CAE7EF"/>
<path d="M96.114 240.924C96.681 243.263 98.1945 244.785 99.4982 244.33C100.802 243.87 101.396 241.602 100.833 239.263C100.266 236.923 98.7526 235.401 97.4489 235.856C96.1453 236.316 95.5515 238.584 96.114 240.924Z" fill="white"/>
<path d="M99.8668 242.746C100.753 242.577 101.23 241.173 100.932 239.611C100.634 238.049 99.6741 236.919 98.7876 237.089C97.9011 237.258 97.4241 238.661 97.7221 240.223C98.0201 241.786 98.9803 242.915 99.8668 242.746Z" fill="url(#paint21_linear_199_5116)"/>
<path d="M98.2124 240.352C98.4802 241.455 99.1946 242.174 99.8062 241.959C100.422 241.741 100.704 240.674 100.436 239.571C100.168 238.468 99.4535 237.749 98.8419 237.964C98.2302 238.178 97.9445 239.249 98.2124 240.352Z" fill="#590800"/>
<path d="M98.9937 239.535C99.1499 240.174 99.6678 240.557 100.154 240.383C100.641 240.214 100.909 239.553 100.753 238.915C100.596 238.276 100.079 237.892 99.5919 238.066C99.1053 238.236 98.8374 238.897 98.9937 239.535Z" fill="white"/>
<path d="M98.6097 240.803C98.6677 241.035 98.8553 241.178 99.0338 241.116C99.2124 241.053 99.3106 240.812 99.2526 240.58C99.1946 240.348 99.0071 240.205 98.8285 240.267C98.6499 240.33 98.5517 240.571 98.6097 240.803Z" fill="white"/>
<path d="M114.763 264.586L113.928 265.309C113.928 265.309 112.463 262.831 111.664 262.519C110.869 262.206 102.047 263.095 101.128 263.635C100.213 264.18 99.8643 266.05 99.8643 266.05C99.8643 266.05 99.9759 263.461 100.663 262.787C101.351 262.112 109.584 261.193 110.637 259.425C111.691 257.652 111.816 242.825 110.584 237.446C109.352 232.066 103.601 229.034 103.601 229.034C103.927 228.918 104.208 228.842 104.432 228.825C106.566 228.633 110.887 231.865 111.62 232.883C112.356 233.901 113.879 255.835 114.356 258.938C114.834 262.041 114.758 264.586 114.758 264.586H114.763Z" fill="#68004D"/>
<path d="M116.196 229.776C116.196 229.82 116.187 229.86 116.187 229.905C116.133 230.508 115.995 231.155 115.745 231.82C115.66 232.044 115.566 232.262 115.459 232.472C115.205 232.986 114.901 233.446 114.58 233.852C113.459 235.272 112.146 236.048 112.146 236.048C112.146 236.048 110.602 235.334 109.923 233.535C109.517 232.454 109.856 231.49 109.905 231.361V231.347C109.968 231.307 110.026 231.262 110.084 231.222C110.307 231.057 110.517 230.896 110.718 230.74C110.95 230.561 111.164 230.383 111.374 230.209C112.008 229.677 112.53 229.182 112.963 228.735C113.155 228.534 113.329 228.347 113.486 228.164C114.763 226.704 115.004 225.887 115.289 226.075C115.566 226.253 116.084 227.24 116.2 228.642C116.227 228.994 116.231 229.374 116.2 229.776H116.196Z" fill="#FF7F00"/>
<path d="M115.459 232.472C115.205 232.986 114.901 233.445 114.579 233.852C114.271 233.78 113.544 233.544 112.468 232.731C110.999 231.624 110.718 230.74 110.718 230.74C110.95 230.561 111.164 230.383 111.374 230.209C111.642 230.561 112.285 231.329 113.191 231.847C114.048 232.334 114.986 232.45 115.459 232.472Z" fill="#FFF594"/>
<path d="M116.196 229.776C115.812 229.829 115.258 229.843 114.593 229.655C113.776 229.427 113.24 229.012 112.959 228.731C113.151 228.53 113.325 228.342 113.481 228.159C113.745 228.298 114.142 228.459 114.736 228.584C115.365 228.718 115.852 228.7 116.196 228.637C116.222 228.99 116.227 229.369 116.196 229.771V229.776Z" fill="#FFF594"/>
<path opacity="0.13" d="M116.187 229.909C116.133 230.512 115.995 231.16 115.745 231.825C114.731 234.526 112.151 236.048 112.151 236.048C112.151 236.048 110.606 235.334 109.927 233.535C109.521 232.454 109.86 231.49 109.91 231.36L110.088 231.222C110.088 231.222 112.602 231.816 114.45 231.07C115.298 230.727 115.847 230.285 116.191 229.905L116.187 229.909Z" fill="#590800"/>
<path opacity="0.67" d="M110.986 231.499C110.838 231.57 110.709 231.365 110.838 231.262C111.396 230.825 112.146 230.191 112.812 229.485C113.41 228.851 113.914 228.24 114.276 227.78C114.379 227.65 114.584 227.78 114.508 227.927C114.231 228.49 113.785 229.235 113.075 230.003C112.405 230.726 111.602 231.204 110.986 231.499Z" fill="white"/>
<path d="M114.763 264.586C114.763 264.586 117.464 262.304 117.865 262.398C118.267 262.492 116.383 264.47 116.383 264.47C116.383 264.47 118.857 263.22 119.169 263.461C119.54 263.742 116.767 265.184 116.767 265.184C116.767 265.184 119.053 265.162 118.915 265.631C118.812 265.988 114.959 265.756 114.468 265.595C114.048 265.456 113.928 265.305 113.928 265.305L114.763 264.581V264.586Z" fill="#68004D"/>
<path d="M98.9446 266.117C98.9446 266.117 95.0961 266.425 95.2345 266.823C95.3729 267.22 98.1365 266.863 98.1365 266.863C98.1365 266.863 96.1006 267.988 96.2033 268.349C96.3016 268.711 98.8776 267.492 98.8776 267.492C98.8776 267.492 98.2928 269.416 98.7615 269.457C99.2303 269.497 99.8598 266.05 99.8598 266.05L98.9401 266.117H98.9446Z" fill="#68004D"/>
<path d="M103.088 229.235C103.088 229.235 99.7482 225.717 100.119 225.369C100.489 225.021 103.525 228.664 103.525 228.664C103.525 228.664 101.695 223.289 102.333 222.972C102.976 222.655 104.565 228.418 104.565 228.418C104.565 228.418 104.807 222.793 106.164 222.552C107.521 222.306 105.351 228.066 105.351 228.066C105.351 228.066 107.601 226.503 108.311 226.825C109.021 227.142 105.833 229.039 105.833 229.039L103.092 229.235H103.088Z" fill="#3F0300"/>
<path d="M109.954 254.938C109.901 255.666 110.097 256.273 110.387 256.295C110.678 256.318 110.959 255.742 111.008 255.014C111.061 254.286 110.865 253.679 110.575 253.657C110.285 253.634 110.003 254.21 109.954 254.938Z" fill="#68004D"/>
<path d="M109.834 254.929C109.78 255.657 109.977 256.264 110.267 256.286C110.557 256.309 110.838 255.733 110.887 255.005C110.941 254.277 110.744 253.67 110.454 253.648C110.164 253.625 109.883 254.201 109.834 254.929Z" fill="#FF7F00"/>
<path d="M108.874 252.857C108.847 253.223 108.945 253.531 109.093 253.54C109.24 253.549 109.378 253.264 109.405 252.898C109.432 252.531 109.334 252.223 109.186 252.214C109.039 252.206 108.901 252.491 108.874 252.857Z" fill="#68004D"/>
<path d="M108.811 252.853C108.785 253.219 108.883 253.527 109.03 253.536C109.177 253.545 109.316 253.259 109.343 252.893C109.369 252.527 109.271 252.219 109.124 252.21C108.976 252.201 108.838 252.487 108.811 252.853Z" fill="#FF7F00"/>
<path d="M109.972 251.518C109.981 252.228 110.222 252.799 110.503 252.795C110.789 252.795 111.008 252.21 110.999 251.5C110.99 250.79 110.749 250.219 110.468 250.223C110.182 250.223 109.963 250.808 109.972 251.518Z" fill="#68004D"/>
<path d="M109.856 251.523C109.865 252.233 110.106 252.804 110.387 252.8C110.673 252.8 110.892 252.215 110.883 251.505C110.874 250.795 110.633 250.223 110.352 250.228C110.066 250.228 109.847 250.813 109.856 251.523Z" fill="#FF7F00"/>
<path d="M110.347 247.607C110.352 247.96 110.472 248.241 110.611 248.237C110.749 248.237 110.861 247.951 110.856 247.598C110.852 247.245 110.731 246.964 110.593 246.969C110.454 246.969 110.343 247.254 110.347 247.607Z" fill="#68004D"/>
<path d="M110.294 247.611C110.298 247.964 110.419 248.245 110.557 248.241C110.695 248.241 110.807 247.955 110.802 247.602C110.798 247.25 110.677 246.968 110.539 246.973C110.401 246.973 110.289 247.259 110.294 247.611Z" fill="#FF7F00"/>
<path d="M110.262 243.544C110.267 243.897 110.387 244.178 110.526 244.174C110.664 244.174 110.776 243.888 110.771 243.535C110.767 243.183 110.646 242.901 110.508 242.906C110.369 242.906 110.258 243.192 110.262 243.544Z" fill="#68004D"/>
<path d="M110.204 243.544C110.209 243.897 110.329 244.178 110.468 244.174C110.606 244.174 110.718 243.888 110.713 243.535C110.709 243.183 110.588 242.901 110.45 242.906C110.311 242.906 110.2 243.192 110.204 243.544Z" fill="#FF7F00"/>
<path d="M109.2 243.562C109.2 243.83 109.293 244.044 109.401 244.044C109.508 244.044 109.593 243.826 109.588 243.558C109.588 243.29 109.494 243.076 109.387 243.076C109.28 243.076 109.195 243.294 109.2 243.562Z" fill="#68004D"/>
<path d="M109.155 243.562C109.155 243.83 109.249 244.044 109.356 244.044C109.463 244.044 109.548 243.826 109.543 243.558C109.543 243.29 109.45 243.076 109.343 243.076C109.235 243.076 109.151 243.294 109.155 243.562Z" fill="#FF7F00"/>
<path d="M109.405 233.78C109.405 233.78 108.186 233.097 106.958 232.968C105.731 232.843 103.9 232.856 103.9 232.856L104.534 232.508C104.534 232.508 104.28 232.445 103.945 232.119C103.682 231.865 103.24 230.985 103.24 230.985C103.24 230.985 104.557 231.07 106.048 231.195C108.119 231.369 109.204 232.512 109.204 232.512L108.785 232.521C108.785 232.521 109.316 233.294 109.41 233.78H109.405Z" fill="#3F0300"/>
<path opacity="0.61" d="M108.597 232.222C108.597 232.222 107.963 231.669 106.749 231.419C105.534 231.169 104.298 231.24 104.298 231.24L105.106 231.508L103.887 231.378C103.887 231.378 104.356 231.896 105.766 231.901C107.646 231.905 108.543 232.664 108.543 232.664L108.213 232.142L108.601 232.222H108.597Z" fill="#8C130D"/>
<path d="M96.0337 234.731C96.0337 234.731 96.8016 234.057 97.6097 233.776C98.7124 233.387 99.6768 233.343 99.6768 233.343L99.208 233.115C99.208 233.115 99.3732 233.035 99.5652 232.718C99.717 232.472 99.9223 231.673 99.9223 231.673C99.9223 231.673 99.5607 231.7 98.0383 232.16C96.3864 232.66 96.0337 233.624 96.0337 233.624L96.3194 233.584C96.3194 233.584 96.0426 234.298 96.0337 234.722V234.731Z" fill="#3F0300"/>
<path opacity="0.61" d="M96.4176 233.374C96.4176 233.374 96.7882 232.834 97.5874 232.49C98.3865 232.146 99.3687 231.986 99.3687 231.986L98.7124 232.383L99.525 232.142C99.525 232.142 99.1187 232.508 98.3062 232.789C97.4891 233.07 96.498 233.745 96.498 233.745L96.6677 233.267L96.4132 233.379L96.4176 233.374Z" fill="#8C130D"/>
<path opacity="0.24" d="M98.8999 246.165C98.8999 246.165 100.074 248.839 102.199 249.259C104.32 249.683 105.851 248.107 105.851 248.107C105.851 248.107 103.789 249.478 101.922 248.79C100.083 248.116 98.8999 246.165 98.8999 246.165Z" fill="white"/>
<path d="M109.16 244.821L108.668 246.746L109.182 248.21L107.289 248.219L107.476 248.683C107.476 248.683 106.436 249.714 104.878 250.241C103.333 250.764 101.57 250.594 101.57 250.594L99.7705 248.947L98.007 248.17L98.141 245.678C98.141 245.678 100.074 250.295 103.177 249.866C106.856 249.357 109.155 244.826 109.155 244.826L109.16 244.821Z" fill="#68004D"/>
<path d="M98.5249 246.71L97.9222 248.406L99.3017 247.915L98.5249 246.71Z" fill="white"/>
<path d="M99.8107 248.451L99.4089 249.46L100.413 249.147L99.8107 248.451Z" fill="white"/>
<path d="M101.489 249.732L101.565 250.853L102.521 250.049L101.489 249.732Z" fill="white"/>
<path d="M103.932 249.875L105.155 250.505L105.231 249.469L103.932 249.875Z" fill="white"/>
<path d="M107.387 247.397L109.182 248.21L108.409 246.009L107.387 247.397Z" fill="white"/>
<path d="M106.146 248.647L107.476 248.683L107.097 247.755L106.146 248.647Z" fill="white"/>
<path d="M98.2526 245.607C98.2526 245.607 100.003 250.005 103.226 249.701C106.45 249.397 109.115 244.71 109.115 244.71L109.24 244.732C109.24 244.732 106.86 249.996 103.28 250.25C99.6232 250.509 98.1588 245.781 98.1588 245.781L98.257 245.607H98.2526Z" fill="#590800"/>
<path d="M107.749 244.21C107.749 244.21 108.427 244.397 109.164 244.955C109.905 245.518 110.177 246.076 110.177 246.076C110.177 246.076 109.932 245.013 109.302 244.455C108.673 243.897 107.749 244.21 107.749 244.21Z" fill="#68004D"/>
<path d="M99.0071 244.991C99.0071 244.991 98.4981 245.486 98.1633 245.924C97.8284 246.366 97.5963 247.424 97.5963 247.424C97.5963 247.424 97.4177 246.477 97.757 245.817C98.141 245.067 99.0071 244.986 99.0071 244.986V244.991Z" fill="#68004D"/>
<path d="M119.129 237.093C117.807 237.093 116.731 235.865 116.517 234.602C116.272 233.155 116.914 231.718 117.419 230.767C117.566 230.49 117.718 230.218 117.87 229.945C118.339 229.115 118.821 228.253 119.062 227.334C119.33 226.316 119.294 224.829 118.321 223.981C117.977 223.682 117.553 223.49 117.106 223.289C116.821 223.159 116.531 223.03 116.254 222.865C114.638 221.905 113.825 219.748 114.396 217.958C114.682 217.065 115.254 216.311 115.803 215.583C116.008 215.315 116.209 215.043 116.401 214.766C116.888 214.056 117.624 212.685 117.129 211.489C116.892 210.917 116.423 210.493 115.923 210.042C115.705 209.841 115.477 209.636 115.272 209.417C114.294 208.373 113.767 206.957 113.816 205.529C113.865 204.1 114.495 202.725 115.539 201.752C115.629 201.667 115.772 201.671 115.856 201.765C115.941 201.854 115.937 201.997 115.843 202.082C114.883 202.975 114.307 204.238 114.263 205.551C114.218 206.864 114.705 208.163 115.597 209.123C115.789 209.328 116.013 209.529 116.227 209.725C116.736 210.19 117.267 210.667 117.544 211.333C118.124 212.726 117.312 214.248 116.772 215.034C116.58 215.315 116.37 215.592 116.16 215.869C115.606 216.601 115.084 217.288 114.825 218.114C114.312 219.713 115.044 221.641 116.486 222.498C116.74 222.65 117.022 222.775 117.294 222.896C117.749 223.101 118.223 223.315 118.615 223.659C119.745 224.646 119.794 226.325 119.495 227.463C119.236 228.436 118.741 229.325 118.263 230.182C118.111 230.45 117.959 230.722 117.816 230.995C117.343 231.892 116.736 233.236 116.959 234.548C117.147 235.669 118.182 236.812 119.357 236.651C119.477 236.633 119.593 236.723 119.607 236.843C119.624 236.964 119.535 237.08 119.415 237.093C119.316 237.107 119.223 237.111 119.129 237.111V237.093Z" fill="#FF8A8A"/>
<path d="M116.33 199.381H115.727H115.58H114.977L113.776 202.386H115.58H115.727H117.531L116.33 199.381Z" fill="#FF9B48"/>
<path d="M127.902 188.751C127.902 195.247 122.437 200.51 115.696 200.51C115.057 200.51 114.432 200.461 113.825 200.377C113.816 200.377 113.812 200.377 113.812 200.377C107.959 199.501 103.485 194.635 103.485 188.755C103.485 182.875 108.253 177.701 114.379 177.071C114.379 177.071 114.379 177.067 114.383 177.071C114.816 177.022 115.254 177 115.696 177C122.437 177 127.902 182.264 127.902 188.755V188.751Z" fill="#FF9B48"/>
<path d="M116.254 186.161C117.499 186.161 118.508 185.152 118.508 183.907C118.508 182.662 117.499 181.652 116.254 181.652C115.009 181.652 113.999 182.662 113.999 183.907C113.999 185.152 115.009 186.161 116.254 186.161Z" fill="#FFEF9A"/>
<path d="M111.673 189.166C111.673 190.121 110.901 190.894 109.945 190.894C108.99 190.894 108.218 190.121 108.218 189.166C108.218 188.21 108.99 187.438 109.945 187.438C110.901 187.438 111.673 188.21 111.673 189.166Z" fill="#FFEF9A"/>
<path d="M115.28 190.666C115.779 190.666 116.182 190.262 116.182 189.764C116.182 189.266 115.779 188.862 115.28 188.862C114.782 188.862 114.379 189.266 114.379 189.764C114.379 190.262 114.782 190.666 115.28 190.666Z" fill="#FFEF9A"/>
<path d="M124.745 188.639C124.745 190.175 123.5 191.421 121.964 191.421C120.428 191.421 119.182 190.175 119.182 188.639C119.182 187.103 120.428 185.858 121.964 185.858C123.5 185.858 124.745 187.103 124.745 188.639Z" fill="#FFEF9A"/>
<path d="M121.062 195.398C121.062 196.229 120.388 196.903 119.558 196.903C118.727 196.903 118.053 196.229 118.053 195.398C118.053 194.568 118.727 193.894 119.558 193.894C120.388 193.894 121.062 194.568 121.062 195.398Z" fill="#FFEF9A"/>
<path d="M115.879 196.077C116.377 196.077 116.781 195.673 116.781 195.175C116.781 194.677 116.377 194.273 115.879 194.273C115.381 194.273 114.977 194.677 114.977 195.175C114.977 195.673 115.381 196.077 115.879 196.077Z" fill="#FFEF9A"/>
<path d="M110.244 195.251C110.244 195.872 109.74 196.376 109.119 196.376C108.499 196.376 107.994 195.872 107.994 195.251C107.994 194.631 108.499 194.126 109.119 194.126C109.74 194.126 110.244 194.631 110.244 195.251Z" fill="#FFEF9A"/>
<path d="M108.892 182.929C109.597 182.929 110.169 182.357 110.169 181.652C110.169 180.947 109.597 180.375 108.892 180.375C108.186 180.375 107.615 180.947 107.615 181.652C107.615 182.357 108.186 182.929 108.892 182.929Z" fill="#FFEF9A"/>
<path opacity="0.27" d="M127.902 188.862C127.902 195.358 122.437 200.622 115.696 200.622C115.057 200.622 114.432 200.573 113.825 200.488C113.816 200.488 113.812 200.488 113.812 200.488C113.812 200.488 121.451 198.247 121.62 189.644C121.785 181.174 114.606 177.299 114.383 177.183C114.816 177.134 115.254 177.112 115.696 177.112C122.437 177.112 127.902 182.375 127.902 188.867V188.862Z" fill="#FF5E4D"/>
<path opacity="0.29" d="M109.945 179.741C105.771 183.192 104.583 185.634 104.695 189.161C104.807 192.693 106.347 194.305 109.119 194.863C111.892 195.425 113.41 193.697 113.017 191.412C112.624 189.126 111.454 187.385 111.673 184.514C111.892 181.643 113.142 181.027 113.079 179.732C113.017 178.438 110.74 179.076 109.945 179.732V179.741Z" fill="#FFF9DD"/>
<g style="mix-blend-mode:overlay" opacity="0.28">
<path d="M-138.849 173.738C-138.849 173.738 -109.147 183.882 -90.3127 183.882C-71.4785 183.882 -70.7548 182.434 -66.4066 186.053C-62.0585 189.677 -61.3348 191.849 -51.9205 191.125C-42.5063 190.401 -26.567 193.296 -19.3239 196.197C-12.0808 199.097 -4.8378 194.749 3.85843 196.197C12.549 197.644 39.3557 207.788 66.8805 205.611C66.8805 205.611 1.68723 203.44 -35.9812 199.815C-73.6497 196.191 -125.081 183.152 -138.843 173.738H-138.849Z" fill="white"/>
</g>
<g style="mix-blend-mode:overlay" opacity="0.28">
<path d="M101 139C101 139 127.543 144.676 143.726 142.802C159.91 140.929 160.387 139.63 164.485 142.275C168.583 144.92 169.426 146.699 177.446 145.148C185.466 143.597 199.454 144.479 205.97 146.219C212.487 147.966 218.279 143.55 225.893 143.912C233.508 144.274 257.56 150.241 281 145.66C281 145.66 224.755 150.289 192.022 150.95C159.289 151.611 113.778 145.636 101.008 139H101Z" fill="white"/>
</g>
<g style="mix-blend-mode:overlay" opacity="0.28">
<path d="M-264.978 114C-264.978 114 -53.1589 162.673 138.289 173.834C329.736 184.986 452.964 130.224 452.964 130.224L455 138.34C455 138.34 296.138 200.201 38.4898 179.915C-219.158 159.636 -266 140.367 -266 140.367L-264.978 114Z" fill="white"/>
</g>
<path opacity="0.2" d="M-114 -39C-114 -39 25.9239 96.1757 291 109C291 109 289.028 102.09 278.192 100.116C267.356 98.1421 255.526 103.078 252.569 96.168C249.611 89.2584 239.761 69.5246 219.066 68.5452C198.372 67.5659 185.564 79.3954 174.72 72.4935C163.876 65.5917 151.068 52.7597 140.232 53.7468C129.396 54.7338 102.787 62.6305 98.8433 50.7855C94.9001 38.9406 94.9001 18.2274 72.2341 -7.42893C49.5681 -33.0852 -18.4223 12.3049 -29.2585 -2.49354C-40.0948 -17.292 -43.0522 -39 -56.8459 -39H-114Z" fill="white"/>
<path opacity="0.2" d="M191 111.94C191 111.94 19.9634 114.287 -98.1857 89.6113C-216.326 64.9354 -261 28.5062 -261 28.5062C-261 28.5062 -235.136 40.2596 -223.968 39.0815C-212.799 37.9034 -198.694 24.392 -189.293 26.1591C-179.892 27.9262 -172.839 50.8349 -165.197 52.013C-157.555 53.1911 -152.85 46.7208 -122.291 47.3098C-91.7312 47.8988 -89.3742 67.8715 -75.8577 77.2779C-62.3412 86.6752 -23.5504 80.803 -5.32899 80.214C12.8924 79.6249 22.2932 98.4286 34.051 100.776C45.8088 103.123 70.4939 94.3144 75.779 96.0725C81.0641 97.8305 84.5996 104.89 90.474 104.301C96.3483 103.712 95.1789 97.2505 101.053 100.776C106.928 104.301 123.39 109.004 128.086 103.712C132.791 98.4195 190.973 111.94 190.973 111.94H191Z" fill="white"/>
<path opacity="0.2" d="M150 29.5247C150 29.5247 308.199 61.3008 382 55.2288C382 55.2288 366.856 48.7868 358.318 49.6287C349.781 50.4706 343.587 55.3053 333.491 45.7508C323.408 36.1963 295.451 27.3179 280.371 35.7371C265.305 44.1563 253.625 39.9849 249.349 36.6938C245.074 33.4027 240 36.5152 230.664 36.3239C221.315 36.1453 210.344 10.7091 197.196 11.0025C184.048 11.2959 179.992 29.3717 172.123 24.7283C164.255 20.085 150 29.5247 150 29.5247Z" fill="white"/>
<path d="M1.67494 332.291L-6.50337 333.7C-6.50337 333.7 -15.8082 304.093 -16.6547 290.842C-16.6578 290.795 -16.661 290.748 -16.6641 290.704V290.7C-17.1298 282.173 -8.7218 303.791 -3.13324 318.955C-0.389307 326.4 1.67494 332.291 1.67494 332.291Z" fill="url(#paint22_linear_199_5116)"/>
<g style="mix-blend-mode:multiply" opacity="0.46">
<path d="M1.67494 332.291L-6.50336 333.7C-6.50336 333.7 -15.8082 304.093 -16.6547 290.842C-16.6578 290.795 -16.6609 290.748 -16.6641 290.704C-14.839 298.199 -11.1007 312.907 -8.17112 320.276C-6.0408 325.638 -4.30066 322.813 -3.13323 318.955C-0.389297 326.4 1.67494 332.291 1.67494 332.291Z" fill="#4194F2"/>
</g>
<path d="M26.27 250.888C26.27 250.888 25.2536 260.055 24.2341 260.87C23.2146 261.685 20.1623 270.442 20.1623 270.442C20.1623 270.442 18.9382 279.199 18.1232 281.641C17.6008 283.211 15.1464 288.636 13.4598 292.324C13.4598 292.356 13.4598 292.384 13.4629 292.415C13.4661 292.51 13.4661 292.604 13.4692 292.702C13.7681 306.689 14.6901 344.481 14.6901 344.481L4.13291 344.616L0.476429 344.663L-6.35508 344.748L-2.48463 280.537C-2.48463 280.537 -5.92083 273.925 -6.44948 272.607C-6.97813 271.285 -8.56093 260.977 -8.56093 259.394C-8.56093 258.585 -10.622 255.099 -12.6422 251.873C-14.5806 248.774 -16.4875 245.916 -16.4875 245.916L-21.7771 239.84L-26 230.063L-25.6224 229.607L-24.6847 228.477L-19.9237 236.665C-19.9237 236.665 -8.8284 248.824 -7.50363 249.881C-6.18831 250.939 -3.28074 260.715 -3.01327 261.773C-2.78986 262.682 0.769075 270.247 1.75714 272.336C1.91763 272.673 2.00887 272.868 2.00887 272.868L2.02776 272.437L3.3242 241.955V215.79L4.60177 215.551L6.41427 215.214L7.55653 215L10.055 236.221C10.055 236.221 10.0708 236.203 10.0959 236.171H10.0991C10.6214 235.539 15.6971 229.409 15.9488 228.654C16.2131 227.864 16.5404 220.022 16.5404 220.022L18.3057 218.474L18.6518 218.169C18.6518 218.169 19.7091 224.248 19.9766 225.57C20.2378 226.891 18.1232 233.764 17.3334 234.821C16.6159 235.775 11.3452 242.581 10.3571 243.858C10.2533 243.994 10.1966 244.066 10.1966 244.066C10.1966 244.066 10.4641 247.575 10.8134 251.861C11.32 258.028 11.9997 265.81 12.3144 267.059C12.5252 267.912 12.7392 271.024 12.9217 274.592L14.3157 273.617L17.1068 271.66L19.3473 260.662C19.3473 260.662 21.5846 259.444 22.3996 259.032C23.2146 258.629 23.825 250.275 23.825 250.275L25.5054 250.696L26.27 250.888Z" fill="url(#paint23_linear_199_5116)"/>
<g style="mix-blend-mode:overlay" opacity="0.45">
<path d="M26.27 250.888C26.27 250.888 25.2536 260.055 24.2341 260.87C23.2146 261.685 20.1622 270.442 20.1622 270.442C20.1622 270.442 19.3598 278.752 18.5448 281.194C18.0225 282.764 15.1464 288.636 13.4598 292.324C13.4598 292.356 13.4598 292.384 13.4629 292.415C12.4465 289.413 13.7807 284.133 14.5957 283.271C15.631 282.176 18.9822 274.133 19.2875 273.4C19.5927 272.67 19.2875 272.242 19.1647 271.207C19.042 270.171 21.1755 266.757 21.2982 266.21C21.4209 265.662 20.8105 264.016 20.7507 263.101C20.6878 262.188 23.2492 260.848 23.7967 260.055C24.3442 259.262 24.4072 258.167 24.6495 256.949C24.8509 255.942 25.3417 252.034 25.5054 250.696L26.27 250.888Z" fill="white"/>
</g>
<g style="mix-blend-mode:overlay" opacity="0.45">
<path d="M17.3334 234.821C16.6159 235.775 11.3452 242.581 10.3571 243.859C9.97634 243.305 9.76551 242.622 9.7718 241.952C9.78754 240.592 10.549 239.334 11.5371 238.402C12.1539 237.817 12.8619 237.335 13.4535 236.725C14.1741 235.982 14.6996 235.076 15.2156 234.179C16.0715 232.694 16.9274 231.212 17.7802 229.727C18.0539 229.252 18.334 228.761 18.3969 228.216C18.4504 227.738 18.3277 227.25 18.3875 226.772C18.463 226.152 18.828 225.608 19.0074 225.01C19.6367 222.889 17.8526 220.513 18.3057 218.474L18.6518 218.169C18.6518 218.169 19.7091 224.248 19.9766 225.57C20.2378 226.892 18.1232 233.764 17.3334 234.821Z" fill="white"/>
</g>
<g style="mix-blend-mode:overlay" opacity="0.45">
<path d="M1.75713 272.336C1.06486 272.547 0.359991 271.748 0.00126648 271.049C-2.37765 266.417 -3.93212 261.42 -5.83903 256.578C-6.55648 254.756 -7.32743 252.953 -8.17704 251.187C-8.5515 250.407 -8.94798 249.63 -9.50495 248.966C-10.3262 247.987 -11.4465 247.314 -12.4723 246.552C-14.0645 245.366 -15.4617 243.918 -16.5945 242.288C-17.4095 241.111 -18.1081 239.818 -19.2157 238.912C-19.7349 238.487 -20.3328 238.154 -20.7859 237.663C-22.0037 236.341 -21.8936 234.214 -22.998 232.795C-23.404 232.272 -23.9546 231.879 -24.4204 231.407C-24.9333 230.891 -25.3392 230.274 -25.6224 229.607L-24.6847 228.477L-19.9237 236.665C-19.9237 236.665 -8.82841 248.824 -7.50364 249.881C-6.18832 250.939 -3.28075 260.715 -3.01328 261.773C-2.78987 262.682 0.769064 270.247 1.75713 272.336Z" fill="white"/>
</g>
<g style="mix-blend-mode:overlay" opacity="0.45">
<path d="M10.0959 236.171C10.0865 236.228 10.077 236.281 10.0644 236.338C9.99208 236.681 9.74663 237.125 9.41623 236.999C9.22743 236.926 9.15505 236.7 9.10785 236.505C8.79318 235.167 8.47851 233.833 8.16384 232.496C7.90266 231.388 7.63834 230.265 7.63204 229.126C7.62575 227.832 7.94986 226.558 7.97189 225.268C8.03168 221.869 6.03036 218.461 6.41426 215.214L7.55652 215L10.055 236.221C10.055 236.221 10.0707 236.203 10.0959 236.171Z" fill="white"/>
</g>
<g style="mix-blend-mode:overlay" opacity="0.45">
<path d="M14.3156 273.617C14.3031 273.777 14.2873 273.935 14.2653 274.095C14.1772 274.731 13.9569 275.436 13.3779 275.713C12.6982 276.04 11.8518 275.565 11.4993 274.895C11.1501 274.224 11.1595 273.431 11.1721 272.676C11.2161 269.378 11.0934 266.077 10.9738 262.783C10.9141 261.156 10.8574 259.526 10.6906 257.909C10.5553 256.593 9.64593 254.217 9.98892 252.965C10.162 252.333 10.4452 251.99 10.8134 251.861C11.32 258.028 11.9997 265.81 12.3143 267.059C12.5252 267.912 12.7391 271.024 12.9217 274.592L14.3156 273.617Z" fill="white"/>
</g>
<g style="mix-blend-mode:overlay" opacity="0.45">
<path d="M14.6901 344.481L4.13288 344.616C3.95352 342.719 4.43812 340.727 5.80379 339.424C6.73522 338.534 7.99705 338.03 8.89386 337.105C10.2312 335.72 10.5333 333.669 10.7693 331.759C11.2476 327.851 11.7259 323.857 10.914 320.003C10.2281 316.746 8.64527 313.332 9.9071 310.251C10.7252 308.256 12.6416 306.796 13.1702 304.703C13.7335 302.472 12.5692 300.197 12.3301 297.906C12.1413 296.11 12.5566 294.263 13.4692 292.702C13.7681 306.689 14.6901 344.481 14.6901 344.481Z" fill="white"/>
</g>
<path style="mix-blend-mode:multiply" opacity="0.3" d="M4.41609 264.718C4.34057 266.442 4.26505 268.176 4.49476 269.888C4.70874 271.487 5.11466 273.356 3.99758 274.52C3.86856 274.655 3.70808 274.781 3.52243 274.784C3.20146 274.791 2.99378 274.457 2.85532 274.168C2.57841 273.592 2.3015 273.016 2.02774 272.437L3.32418 241.955V215.79L4.60175 215.551C3.87171 219.975 3.91891 224.525 4.73076 228.937C4.9825 230.296 5.30661 231.646 5.47653 233.018C5.72512 235.045 5.63702 237.093 5.54576 239.129C5.1713 247.66 4.7937 256.187 4.41609 264.718Z" fill="url(#paint24_linear_199_5116)"/>
<path style="mix-blend-mode:multiply" opacity="0.3" d="M0.4292 305.902C1.12462 310.795 1.63124 315.311 0.592826 320.141C-0.215879 323.892 -2.05985 327.589 -1.42421 331.372C-1.21968 332.596 -0.760257 333.76 -0.436146 334.956C0.0767689 336.844 0.256127 338.804 0.391437 340.755C0.482691 342.048 0.55192 343.367 0.476399 344.663L-6.35511 344.748L-2.48466 280.537C-2.48466 280.537 -5.92086 273.925 -6.44951 272.607C-6.97816 271.285 -8.56096 260.977 -8.56096 259.394C-8.56096 258.585 -10.6221 255.099 -12.6422 251.873C-11.5818 252.512 -10.6724 253.365 -10.3326 254.529C-10.1784 255.064 -10.15 255.637 -9.91719 256.143C-9.25638 257.572 -7.24563 257.909 -6.46839 259.277C-5.9775 260.146 -6.10337 261.216 -6.01841 262.21C-5.77297 265.124 -3.65523 267.591 -3.22728 270.483C-2.9661 272.258 -3.35315 274.133 -2.73954 275.817C-2.21719 277.242 -1.0529 278.328 -0.348038 279.668C0.495281 281.267 0.636879 283.129 0.759601 284.933C0.94211 287.569 1.12777 290.206 1.31028 292.843C1.40153 294.156 1.48964 295.493 1.16238 296.767C0.803659 298.174 -0.0365143 299.411 -0.495934 300.789C-0.955354 302.167 -0.927033 303.895 0.186902 304.829C0.372558 304.983 0.59283 305.122 0.690378 305.345C0.787926 305.569 0.671497 305.902 0.4292 305.902Z" fill="url(#paint25_linear_199_5116)"/>
<path d="M49.9109 244.878C48.3942 246.137 46.4998 247.09 44.4136 247.804C35.1087 250.998 22.0404 249.466 22.0404 249.466C8.98789 249.466 16.927 239.412 16.927 239.412C16.927 239.412 16.0176 238.789 15.1806 237.811C13.9408 236.366 12.8489 234.141 15.0453 231.989H15.0485C15.404 231.637 15.8509 231.287 16.3952 230.944C22.5691 227.064 42.6797 225.299 49.206 226.536C55.7323 227.769 48.3218 235.885 48.3218 235.885C48.3218 235.885 51.0972 236.479 52.4723 238.062C53.6901 239.466 53.8065 241.646 49.9109 244.878Z" fill="url(#paint26_linear_199_5116)"/>
<path style="mix-blend-mode:multiply" d="M44.4136 247.804C35.1087 250.998 22.0404 249.466 22.0404 249.466C8.98789 249.466 16.927 239.412 16.927 239.412C16.927 239.412 16.0176 238.789 15.1806 237.811C16.0428 238.172 16.9648 238.412 17.7767 238.871C18.0347 239.016 18.3053 239.223 18.3305 239.519C18.3651 239.925 17.934 240.193 17.5941 240.416C16.5211 241.13 15.854 242.42 15.8981 243.707C15.939 244.994 16.6879 246.241 17.805 246.883C18.3556 247.197 18.9755 247.37 19.5986 247.502C26.7857 249.013 34.2088 245.202 41.4745 246.259C42.6105 246.423 43.8723 246.826 44.4136 247.804Z" fill="url(#paint27_linear_199_5116)"/>
<path d="M34.2812 207.564C34.2812 207.564 34.8979 207.844 35.4171 208.361C36.273 209.213 36.8552 210.708 33.913 212.634C33.6266 212.823 33.3025 213.014 32.9438 213.213C26.7007 216.633 15.1271 215.019 15.1271 215.019C6.65617 216.356 1.73157 214.997 2.76998 211.727C3.81155 208.458 7.37991 206.227 7.37991 206.227C7.37991 206.227 6.24081 204.912 7.9715 202.662C10.6525 199.175 14.0384 195.94 21.1751 195.789C21.644 195.78 22.0688 195.786 22.4621 195.808C23.1575 195.84 23.7365 195.915 24.2211 196.025C27.629 196.784 26.2539 199.093 26.2539 199.093C26.2539 199.093 38.74 195.676 41.2669 200.283C43.7937 204.89 34.2812 207.564 34.2812 207.564Z" fill="url(#paint28_linear_199_5116)"/>
<g opacity="0.28">
<path d="M33.913 212.634C33.6266 212.823 33.3025 213.014 32.9438 213.213C26.7007 216.633 15.1271 215.019 15.1271 215.019C6.65617 216.356 1.73157 214.997 2.76998 211.727C3.81155 208.458 7.37991 206.227 7.37991 206.227C7.37991 206.227 6.24081 204.912 7.9715 202.662C10.6525 199.175 14.0384 195.94 21.1751 195.789C21.644 195.78 22.0688 195.786 22.4621 195.808C23.1575 195.84 23.7365 195.915 24.2211 196.025C23.3621 196.916 22.5628 197.879 22.1852 199.043C21.7132 200.491 22.1128 202.341 23.4659 203.033C21.4111 204.235 19.4444 205.588 17.591 207.083C16.9365 207.608 16.2505 208.241 16.1781 209.075C16.1026 209.943 16.7571 210.739 17.5501 211.101C18.3431 211.46 19.243 211.473 20.1115 211.451C24.5263 211.34 28.9255 210.532 33.0917 209.065C33.8532 208.795 34.6241 208.502 35.4171 208.361C36.273 209.213 36.8552 210.708 33.913 212.634Z" fill="url(#paint29_linear_199_5116)" style="mix-blend-mode:multiply"/>
</g>
<path style="mix-blend-mode:multiply" d="M33.913 212.634C33.6266 212.823 33.3025 213.014 32.9438 213.213C26.7007 216.633 15.1271 215.019 15.1271 215.019C6.65617 216.356 1.73157 214.997 2.76998 211.727C3.81155 208.458 7.37991 206.227 7.37991 206.227C7.37991 206.227 6.24081 204.912 7.9715 202.662C10.6525 199.175 14.0384 195.94 21.1751 195.789C21.644 195.78 22.0688 195.786 22.4621 195.808L22.0467 195.837C19.8535 196.746 18.1857 198.817 17.7672 201.151C17.6036 202.064 17.6067 203.033 17.1693 203.848C16.5903 204.934 15.382 205.488 14.3467 206.152C12.8992 207.08 11.6752 208.351 10.8004 209.83C10.3819 210.544 10.0357 211.425 10.3756 212.181C10.7784 213.081 11.9458 213.345 12.9244 213.232C13.8999 213.115 14.8565 212.741 15.8351 212.823C16.9459 212.914 17.9277 213.578 19.0102 213.839C21.1688 214.361 23.3778 213.235 25.5994 213.216C27.05 213.203 28.4818 213.663 29.9293 213.559C31.2855 213.461 32.5819 212.876 33.913 212.634Z" fill="url(#paint30_linear_199_5116)"/>
<path d="M22.9247 203.439C19.8881 207.004 11.1528 207.067 11.1528 207.067C11.1528 207.067 10.514 209.248 7.21314 211.227C3.91224 213.21 -2.81857 211.756 -2.81857 211.756C-15.89 210.437 -7.17677 202.121 -7.17677 202.121C-7.17677 202.121 -12.5891 200.535 -11.2706 198.291C-11.1574 198.096 -11.0346 197.91 -10.9056 197.734C-9.55568 195.849 -7.57325 194.858 -7.57325 194.858C-7.57325 194.858 -8.11449 194.556 -8.47636 193.964C-8.83194 193.388 -9.01759 192.536 -8.36622 191.425C-7.04461 189.181 -0.04632 184.562 5.36602 184.033C10.7784 183.505 10.9105 189.446 10.9105 189.446C10.9105 189.446 19.8503 187.957 23.4911 190.135C23.9064 190.383 24.2526 190.679 24.5075 191.028C27.0154 194.461 20.4136 198.159 20.4136 198.159C20.4136 198.159 21.8926 198.615 22.9058 199.55C23.853 200.425 24.3942 201.715 22.9247 203.439Z" fill="url(#paint31_linear_199_5116)"/>
<path style="mix-blend-mode:multiply" d="M22.9247 203.439C19.8881 207.004 11.1528 207.067 11.1528 207.067C11.1528 207.067 10.514 209.248 7.21314 211.227C3.91224 213.21 -2.81857 211.756 -2.81857 211.756C-15.89 210.437 -7.17677 202.121 -7.17677 202.121C-7.17677 202.121 -12.5891 200.535 -11.2706 198.291C-11.1574 198.096 -11.0346 197.91 -10.9056 197.734C-9.55568 195.849 -7.57325 194.858 -7.57325 194.858C-7.57325 194.858 -8.11449 194.556 -8.47636 193.964C-7.13272 194.861 -5.40517 195.091 -3.76888 195.226C-4.69716 195.544 -5.64117 195.871 -6.41526 196.469C-7.1925 197.067 -7.78094 197.992 -7.718 198.971C-7.65192 199.981 -6.88727 200.849 -5.96528 201.268C-5.04015 201.686 -3.98915 201.712 -2.9822 201.595C-3.14268 203.26 -2.0728 204.899 -0.584409 205.657C0.903986 206.416 2.71649 206.369 4.28041 205.787C5.88209 205.192 7.27923 204.056 8.18548 202.608C10.9577 203.332 13.8936 203.414 16.7036 202.844C17.5847 202.668 18.4847 202.41 19.1581 201.819C19.8346 201.227 20.2216 200.223 19.8566 199.402C19.4633 198.524 18.4217 198.178 17.4934 197.923C19.6049 197.378 21.5212 196.11 22.846 194.377C23.7711 193.162 24.3061 191.286 23.4911 190.135C23.9064 190.383 24.2526 190.679 24.5075 191.028C27.0154 194.461 20.4136 198.159 20.4136 198.159C20.4136 198.159 21.8926 198.615 22.9058 199.55C23.853 200.425 24.3942 201.715 22.9247 203.439Z" fill="url(#paint32_linear_199_5116)"/>
<path style="mix-blend-mode:multiply" d="M22.9247 203.439C19.8881 207.004 11.1528 207.067 11.1528 207.067C11.1528 207.067 10.514 209.248 7.21314 211.227C3.91224 213.21 -2.81857 211.756 -2.81857 211.756C-15.89 210.437 -7.17677 202.121 -7.17677 202.121C-7.17677 202.121 -12.5891 200.535 -11.2706 198.291C-11.1574 198.096 -11.0346 197.91 -10.9056 197.734C-10.6476 197.954 -10.4147 198.209 -10.2133 198.47C-9.62491 199.222 -9.12773 200.094 -8.30959 200.585C-7.82814 200.874 -7.26802 201.01 -6.76769 201.268C-6.26422 201.526 -5.79536 201.966 -5.7576 202.526C-5.73558 202.825 -5.83942 203.115 -5.93382 203.398C-6.16353 204.097 -6.3303 204.886 -5.9999 205.541C-5.66634 206.199 -4.62478 206.485 -4.19683 205.887C-2.25846 207.914 0.589316 209.034 3.38989 208.873C6.19046 208.71 8.89348 207.272 10.5864 205.038C12.5374 205.072 14.5009 205.107 16.4173 204.748C18.3368 204.389 20.2248 203.603 21.5905 202.212C22.2953 201.497 22.8492 200.519 22.9058 199.55C23.853 200.424 24.3942 201.715 22.9247 203.439Z" fill="url(#paint33_linear_199_5116)"/>
<path d="M10.4763 210.988C10.4039 211.274 10.2938 211.545 10.149 211.797C8.54107 214.585 2.69134 215.261 -1.69518 216.061C-6.47818 216.929 -10.1 218.232 -13.2877 215.044C-16.4753 211.857 -13.8667 210.409 -13.8667 210.409C-13.8667 210.409 -18.9392 210.554 -18.2154 207.8C-18.099 207.35 -17.7371 206.954 -17.2179 206.602C-16.5319 206.133 -15.5659 205.746 -14.5054 205.431C-11.45 204.512 -7.63617 204.175 -7.63617 204.175C-7.63617 204.175 4.24581 200.554 7.43343 202.583C10.6211 204.613 5.84119 207.074 5.84119 207.074C5.84119 207.074 8.22011 207.262 9.60152 208.379C10.3253 208.962 10.7752 209.795 10.4763 210.988Z" fill="url(#paint34_linear_199_5116)"/>
<path style="mix-blend-mode:multiply" d="M9.04138 206.938L8.49385 206.617C8.70468 206.683 8.89034 206.793 9.04138 206.938Z" fill="url(#paint35_linear_199_5116)"/>
<path style="mix-blend-mode:multiply" d="M10.4763 210.988C10.4039 211.274 10.2938 211.545 10.149 211.797C8.54104 214.585 2.69131 215.261 -1.69521 216.06C-6.47821 216.929 -10.1001 218.232 -13.2877 215.044C-16.4753 211.856 -13.8667 210.409 -13.8667 210.409C-13.8667 210.409 -18.9392 210.554 -18.2154 207.8C-18.099 207.35 -17.7371 206.954 -17.2179 206.601C-16.532 206.133 -15.5659 205.746 -14.5055 205.431C-14.4551 205.831 -14.4079 206.233 -14.2537 206.595C-13.6999 207.882 -12.0322 208.162 -10.635 208.257C-11.4658 209.053 -11.557 210.44 -10.978 211.432C-10.399 212.423 -9.26305 213.011 -8.11765 213.093C-6.97225 213.178 -5.82999 212.804 -4.83877 212.225C-4.67829 212.133 -4.51466 212.03 -4.33215 212.001C-4.11188 211.967 -3.89162 212.036 -3.67764 212.102C-0.134443 213.2 3.82727 212.885 7.15335 211.243C8.08477 210.783 9.01934 210.167 9.43156 209.213C9.54484 208.955 9.60149 208.666 9.60149 208.379C10.3252 208.962 10.7752 209.795 10.4763 210.988Z" fill="url(#paint36_linear_199_5116)"/>
<path style="mix-blend-mode:multiply" d="M10.149 211.797C8.54104 214.585 2.69131 215.261 -1.69521 216.06C-6.47821 216.929 -10.1001 218.232 -13.2877 215.044C-16.4753 211.856 -13.8667 210.409 -13.8667 210.409C-13.8667 210.409 -18.9392 210.554 -18.2154 207.8C-18.099 207.35 -17.7371 206.954 -17.2179 206.601C-17.1613 207.555 -16.6138 208.518 -15.8208 209.09C-14.625 209.953 -13.0485 210.097 -11.5759 209.981C-12.5105 210.494 -13.3727 211.303 -13.5615 212.35C-13.8132 213.76 -12.7213 215.142 -11.3934 215.68C-10.0655 216.218 -8.57392 216.111 -7.15161 215.935C-3.38499 215.466 0.318684 214.588 4.01292 213.713C6.10234 213.216 8.21378 212.712 10.149 211.797Z" fill="url(#paint37_linear_199_5116)"/>
</g>
<defs>
<linearGradient id="paint0_linear_199_5116" x1="145.5" y1="0" x2="145.5" y2="342" gradientUnits="userSpaceOnUse">
<stop stop-color="#42ADFF"/>
<stop offset="0.328125" stop-color="#A6A9ED"/>
<stop offset="0.682292" stop-color="#FFA6DD"/>
</linearGradient>
<linearGradient id="paint1_linear_199_5116" x1="-21.0039" y1="307.096" x2="84.954" y2="307.096" gradientUnits="userSpaceOnUse">
<stop stop-color="#90C9FD"/>
<stop offset="0.27" stop-color="#8AC3FD"/>
<stop offset="0.62" stop-color="#79B5FD"/>
<stop offset="1" stop-color="#5F9EFD"/>
</linearGradient>
<linearGradient id="paint2_linear_199_5116" x1="192.981" y1="293.138" x2="421.857" y2="293.138" gradientUnits="userSpaceOnUse">
<stop stop-color="#90C9FD"/>
<stop offset="0.27" stop-color="#8AC3FD"/>
<stop offset="0.62" stop-color="#79B5FD"/>
<stop offset="1" stop-color="#5F9EFD"/>
</linearGradient>
<linearGradient id="paint3_linear_199_5116" x1="-18.5482" y1="304.665" x2="177.648" y2="304.665" gradientUnits="userSpaceOnUse">
<stop stop-color="#ECF6FF"/>
<stop offset="1" stop-color="#77ADFF"/>
</linearGradient>
<linearGradient id="paint4_linear_199_5116" x1="151.102" y1="347.06" x2="151.102" y2="299.126" gradientUnits="userSpaceOnUse">
<stop stop-color="#74BCFD"/>
<stop offset="0.19" stop-color="#79BEFD"/>
<stop offset="0.43" stop-color="#8AC6FD"/>
<stop offset="0.71" stop-color="#A5D3FD"/>
<stop offset="1" stop-color="#CAE4FD"/>
</linearGradient>
<linearGradient id="paint5_linear_199_5116" x1="49.536" y1="319.829" x2="38.1938" y2="332.184" gradientUnits="userSpaceOnUse">
<stop stop-color="#FFE2F4"/>
<stop offset="1" stop-color="#9579F0"/>
</linearGradient>
<linearGradient id="paint6_linear_199_5116" x1="60.8387" y1="325.922" x2="39.3132" y2="336.151" gradientUnits="userSpaceOnUse">
<stop stop-color="#FFA6DD"/>
<stop offset="0.12" stop-color="#FAA2DC"/>
<stop offset="0.26" stop-color="#EB97D9"/>
<stop offset="0.41" stop-color="#D485D5"/>
<stop offset="0.56" stop-color="#B36BD0"/>
<stop offset="0.72" stop-color="#894AC9"/>
<stop offset="0.89" stop-color="#5623C0"/>
<stop offset="1" stop-color="#2E04BA"/>
</linearGradient>
<linearGradient id="paint7_linear_199_5116" x1="52.107" y1="315.709" x2="42.4889" y2="345.485" gradientUnits="userSpaceOnUse">
<stop stop-color="#FFE1F4"/>
<stop offset="0.0001" stop-color="#FFA6DD"/>
<stop offset="1" stop-color="#9879FF"/>
</linearGradient>
<linearGradient id="paint8_linear_199_5116" x1="57.6379" y1="332.425" x2="46.0347" y2="335.088" gradientUnits="userSpaceOnUse">
<stop stop-color="#FFDDF2"/>
<stop offset="1" stop-color="#9076E7"/>
</linearGradient>
<linearGradient id="paint9_linear_199_5116" x1="62.6546" y1="341.025" x2="45.2087" y2="338.899" gradientUnits="userSpaceOnUse">
<stop stop-color="#FFA6DD"/>
<stop offset="0.12" stop-color="#FAA2DC"/>
<stop offset="0.26" stop-color="#EB97D9"/>
<stop offset="0.41" stop-color="#D485D5"/>
<stop offset="0.56" stop-color="#B36BD0"/>
<stop offset="0.72" stop-color="#894AC9"/>
<stop offset="0.89" stop-color="#5623C0"/>
<stop offset="1" stop-color="#2E04BA"/>
</linearGradient>
<linearGradient id="paint10_linear_199_5116" x1="61.2784" y1="330.48" x2="41.9701" y2="344.758" gradientUnits="userSpaceOnUse">
<stop stop-color="#FFD9F0"/>
<stop offset="1" stop-color="#8B04BA"/>
</linearGradient>
<linearGradient id="paint11_linear_199_5116" x1="34.4844" y1="309.832" x2="37.522" y2="334.879" gradientUnits="userSpaceOnUse">
<stop stop-color="#6E0782"/>
<stop offset="1" stop-color="#08204D"/>
</linearGradient>
<linearGradient id="paint12_linear_199_5116" x1="47.5684" y1="310.367" x2="32.8595" y2="311.513" gradientUnits="userSpaceOnUse">
<stop stop-color="#FFA6DD"/>
<stop offset="0.12" stop-color="#FAA2DC"/>
<stop offset="0.26" stop-color="#EB97D9"/>
<stop offset="0.41" stop-color="#D485D5"/>
<stop offset="0.56" stop-color="#B36BD0"/>
<stop offset="0.72" stop-color="#894AC9"/>
<stop offset="0.89" stop-color="#5623C0"/>
<stop offset="1" stop-color="#2E04BA"/>
</linearGradient>
<linearGradient id="paint13_linear_199_5116" x1="37.5769" y1="315.242" x2="17.1725" y2="349.648" gradientUnits="userSpaceOnUse">
<stop stop-color="#C5D5FC"/>
<stop offset="1" stop-color="#AFB1F2"/>
</linearGradient>
<linearGradient id="paint14_linear_199_5116" x1="36.127" y1="316.708" x2="15.2131" y2="351.973" gradientUnits="userSpaceOnUse">
<stop stop-color="#80A7F4"/>
<stop offset="1" stop-color="#5F5CEF"/>
</linearGradient>
<linearGradient id="paint15_linear_199_5116" x1="240" y1="317.5" x2="358.5" y2="360.5" gradientUnits="userSpaceOnUse">
<stop stop-color="#478CEC"/>
<stop offset="1" stop-color="#8AC8F9"/>
</linearGradient>
<linearGradient id="paint16_linear_199_5116" x1="74.3953" y1="264.709" x2="61.7876" y2="286.485" gradientUnits="userSpaceOnUse">
<stop stop-color="#DCED00"/>
<stop offset="1" stop-color="#9CA000"/>
</linearGradient>
<linearGradient id="paint17_linear_199_5116" x1="66.3161" y1="269.445" x2="68.9661" y2="271.342" gradientUnits="userSpaceOnUse">
<stop stop-color="#A43113"/>
<stop offset="1" stop-color="#6F160D"/>
</linearGradient>
<linearGradient id="paint18_linear_199_5116" x1="73.9846" y1="274.773" x2="71.4059" y2="272.78" gradientUnits="userSpaceOnUse">
<stop stop-color="#A43113"/>
<stop offset="1" stop-color="#6F160D"/>
</linearGradient>
<linearGradient id="paint19_linear_199_5116" x1="98.5161" y1="230.866" x2="111.423" y2="266.197" gradientUnits="userSpaceOnUse">
<stop stop-color="#931A6E"/>
<stop offset="1" stop-color="#700D56"/>
</linearGradient>
<linearGradient id="paint20_linear_199_5116" x1="118.708" y1="237.756" x2="114.727" y2="238.456" gradientUnits="userSpaceOnUse">
<stop stop-color="#A43113"/>
<stop offset="1" stop-color="#6F160D"/>
</linearGradient>
<linearGradient id="paint21_linear_199_5116" x1="125.467" y1="231.504" x2="122.34" y2="232.607" gradientUnits="userSpaceOnUse">
<stop stop-color="#A43113"/>
<stop offset="1" stop-color="#6F160D"/>
</linearGradient>
<linearGradient id="paint22_linear_199_5116" x1="-4.21256" y1="288.306" x2="-12.0227" y2="342.077" gradientUnits="userSpaceOnUse">
<stop stop-color="#A6CBFF"/>
<stop offset="0.12" stop-color="#A3C6FD"/>
<stop offset="0.26" stop-color="#9AB7F8"/>
<stop offset="0.42" stop-color="#8CA0F0"/>
<stop offset="0.58" stop-color="#787FE4"/>
<stop offset="0.74" stop-color="#5F55D6"/>
<stop offset="0.91" stop-color="#4022C4"/>
<stop offset="1" stop-color="#2E04BA"/>
</linearGradient>
<linearGradient id="paint23_linear_199_5116" x1="0.133434" y1="215" x2="0.133434" y2="344.748" gradientUnits="userSpaceOnUse">
<stop stop-color="#6E0782"/>
<stop offset="1" stop-color="#08204D"/>
</linearGradient>
<linearGradient id="paint24_linear_199_5116" x1="2.02774" y1="245.168" x2="5.63702" y2="245.168" gradientUnits="userSpaceOnUse">
<stop stop-color="#6E0782"/>
<stop offset="1" stop-color="#08204D"/>
</linearGradient>
<linearGradient id="paint25_linear_199_5116" x1="-12.6422" y1="298.309" x2="1.39209" y2="298.309" gradientUnits="userSpaceOnUse">
<stop stop-color="#6E0782"/>
<stop offset="1" stop-color="#08204D"/>
</linearGradient>
<linearGradient id="paint26_linear_199_5116" x1="38.91" y1="227.014" x2="21.6471" y2="259.922" gradientUnits="userSpaceOnUse">
<stop stop-color="#EAD5F4"/>
<stop offset="0.963542" stop-color="#ECC2FF"/>
</linearGradient>
<linearGradient id="paint27_linear_199_5116" x1="33.1735" y1="238.984" x2="23.2708" y2="250.19" gradientUnits="userSpaceOnUse">
<stop stop-color="#FFA6DD" stop-opacity="0.5"/>
<stop offset="0.21" stop-color="#F2AFDD" stop-opacity="0.63"/>
<stop offset="0.57" stop-color="#DFBDDE" stop-opacity="0.83"/>
<stop offset="0.84" stop-color="#D3C6DF" stop-opacity="0.95"/>
<stop offset="1" stop-color="#CFCAE0"/>
</linearGradient>
<linearGradient id="paint28_linear_199_5116" x1="30.8733" y1="195.84" x2="6.7789" y2="225.151" gradientUnits="userSpaceOnUse">
<stop stop-color="#EAD5F4"/>
<stop offset="1" stop-color="#EDC8FF"/>
</linearGradient>
<linearGradient id="paint29_linear_199_5116" x1="25.2375" y1="203.832" x2="10.2717" y2="215.538" gradientUnits="userSpaceOnUse">
<stop stop-color="#FACFE9" stop-opacity="0.5"/>
<stop offset="0.21" stop-color="#F2AFDD" stop-opacity="0.63"/>
<stop offset="0.57" stop-color="#DFBDDE" stop-opacity="0.83"/>
<stop offset="0.84" stop-color="#D3C6DF" stop-opacity="0.95"/>
<stop offset="1" stop-color="#CFCAE0"/>
</linearGradient>
<linearGradient id="paint30_linear_199_5116" x1="2.63153" y1="205.657" x2="33.913" y2="205.657" gradientUnits="userSpaceOnUse">
<stop stop-color="#FFA6DD" stop-opacity="0.5"/>
<stop offset="0.21" stop-color="#F2AFDD" stop-opacity="0.63"/>
<stop offset="0.57" stop-color="#DFBDDE" stop-opacity="0.83"/>
<stop offset="0.84" stop-color="#D3C6DF" stop-opacity="0.95"/>
<stop offset="1" stop-color="#CFCAE0"/>
</linearGradient>
<linearGradient id="paint31_linear_199_5116" x1="11.4675" y1="189.575" x2="-4.69716" y2="220.39" gradientUnits="userSpaceOnUse">
<stop offset="0.12" stop-color="#FFE0F4"/>
<stop offset="1" stop-color="#C8BAF5"/>
</linearGradient>
<linearGradient id="paint32_linear_199_5116" x1="12.1787" y1="192.391" x2="0.583022" y2="207.165" gradientUnits="userSpaceOnUse">
<stop stop-color="#FFA6DD" stop-opacity="0.5"/>
<stop offset="0.21" stop-color="#F2AFDD" stop-opacity="0.63"/>
<stop offset="0.57" stop-color="#DFBDDE" stop-opacity="0.83"/>
<stop offset="0.84" stop-color="#D3C6DF" stop-opacity="0.95"/>
<stop offset="1" stop-color="#CFCAE0"/>
</linearGradient>
<linearGradient id="paint33_linear_199_5116" x1="8.89349" y1="196.346" x2="0.501211" y2="208.76" gradientUnits="userSpaceOnUse">
<stop stop-color="#FFA6DD" stop-opacity="0.5"/>
<stop offset="0.21" stop-color="#F2AFDD" stop-opacity="0.63"/>
<stop offset="0.57" stop-color="#DFBDDE" stop-opacity="0.83"/>
<stop offset="0.84" stop-color="#D3C6DF" stop-opacity="0.95"/>
<stop offset="1" stop-color="#CFCAE0"/>
</linearGradient>
<linearGradient id="paint34_linear_199_5116" x1="-0.128119" y1="202.316" x2="-10.5469" y2="222.178" gradientUnits="userSpaceOnUse">
<stop stop-color="#FFA6DD"/>
<stop offset="0.12" stop-color="#FAA2DC"/>
<stop offset="0.26" stop-color="#EB97D9"/>
<stop offset="0.41" stop-color="#D485D5"/>
<stop offset="0.56" stop-color="#B36BD0"/>
<stop offset="0.72" stop-color="#894AC9"/>
<stop offset="0.89" stop-color="#5623C0"/>
<stop offset="1" stop-color="#2E04BA"/>
</linearGradient>
<linearGradient id="paint35_linear_199_5116" x1="8.84628" y1="206.727" x2="8.65748" y2="206.844" gradientUnits="userSpaceOnUse">
<stop stop-color="#FFA6DD" stop-opacity="0.5"/>
<stop offset="0.21" stop-color="#F2AFDD" stop-opacity="0.63"/>
<stop offset="0.57" stop-color="#DFBDDE" stop-opacity="0.83"/>
<stop offset="0.84" stop-color="#D3C6DF" stop-opacity="0.95"/>
<stop offset="1" stop-color="#CFCAE0"/>
</linearGradient>
<linearGradient id="paint36_linear_199_5116" x1="2.91158" y1="205.5" x2="-12.5293" y2="215.019" gradientUnits="userSpaceOnUse">
<stop stop-color="#FFA6DD" stop-opacity="0.5"/>
<stop offset="0.21" stop-color="#F2AFDD" stop-opacity="0.63"/>
<stop offset="0.57" stop-color="#DFBDDE" stop-opacity="0.83"/>
<stop offset="0.84" stop-color="#D3C6DF" stop-opacity="0.95"/>
<stop offset="1" stop-color="#CFCAE0"/>
</linearGradient>
<linearGradient id="paint37_linear_199_5116" x1="-18.2878" y1="211.838" x2="10.149" y2="211.838" gradientUnits="userSpaceOnUse">
<stop stop-color="#FFA6DD" stop-opacity="0.5"/>
<stop offset="0.21" stop-color="#F2AFDD" stop-opacity="0.63"/>
<stop offset="0.57" stop-color="#DFBDDE" stop-opacity="0.83"/>
<stop offset="0.84" stop-color="#D3C6DF" stop-opacity="0.95"/>
<stop offset="1" stop-color="#CFCAE0"/>
</linearGradient>
</defs>
</svg>
