<svg xmlns="http://www.w3.org/2000/svg" width="26.966" height="17.254" viewBox="0 0 26.966 17.254"><defs><style>.a{fill:#001865;}</style></defs><path class="a" d="M9.462,92.926h4.213a5.356,5.356,0,1,1-1.454-5.743.58.58,0,0,0,.789,0l1.547-1.456a.579.579,0,0,0,0-.841A8.6,8.6,0,0,0,8.8,82.521a8.627,8.627,0,1,0,8.441,9.111c.007-.057.011-1.98.011-1.98H9.462a.578.578,0,0,0-.578.578v2.118A.578.578,0,0,0,9.462,92.926Z" transform="translate(0 -82.519)"/><path class="a" d="M329.192,165.784v-2.07a.507.507,0,0,0-.507-.507h-1.742a.507.507,0,0,0-.507.507v2.07h-2.07a.507.507,0,0,0-.507.507v1.742a.507.507,0,0,0,.507.507h2.07v2.07a.507.507,0,0,0,.507.507h1.742a.507.507,0,0,0,.507-.507v-2.07h2.07a.507.507,0,0,0,.507-.507v-1.742a.507.507,0,0,0-.507-.507Z" transform="translate(-304.802 -158.46)"/></svg>