<svg xmlns="http://www.w3.org/2000/svg" width="32.121" height="34.61" viewBox="0 0 32.121 34.61"><defs><style>.a{fill:#2196f3;}.b{fill:#4caf50;}.c{fill:#ffc107;}.d{fill:#f44336;}</style></defs><path class="a" d="M35.565,24.5,18.184,41.237A2.957,2.957,0,0,1,16.9,38.77V10.232a2.957,2.957,0,0,1,1.289-2.467Z" transform="translate(-16.895 -7.193)"/><path class="b" d="M57.852,11.462l-6.082,5.846L34.39.572a2.316,2.316,0,0,1,.2-.141,2.973,2.973,0,0,1,3-.047Z" transform="translate(-33.101 0)"/><path class="c" d="M283.789,161.451a3,3,0,0,1-1.572,2.672l-5.8,3.174-6.082-5.846,6.082-5.846,5.8,3.174A3,3,0,0,1,283.789,161.451Z" transform="translate(-251.668 -144.143)"/><path class="d" d="M57.852,240.811,37.6,251.89a3.013,3.013,0,0,1-3-.047,2.329,2.329,0,0,1-.2-.141l17.381-16.736Z" transform="translate(-33.101 -217.657)"/></svg>