<svg xmlns="http://www.w3.org/2000/svg" xmlns:xlink="http://www.w3.org/1999/xlink" width="23.079" height="22.999" viewBox="0 0 23.079 22.999">
  <defs>
    <linearGradient id="linear-gradient" x1="0.5" y1="1" x2="0.5" gradientUnits="objectBoundingBox">
      <stop offset="0" stop-color="#de1f12"/>
      <stop offset="0.602" stop-color="#f27c00"/>
      <stop offset="1" stop-color="#ffdc13"/>
    </linearGradient>
    <linearGradient id="linear-gradient-2" x1="0.5" y1="1" x2="0.5" y2="0.094" xlink:href="#linear-gradient"/>
  </defs>
  <g id="Group_177" data-name="Group 177" transform="translate(-533.08 -739.08)">
    <g id="Group_175" data-name="Group 175" transform="translate(343.113 552.098)">
      <path id="Path_1167" data-name="Path 1167" d="M190.1,200.8c.526-3.455,3.611-6.648,5.446-9.643.508-.831,1.438-3.046.489-4.176a10.833,10.833,0,0,1,7.227,4.142,11.61,11.61,0,0,1,2.02,9.364c.93-1.1,2.364-2.61,2.458-3.952,2.938,3.95,2.129,11.316-4.481,13.285,1.471-1.544,1.44-3.027-.091-4.589a4.365,4.365,0,0,1-.708,2.734,5.246,5.246,0,0,1-2,2.014c.568-6.023-3.146-6.338-3.255-9.02s.983-3.313.983-3.313-4.2,1.945-4.554,5.506c-.356,3.636,2.6,6.246,2.86,6.464C195.739,209.606,188.929,208.536,190.1,200.8Z" fill="url(#linear-gradient)"/>
      <path id="Path_1168" data-name="Path 1168" d="M194.5,205.5c.416-2.877,2.435-4.391,4.064-6.8,1.346-2,2.777-4.38,1.584-6.107a13.564,13.564,0,0,1,5.385,6.587c1.8,4.819.853,6.587.634,7.305.74-.916,3.608-3.075,3.683-4.191,2.3,3.552,1.694,8.738-3.564,10.378a2.945,2.945,0,0,0-.871-4.669,10.96,10.96,0,0,1-.673,3.112,2.691,2.691,0,0,1-1.386,1.6c.452-5.012-2.8-6.31-2.891-8.541a8.515,8.515,0,0,1,.792-3.913,7.319,7.319,0,0,0-5.267,6.148,6.274,6.274,0,0,0,2.693,6.227C198.088,212.614,193.569,211.933,194.5,205.5Z" transform="translate(-2.462 -3.128)" fill="url(#linear-gradient-2)"/>
      <path id="Path_1169" data-name="Path 1169" d="M222.832,227.223a7.587,7.587,0,0,0,2.518-2.112,6.183,6.183,0,0,0,1.05-3.04,6.439,6.439,0,0,0-.246-2.6c0,.217.064.449.078.674a2.8,2.8,0,0,1-.108.79,3.918,3.918,0,0,1-1.121,1.95c-1.309,1.258-2.034.847-2.11.925-.11.112.491.784.491,1.638a2.962,2.962,0,0,1-.533,1.933Z" transform="translate(-18.351 -18.142)" fill="url(#linear-gradient)"/>
      <path id="Path_1170" data-name="Path 1170" d="M213.27,221.432a7.085,7.085,0,0,0-1.248-3.411,8.342,8.342,0,0,1-.936-2.473,7.19,7.19,0,0,1,.464-3.726,3.923,3.923,0,0,1,.207-.6,7.774,7.774,0,0,1-.211,1.253,4.035,4.035,0,0,0,.03,1.268,6.174,6.174,0,0,0,.942,2.371,6.3,6.3,0,0,1,.651,1.222,4.706,4.706,0,0,1,.242,1.437,12.9,12.9,0,0,1-.082,1.957c-.033.3-.093.6-.139.9" transform="translate(-11.738 -13.534)" fill="url(#linear-gradient)"/>
    </g>
    <g id="Group_176" data-name="Group 176" transform="matrix(0.899, 0.438, -0.438, 0.899, 462.124, 488.611)">
      <path id="Path_1167-2" data-name="Path 1167" d="M190.008,191.153c.159-1.043,1.09-2.007,1.644-2.911.153-.251.434-.919.148-1.261a3.27,3.27,0,0,1,2.181,1.25,3.5,3.5,0,0,1,.61,2.826c.281-.333.714-.788.742-1.193a2.586,2.586,0,0,1-1.353,4.01.876.876,0,0,0-.027-1.385,1.317,1.317,0,0,1-.214.825,1.583,1.583,0,0,1-.6.608c.171-1.818-.95-1.913-.983-2.723s.3-1,.3-1-1.269.587-1.375,1.662a2.471,2.471,0,0,0,.863,1.951A2.139,2.139,0,0,1,190.008,191.153Z" fill="url(#linear-gradient)"/>
      <path id="Path_1168-2" data-name="Path 1168" d="M194.415,196.481c.126-.868.735-1.325,1.227-2.054.406-.6.838-1.322.478-1.843a4.094,4.094,0,0,1,1.625,1.988,2.779,2.779,0,0,1,.191,2.2c.223-.277,1.089-.928,1.112-1.265a2,2,0,0,1-1.076,3.132.889.889,0,0,0-.263-1.409,3.308,3.308,0,0,1-.2.939.812.812,0,0,1-.418.482c.136-1.513-.846-1.9-.873-2.578a2.57,2.57,0,0,1,.239-1.181,2.209,2.209,0,0,0-1.59,1.856,1.894,1.894,0,0,0,.813,1.879C195.5,198.629,194.133,198.424,194.415,196.481Z" transform="translate(-3.822 -4.855)" fill="url(#linear-gradient-2)"/>
      <path id="Path_1169-2" data-name="Path 1169" d="M222.832,221.811a2.29,2.29,0,0,0,.76-.637,1.867,1.867,0,0,0,.317-.917,1.946,1.946,0,0,0-.074-.785c0,.065.019.136.023.2a.844.844,0,0,1-.032.238,1.183,1.183,0,0,1-.338.589c-.4.38-.614.255-.637.279s.148.237.148.495a.894.894,0,0,1-.161.583Z" transform="translate(-28.484 -28.159)" fill="url(#linear-gradient)"/>
      <path id="Path_1170-2" data-name="Path 1170" d="M211.677,214.3a2.138,2.138,0,0,0-.377-1.03,2.52,2.52,0,0,1-.283-.746,2.17,2.17,0,0,1,.14-1.125,1.186,1.186,0,0,1,.063-.182,2.348,2.348,0,0,1-.064.378,1.219,1.219,0,0,0,.009.383,1.864,1.864,0,0,0,.284.716,1.9,1.9,0,0,1,.2.369,1.422,1.422,0,0,1,.073.434,3.9,3.9,0,0,1-.025.591c-.01.09-.028.182-.042.272" transform="translate(-18.22 -21.006)" fill="url(#linear-gradient)"/>
    </g>
  </g>
</svg>
