<svg xmlns="http://www.w3.org/2000/svg" xmlns:xlink="http://www.w3.org/1999/xlink" width="305" height="70.744" viewBox="0 0 305 70.744"><defs><style>.a{fill:url(#a);}.b{fill:url(#b);}.c{fill:#bff4ff;}.d{fill:#89e6ff;}.e{fill:url(#c);}.f{fill:url(#d);}.g{fill:url(#e);}.h{fill:#0063ff;}.i{fill:#001865;font-size:27px;font-family:Audiowide-Regular, Audiowide;}.j{fill:#01a7ff;font-size:14px;font-family:Verdana-Italic, Verdana;font-style:italic;letter-spacing:0.05em;}</style><linearGradient id="a" x1="-0.075" y1="-0.084" x2="1.049" y2="0.861" gradientUnits="objectBoundingBox"><stop offset="0" stop-color="#01a7ff"/><stop offset="1" stop-color="#00d0ff"/></linearGradient><linearGradient id="b" x1="24.552" y1="-0.112" x2="25.676" y2="0.831" xlink:href="#a"/><linearGradient id="c" x1="0.51" y1="-0.228" x2="0.494" y2="0.982" gradientUnits="objectBoundingBox"><stop offset="0.006" stop-color="#0163ff" stop-opacity="0.502"/><stop offset="1" stop-color="#00d0ff" stop-opacity="0.502"/></linearGradient><linearGradient id="d" x1="15.28" y1="-0.29" x2="15.264" y2="0.909" gradientUnits="objectBoundingBox"><stop offset="0.006" stop-color="#0163ff" stop-opacity="0.502"/><stop offset="1" stop-color="#00d0ff" stop-opacity="0.8"/></linearGradient><linearGradient id="e" x1="0.516" y1="-0.246" x2="0.497" y2="0.978" gradientUnits="objectBoundingBox"><stop offset="0.006" stop-color="#00b5ff" stop-opacity="0.302"/><stop offset="0.346" stop-color="#008fff" stop-opacity="0.353"/><stop offset="0.986" stop-color="#002dff" stop-opacity="0.498"/><stop offset="0.994" stop-color="#002cff" stop-opacity="0.502"/></linearGradient></defs><path class="a" d="M87.393,79.194l44.04,8.358v56.9h-4.822l-31.5-11.894Z" transform="translate(-87.393 -73.706)"/><path class="b" d="M174.473,79.079l-44.018,8.475.152,56.9,4.822-.013L166.9,132.462Z" transform="translate(-86.414 -73.709)"/><path class="c" d="M87.488,76.371l44.053,11.276L87.472,79.264Z" transform="translate(-87.392 -73.771)"/><path class="d" d="M88.965,73.85,131.4,87.692,88.965,76.821Z" transform="translate(-87.358 -73.828)"/><path class="c" d="M174.377,76.186,130.432,87.651l44-8.573Z" transform="translate(-86.415 -73.775)"/><path class="d" d="M172.341,73.828,130.432,87.705,172.39,76.8Z" transform="translate(-86.415 -73.828)"/><path class="e" d="M87.393,79.194l80.687,53.684-72.972-.321Z" transform="translate(-87.393 -73.706)"/><path class="f" d="M175.266,79.049l-80.348,54.19,72.968-.78Z" transform="translate(-87.222 -73.71)"/><path class="g" d="M94.308,132.692l36.968-45.326,36.647,45.326-31.182,11.573h-10.93Z" transform="translate(-87.236 -73.521)"/><path class="h" d="M130.576,87.366l-5.465,56.9H135.72Z" transform="translate(-86.536 -73.521)"/><text class="i" transform="translate(97.941 32.822)"><tspan x="0" y="0">TruyenFun.vn</tspan></text><text class="j" transform="translate(98 54.165)"><tspan x="0" y="0">Thế giới trong tầm tay bạn</tspan></text></svg>