<svg xmlns="http://www.w3.org/2000/svg" width="24.118" height="16.948" viewBox="0 0 24.118 16.948">
  <g id="youtube" transform="translate(-1 -4)">
    <path id="Exclusion_1" data-name="Exclusion 1" d="M12.059,16.948c-.075,0-7.563-.006-9.427-.5A3.063,3.063,0,0,1,.5,14.339,31.794,31.794,0,0,1,0,8.5,31.824,31.824,0,0,1,.5,2.7,3.058,3.058,0,0,1,2.632.5C4.5.006,11.984,0,12.059,0s7.564.005,9.428.461a3.053,3.053,0,0,1,2.126,2.192,31.794,31.794,0,0,1,.5,5.843,31.9,31.9,0,0,1-.5,5.756,3.053,3.053,0,0,1-2.126,2.192C19.623,16.942,12.134,16.948,12.059,16.948ZM9.593,4.911h0v7.17L15.9,8.5l-6.3-3.584Z" transform="translate(1 4)" fill="#e7ecf9"/>
  </g>
</svg>
