<svg width="291" height="342" viewBox="0 0 291 342" fill="none" xmlns="http://www.w3.org/2000/svg">
<mask id="mask0_199_449" style="mask-type:alpha" maskUnits="userSpaceOnUse" x="0" y="0" width="291" height="342">
<rect width="291" height="342" rx="5" fill="url(#paint0_linear_199_449)"/>
</mask>
<g mask="url(#mask0_199_449)">
<path d="M84.9556 330.385C84.9548 330.387 84.9525 330.387 84.951 330.386C84.1765 329.758 83.3942 329.114 82.6004 328.529C81.4237 327.657 80.108 327.12 78.8619 326.36C76.7668 325.079 74.8069 323.289 73.0938 321.549C71.647 320.079 70.3082 318.517 68.8845 317.035C68.3367 316.464 67.6923 316.047 67.1831 315.434C66.3381 314.415 65.7092 313.269 64.9723 312.174C62.9776 309.222 59.4898 307.104 56.681 304.963C54.7828 303.516 53.0003 302 51.2217 300.41C50.1182 299.422 49.0109 298.458 47.9692 297.404C47.2516 296.675 46.4375 296.151 45.689 295.468C43.7831 293.724 41.9427 291.617 39.6548 290.39C38.6092 289.831 37.5829 289.044 36.5682 288.376C35.5998 287.74 35.1253 286.991 34.3883 286.127C33.8482 285.494 33.1499 284.642 32.5094 284.125C32.0348 283.743 31.8149 283.82 31.1359 283.824C30.4298 283.827 29.6505 283.669 29.0486 284.132C28.5316 284.53 28.1072 285.286 27.7368 285.822C26.371 287.805 25.2907 289.985 23.5815 291.706C22.3546 292.94 20.6184 293.793 19.1793 294.792C16.5557 296.617 15.1938 299.584 13.3303 302.054C12.0571 303.74 10.8533 305.144 8.69273 305.291C8.02526 305.337 7.37321 305.233 6.7096 305.341C4.32909 305.738 2.83982 307.119 0.930014 308.477C-0.293037 309.349 -1.20743 310.187 -1.95206 311.51C-2.65426 312.76 -3.03236 313.806 -4.08179 314.805C-5.13894 315.808 -5.7138 317.039 -6.83654 317.965C-7.57731 318.578 -8.19463 319.315 -8.93926 319.917C-10.9185 321.514 -13.2643 322.595 -15.2899 324.138C-16.4165 324.998 -17.8208 325.743 -18.6079 326.962C-19.1712 327.834 -19.2754 328.822 -20.0895 329.539C-20.4857 329.89 -20.2851 330.38 -19.7562 330.38H84.9529C84.9552 330.38 84.9566 330.383 84.9556 330.385Z" fill="url(#paint1_linear_199_449)"/>
<path d="M195.137 318.002C195.137 318.002 195.138 318.003 195.138 318.002C196.122 316.336 197.337 314.832 198.305 313.146C199.161 311.657 199.713 309.902 200.701 308.497C202.503 305.939 207.468 304.392 210.447 304.766C214.741 305.303 219.143 305.283 223.507 305.198C225.775 305.156 228.326 303.551 230.17 302.351C233.364 300.272 236.177 297.559 239.626 295.881C241.795 294.828 243.94 294.133 246.278 293.508C248.107 293.022 249.777 292.208 251.706 292.235C253.172 292.254 254.199 291.919 255.595 291.753C256.988 291.591 258.628 290.715 259.94 290.152C261.278 289.577 262.343 288.836 263.539 288.045C264.778 287.223 266.225 286.332 267.22 285.213C268.721 283.531 269.905 281.339 272.487 281.625C275.268 281.934 277.691 282.678 280.392 283.334C281.85 283.689 283.332 283.932 284.833 283.913C286.017 283.897 287.479 284.152 288.618 283.832C291.164 283.118 293.464 280.795 295.042 278.835C296.627 276.868 297.607 273.434 299.953 272.33C301.566 271.57 303.032 271.898 304.718 272.234C305.204 272.33 306.196 272.539 306.682 272.369C307.376 272.126 307.639 271.165 307.932 270.509C308.403 269.452 308.449 268.411 308.723 267.299C308.981 266.265 309.564 265.428 309.915 264.437C310.378 263.121 310.27 261.72 310.683 260.401C310.845 259.888 311.072 259.51 311.296 259.016C311.443 258.688 311.636 257.851 311.825 257.627C312.616 256.709 314.394 257.071 315.448 257.067C317.045 257.064 318.04 257.175 319.275 258.306C320.564 259.483 320.618 261.524 321.111 263.082C321.517 264.352 321.729 265.563 322.261 266.786C322.828 268.09 323.723 269.101 324.503 270.259C325.768 272.134 326.382 274.271 327.748 276.061C328.488 277.037 328.924 278.033 329.881 278.824C330.765 279.553 331.922 280.19 332.956 280.676C334.665 281.482 336.567 281.555 338.369 282.053C340.337 282.597 342.366 282.929 344.28 283.662C349.631 285.707 353.331 291.02 357.544 294.669C360.187 296.957 362.857 299.176 365.469 301.502C366.831 302.718 368.344 303.617 369.763 304.724C371.037 305.719 372.287 306.881 373.714 307.656C375.528 308.644 377.696 309.346 379.667 309.936C380.624 310.226 381.515 310.141 382.445 310.38C383.425 310.631 384.617 311.163 385.81 311.225C388.46 311.36 390.663 311.121 393.225 312.07C397.654 313.714 401.493 316.97 405.07 319.968C406.586 321.241 408.492 322.422 409.738 323.934C410.849 325.284 411.887 325.836 413.434 326.596C414.503 327.121 415.61 327.696 416.752 328.051C417.574 328.305 418.354 328.251 419.199 328.409C420.121 328.583 420.927 329.154 421.861 329.247H195.608C194.613 329.247 193.736 328.416 193.503 327.449C193.25 326.403 192.921 325.376 192.992 324.293C193.135 322.098 194.029 319.876 195.136 318.002C195.137 318.001 195.137 318.001 195.137 318.002Z" fill="url(#paint2_linear_199_449)"/>
<path d="M-8.10242 332.245C-8.10242 332.242 -8.10096 332.239 -8.09852 332.238C-5.96839 330.762 -3.80984 329.409 -1.63234 328.009C0.00257492 326.959 1.6533 326.001 3.1807 324.793C3.81632 324.29 4.47725 323.835 5.05595 323.262C5.5556 322.766 5.75798 322.26 6.12165 321.703C6.66241 320.878 7.37392 320.249 8.24039 319.904C9.37882 319.452 10.4414 318.917 11.5007 318.358C12.4684 317.845 13.4266 316.919 14.2267 316.185C15.1722 315.322 16.1462 314.395 17.1518 313.595C17.955 312.953 18.5938 312.112 19.4097 311.499C20.371 310.771 21.4936 310.319 22.4613 309.595C23.6092 308.735 24.6433 307.951 25.9145 307.296C26.9802 306.746 27.8246 305.787 28.8966 305.202C29.3962 304.931 29.7093 304.564 30.3038 304.747C30.8952 304.931 31.3537 305.506 31.9071 305.667C32.2645 305.772 33.3302 305.898 33.6717 305.743C34.1365 305.535 34.4275 304.086 34.6267 303.577C34.8607 302.973 34.9493 302.344 35.139 301.8C35.2623 301.446 35.3762 301.155 35.5564 300.816C35.724 300.5 35.8474 300.08 36.0181 299.795C36.5304 298.944 37.7922 298.381 38.5448 297.746C39.0729 297.3 39.4176 296.898 39.7655 296.376C40.0279 295.981 40.5465 295.599 40.8881 295.282C41.9253 294.321 43.0416 293.518 44.199 292.718C44.9422 292.202 45.7865 291.902 46.498 291.348C46.8996 291.035 47.2886 290.7 47.7092 290.409C48.2721 290.02 48.8033 289.6 49.3504 289.182C50.2833 288.471 51.1245 287.74 51.9467 286.908C52.9871 285.855 54.3247 285.289 55.4347 284.334C56.0166 283.832 56.649 283.398 57.1929 282.848C57.7084 282.326 58.129 281.732 58.6698 281.238C59.8398 280.166 61.1237 279.142 62.0313 277.811C62.3159 277.393 62.4614 277.08 62.844 276.726C63.195 276.4 63.5112 275.999 63.818 275.629C64.1342 275.246 64.3904 274.822 64.7003 274.436C65.1873 273.826 65.8703 273.428 66.3668 272.827C66.8127 272.286 67.2839 271.843 67.7456 271.328C68.1662 270.86 68.416 270.253 68.8303 269.781C69.1686 269.396 69.6461 269.212 70.0161 268.864C70.2881 268.611 70.4493 268.286 70.6992 268.02C71.3949 267.283 72.2645 266.727 73.1405 266.23C74.1398 265.661 74.8987 264.994 76.053 265C77.5962 265.006 79.0445 265.971 80.4928 266.474C81.3593 266.774 82.2637 267.131 83.0701 267.571C84.041 268.096 84.6797 268.596 85.4608 269.383C86.0079 269.936 86.6309 270.3 87.1811 270.8C87.7409 271.309 88.6548 271.518 89.3283 271.888C89.8849 272.194 90.4857 272.599 90.998 272.975C91.3174 273.209 91.5356 273.513 91.8993 273.706C92.4179 273.978 92.7784 274.117 93.2022 274.538C95.5676 276.884 98.7489 278.086 101.702 279.363C102.155 279.559 102.806 279.727 103.192 280.008C103.666 280.353 104.008 280.938 104.406 281.359C105.001 281.988 105.396 282.763 105.924 283.439C106.534 284.221 106.942 284.145 107.689 283.566C108.005 283.322 108.41 282.892 108.792 282.797C109.077 282.725 109.349 282.813 109.637 282.731C109.912 282.652 109.975 282.488 110.336 282.548C110.658 282.601 111.088 282.854 111.351 283.047C112.176 283.654 112.884 284.622 113.488 285.425C113.899 285.969 114.209 286.599 114.655 287.114C115.089 287.617 115.661 288.123 116.018 288.721C116.752 289.944 117.533 291.178 118.444 292.376C119.288 293.489 120.218 294.508 121.034 295.633C121.555 296.354 122.362 296.835 122.969 297.474C123.507 298.04 123.791 298.799 124.275 299.406C125.11 300.453 126.074 301.591 127.014 302.439C127.403 302.79 127.747 303.21 128.139 303.552C128.566 303.925 129.158 304.086 129.613 304.431C130.799 305.326 131.852 306.195 133.171 306.916C135.46 308.166 138.022 309.244 139.799 311.217C140.558 312.058 141.269 312.956 141.974 313.845C142.749 314.819 143.255 315.926 144.239 316.691C144.881 317.191 145.393 317.868 146.035 318.377C146.743 318.936 147.452 319.487 148.094 320.148C148.935 321.02 149.757 321.912 150.674 322.725C151.243 323.231 151.857 323.692 152.54 324.031C153.586 324.549 154.162 325.312 155.044 326.048C155.784 326.665 156.654 327.136 157.445 327.69C158.447 328.392 159.459 329.094 160.515 329.714C161.685 330.397 162.862 330.887 164.161 331.244C165.094 331.5 165.885 331.902 166.767 332.297C168.845 333.23 170.821 334.144 172.282 335.981C172.649 336.44 173.044 336.939 173.36 337.43C173.987 338.4 174.704 339.238 175.432 340.165C175.982 340.864 176.894 341.912 177.784 342.423C177.853 342.463 177.82 342.6 177.74 342.6H-16.3624C-15.6266 342.6 -17.0496 343.535 -17.4154 342.896C-17.8615 342.117 -18.125 341.276 -17.9404 340.295C-17.7253 339.159 -16.8209 338.657 -15.9197 338.084C-14.6263 337.262 -13.6871 336.101 -12.4854 335.165C-11.0984 334.088 -9.54724 333.251 -8.10632 332.252C-8.10388 332.251 -8.10242 332.248 -8.10242 332.245Z" fill="#5F9EFD"/>
<path d="M-8.65018 332.245C-8.65018 332.242 -8.64873 332.239 -8.64628 332.238C-6.51615 330.762 -4.3576 329.409 -2.1801 328.009C-0.545187 326.959 1.10554 326.001 2.63293 324.793C3.26856 324.29 3.92949 323.835 4.50819 323.262C5.00784 322.766 5.21022 322.26 5.57389 321.703C6.11464 320.878 6.82616 320.249 7.69263 319.904C8.83106 319.452 9.8936 318.917 10.953 318.358C11.9206 317.845 12.8788 316.919 13.6789 316.185C14.6244 315.322 15.5984 314.395 16.604 313.595C17.4073 312.953 18.046 312.112 18.8619 311.499C19.8233 310.771 20.9459 310.319 21.9135 309.595C23.0615 308.735 24.0955 307.951 25.3668 307.296C26.4325 306.746 27.2768 305.787 28.3488 305.202C28.8485 304.931 29.1616 304.564 29.7561 304.747C30.3474 304.931 30.806 305.506 31.3594 305.667C31.7167 305.772 32.7824 305.898 33.1239 305.743C33.5888 305.535 33.8797 304.086 34.0789 303.577C34.313 302.973 34.4015 302.344 34.5912 301.8C34.7146 301.446 34.8284 301.155 35.0087 300.816C35.1763 300.5 35.2996 300.08 35.4704 299.795C35.9827 298.944 37.2444 298.381 37.997 297.746C38.5252 297.3 38.8698 296.898 39.2177 296.376C39.4802 295.981 39.9988 295.599 40.3403 295.282C41.3775 294.321 42.4939 293.518 43.6513 292.718C44.3944 292.202 45.2387 291.902 45.9502 291.348C46.3519 291.035 46.7408 290.7 47.1614 290.409C47.7243 290.02 48.2556 289.6 48.8027 289.182C49.7355 288.471 50.5767 287.74 51.3989 286.908C52.4393 285.855 53.777 285.289 54.8869 284.334C55.4688 283.832 56.1013 283.398 56.6452 282.848C57.1606 282.326 57.5812 281.732 58.122 281.238C59.292 280.166 60.576 279.142 61.4835 277.811C61.7681 277.393 61.9136 277.08 62.2962 276.726C62.6472 276.4 62.9635 275.999 63.2702 275.629C63.5864 275.246 63.8426 274.822 64.1525 274.436C64.6395 273.826 65.3226 273.428 65.819 272.827C66.2649 272.286 66.7361 271.843 67.1978 271.328C67.6184 270.86 67.8682 270.253 68.2825 269.781C68.6209 269.396 69.0984 269.212 69.4684 268.864C69.7403 268.611 69.9016 268.286 70.1514 268.02C70.8471 267.283 71.7167 266.727 72.5927 266.23C73.592 265.661 74.351 264.994 75.5052 265C77.0484 265.006 78.4967 265.971 79.9451 266.474C80.8115 266.774 81.716 267.131 82.5224 267.571C83.4932 268.096 84.132 268.596 84.9131 269.383C85.4602 269.936 86.0831 270.3 86.6334 270.8C87.1931 271.309 88.107 271.518 88.7806 271.888C89.3371 272.194 89.938 272.599 90.4503 272.975C90.7697 273.209 90.9879 273.513 91.3515 273.706C91.8701 273.978 92.2306 274.117 92.6544 274.538C95.0198 276.884 98.2011 278.086 101.155 279.363C101.607 279.559 102.258 279.727 102.644 280.008C103.118 280.353 103.46 280.938 103.858 281.359C104.453 281.988 104.848 282.763 105.376 283.439C105.987 284.221 106.395 284.145 107.141 283.566C107.457 283.322 107.862 282.892 108.245 282.797C108.529 282.725 108.801 282.813 109.089 282.731C109.364 282.652 109.427 282.488 109.788 282.548C110.11 282.601 110.54 282.854 110.803 283.047C111.628 283.654 112.337 284.622 112.941 285.425C113.352 285.969 113.662 286.599 114.107 287.114C114.541 287.617 115.113 288.123 115.47 288.721C116.204 289.944 116.985 291.178 117.896 292.376C118.74 293.489 119.67 294.508 120.486 295.633C121.008 296.354 121.814 296.835 122.421 297.474C122.959 298.04 123.243 298.799 123.727 299.406C124.562 300.453 125.527 301.591 126.466 302.439C126.855 302.79 127.199 303.21 127.592 303.552C128.019 303.925 128.61 304.086 129.065 304.431C130.251 305.326 131.304 306.195 132.623 306.916C134.912 308.166 137.474 309.244 139.251 311.217C140.01 312.058 140.722 312.956 141.427 313.845C142.201 314.819 142.707 315.926 143.691 316.691C144.333 317.191 144.845 317.868 145.487 318.377C146.195 318.936 146.904 319.487 147.546 320.148C148.387 321.02 149.209 321.912 150.126 322.725C150.695 323.231 151.309 323.692 151.992 324.031C153.039 324.549 153.614 325.312 154.497 326.048C155.236 326.665 156.106 327.136 156.897 327.69C157.899 328.392 158.911 329.094 159.967 329.714C161.137 330.397 162.314 330.887 163.613 331.244C164.546 331.5 165.337 331.902 166.219 332.297C168.297 333.23 170.273 334.144 171.734 335.981C172.101 336.44 172.496 336.939 172.813 337.43C173.439 338.4 174.157 339.238 174.884 340.165C175.434 340.864 176.346 341.912 177.236 342.423C177.305 342.463 177.272 342.6 177.192 342.6H-16.9101C-16.1743 342.6 -17.5974 343.535 -17.9632 342.896C-18.4093 342.117 -18.6728 341.276 -18.4881 340.295C-18.2731 339.159 -17.3687 338.657 -16.4674 338.084C-15.174 337.262 -14.2348 336.101 -13.0331 335.165C-11.6461 334.088 -10.095 333.25 -8.65408 332.252C-8.65164 332.251 -8.65018 332.248 -8.65018 332.245Z" fill="url(#paint3_linear_199_449)"/>
<path d="M346.207 299.126H-44C-46.7614 299.126 -49 301.364 -49 304.126V342.06C-49 344.821 -46.7614 347.06 -44 347.06H346.207C348.969 347.06 351.207 344.821 351.207 342.06V304.126C351.207 301.364 348.969 299.126 346.207 299.126Z" fill="url(#paint4_linear_199_449)"/>
<path d="M268.032 307.291C266.963 307.179 265.891 307.113 264.814 307.083C263.267 307.04 261.986 306.778 260.601 307.484C258.105 308.757 255.601 310.586 253.359 312.249C251.646 313.518 249.829 315.679 247.695 316.257C246.291 316.639 244.281 316.381 242.853 316.092C239.532 315.412 236.021 315.046 232.66 315.725C229.635 316.335 227.004 317.488 223.879 317.349C222.629 317.295 221.371 317.245 220.121 317.241C218.311 317.237 217.509 316.616 215.973 315.721C214.418 314.814 212.79 314.398 211.077 313.877C209.657 313.445 207.933 313.047 206.432 313.341C203.685 313.877 200.544 316.485 198.939 318.704C197.736 320.37 197.122 322.924 194.78 323.341C192.176 323.804 189.275 322.6 186.693 323.221C183.943 323.881 181.234 325.178 178.526 326.03C174.664 327.246 170.728 328.195 166.882 329.46C163.961 330.421 161.557 329.576 158.706 329.128C156.268 328.743 153.71 329.29 151.264 328.831C146.757 327.986 142.324 326.277 137.864 325.162C134.372 324.29 130.572 323.573 126.972 323.495C126.012 323.476 124.789 323.218 123.851 323.434C122.813 323.673 121.984 324.603 121.05 325.089C118.878 326.212 116.231 326.227 113.885 326.806C109.923 327.786 105.459 326.478 101.412 326.794C93.2053 327.438 84.8832 326.794 76.6266 326.528C73.7021 326.435 70.7352 326.177 67.8068 326.215C66.0744 326.239 64.4 326.694 62.6677 326.682C59.8319 326.659 57.1504 326.185 54.4304 327.219C52.7289 327.867 51.1586 328.669 49.3877 329.125C48.1222 329.452 46.7564 329.777 45.7842 330.718C44.3065 332.153 44.4261 334.468 44.0518 336.347C43.7867 337.681 43.3676 338.969 42.9044 340.244C41.8731 343.084 43.6531 346.009 46.642 346.45L166.789 364.157L254.767 366.977C257.307 367.059 259.503 365.222 259.874 362.709L268.039 307.299C268.039 307.295 268.036 307.291 268.032 307.291Z" fill="#2A63D4"/>
<path d="M152.172 309.624C153.3 311.434 155 312.792 156.954 313.447C156.954 313.447 157.302 313.121 157.81 312.528C158.654 311.526 159.386 310.426 159.994 309.248C160.511 308.243 160.909 307.172 161.181 306.056C161.282 305.627 161.361 305.191 161.417 304.75C161.526 303.897 161.557 303.03 161.51 302.161C161.459 301.247 161.316 300.335 161.084 299.44C161.077 299.407 161.066 299.375 161.058 299.342C160.327 296.614 158.949 294.83 158.373 294.575C157.787 294.318 157.715 295.962 155.971 299.158C155.745 299.572 155.49 300.008 155.206 300.474C154.745 301.218 154.201 302.031 153.552 302.906C153.187 303.399 152.787 303.913 152.35 304.447C152.118 304.728 151.877 305.018 151.623 305.31C151.512 305.442 151.401 305.574 151.286 305.703C151.249 305.995 151.238 306.292 151.254 306.589C151.296 307.653 151.612 308.702 152.172 309.624Z" fill="#FF9E12"/>
<path d="M155.313 300.45C156.175 301.043 157.127 301.473 158.119 301.718C159.311 302.016 160.524 302.167 161.733 302.167C161.681 301.237 161.536 300.309 161.3 299.398C161.292 299.365 161.281 299.332 161.273 299.298C160.305 299.498 159.312 299.582 158.314 299.549C157.562 299.514 156.814 299.367 156.091 299.111C155.86 299.532 155.601 299.976 155.313 300.45Z" fill="#F93D31"/>
<path d="M152.251 304.399C153.359 305.737 154.69 306.859 156.175 307.703C157.39 308.381 158.674 308.9 159.997 309.249C160.522 308.234 160.926 307.152 161.201 306.024C160.017 305.88 158.844 305.604 157.702 305.201C156.167 304.715 154.726 303.911 153.469 302.841C153.1 303.339 152.694 303.858 152.251 304.399Z" fill="#F93D31"/>
<path opacity="0.13" d="M151.151 306.553L157.768 312.53C158.939 311.144 160.947 308.321 161.41 304.703C161.644 302.936 161.53 301.118 161.074 299.358C160.699 301.466 159.591 303.318 157.955 304.569C157.069 305.267 156.007 305.698 154.878 305.821C153.748 305.943 152.591 305.751 151.522 305.265C151.41 305.398 151.298 305.53 151.182 305.66C151.144 305.954 151.134 306.253 151.151 306.553Z" fill="#590800"/>
<path d="M167.181 342.623C167.181 342.623 165.895 343.466 165.965 343.773C166.034 344.079 167.927 343.218 167.927 343.218C167.927 343.218 168.107 344.419 169.113 344.149C169.397 344.075 169.648 343.91 169.831 343.675C170.015 343.441 170.122 343.149 170.138 342.838C170.138 342.838 172.393 343.265 173.114 342.557C173.836 341.848 171.949 341.819 171.949 341.819C171.949 341.819 174.3 341.239 174.332 340.763C174.364 340.288 171.768 340.545 171.768 340.545L167.181 342.623Z" fill="#443551"/>
<path d="M160.652 320.191C160.652 320.191 165.464 313.593 165.586 312.506C165.708 311.419 165.221 310.23 164.799 308.968C164.172 307.092 163.813 307.211 163.762 306.988C163.669 306.583 164.44 306.386 165.014 307.033C165.415 307.548 165.723 308.132 165.922 308.753C165.922 308.753 167.598 305.229 168.07 305.254C168.541 305.279 167.766 307.986 167.766 307.986C167.766 307.986 169.864 305.845 170.31 306.049C170.756 306.253 169.097 308.495 169.097 308.495C169.097 308.495 170.895 307.26 171.292 307.357C171.688 307.454 169.947 309.165 169.947 309.165C169.947 309.165 171.515 308.957 171.606 309.381C171.655 309.611 169.89 310.609 169.609 310.827C169.328 311.044 166.932 312.907 166.932 312.907L164.621 324.465L160.652 320.191Z" fill="#009579"/>
<path d="M134.663 354.077C137.083 355.368 141.082 353.515 141.082 353.515C141.082 353.515 142.147 348.146 143.661 346.712C144.741 345.695 159.389 341.356 161.526 341.567C163.504 341.765 167.185 343.445 167.185 343.445C168.029 343.337 168.85 343.115 169.628 342.785C170.388 342.465 171.083 342.008 171.682 341.436C171.682 341.436 170.259 334.063 168.735 328.62C167.21 323.177 155.512 308.695 151.727 306.552C150.409 305.846 149.045 305.246 147.648 304.758C143.286 303.177 137.666 301.931 135.651 302.945C132.896 304.333 128.515 315.878 129.041 329.634C129.385 337.994 131.295 346.297 134.663 354.077Z" fill="url(#paint5_linear_199_449)"/>
<path d="M136.42 322.099C134.88 318.486 135.773 314.701 138.415 313.645C141.058 312.59 144.448 314.663 145.988 318.276C147.529 321.889 146.635 325.674 143.993 326.73C141.351 327.785 137.96 325.712 136.42 322.099Z" fill="#009579"/>
<path d="M137.579 321.882C137.718 322.18 137.873 322.472 138.043 322.754C138.406 323.373 138.842 323.944 139.34 324.453C140.177 325.347 141.241 325.954 142.372 326.182C142.886 326.272 143.403 326.238 143.883 326.084C143.979 326.052 144.073 326.015 144.167 325.975C146.301 325.012 146.812 321.616 145.31 318.394C143.808 315.171 140.861 313.337 138.726 314.3C136.591 315.263 136.076 318.656 137.579 321.882Z" fill="#CAE7EF"/>
<path d="M137.902 321.691C136.449 318.654 136.946 315.456 139.01 314.548C141.075 313.641 143.926 315.367 145.378 318.405C146.83 321.442 146.334 324.64 144.27 325.548C142.205 326.455 139.354 324.729 137.902 321.691Z" fill="white"/>
<path d="M137.835 322.712C138.201 323.335 138.641 323.909 139.143 324.421C139.987 325.32 141.06 325.931 142.2 326.16C142.719 326.25 143.24 326.217 143.724 326.062C144.16 325.021 143.812 323.454 142.77 322.16C142.76 322.147 142.75 322.137 142.739 322.123C142.491 321.818 142.211 321.542 141.905 321.302C140.705 320.345 139.304 320.125 138.471 320.875C138.237 321.099 138.059 321.38 137.949 321.698C137.839 322.016 137.8 322.362 137.835 322.712Z" fill="url(#paint6_linear_199_449)"/>
<path d="M139.132 324.406C139.973 325.303 141.042 325.912 142.178 326.141C142.329 326.09 142.466 326.01 142.585 325.904C143.325 325.244 143.157 323.77 142.213 322.62C141.27 321.469 139.907 321.065 139.173 321.731C138.56 322.279 138.571 323.386 139.132 324.406Z" fill="#590800"/>
<path d="M141.711 322.96C141.791 323.115 141.828 323.288 141.817 323.457C141.805 323.626 141.746 323.783 141.648 323.908C141.549 324.034 141.414 324.121 141.261 324.161C141.108 324.2 140.943 324.189 140.788 324.129C140.632 324.07 140.492 323.964 140.387 323.825C140.281 323.686 140.213 323.521 140.193 323.35C140.173 323.179 140.2 323.01 140.272 322.864C140.344 322.719 140.458 322.603 140.598 322.532C140.691 322.485 140.793 322.458 140.9 322.454C141.006 322.45 141.114 322.468 141.217 322.508C141.321 322.548 141.418 322.608 141.502 322.686C141.587 322.763 141.658 322.856 141.711 322.96Z" fill="white"/>
<path d="M143.004 321.418C143.06 321.527 143.086 321.648 143.078 321.767C143.07 321.885 143.029 321.995 142.96 322.082C142.891 322.17 142.796 322.231 142.689 322.259C142.582 322.286 142.467 322.279 142.358 322.237C142.249 322.195 142.152 322.121 142.078 322.024C142.004 321.927 141.956 321.811 141.942 321.691C141.928 321.572 141.947 321.454 141.998 321.352C142.048 321.25 142.127 321.169 142.225 321.119C142.357 321.053 142.513 321.047 142.659 321.103C142.805 321.159 142.929 321.272 143.004 321.418Z" fill="white"/>
<path d="M149.909 318.419C151.749 321.885 154.978 323.658 157.122 322.379C159.265 321.101 159.51 317.254 157.67 313.79C155.83 310.326 152.6 308.551 150.457 309.83C148.313 311.108 148.068 314.952 149.909 318.419Z" fill="#009579"/>
<path d="M150.102 318.503C150.263 318.785 150.438 319.06 150.625 319.326C151.02 319.902 151.477 320.429 151.986 320.896C152.796 321.689 153.806 322.197 154.859 322.34C155.314 322.383 155.762 322.302 156.16 322.106C156.238 322.065 156.315 322.019 156.39 321.97C158.113 320.82 158.089 317.401 156.34 314.337C154.59 311.272 151.777 309.718 150.054 310.867C148.331 312.017 148.351 315.435 150.102 318.503Z" fill="#CAE7EF"/>
<path d="M150.171 317.946C148.58 315.004 148.729 311.888 150.502 310.988C152.275 310.087 155.001 311.743 156.592 314.685C158.182 317.628 158.034 320.743 156.261 321.644C154.487 322.544 151.761 320.889 150.171 317.946Z" fill="white"/>
<path d="M150.439 319.271C150.839 319.851 151.301 320.382 151.815 320.852C152.633 321.651 153.655 322.162 154.719 322.306C155.179 322.349 155.632 322.268 156.034 322.07C156.27 320.996 155.751 319.467 154.663 318.277C154.652 318.264 154.642 318.255 154.631 318.242C154.376 317.964 154.094 317.715 153.79 317.5C152.612 316.658 151.361 316.567 150.739 317.386C150.563 317.648 150.446 317.951 150.394 318.276C150.342 318.601 150.357 318.94 150.439 319.271Z" fill="url(#paint7_linear_199_449)"/>
<path d="M151.804 320.834C152.619 321.63 153.635 322.139 154.695 322.283C154.82 322.218 154.93 322.125 155.017 322.011C155.569 321.288 155.22 319.839 154.24 318.781C153.259 317.723 152.019 317.449 151.47 318.172C151.012 318.773 151.175 319.872 151.804 320.834Z" fill="#590800"/>
<path d="M153.847 319.17C153.971 319.356 154.029 319.579 154.009 319.795C153.99 320.01 153.894 320.203 153.741 320.335C153.661 320.388 153.57 320.422 153.474 320.434C153.377 320.447 153.278 320.437 153.181 320.407C153.085 320.376 152.993 320.325 152.913 320.257C152.833 320.189 152.766 320.105 152.715 320.011C152.591 319.825 152.533 319.602 152.553 319.386C152.572 319.171 152.668 318.979 152.821 318.846C152.901 318.793 152.992 318.759 153.088 318.747C153.185 318.734 153.284 318.744 153.381 318.774C153.477 318.805 153.569 318.855 153.649 318.924C153.729 318.992 153.797 319.076 153.847 319.17Z" fill="white"/>
<path d="M154.772 317.548C154.859 317.678 154.899 317.834 154.885 317.984C154.871 318.135 154.804 318.269 154.698 318.362C154.642 318.399 154.578 318.422 154.511 318.431C154.443 318.44 154.374 318.433 154.306 318.412C154.239 318.391 154.175 318.355 154.119 318.308C154.062 318.26 154.015 318.201 153.98 318.135C153.894 318.005 153.853 317.849 153.867 317.699C153.881 317.549 153.947 317.414 154.054 317.322C154.11 317.285 154.174 317.261 154.241 317.252C154.309 317.244 154.378 317.25 154.446 317.271C154.513 317.293 154.577 317.328 154.634 317.376C154.69 317.423 154.737 317.482 154.772 317.548Z" fill="white"/>
<path d="M145.381 337.122C145.391 336.943 145.586 335.421 149.392 333.073C151.908 331.545 154.705 330.536 157.637 330.096C157.41 329.4 157.139 328.718 156.826 328.054C155.654 325.555 153.233 321.88 149.7 323.876C145.833 326.063 145.338 332.459 145.334 335.499C145.331 336.315 145.364 336.885 145.378 337.075L145.381 337.122Z" fill="#590800"/>
<path d="M145.242 337.122C145.252 336.94 145.45 335.391 149.295 333.001C151.838 331.447 154.663 330.42 157.626 329.972L157.28 329.003C154.983 328.65 152.672 328.956 150.598 329.887C147.009 331.607 145.195 335.472 145.195 335.472L145.239 337.075L145.242 337.122Z" fill="#8B1229"/>
<path d="M147.061 327.639L147.865 328.056L149.54 328.926L149.105 325.374L149.047 324.913L149.622 324.911L150.845 324.905L151.01 324.225L151.035 324.125L151.17 324.185L152.212 324.641L152.278 324.127L152.33 323.744L152.717 324.206L155.145 327.107L154.622 324.827C154.205 324.351 153.682 323.987 153.105 323.772C152.528 323.557 151.915 323.498 151.327 323.599C150.061 323.853 148.942 324.559 148.16 325.599C148.156 325.599 148.155 325.608 148.155 325.608C147.984 325.825 147.827 326.054 147.684 326.293C147.426 326.712 147.217 327.164 147.061 327.639Z" fill="white"/>
<path d="M158.205 329.839L157.851 324.937L155.005 330.692L158.205 329.839Z" fill="white"/>
<path d="M149.707 332.751L142.968 330.102L146.561 335.792L149.707 332.751Z" fill="white"/>
<path d="M160.044 330.1L157.995 329.397C157.995 329.397 155.3 329.262 151.519 330.981C144.132 334.343 144.598 339.594 144.598 339.594C144.598 339.594 145.456 334.431 152.165 331.885C156.239 330.34 158.73 330.936 158.73 330.936L160.044 330.1Z" fill="#590800"/>
<path d="M147.064 327.675L147.87 328.095C148.007 327.068 148.441 326.126 149.115 325.393L149.057 324.928L149.634 324.926C149.897 324.725 150.182 324.557 150.485 324.425C150.66 324.346 150.841 324.283 151.026 324.234L151.052 324.134L151.187 324.194C151.549 324.113 151.924 324.094 152.299 324.136L152.351 323.75L152.739 324.216C153.511 324.421 154.223 324.85 154.79 325.452L154.651 324.841C154.232 324.361 153.707 323.995 153.128 323.778C152.549 323.561 151.934 323.501 151.344 323.604C150.073 323.859 148.951 324.571 148.166 325.619C148.162 325.619 148.161 325.628 148.161 325.628C147.998 325.855 147.837 326.09 147.689 326.318C147.43 326.741 147.22 327.196 147.064 327.675Z" fill="#8ECEDD"/>
<path d="M156.672 327.487L156.907 327.01C156.907 327.01 154.921 322.068 151.18 322.787C146.118 323.76 145.261 330.935 145.261 330.935L145.756 331.179C145.756 331.179 146.973 323.967 151.28 323.381C154.83 322.898 156.672 327.487 156.672 327.487Z" fill="#02896F"/>
<path d="M133.985 314.699C134.319 313.4 134.887 312.191 135.661 311.134C136.958 309.353 137.764 309.022 137.764 309.022L135.545 309.423L136.056 308.443C136.056 308.443 134.07 308.942 133.292 310.617C132.515 312.292 133.108 314.501 133.108 314.501L133.565 313.479L133.985 314.699Z" fill="#590800"/>
<path d="M119.677 311.65C119.702 311.725 119.727 311.801 119.752 311.88C120.135 313.032 120.664 314.133 121.324 315.154C121.56 315.522 121.814 315.877 122.085 316.219C122.709 317.008 123.406 317.733 124.164 318.383C125.692 319.69 127.404 320.734 129.231 321.473C130.732 320.154 131.691 318.284 131.929 316.212C132.064 314.871 131.747 313.497 131.032 312.32C131.022 312.303 131.016 312.297 131.016 312.297C130.899 312.243 130.784 312.185 130.67 312.131C130.225 311.916 129.798 311.701 129.387 311.487C128.92 311.245 128.474 311.005 128.05 310.765C126.91 310.128 125.799 309.429 124.724 308.672C124.313 308.381 123.938 308.1 123.594 307.831C120.804 305.659 120.046 304.281 119.636 304.718C119.241 305.136 118.789 307.075 119.192 309.621C119.304 310.307 119.466 310.985 119.677 311.65Z" fill="#FF9E12"/>
<path d="M129.988 326.374C129.988 326.374 121.816 324.571 120.975 323.836C120.133 323.1 119.608 321.678 118.906 320.53C118.209 319.389 118.532 318.627 118.356 318.478C118.039 318.207 117.638 318.721 117.654 319.584C117.685 320.159 117.849 320.727 118.132 321.238C118.132 321.238 114.012 319.552 113.677 319.881C113.341 320.21 116.217 321.869 116.217 321.869C116.217 321.869 112.499 321.429 112.303 321.876C112.108 322.322 115.566 323.122 115.566 323.122C115.566 323.122 112.446 323.546 112.214 323.879C111.983 324.212 115.478 324.392 115.478 324.392C115.478 324.392 113.588 325.137 113.812 325.515C113.934 325.72 116.429 325.23 116.791 325.208C117.153 325.187 120.239 325.016 120.239 325.016L129.953 332.184C129.953 332.184 131.254 331.544 131.329 329.363C131.401 327.17 129.988 326.374 129.988 326.374Z" fill="url(#paint8_linear_199_449)"/>
<path d="M141.193 353.339C141.193 353.339 142.254 347.981 143.763 346.551C144.839 345.535 159.441 341.206 161.571 341.416C163.542 341.614 167.212 343.29 167.212 343.29C168.054 343.182 168.872 342.961 169.647 342.632C170.405 342.312 171.097 341.856 171.694 341.285C171.694 341.285 170.276 333.928 168.757 328.497C167.237 323.065 155.577 308.614 151.804 306.476C150.49 305.771 149.13 305.172 147.737 304.685L144.928 304.503L145.847 309.622C145.847 309.622 149.942 308.08 152.646 308.817C155.349 309.553 161.108 317.111 163.281 325.785C165.455 334.459 162.724 337.657 155.911 340.046C149.098 342.436 144.372 343.977 142.582 345.912C140.793 347.848 141.193 353.339 141.193 353.339Z" fill="#02896F"/>
<path d="M145.598 305.568C145.598 305.568 147.278 305.835 148.901 306.217C149.881 306.474 150.846 306.807 151.786 307.214L150.919 306.315L151.743 306.319C151.086 305.453 150.193 304.81 149.193 304.482C147.822 304.11 146.403 304.08 145.056 304.394L146.419 304.998L145.598 305.568Z" fill="#590800"/>
<path d="M133.352 307.214C135.562 306.466 137.957 306.349 140.294 306.874C142.526 307.371 144.597 308.555 146.232 310.267C146.232 310.267 147.566 304.994 144.614 302.104C144.206 301.68 143.711 301.358 143.171 301.166C142.631 300.973 142.062 300.915 141.511 300.997L144.118 299.514C142.317 298.916 140.407 298.993 138.728 299.73C137.051 300.492 136.731 301.289 136.731 301.289L137.48 298.314C137.48 298.314 133.485 299.418 132.506 302.194C131.801 304.192 133.352 307.214 133.352 307.214Z" fill="#443551"/>
<path opacity="0.72" d="M133.831 305.913C133.831 305.913 134.727 303.249 138.092 302.225C141.501 301.188 143.495 302.45 143.495 302.45L140.94 302.674C142.031 302.779 143.067 303.308 143.84 304.155C144.639 305.021 145.178 306.106 145.384 307.265C145.384 307.265 143.016 304.819 139.85 304.796C137.986 304.769 136.175 305.246 134.592 306.18L134.91 305.049L133.831 305.913Z" fill="#725F82"/>
<path opacity="0.43" d="M129.872 334.461C129.871 334.398 129.892 334.338 129.93 334.292C129.967 334.246 130.02 334.217 130.077 334.212C130.135 334.206 130.193 334.223 130.242 334.261C130.291 334.298 130.327 334.353 130.343 334.415C130.777 336.085 131.469 338.864 132.164 342.169C132.78 345.095 133.321 347.913 133.688 349.891C133.701 349.956 133.691 350.023 133.66 350.078C133.629 350.133 133.58 350.172 133.522 350.187C133.464 350.202 133.401 350.193 133.347 350.16C133.293 350.128 133.251 350.074 133.229 350.011C132.493 347.926 131.494 344.963 130.823 342.44C130.196 339.817 129.876 337.135 129.872 334.461Z" fill="white"/>
<path d="M157.057 332.808C157.057 332.808 154.648 332.547 151.721 334.257C148.795 335.967 148.304 337.164 148.304 337.164L157.057 332.808Z" fill="#02896F"/>
<path d="M121.981 316.216C122.614 317.015 123.321 317.749 124.091 318.406C124.595 318.169 125.74 317.484 127.243 315.642C129.293 313.129 129.393 311.425 129.393 311.425C128.919 311.18 128.466 310.936 128.036 310.694C127.471 312.059 126.649 313.281 125.615 314.293C124.575 315.219 123.332 315.876 121.981 316.216Z" fill="#F93D31"/>
<path d="M119.607 311.825C120.569 311.767 121.498 311.5 122.335 311.043C123.327 310.524 124.162 309.745 124.764 308.778C124.345 308.48 123.961 308.192 123.61 307.917C123.009 308.42 122.34 308.829 121.621 309.134C120.839 309.508 119.987 309.717 119.112 309.749C119.226 310.45 119.391 311.144 119.607 311.825Z" fill="#F93D31"/>
<path opacity="0.13" d="M119.595 311.788C119.984 312.949 120.519 314.06 121.186 315.089C124.091 319.606 129.185 321.46 129.185 321.46C130.703 320.13 131.673 318.245 131.914 316.156C132.05 314.804 131.73 313.418 131.007 312.232L130.641 312.041C130.641 312.041 126.586 313.985 123.086 313.285C121.842 313.064 120.648 312.552 119.595 311.788Z" fill="#590800"/>
<path opacity="0.67" d="M129.375 312.983C129.435 313 129.496 312.993 129.549 312.964C129.601 312.936 129.64 312.887 129.659 312.828C129.677 312.769 129.674 312.704 129.649 312.646C129.624 312.587 129.579 312.539 129.523 312.51C128.09 311.772 126.703 310.931 125.374 309.994C124.075 309.058 122.947 308.134 122.127 307.427C122.079 307.385 122.019 307.363 121.958 307.364C121.897 307.365 121.84 307.389 121.798 307.433C121.756 307.476 121.732 307.535 121.73 307.598C121.729 307.661 121.75 307.724 121.79 307.774C122.76 309.009 123.891 310.101 125.147 311.014C126.441 311.932 127.875 312.6 129.375 312.983Z" fill="white"/>
<path opacity="0.67" d="M158.018 298.287C158.028 298.222 158.015 298.155 157.98 298.097C157.946 298.039 157.894 297.995 157.832 297.973C157.771 297.95 157.705 297.952 157.647 297.977C157.589 298.001 157.543 298.048 157.518 298.107C157.037 299.29 156.473 300.43 155.83 301.52C155.206 302.548 154.519 303.533 153.773 304.466C153.732 304.517 153.712 304.582 153.716 304.649C153.719 304.717 153.747 304.782 153.794 304.832C153.841 304.882 153.902 304.913 153.967 304.919C154.033 304.926 154.096 304.907 154.146 304.866C155.008 304.156 155.777 303.333 156.434 302.416C157.253 301.193 157.794 299.784 158.018 298.287Z" fill="white"/>
<path d="M209.342 313.404C209.342 313.405 209.341 313.405 209.34 313.405C206.64 313.046 203.631 312.228 200.059 310.874C193.06 308.227 189.317 306.645 182.627 310.191C180.984 311.061 181.762 313.401 183.622 313.401H209.341C209.342 313.401 209.343 313.403 209.342 313.404Z" fill="#5F9EFD"/>
<path d="M398.217 267.812C398.216 267.812 398.215 267.812 398.215 267.812C389.657 264.837 370.39 261.358 361.397 265.007C354.988 267.608 353.287 275.506 348.892 279.912C340.262 288.566 331.345 286.953 317.749 286.602C306.826 286.32 308.513 290.105 300.997 295.345C297.054 298.095 291.44 294.372 287.346 296.332C281.563 299.102 279.75 302.725 277.165 304.982C266.053 314.697 250.069 309.848 237.225 318.096C233.324 320.6 230.723 324.586 225.951 325.195C221.989 325.701 215.815 324.011 211.996 325.257C207.127 326.843 203.571 331.638 200.437 336.482C197.999 340.252 201.172 346.527 205.662 346.527H391.318C394.177 346.527 396.454 344.135 396.312 341.28C396.156 338.12 395.999 334.96 395.843 331.801L398.219 267.813C398.22 267.811 398.218 267.811 398.217 267.812Z" fill="url(#paint9_linear_199_449)"/>
<g style="mix-blend-mode:overlay" opacity="0.28">
<path d="M-138.849 173.738C-138.849 173.738 -109.147 183.882 -90.3127 183.882C-71.4785 183.882 -70.7548 182.434 -66.4066 186.053C-62.0585 189.677 -61.3348 191.849 -51.9205 191.125C-42.5063 190.401 -26.567 193.296 -19.3239 196.197C-12.0808 199.097 -4.8378 194.749 3.85843 196.197C12.549 197.644 39.3557 207.788 66.8805 205.611C66.8805 205.611 1.68723 203.44 -35.9812 199.815C-73.6497 196.191 -125.081 183.152 -138.843 173.738H-138.849Z" fill="white"/>
</g>
<g style="mix-blend-mode:overlay" opacity="0.28">
<path d="M101 139C101 139 127.543 144.676 143.726 142.802C159.91 140.929 160.387 139.63 164.485 142.275C168.583 144.92 169.426 146.699 177.446 145.148C185.466 143.597 199.454 144.479 205.97 146.219C212.487 147.966 218.279 143.55 225.893 143.912C233.508 144.274 257.56 150.241 281 145.66C281 145.66 224.755 150.289 192.022 150.95C159.289 151.611 113.778 145.636 101.008 139H101Z" fill="white"/>
</g>
<g style="mix-blend-mode:overlay" opacity="0.28">
<path d="M-264.978 114C-264.978 114 -53.1589 162.673 138.289 173.834C329.736 184.986 452.964 130.224 452.964 130.224L455 138.34C455 138.34 296.138 200.201 38.4898 179.915C-219.158 159.636 -266 140.367 -266 140.367L-264.978 114Z" fill="white"/>
</g>
<path opacity="0.2" d="M-114 -39C-114 -39 25.9239 96.1757 291 109C291 109 289.028 102.09 278.192 100.116C267.356 98.1421 255.526 103.078 252.569 96.168C249.611 89.2584 239.761 69.5246 219.066 68.5452C198.372 67.5659 185.564 79.3954 174.72 72.4935C163.876 65.5917 151.068 52.7597 140.232 53.7468C129.396 54.7338 102.787 62.6305 98.8433 50.7855C94.9001 38.9406 94.9001 18.2274 72.2341 -7.42893C49.5681 -33.0852 -18.4223 12.3049 -29.2585 -2.49354C-40.0948 -17.292 -43.0522 -39 -56.8459 -39H-114Z" fill="white"/>
<path opacity="0.2" d="M191 111.94C191 111.94 19.9634 114.287 -98.1857 89.6113C-216.326 64.9354 -261 28.5062 -261 28.5062C-261 28.5062 -235.136 40.2596 -223.968 39.0815C-212.799 37.9034 -198.694 24.392 -189.293 26.1591C-179.892 27.9262 -172.839 50.8349 -165.197 52.013C-157.555 53.1911 -152.85 46.7208 -122.291 47.3098C-91.7312 47.8988 -89.3742 67.8715 -75.8577 77.2779C-62.3412 86.6752 -23.5504 80.803 -5.32899 80.214C12.8924 79.6249 22.2932 98.4286 34.051 100.776C45.8088 103.123 70.4939 94.3144 75.779 96.0725C81.0641 97.8305 84.5996 104.89 90.474 104.301C96.3483 103.712 95.1789 97.2505 101.053 100.776C106.928 104.301 123.39 109.004 128.086 103.712C132.791 98.4195 190.973 111.94 190.973 111.94H191Z" fill="white"/>
<path opacity="0.2" d="M150 29.5247C150 29.5247 308.199 61.3008 382 55.2288C382 55.2288 366.856 48.7868 358.318 49.6287C349.781 50.4706 343.587 55.3053 333.491 45.7508C323.408 36.1963 295.451 27.3179 280.371 35.7371C265.305 44.1563 253.625 39.9849 249.349 36.6938C245.074 33.4027 240 36.5152 230.664 36.3239C221.315 36.1453 210.344 10.7091 197.196 11.0025C184.048 11.2959 179.992 29.3717 172.123 24.7283C164.255 20.085 150 29.5247 150 29.5247Z" fill="white"/>
<path d="M136.718 342.086H-19V310.169C-17.521 309.7 -15.954 309.235 -14.2988 308.781C-5.23941 306.305 6.44118 304.2 20.8405 303.649C28.8111 303.347 37.6188 303.52 47.2729 304.376C83.7307 307.601 116.954 327.586 136.718 342.086Z" fill="url(#paint10_linear_199_449)"/>
<g style="mix-blend-mode:screen" opacity="0.34">
<path d="M136.718 342.086H130.573C122.879 336.469 109.188 327.061 98.2685 322.74C82.1542 316.362 69.7341 316.025 58.3179 310.99C46.9047 305.953 31.7974 306.289 23.402 305.619C15.0097 304.946 5.944 306.289 -2.78498 308.303C-7.35086 309.357 -13.8457 311.604 -19 313.508V310.169C-17.521 309.7 -15.954 309.235 -14.2988 308.781C-5.23941 306.305 6.44118 304.2 20.8405 303.649C28.8111 303.347 37.6188 303.52 47.2729 304.376C83.7307 307.601 116.954 327.586 136.718 342.086Z" fill="white"/>
</g>
<path style="mix-blend-mode:multiply" opacity="0.46" d="M99.5366 342.086H-19V310.169C-17.521 309.7 -15.954 309.235 -14.2988 308.782C-14.5096 309.423 -14.604 310.103 -14.5568 310.811C-14.3869 313.278 -12.4202 315.333 -10.1577 316.331C-7.8984 317.328 -5.36215 317.466 -2.89198 317.57C10.0725 318.121 23.0621 318.121 36.0265 317.57C37.6565 317.501 39.3463 317.432 40.8662 318.023C42.3892 318.615 43.7108 320.056 43.6133 321.686C43.4748 324.053 40.5987 325.604 40.5641 327.977C40.5421 329.487 41.7693 330.79 43.1759 331.34C44.5856 331.891 46.1432 331.85 47.6536 331.797C59.7905 331.365 71.9368 330.598 84.0674 331.202C87.1008 331.35 90.1877 331.601 93.004 332.741C95.8204 333.88 98.366 336.054 99.244 338.962C99.5524 339.981 99.6373 341.038 99.5366 342.086Z" fill="url(#paint11_linear_199_449)"/>
<path d="M69.1717 303.677C69.1717 303.677 86.8255 315.487 87.8397 316.059C88.8611 316.632 90.7446 315.964 91.8747 315.098C93.0047 314.24 93.6495 313.408 93.9972 313.681C94.3449 313.954 93.4684 314.962 92.4759 315.759C91.4835 316.557 90.5418 316.652 90.5418 316.652C90.5418 316.652 91.6501 316.816 92.7874 316.196C94.2 315.419 95.1852 313.865 95.504 313.865C95.8227 313.865 95.3808 315.555 93.8595 316.788C92.7584 317.688 91.8457 317.899 91.8457 317.899C91.8457 317.899 92.8744 318.104 94.0696 317.409C95.2649 316.707 95.7865 315.684 96.3588 315.684C96.931 315.684 95.743 317.518 94.3304 318.349C93.0699 319.099 90.8315 319.051 90.8315 319.051C90.8315 319.051 92.063 319.473 92.657 319.909C93.251 320.346 93.0265 321.245 93.0265 321.245C93.0265 321.245 91.8964 320.53 90.5997 320.284C89.2958 320.039 87.6007 317.511 87.2312 317.225C86.869 316.938 75.1915 311.896 75.1915 311.896C75.1915 311.896 69.0341 304.577 69.1572 303.67L69.1717 303.677Z" fill="#68004D"/>
<path d="M63.3402 303.997C63.3402 303.997 45.6864 315.807 44.6722 316.379C43.6508 316.952 41.7674 316.284 40.6373 315.419C39.5072 314.56 38.9422 313.817 38.5872 314.09C38.2395 314.362 39.0436 315.289 40.0288 316.08C41.014 316.87 41.963 316.972 41.963 316.972C41.963 316.972 40.8546 317.136 39.7173 316.516C38.3047 315.739 37.3195 314.185 37.0008 314.185C36.682 314.185 37.1239 315.875 38.6452 317.109C39.7463 318.008 40.659 318.219 40.659 318.219C40.659 318.219 39.6304 318.424 38.4351 317.729C37.2398 317.027 36.7182 316.005 36.146 316.005C35.5737 316.005 36.7907 317.681 37.9497 318.56C39.2392 319.541 41.8688 319.405 41.8688 319.405C41.8688 319.405 40.4417 319.794 39.8477 320.236C39.2537 320.673 39.4782 321.572 39.4782 321.572C39.4782 321.572 40.6083 320.857 41.905 320.611C43.2089 320.366 44.9041 317.838 45.2735 317.552C45.6357 317.265 57.3132 312.223 57.3132 312.223C57.3132 312.223 63.4706 304.904 63.3475 303.997H63.3402Z" fill="#68004D"/>
<path d="M36.6023 271.867C36.6168 271.962 36.6313 272.051 36.6458 272.146C36.8704 273.455 37.2978 274.831 37.986 276.249C38.2178 276.726 38.4713 277.182 38.7538 277.618C39.4275 278.695 40.2099 279.649 41.014 280.487C43.8392 283.411 47.0048 284.896 47.0048 284.896C47.0048 284.896 50.4675 283.104 51.7352 279.077C52.5031 276.658 51.5541 274.613 51.4237 274.341C51.4092 274.32 51.4092 274.313 51.4092 274.313C51.2644 274.232 51.1267 274.15 50.9891 274.068C50.4458 273.748 49.9315 273.428 49.4389 273.114C48.8738 272.76 48.345 272.405 47.8379 272.065C46.2804 271.002 44.991 270.007 43.9189 269.1C43.4408 268.698 43.0134 268.31 42.6149 267.935C39.4203 264.95 38.7321 263.213 38.0874 263.669C37.4716 264.105 36.443 266.327 36.4068 269.4C36.4068 270.177 36.4575 271.002 36.5879 271.867H36.6023Z" fill="#FF7F00"/>
<path d="M38.7611 277.625C39.4348 278.702 40.2171 279.656 41.0212 280.494C41.7311 280.29 43.3683 279.663 45.7226 277.728C48.939 275.09 49.4461 273.121 49.4461 273.121C48.8811 272.767 48.3522 272.412 47.8452 272.071C47.2874 272.876 45.9255 274.654 43.9044 275.922C42.0064 277.121 39.8549 277.509 38.7538 277.632L38.7611 277.625Z" fill="#FFF594"/>
<path d="M36.6023 271.867C37.4934 271.928 38.7828 271.867 40.2968 271.363C42.1513 270.743 43.3176 269.748 43.9261 269.1C43.448 268.698 43.0206 268.31 42.6222 267.935C42.0354 268.276 41.1371 268.692 39.7897 269.053C38.3554 269.441 37.2253 269.482 36.4212 269.4C36.4212 270.177 36.4719 271.002 36.6023 271.867Z" fill="#FFF594"/>
<path opacity="0.13" d="M36.653 272.153C36.8776 273.462 37.305 274.838 37.9932 276.256C40.7822 281.98 47.0121 284.896 47.0121 284.896C47.0121 284.896 50.4748 283.104 51.7425 279.077C52.5103 276.658 51.5614 274.613 51.431 274.341L50.9963 274.061C50.9963 274.061 45.2807 275.744 40.8691 274.409C38.848 273.796 37.5006 272.916 36.653 272.14V272.153Z" fill="#590800"/>
<path opacity="0.67" d="M48.9607 274.811C49.3157 274.94 49.5765 274.477 49.2577 274.279C47.8959 273.414 46.0559 272.146 44.397 270.715C42.9047 269.427 41.6442 268.173 40.7242 267.226C40.4634 266.954 40.0143 267.267 40.2099 267.587C40.9415 268.773 42.1006 270.327 43.8754 271.881C45.5488 273.353 47.4902 274.272 48.9607 274.811Z" fill="white"/>
<path d="M86.6082 346.861L84.5581 348.305C84.5581 348.305 81.5736 342.683 79.7771 341.886C78.7991 341.45 72.2432 341.416 66.122 341.648C61.0149 341.838 56.2121 342.213 55.1979 342.69C52.9884 343.733 51.8729 347.753 51.8729 347.753H49.7359C49.7359 347.753 46.3529 337.988 45.3315 324.387C44.8461 317.913 44.6722 307.964 44.7012 299.071C44.7229 289.299 44.991 280.774 45.3315 279.506C45.911 277.353 60.0804 269.414 66.6218 267.717C67.3897 267.513 68.0561 267.397 68.5777 267.39C73.5471 267.308 83.0224 275.015 84.5509 277.346C86.0939 279.676 86.007 327.678 86.601 334.506C87.2022 341.334 86.601 346.868 86.601 346.868L86.6082 346.861Z" fill="url(#paint12_linear_199_449)"/>
<path d="M51.344 327.582C51.7207 330.049 51.1702 332.162 50.1198 332.305C49.0694 332.448 47.9176 330.56 47.5409 328.094C47.1642 325.627 47.7148 323.514 48.7652 323.371C49.8155 323.228 50.9674 325.116 51.344 327.582Z" fill="#68004D"/>
<path d="M51.7642 327.528C52.1409 329.995 51.5903 332.107 50.5399 332.25C49.4896 332.394 48.3377 330.506 47.9611 328.039C47.5844 325.572 48.1349 323.46 49.1853 323.317C50.2357 323.174 51.3875 325.061 51.7642 327.528Z" fill="#FF7F00"/>
<path d="M48.2363 318.035C48.4029 319.112 48.1422 320.039 47.664 320.1C47.1859 320.161 46.6644 319.344 46.4978 318.267C46.3311 317.19 46.5919 316.264 47.07 316.202C47.5481 316.141 48.0697 316.959 48.2363 318.035Z" fill="#68004D"/>
<path d="M48.4319 318.008C48.5985 319.085 48.3377 320.012 47.8596 320.073C47.3815 320.134 46.86 319.317 46.6933 318.24C46.5267 317.163 46.7875 316.236 47.2656 316.175C47.7437 316.114 48.2653 316.931 48.4319 318.008Z" fill="#FF7F00"/>
<path d="M51.0543 314.607C51.2209 315.684 50.9601 316.611 50.482 316.672C50.0039 316.734 49.4823 315.916 49.3157 314.839C49.1491 313.762 49.4099 312.836 49.888 312.774C50.3661 312.713 50.8877 313.531 51.0543 314.607Z" fill="#68004D"/>
<path d="M51.2499 314.58C51.4165 315.657 51.1557 316.584 50.6776 316.645C50.1995 316.707 49.6779 315.889 49.5113 314.812C49.3447 313.735 49.6055 312.809 50.0836 312.747C50.5617 312.686 51.0833 313.504 51.2499 314.58Z" fill="#FF7F00"/>
<path d="M48.0697 301.653C48.2146 302.628 47.99 303.466 47.5554 303.527C47.1207 303.589 46.6499 302.839 46.4978 301.865C46.3529 300.89 46.5774 300.052 47.0121 299.991C47.4467 299.929 47.9176 300.679 48.0697 301.653Z" fill="#68004D"/>
<path d="M48.2436 301.626C48.3885 302.6 48.1639 303.439 47.7293 303.5C47.2946 303.561 46.8237 302.812 46.6716 301.837C46.5195 300.863 46.7513 300.025 47.1859 299.963C47.6206 299.902 48.0915 300.652 48.2436 301.626Z" fill="#FF7F00"/>
<path d="M47.4612 306.307C47.5337 306.784 47.4177 307.193 47.2077 307.221C46.9976 307.248 46.7658 306.887 46.6933 306.41C46.6209 305.933 46.7368 305.524 46.9469 305.497C47.157 305.469 47.3888 305.83 47.4612 306.307Z" fill="#68004D"/>
<path d="M47.5409 306.294C47.6133 306.771 47.4974 307.18 47.2874 307.207C47.0773 307.234 46.8455 306.873 46.773 306.396C46.7006 305.919 46.8165 305.51 47.0266 305.483C47.2366 305.456 47.4685 305.817 47.5409 306.294Z" fill="#FF7F00"/>
<path d="M51.7497 321.013C51.8801 321.865 51.6773 322.594 51.3006 322.642C50.9239 322.69 50.511 322.042 50.3806 321.197C50.2502 320.346 50.453 319.616 50.8297 319.569C51.2064 319.521 51.6193 320.168 51.7497 321.013Z" fill="#68004D"/>
<path d="M51.9018 320.993C52.0322 321.845 51.8294 322.574 51.4527 322.622C51.076 322.669 50.6631 322.022 50.5327 321.177C50.4023 320.325 50.6051 319.596 50.9818 319.548C51.3585 319.501 51.7714 320.148 51.9018 320.993Z" fill="#FF7F00"/>
<path d="M69.8889 301.169C74.9899 301.169 79.1251 295.803 79.1251 289.183C79.1251 282.563 74.9899 277.196 69.8889 277.196C64.7879 277.196 60.6527 282.563 60.6527 289.183C60.6527 295.803 64.7879 301.169 69.8889 301.169Z" fill="#68004D"/>
<path d="M59.653 290.198C60.1963 296.801 57.458 302.382 53.539 302.669C49.6199 302.955 45.9979 297.837 45.4546 291.234C44.9113 284.631 47.6496 279.05 51.5686 278.763C55.4877 278.477 59.1097 283.595 59.653 290.198Z" fill="#68004D"/>
<path d="M61.8625 289.789C62.2319 295.629 65.8467 300.038 69.9324 299.643C74.018 299.248 77.0243 294.191 76.6549 288.351C76.2854 282.511 72.6706 278.102 68.585 278.498C64.4993 278.893 61.493 283.949 61.8625 289.789Z" fill="#CAE7EF"/>
<path d="M69.2079 299.201C73.1113 299.103 76.1473 294.504 75.989 288.928C75.8307 283.353 72.538 278.912 68.6346 279.01C64.7313 279.108 61.6953 283.708 61.8536 289.283C62.0119 294.859 65.3046 299.299 69.2079 299.201Z" fill="white"/>
<path d="M64.9267 289.53C65.1585 293.196 67.4259 295.97 69.9976 295.718C72.5692 295.466 74.4527 292.29 74.2209 288.624C73.989 284.958 71.7217 282.184 69.15 282.436C66.5856 282.688 64.6949 285.864 64.9267 289.53Z" fill="url(#paint13_linear_199_449)"/>
<path d="M66.2524 289.476C66.419 292.099 68.0417 294.082 69.8744 293.905C71.7072 293.728 73.0618 291.452 72.8952 288.828C72.7286 286.205 71.1059 284.222 69.2732 284.399C67.4404 284.576 66.0858 286.852 66.2524 289.476Z" fill="#590800"/>
<path d="M70.4974 287.363C70.5916 288.883 71.852 290.007 73.3008 289.864C74.7497 289.721 75.8508 288.372 75.7493 286.852C75.6479 285.333 74.3947 284.208 72.9459 284.351C71.4971 284.494 70.396 285.844 70.4974 287.363Z" fill="white"/>
<path d="M68.9327 290.464C68.9689 291.023 69.4253 291.432 69.9541 291.377C70.4829 291.322 70.8886 290.832 70.8524 290.273C70.8161 289.714 70.3598 289.305 69.8309 289.36C69.3021 289.414 68.8964 289.905 68.9327 290.464Z" fill="white"/>
<path d="M47.3236 292.447C48.2943 297.885 51.7135 301.619 54.9588 300.781C58.2042 299.943 60.0442 294.853 59.0735 289.415C58.1028 283.977 54.6836 280.242 51.4382 281.08C48.1929 281.919 46.3529 287.009 47.3236 292.447Z" fill="#CAE7EF"/>
<path d="M47.3236 292.447C48.2508 297.626 51.5034 301.183 54.5966 300.386C57.6899 299.589 59.4429 294.737 58.5157 289.558C57.5884 284.372 54.3358 280.821 51.2426 281.619C48.1494 282.416 46.3963 287.268 47.3236 292.447Z" fill="white"/>
<path d="M55.6934 297.022C57.7754 296.791 59.1124 293.807 58.6796 290.357C58.2469 286.907 56.2083 284.298 54.1263 284.529C52.0443 284.76 50.7074 287.744 51.1401 291.194C51.5729 294.644 53.6115 297.253 55.6934 297.022Z" fill="url(#paint14_linear_199_449)"/>
<path d="M52.2858 291.527C52.7204 293.973 54.2562 295.65 55.7122 295.268C57.1683 294.893 57.9941 292.604 57.5595 290.157C57.1248 287.711 55.5891 286.035 54.133 286.416C52.677 286.798 51.8511 289.081 52.2858 291.527Z" fill="#590800"/>
<path d="M54.2272 289.864C54.4807 291.282 55.618 292.188 56.7699 291.895C57.9217 291.595 58.6533 290.205 58.3998 288.788C58.1462 287.37 57.0089 286.464 55.8571 286.757C54.7053 287.057 53.9736 288.447 54.2272 289.864Z" fill="white"/>
<path d="M53.1261 292.563C53.2203 293.081 53.6332 293.415 54.0533 293.306C54.4735 293.197 54.7415 292.685 54.6473 292.168C54.5532 291.65 54.1402 291.316 53.7201 291.425C53.2999 291.534 53.0319 292.045 53.1261 292.563Z" fill="white"/>
<path d="M86.6082 346.861L84.5582 348.306C84.5582 348.306 81.5736 342.684 79.7771 341.886C77.9878 341.082 57.4218 341.648 55.1979 342.69C52.9884 343.733 51.8729 347.754 51.8729 347.754C51.8729 347.754 52.5538 342.125 54.2634 340.769C55.973 339.413 75.1771 338.683 77.9081 334.99C80.6391 331.296 83.3701 299.023 81.407 287.118C79.4438 275.213 66.6291 267.724 66.6291 267.724C67.3969 267.519 68.0634 267.404 68.585 267.397C73.5544 267.315 83.0297 275.022 84.5582 277.353C86.1011 279.683 86.0142 327.685 86.6082 334.513C87.2095 341.341 86.6082 346.874 86.6082 346.874V346.861Z" fill="#68004D"/>
<path d="M95.6562 271.281C95.6418 271.376 95.6273 271.465 95.6128 271.56C95.3882 272.862 94.9608 274.245 94.2726 275.663C94.0408 276.14 93.7873 276.596 93.5048 277.032C92.8311 278.109 92.0487 279.063 91.2446 279.901C88.4194 282.825 85.2537 284.31 85.2537 284.31C85.2537 284.31 81.7911 282.518 80.5234 278.491C79.7555 276.072 80.7045 274.027 80.8349 273.755C80.8421 273.734 80.8493 273.727 80.8493 273.727C80.9942 273.646 81.1319 273.564 81.2695 273.482C81.8128 273.162 82.3271 272.841 82.8197 272.528C83.3848 272.174 83.9136 271.819 84.4207 271.479C85.9782 270.415 87.2676 269.421 88.3397 268.514C88.8178 268.112 89.2452 267.724 89.6437 267.349C92.8383 264.364 93.5265 262.626 94.1712 263.083C94.787 263.519 95.8156 265.741 95.8518 268.814C95.8518 269.591 95.8011 270.415 95.6707 271.281H95.6562Z" fill="#FF7F00"/>
<path d="M93.4974 277.039C92.8237 278.116 92.0413 279.07 91.2372 279.908C90.5273 279.704 88.8901 279.077 86.5358 277.141C83.3194 274.504 82.8123 272.535 82.8123 272.535C83.3774 272.18 83.9062 271.826 84.4133 271.485C84.9711 272.289 86.333 274.068 88.3541 275.336C90.252 276.535 92.4035 276.923 93.5046 277.046L93.4974 277.039Z" fill="#FFF594"/>
<path d="M95.6561 271.281C94.7651 271.342 93.4756 271.281 91.9616 270.777C90.1071 270.157 88.9408 269.162 88.3323 268.514C88.8104 268.112 89.2378 267.724 89.6363 267.349C90.223 267.69 91.1213 268.105 92.4687 268.467C93.903 268.855 95.0331 268.896 95.8372 268.814C95.8372 269.591 95.7865 270.416 95.6561 271.281Z" fill="#FFF594"/>
<path opacity="0.13" d="M95.6054 271.56C95.3808 272.862 94.9534 274.245 94.2652 275.663C91.4763 281.387 85.2464 284.31 85.2464 284.31C85.2464 284.31 81.7837 282.518 80.516 278.491C79.7481 276.072 80.6971 274.027 80.8275 273.755L81.2621 273.475C81.2621 273.475 86.9777 275.158 91.3893 273.823C93.4104 273.209 94.7578 272.33 95.6054 271.553V271.56Z" fill="#590800"/>
<path opacity="0.67" d="M83.2977 274.225C82.9427 274.354 82.682 273.891 83.0007 273.693C84.3626 272.828 86.2026 271.56 87.8615 270.129C89.3538 268.841 90.6142 267.588 91.5342 266.64C91.795 266.368 92.2441 266.681 92.0486 267.002C91.3169 268.187 90.1579 269.741 88.3831 271.295C86.7097 272.767 84.7683 273.687 83.2977 274.225Z" fill="white"/>
<path d="M65.3976 268.078C65.3976 268.078 58.2476 259.894 59.1604 259.199C60.0732 258.504 66.4987 266.906 66.4987 266.906C66.4987 266.906 63.1446 254.919 64.6804 254.326C66.2161 253.74 68.9472 266.538 68.9472 266.538C68.9472 266.538 70.4249 254.326 73.6123 254.006C76.7997 253.686 70.8234 265.891 70.8234 265.891C70.8234 265.891 76.2854 262.838 77.8791 263.642C79.4728 264.446 71.7796 268.078 71.7796 268.078H65.3976Z" fill="#3F0300"/>
<path d="M77.0605 325.109C76.8215 326.683 77.1692 328.039 77.8429 328.128C78.5166 328.216 79.2555 327.01 79.4945 325.436C79.7336 323.862 79.3859 322.506 78.7122 322.417C78.0385 322.329 77.2996 323.535 77.0605 325.109Z" fill="#68004D"/>
<path d="M76.7853 325.068C76.5462 326.642 76.8939 327.998 77.5676 328.087C78.2413 328.175 78.9802 326.969 79.2193 325.395C79.4583 323.821 79.1106 322.465 78.4369 322.376C77.7632 322.288 77.0243 323.494 76.7853 325.068Z" fill="#FF7F00"/>
<path d="M74.9018 320.414C74.7786 321.211 74.9597 321.886 75.293 321.933C75.6334 321.981 76.0029 321.375 76.126 320.577C76.2492 319.78 76.0681 319.105 75.7349 319.058C75.3944 319.01 75.0249 319.616 74.9018 320.414Z" fill="#68004D"/>
<path d="M74.7642 320.393C74.641 321.191 74.8221 321.865 75.1553 321.913C75.4958 321.961 75.8653 321.354 75.9884 320.557C76.1116 319.759 75.9305 319.085 75.5972 319.037C75.2568 318.989 74.8873 319.596 74.7642 320.393Z" fill="#FF7F00"/>
<path d="M77.669 317.667C77.5748 319.214 78.0312 320.495 78.6904 320.536C79.3496 320.57 79.9581 319.344 80.0523 317.797C80.1465 316.25 79.6901 314.969 79.0309 314.928C78.3717 314.894 77.7632 316.12 77.669 317.667Z" fill="#68004D"/>
<path d="M77.401 317.654C77.3068 319.201 77.7632 320.482 78.4224 320.523C79.0816 320.557 79.6901 319.33 79.7843 317.783C79.8785 316.236 79.4221 314.955 78.7629 314.914C78.1037 314.88 77.4952 316.107 77.401 317.654Z" fill="#FF7F00"/>
<path d="M79.183 309.204C79.1396 309.967 79.3641 310.601 79.6901 310.621C80.0161 310.642 80.3131 310.035 80.3638 309.272C80.4073 308.509 80.1827 307.875 79.8567 307.854C79.5308 307.834 79.2337 308.44 79.183 309.204Z" fill="#68004D"/>
<path d="M79.0454 309.197C79.0019 309.96 79.2265 310.594 79.5525 310.614C79.8785 310.635 80.1755 310.028 80.2262 309.265C80.2697 308.502 80.0451 307.868 79.7191 307.848C79.3931 307.827 79.0961 308.434 79.0454 309.197Z" fill="#FF7F00"/>
<path d="M79.6467 300.345C79.6032 301.108 79.8278 301.742 80.1537 301.762C80.4797 301.783 80.7767 301.176 80.8274 300.413C80.8709 299.65 80.6463 299.016 80.3204 298.996C79.9944 298.975 79.6974 299.582 79.6467 300.345Z" fill="#68004D"/>
<path d="M79.5163 300.338C79.4728 301.101 79.6974 301.735 80.0234 301.755C80.3493 301.776 80.6464 301.169 80.6971 300.406C80.7405 299.643 80.516 299.009 80.19 298.989C79.864 298.968 79.567 299.575 79.5163 300.338Z" fill="#FF7F00"/>
<path d="M77.1837 300.215C77.1475 300.795 77.3213 301.279 77.5676 301.292C77.8139 301.306 78.0457 300.842 78.082 300.263C78.1182 299.684 77.9443 299.2 77.698 299.186C77.4517 299.173 77.2199 299.636 77.1837 300.215Z" fill="#68004D"/>
<path d="M77.0823 300.209C77.046 300.788 77.2199 301.272 77.4662 301.285C77.7125 301.299 77.9443 300.836 77.9805 300.256C78.0168 299.677 77.8429 299.193 77.5966 299.18C77.3503 299.166 77.1185 299.629 77.0823 300.209Z" fill="#FF7F00"/>
<path d="M79.27 278.947C79.27 278.947 76.5607 277.264 73.7355 276.801C70.9176 276.337 66.6725 276.078 66.6725 276.078L68.1938 275.424C68.1938 275.424 67.6215 275.254 66.8971 274.484C66.3321 273.884 65.4483 271.901 65.4483 271.901C65.4483 271.901 68.4835 272.29 71.91 272.794C76.6766 273.496 79.0019 276.153 79.0019 276.153L78.0312 276.106C78.0312 276.106 79.1396 277.864 79.27 278.947Z" fill="#3F0300"/>
<path opacity="0.61" d="M77.6546 275.424C77.6546 275.424 76.2782 274.123 73.5037 273.387C70.7292 272.658 67.8606 272.617 67.8606 272.617L69.6861 273.325L66.8898 272.855C66.8898 272.855 67.8895 274.055 71.1494 274.279C75.5031 274.579 77.459 276.371 77.459 276.371L76.778 275.186L77.6618 275.417L77.6546 275.424Z" fill="#8C130D"/>
<path d="M48.1639 278.947C48.1639 278.947 50.0546 277.598 51.967 277.107C54.5821 276.433 56.8278 276.487 56.8278 276.487L55.7847 275.922C55.7847 275.922 56.1831 275.772 56.6757 275.118C57.0596 274.607 57.6681 272.903 57.6681 272.903C57.6681 272.903 56.8278 272.903 53.2203 273.666C49.3157 274.498 48.3377 276.549 48.3377 276.549L49.0042 276.508C49.0042 276.508 48.2436 278.021 48.1494 278.947H48.1639Z" fill="#3F0300"/>
<path opacity="0.61" d="M49.2795 276.051C49.2795 276.051 50.2285 274.934 52.1336 274.307C54.0388 273.68 56.3425 273.489 56.3425 273.489L54.7632 274.252L56.6902 273.85C56.6902 273.85 55.6977 274.586 53.7563 275.07C51.8222 275.554 49.4171 276.869 49.4171 276.869L49.888 275.854L49.2795 276.058V276.051Z" fill="#8C130D"/>
<path opacity="0.24" d="M52.9232 304.29C52.9232 304.29 55.2051 310.294 60.0514 311.541C64.8977 312.788 68.7009 309.592 68.7009 309.592C68.7009 309.592 63.6952 312.257 59.4936 310.471C55.35 308.713 52.9305 304.284 52.9305 304.284L52.9232 304.29Z" fill="white"/>
<path d="M76.8867 302.948L75.4379 307.064L76.3868 310.335L71.9969 310.062L72.3591 311.098C72.3591 311.098 69.7802 313.184 66.093 314.09C62.4347 314.983 58.3708 314.349 58.3708 314.349L54.4807 310.485L50.5255 308.516L51.2499 303.105C51.2499 303.105 54.9661 313.463 62.2174 313.006C70.8161 312.468 76.8867 302.955 76.8867 302.955V302.948Z" fill="#68004D"/>
<path d="M51.9598 305.422L50.2864 309.027L53.5535 308.168L51.9598 305.422Z" fill="white"/>
<path d="M54.6474 309.415L53.5535 311.541L55.9296 311.016L54.6474 309.415Z" fill="white"/>
<path d="M58.3201 312.461V314.914L60.6527 313.306L58.3201 312.461Z" fill="white"/>
<path d="M63.9487 313.143L66.6798 314.71L67.0275 312.461L63.9487 313.143Z" fill="white"/>
<path d="M72.3591 308.291L76.3796 310.335L74.9597 305.422L72.3591 308.291Z" fill="white"/>
<path d="M69.2876 310.819L72.3591 311.098L71.6347 309.027L69.2876 310.819Z" fill="white"/>
<path d="M51.5034 302.975C51.5034 302.975 54.8357 312.822 62.3478 312.666C69.8599 312.502 76.7997 302.71 76.7997 302.71L77.0823 302.778C77.0823 302.778 70.7075 313.872 62.3768 313.872C54.0461 313.872 51.2499 303.35 51.2499 303.35L51.5034 302.982V302.975Z" fill="#590800"/>
<path d="M73.721 301.394C73.721 301.394 75.2568 301.905 76.8794 303.241C78.5021 304.577 79.0382 305.837 79.0382 305.837C79.0382 305.837 78.647 303.48 77.2779 302.171C75.9087 300.863 73.7138 301.394 73.7138 301.394H73.721Z" fill="#68004D"/>
<path d="M53.3579 301.749C53.3579 301.749 52.0974 302.744 51.2499 303.65C50.4023 304.556 49.6924 306.832 49.6924 306.832C49.6924 306.832 49.4389 304.747 50.3299 303.357C51.344 301.783 53.3651 301.749 53.3651 301.749H53.3579Z" fill="#68004D"/>
<path d="M1.67494 332.291L-6.50337 333.7C-6.50337 333.7 -15.8082 304.093 -16.6547 290.842C-16.6578 290.795 -16.661 290.748 -16.6641 290.704V290.7C-17.1298 282.173 -8.7218 303.791 -3.13324 318.955C-0.389307 326.4 1.67494 332.291 1.67494 332.291Z" fill="url(#paint15_linear_199_449)"/>
<g style="mix-blend-mode:multiply" opacity="0.46">
<path d="M1.67494 332.291L-6.50336 333.7C-6.50336 333.7 -15.8082 304.093 -16.6547 290.842C-16.6578 290.795 -16.6609 290.748 -16.6641 290.704C-14.839 298.199 -11.1007 312.907 -8.17112 320.276C-6.0408 325.638 -4.30066 322.813 -3.13323 318.955C-0.389297 326.4 1.67494 332.291 1.67494 332.291Z" fill="#4194F2"/>
</g>
<path d="M26.27 250.888C26.27 250.888 25.2536 260.055 24.2341 260.87C23.2146 261.685 20.1623 270.442 20.1623 270.442C20.1623 270.442 18.9382 279.199 18.1232 281.641C17.6008 283.211 15.1464 288.636 13.4598 292.324C13.4598 292.356 13.4598 292.384 13.4629 292.415C13.4661 292.51 13.4661 292.604 13.4692 292.702C13.7681 306.689 14.6901 344.481 14.6901 344.481L4.13291 344.616L0.476429 344.663L-6.35508 344.748L-2.48463 280.537C-2.48463 280.537 -5.92083 273.925 -6.44948 272.607C-6.97813 271.285 -8.56093 260.977 -8.56093 259.394C-8.56093 258.585 -10.622 255.099 -12.6422 251.873C-14.5806 248.774 -16.4875 245.916 -16.4875 245.916L-21.7771 239.84L-26 230.063L-25.6224 229.607L-24.6847 228.477L-19.9237 236.665C-19.9237 236.665 -8.8284 248.824 -7.50363 249.881C-6.18831 250.939 -3.28074 260.715 -3.01327 261.773C-2.78986 262.682 0.769075 270.247 1.75714 272.336C1.91763 272.673 2.00887 272.868 2.00887 272.868L2.02776 272.437L3.3242 241.955V215.79L4.60177 215.551L6.41427 215.214L7.55653 215L10.055 236.221C10.055 236.221 10.0708 236.203 10.0959 236.171H10.0991C10.6214 235.539 15.6971 229.409 15.9488 228.654C16.2131 227.864 16.5404 220.022 16.5404 220.022L18.3057 218.474L18.6518 218.169C18.6518 218.169 19.7091 224.248 19.9766 225.57C20.2378 226.891 18.1232 233.764 17.3334 234.821C16.6159 235.775 11.3452 242.581 10.3571 243.858C10.2533 243.994 10.1966 244.066 10.1966 244.066C10.1966 244.066 10.4641 247.575 10.8134 251.861C11.32 258.028 11.9997 265.81 12.3144 267.059C12.5252 267.912 12.7392 271.024 12.9217 274.592L14.3157 273.617L17.1068 271.66L19.3473 260.662C19.3473 260.662 21.5846 259.444 22.3996 259.032C23.2146 258.629 23.825 250.275 23.825 250.275L25.5054 250.696L26.27 250.888Z" fill="url(#paint16_linear_199_449)"/>
<g style="mix-blend-mode:overlay" opacity="0.45">
<path d="M26.27 250.888C26.27 250.888 25.2536 260.055 24.2341 260.87C23.2146 261.685 20.1622 270.442 20.1622 270.442C20.1622 270.442 19.3598 278.752 18.5448 281.194C18.0225 282.764 15.1464 288.636 13.4598 292.324C13.4598 292.356 13.4598 292.384 13.4629 292.415C12.4465 289.413 13.7807 284.133 14.5957 283.271C15.631 282.176 18.9822 274.133 19.2875 273.4C19.5927 272.67 19.2875 272.242 19.1647 271.207C19.042 270.171 21.1755 266.757 21.2982 266.21C21.4209 265.662 20.8105 264.016 20.7507 263.101C20.6878 262.188 23.2492 260.848 23.7967 260.055C24.3442 259.262 24.4072 258.167 24.6495 256.949C24.8509 255.942 25.3417 252.034 25.5054 250.696L26.27 250.888Z" fill="white"/>
</g>
<g style="mix-blend-mode:overlay" opacity="0.45">
<path d="M17.3334 234.821C16.6159 235.775 11.3452 242.581 10.3571 243.859C9.97634 243.305 9.76551 242.622 9.7718 241.952C9.78754 240.592 10.549 239.334 11.5371 238.402C12.1539 237.817 12.8619 237.335 13.4535 236.725C14.1741 235.982 14.6996 235.076 15.2156 234.179C16.0715 232.694 16.9274 231.212 17.7802 229.727C18.0539 229.252 18.334 228.761 18.3969 228.216C18.4504 227.738 18.3277 227.25 18.3875 226.772C18.463 226.152 18.828 225.608 19.0074 225.01C19.6367 222.889 17.8526 220.513 18.3057 218.474L18.6518 218.169C18.6518 218.169 19.7091 224.248 19.9766 225.57C20.2378 226.891 18.1232 233.764 17.3334 234.821Z" fill="white"/>
</g>
<g style="mix-blend-mode:overlay" opacity="0.45">
<path d="M1.75713 272.336C1.06486 272.547 0.359991 271.748 0.00126648 271.049C-2.37765 266.417 -3.93212 261.42 -5.83903 256.578C-6.55648 254.756 -7.32743 252.953 -8.17704 251.187C-8.5515 250.407 -8.94798 249.63 -9.50495 248.966C-10.3262 247.987 -11.4465 247.314 -12.4723 246.552C-14.0645 245.366 -15.4617 243.918 -16.5945 242.288C-17.4095 241.111 -18.1081 239.818 -19.2157 238.912C-19.7349 238.487 -20.3328 238.154 -20.7859 237.663C-22.0037 236.341 -21.8936 234.214 -22.998 232.795C-23.404 232.272 -23.9546 231.879 -24.4204 231.407C-24.9333 230.891 -25.3392 230.274 -25.6224 229.607L-24.6847 228.477L-19.9237 236.665C-19.9237 236.665 -8.82841 248.824 -7.50364 249.881C-6.18832 250.939 -3.28075 260.715 -3.01328 261.773C-2.78987 262.682 0.769064 270.247 1.75713 272.336Z" fill="white"/>
</g>
<g style="mix-blend-mode:overlay" opacity="0.45">
<path d="M10.0959 236.171C10.0865 236.228 10.077 236.281 10.0644 236.338C9.99208 236.681 9.74663 237.125 9.41623 236.999C9.22743 236.926 9.15505 236.7 9.10785 236.505C8.79318 235.167 8.47851 233.833 8.16384 232.496C7.90266 231.388 7.63834 230.265 7.63204 229.126C7.62575 227.832 7.94986 226.558 7.97189 225.268C8.03168 221.869 6.03036 218.461 6.41426 215.214L7.55652 215L10.055 236.221C10.055 236.221 10.0707 236.203 10.0959 236.171Z" fill="white"/>
</g>
<g style="mix-blend-mode:overlay" opacity="0.45">
<path d="M14.3156 273.617C14.3031 273.777 14.2873 273.935 14.2653 274.095C14.1772 274.731 13.9569 275.436 13.3779 275.713C12.6982 276.04 11.8518 275.565 11.4993 274.895C11.1501 274.224 11.1595 273.431 11.1721 272.676C11.2161 269.378 11.0934 266.077 10.9738 262.783C10.9141 261.156 10.8574 259.526 10.6906 257.909C10.5553 256.593 9.64593 254.218 9.98892 252.965C10.162 252.333 10.4452 251.99 10.8134 251.861C11.32 258.028 11.9997 265.81 12.3143 267.059C12.5252 267.912 12.7391 271.024 12.9217 274.592L14.3156 273.617Z" fill="white"/>
</g>
<g style="mix-blend-mode:overlay" opacity="0.45">
<path d="M14.6901 344.481L4.13288 344.616C3.95352 342.719 4.43812 340.727 5.80379 339.424C6.73522 338.534 7.99705 338.03 8.89386 337.105C10.2312 335.72 10.5333 333.669 10.7693 331.759C11.2476 327.851 11.7259 323.857 10.914 320.003C10.2281 316.746 8.64527 313.332 9.9071 310.251C10.7252 308.256 12.6416 306.796 13.1702 304.703C13.7335 302.472 12.5692 300.197 12.3301 297.906C12.1413 296.11 12.5566 294.263 13.4692 292.702C13.7681 306.689 14.6901 344.481 14.6901 344.481Z" fill="white"/>
</g>
<path style="mix-blend-mode:multiply" opacity="0.3" d="M4.41609 264.718C4.34057 266.442 4.26505 268.176 4.49476 269.888C4.70874 271.487 5.11466 273.356 3.99758 274.52C3.86856 274.655 3.70808 274.781 3.52243 274.784C3.20146 274.791 2.99378 274.457 2.85532 274.168C2.57841 273.592 2.3015 273.016 2.02774 272.437L3.32418 241.955V215.79L4.60175 215.551C3.87171 219.975 3.91891 224.525 4.73076 228.937C4.9825 230.296 5.30661 231.646 5.47653 233.018C5.72512 235.045 5.63702 237.093 5.54576 239.129C5.1713 247.66 4.7937 256.187 4.41609 264.718Z" fill="url(#paint17_linear_199_449)"/>
<path style="mix-blend-mode:multiply" opacity="0.3" d="M0.4292 305.902C1.12462 310.795 1.63124 315.311 0.592826 320.141C-0.215879 323.892 -2.05985 327.589 -1.42421 331.372C-1.21968 332.596 -0.760257 333.76 -0.436146 334.956C0.0767689 336.844 0.256127 338.804 0.391437 340.755C0.482691 342.048 0.55192 343.367 0.476399 344.663L-6.35511 344.748L-2.48466 280.537C-2.48466 280.537 -5.92086 273.925 -6.44951 272.607C-6.97816 271.285 -8.56096 260.977 -8.56096 259.394C-8.56096 258.585 -10.6221 255.099 -12.6422 251.873C-11.5818 252.512 -10.6724 253.365 -10.3326 254.529C-10.1784 255.064 -10.15 255.637 -9.91719 256.143C-9.25638 257.572 -7.24563 257.909 -6.46839 259.277C-5.9775 260.146 -6.10337 261.216 -6.01841 262.21C-5.77297 265.124 -3.65523 267.591 -3.22728 270.483C-2.9661 272.258 -3.35315 274.133 -2.73954 275.816C-2.21719 277.242 -1.0529 278.328 -0.348038 279.668C0.495281 281.267 0.636879 283.129 0.759601 284.932C0.94211 287.569 1.12777 290.206 1.31028 292.843C1.40153 294.156 1.48964 295.493 1.16238 296.767C0.803659 298.174 -0.0365143 299.411 -0.495934 300.789C-0.955354 302.167 -0.927033 303.895 0.186902 304.829C0.372558 304.983 0.59283 305.122 0.690378 305.345C0.787926 305.569 0.671497 305.902 0.4292 305.902Z" fill="url(#paint18_linear_199_449)"/>
<path d="M49.9109 244.878C48.3942 246.137 46.4998 247.09 44.4136 247.804C35.1087 250.998 22.0404 249.466 22.0404 249.466C8.98789 249.466 16.927 239.412 16.927 239.412C16.927 239.412 16.0176 238.789 15.1806 237.811C13.9408 236.366 12.8489 234.141 15.0453 231.989H15.0485C15.404 231.637 15.8509 231.287 16.3952 230.944C22.5691 227.064 42.6797 225.299 49.206 226.536C55.7323 227.769 48.3218 235.885 48.3218 235.885C48.3218 235.885 51.0972 236.479 52.4723 238.062C53.6901 239.466 53.8065 241.646 49.9109 244.878Z" fill="url(#paint19_linear_199_449)"/>
<path style="mix-blend-mode:multiply" d="M49.9109 244.878C48.3941 246.137 46.4998 247.09 44.4136 247.805C35.1087 250.998 22.0404 249.466 22.0404 249.466C8.98788 249.466 16.927 239.412 16.927 239.412C16.927 239.412 16.0176 238.789 15.1806 237.811C13.9408 236.366 12.8489 234.141 15.0453 231.989C15.0421 232.008 15.0359 232.03 15.0327 232.049C14.7526 233.487 15.3411 235.057 16.4959 235.957C18.4437 237.483 21.2191 236.911 23.6956 236.983C22.2261 238.012 20.7534 239.044 19.2839 240.073C19.0762 240.221 18.8528 240.385 18.7773 240.63C18.7175 240.822 18.7616 241.033 18.8371 241.222C19.2745 242.291 20.5709 242.682 21.7132 242.867C27.5063 243.808 33.4473 242.927 39.1554 241.555C43.6143 240.485 48.0071 239.113 52.4723 238.062C53.6901 239.466 53.8065 241.646 49.9109 244.878Z" fill="url(#paint20_linear_199_449)"/>
<path style="mix-blend-mode:multiply" d="M44.4136 247.805C35.1087 250.998 22.0404 249.466 22.0404 249.466C8.98789 249.466 16.927 239.412 16.927 239.412C16.927 239.412 16.0176 238.789 15.1806 237.811C16.0428 238.172 16.9648 238.412 17.7767 238.871C18.0347 239.016 18.3053 239.223 18.3305 239.519C18.3651 239.925 17.934 240.193 17.5941 240.416C16.5211 241.13 15.854 242.421 15.8981 243.708C15.939 244.995 16.6879 246.241 17.805 246.883C18.3556 247.197 18.9755 247.37 19.5986 247.502C26.7857 249.013 34.2088 245.202 41.4745 246.259C42.6105 246.423 43.8723 246.826 44.4136 247.805Z" fill="url(#paint21_linear_199_449)"/>
<path d="M34.2812 207.564C34.2812 207.564 34.8979 207.844 35.4171 208.361C36.273 209.213 36.8552 210.708 33.913 212.634C33.6266 212.823 33.3025 213.014 32.9438 213.213C26.7007 216.633 15.1271 215.019 15.1271 215.019C6.65617 216.356 1.73157 214.997 2.76998 211.727C3.81155 208.458 7.37991 206.227 7.37991 206.227C7.37991 206.227 6.24081 204.912 7.9715 202.662C10.6525 199.175 14.0384 195.94 21.1751 195.789C21.644 195.78 22.0688 195.786 22.4621 195.808C23.1575 195.84 23.7365 195.915 24.2211 196.025C27.629 196.784 26.2539 199.093 26.2539 199.093C26.2539 199.093 38.74 195.676 41.2669 200.283C43.7937 204.89 34.2812 207.564 34.2812 207.564Z" fill="url(#paint22_linear_199_449)"/>
<path style="mix-blend-mode:multiply" d="M33.913 212.634C33.6266 212.823 33.3025 213.014 32.9438 213.213C26.7007 216.633 15.1271 215.019 15.1271 215.019C6.65617 216.356 1.73157 214.997 2.76998 211.727C3.81155 208.458 7.37991 206.227 7.37991 206.227C7.37991 206.227 6.24081 204.912 7.9715 202.662C10.6525 199.175 14.0384 195.94 21.1751 195.789C21.644 195.78 22.0688 195.786 22.4621 195.808C23.1575 195.84 23.7365 195.915 24.2211 196.025C23.3621 196.916 22.5628 197.879 22.1852 199.043C21.7132 200.491 22.1128 202.341 23.4659 203.033C21.4111 204.235 19.4444 205.588 17.591 207.083C16.9365 207.608 16.2505 208.241 16.1781 209.075C16.1026 209.943 16.7571 210.739 17.5501 211.101C18.3431 211.46 19.243 211.473 20.1115 211.451C24.5263 211.34 28.9255 210.532 33.0917 209.065C33.8532 208.795 34.6241 208.502 35.4171 208.361C36.273 209.213 36.8552 210.708 33.913 212.634Z" fill="url(#paint23_linear_199_449)"/>
<path style="mix-blend-mode:multiply" d="M33.913 212.634C33.6266 212.823 33.3025 213.014 32.9438 213.213C26.7007 216.633 15.1271 215.019 15.1271 215.019C6.65617 216.356 1.73157 214.997 2.76998 211.727C3.81155 208.458 7.37991 206.227 7.37991 206.227C7.37991 206.227 6.24081 204.912 7.9715 202.662C10.6525 199.175 14.0384 195.94 21.1751 195.789C21.644 195.78 22.0688 195.786 22.4621 195.808L22.0467 195.837C19.8535 196.746 18.1857 198.817 17.7672 201.151C17.6036 202.064 17.6067 203.033 17.1693 203.848C16.5903 204.934 15.382 205.488 14.3467 206.152C12.8992 207.08 11.6752 208.351 10.8004 209.83C10.3819 210.544 10.0357 211.425 10.3756 212.181C10.7784 213.081 11.9458 213.345 12.9244 213.232C13.8999 213.115 14.8565 212.741 15.8351 212.823C16.9459 212.914 17.9277 213.578 19.0102 213.839C21.1688 214.361 23.3778 213.235 25.5994 213.216C27.05 213.203 28.4818 213.663 29.9293 213.559C31.2855 213.461 32.5819 212.876 33.913 212.634Z" fill="url(#paint24_linear_199_449)"/>
<path d="M22.9247 203.439C19.8881 207.004 11.1528 207.067 11.1528 207.067C11.1528 207.067 10.514 209.248 7.21314 211.227C3.91224 213.21 -2.81857 211.756 -2.81857 211.756C-15.89 210.437 -7.17677 202.121 -7.17677 202.121C-7.17677 202.121 -12.5891 200.535 -11.2706 198.291C-11.1574 198.096 -11.0346 197.91 -10.9056 197.734C-9.55568 195.849 -7.57325 194.858 -7.57325 194.858C-7.57325 194.858 -8.11449 194.556 -8.47636 193.964C-8.83194 193.388 -9.01759 192.536 -8.36622 191.425C-7.04461 189.181 -0.04632 184.562 5.36602 184.033C10.7784 183.505 10.9105 189.446 10.9105 189.446C10.9105 189.446 19.8503 187.957 23.4911 190.135C23.9064 190.383 24.2526 190.679 24.5075 191.028C27.0154 194.461 20.4136 198.159 20.4136 198.159C20.4136 198.159 21.8926 198.615 22.9058 199.55C23.853 200.425 24.3942 201.715 22.9247 203.439Z" fill="url(#paint25_linear_199_449)"/>
<path style="mix-blend-mode:multiply" d="M22.9247 203.439C19.8881 207.004 11.1528 207.067 11.1528 207.067C11.1528 207.067 10.514 209.248 7.21314 211.227C3.91224 213.21 -2.81857 211.756 -2.81857 211.756C-15.89 210.437 -7.17677 202.121 -7.17677 202.121C-7.17677 202.121 -12.5891 200.535 -11.2706 198.291C-11.1574 198.096 -11.0346 197.91 -10.9056 197.734C-9.55568 195.849 -7.57325 194.858 -7.57325 194.858C-7.57325 194.858 -8.11449 194.556 -8.47636 193.964C-7.13272 194.861 -5.40517 195.091 -3.76888 195.226C-4.69716 195.544 -5.64117 195.871 -6.41526 196.469C-7.1925 197.067 -7.78094 197.992 -7.718 198.971C-7.65192 199.981 -6.88727 200.849 -5.96528 201.268C-5.04015 201.686 -3.98915 201.711 -2.9822 201.595C-3.14268 203.26 -2.0728 204.899 -0.584409 205.657C0.903986 206.416 2.71649 206.369 4.28041 205.786C5.88209 205.192 7.27923 204.056 8.18548 202.608C10.9577 203.332 13.8936 203.414 16.7036 202.844C17.5847 202.668 18.4847 202.41 19.1581 201.818C19.8346 201.227 20.2216 200.223 19.8566 199.402C19.4633 198.524 18.4217 198.178 17.4934 197.923C19.6049 197.378 21.5212 196.11 22.846 194.377C23.7711 193.162 24.3061 191.286 23.4911 190.135C23.9064 190.383 24.2526 190.679 24.5075 191.028C27.0154 194.461 20.4136 198.159 20.4136 198.159C20.4136 198.159 21.8926 198.615 22.9058 199.55C23.853 200.424 24.3942 201.715 22.9247 203.439Z" fill="url(#paint26_linear_199_449)"/>
<path style="mix-blend-mode:multiply" d="M22.9247 203.439C19.8881 207.004 11.1528 207.067 11.1528 207.067C11.1528 207.067 10.514 209.248 7.21314 211.227C3.91224 213.21 -2.81857 211.756 -2.81857 211.756C-15.89 210.437 -7.17677 202.121 -7.17677 202.121C-7.17677 202.121 -12.5891 200.535 -11.2706 198.291C-11.1574 198.096 -11.0346 197.91 -10.9056 197.734C-10.6476 197.954 -10.4147 198.209 -10.2133 198.47C-9.62491 199.222 -9.12773 200.094 -8.30959 200.585C-7.82814 200.874 -7.26802 201.01 -6.76769 201.268C-6.26422 201.526 -5.79536 201.966 -5.7576 202.526C-5.73558 202.825 -5.83942 203.115 -5.93382 203.398C-6.16353 204.097 -6.3303 204.887 -5.9999 205.541C-5.66634 206.199 -4.62478 206.485 -4.19683 205.887C-2.25846 207.914 0.589316 209.034 3.38989 208.873C6.19046 208.71 8.89348 207.272 10.5864 205.038C12.5374 205.072 14.5009 205.107 16.4173 204.748C18.3368 204.389 20.2248 203.603 21.5905 202.212C22.2953 201.498 22.8492 200.519 22.9058 199.55C23.853 200.424 24.3942 201.715 22.9247 203.439Z" fill="url(#paint27_linear_199_449)"/>
<path d="M10.4763 210.988C10.4039 211.274 10.2938 211.545 10.149 211.797C8.54107 214.585 2.69134 215.261 -1.69518 216.061C-6.47818 216.929 -10.1 218.232 -13.2877 215.044C-16.4753 211.857 -13.8667 210.409 -13.8667 210.409C-13.8667 210.409 -18.9392 210.554 -18.2154 207.8C-18.099 207.35 -17.7371 206.954 -17.2179 206.602C-16.5319 206.133 -15.5659 205.746 -14.5054 205.431C-11.45 204.512 -7.63617 204.175 -7.63617 204.175C-7.63617 204.175 4.24581 200.554 7.43343 202.583C10.6211 204.613 5.84119 207.074 5.84119 207.074C5.84119 207.074 8.22011 207.262 9.60152 208.379C10.3253 208.962 10.7752 209.795 10.4763 210.988Z" fill="url(#paint28_linear_199_449)"/>
<path style="mix-blend-mode:multiply" d="M9.04138 206.938L8.49385 206.617C8.70468 206.683 8.89034 206.793 9.04138 206.938Z" fill="url(#paint29_linear_199_449)"/>
<path style="mix-blend-mode:multiply" d="M10.4763 210.988C10.4039 211.274 10.2938 211.545 10.149 211.797C8.54104 214.585 2.69131 215.261 -1.69521 216.06C-6.47821 216.929 -10.1001 218.232 -13.2877 215.044C-16.4753 211.856 -13.8667 210.409 -13.8667 210.409C-13.8667 210.409 -18.9392 210.554 -18.2154 207.8C-18.099 207.35 -17.7371 206.954 -17.2179 206.601C-16.532 206.133 -15.5659 205.746 -14.5055 205.431C-14.4551 205.831 -14.4079 206.233 -14.2537 206.595C-13.6999 207.882 -12.0322 208.162 -10.635 208.257C-11.4658 209.053 -11.557 210.44 -10.978 211.432C-10.399 212.423 -9.26305 213.011 -8.11765 213.093C-6.97225 213.178 -5.82999 212.804 -4.83877 212.225C-4.67829 212.133 -4.51466 212.03 -4.33215 212.001C-4.11188 211.967 -3.89162 212.036 -3.67764 212.102C-0.134443 213.2 3.82727 212.885 7.15335 211.243C8.08477 210.783 9.01934 210.167 9.43156 209.213C9.54484 208.955 9.60149 208.666 9.60149 208.379C10.3252 208.961 10.7752 209.795 10.4763 210.988Z" fill="url(#paint30_linear_199_449)"/>
<path style="mix-blend-mode:multiply" d="M10.149 211.797C8.54104 214.585 2.69131 215.261 -1.69521 216.06C-6.47821 216.929 -10.1001 218.232 -13.2877 215.044C-16.4753 211.856 -13.8667 210.409 -13.8667 210.409C-13.8667 210.409 -18.9392 210.554 -18.2154 207.8C-18.099 207.35 -17.7371 206.954 -17.2179 206.601C-17.1613 207.555 -16.6138 208.518 -15.8208 209.091C-14.625 209.953 -13.0485 210.097 -11.5759 209.981C-12.5105 210.494 -13.3727 211.303 -13.5615 212.351C-13.8132 213.76 -12.7213 215.142 -11.3934 215.68C-10.0655 216.218 -8.57392 216.111 -7.15161 215.935C-3.38499 215.466 0.318684 214.588 4.01292 213.713C6.10234 213.216 8.21378 212.712 10.149 211.797Z" fill="url(#paint31_linear_199_449)"/>
<path d="M21.2667 342.335C21.2667 342.335 19.6111 324.249 24.5495 315.444C27.5477 310.098 33.1005 308.219 37 307.569" stroke="url(#paint32_linear_199_449)" stroke-width="0.74" stroke-miterlimit="10"/>
<path d="M34.8439 310.409C32.823 311.346 28.1146 314.099 25.8399 317.026C23.6838 319.802 21.613 317.259 22.6093 314.915C22.6638 314.787 22.7279 314.659 22.8014 314.531C23.9613 312.541 29.8817 307.031 33.5535 307C34.3719 306.993 35.0787 307.259 35.5958 307.894C35.5958 307.894 36.8648 309.474 34.8439 310.409Z" fill="url(#paint33_linear_199_449)"/>
<g style="mix-blend-mode:multiply" opacity="0.28">
<path d="M34.8439 310.409C32.823 311.346 28.1146 314.099 25.8399 317.026C23.6838 319.802 21.613 317.259 22.6093 314.915C23.615 315.198 24.9623 315.174 26.7555 314.538C30.8874 313.077 32.7732 309.282 33.5535 307C34.3719 306.993 35.0787 307.259 35.5958 307.894C35.5958 307.894 36.8648 309.474 34.8439 310.409Z" fill="#82007E"/>
</g>
<path d="M46.3248 317.681C46.3248 317.681 46.3248 317.681 46.323 317.685C46.2623 317.94 42.4111 334.364 44.2991 340.07C44.2991 340.07 50.9334 329.707 46.3239 317.683L46.3248 317.681Z" fill="url(#paint34_linear_199_449)"/>
<g style="mix-blend-mode:multiply" opacity="0.28">
<path d="M46.3157 317.685C46.2551 317.94 42.4071 334.358 44.2935 340.061C44.2935 340.061 47.1922 329.609 46.3157 317.685Z" fill="#82007E"/>
</g>
<path d="M60.2269 324.906C60.2269 324.906 60.2259 324.908 60.225 324.911C60.0092 325.067 46.2142 335.174 43.5229 341.135C43.5229 341.135 54.9672 337.95 60.2288 324.907L60.2269 324.906Z" fill="url(#paint35_linear_199_449)"/>
<g style="mix-blend-mode:multiply" opacity="0.28">
<path d="M60.2249 324.908C60.0091 325.065 46.2148 335.172 43.5237 341.132C43.5237 341.132 52.601 335.037 60.2249 324.908Z" fill="#82007E"/>
</g>
<path d="M55.9875 313.901C55.9875 313.901 55.9866 313.904 55.9857 313.906C55.8113 314.208 44.6005 333.685 44.5731 341.937C44.5731 341.937 56.687 331.585 55.9875 313.901Z" fill="url(#paint36_linear_199_449)"/>
<g style="mix-blend-mode:multiply" opacity="0.28">
<path d="M55.8113 313.904C55.6393 314.206 44.5801 333.614 44.5531 341.836C44.5531 341.836 52.1257 329.685 55.8113 313.904Z" fill="#82007E"/>
</g>
<path d="M57.969 328.101C57.969 328.101 57.969 328.101 57.9681 328.103C57.8345 328.249 49.2851 337.649 48.219 342.294C48.219 342.294 56.0993 338.164 57.969 328.101Z" fill="url(#paint37_linear_199_449)"/>
<g style="mix-blend-mode:multiply" opacity="0.28">
<path d="M57.9234 328.101C57.7905 328.247 49.2797 337.632 48.2184 342.27C48.2184 342.27 53.9025 336.487 57.9234 328.101Z" fill="#82007E"/>
</g>
<path d="M64.0088 338.496C64.0088 338.496 64.0088 338.496 64.0068 338.495C63.8116 338.51 51.209 339.499 47.1386 342.484C47.1386 342.484 55.4902 345.306 64.0098 338.494L64.0088 338.496Z" fill="url(#paint38_linear_199_449)"/>
<g style="mix-blend-mode:multiply" opacity="0.28">
<path d="M64.0037 338.497C63.8085 338.511 51.2058 339.501 47.1354 342.486C47.1354 342.486 55.2018 342.226 64.0037 338.497Z" fill="#82007E"/>
</g>
<path d="M65.7185 329.399L65.7175 329.401C65.4883 329.532 50.7817 338.012 47.461 343.671C47.461 343.671 59.0751 341.86 65.7185 329.399Z" fill="url(#paint39_linear_199_449)"/>
<g style="mix-blend-mode:multiply" opacity="0.28">
<path d="M65.7175 329.402C65.4883 329.532 50.7816 338.013 47.4609 343.671C47.4609 343.671 57.0763 338.651 65.7175 329.402Z" fill="#82007E"/>
</g>
<path d="M43.5162 343.122H14C14 343.122 14.3052 333.804 15.9289 326.513C16.4481 324.194 17.0964 322.083 17.9114 320.538C21.2909 314.137 23.0688 329.786 23.0688 329.786C23.0688 329.786 26.0928 321.252 29.4692 319.827C32.8488 318.404 33.7362 329.962 33.7362 329.962C33.7362 329.962 37.2951 322.139 41.562 322.319C45.829 322.495 43.5162 343.122 43.5162 343.122Z" fill="url(#paint40_linear_199_449)"/>
<g style="mix-blend-mode:multiply" opacity="0.46">
<path d="M43.1008 343.122H14C14 343.122 14.3052 333.804 15.9289 326.513C16.3128 325.214 16.7534 324.043 17.2568 323.09C20.6333 316.689 22.4111 332.338 22.4111 332.338C22.4111 332.338 25.4351 323.801 28.8147 322.379C32.1911 320.956 33.0816 332.514 33.0816 332.514C33.0816 332.514 36.6374 324.691 40.9044 324.868C44.2367 325.006 43.5602 337.593 43.1008 343.122Z" fill="#4194F2"/>
</g>
</g>
<defs>
<linearGradient id="paint0_linear_199_449" x1="145.5" y1="0" x2="145.5" y2="342" gradientUnits="userSpaceOnUse">
<stop stop-color="#42ADFF"/>
<stop offset="0.328125" stop-color="#A6A9ED"/>
<stop offset="0.682292" stop-color="#FFA6DD"/>
</linearGradient>
<linearGradient id="paint1_linear_199_449" x1="-21.0039" y1="307.096" x2="84.954" y2="307.096" gradientUnits="userSpaceOnUse">
<stop stop-color="#90C9FD"/>
<stop offset="0.27" stop-color="#8AC3FD"/>
<stop offset="0.62" stop-color="#79B5FD"/>
<stop offset="1" stop-color="#5F9EFD"/>
</linearGradient>
<linearGradient id="paint2_linear_199_449" x1="192.981" y1="293.138" x2="421.857" y2="293.138" gradientUnits="userSpaceOnUse">
<stop stop-color="#90C9FD"/>
<stop offset="0.27" stop-color="#8AC3FD"/>
<stop offset="0.62" stop-color="#79B5FD"/>
<stop offset="1" stop-color="#5F9EFD"/>
</linearGradient>
<linearGradient id="paint3_linear_199_449" x1="-18.5482" y1="304.665" x2="177.648" y2="304.665" gradientUnits="userSpaceOnUse">
<stop stop-color="#90C9FD"/>
<stop offset="0.27" stop-color="#8AC3FD"/>
<stop offset="0.62" stop-color="#79B5FD"/>
<stop offset="1" stop-color="#5F9EFD"/>
</linearGradient>
<linearGradient id="paint4_linear_199_449" x1="151.102" y1="347.06" x2="151.102" y2="299.126" gradientUnits="userSpaceOnUse">
<stop stop-color="#74BCFD"/>
<stop offset="0.19" stop-color="#79BEFD"/>
<stop offset="0.43" stop-color="#8AC6FD"/>
<stop offset="0.71" stop-color="#A5D3FD"/>
<stop offset="1" stop-color="#CAE4FD"/>
</linearGradient>
<linearGradient id="paint5_linear_199_449" x1="153.494" y1="351.467" x2="143.868" y2="301.265" gradientUnits="userSpaceOnUse">
<stop stop-color="#009579"/>
<stop offset="1" stop-color="#02B695"/>
</linearGradient>
<linearGradient id="paint6_linear_199_449" x1="143.489" y1="322.918" x2="138.197" y2="324.203" gradientUnits="userSpaceOnUse">
<stop stop-color="#A43113"/>
<stop offset="1" stop-color="#6F160D"/>
</linearGradient>
<linearGradient id="paint7_linear_199_449" x1="174.617" y1="281.324" x2="169.964" y2="282.454" gradientUnits="userSpaceOnUse">
<stop stop-color="#A43113"/>
<stop offset="1" stop-color="#6F160D"/>
</linearGradient>
<linearGradient id="paint8_linear_199_449" x1="130.272" y1="324.103" x2="113.153" y2="328.043" gradientUnits="userSpaceOnUse">
<stop stop-color="#009579"/>
<stop offset="1" stop-color="#02B695"/>
</linearGradient>
<linearGradient id="paint9_linear_199_449" x1="240" y1="317.5" x2="358.5" y2="360.5" gradientUnits="userSpaceOnUse">
<stop stop-color="#478CEC"/>
<stop offset="1" stop-color="#8AC8F9"/>
</linearGradient>
<linearGradient id="paint10_linear_199_449" x1="58.8591" y1="295.826" x2="58.8591" y2="336.328" gradientUnits="userSpaceOnUse">
<stop stop-color="#D1FAFF"/>
<stop offset="1" stop-color="#4194F2"/>
</linearGradient>
<linearGradient id="paint11_linear_199_449" x1="46.3792" y1="317.186" x2="19.1319" y2="357.046" gradientUnits="userSpaceOnUse">
<stop stop-color="#FFA6DD" stop-opacity="0.5"/>
<stop offset="0.21" stop-color="#F2AFDD" stop-opacity="0.63"/>
<stop offset="0.57" stop-color="#DFBDDE" stop-opacity="0.83"/>
<stop offset="0.84" stop-color="#D3C6DF" stop-opacity="0.95"/>
<stop offset="1" stop-color="#CFCAE0"/>
</linearGradient>
<linearGradient id="paint12_linear_199_449" x1="54.488" y1="270.988" x2="75.9713" y2="350.624" gradientUnits="userSpaceOnUse">
<stop stop-color="#931A6E"/>
<stop offset="1" stop-color="#700D56"/>
</linearGradient>
<linearGradient id="paint13_linear_199_449" x1="79.7376" y1="288.595" x2="70.4185" y2="289.621" gradientUnits="userSpaceOnUse">
<stop stop-color="#A43113"/>
<stop offset="1" stop-color="#6F160D"/>
</linearGradient>
<linearGradient id="paint14_linear_199_449" x1="69.7028" y1="287.259" x2="62.3485" y2="289.405" gradientUnits="userSpaceOnUse">
<stop stop-color="#A43113"/>
<stop offset="1" stop-color="#6F160D"/>
</linearGradient>
<linearGradient id="paint15_linear_199_449" x1="-4.21256" y1="288.306" x2="-12.0227" y2="342.077" gradientUnits="userSpaceOnUse">
<stop stop-color="#A6CBFF"/>
<stop offset="0.12" stop-color="#A3C6FD"/>
<stop offset="0.26" stop-color="#9AB7F8"/>
<stop offset="0.42" stop-color="#8CA0F0"/>
<stop offset="0.58" stop-color="#787FE4"/>
<stop offset="0.74" stop-color="#5F55D6"/>
<stop offset="0.91" stop-color="#4022C4"/>
<stop offset="1" stop-color="#2E04BA"/>
</linearGradient>
<linearGradient id="paint16_linear_199_449" x1="0.133434" y1="215" x2="0.133434" y2="344.748" gradientUnits="userSpaceOnUse">
<stop stop-color="#6E0782"/>
<stop offset="1" stop-color="#08204D"/>
</linearGradient>
<linearGradient id="paint17_linear_199_449" x1="2.02774" y1="245.168" x2="5.63702" y2="245.168" gradientUnits="userSpaceOnUse">
<stop stop-color="#6E0782"/>
<stop offset="1" stop-color="#08204D"/>
</linearGradient>
<linearGradient id="paint18_linear_199_449" x1="-12.6422" y1="298.309" x2="1.39209" y2="298.309" gradientUnits="userSpaceOnUse">
<stop stop-color="#6E0782"/>
<stop offset="1" stop-color="#08204D"/>
</linearGradient>
<linearGradient id="paint19_linear_199_449" x1="38.91" y1="227.014" x2="21.6471" y2="259.922" gradientUnits="userSpaceOnUse">
<stop stop-color="#FFA6DD"/>
<stop offset="0.12" stop-color="#FAA2DC"/>
<stop offset="0.26" stop-color="#EB97D9"/>
<stop offset="0.41" stop-color="#D485D5"/>
<stop offset="0.56" stop-color="#B36BD0"/>
<stop offset="0.72" stop-color="#894AC9"/>
<stop offset="0.89" stop-color="#5623C0"/>
<stop offset="1" stop-color="#2E04BA"/>
</linearGradient>
<linearGradient id="paint20_linear_199_449" x1="34.8507" y1="233.6" x2="28.7366" y2="250.391" gradientUnits="userSpaceOnUse">
<stop stop-color="#FFA6DD" stop-opacity="0.5"/>
<stop offset="0.21" stop-color="#F2AFDD" stop-opacity="0.63"/>
<stop offset="0.57" stop-color="#DFBDDE" stop-opacity="0.83"/>
<stop offset="0.84" stop-color="#D3C6DF" stop-opacity="0.95"/>
<stop offset="1" stop-color="#CFCAE0"/>
</linearGradient>
<linearGradient id="paint21_linear_199_449" x1="33.1735" y1="238.984" x2="23.2708" y2="250.19" gradientUnits="userSpaceOnUse">
<stop stop-color="#FFA6DD" stop-opacity="0.5"/>
<stop offset="0.21" stop-color="#F2AFDD" stop-opacity="0.63"/>
<stop offset="0.57" stop-color="#DFBDDE" stop-opacity="0.83"/>
<stop offset="0.84" stop-color="#D3C6DF" stop-opacity="0.95"/>
<stop offset="1" stop-color="#CFCAE0"/>
</linearGradient>
<linearGradient id="paint22_linear_199_449" x1="30.8733" y1="195.84" x2="6.7789" y2="225.151" gradientUnits="userSpaceOnUse">
<stop stop-color="#FFA6DD"/>
<stop offset="0.12" stop-color="#FAA2DC"/>
<stop offset="0.26" stop-color="#EB97D9"/>
<stop offset="0.41" stop-color="#D485D5"/>
<stop offset="0.56" stop-color="#B36BD0"/>
<stop offset="0.72" stop-color="#894AC9"/>
<stop offset="0.89" stop-color="#5623C0"/>
<stop offset="1" stop-color="#2E04BA"/>
</linearGradient>
<linearGradient id="paint23_linear_199_449" x1="25.2375" y1="203.832" x2="10.2717" y2="215.538" gradientUnits="userSpaceOnUse">
<stop stop-color="#FFA6DD" stop-opacity="0.5"/>
<stop offset="0.21" stop-color="#F2AFDD" stop-opacity="0.63"/>
<stop offset="0.57" stop-color="#DFBDDE" stop-opacity="0.83"/>
<stop offset="0.84" stop-color="#D3C6DF" stop-opacity="0.95"/>
<stop offset="1" stop-color="#CFCAE0"/>
</linearGradient>
<linearGradient id="paint24_linear_199_449" x1="2.63153" y1="205.657" x2="33.913" y2="205.657" gradientUnits="userSpaceOnUse">
<stop stop-color="#FFA6DD" stop-opacity="0.5"/>
<stop offset="0.21" stop-color="#F2AFDD" stop-opacity="0.63"/>
<stop offset="0.57" stop-color="#DFBDDE" stop-opacity="0.83"/>
<stop offset="0.84" stop-color="#D3C6DF" stop-opacity="0.95"/>
<stop offset="1" stop-color="#CFCAE0"/>
</linearGradient>
<linearGradient id="paint25_linear_199_449" x1="11.4675" y1="189.575" x2="-4.69716" y2="220.39" gradientUnits="userSpaceOnUse">
<stop stop-color="#FFA6DD"/>
<stop offset="0.12" stop-color="#FAA2DC"/>
<stop offset="0.26" stop-color="#EB97D9"/>
<stop offset="0.41" stop-color="#D485D5"/>
<stop offset="0.56" stop-color="#B36BD0"/>
<stop offset="0.72" stop-color="#894AC9"/>
<stop offset="0.89" stop-color="#5623C0"/>
<stop offset="1" stop-color="#2E04BA"/>
</linearGradient>
<linearGradient id="paint26_linear_199_449" x1="12.1787" y1="192.391" x2="0.583022" y2="207.165" gradientUnits="userSpaceOnUse">
<stop stop-color="#FFA6DD" stop-opacity="0.5"/>
<stop offset="0.21" stop-color="#F2AFDD" stop-opacity="0.63"/>
<stop offset="0.57" stop-color="#DFBDDE" stop-opacity="0.83"/>
<stop offset="0.84" stop-color="#D3C6DF" stop-opacity="0.95"/>
<stop offset="1" stop-color="#CFCAE0"/>
</linearGradient>
<linearGradient id="paint27_linear_199_449" x1="8.89349" y1="196.346" x2="0.501211" y2="208.76" gradientUnits="userSpaceOnUse">
<stop stop-color="#FFA6DD" stop-opacity="0.5"/>
<stop offset="0.21" stop-color="#F2AFDD" stop-opacity="0.63"/>
<stop offset="0.57" stop-color="#DFBDDE" stop-opacity="0.83"/>
<stop offset="0.84" stop-color="#D3C6DF" stop-opacity="0.95"/>
<stop offset="1" stop-color="#CFCAE0"/>
</linearGradient>
<linearGradient id="paint28_linear_199_449" x1="-0.128119" y1="202.316" x2="-10.5469" y2="222.178" gradientUnits="userSpaceOnUse">
<stop stop-color="#FFA6DD"/>
<stop offset="0.12" stop-color="#FAA2DC"/>
<stop offset="0.26" stop-color="#EB97D9"/>
<stop offset="0.41" stop-color="#D485D5"/>
<stop offset="0.56" stop-color="#B36BD0"/>
<stop offset="0.72" stop-color="#894AC9"/>
<stop offset="0.89" stop-color="#5623C0"/>
<stop offset="1" stop-color="#2E04BA"/>
</linearGradient>
<linearGradient id="paint29_linear_199_449" x1="8.84628" y1="206.727" x2="8.65748" y2="206.844" gradientUnits="userSpaceOnUse">
<stop stop-color="#FFA6DD" stop-opacity="0.5"/>
<stop offset="0.21" stop-color="#F2AFDD" stop-opacity="0.63"/>
<stop offset="0.57" stop-color="#DFBDDE" stop-opacity="0.83"/>
<stop offset="0.84" stop-color="#D3C6DF" stop-opacity="0.95"/>
<stop offset="1" stop-color="#CFCAE0"/>
</linearGradient>
<linearGradient id="paint30_linear_199_449" x1="2.91158" y1="205.5" x2="-12.5293" y2="215.019" gradientUnits="userSpaceOnUse">
<stop stop-color="#FFA6DD" stop-opacity="0.5"/>
<stop offset="0.21" stop-color="#F2AFDD" stop-opacity="0.63"/>
<stop offset="0.57" stop-color="#DFBDDE" stop-opacity="0.83"/>
<stop offset="0.84" stop-color="#D3C6DF" stop-opacity="0.95"/>
<stop offset="1" stop-color="#CFCAE0"/>
</linearGradient>
<linearGradient id="paint31_linear_199_449" x1="-18.2878" y1="211.838" x2="10.149" y2="211.838" gradientUnits="userSpaceOnUse">
<stop stop-color="#FFA6DD" stop-opacity="0.5"/>
<stop offset="0.21" stop-color="#F2AFDD" stop-opacity="0.63"/>
<stop offset="0.57" stop-color="#DFBDDE" stop-opacity="0.83"/>
<stop offset="0.84" stop-color="#D3C6DF" stop-opacity="0.95"/>
<stop offset="1" stop-color="#CFCAE0"/>
</linearGradient>
<linearGradient id="paint32_linear_199_449" x1="23.266" y1="313.196" x2="34.5002" y2="335.788" gradientUnits="userSpaceOnUse">
<stop stop-color="#6E0782"/>
<stop offset="1" stop-color="#08204D"/>
</linearGradient>
<linearGradient id="paint33_linear_199_449" x1="35.7761" y1="309.327" x2="22.2962" y2="315.323" gradientUnits="userSpaceOnUse">
<stop stop-color="#FFA6DD"/>
<stop offset="0.12" stop-color="#FAA2DC"/>
<stop offset="0.26" stop-color="#EB97D9"/>
<stop offset="0.41" stop-color="#D485D5"/>
<stop offset="0.56" stop-color="#B36BD0"/>
<stop offset="0.72" stop-color="#894AC9"/>
<stop offset="0.89" stop-color="#5623C0"/>
<stop offset="1" stop-color="#2E04BA"/>
</linearGradient>
<linearGradient id="paint34_linear_199_449" x1="53.017" y1="319.799" x2="41.6749" y2="332.154" gradientUnits="userSpaceOnUse">
<stop stop-color="#FFA6DD"/>
<stop offset="0.12" stop-color="#FAA2DC"/>
<stop offset="0.26" stop-color="#EB97D9"/>
<stop offset="0.41" stop-color="#D485D5"/>
<stop offset="0.56" stop-color="#B36BD0"/>
<stop offset="0.72" stop-color="#894AC9"/>
<stop offset="0.89" stop-color="#5623C0"/>
<stop offset="1" stop-color="#2E04BA"/>
</linearGradient>
<linearGradient id="paint35_linear_199_449" x1="64.3197" y1="325.893" x2="42.7942" y2="336.121" gradientUnits="userSpaceOnUse">
<stop stop-color="#FFA6DD"/>
<stop offset="0.12" stop-color="#FAA2DC"/>
<stop offset="0.26" stop-color="#EB97D9"/>
<stop offset="0.41" stop-color="#D485D5"/>
<stop offset="0.56" stop-color="#B36BD0"/>
<stop offset="0.72" stop-color="#894AC9"/>
<stop offset="0.89" stop-color="#5623C0"/>
<stop offset="1" stop-color="#2E04BA"/>
</linearGradient>
<linearGradient id="paint36_linear_199_449" x1="55.5881" y1="315.679" x2="45.9699" y2="345.456" gradientUnits="userSpaceOnUse">
<stop stop-color="#FFA6DD"/>
<stop offset="0.12" stop-color="#FAA2DC"/>
<stop offset="0.26" stop-color="#EB97D9"/>
<stop offset="0.41" stop-color="#D485D5"/>
<stop offset="0.56" stop-color="#B36BD0"/>
<stop offset="0.72" stop-color="#894AC9"/>
<stop offset="0.89" stop-color="#5623C0"/>
<stop offset="1" stop-color="#2E04BA"/>
</linearGradient>
<linearGradient id="paint37_linear_199_449" x1="61.1189" y1="332.396" x2="49.5158" y2="335.059" gradientUnits="userSpaceOnUse">
<stop stop-color="#FFA6DD"/>
<stop offset="0.12" stop-color="#FAA2DC"/>
<stop offset="0.26" stop-color="#EB97D9"/>
<stop offset="0.41" stop-color="#D485D5"/>
<stop offset="0.56" stop-color="#B36BD0"/>
<stop offset="0.72" stop-color="#894AC9"/>
<stop offset="0.89" stop-color="#5623C0"/>
<stop offset="1" stop-color="#2E04BA"/>
</linearGradient>
<linearGradient id="paint38_linear_199_449" x1="66.1356" y1="340.996" x2="48.6897" y2="338.87" gradientUnits="userSpaceOnUse">
<stop stop-color="#FFA6DD"/>
<stop offset="0.12" stop-color="#FAA2DC"/>
<stop offset="0.26" stop-color="#EB97D9"/>
<stop offset="0.41" stop-color="#D485D5"/>
<stop offset="0.56" stop-color="#B36BD0"/>
<stop offset="0.72" stop-color="#894AC9"/>
<stop offset="0.89" stop-color="#5623C0"/>
<stop offset="1" stop-color="#2E04BA"/>
</linearGradient>
<linearGradient id="paint39_linear_199_449" x1="64.7595" y1="330.451" x2="45.4511" y2="344.729" gradientUnits="userSpaceOnUse">
<stop stop-color="#FFA6DD"/>
<stop offset="0.12" stop-color="#FAA2DC"/>
<stop offset="0.26" stop-color="#EB97D9"/>
<stop offset="0.41" stop-color="#D485D5"/>
<stop offset="0.56" stop-color="#B36BD0"/>
<stop offset="0.72" stop-color="#894AC9"/>
<stop offset="0.89" stop-color="#5623C0"/>
<stop offset="1" stop-color="#2E04BA"/>
</linearGradient>
<linearGradient id="paint40_linear_199_449" x1="31.9835" y1="318.665" x2="27.3609" y2="350.494" gradientUnits="userSpaceOnUse">
<stop stop-color="#A6CBFF"/>
<stop offset="0.12" stop-color="#A3C6FD"/>
<stop offset="0.26" stop-color="#9AB7F8"/>
<stop offset="0.42" stop-color="#8CA0F0"/>
<stop offset="0.58" stop-color="#787FE4"/>
<stop offset="0.74" stop-color="#5F55D6"/>
<stop offset="0.91" stop-color="#4022C4"/>
<stop offset="1" stop-color="#2E04BA"/>
</linearGradient>
</defs>
</svg>
