<svg width="291" height="342" viewBox="0 0 291 342" fill="none" xmlns="http://www.w3.org/2000/svg">
<mask id="mask0_199_222" style="mask-type:alpha" maskUnits="userSpaceOnUse" x="0" y="0" width="291" height="342">
<rect width="291" height="342" rx="5" fill="url(#paint0_linear_199_222)"/>
</mask>
<g mask="url(#mask0_199_222)">
<path d="M84.9556 330.385C84.9548 330.387 84.9525 330.387 84.951 330.386C84.1765 329.758 83.3942 329.114 82.6004 328.529C81.4237 327.657 80.108 327.12 78.8619 326.36C76.7668 325.079 74.8069 323.289 73.0938 321.549C71.647 320.079 70.3082 318.517 68.8845 317.035C68.3367 316.464 67.6923 316.047 67.1831 315.434C66.3381 314.415 65.7092 313.269 64.9723 312.174C62.9776 309.222 59.4898 307.104 56.681 304.963C54.7828 303.516 53.0003 302 51.2217 300.41C50.1182 299.422 49.0109 298.458 47.9692 297.404C47.2516 296.675 46.4375 296.151 45.689 295.468C43.7831 293.724 41.9427 291.617 39.6548 290.39C38.6092 289.831 37.5829 289.044 36.5682 288.376C35.5998 287.74 35.1253 286.991 34.3883 286.127C33.8482 285.494 33.1499 284.642 32.5094 284.125C32.0348 283.743 31.8149 283.82 31.1359 283.824C30.4298 283.827 29.6505 283.669 29.0486 284.132C28.5316 284.53 28.1072 285.286 27.7368 285.822C26.371 287.805 25.2907 289.985 23.5815 291.706C22.3546 292.94 20.6184 293.793 19.1793 294.792C16.5557 296.617 15.1938 299.584 13.3303 302.054C12.0571 303.74 10.8533 305.144 8.69273 305.291C8.02526 305.337 7.37321 305.233 6.7096 305.341C4.32909 305.738 2.83982 307.119 0.930014 308.477C-0.293037 309.349 -1.20743 310.187 -1.95206 311.51C-2.65426 312.76 -3.03236 313.806 -4.08179 314.805C-5.13894 315.808 -5.7138 317.039 -6.83654 317.965C-7.57731 318.578 -8.19463 319.315 -8.93926 319.917C-10.9185 321.514 -13.2643 322.595 -15.2899 324.138C-16.4165 324.998 -17.8208 325.743 -18.6079 326.962C-19.1712 327.834 -19.2754 328.822 -20.0895 329.539C-20.4857 329.89 -20.2851 330.38 -19.7562 330.38H84.9529C84.9552 330.38 84.9566 330.383 84.9556 330.385Z" fill="url(#paint1_linear_199_222)"/>
<path d="M195.137 318.002C195.137 318.002 195.138 318.003 195.138 318.002C196.122 316.336 197.337 314.832 198.305 313.146C199.161 311.657 199.713 309.902 200.701 308.497C202.503 305.939 207.468 304.392 210.447 304.766C214.741 305.303 219.143 305.283 223.507 305.198C225.775 305.156 228.326 303.551 230.17 302.351C233.364 300.272 236.177 297.559 239.626 295.881C241.795 294.828 243.94 294.133 246.278 293.508C248.107 293.022 249.777 292.208 251.706 292.235C253.172 292.254 254.199 291.919 255.595 291.753C256.988 291.591 258.628 290.715 259.94 290.152C261.278 289.577 262.343 288.836 263.539 288.045C264.778 287.223 266.225 286.332 267.22 285.213C268.721 283.531 269.905 281.339 272.487 281.625C275.268 281.934 277.691 282.678 280.392 283.334C281.85 283.689 283.332 283.932 284.833 283.913C286.017 283.897 287.479 284.152 288.618 283.832C291.164 283.118 293.464 280.795 295.042 278.835C296.627 276.868 297.607 273.434 299.953 272.33C301.566 271.57 303.032 271.898 304.718 272.234C305.204 272.33 306.196 272.539 306.682 272.369C307.376 272.126 307.639 271.165 307.932 270.509C308.403 269.452 308.449 268.411 308.723 267.299C308.981 266.265 309.564 265.428 309.915 264.437C310.378 263.121 310.27 261.72 310.683 260.401C310.845 259.888 311.072 259.51 311.296 259.016C311.443 258.688 311.636 257.851 311.825 257.627C312.616 256.709 314.394 257.071 315.448 257.067C317.045 257.064 318.04 257.175 319.275 258.306C320.564 259.483 320.618 261.524 321.111 263.082C321.517 264.352 321.729 265.563 322.261 266.786C322.828 268.09 323.723 269.101 324.503 270.259C325.768 272.134 326.382 274.271 327.748 276.061C328.488 277.037 328.924 278.033 329.881 278.824C330.765 279.553 331.922 280.19 332.956 280.676C334.665 281.482 336.567 281.555 338.369 282.053C340.337 282.597 342.366 282.929 344.28 283.662C349.631 285.707 353.331 291.02 357.544 294.669C360.187 296.957 362.857 299.176 365.469 301.502C366.831 302.718 368.344 303.617 369.763 304.724C371.037 305.719 372.287 306.881 373.714 307.656C375.528 308.644 377.696 309.346 379.667 309.936C380.624 310.226 381.515 310.141 382.445 310.38C383.425 310.631 384.617 311.163 385.81 311.225C388.46 311.36 390.663 311.121 393.225 312.07C397.654 313.714 401.493 316.97 405.07 319.968C406.586 321.241 408.492 322.422 409.738 323.934C410.849 325.284 411.887 325.836 413.434 326.596C414.503 327.121 415.61 327.696 416.752 328.051C417.574 328.305 418.354 328.251 419.199 328.409C420.121 328.583 420.927 329.154 421.861 329.247H195.608C194.613 329.247 193.736 328.416 193.503 327.449C193.25 326.403 192.921 325.376 192.992 324.293C193.135 322.098 194.029 319.876 195.136 318.002C195.137 318.001 195.137 318.001 195.137 318.002Z" fill="url(#paint2_linear_199_222)"/>
<path d="M-8.10242 332.245C-8.10242 332.242 -8.10096 332.239 -8.09852 332.238C-5.96839 330.762 -3.80984 329.409 -1.63234 328.009C0.00257492 326.959 1.6533 326.001 3.1807 324.793C3.81632 324.29 4.47725 323.835 5.05595 323.262C5.5556 322.766 5.75798 322.26 6.12165 321.703C6.66241 320.878 7.37392 320.249 8.24039 319.904C9.37882 319.452 10.4414 318.917 11.5007 318.358C12.4684 317.845 13.4266 316.919 14.2267 316.185C15.1722 315.322 16.1462 314.395 17.1518 313.595C17.955 312.953 18.5938 312.112 19.4097 311.499C20.371 310.771 21.4936 310.319 22.4613 309.595C23.6092 308.735 24.6433 307.951 25.9145 307.296C26.9802 306.746 27.8246 305.787 28.8966 305.202C29.3962 304.931 29.7093 304.564 30.3038 304.747C30.8952 304.931 31.3537 305.506 31.9071 305.667C32.2645 305.772 33.3302 305.898 33.6717 305.743C34.1365 305.535 34.4275 304.086 34.6267 303.577C34.8607 302.973 34.9493 302.344 35.139 301.8C35.2623 301.446 35.3762 301.155 35.5564 300.816C35.724 300.5 35.8474 300.08 36.0181 299.795C36.5304 298.944 37.7922 298.381 38.5448 297.746C39.0729 297.3 39.4176 296.898 39.7655 296.376C40.0279 295.981 40.5465 295.599 40.8881 295.282C41.9253 294.321 43.0416 293.518 44.199 292.718C44.9422 292.202 45.7865 291.902 46.498 291.348C46.8996 291.035 47.2886 290.7 47.7092 290.409C48.2721 290.02 48.8033 289.6 49.3504 289.182C50.2833 288.471 51.1245 287.74 51.9467 286.908C52.9871 285.855 54.3247 285.289 55.4347 284.334C56.0166 283.832 56.649 283.398 57.1929 282.848C57.7084 282.326 58.129 281.732 58.6698 281.238C59.8398 280.166 61.1237 279.142 62.0313 277.811C62.3159 277.393 62.4614 277.08 62.844 276.726C63.195 276.4 63.5112 275.999 63.818 275.629C64.1342 275.246 64.3904 274.822 64.7003 274.436C65.1873 273.826 65.8703 273.428 66.3668 272.827C66.8127 272.286 67.2839 271.843 67.7456 271.328C68.1662 270.86 68.416 270.253 68.8303 269.781C69.1686 269.396 69.6461 269.212 70.0161 268.864C70.2881 268.611 70.4493 268.286 70.6992 268.02C71.3949 267.283 72.2645 266.727 73.1405 266.23C74.1398 265.661 74.8987 264.994 76.053 265C77.5962 265.006 79.0445 265.971 80.4928 266.474C81.3593 266.774 82.2637 267.131 83.0701 267.571C84.041 268.096 84.6797 268.596 85.4608 269.383C86.0079 269.936 86.6309 270.3 87.1811 270.8C87.7409 271.309 88.6548 271.518 89.3283 271.888C89.8849 272.194 90.4857 272.599 90.998 272.975C91.3174 273.209 91.5356 273.513 91.8993 273.706C92.4179 273.978 92.7784 274.117 93.2022 274.538C95.5676 276.884 98.7489 278.086 101.702 279.363C102.155 279.559 102.806 279.727 103.192 280.008C103.666 280.353 104.008 280.938 104.406 281.359C105.001 281.988 105.396 282.763 105.924 283.439C106.534 284.221 106.942 284.145 107.689 283.566C108.005 283.322 108.41 282.892 108.792 282.797C109.077 282.725 109.349 282.813 109.637 282.731C109.912 282.652 109.975 282.488 110.336 282.548C110.658 282.601 111.088 282.854 111.351 283.047C112.176 283.654 112.884 284.622 113.488 285.425C113.899 285.969 114.209 286.599 114.655 287.114C115.089 287.617 115.661 288.123 116.018 288.721C116.752 289.944 117.533 291.178 118.444 292.376C119.288 293.489 120.218 294.508 121.034 295.633C121.555 296.354 122.362 296.835 122.969 297.474C123.507 298.04 123.791 298.799 124.275 299.406C125.11 300.453 126.074 301.591 127.014 302.439C127.403 302.79 127.747 303.21 128.139 303.552C128.566 303.925 129.158 304.086 129.613 304.431C130.799 305.326 131.852 306.195 133.171 306.916C135.46 308.166 138.022 309.244 139.799 311.217C140.558 312.058 141.269 312.956 141.974 313.845C142.749 314.819 143.255 315.926 144.239 316.691C144.881 317.191 145.393 317.868 146.035 318.377C146.743 318.936 147.452 319.487 148.094 320.148C148.935 321.02 149.757 321.912 150.674 322.725C151.243 323.231 151.857 323.692 152.54 324.031C153.586 324.549 154.162 325.312 155.044 326.048C155.784 326.665 156.654 327.136 157.445 327.69C158.447 328.392 159.459 329.094 160.515 329.714C161.685 330.397 162.862 330.887 164.161 331.244C165.094 331.5 165.885 331.902 166.767 332.297C168.845 333.23 170.821 334.144 172.282 335.981C172.649 336.44 173.044 336.939 173.36 337.43C173.987 338.4 174.704 339.238 175.432 340.165C175.982 340.864 176.894 341.912 177.784 342.423C177.853 342.463 177.82 342.6 177.74 342.6H-16.3624C-15.6266 342.6 -17.0496 343.535 -17.4154 342.896C-17.8615 342.117 -18.125 341.276 -17.9404 340.295C-17.7253 339.159 -16.8209 338.657 -15.9197 338.084C-14.6263 337.262 -13.6871 336.101 -12.4854 335.165C-11.0984 334.088 -9.54724 333.251 -8.10632 332.252C-8.10388 332.251 -8.10242 332.248 -8.10242 332.245Z" fill="#5F9EFD"/>
<path d="M-8.65018 332.245C-8.65018 332.242 -8.64873 332.239 -8.64628 332.238C-6.51615 330.762 -4.3576 329.409 -2.1801 328.009C-0.545187 326.959 1.10554 326.001 2.63293 324.793C3.26856 324.29 3.92949 323.835 4.50819 323.262C5.00784 322.766 5.21022 322.26 5.57389 321.703C6.11464 320.878 6.82616 320.249 7.69263 319.904C8.83106 319.452 9.8936 318.917 10.953 318.358C11.9206 317.845 12.8788 316.919 13.6789 316.185C14.6244 315.322 15.5984 314.395 16.604 313.595C17.4073 312.953 18.046 312.112 18.8619 311.499C19.8233 310.771 20.9459 310.319 21.9135 309.595C23.0615 308.735 24.0955 307.951 25.3668 307.296C26.4325 306.746 27.2768 305.787 28.3488 305.202C28.8485 304.931 29.1616 304.564 29.7561 304.747C30.3474 304.931 30.806 305.506 31.3594 305.667C31.7167 305.772 32.7824 305.898 33.1239 305.743C33.5888 305.535 33.8797 304.086 34.0789 303.577C34.313 302.973 34.4015 302.344 34.5912 301.8C34.7146 301.446 34.8284 301.155 35.0087 300.816C35.1763 300.5 35.2996 300.08 35.4704 299.795C35.9827 298.944 37.2444 298.381 37.997 297.746C38.5252 297.3 38.8698 296.898 39.2177 296.376C39.4802 295.981 39.9988 295.599 40.3403 295.282C41.3775 294.321 42.4939 293.518 43.6513 292.718C44.3944 292.202 45.2387 291.902 45.9502 291.348C46.3519 291.035 46.7408 290.7 47.1614 290.409C47.7243 290.02 48.2556 289.6 48.8027 289.182C49.7355 288.471 50.5767 287.74 51.3989 286.908C52.4393 285.855 53.777 285.289 54.8869 284.334C55.4688 283.832 56.1013 283.398 56.6452 282.848C57.1606 282.326 57.5812 281.732 58.122 281.238C59.292 280.166 60.576 279.142 61.4835 277.811C61.7681 277.393 61.9136 277.08 62.2962 276.726C62.6472 276.4 62.9635 275.999 63.2702 275.629C63.5864 275.246 63.8426 274.822 64.1525 274.436C64.6395 273.826 65.3226 273.428 65.819 272.827C66.2649 272.286 66.7361 271.843 67.1978 271.328C67.6184 270.86 67.8682 270.253 68.2825 269.781C68.6209 269.396 69.0984 269.212 69.4684 268.864C69.7403 268.611 69.9016 268.286 70.1514 268.02C70.8471 267.283 71.7167 266.727 72.5927 266.23C73.592 265.661 74.351 264.994 75.5052 265C77.0484 265.006 78.4967 265.971 79.9451 266.474C80.8115 266.774 81.716 267.131 82.5224 267.571C83.4932 268.096 84.132 268.596 84.9131 269.383C85.4602 269.936 86.0831 270.3 86.6334 270.8C87.1931 271.309 88.107 271.518 88.7806 271.888C89.3371 272.194 89.938 272.599 90.4503 272.975C90.7697 273.209 90.9879 273.513 91.3515 273.706C91.8701 273.978 92.2306 274.117 92.6544 274.538C95.0198 276.884 98.2011 278.086 101.155 279.363C101.607 279.559 102.258 279.727 102.644 280.008C103.118 280.353 103.46 280.938 103.858 281.359C104.453 281.988 104.848 282.763 105.376 283.439C105.987 284.221 106.395 284.145 107.141 283.566C107.457 283.322 107.862 282.892 108.245 282.797C108.529 282.725 108.801 282.813 109.089 282.731C109.364 282.652 109.427 282.488 109.788 282.548C110.11 282.601 110.54 282.854 110.803 283.047C111.628 283.654 112.337 284.622 112.941 285.425C113.352 285.969 113.662 286.599 114.107 287.114C114.541 287.617 115.113 288.123 115.47 288.721C116.204 289.944 116.985 291.178 117.896 292.376C118.74 293.489 119.67 294.508 120.486 295.633C121.008 296.354 121.814 296.835 122.421 297.474C122.959 298.04 123.243 298.799 123.727 299.406C124.562 300.453 125.527 301.591 126.466 302.439C126.855 302.79 127.199 303.21 127.592 303.552C128.019 303.925 128.61 304.086 129.065 304.431C130.251 305.326 131.304 306.195 132.623 306.916C134.912 308.166 137.474 309.244 139.251 311.217C140.01 312.058 140.722 312.956 141.427 313.845C142.201 314.819 142.707 315.926 143.691 316.691C144.333 317.191 144.845 317.868 145.487 318.377C146.195 318.936 146.904 319.487 147.546 320.148C148.387 321.02 149.209 321.912 150.126 322.725C150.695 323.231 151.309 323.692 151.992 324.031C153.039 324.549 153.614 325.312 154.497 326.048C155.236 326.665 156.106 327.136 156.897 327.69C157.899 328.392 158.911 329.094 159.967 329.714C161.137 330.397 162.314 330.887 163.613 331.244C164.546 331.5 165.337 331.902 166.219 332.297C168.297 333.23 170.273 334.144 171.734 335.981C172.101 336.44 172.496 336.939 172.813 337.43C173.439 338.4 174.157 339.238 174.884 340.165C175.434 340.864 176.346 341.912 177.236 342.423C177.305 342.463 177.272 342.6 177.192 342.6H-16.9101C-16.1743 342.6 -17.5974 343.535 -17.9632 342.896C-18.4093 342.117 -18.6728 341.276 -18.4881 340.295C-18.2731 339.159 -17.3687 338.657 -16.4674 338.084C-15.174 337.262 -14.2348 336.101 -13.0331 335.165C-11.6461 334.088 -10.095 333.25 -8.65408 332.252C-8.65164 332.251 -8.65018 332.248 -8.65018 332.245Z" fill="url(#paint3_linear_199_222)"/>
<path d="M346.207 299.126H-44C-46.7614 299.126 -49 301.364 -49 304.126V342.06C-49 344.821 -46.7614 347.06 -44 347.06H346.207C348.969 347.06 351.207 344.821 351.207 342.06V304.126C351.207 301.364 348.969 299.126 346.207 299.126Z" fill="url(#paint4_linear_199_222)"/>
<path d="M268.032 307.291C266.963 307.179 265.891 307.113 264.814 307.083C263.267 307.04 261.986 306.778 260.601 307.484C258.105 308.757 255.601 310.586 253.359 312.249C251.646 313.518 249.829 315.679 247.695 316.257C246.291 316.639 244.281 316.381 242.853 316.092C239.532 315.412 236.021 315.046 232.66 315.725C229.635 316.335 227.004 317.488 223.879 317.349C222.629 317.295 221.371 317.245 220.121 317.241C218.311 317.237 217.509 316.616 215.973 315.721C214.418 314.814 212.79 314.398 211.077 313.877C209.657 313.445 207.933 313.047 206.432 313.341C203.685 313.877 200.544 316.485 198.939 318.704C197.736 320.37 197.122 322.924 194.78 323.341C192.176 323.804 189.275 322.6 186.693 323.221C183.943 323.881 181.234 325.178 178.526 326.03C174.664 327.246 170.728 328.195 166.882 329.46C163.961 330.421 161.557 329.576 158.706 329.128C156.268 328.743 153.71 329.29 151.264 328.831C146.757 327.986 142.324 326.277 137.864 325.162C134.372 324.29 130.572 323.573 126.972 323.495C126.012 323.476 124.789 323.218 123.851 323.434C122.813 323.673 121.984 324.603 121.05 325.089C118.878 326.212 116.231 326.227 113.885 326.806C109.923 327.786 105.459 326.478 101.412 326.794C93.2053 327.438 84.8832 326.794 76.6266 326.528C73.7021 326.435 70.7352 326.177 67.8068 326.215C66.0744 326.239 64.4 326.694 62.6677 326.682C59.8319 326.659 57.1504 326.185 54.4304 327.219C52.7289 327.867 51.1586 328.669 49.3877 329.125C48.1222 329.452 46.7564 329.777 45.7842 330.718C44.3065 332.153 44.4261 334.468 44.0518 336.347C43.7867 337.681 43.3676 338.969 42.9044 340.244C41.8731 343.084 43.6531 346.009 46.642 346.45L166.789 364.157L254.767 366.977C257.307 367.059 259.503 365.222 259.874 362.709L268.039 307.299C268.039 307.295 268.036 307.291 268.032 307.291Z" fill="#2A63D4"/>
<path d="M209.342 313.404C209.342 313.405 209.341 313.405 209.34 313.405C206.64 313.046 203.631 312.228 200.059 310.874C193.06 308.227 189.317 306.645 182.627 310.191C180.984 311.061 181.762 313.401 183.622 313.401H209.341C209.342 313.401 209.343 313.403 209.342 313.404Z" fill="#5F9EFD"/>
<path d="M398.217 267.812C398.216 267.812 398.215 267.812 398.215 267.812C389.657 264.837 370.39 261.358 361.397 265.007C354.988 267.608 353.287 275.506 348.892 279.912C340.262 288.566 331.345 286.953 317.749 286.602C306.826 286.32 308.513 290.105 300.997 295.345C297.054 298.095 291.44 294.372 287.346 296.332C281.563 299.102 279.75 302.725 277.165 304.982C266.053 314.697 250.069 309.848 237.225 318.096C233.324 320.6 230.723 324.586 225.951 325.195C221.989 325.701 215.815 324.011 211.996 325.257C207.127 326.843 203.571 331.638 200.437 336.482C197.999 340.252 201.172 346.527 205.662 346.527H391.318C394.177 346.527 396.454 344.135 396.312 341.28C396.156 338.12 395.999 334.96 395.843 331.801L398.219 267.813C398.22 267.811 398.218 267.811 398.217 267.812Z" fill="url(#paint5_linear_199_222)"/>
<g style="mix-blend-mode:overlay" opacity="0.28">
<path d="M-138.849 173.738C-138.849 173.738 -109.147 183.882 -90.3127 183.882C-71.4785 183.882 -70.7548 182.434 -66.4066 186.053C-62.0585 189.677 -61.3348 191.849 -51.9205 191.125C-42.5063 190.401 -26.567 193.296 -19.3239 196.197C-12.0808 199.097 -4.8378 194.749 3.85843 196.197C12.549 197.644 39.3557 207.788 66.8805 205.611C66.8805 205.611 1.68723 203.44 -35.9812 199.815C-73.6497 196.191 -125.081 183.152 -138.843 173.738H-138.849Z" fill="white"/>
</g>
<g style="mix-blend-mode:overlay" opacity="0.28">
<path d="M101 139C101 139 127.543 144.676 143.726 142.802C159.91 140.929 160.387 139.63 164.485 142.275C168.583 144.92 169.426 146.699 177.446 145.148C185.466 143.597 199.454 144.479 205.97 146.219C212.487 147.966 218.279 143.55 225.893 143.912C233.508 144.274 257.56 150.241 281 145.66C281 145.66 224.755 150.289 192.022 150.95C159.289 151.611 113.778 145.636 101.008 139H101Z" fill="white"/>
</g>
<g style="mix-blend-mode:overlay" opacity="0.28">
<path d="M-264.978 114C-264.978 114 -53.1589 162.673 138.289 173.834C329.736 184.986 452.964 130.224 452.964 130.224L455 138.34C455 138.34 296.138 200.201 38.4898 179.915C-219.158 159.636 -266 140.367 -266 140.367L-264.978 114Z" fill="white"/>
</g>
<path opacity="0.2" d="M-114 -39C-114 -39 25.9239 96.1757 291 109C291 109 289.028 102.09 278.192 100.116C267.356 98.1421 255.526 103.078 252.569 96.168C249.611 89.2584 239.761 69.5246 219.066 68.5452C198.372 67.5659 185.564 79.3954 174.72 72.4935C163.876 65.5917 151.068 52.7597 140.232 53.7468C129.396 54.7338 102.787 62.6305 98.8433 50.7855C94.9001 38.9406 94.9001 18.2274 72.2341 -7.42893C49.5681 -33.0852 -18.4223 12.3049 -29.2585 -2.49354C-40.0948 -17.292 -43.0522 -39 -56.8459 -39H-114Z" fill="white"/>
<path opacity="0.2" d="M191 111.94C191 111.94 19.9634 114.287 -98.1857 89.6113C-216.326 64.9354 -261 28.5062 -261 28.5062C-261 28.5062 -235.136 40.2596 -223.968 39.0815C-212.799 37.9034 -198.694 24.392 -189.293 26.1591C-179.892 27.9262 -172.839 50.8349 -165.197 52.013C-157.555 53.1911 -152.85 46.7208 -122.291 47.3098C-91.7312 47.8988 -89.3742 67.8715 -75.8577 77.2779C-62.3412 86.6752 -23.5504 80.803 -5.32899 80.214C12.8924 79.6249 22.2932 98.4286 34.051 100.776C45.8088 103.123 70.4939 94.3144 75.779 96.0725C81.0641 97.8305 84.5996 104.89 90.474 104.301C96.3483 103.712 95.1789 97.2505 101.053 100.776C106.928 104.301 123.39 109.004 128.086 103.712C132.791 98.4195 190.973 111.94 190.973 111.94H191Z" fill="white"/>
<path opacity="0.2" d="M150 29.5247C150 29.5247 308.199 61.3008 382 55.2288C382 55.2288 366.856 48.7868 358.318 49.6287C349.781 50.4706 343.587 55.3053 333.491 45.7508C323.408 36.1963 295.451 27.3179 280.371 35.7371C265.305 44.1563 253.625 39.9849 249.349 36.6938C245.074 33.4027 240 36.5152 230.664 36.3239C221.315 36.1453 210.344 10.7091 197.196 11.0025C184.048 11.2959 179.992 29.3717 172.123 24.7283C164.255 20.085 150 29.5247 150 29.5247Z" fill="white"/>
<path opacity="0.44" d="M158.7 353.059C158.269 354.276 142.009 349.806 122.386 343.07C102.764 336.334 87.2049 329.88 87.6355 328.663C88.0662 327.446 104.327 331.916 123.949 338.652C143.571 345.389 159.132 351.837 158.7 353.059Z" fill="#9B9B9B"/>
<path d="M136.438 330.065C134.068 337.476 133.236 343.535 133.236 343.535L131.822 343.623C131.822 343.623 126.953 335.322 120.253 332.348C113.543 329.372 108.039 334.364 108.039 334.364L106.815 333.939C106.815 333.939 104.484 324.144 108.51 310.625C112.535 297.106 116.147 288.123 117.275 287.663C117.857 287.425 120.617 286.157 124.569 285.514C124.614 285.502 124.636 285.498 124.636 285.498C128.349 284.896 133.103 284.855 138.091 286.71C148.434 290.569 150.349 300.027 150.225 301.843C150.096 303.658 138.808 322.655 136.438 330.065Z" fill="url(#paint6_linear_199_222)"/>
<path d="M133.902 318.819L133.069 320.079C133.069 320.079 129.393 321.561 124.818 321.399C124.818 321.399 124.818 321.399 124.809 321.396C122.388 321.31 119.703 320.763 117.189 319.295C112.182 316.372 112.312 311.998 112.872 309.576C112.887 309.536 112.894 309.517 112.894 309.517C113.151 308.462 113.475 307.793 113.475 307.793L114.489 306.738C114.489 306.738 117.482 311.904 123.051 315.226C128.664 318.573 133.908 318.816 133.908 318.816L133.902 318.819Z" fill="#590800"/>
<path d="M149.982 300.649C149.982 300.649 156.748 293.258 157.759 293.656C158.77 294.055 152.933 300.19 152.933 300.19C152.933 300.19 164.609 297.533 165.171 300.309C165.728 303.084 152.608 301.519 152.608 301.519C152.608 301.519 158.002 304.564 157.247 305.615C156.492 306.665 150.492 303.134 150.492 303.134L149.983 300.661L149.982 300.649Z" fill="#590800"/>
<path d="M136.998 294.128C136.998 294.128 139.692 295.653 141.94 298.401C144.188 301.15 144.421 303.235 144.421 303.235L144.617 301.709L145.58 302.642L147.483 301.452C147.483 301.452 146.521 297.993 144.262 295.137C141.933 292.202 138.612 290.427 138.612 290.427L137.953 291.807C137.953 291.807 138.614 292.327 139.435 293.015C140.117 293.592 140.698 294.454 140.698 294.454L137.742 292.463L137.004 294.125L136.998 294.128Z" fill="#590800"/>
<path d="M131.509 291.119C131.509 291.119 128.392 290.732 124.818 291.567C121.249 292.403 119.762 293.462 119.762 293.462L120.142 292.375L119.167 292.759L118.46 290.708C118.46 290.708 121.493 288.561 125.145 287.652C128.905 286.719 132.678 287.278 132.678 287.278L132.286 288.746C132.286 288.746 131.425 288.766 130.328 288.823C129.413 288.875 128.949 289.053 128.949 289.053L132.019 289.386L131.503 291.122L131.509 291.119Z" fill="#590800"/>
<path d="M142.517 309.863C144.632 305.441 143.765 300.705 140.58 299.285C137.395 297.866 133.099 300.3 130.984 304.722C128.869 309.144 129.736 313.88 132.921 315.299C136.105 316.719 140.401 314.285 142.517 309.863Z" fill="#9CA000"/>
<path d="M128.421 303.828C130.536 299.405 129.669 294.67 126.485 293.25C123.3 291.83 119.004 294.264 116.889 298.686C114.774 303.108 115.641 307.844 118.825 309.264C122.01 310.684 126.306 308.25 128.421 303.828Z" fill="#9CA000"/>
<path d="M127.946 303.602C129.865 299.643 129.26 295.481 126.595 294.306C123.929 293.13 120.212 295.387 118.292 299.346C116.373 303.305 116.978 307.467 119.643 308.642C122.309 309.817 126.026 307.561 127.946 303.602Z" fill="#CAE7EF"/>
<path d="M127.924 303.62C126.109 307.414 122.589 309.572 120.07 308.447C117.55 307.322 116.976 303.338 118.79 299.545C120.605 295.751 124.125 293.593 126.645 294.718C129.164 295.843 129.739 299.827 127.924 303.62Z" fill="white"/>
<path d="M126.606 302.941C125.408 305.442 123.09 306.865 121.431 306.121C119.766 305.381 119.39 302.75 120.587 300.253C121.785 297.751 124.103 296.329 125.762 297.073C127.421 297.816 127.803 300.444 126.606 302.941Z" fill="url(#paint7_linear_199_222)"/>
<path d="M125.749 302.605C126.611 300.827 126.339 298.958 125.142 298.43C123.945 297.902 122.276 298.916 121.413 300.694C120.551 302.472 120.823 304.342 122.02 304.869C123.217 305.397 124.886 304.384 125.749 302.605Z" fill="#590800"/>
<path d="M127.075 303.92C128.159 303.503 128.772 302.358 128.443 301.362C128.114 300.367 126.969 299.898 125.885 300.315C124.801 300.732 124.189 301.877 124.518 302.873C124.846 303.868 125.991 304.337 127.075 303.92Z" fill="white"/>
<path d="M123.666 302.664C123.481 303.047 123.05 303.234 122.703 303.078C122.355 302.922 122.225 302.488 122.405 302.104C122.586 301.72 123.019 301.539 123.369 301.69C123.716 301.846 123.846 302.28 123.666 302.664Z" fill="white"/>
<path d="M131.496 304.637C129.458 308.557 129.91 312.775 132.505 314.062C135.1 315.348 138.857 313.217 140.895 309.298C142.933 305.378 142.482 301.16 139.886 299.873C137.291 298.587 133.534 300.718 131.496 304.637Z" fill="#CAE7EF"/>
<path d="M131.481 304.628C129.539 308.358 129.97 312.378 132.441 313.608C134.914 314.834 138.492 312.803 140.429 309.071C142.372 305.34 141.94 301.32 139.47 300.09C136.997 298.865 133.419 300.895 131.481 304.628Z" fill="white"/>
<path d="M132.848 305.211C131.57 307.671 131.853 310.322 133.482 311.132C135.112 311.943 137.471 310.599 138.749 308.139C140.027 305.68 139.743 303.029 138.114 302.218C136.485 301.407 134.126 302.751 132.848 305.211Z" fill="url(#paint8_linear_199_222)"/>
<path d="M133.659 305.673C132.745 307.433 132.946 309.329 134.115 309.909C135.279 310.487 136.965 309.529 137.884 307.77C138.798 306.01 138.597 304.114 137.429 303.534C136.265 302.956 134.578 303.914 133.659 305.673Z" fill="#590800"/>
<path d="M137.083 307.345C136.547 308.377 136.867 309.585 137.796 310.044C138.729 310.505 139.918 310.043 140.453 309.015C140.988 307.988 140.669 306.775 139.741 306.316C138.808 305.855 137.618 306.317 137.083 307.345Z" fill="white"/>
<path d="M134.913 307.295C134.715 307.673 134.833 308.114 135.176 308.28C135.518 308.451 135.952 308.282 136.146 307.902C136.345 307.524 136.227 307.082 135.883 306.916C135.54 306.75 135.107 306.915 134.913 307.295Z" fill="white"/>
<path d="M124.8 321.227C124.8 321.227 124.8 321.227 124.791 321.224C122.373 321.138 119.691 320.592 117.18 319.128C112.181 316.212 112.31 311.85 112.87 309.434C112.885 309.394 112.892 309.374 112.892 309.374C112.892 309.374 117.791 313.075 121.028 316.801C124.259 320.53 124.806 321.224 124.806 321.224L124.8 321.227Z" fill="#8B1229"/>
<path d="M113.499 307.728L112.69 309.233C112.69 309.233 110.396 314.674 114.793 318.472C121.599 324.347 131.82 321.031 131.841 320.971C131.863 320.911 133.11 320.033 133.11 320.033C133.11 320.033 121.451 323.639 115.332 317.901C110.355 313.235 113.499 307.728 113.499 307.728Z" fill="#DCED00"/>
<path d="M131.804 343.526C131.804 343.526 126.938 335.228 120.242 332.256C113.537 329.281 108.037 334.271 108.037 334.271L106.813 333.846C106.813 333.846 104.484 324.055 108.507 310.543C112.53 297.03 116.14 288.05 117.266 287.591C117.848 287.354 120.607 286.086 124.556 285.443C123.895 285.606 118.464 287.312 113.455 300.696C108.11 314.978 108.288 324.581 114.1 327.865C119.908 331.147 121.484 330.13 126.998 335.785C132.426 341.353 131.728 344.049 131.804 343.526Z" fill="#9CA000"/>
<path d="M117.458 286.932C117.458 286.932 117.79 278.231 116.173 277.5C114.553 276.775 115.799 285.935 115.799 285.935C115.797 285.94 106.707 277.567 104.758 279.711C102.807 281.859 114.297 286.867 114.297 286.867C114.297 286.867 106.065 284.742 105.552 286.13C105.039 287.519 114.78 288.809 114.78 288.809L117.458 286.932Z" fill="#590800"/>
<path d="M144.861 314.581C144.861 314.581 142.563 329.581 142.497 330.406C142.431 331.231 143.414 332.107 144.294 332.464C145.175 332.82 146.4 333.021 146.333 333.328C146.264 333.639 144.85 333.365 144.053 333.068C143.255 332.772 142.914 332.249 142.914 332.249C142.914 332.249 143.136 332.975 143.863 333.421C144.772 333.976 146.049 333.978 146.14 334.17C146.232 334.357 145.029 334.73 143.803 334.286C142.909 333.963 142.507 333.495 142.507 333.495C142.507 333.495 142.681 334.189 143.476 334.641C144.271 335.094 145.073 335.02 145.245 335.362C145.416 335.705 143.968 335.894 143.11 335.448C142.25 335.007 141.191 332.762 141.191 332.762C141.191 332.762 141.582 334.208 141.475 334.733C141.367 335.259 140.735 335.459 140.735 335.459C140.735 335.459 140.861 334.514 140.631 333.645C140.401 332.776 141.51 330.807 141.584 330.481C141.658 330.155 141.42 321.279 141.42 321.279C141.42 321.279 144.252 314.843 144.861 314.581Z" fill="#B3CC00"/>
<path d="M110.484 302.486C110.484 302.486 102.477 315.595 101.99 316.28C101.502 316.965 100.16 317.071 99.2368 316.83C98.3182 316.59 97.2229 316.022 97.075 316.302C96.9253 316.587 98.2125 317.208 99.0308 317.447C99.8491 317.685 100.459 317.477 100.459 317.477C100.459 317.477 99.8102 317.915 98.9489 317.835C97.8743 317.732 96.872 316.979 96.6756 317.076C96.4808 317.168 97.18 318.171 98.4309 318.548C99.3416 318.823 99.9625 318.694 99.9625 318.694C99.9625 318.694 99.373 319.135 98.4542 319.019C97.5354 318.904 96.9554 318.372 96.5972 318.539C96.239 318.706 97.2499 319.71 98.2138 319.867C99.1758 320.03 101.473 318.898 101.473 318.898C101.473 318.898 100.222 319.799 99.9619 320.274C99.7022 320.749 100.066 321.28 100.066 321.28C100.066 321.28 100.586 320.465 101.335 319.92C102.083 319.375 102.501 317.178 102.656 316.878C102.811 316.579 108.801 309.766 108.801 309.766C108.801 309.766 110.79 303.051 110.484 302.486Z" fill="#9CA000"/>
<path d="M107.087 332.894C107.087 332.894 101.999 331.904 102.09 332.545C102.182 333.187 106.078 333.205 106.078 333.205C106.078 333.205 101.477 333.476 101.533 334.017C101.594 334.559 106.615 333.755 106.615 333.755C106.615 333.755 102.994 334.982 103.486 335.538C103.979 336.095 108.342 333.33 108.342 333.33L107.092 332.896L107.087 332.894Z" fill="#9CA000"/>
<path d="M132.847 318.912L131.778 319.745L128.609 322.202L128.863 318.701L128.89 318.301L128.229 318.435L126.06 318.876L124.696 316.767L124.623 316.653L124.464 316.645L123.329 316.588L122.58 315.539L122.312 315.159L121.476 314.759L119.837 313.981L119.796 313.424L119.782 313.235L119.307 313.005L117.193 311.985L117.128 310.978L117.11 310.687L116.865 310.712L113.006 311.103L114.424 308.106L114.68 307.563C114.68 307.563 115.68 309.826 120.449 313.596C126.51 318.392 132.831 318.912 132.831 318.912L132.847 318.912Z" fill="white"/>
<path d="M132.838 319.06L131.764 319.904C131.264 319.749 130.223 319.407 128.84 318.849L128.866 318.444L128.202 318.579C127.155 318.139 125.946 317.577 124.652 316.89L124.579 316.775L124.419 316.767C124.213 316.653 124.001 316.542 123.788 316.42C123.368 316.189 122.95 315.925 122.526 315.647L122.256 315.263L121.416 314.857C120.84 314.433 120.275 313.966 119.728 313.506L119.714 313.314L119.237 313.081C118.44 312.384 117.699 311.678 117.049 311.025L117.031 310.729L116.785 310.755C115.306 309.263 114.336 308.118 114.336 308.118L114.594 307.568C114.594 307.568 115.598 309.86 120.391 313.676C126.481 318.532 132.834 319.059 132.834 319.059L132.838 319.06Z" fill="#CAE7EF"/>
<path d="M112.665 313.174L114.78 312.407L113.458 315.465C113.458 315.465 112.776 313.99 112.665 313.174Z" fill="white"/>
<path d="M121.127 320.567L123.016 318.312L123.044 320.878C123.044 320.878 121.959 320.857 121.126 320.572L121.127 320.567Z" fill="white"/>
<path d="M128.141 321.035L127.231 322.78L128.891 321.694L128.944 320.944L128.141 321.035Z" fill="#9CA000"/>
<path opacity="0.43" d="M142.392 315.787C142.041 315.417 138.944 320.489 137.171 325.469C135.399 330.45 133.993 335.203 134.346 335.324C134.879 335.506 136.264 329.945 138.256 325.067C140.247 320.188 142.747 316.159 142.39 315.781L142.392 315.787Z" fill="white"/>
<path opacity="0.43" d="M143.64 313.099C143.061 314.096 142.72 314.979 142.883 315.077C143.041 315.172 143.644 314.441 144.221 313.449C144.799 312.458 145.141 311.57 144.979 311.472C144.82 311.376 144.218 312.108 143.64 313.099Z" fill="white"/>
<path d="M110.192 319.532C109.963 321.166 109.28 322.467 108.669 322.436C108.058 322.406 107.748 321.052 107.976 319.418C108.205 317.784 108.888 316.483 109.5 316.514C110.111 316.545 110.421 317.898 110.192 319.532Z" fill="#DCED00"/>
<path d="M110.46 319.556C110.231 321.19 109.548 322.492 108.937 322.461C108.326 322.43 108.015 321.076 108.244 319.442C108.473 317.809 109.156 316.507 109.767 316.538C110.378 316.569 110.689 317.923 110.46 319.556Z" fill="#7A7A00"/>
<path d="M134.157 325.18C133.596 326.398 133.497 327.54 133.937 327.732C134.377 327.925 135.188 327.092 135.749 325.874C136.31 324.656 136.409 323.514 135.969 323.322C135.529 323.129 134.718 323.963 134.157 325.18Z" fill="#DCED00"/>
<path d="M133.958 325.095C133.397 326.313 133.298 327.455 133.738 327.647C134.178 327.84 134.989 327.007 135.55 325.789C136.111 324.571 136.211 323.429 135.771 323.237C135.331 323.044 134.519 323.877 133.958 325.095Z" fill="#7A7A00"/>
<path d="M133.823 329.716C133.449 330.524 133.384 331.282 133.678 331.405C133.97 331.533 134.506 330.978 134.878 330.174C135.252 329.366 135.317 328.608 135.024 328.485C134.732 328.357 134.196 328.913 133.823 329.716Z" fill="#DCED00"/>
<path d="M133.696 329.656C133.321 330.464 133.256 331.222 133.55 331.345C133.842 331.473 134.378 330.917 134.75 330.114C135.125 329.306 135.19 328.548 134.896 328.425C134.604 328.297 134.068 328.852 133.696 329.656Z" fill="#7A7A00"/>
<path d="M110.574 324.301C110.456 325.146 110.104 325.812 109.789 325.797C109.473 325.781 109.313 325.083 109.431 324.238C109.549 323.392 109.901 322.726 110.216 322.742C110.532 322.757 110.692 323.455 110.574 324.301Z" fill="#DCED00"/>
<path d="M110.712 324.317C110.594 325.162 110.242 325.829 109.926 325.813C109.611 325.797 109.451 325.099 109.569 324.254C109.687 323.408 110.039 322.742 110.354 322.758C110.67 322.774 110.829 323.471 110.712 324.317Z" fill="#7A7A00"/>
<path d="M108.141 324.429C108.055 325.03 107.806 325.513 107.579 325.499C107.352 325.485 107.241 324.988 107.323 324.385C107.408 323.784 107.658 323.301 107.885 323.315C108.112 323.329 108.223 323.827 108.141 324.429Z" fill="#DCED00"/>
<path d="M108.238 324.442C108.152 325.043 107.903 325.526 107.676 325.511C107.449 325.497 107.338 325 107.419 324.397C107.505 323.796 107.754 323.313 107.981 323.328C108.208 323.342 108.319 323.839 108.238 324.442Z" fill="#7A7A00"/>
<path d="M108.286 314.154C108.096 314.757 107.764 315.2 107.544 315.144C107.324 315.089 107.296 314.555 107.483 313.945C107.673 313.342 108.005 312.899 108.225 312.954C108.445 313.01 108.473 313.544 108.286 314.154Z" fill="#DCED00"/>
<path d="M108.387 314.183C108.197 314.787 107.865 315.23 107.645 315.174C107.425 315.118 107.397 314.585 107.584 313.975C107.774 313.372 108.106 312.928 108.326 312.984C108.546 313.04 108.574 313.574 108.387 314.183Z" fill="#7A7A00"/>
<path d="M134.582 316.773C134.582 316.773 134.106 318.117 133.56 319.603C133.013 321.089 131.996 322.936 131.996 322.936C131.996 322.936 133.715 321.705 134.405 320.042C135.092 318.384 134.582 316.773 134.582 316.773Z" fill="#9CA000"/>
<path d="M116.333 305.141C116.333 305.141 114.394 306.496 113.418 307.471C112.443 308.446 110.982 310.316 110.982 310.316C110.982 310.316 111.744 307.388 113.165 306.165C114.54 304.982 116.333 305.141 116.333 305.141Z" fill="#9CA000"/>
<path d="M111.473 316.853C111.473 316.853 112.373 319.592 115.607 321.465C119.265 323.586 122.072 323.481 122.072 323.481C122.072 323.481 118.671 324.235 114.754 322.107C111.999 320.614 111.471 316.847 111.471 316.847L111.473 316.853Z" fill="#9CA000"/>
<path d="M136.718 342.086H-19V310.169C-17.521 309.7 -15.954 309.235 -14.2988 308.782C-5.23941 306.305 6.44118 304.2 20.8405 303.649C28.8111 303.347 37.6188 303.52 47.2729 304.376C83.7307 307.602 116.954 327.586 136.718 342.086Z" fill="url(#paint9_linear_199_222)"/>
<g style="mix-blend-mode:screen" opacity="0.34">
<path d="M136.718 342.086H130.573C122.879 336.469 109.188 327.061 98.2685 322.74C82.1542 316.362 69.7341 316.025 58.3179 310.991C46.9047 305.953 31.7974 306.289 23.402 305.619C15.0097 304.946 5.944 306.289 -2.78498 308.303C-7.35086 309.357 -13.8457 311.604 -19 313.508V310.169C-17.521 309.7 -15.954 309.235 -14.2988 308.782C-5.23941 306.305 6.44118 304.2 20.8405 303.649C28.8111 303.347 37.6188 303.52 47.2729 304.376C83.7307 307.602 116.954 327.586 136.718 342.086Z" fill="white"/>
</g>
<path style="mix-blend-mode:multiply" opacity="0.46" d="M99.5366 342.086H-19V310.169C-17.521 309.7 -15.954 309.235 -14.2988 308.782C-14.5096 309.424 -14.604 310.103 -14.5568 310.811C-14.3869 313.278 -12.4202 315.333 -10.1577 316.331C-7.8984 317.328 -5.36215 317.467 -2.89198 317.57C10.0725 318.121 23.0621 318.121 36.0265 317.57C37.6565 317.501 39.3463 317.432 40.8662 318.023C42.3892 318.615 43.7108 320.056 43.6133 321.686C43.4748 324.053 40.5987 325.604 40.5641 327.977C40.5421 329.487 41.7693 330.79 43.1759 331.34C44.5856 331.891 46.1432 331.85 47.6536 331.797C59.7905 331.366 71.9368 330.598 84.0674 331.202C87.1008 331.35 90.1877 331.602 93.004 332.741C95.8204 333.88 98.366 336.054 99.244 338.962C99.5524 339.981 99.6373 341.039 99.5366 342.086Z" fill="url(#paint10_linear_199_222)"/>
<path d="M90.6843 292.308C89.3691 293.209 88.2713 294.931 88.9373 296.401L89.7791 298.258C90.232 299.256 91.5211 299.54 92.1806 298.681C92.7518 297.937 93.2294 297.119 93.6003 296.245C94.5674 293.814 94.861 289.416 93.7737 289.328C93.7697 289.328 93.7658 289.326 93.762 289.325C93.7581 289.324 93.7538 289.324 93.7498 289.324C92.6449 289.288 92.0325 291.29 90.6843 292.308Z" fill="#FFBF59"/>
<path opacity="0.13" d="M90.4139 297.673C90.0998 298.042 89.9501 298.574 90.1521 299.021C90.4285 299.632 91.2162 299.808 91.6579 299.314C92.4676 298.408 93.1266 297.368 93.6063 296.235C93.9072 295.477 94.1426 294.526 94.2911 293.576C94.6856 291.049 93.5364 291.285 92.6151 293.663C92.4188 294.17 92.2025 294.669 91.9665 295.159C91.3246 296.451 90.8017 297.218 90.4139 297.673Z" fill="#590800"/>
<path d="M60.4234 291.316C60.4977 291.633 60.5654 291.908 60.6307 292.143C60.7453 292.556 60.8456 292.857 60.9245 293.072C61.0186 293.364 61.3468 293.484 61.6359 293.39L66.1377 291.926C66.3946 291.842 66.4407 291.493 66.2201 291.331C65.342 290.72 64.5497 289.99 63.8661 289.161C63.372 288.406 62.8328 287.682 62.2518 286.993C62.1209 286.824 61.9537 286.687 61.7632 286.594C61.5728 286.5 61.3644 286.453 61.1545 286.455C60.1966 286.565 60.0046 289.512 60.4234 291.316Z" fill="#FFBF59"/>
<path opacity="0.13" d="M60.9164 291.889C60.7503 292.054 60.6896 292.363 60.7599 292.589C60.8566 292.899 61.1691 292.994 61.476 292.893L63.2035 292.325C64.4493 291.915 64.7096 290.184 63.866 289.161C63.8491 289.135 63.8322 289.11 63.8153 289.084C63.3046 288.311 62.1485 288.661 62.0118 289.569C61.9617 290.073 61.8137 290.56 61.5765 291.002C61.4005 291.33 61.1779 291.628 60.9164 291.889Z" fill="#590800"/>
<path d="M56.4022 321.906C58.1164 321.861 58.7257 320.297 57.3633 319.237C55.6126 317.874 53.4671 316.201 52.9586 315.789C52.0666 315.067 51.8217 314.698 49.4423 312.866C48.1706 311.888 46.4288 311.533 46.3114 311.788C46.194 312.042 47.2532 312.28 47.7681 312.593C47.9386 312.698 47.8078 312.919 47.618 312.857C47.3331 312.763 47.0432 312.684 46.7496 312.621C45.2859 312.236 44.6986 312.4 44.691 312.664C44.6833 312.928 45.5857 312.961 46.6248 313.307C46.6333 313.31 46.6418 313.312 46.6503 313.315C46.8119 313.368 46.701 313.721 46.5316 313.72C45.2054 313.624 44.6687 313.599 44.6573 313.911C44.646 314.224 45.9277 314.267 46.4426 314.41C46.483 314.421 46.5271 314.433 46.5741 314.445C46.6718 314.47 46.643 314.707 46.5424 314.708C45.9533 314.726 45.2098 314.696 45.1425 314.956C45.0751 315.216 46.232 315.271 46.7629 315.367C47.2937 315.463 48.4821 315.618 48.5586 315.733C48.6351 315.848 48.0225 316.346 47.5555 316.401C47.0885 316.455 46.7875 316.643 46.8794 316.882C46.9713 317.122 47.9265 316.953 48.5383 316.791C49.1502 316.63 50.6414 316.006 50.8452 316.063C50.9867 316.103 53.0869 318.902 54.3583 320.611C54.9656 321.428 55.3912 321.933 56.4022 321.906Z" fill="#B70400"/>
<path d="M87.757 317.019C87.7162 318.71 89.2522 319.436 90.3907 318.197C91.8796 316.576 93.7271 314.569 94.1768 314.098C94.9589 313.279 95.351 313.069 97.3443 310.873C98.4097 309.701 98.8641 308.008 98.6114 307.869C98.3587 307.731 98.057 308.758 97.7129 309.24C97.5955 309.402 97.3792 309.249 97.454 309.064C97.5638 308.792 97.6587 308.514 97.738 308.23C98.2078 306.816 98.072 306.22 97.8035 306.189C97.5349 306.158 97.4529 307.049 97.0453 308.046C97.0414 308.056 97.0375 308.066 97.0336 308.075C96.9697 308.233 96.6183 308.088 96.6286 307.918C96.7963 306.614 96.8513 306.085 96.5326 306.046C96.214 306.007 96.1028 307.272 95.9301 307.77C95.9165 307.809 95.9021 307.852 95.8871 307.898C95.855 307.995 95.6148 307.945 95.6201 307.842C95.6321 307.258 95.7033 306.524 95.4414 306.435C95.1795 306.346 95.0626 307.486 94.9363 308.003C94.81 308.521 94.5885 309.682 94.4671 309.748C94.3457 309.814 93.8703 309.164 93.8402 308.697C93.8101 308.23 93.6346 307.915 93.3883 307.986C93.1419 308.056 93.2607 309.016 93.3929 309.636C93.525 310.256 94.0811 311.786 94.0128 311.983C93.9656 312.119 91.0195 313.939 89.207 315.049C88.3315 315.585 87.7818 315.989 87.757 317.019Z" fill="url(#paint11_linear_199_222)"/>
<path opacity="0.5" d="M87.9924 316.358C88.0495 317.09 88.954 317.415 89.4531 316.882C90.1257 316.164 89.205 315.065 88.3732 315.593C88.1145 315.757 87.9684 316.05 87.9924 316.358Z" fill="#B70400"/>
<path d="M55.6668 323.553C56.4701 328.135 57.9294 332.946 58.4171 338.586C58.8212 343.258 61.691 347.364 62.6646 348.636C62.8642 348.897 63.1784 349.033 63.5041 349.017L64.4296 348.971C64.49 348.969 64.5369 348.917 64.5395 348.857C64.5396 348.205 64.6341 344.774 66.2465 342.109C68.0362 339.158 77.0988 340.864 79.2615 342.709C81.1858 344.351 84.2365 348.569 84.8858 349.48C84.9688 349.596 85.0776 349.687 85.2064 349.748C85.6336 349.953 86.1315 349.759 86.2706 349.312C86.9258 347.206 88.4745 341.089 87.8392 331.936C87.042 320.449 89.5986 316.549 90.5484 308.389C91.0056 304.449 90.8656 299.753 88.8857 295.959C88.8855 295.959 88.8852 295.959 88.885 295.958L88.8847 295.958C88.8843 295.957 88.8839 295.957 88.8837 295.956C88.8836 295.955 88.8835 295.955 88.8836 295.954L88.8837 295.953C88.8837 295.953 88.8838 295.952 88.884 295.952C88.8846 295.951 88.8846 295.95 88.8841 295.949C88.8813 295.944 88.8785 295.941 88.8769 295.937C88.8755 295.934 88.8747 295.93 88.8729 295.927C87.1295 292.608 83.9745 289.98 78.5718 289.163C77.6635 289.028 76.7492 288.945 75.8334 288.915C75.4595 288.902 75.0802 288.893 74.6892 288.897C65.3469 288.933 59.2246 293.027 58.214 294.431C58.1447 294.516 58.0949 294.616 58.0681 294.723C57.9092 295.708 58.0934 297.147 59.0443 299.964C59.9951 302.781 59.699 307.729 56.8718 312.442C54.0447 317.155 54.8591 318.97 55.6668 323.553Z" fill="url(#paint12_linear_199_222)"/>
<path d="M76.9972 317.836C73.0108 318.031 69.4953 313.766 69.1452 308.31C68.7951 302.854 71.7429 298.273 75.7294 298.078C79.7158 297.883 83.2312 302.148 83.5813 307.604C83.9314 313.06 80.9836 317.641 76.9972 317.836Z" fill="#B70400"/>
<path d="M59.5772 306.798C59.6479 308.362 60.2326 309.864 61.2376 311.066C61.5057 311.37 61.9017 311.512 62.3038 311.538C62.3463 311.541 62.3893 311.544 62.4327 311.547L62.6497 311.56L62.6539 311.56C63.0326 311.589 63.4435 311.631 63.8829 311.686C64.2831 311.736 64.6374 311.784 64.9647 311.828C65.1703 311.855 65.3605 311.882 65.5388 311.905C65.7539 311.932 65.9742 311.89 66.1438 311.759C66.223 311.697 66.2996 311.632 66.3736 311.565C67.5724 310.476 68.3003 308.543 68.1613 306.378C67.9523 303.12 65.8607 300.572 63.494 300.687C61.1274 300.803 59.3681 303.541 59.5772 306.798Z" fill="#B70400"/>
<path d="M76.6974 316.913C73.191 317.065 70.0593 313.187 69.7027 308.25C69.3461 303.314 71.8995 299.189 75.406 299.036C78.9124 298.884 82.044 302.762 82.4007 307.698C82.7573 312.635 80.2038 316.76 76.6974 316.913Z" fill="#CAE7EF"/>
<path d="M76.3585 316.506C73.0184 316.651 70.0353 312.957 69.6956 308.255C69.356 303.552 71.7883 299.623 75.1284 299.478C78.4685 299.333 81.4516 303.027 81.7912 307.729C82.1309 312.431 79.6986 316.36 76.3585 316.506Z" fill="white"/>
<path d="M73.6877 312.96C71.7916 313.042 70.0983 310.945 69.9055 308.276C69.7126 305.607 71.0933 303.376 72.9894 303.294C74.8854 303.211 76.5787 305.308 76.7716 307.977C76.9644 310.647 75.5837 312.877 73.6877 312.96Z" fill="url(#paint13_linear_199_222)"/>
<path d="M70.333 308.263C70.471 310.173 71.6824 311.673 73.0391 311.614C74.3957 311.555 75.3831 309.959 75.2452 308.05C75.1072 306.14 73.8957 304.64 72.5395 304.699C71.1833 304.758 70.1951 306.354 70.333 308.263Z" fill="#590800"/>
<path d="M76.8018 309.954C75.7238 310 74.7846 309.137 74.7041 308.025C74.6236 306.913 75.4322 305.974 76.5102 305.928C77.5882 305.881 78.5274 306.744 78.6079 307.856C78.6884 308.968 77.8798 309.907 76.8018 309.954Z" fill="white"/>
<path d="M73.6225 309.798C73.228 309.815 72.8843 309.499 72.8549 309.092C72.8254 308.685 73.1213 308.342 73.5158 308.324C73.9102 308.307 74.2539 308.623 74.2834 309.03C74.3128 309.437 74.0169 309.781 73.6225 309.798Z" fill="white"/>
<path d="M60.6333 307.402C60.6622 307.802 60.7264 308.199 60.8253 308.588C61.0262 309.458 61.4265 310.272 61.9923 310.961C62.1325 311.128 62.2853 311.284 62.4494 311.427C62.554 311.518 62.6867 311.568 62.8235 311.577L62.8272 311.576C63.1946 311.608 63.5928 311.649 64.0184 311.706C64.4061 311.756 64.7511 311.803 65.0663 311.848C65.4288 311.897 65.8042 311.848 66.0846 311.624C66.1358 311.583 66.1857 311.54 66.2342 311.496C67.2371 310.592 67.836 308.942 67.7026 307.096C67.5039 304.347 65.763 302.188 63.8081 302.273C62.1526 302.344 60.8829 304.006 60.6555 306.188C60.6107 306.59 60.6033 306.996 60.6333 307.402Z" fill="#CAE7EF"/>
<path d="M60.6292 307.404C60.6579 307.803 60.7222 308.2 60.8212 308.59C61.0338 309.466 61.4601 310.278 62.0589 310.947C62.2844 311.189 62.5388 311.401 62.8157 311.576C62.8177 311.577 62.8201 311.578 62.8225 311.578C63.1898 311.609 63.5878 311.65 64.0133 311.707C64.0291 311.709 64.0447 311.711 64.0603 311.713C64.7179 311.798 65.4228 311.777 65.9099 311.346C66.7324 310.569 67.2403 309.499 67.3375 308.338C67.3642 308.113 67.3787 307.887 67.381 307.661L67.3807 307.656C67.3829 307.476 67.3777 307.296 67.3644 307.111C67.1755 304.496 65.5145 302.44 63.6549 302.521C62.0943 302.588 60.8882 304.141 60.6523 306.189C60.6071 306.591 60.5993 306.998 60.6292 307.404Z" fill="white"/>
<path d="M63.4722 307.789C63.5795 309.274 64.5221 310.441 65.5771 310.395C66.6321 310.35 67.4003 309.108 67.293 307.623C67.1857 306.138 66.2435 304.971 65.1885 305.017C64.1335 305.063 63.3649 306.304 63.4722 307.789Z" fill="url(#paint14_linear_199_222)"/>
<path d="M64.3882 307.858C64.465 308.921 65.1392 309.755 65.894 309.722C66.6488 309.69 67.1985 308.801 67.1217 307.739C67.045 306.676 66.3707 305.842 65.616 305.874C64.8612 305.907 64.3115 306.795 64.3882 307.858Z" fill="#590800"/>
<path d="M65.6116 307.907C65.6253 308.096 65.6931 308.278 65.8062 308.431C65.9194 308.584 66.0729 308.7 66.2475 308.765C66.422 308.83 66.6096 308.841 66.7866 308.796C66.9636 308.751 67.1221 308.653 67.242 308.514C67.3619 308.375 67.4378 308.201 67.4601 308.014C67.4824 307.827 67.4501 307.635 67.3674 307.464C67.2846 307.292 67.1551 307.148 66.9952 307.05C66.8352 306.952 66.652 306.903 66.4688 306.911C66.2231 306.922 65.9948 307.033 65.834 307.219C65.6733 307.406 65.5933 307.653 65.6116 307.907Z" fill="white"/>
<path d="M64.4958 308.517C64.5018 308.598 64.5309 308.676 64.5795 308.741C64.6281 308.806 64.6941 308.856 64.769 308.884C64.844 308.912 64.9245 308.916 65.0005 308.897C65.0765 308.878 65.1445 308.836 65.1959 308.776C65.2474 308.716 65.2799 308.642 65.2895 308.562C65.299 308.481 65.2852 308.399 65.2496 308.326C65.2141 308.252 65.1585 308.191 65.0898 308.149C65.0212 308.106 64.9425 308.086 64.8639 308.089C64.8116 308.091 64.7606 308.104 64.7138 308.127C64.667 308.15 64.6253 308.182 64.5912 308.221C64.557 308.261 64.531 308.308 64.5146 308.358C64.4982 308.409 64.4918 308.463 64.4958 308.517Z" fill="white"/>
<path d="M67.0771 301.925C67.2382 301.989 67.3845 301.842 67.3048 301.688C66.9245 300.951 65.8921 299.323 63.6146 297.798C61.9181 296.661 60.5542 296.026 59.6743 295.685C59.3518 295.56 59.1512 295.904 59.397 296.148C59.64 296.39 59.4305 296.795 59.0953 296.732L58.4064 296.602C58.0184 296.53 57.6846 296.865 57.8078 297.24C58.0636 298.019 58.4724 298.742 59.0122 299.365C60.2714 300.708 63.9791 301.127 66.0607 302.453C66.1904 302.536 66.3185 302.621 66.445 302.708C66.6827 302.872 67.0202 302.605 66.8953 302.345L66.8233 302.195C66.7438 302.03 66.9068 301.856 67.0771 301.925Z" fill="#590800"/>
<path d="M69.9195 301.793C69.681 302.434 70.3467 302.862 70.939 302.521C72.1202 301.84 73.3844 301.312 74.7031 300.95C76.5544 300.526 79.0602 300.171 80.4457 299.99C80.7191 299.955 80.7648 299.574 80.5076 299.469C80.2942 299.382 80.2734 299.076 80.4542 298.938C80.7228 298.733 80.9586 298.485 81.1525 298.203C81.9763 297.14 80.712 295.753 79.3862 296.018C78.4405 296.208 77.3418 296.431 76.1987 296.672C72.678 297.414 70.6446 299.304 69.9012 300.127C69.7686 300.273 69.8896 300.487 70.0877 300.467C70.2695 300.449 70.4049 300.641 70.3296 300.806C70.2153 301.057 70.0627 301.409 69.9195 301.793Z" fill="#590800"/>
<path opacity="0.88" d="M63.0462 341.941C62.9696 343.543 65.4436 343.424 66.2685 342.06C68.0567 339.11 77.1121 340.816 79.2731 342.661C81.1959 344.302 84.2443 348.519 84.8929 349.429C84.9758 349.545 85.0844 349.636 85.2131 349.698C85.6399 349.902 86.1376 349.709 86.2765 349.262C86.9312 347.156 88.4787 341.041 87.8439 331.89C87.0474 320.406 89.6018 316.507 90.5509 308.35C90.7355 306.758 89.712 306.945 89.3916 308.513C89.0874 310.002 88.613 311.497 87.9052 312.919C84.171 320.421 82.3819 335.739 77.0595 337.171C71.7371 338.603 66.7445 336.506 64.1027 339.107C63.3953 339.803 63.0997 340.822 63.0462 341.941Z" fill="#B70400"/>
<path opacity="0.5" d="M66.8558 329.318C67.5255 329.366 68.4877 330.858 67.8705 331.111C67.5374 331.247 67.1787 331.345 66.7952 331.386C66.2242 331.448 65.6957 331.41 65.2072 331.295C65.0297 331.254 66.6743 329.305 66.8558 329.318Z" fill="#B70400"/>
<path d="M64.375 329.349C65.1681 329.593 64.9955 328.765 64.2091 328.5C63.8714 328.39 63.2335 328.885 63.5561 329.035C63.6449 329.077 63.7358 329.117 63.8287 329.154C64.0116 329.229 64.1938 329.294 64.375 329.349Z" fill="#5B1800"/>
<path opacity="0.43" d="M62.6892 327.079C63.3585 327.649 63.4942 326.569 62.8716 325.948C62.2016 325.269 61.6583 324.484 61.259 323.632C61.088 323.267 60.559 323.322 60.6671 323.709C60.9596 324.757 61.4734 325.731 62.1724 326.563C62.3351 326.753 62.5081 326.924 62.6892 327.079Z" fill="white"/>
<path opacity="0.43" d="M60.2592 319.646C60.2529 320.062 60.34 320.402 60.4532 320.406C60.5664 320.41 60.6628 320.076 60.6696 319.66C60.6764 319.243 60.589 318.905 60.4756 318.899C60.3622 318.893 60.2646 319.23 60.2592 319.646Z" fill="white"/>
<path d="M68.2772 314.038C68.7965 314.214 69.313 313.789 69.2378 313.248C69.1432 312.568 68.2539 312.36 67.8831 312.931C67.6213 313.334 67.8161 313.882 68.2772 314.038Z" fill="white"/>
<path d="M58.6782 313.058C58.9925 312.978 59.1592 312.638 59.0321 312.337C58.8272 311.852 58.1228 311.909 58.0131 312.419C57.9291 312.81 58.2905 313.157 58.6782 313.058Z" fill="white"/>
<path d="M65.4219 314.287C66.6742 314.46 67.1156 313.583 65.8775 313.322C65.7687 313.299 65.6598 313.277 65.5508 313.256C60.671 312.321 58.5869 312.829 57.8927 313.107C57.7222 313.176 57.678 313.372 57.7737 313.531L58.5591 314.836C58.721 315.104 59.1278 314.902 59.0055 314.613C58.9567 314.499 59.0003 314.371 59.1167 314.329C59.6479 314.136 61.358 313.725 65.4219 314.287Z" fill="#590800"/>
<path d="M66.0245 300.716C66.155 300.739 66.2382 300.586 66.1477 300.489C65.5841 299.882 64.9858 299.31 64.356 298.774C63.5901 298.172 62.7638 297.655 61.8921 297.232C61.7428 297.159 61.6071 297.331 61.7072 297.463C61.7959 297.58 61.6958 297.743 61.5516 297.717C61.3529 297.681 61.2491 298.04 61.4328 298.125C62.0338 298.404 62.6223 298.712 63.1963 299.047C64.0872 299.588 64.9039 300.246 65.6247 301.003C65.7223 301.106 65.8995 301.013 65.8642 300.877C65.8401 300.784 65.9195 300.698 66.0144 300.714L66.0245 300.716Z" fill="#8C130D"/>
<path d="M71.3739 299.524C71.2422 299.57 71.1437 299.411 71.2478 299.319C72.2501 298.434 73.4267 297.772 74.7042 297.377C76.3023 296.873 77.9355 296.487 79.591 296.224C79.7677 296.195 79.8425 296.43 79.6821 296.508C79.5134 296.59 79.6078 296.846 79.7909 296.804L80.0093 296.752C80.2094 296.705 80.3114 296.951 80.1299 297.046C79.1546 297.558 78.1191 297.946 77.0455 298.202C75.2347 298.766 73.4747 299.481 71.7829 300.337C71.5584 300.451 71.3069 300.215 71.4107 299.986L71.5384 299.704C71.5859 299.599 71.4831 299.487 71.3739 299.524Z" fill="#8C130D"/>
<path d="M61.322 311.06C61.0726 311.127 61.145 311.48 61.404 311.485C61.5163 311.488 61.6348 311.491 61.7592 311.496C61.9848 311.504 62.2324 311.516 62.4993 311.535C62.569 311.54 62.6414 311.544 62.7134 311.548L62.7172 311.548C63.0919 311.578 63.4979 311.617 63.9317 311.672C64.327 311.721 64.6787 311.767 65 311.811C65.2032 311.837 65.3917 311.864 65.5678 311.887C65.6853 311.902 65.7943 311.916 65.8963 311.931C66.0142 311.948 66.1239 311.963 66.2257 311.978C66.5139 312.019 66.6499 311.688 66.3922 311.55C66.332 311.517 66.2675 311.48 66.1967 311.444C66.0991 311.393 65.9883 311.342 65.8728 311.291C65.2973 311.037 64.6908 310.869 64.0719 310.792C63.3594 310.717 62.6417 310.757 61.9448 310.91L61.8722 310.925C61.6766 310.967 61.4933 311.012 61.322 311.06Z" fill="#B70400"/>
<path d="M85.9531 314C85.855 315.506 86.2456 316.776 86.8256 316.836C87.4056 316.897 87.9556 315.724 88.0542 314.218C88.1527 312.712 87.7621 311.442 87.1821 311.382C86.6022 311.322 86.0516 312.493 85.9531 314Z" fill="#FF5B57"/>
<path d="M85.7102 313.979C85.6117 315.485 86.0024 316.755 86.5823 316.815C87.1623 316.875 87.7128 315.703 87.8114 314.197C87.9099 312.691 87.5193 311.421 86.9388 311.361C86.3584 311.3 85.8086 312.47 85.7102 313.979Z" fill="#8C0000"/>
<path d="M84.9288 326.634C84.8633 327.632 85.1223 328.474 85.5068 328.514C85.8913 328.553 86.2559 327.777 86.3214 326.779C86.3869 325.78 86.1274 324.938 85.7433 324.898C85.3593 324.858 84.9943 325.635 84.9288 326.634Z" fill="#FF5B57"/>
<path d="M84.7382 326.634C84.6727 327.632 84.9318 328.474 85.3163 328.514C85.7008 328.554 86.0658 327.777 86.1308 326.779C86.1959 325.781 85.9373 324.938 85.5528 324.898C85.1683 324.858 84.8037 325.636 84.7382 326.634Z" fill="#8C0000"/>
<path d="M85.6027 332.947C85.5372 333.946 85.7967 334.788 86.1808 334.828C86.5648 334.867 86.9298 334.091 86.9953 333.092C87.0608 332.093 86.8018 331.251 86.4173 331.212C86.0328 331.172 85.6682 331.949 85.6027 332.947Z" fill="#FF5B57"/>
<path d="M85.4168 332.958C85.3514 333.956 85.6104 334.798 85.9949 334.838C86.3793 334.878 86.7439 334.101 86.8089 333.102C86.874 332.104 86.6154 331.262 86.2314 331.222C85.8474 331.182 85.4823 331.959 85.4168 332.958Z" fill="#8C0000"/>
<path d="M83.4683 330.334C83.4253 331.009 83.5993 331.578 83.8595 331.605C84.1196 331.632 84.3655 331.107 84.4094 330.432C84.4533 329.757 84.2789 329.189 84.0187 329.162C83.7586 329.135 83.5122 329.66 83.4683 330.334Z" fill="#FF5B57"/>
<path d="M83.3428 330.341C83.2997 331.016 83.4737 331.585 83.7334 331.612C83.9931 331.639 84.2394 331.114 84.2838 330.439C84.3282 329.764 84.1533 329.196 83.8932 329.169C83.633 329.142 83.3867 329.667 83.3428 330.341Z" fill="#8C0000"/>
<path d="M88.6826 300.815C88.8113 301.484 89.1223 301.989 89.3777 301.944C89.6331 301.899 89.7357 301.321 89.6073 300.65C89.479 299.979 89.1677 299.476 88.9123 299.521C88.657 299.566 88.5545 300.147 88.6826 300.815Z" fill="#FF5B57"/>
<path d="M88.5628 300.855C88.691 301.524 89.0024 302.029 89.2574 301.985C89.5123 301.94 89.6159 301.361 89.4875 300.691C89.3592 300.02 89.0479 299.516 88.7925 299.561C88.5372 299.606 88.4347 300.188 88.5628 300.855Z" fill="#8C0000"/>
<path d="M82.5336 320.583C82.3868 322.825 82.9685 324.718 83.8324 324.806C84.6963 324.894 85.5158 323.151 85.662 320.907C85.8083 318.664 85.2271 316.773 84.3632 316.684C83.4993 316.596 82.6799 318.34 82.5336 320.583Z" fill="#FF5B57"/>
<path d="M82.1626 320.551C82.0158 322.793 82.5979 324.686 83.4618 324.774C84.3258 324.863 85.1448 323.119 85.292 320.876C85.4391 318.633 84.8566 316.741 83.9927 316.653C83.1288 316.564 82.3093 318.308 82.1626 320.551Z" fill="#8C0000"/>
<path d="M87.6829 306.513C87.5794 308.091 87.989 309.423 88.597 309.486C89.2049 309.549 89.7815 308.321 89.8849 306.742C89.9883 305.164 89.5787 303.833 88.9708 303.77C88.3628 303.707 87.7866 304.939 87.6829 306.513Z" fill="#FF5B57"/>
<path d="M87.4241 306.52C87.3206 308.098 87.7297 309.429 88.3382 309.492C88.9466 309.555 89.5222 308.327 89.6256 306.749C89.7291 305.171 89.3195 303.839 88.7115 303.776C88.1036 303.713 87.527 304.941 87.4241 306.52Z" fill="#8C0000"/>
<path opacity="0.26" d="M65.0892 290.638C61.6156 291.867 62.5807 295.309 66.279 295.211C67.982 295.165 69.6815 295.013 71.3678 294.754C74.9386 294.153 77.6247 293.1 79.4468 292.172C80.7952 291.485 80.4858 289.747 79.0278 289.29C78.9314 289.26 78.8329 289.237 78.7331 289.222C77.8634 289.097 76.9885 289.019 76.1122 288.99C75.7339 288.977 75.3503 288.968 74.9546 288.972C71.0724 288.986 67.7397 289.701 65.0892 290.638Z" fill="white"/>
<path d="M75.5353 289.335C78.1327 289.529 80.1928 286.1 77.9076 284.823C74.2777 282.905 71.5549 282.505 70.0776 282.463C69.6832 282.452 69.6157 282.886 69.9765 283.051L70.4488 283.267C70.8192 283.436 70.6278 284.162 70.2227 284.157C69.1726 284.122 68.3971 284.178 67.842 284.26C67.3831 284.328 67.4022 284.792 67.8512 284.919L70.1648 285.574C70.4948 285.668 70.4147 286.384 70.0772 286.432C69.0908 286.478 69.0092 287.668 69.9049 288.098L71.7446 288.981C72.0126 289.11 72.3005 289.178 72.596 289.185C73.1649 289.2 74.2342 289.238 75.5353 289.335Z" fill="#590800"/>
<path d="M1.67494 332.291L-6.50337 333.7C-6.50337 333.7 -15.8082 304.093 -16.6547 290.842C-16.6578 290.795 -16.661 290.748 -16.6641 290.704V290.7C-17.1298 282.173 -8.7218 303.791 -3.13324 318.955C-0.389307 326.4 1.67494 332.291 1.67494 332.291Z" fill="url(#paint15_linear_199_222)"/>
<g style="mix-blend-mode:multiply" opacity="0.46">
<path d="M1.67494 332.291L-6.50336 333.7C-6.50336 333.7 -15.8082 304.093 -16.6547 290.842C-16.6578 290.795 -16.6609 290.748 -16.6641 290.704C-14.839 298.199 -11.1007 312.907 -8.17112 320.276C-6.0408 325.638 -4.30066 322.813 -3.13323 318.955C-0.389297 326.4 1.67494 332.291 1.67494 332.291Z" fill="#4194F2"/>
</g>
<path d="M26.27 250.888C26.27 250.888 25.2536 260.055 24.2341 260.87C23.2146 261.685 20.1623 270.442 20.1623 270.442C20.1623 270.442 18.9382 279.199 18.1232 281.641C17.6008 283.211 15.1464 288.636 13.4598 292.324C13.4598 292.356 13.4598 292.384 13.4629 292.415C13.4661 292.51 13.4661 292.604 13.4692 292.702C13.7681 306.689 14.6901 344.481 14.6901 344.481L4.13291 344.616L0.476429 344.663L-6.35508 344.748L-2.48463 280.537C-2.48463 280.537 -5.92083 273.925 -6.44948 272.607C-6.97813 271.285 -8.56093 260.977 -8.56093 259.394C-8.56093 258.585 -10.622 255.099 -12.6422 251.873C-14.5806 248.774 -16.4875 245.916 -16.4875 245.916L-21.7771 239.84L-26 230.063L-25.6224 229.607L-24.6847 228.477L-19.9237 236.665C-19.9237 236.665 -8.8284 248.824 -7.50363 249.881C-6.18831 250.939 -3.28074 260.715 -3.01327 261.773C-2.78986 262.682 0.769075 270.247 1.75714 272.336C1.91763 272.673 2.00887 272.868 2.00887 272.868L2.02776 272.437L3.3242 241.955V215.79L4.60177 215.551L6.41427 215.214L7.55653 215L10.055 236.221C10.055 236.221 10.0708 236.203 10.0959 236.171H10.0991C10.6214 235.539 15.6971 229.409 15.9488 228.654C16.2131 227.864 16.5404 220.022 16.5404 220.022L18.3057 218.474L18.6518 218.169C18.6518 218.169 19.7091 224.248 19.9766 225.57C20.2378 226.891 18.1232 233.764 17.3334 234.821C16.6159 235.775 11.3452 242.581 10.3571 243.858C10.2533 243.994 10.1966 244.066 10.1966 244.066C10.1966 244.066 10.4641 247.575 10.8134 251.861C11.32 258.028 11.9997 265.81 12.3144 267.059C12.5252 267.912 12.7392 271.024 12.9217 274.592L14.3157 273.617L17.1068 271.66L19.3473 260.662C19.3473 260.662 21.5846 259.444 22.3996 259.032C23.2146 258.629 23.825 250.275 23.825 250.275L25.5054 250.696L26.27 250.888Z" fill="url(#paint16_linear_199_222)"/>
<g style="mix-blend-mode:overlay" opacity="0.45">
<path d="M26.27 250.888C26.27 250.888 25.2536 260.055 24.2341 260.87C23.2146 261.685 20.1622 270.442 20.1622 270.442C20.1622 270.442 19.3598 278.752 18.5448 281.194C18.0225 282.764 15.1464 288.636 13.4598 292.324C13.4598 292.356 13.4598 292.384 13.4629 292.415C12.4465 289.413 13.7807 284.133 14.5957 283.271C15.631 282.176 18.9822 274.133 19.2875 273.4C19.5927 272.67 19.2875 272.242 19.1647 271.207C19.042 270.171 21.1755 266.757 21.2982 266.21C21.4209 265.662 20.8105 264.016 20.7507 263.101C20.6878 262.188 23.2492 260.848 23.7967 260.055C24.3442 259.262 24.4072 258.167 24.6495 256.949C24.8509 255.942 25.3417 252.034 25.5054 250.696L26.27 250.888Z" fill="white"/>
</g>
<g style="mix-blend-mode:overlay" opacity="0.45">
<path d="M17.3334 234.821C16.6159 235.775 11.3452 242.581 10.3571 243.859C9.97634 243.305 9.76551 242.622 9.7718 241.952C9.78754 240.592 10.549 239.334 11.5371 238.402C12.1539 237.817 12.8619 237.335 13.4535 236.725C14.1741 235.982 14.6996 235.076 15.2156 234.179C16.0715 232.694 16.9274 231.212 17.7802 229.727C18.0539 229.252 18.334 228.761 18.3969 228.216C18.4504 227.738 18.3277 227.25 18.3875 226.772C18.463 226.152 18.828 225.608 19.0074 225.01C19.6367 222.889 17.8526 220.513 18.3057 218.474L18.6518 218.169C18.6518 218.169 19.7091 224.248 19.9766 225.57C20.2378 226.891 18.1232 233.764 17.3334 234.821Z" fill="white"/>
</g>
<g style="mix-blend-mode:overlay" opacity="0.45">
<path d="M1.75713 272.336C1.06486 272.547 0.359991 271.748 0.00126648 271.049C-2.37765 266.417 -3.93212 261.42 -5.83903 256.578C-6.55648 254.756 -7.32743 252.953 -8.17704 251.187C-8.5515 250.407 -8.94798 249.63 -9.50495 248.966C-10.3262 247.987 -11.4465 247.314 -12.4723 246.552C-14.0645 245.366 -15.4617 243.918 -16.5945 242.288C-17.4095 241.111 -18.1081 239.818 -19.2157 238.912C-19.7349 238.487 -20.3328 238.154 -20.7859 237.663C-22.0037 236.341 -21.8936 234.214 -22.998 232.795C-23.404 232.272 -23.9546 231.879 -24.4204 231.407C-24.9333 230.891 -25.3392 230.274 -25.6224 229.607L-24.6847 228.477L-19.9237 236.665C-19.9237 236.665 -8.82841 248.824 -7.50364 249.881C-6.18832 250.939 -3.28075 260.715 -3.01328 261.773C-2.78987 262.682 0.769064 270.247 1.75713 272.336Z" fill="white"/>
</g>
<g style="mix-blend-mode:overlay" opacity="0.45">
<path d="M10.0959 236.171C10.0865 236.228 10.077 236.281 10.0644 236.338C9.99208 236.681 9.74663 237.125 9.41623 236.999C9.22743 236.926 9.15505 236.7 9.10785 236.505C8.79318 235.167 8.47851 233.833 8.16384 232.496C7.90266 231.388 7.63834 230.265 7.63204 229.126C7.62575 227.832 7.94986 226.558 7.97189 225.268C8.03168 221.869 6.03036 218.461 6.41426 215.214L7.55652 215L10.055 236.221C10.055 236.221 10.0707 236.203 10.0959 236.171Z" fill="white"/>
</g>
<g style="mix-blend-mode:overlay" opacity="0.45">
<path d="M14.3156 273.617C14.3031 273.777 14.2873 273.935 14.2653 274.095C14.1772 274.731 13.9569 275.436 13.3779 275.713C12.6982 276.04 11.8518 275.565 11.4993 274.895C11.1501 274.224 11.1595 273.431 11.1721 272.676C11.2161 269.378 11.0934 266.077 10.9738 262.783C10.9141 261.156 10.8574 259.526 10.6906 257.909C10.5553 256.593 9.64593 254.218 9.98892 252.965C10.162 252.333 10.4452 251.99 10.8134 251.861C11.32 258.028 11.9997 265.81 12.3143 267.059C12.5252 267.912 12.7391 271.024 12.9217 274.592L14.3156 273.617Z" fill="white"/>
</g>
<g style="mix-blend-mode:overlay" opacity="0.45">
<path d="M14.6901 344.481L4.13288 344.616C3.95352 342.719 4.43812 340.727 5.80379 339.424C6.73522 338.534 7.99705 338.03 8.89386 337.105C10.2312 335.72 10.5333 333.669 10.7693 331.759C11.2476 327.851 11.7259 323.857 10.914 320.003C10.2281 316.746 8.64527 313.332 9.9071 310.251C10.7252 308.256 12.6416 306.796 13.1702 304.703C13.7335 302.472 12.5692 300.197 12.3301 297.906C12.1413 296.11 12.5566 294.263 13.4692 292.702C13.7681 306.689 14.6901 344.481 14.6901 344.481Z" fill="white"/>
</g>
<path style="mix-blend-mode:multiply" opacity="0.3" d="M4.41609 264.718C4.34057 266.442 4.26505 268.176 4.49476 269.888C4.70874 271.487 5.11466 273.356 3.99758 274.52C3.86856 274.655 3.70808 274.781 3.52243 274.784C3.20146 274.791 2.99378 274.457 2.85532 274.168C2.57841 273.592 2.3015 273.016 2.02774 272.437L3.32418 241.955V215.79L4.60175 215.551C3.87171 219.975 3.91891 224.525 4.73076 228.937C4.9825 230.296 5.30661 231.646 5.47653 233.018C5.72512 235.045 5.63702 237.093 5.54576 239.129C5.1713 247.66 4.7937 256.187 4.41609 264.718Z" fill="url(#paint17_linear_199_222)"/>
<path style="mix-blend-mode:multiply" opacity="0.3" d="M0.4292 305.902C1.12462 310.795 1.63124 315.311 0.592826 320.141C-0.215879 323.892 -2.05985 327.589 -1.42421 331.372C-1.21968 332.596 -0.760257 333.76 -0.436146 334.956C0.0767689 336.844 0.256127 338.804 0.391437 340.755C0.482691 342.048 0.55192 343.367 0.476399 344.663L-6.35511 344.748L-2.48466 280.537C-2.48466 280.537 -5.92086 273.925 -6.44951 272.607C-6.97816 271.285 -8.56096 260.977 -8.56096 259.394C-8.56096 258.585 -10.6221 255.099 -12.6422 251.873C-11.5818 252.512 -10.6724 253.365 -10.3326 254.529C-10.1784 255.064 -10.15 255.637 -9.91719 256.143C-9.25638 257.572 -7.24563 257.909 -6.46839 259.277C-5.9775 260.146 -6.10337 261.216 -6.01841 262.21C-5.77297 265.124 -3.65523 267.591 -3.22728 270.483C-2.9661 272.258 -3.35315 274.133 -2.73954 275.816C-2.21719 277.242 -1.0529 278.328 -0.348038 279.668C0.495281 281.267 0.636879 283.129 0.759601 284.932C0.94211 287.569 1.12777 290.206 1.31028 292.843C1.40153 294.156 1.48964 295.493 1.16238 296.767C0.803659 298.174 -0.0365143 299.411 -0.495934 300.789C-0.955354 302.167 -0.927033 303.895 0.186902 304.829C0.372558 304.983 0.59283 305.122 0.690378 305.345C0.787926 305.569 0.671497 305.902 0.4292 305.902Z" fill="url(#paint18_linear_199_222)"/>
<path d="M49.9109 244.878C48.3942 246.137 46.4998 247.09 44.4136 247.804C35.1087 250.998 22.0404 249.466 22.0404 249.466C8.98789 249.466 16.927 239.412 16.927 239.412C16.927 239.412 16.0176 238.789 15.1806 237.811C13.9408 236.366 12.8489 234.141 15.0453 231.989H15.0485C15.404 231.637 15.8509 231.287 16.3952 230.944C22.5691 227.064 42.6797 225.299 49.206 226.536C55.7323 227.769 48.3218 235.885 48.3218 235.885C48.3218 235.885 51.0972 236.479 52.4723 238.062C53.6901 239.466 53.8065 241.646 49.9109 244.878Z" fill="url(#paint19_linear_199_222)"/>
<path style="mix-blend-mode:multiply" d="M49.9109 244.878C48.3941 246.137 46.4998 247.09 44.4136 247.805C35.1087 250.998 22.0404 249.466 22.0404 249.466C8.98788 249.466 16.927 239.412 16.927 239.412C16.927 239.412 16.0176 238.789 15.1806 237.811C13.9408 236.366 12.8489 234.141 15.0453 231.989C15.0421 232.008 15.0359 232.03 15.0327 232.049C14.7526 233.487 15.3411 235.057 16.4959 235.957C18.4437 237.483 21.2191 236.911 23.6956 236.983C22.2261 238.012 20.7534 239.044 19.2839 240.073C19.0762 240.221 18.8528 240.385 18.7773 240.63C18.7175 240.822 18.7616 241.033 18.8371 241.222C19.2745 242.291 20.5709 242.682 21.7132 242.867C27.5063 243.808 33.4473 242.927 39.1554 241.555C43.6143 240.485 48.0071 239.113 52.4723 238.062C53.6901 239.466 53.8065 241.646 49.9109 244.878Z" fill="url(#paint20_linear_199_222)"/>
<path style="mix-blend-mode:multiply" d="M44.4136 247.805C35.1087 250.998 22.0404 249.466 22.0404 249.466C8.98789 249.466 16.927 239.412 16.927 239.412C16.927 239.412 16.0176 238.789 15.1806 237.811C16.0428 238.172 16.9648 238.412 17.7767 238.871C18.0347 239.016 18.3053 239.223 18.3305 239.519C18.3651 239.925 17.934 240.193 17.5941 240.416C16.5211 241.13 15.854 242.421 15.8981 243.708C15.939 244.995 16.6879 246.241 17.805 246.883C18.3556 247.197 18.9755 247.37 19.5986 247.502C26.7857 249.013 34.2088 245.202 41.4745 246.259C42.6105 246.423 43.8723 246.826 44.4136 247.805Z" fill="url(#paint21_linear_199_222)"/>
<path d="M34.2812 207.564C34.2812 207.564 34.8979 207.844 35.4171 208.361C36.273 209.213 36.8552 210.708 33.913 212.634C33.6266 212.823 33.3025 213.014 32.9438 213.213C26.7007 216.633 15.1271 215.019 15.1271 215.019C6.65617 216.356 1.73157 214.997 2.76998 211.727C3.81155 208.458 7.37991 206.227 7.37991 206.227C7.37991 206.227 6.24081 204.912 7.9715 202.662C10.6525 199.175 14.0384 195.94 21.1751 195.789C21.644 195.78 22.0688 195.786 22.4621 195.808C23.1575 195.84 23.7365 195.915 24.2211 196.025C27.629 196.784 26.2539 199.093 26.2539 199.093C26.2539 199.093 38.74 195.676 41.2669 200.283C43.7937 204.89 34.2812 207.564 34.2812 207.564Z" fill="url(#paint22_linear_199_222)"/>
<path style="mix-blend-mode:multiply" d="M33.913 212.634C33.6266 212.823 33.3025 213.014 32.9438 213.213C26.7007 216.633 15.1271 215.019 15.1271 215.019C6.65617 216.356 1.73157 214.997 2.76998 211.727C3.81155 208.458 7.37991 206.227 7.37991 206.227C7.37991 206.227 6.24081 204.912 7.9715 202.662C10.6525 199.175 14.0384 195.94 21.1751 195.789C21.644 195.78 22.0688 195.786 22.4621 195.808C23.1575 195.84 23.7365 195.915 24.2211 196.025C23.3621 196.916 22.5628 197.879 22.1852 199.043C21.7132 200.491 22.1128 202.341 23.4659 203.033C21.4111 204.235 19.4444 205.588 17.591 207.083C16.9365 207.608 16.2505 208.241 16.1781 209.075C16.1026 209.943 16.7571 210.739 17.5501 211.101C18.3431 211.46 19.243 211.473 20.1115 211.451C24.5263 211.34 28.9255 210.532 33.0917 209.065C33.8532 208.795 34.6241 208.502 35.4171 208.361C36.273 209.213 36.8552 210.708 33.913 212.634Z" fill="url(#paint23_linear_199_222)"/>
<path style="mix-blend-mode:multiply" d="M33.913 212.634C33.6266 212.823 33.3025 213.014 32.9438 213.213C26.7007 216.633 15.1271 215.019 15.1271 215.019C6.65617 216.356 1.73157 214.997 2.76998 211.727C3.81155 208.458 7.37991 206.227 7.37991 206.227C7.37991 206.227 6.24081 204.912 7.9715 202.662C10.6525 199.175 14.0384 195.94 21.1751 195.789C21.644 195.78 22.0688 195.786 22.4621 195.808L22.0467 195.837C19.8535 196.746 18.1857 198.817 17.7672 201.151C17.6036 202.064 17.6067 203.033 17.1693 203.848C16.5903 204.934 15.382 205.488 14.3467 206.152C12.8992 207.08 11.6752 208.351 10.8004 209.83C10.3819 210.544 10.0357 211.425 10.3756 212.181C10.7784 213.081 11.9458 213.345 12.9244 213.232C13.8999 213.115 14.8565 212.741 15.8351 212.823C16.9459 212.914 17.9277 213.578 19.0102 213.839C21.1688 214.361 23.3778 213.235 25.5994 213.216C27.05 213.203 28.4818 213.663 29.9293 213.559C31.2855 213.461 32.5819 212.876 33.913 212.634Z" fill="url(#paint24_linear_199_222)"/>
<path d="M22.9247 203.439C19.8881 207.004 11.1528 207.067 11.1528 207.067C11.1528 207.067 10.514 209.248 7.21314 211.227C3.91224 213.21 -2.81857 211.756 -2.81857 211.756C-15.89 210.437 -7.17677 202.121 -7.17677 202.121C-7.17677 202.121 -12.5891 200.535 -11.2706 198.291C-11.1574 198.096 -11.0346 197.91 -10.9056 197.734C-9.55568 195.849 -7.57325 194.858 -7.57325 194.858C-7.57325 194.858 -8.11449 194.556 -8.47636 193.964C-8.83194 193.388 -9.01759 192.536 -8.36622 191.425C-7.04461 189.181 -0.04632 184.562 5.36602 184.033C10.7784 183.505 10.9105 189.446 10.9105 189.446C10.9105 189.446 19.8503 187.957 23.4911 190.135C23.9064 190.383 24.2526 190.679 24.5075 191.028C27.0154 194.461 20.4136 198.159 20.4136 198.159C20.4136 198.159 21.8926 198.615 22.9058 199.55C23.853 200.425 24.3942 201.715 22.9247 203.439Z" fill="url(#paint25_linear_199_222)"/>
<path style="mix-blend-mode:multiply" d="M22.9247 203.439C19.8881 207.004 11.1528 207.067 11.1528 207.067C11.1528 207.067 10.514 209.248 7.21314 211.227C3.91224 213.21 -2.81857 211.756 -2.81857 211.756C-15.89 210.437 -7.17677 202.121 -7.17677 202.121C-7.17677 202.121 -12.5891 200.535 -11.2706 198.291C-11.1574 198.096 -11.0346 197.91 -10.9056 197.734C-9.55568 195.849 -7.57325 194.858 -7.57325 194.858C-7.57325 194.858 -8.11449 194.556 -8.47636 193.964C-7.13272 194.861 -5.40517 195.091 -3.76888 195.226C-4.69716 195.544 -5.64117 195.871 -6.41526 196.469C-7.1925 197.067 -7.78094 197.992 -7.718 198.971C-7.65192 199.981 -6.88727 200.849 -5.96528 201.268C-5.04015 201.686 -3.98915 201.711 -2.9822 201.595C-3.14268 203.26 -2.0728 204.899 -0.584409 205.657C0.903986 206.416 2.71649 206.369 4.28041 205.786C5.88209 205.192 7.27923 204.056 8.18548 202.608C10.9577 203.332 13.8936 203.414 16.7036 202.844C17.5847 202.668 18.4847 202.41 19.1581 201.818C19.8346 201.227 20.2216 200.223 19.8566 199.402C19.4633 198.524 18.4217 198.178 17.4934 197.923C19.6049 197.378 21.5212 196.11 22.846 194.377C23.7711 193.162 24.3061 191.286 23.4911 190.135C23.9064 190.383 24.2526 190.679 24.5075 191.028C27.0154 194.461 20.4136 198.159 20.4136 198.159C20.4136 198.159 21.8926 198.615 22.9058 199.55C23.853 200.424 24.3942 201.715 22.9247 203.439Z" fill="url(#paint26_linear_199_222)"/>
<path style="mix-blend-mode:multiply" d="M22.9247 203.439C19.8881 207.004 11.1528 207.067 11.1528 207.067C11.1528 207.067 10.514 209.248 7.21314 211.227C3.91224 213.21 -2.81857 211.756 -2.81857 211.756C-15.89 210.437 -7.17677 202.121 -7.17677 202.121C-7.17677 202.121 -12.5891 200.535 -11.2706 198.291C-11.1574 198.096 -11.0346 197.91 -10.9056 197.734C-10.6476 197.954 -10.4147 198.209 -10.2133 198.47C-9.62491 199.222 -9.12773 200.094 -8.30959 200.585C-7.82814 200.874 -7.26802 201.01 -6.76769 201.268C-6.26422 201.526 -5.79536 201.966 -5.7576 202.526C-5.73558 202.825 -5.83942 203.115 -5.93382 203.398C-6.16353 204.097 -6.3303 204.887 -5.9999 205.541C-5.66634 206.199 -4.62478 206.485 -4.19683 205.887C-2.25846 207.914 0.589316 209.034 3.38989 208.873C6.19046 208.71 8.89348 207.272 10.5864 205.038C12.5374 205.072 14.5009 205.107 16.4173 204.748C18.3368 204.389 20.2248 203.603 21.5905 202.212C22.2953 201.498 22.8492 200.519 22.9058 199.55C23.853 200.424 24.3942 201.715 22.9247 203.439Z" fill="url(#paint27_linear_199_222)"/>
<path d="M10.4763 210.988C10.4039 211.274 10.2938 211.545 10.149 211.797C8.54107 214.585 2.69134 215.261 -1.69518 216.061C-6.47818 216.929 -10.1 218.232 -13.2877 215.044C-16.4753 211.857 -13.8667 210.409 -13.8667 210.409C-13.8667 210.409 -18.9392 210.554 -18.2154 207.8C-18.099 207.35 -17.7371 206.954 -17.2179 206.602C-16.5319 206.133 -15.5659 205.746 -14.5054 205.431C-11.45 204.512 -7.63617 204.175 -7.63617 204.175C-7.63617 204.175 4.24581 200.554 7.43343 202.583C10.6211 204.613 5.84119 207.074 5.84119 207.074C5.84119 207.074 8.22011 207.262 9.60152 208.379C10.3253 208.962 10.7752 209.795 10.4763 210.988Z" fill="url(#paint28_linear_199_222)"/>
<path style="mix-blend-mode:multiply" d="M9.04138 206.938L8.49385 206.617C8.70468 206.683 8.89034 206.793 9.04138 206.938Z" fill="url(#paint29_linear_199_222)"/>
<path style="mix-blend-mode:multiply" d="M10.4763 210.988C10.4039 211.274 10.2938 211.545 10.149 211.797C8.54104 214.585 2.69131 215.261 -1.69521 216.06C-6.47821 216.929 -10.1001 218.232 -13.2877 215.044C-16.4753 211.856 -13.8667 210.409 -13.8667 210.409C-13.8667 210.409 -18.9392 210.554 -18.2154 207.8C-18.099 207.35 -17.7371 206.954 -17.2179 206.601C-16.532 206.133 -15.5659 205.746 -14.5055 205.431C-14.4551 205.831 -14.4079 206.233 -14.2537 206.595C-13.6999 207.882 -12.0322 208.162 -10.635 208.257C-11.4658 209.053 -11.557 210.44 -10.978 211.432C-10.399 212.423 -9.26305 213.011 -8.11765 213.093C-6.97225 213.178 -5.82999 212.804 -4.83877 212.225C-4.67829 212.133 -4.51466 212.03 -4.33215 212.001C-4.11188 211.967 -3.89162 212.036 -3.67764 212.102C-0.134443 213.2 3.82727 212.885 7.15335 211.243C8.08477 210.783 9.01934 210.167 9.43156 209.213C9.54484 208.955 9.60149 208.666 9.60149 208.379C10.3252 208.961 10.7752 209.795 10.4763 210.988Z" fill="url(#paint30_linear_199_222)"/>
<path style="mix-blend-mode:multiply" d="M10.149 211.797C8.54104 214.585 2.69131 215.261 -1.69521 216.06C-6.47821 216.929 -10.1001 218.232 -13.2877 215.044C-16.4753 211.856 -13.8667 210.409 -13.8667 210.409C-13.8667 210.409 -18.9392 210.554 -18.2154 207.8C-18.099 207.35 -17.7371 206.954 -17.2179 206.601C-17.1613 207.555 -16.6138 208.518 -15.8208 209.091C-14.625 209.953 -13.0485 210.097 -11.5759 209.981C-12.5105 210.494 -13.3727 211.303 -13.5615 212.351C-13.8132 213.76 -12.7213 215.142 -11.3934 215.68C-10.0655 216.218 -8.57392 216.111 -7.15161 215.935C-3.38499 215.466 0.318684 214.588 4.01292 213.713C6.10234 213.216 8.21378 212.712 10.149 211.797Z" fill="url(#paint31_linear_199_222)"/>
<path d="M21.2667 342.335C21.2667 342.335 19.6111 324.249 24.5495 315.444C27.5477 310.098 33.1005 308.219 37 307.569" stroke="url(#paint32_linear_199_222)" stroke-width="0.74" stroke-miterlimit="10"/>
<path d="M34.8439 310.409C32.823 311.346 28.1146 314.099 25.8399 317.026C23.6838 319.802 21.613 317.259 22.6093 314.915C22.6638 314.787 22.7279 314.659 22.8014 314.531C23.9613 312.541 29.8817 307.031 33.5535 307C34.3719 306.993 35.0787 307.259 35.5958 307.894C35.5958 307.894 36.8648 309.474 34.8439 310.409Z" fill="url(#paint33_linear_199_222)"/>
<g style="mix-blend-mode:multiply" opacity="0.28">
<path d="M34.8439 310.409C32.823 311.346 28.1146 314.099 25.8399 317.026C23.6838 319.802 21.613 317.259 22.6093 314.915C23.615 315.198 24.9623 315.174 26.7555 314.538C30.8874 313.077 32.7732 309.282 33.5535 307C34.3719 306.993 35.0787 307.259 35.5958 307.894C35.5958 307.894 36.8648 309.474 34.8439 310.409Z" fill="#82007E"/>
</g>
<path d="M46.3248 317.681C46.3248 317.681 46.3248 317.681 46.323 317.685C46.2623 317.94 42.4111 334.364 44.2991 340.07C44.2991 340.07 50.9334 329.707 46.3239 317.683L46.3248 317.681Z" fill="url(#paint34_linear_199_222)"/>
<g style="mix-blend-mode:multiply" opacity="0.28">
<path d="M46.3156 317.685C46.2551 317.94 42.4071 334.358 44.2935 340.061C44.2935 340.061 47.1922 329.609 46.3156 317.685Z" fill="#82007E"/>
</g>
<path d="M60.2269 324.906C60.2269 324.906 60.2259 324.908 60.225 324.911C60.0092 325.067 46.2142 335.174 43.5229 341.135C43.5229 341.135 54.9672 337.95 60.2288 324.907L60.2269 324.906Z" fill="url(#paint35_linear_199_222)"/>
<g style="mix-blend-mode:multiply" opacity="0.28">
<path d="M60.2249 324.908C60.0091 325.065 46.2148 335.172 43.5237 341.132C43.5237 341.132 52.601 335.037 60.2249 324.908Z" fill="#82007E"/>
</g>
<path d="M55.9875 313.901C55.9875 313.901 55.9866 313.904 55.9857 313.906C55.8113 314.208 44.6005 333.685 44.5731 341.937C44.5731 341.937 56.687 331.585 55.9875 313.901Z" fill="url(#paint36_linear_199_222)"/>
<g style="mix-blend-mode:multiply" opacity="0.28">
<path d="M55.8113 313.904C55.6393 314.206 44.5801 333.614 44.5531 341.836C44.5531 341.836 52.1257 329.685 55.8113 313.904Z" fill="#82007E"/>
</g>
<path d="M57.969 328.101C57.969 328.101 57.969 328.101 57.9681 328.103C57.8345 328.249 49.2851 337.649 48.219 342.294C48.219 342.294 56.0993 338.164 57.969 328.101Z" fill="url(#paint37_linear_199_222)"/>
<g style="mix-blend-mode:multiply" opacity="0.28">
<path d="M57.9234 328.101C57.7905 328.247 49.2797 337.632 48.2184 342.27C48.2184 342.27 53.9025 336.487 57.9234 328.101Z" fill="#82007E"/>
</g>
<path d="M64.0088 338.496C64.0088 338.496 64.0088 338.496 64.0068 338.495C63.8116 338.51 51.209 339.499 47.1386 342.484C47.1386 342.484 55.4902 345.306 64.0098 338.494L64.0088 338.496Z" fill="url(#paint38_linear_199_222)"/>
<g style="mix-blend-mode:multiply" opacity="0.28">
<path d="M64.0037 338.496C63.8085 338.511 51.2058 339.501 47.1354 342.486C47.1354 342.486 55.2018 342.226 64.0037 338.496Z" fill="#82007E"/>
</g>
<path d="M65.7185 329.399L65.7175 329.401C65.4883 329.532 50.7817 338.012 47.461 343.671C47.461 343.671 59.0751 341.86 65.7185 329.399Z" fill="url(#paint39_linear_199_222)"/>
<g style="mix-blend-mode:multiply" opacity="0.28">
<path d="M65.7175 329.402C65.4883 329.532 50.7816 338.012 47.4609 343.671C47.4609 343.671 57.0763 338.651 65.7175 329.402Z" fill="#82007E"/>
</g>
<path d="M43.5162 343.122H14C14 343.122 14.3052 333.804 15.9289 326.513C16.4481 324.194 17.0964 322.083 17.9114 320.538C21.2909 314.137 23.0688 329.786 23.0688 329.786C23.0688 329.786 26.0928 321.252 29.4692 319.827C32.8488 318.404 33.7362 329.962 33.7362 329.962C33.7362 329.962 37.2951 322.139 41.562 322.319C45.829 322.495 43.5162 343.122 43.5162 343.122Z" fill="url(#paint40_linear_199_222)"/>
<g style="mix-blend-mode:multiply" opacity="0.46">
<path d="M43.1008 343.122H14C14 343.122 14.3052 333.804 15.9289 326.513C16.3128 325.214 16.7534 324.043 17.2568 323.09C20.6333 316.689 22.4111 332.338 22.4111 332.338C22.4111 332.338 25.4351 323.801 28.8147 322.379C32.1911 320.956 33.0816 332.514 33.0816 332.514C33.0816 332.514 36.6374 324.691 40.9044 324.868C44.2367 325.006 43.5602 337.593 43.1008 343.122Z" fill="#4194F2"/>
</g>
</g>
<defs>
<linearGradient id="paint0_linear_199_222" x1="145.5" y1="0" x2="145.5" y2="342" gradientUnits="userSpaceOnUse">
<stop stop-color="#42ADFF"/>
<stop offset="0.328125" stop-color="#A6A9ED"/>
<stop offset="0.682292" stop-color="#FFA6DD"/>
</linearGradient>
<linearGradient id="paint1_linear_199_222" x1="-21.0039" y1="307.096" x2="84.954" y2="307.096" gradientUnits="userSpaceOnUse">
<stop stop-color="#90C9FD"/>
<stop offset="0.27" stop-color="#8AC3FD"/>
<stop offset="0.62" stop-color="#79B5FD"/>
<stop offset="1" stop-color="#5F9EFD"/>
</linearGradient>
<linearGradient id="paint2_linear_199_222" x1="192.981" y1="293.138" x2="421.857" y2="293.138" gradientUnits="userSpaceOnUse">
<stop stop-color="#90C9FD"/>
<stop offset="0.27" stop-color="#8AC3FD"/>
<stop offset="0.62" stop-color="#79B5FD"/>
<stop offset="1" stop-color="#5F9EFD"/>
</linearGradient>
<linearGradient id="paint3_linear_199_222" x1="-18.5482" y1="304.665" x2="177.648" y2="304.665" gradientUnits="userSpaceOnUse">
<stop stop-color="#90C9FD"/>
<stop offset="0.27" stop-color="#8AC3FD"/>
<stop offset="0.62" stop-color="#79B5FD"/>
<stop offset="1" stop-color="#5F9EFD"/>
</linearGradient>
<linearGradient id="paint4_linear_199_222" x1="151.102" y1="347.06" x2="151.102" y2="299.126" gradientUnits="userSpaceOnUse">
<stop stop-color="#74BCFD"/>
<stop offset="0.19" stop-color="#79BEFD"/>
<stop offset="0.43" stop-color="#8AC6FD"/>
<stop offset="0.71" stop-color="#A5D3FD"/>
<stop offset="1" stop-color="#CAE4FD"/>
</linearGradient>
<linearGradient id="paint5_linear_199_222" x1="240" y1="317.5" x2="358.5" y2="360.5" gradientUnits="userSpaceOnUse">
<stop stop-color="#478CEC"/>
<stop offset="1" stop-color="#8AC8F9"/>
</linearGradient>
<linearGradient id="paint6_linear_199_222" x1="136.497" y1="286.169" x2="118.965" y2="339.382" gradientUnits="userSpaceOnUse">
<stop stop-color="#DCED00"/>
<stop offset="1" stop-color="#9CA000"/>
</linearGradient>
<linearGradient id="paint7_linear_199_222" x1="120.58" y1="300.255" x2="126.525" y2="303.103" gradientUnits="userSpaceOnUse">
<stop stop-color="#A43113"/>
<stop offset="1" stop-color="#6F160D"/>
</linearGradient>
<linearGradient id="paint8_linear_199_222" x1="138.754" y1="308.145" x2="132.908" y2="305.105" gradientUnits="userSpaceOnUse">
<stop stop-color="#A43113"/>
<stop offset="1" stop-color="#6F160D"/>
</linearGradient>
<linearGradient id="paint9_linear_199_222" x1="58.8591" y1="295.827" x2="58.8591" y2="336.328" gradientUnits="userSpaceOnUse">
<stop stop-color="#D1FAFF"/>
<stop offset="1" stop-color="#4194F2"/>
</linearGradient>
<linearGradient id="paint10_linear_199_222" x1="46.3792" y1="317.186" x2="19.1319" y2="357.046" gradientUnits="userSpaceOnUse">
<stop stop-color="#FFA6DD" stop-opacity="0.5"/>
<stop offset="0.21" stop-color="#F2AFDD" stop-opacity="0.63"/>
<stop offset="0.57" stop-color="#DFBDDE" stop-opacity="0.83"/>
<stop offset="0.84" stop-color="#D3C6DF" stop-opacity="0.95"/>
<stop offset="1" stop-color="#CFCAE0"/>
</linearGradient>
<linearGradient id="paint11_linear_199_222" x1="97.8117" y1="314.04" x2="88.2987" y2="312.634" gradientUnits="userSpaceOnUse">
<stop stop-color="#F93D31"/>
<stop offset="1" stop-color="#B70400"/>
</linearGradient>
<linearGradient id="paint12_linear_199_222" x1="71.4085" y1="289.025" x2="74.4302" y2="350.692" gradientUnits="userSpaceOnUse">
<stop stop-color="#F93D31"/>
<stop offset="1" stop-color="#B70400"/>
</linearGradient>
<linearGradient id="paint13_linear_199_222" x1="76.7716" y1="307.977" x2="69.9197" y2="308.472" gradientUnits="userSpaceOnUse">
<stop stop-color="#A43113"/>
<stop offset="1" stop-color="#6F160D"/>
</linearGradient>
<linearGradient id="paint14_linear_199_222" x1="67.293" y1="307.623" x2="63.4801" y2="307.899" gradientUnits="userSpaceOnUse">
<stop stop-color="#A43113"/>
<stop offset="1" stop-color="#6F160D"/>
</linearGradient>
<linearGradient id="paint15_linear_199_222" x1="-4.21256" y1="288.306" x2="-12.0227" y2="342.077" gradientUnits="userSpaceOnUse">
<stop stop-color="#A6CBFF"/>
<stop offset="0.12" stop-color="#A3C6FD"/>
<stop offset="0.26" stop-color="#9AB7F8"/>
<stop offset="0.42" stop-color="#8CA0F0"/>
<stop offset="0.58" stop-color="#787FE4"/>
<stop offset="0.74" stop-color="#5F55D6"/>
<stop offset="0.91" stop-color="#4022C4"/>
<stop offset="1" stop-color="#2E04BA"/>
</linearGradient>
<linearGradient id="paint16_linear_199_222" x1="0.133434" y1="215" x2="0.133434" y2="344.748" gradientUnits="userSpaceOnUse">
<stop stop-color="#6E0782"/>
<stop offset="1" stop-color="#08204D"/>
</linearGradient>
<linearGradient id="paint17_linear_199_222" x1="2.02774" y1="245.168" x2="5.63702" y2="245.168" gradientUnits="userSpaceOnUse">
<stop stop-color="#6E0782"/>
<stop offset="1" stop-color="#08204D"/>
</linearGradient>
<linearGradient id="paint18_linear_199_222" x1="-12.6422" y1="298.309" x2="1.39209" y2="298.309" gradientUnits="userSpaceOnUse">
<stop stop-color="#6E0782"/>
<stop offset="1" stop-color="#08204D"/>
</linearGradient>
<linearGradient id="paint19_linear_199_222" x1="38.91" y1="227.014" x2="21.6471" y2="259.922" gradientUnits="userSpaceOnUse">
<stop stop-color="#FFA6DD"/>
<stop offset="0.12" stop-color="#FAA2DC"/>
<stop offset="0.26" stop-color="#EB97D9"/>
<stop offset="0.41" stop-color="#D485D5"/>
<stop offset="0.56" stop-color="#B36BD0"/>
<stop offset="0.72" stop-color="#894AC9"/>
<stop offset="0.89" stop-color="#5623C0"/>
<stop offset="1" stop-color="#2E04BA"/>
</linearGradient>
<linearGradient id="paint20_linear_199_222" x1="34.8507" y1="233.6" x2="28.7366" y2="250.391" gradientUnits="userSpaceOnUse">
<stop stop-color="#FFA6DD" stop-opacity="0.5"/>
<stop offset="0.21" stop-color="#F2AFDD" stop-opacity="0.63"/>
<stop offset="0.57" stop-color="#DFBDDE" stop-opacity="0.83"/>
<stop offset="0.84" stop-color="#D3C6DF" stop-opacity="0.95"/>
<stop offset="1" stop-color="#CFCAE0"/>
</linearGradient>
<linearGradient id="paint21_linear_199_222" x1="33.1735" y1="238.984" x2="23.2708" y2="250.19" gradientUnits="userSpaceOnUse">
<stop stop-color="#FFA6DD" stop-opacity="0.5"/>
<stop offset="0.21" stop-color="#F2AFDD" stop-opacity="0.63"/>
<stop offset="0.57" stop-color="#DFBDDE" stop-opacity="0.83"/>
<stop offset="0.84" stop-color="#D3C6DF" stop-opacity="0.95"/>
<stop offset="1" stop-color="#CFCAE0"/>
</linearGradient>
<linearGradient id="paint22_linear_199_222" x1="30.8733" y1="195.84" x2="6.7789" y2="225.151" gradientUnits="userSpaceOnUse">
<stop stop-color="#FFA6DD"/>
<stop offset="0.12" stop-color="#FAA2DC"/>
<stop offset="0.26" stop-color="#EB97D9"/>
<stop offset="0.41" stop-color="#D485D5"/>
<stop offset="0.56" stop-color="#B36BD0"/>
<stop offset="0.72" stop-color="#894AC9"/>
<stop offset="0.89" stop-color="#5623C0"/>
<stop offset="1" stop-color="#2E04BA"/>
</linearGradient>
<linearGradient id="paint23_linear_199_222" x1="25.2375" y1="203.832" x2="10.2717" y2="215.538" gradientUnits="userSpaceOnUse">
<stop stop-color="#FFA6DD" stop-opacity="0.5"/>
<stop offset="0.21" stop-color="#F2AFDD" stop-opacity="0.63"/>
<stop offset="0.57" stop-color="#DFBDDE" stop-opacity="0.83"/>
<stop offset="0.84" stop-color="#D3C6DF" stop-opacity="0.95"/>
<stop offset="1" stop-color="#CFCAE0"/>
</linearGradient>
<linearGradient id="paint24_linear_199_222" x1="2.63153" y1="205.657" x2="33.913" y2="205.657" gradientUnits="userSpaceOnUse">
<stop stop-color="#FFA6DD" stop-opacity="0.5"/>
<stop offset="0.21" stop-color="#F2AFDD" stop-opacity="0.63"/>
<stop offset="0.57" stop-color="#DFBDDE" stop-opacity="0.83"/>
<stop offset="0.84" stop-color="#D3C6DF" stop-opacity="0.95"/>
<stop offset="1" stop-color="#CFCAE0"/>
</linearGradient>
<linearGradient id="paint25_linear_199_222" x1="11.4675" y1="189.575" x2="-4.69716" y2="220.39" gradientUnits="userSpaceOnUse">
<stop stop-color="#FFA6DD"/>
<stop offset="0.12" stop-color="#FAA2DC"/>
<stop offset="0.26" stop-color="#EB97D9"/>
<stop offset="0.41" stop-color="#D485D5"/>
<stop offset="0.56" stop-color="#B36BD0"/>
<stop offset="0.72" stop-color="#894AC9"/>
<stop offset="0.89" stop-color="#5623C0"/>
<stop offset="1" stop-color="#2E04BA"/>
</linearGradient>
<linearGradient id="paint26_linear_199_222" x1="12.1787" y1="192.391" x2="0.583022" y2="207.165" gradientUnits="userSpaceOnUse">
<stop stop-color="#FFA6DD" stop-opacity="0.5"/>
<stop offset="0.21" stop-color="#F2AFDD" stop-opacity="0.63"/>
<stop offset="0.57" stop-color="#DFBDDE" stop-opacity="0.83"/>
<stop offset="0.84" stop-color="#D3C6DF" stop-opacity="0.95"/>
<stop offset="1" stop-color="#CFCAE0"/>
</linearGradient>
<linearGradient id="paint27_linear_199_222" x1="8.89349" y1="196.346" x2="0.501211" y2="208.76" gradientUnits="userSpaceOnUse">
<stop stop-color="#FFA6DD" stop-opacity="0.5"/>
<stop offset="0.21" stop-color="#F2AFDD" stop-opacity="0.63"/>
<stop offset="0.57" stop-color="#DFBDDE" stop-opacity="0.83"/>
<stop offset="0.84" stop-color="#D3C6DF" stop-opacity="0.95"/>
<stop offset="1" stop-color="#CFCAE0"/>
</linearGradient>
<linearGradient id="paint28_linear_199_222" x1="-0.128119" y1="202.316" x2="-10.5469" y2="222.178" gradientUnits="userSpaceOnUse">
<stop stop-color="#FFA6DD"/>
<stop offset="0.12" stop-color="#FAA2DC"/>
<stop offset="0.26" stop-color="#EB97D9"/>
<stop offset="0.41" stop-color="#D485D5"/>
<stop offset="0.56" stop-color="#B36BD0"/>
<stop offset="0.72" stop-color="#894AC9"/>
<stop offset="0.89" stop-color="#5623C0"/>
<stop offset="1" stop-color="#2E04BA"/>
</linearGradient>
<linearGradient id="paint29_linear_199_222" x1="8.84628" y1="206.727" x2="8.65748" y2="206.844" gradientUnits="userSpaceOnUse">
<stop stop-color="#FFA6DD" stop-opacity="0.5"/>
<stop offset="0.21" stop-color="#F2AFDD" stop-opacity="0.63"/>
<stop offset="0.57" stop-color="#DFBDDE" stop-opacity="0.83"/>
<stop offset="0.84" stop-color="#D3C6DF" stop-opacity="0.95"/>
<stop offset="1" stop-color="#CFCAE0"/>
</linearGradient>
<linearGradient id="paint30_linear_199_222" x1="2.91158" y1="205.5" x2="-12.5293" y2="215.019" gradientUnits="userSpaceOnUse">
<stop stop-color="#FFA6DD" stop-opacity="0.5"/>
<stop offset="0.21" stop-color="#F2AFDD" stop-opacity="0.63"/>
<stop offset="0.57" stop-color="#DFBDDE" stop-opacity="0.83"/>
<stop offset="0.84" stop-color="#D3C6DF" stop-opacity="0.95"/>
<stop offset="1" stop-color="#CFCAE0"/>
</linearGradient>
<linearGradient id="paint31_linear_199_222" x1="-18.2878" y1="211.838" x2="10.149" y2="211.838" gradientUnits="userSpaceOnUse">
<stop stop-color="#FFA6DD" stop-opacity="0.5"/>
<stop offset="0.21" stop-color="#F2AFDD" stop-opacity="0.63"/>
<stop offset="0.57" stop-color="#DFBDDE" stop-opacity="0.83"/>
<stop offset="0.84" stop-color="#D3C6DF" stop-opacity="0.95"/>
<stop offset="1" stop-color="#CFCAE0"/>
</linearGradient>
<linearGradient id="paint32_linear_199_222" x1="23.266" y1="313.196" x2="34.5002" y2="335.788" gradientUnits="userSpaceOnUse">
<stop stop-color="#6E0782"/>
<stop offset="1" stop-color="#08204D"/>
</linearGradient>
<linearGradient id="paint33_linear_199_222" x1="35.7761" y1="309.327" x2="22.2962" y2="315.323" gradientUnits="userSpaceOnUse">
<stop stop-color="#FFA6DD"/>
<stop offset="0.12" stop-color="#FAA2DC"/>
<stop offset="0.26" stop-color="#EB97D9"/>
<stop offset="0.41" stop-color="#D485D5"/>
<stop offset="0.56" stop-color="#B36BD0"/>
<stop offset="0.72" stop-color="#894AC9"/>
<stop offset="0.89" stop-color="#5623C0"/>
<stop offset="1" stop-color="#2E04BA"/>
</linearGradient>
<linearGradient id="paint34_linear_199_222" x1="53.017" y1="319.799" x2="41.6749" y2="332.154" gradientUnits="userSpaceOnUse">
<stop stop-color="#FFA6DD"/>
<stop offset="0.12" stop-color="#FAA2DC"/>
<stop offset="0.26" stop-color="#EB97D9"/>
<stop offset="0.41" stop-color="#D485D5"/>
<stop offset="0.56" stop-color="#B36BD0"/>
<stop offset="0.72" stop-color="#894AC9"/>
<stop offset="0.89" stop-color="#5623C0"/>
<stop offset="1" stop-color="#2E04BA"/>
</linearGradient>
<linearGradient id="paint35_linear_199_222" x1="64.3197" y1="325.893" x2="42.7942" y2="336.121" gradientUnits="userSpaceOnUse">
<stop stop-color="#FFA6DD"/>
<stop offset="0.12" stop-color="#FAA2DC"/>
<stop offset="0.26" stop-color="#EB97D9"/>
<stop offset="0.41" stop-color="#D485D5"/>
<stop offset="0.56" stop-color="#B36BD0"/>
<stop offset="0.72" stop-color="#894AC9"/>
<stop offset="0.89" stop-color="#5623C0"/>
<stop offset="1" stop-color="#2E04BA"/>
</linearGradient>
<linearGradient id="paint36_linear_199_222" x1="55.5881" y1="315.679" x2="45.9699" y2="345.456" gradientUnits="userSpaceOnUse">
<stop stop-color="#FFA6DD"/>
<stop offset="0.12" stop-color="#FAA2DC"/>
<stop offset="0.26" stop-color="#EB97D9"/>
<stop offset="0.41" stop-color="#D485D5"/>
<stop offset="0.56" stop-color="#B36BD0"/>
<stop offset="0.72" stop-color="#894AC9"/>
<stop offset="0.89" stop-color="#5623C0"/>
<stop offset="1" stop-color="#2E04BA"/>
</linearGradient>
<linearGradient id="paint37_linear_199_222" x1="61.1189" y1="332.396" x2="49.5158" y2="335.059" gradientUnits="userSpaceOnUse">
<stop stop-color="#FFA6DD"/>
<stop offset="0.12" stop-color="#FAA2DC"/>
<stop offset="0.26" stop-color="#EB97D9"/>
<stop offset="0.41" stop-color="#D485D5"/>
<stop offset="0.56" stop-color="#B36BD0"/>
<stop offset="0.72" stop-color="#894AC9"/>
<stop offset="0.89" stop-color="#5623C0"/>
<stop offset="1" stop-color="#2E04BA"/>
</linearGradient>
<linearGradient id="paint38_linear_199_222" x1="66.1356" y1="340.996" x2="48.6897" y2="338.87" gradientUnits="userSpaceOnUse">
<stop stop-color="#FFA6DD"/>
<stop offset="0.12" stop-color="#FAA2DC"/>
<stop offset="0.26" stop-color="#EB97D9"/>
<stop offset="0.41" stop-color="#D485D5"/>
<stop offset="0.56" stop-color="#B36BD0"/>
<stop offset="0.72" stop-color="#894AC9"/>
<stop offset="0.89" stop-color="#5623C0"/>
<stop offset="1" stop-color="#2E04BA"/>
</linearGradient>
<linearGradient id="paint39_linear_199_222" x1="64.7595" y1="330.451" x2="45.4511" y2="344.729" gradientUnits="userSpaceOnUse">
<stop stop-color="#FFA6DD"/>
<stop offset="0.12" stop-color="#FAA2DC"/>
<stop offset="0.26" stop-color="#EB97D9"/>
<stop offset="0.41" stop-color="#D485D5"/>
<stop offset="0.56" stop-color="#B36BD0"/>
<stop offset="0.72" stop-color="#894AC9"/>
<stop offset="0.89" stop-color="#5623C0"/>
<stop offset="1" stop-color="#2E04BA"/>
</linearGradient>
<linearGradient id="paint40_linear_199_222" x1="31.9835" y1="318.665" x2="27.3609" y2="350.494" gradientUnits="userSpaceOnUse">
<stop stop-color="#A6CBFF"/>
<stop offset="0.12" stop-color="#A3C6FD"/>
<stop offset="0.26" stop-color="#9AB7F8"/>
<stop offset="0.42" stop-color="#8CA0F0"/>
<stop offset="0.58" stop-color="#787FE4"/>
<stop offset="0.74" stop-color="#5F55D6"/>
<stop offset="0.91" stop-color="#4022C4"/>
<stop offset="1" stop-color="#2E04BA"/>
</linearGradient>
</defs>
</svg>
