<svg width="291" height="342" viewBox="0 0 291 342" fill="none" xmlns="http://www.w3.org/2000/svg">
<mask id="mask0_199_2521" style="mask-type:alpha" maskUnits="userSpaceOnUse" x="0" y="0" width="291" height="342">
<rect width="291" height="342" rx="5" fill="url(#paint0_linear_199_2521)"/>
</mask>
<g mask="url(#mask0_199_2521)">
<path d="M78.6017 330.211C78.6017 330.211 78.6017 330.211 78.5978 330.211C77.837 329.594 77.0723 328.965 76.2921 328.39C75.1392 327.536 73.8505 327.009 72.6277 326.263C70.5743 325.009 68.6528 323.255 66.9759 321.547C65.5591 320.107 64.2471 318.577 62.8496 317.122C62.314 316.563 61.6813 316.155 61.1805 315.554C60.3537 314.556 59.7365 313.43 59.0145 312.359C57.062 309.467 53.6422 307.39 50.8901 305.29C49.0307 303.873 47.2839 302.387 45.541 300.826C44.458 299.86 43.375 298.913 42.3542 297.88C41.6516 297.166 40.8519 296.653 40.1183 295.982C38.2512 294.274 36.4462 292.209 34.2064 291.006C33.1816 290.458 32.1763 289.686 31.1826 289.034C30.2354 288.409 29.7696 287.675 29.0476 286.829C28.5197 286.208 27.8326 285.373 27.2077 284.869C26.7419 284.496 26.5284 284.57 25.8607 284.574C25.1698 284.574 24.4051 284.422 23.815 284.876C23.3065 285.264 22.8912 286.006 22.5302 286.534C21.191 288.479 20.1313 290.613 18.4583 292.302C17.2549 293.513 15.5547 294.348 14.1418 295.326C11.5721 297.115 10.2368 300.023 8.40848 302.441C7.16245 304.095 5.9824 305.469 3.86298 305.612C3.20697 305.659 2.57037 305.554 1.91824 305.663C-0.41468 306.051 -1.87421 307.406 -3.7452 308.737C-4.94465 309.591 -5.84133 310.414 -6.57109 311.711C-7.25816 312.937 -7.6308 313.962 -8.65946 314.94C-9.69588 315.922 -10.2587 317.13 -11.3611 318.038C-12.087 318.64 -12.6926 319.362 -13.4223 319.952C-15.3632 321.516 -17.6612 322.576 -19.6447 324.089C-20.7471 324.932 -22.1252 325.662 -22.8976 326.857C-23.4488 327.711 -23.5498 328.682 -24.3494 329.384C-24.7376 329.73 -24.5396 330.207 -24.0233 330.207H78.5939C78.5939 330.207 78.5978 330.207 78.5939 330.211H78.6017Z" fill="url(#paint1_linear_199_2521)"/>
<path d="M186.583 318.077C187.546 316.442 188.738 314.971 189.689 313.318C190.527 311.858 191.067 310.138 192.037 308.76C193.803 306.253 198.667 304.739 201.59 305.104C205.798 305.632 210.111 305.612 214.388 305.527C216.612 305.484 219.112 303.912 220.917 302.736C224.046 300.698 226.806 298.039 230.183 296.397C232.31 295.365 234.41 294.685 236.7 294.072C238.494 293.595 240.128 292.799 242.018 292.826C243.455 292.845 244.46 292.515 245.83 292.352C247.197 292.193 248.804 291.335 250.088 290.784C251.4 290.221 252.445 289.495 253.617 288.719C254.832 287.912 256.249 287.042 257.223 285.944C258.694 284.294 259.855 282.147 262.386 282.427C265.111 282.73 267.486 283.459 270.134 284.1C271.562 284.449 273.014 284.686 274.485 284.667C275.646 284.651 277.078 284.899 278.196 284.589C280.692 283.89 282.943 281.612 284.492 279.69C286.045 277.761 287.007 274.396 289.305 273.316C290.885 272.571 292.322 272.893 293.975 273.223C294.453 273.316 295.423 273.522 295.901 273.355C296.58 273.118 296.84 272.175 297.127 271.531C297.589 270.494 297.636 269.474 297.903 268.387C298.156 267.374 298.726 266.554 299.072 265.58C299.526 264.291 299.421 262.917 299.825 261.625C299.984 261.12 300.205 260.751 300.427 260.266C300.57 259.944 300.76 259.125 300.947 258.904C301.723 258.003 303.466 258.36 304.499 258.356C306.063 258.352 307.037 258.461 308.248 259.571C309.51 260.724 309.564 262.723 310.049 264.253C310.449 265.499 310.655 266.683 311.175 267.882C311.73 269.159 312.607 270.149 313.372 271.286C314.61 273.122 315.212 275.218 316.551 276.973C317.277 277.928 317.704 278.906 318.644 279.682C319.509 280.397 320.643 281.022 321.656 281.499C323.329 282.287 325.196 282.361 326.962 282.85C328.891 283.382 330.879 283.708 332.754 284.426C337.998 286.429 341.623 291.638 345.754 295.213C348.343 297.457 350.959 299.631 353.521 301.909C354.856 303.101 356.339 303.982 357.729 305.065C358.979 306.039 360.201 307.181 361.603 307.938C363.38 308.904 365.504 309.595 367.437 310.173C368.376 310.457 369.25 310.375 370.158 310.608C371.117 310.853 372.285 311.377 373.457 311.435C376.054 311.567 378.212 311.334 380.724 312.262C385.064 313.873 388.825 317.063 392.334 320.002C393.821 321.248 395.688 322.405 396.911 323.888C398.001 325.211 399.018 325.751 400.532 326.496C401.58 327.012 402.663 327.575 403.785 327.921C404.593 328.169 405.353 328.115 406.184 328.27C407.089 328.441 407.877 329 408.793 329.093H187.045C186.071 329.093 185.209 328.278 184.984 327.331C184.736 326.306 184.414 325.3 184.483 324.237C184.623 322.086 185.5 319.909 186.583 318.073V318.077Z" fill="url(#paint2_linear_199_2521)"/>
<path d="M-12.5956 332.035V332.028C-10.5072 330.584 -8.39167 329.256 -6.25673 327.886C-4.65357 326.857 -3.03878 325.918 -1.54043 324.734C-0.919357 324.241 -0.271105 323.794 0.295626 323.232C0.784723 322.746 0.982693 322.249 1.33981 321.702C1.86773 320.895 2.56644 320.278 3.41654 319.94C4.53447 319.497 5.57477 318.973 6.61119 318.426C7.55833 317.921 8.49771 317.017 9.28182 316.295C10.2095 315.449 11.1606 314.54 12.1465 313.756C12.9345 313.127 13.5595 312.304 14.3591 311.703C15.3024 310.989 16.4009 310.546 17.348 309.836C18.4737 308.993 19.4869 308.225 20.7329 307.584C21.7771 307.045 22.6039 306.105 23.6558 305.531C24.1449 305.263 24.4516 304.906 25.0338 305.084C25.6122 305.263 26.0625 305.83 26.606 305.985C26.9553 306.09 27.9995 306.21 28.3372 306.059C28.7914 305.853 29.0786 304.436 29.2727 303.935C29.5017 303.345 29.5871 302.728 29.7734 302.193C29.8938 301.847 30.0063 301.56 30.181 301.23C30.344 300.919 30.4644 300.508 30.6352 300.228C31.1359 299.394 32.3742 298.843 33.1117 298.222C33.628 297.783 33.9657 297.391 34.3073 296.879C34.5635 296.49 35.072 296.118 35.4097 295.807C36.4267 294.864 37.5214 294.08 38.6548 293.296C39.3846 292.791 40.2114 292.496 40.9062 291.953C41.2983 291.646 41.6826 291.316 42.094 291.033C42.6452 290.652 43.1654 290.241 43.7011 289.829C44.6172 289.131 45.4401 288.416 46.2475 287.601C47.2684 286.569 48.5765 286.014 49.6673 285.078C50.2379 284.585 50.8551 284.162 51.3908 283.622C51.8954 283.11 52.3068 282.528 52.8386 282.046C53.9837 280.994 55.2453 279.993 56.1342 278.689C56.4137 278.281 56.5573 277.974 56.93 277.625C57.2755 277.307 57.5821 276.911 57.8849 276.55C58.1954 276.177 58.4438 275.762 58.7505 275.382C59.228 274.784 59.8956 274.392 60.3847 273.806C60.8234 273.274 61.2853 272.843 61.7355 272.338C62.147 271.88 62.3916 271.286 62.7991 270.82C63.133 270.444 63.5988 270.262 63.9598 269.92C64.2276 269.672 64.3829 269.353 64.6274 269.093C65.3106 268.371 66.1607 267.828 67.0186 267.339C67.9968 266.78 68.7421 266.127 69.8717 266.131C71.3855 266.139 72.8023 267.082 74.2231 267.575C75.0732 267.87 75.9582 268.22 76.7501 268.651C77.7011 269.167 78.326 269.656 79.0946 270.425C79.6303 270.968 80.2397 271.325 80.7793 271.814C81.3266 272.315 82.2233 272.517 82.8832 272.878C83.4305 273.181 84.0166 273.577 84.5213 273.945C84.8357 274.174 85.0492 274.473 85.4024 274.663C85.9109 274.931 86.2642 275.067 86.6795 275.479C88.9969 277.78 92.1139 278.957 95.0097 280.206C95.4522 280.397 96.0927 280.564 96.4692 280.839C96.935 281.177 97.2688 281.751 97.6609 282.163C98.2432 282.78 98.6313 283.537 99.1476 284.201C99.7454 284.965 100.145 284.892 100.879 284.325C101.189 284.084 101.585 283.665 101.958 283.572C102.237 283.502 102.505 283.587 102.785 283.506C103.053 283.428 103.115 283.265 103.468 283.327C103.782 283.378 104.205 283.626 104.462 283.816C105.269 284.41 105.964 285.361 106.558 286.146C106.962 286.677 107.264 287.295 107.703 287.799C108.13 288.292 108.689 288.789 109.038 289.371C109.756 290.571 110.521 291.782 111.414 292.954C112.241 294.045 113.153 295.042 113.952 296.145C114.465 296.851 115.253 297.321 115.851 297.95C116.379 298.505 116.658 299.25 117.132 299.844C117.951 300.869 118.894 301.987 119.818 302.818C120.198 303.163 120.536 303.574 120.92 303.908C121.339 304.273 121.918 304.432 122.364 304.77C123.525 305.647 124.557 306.497 125.85 307.204C128.094 308.427 130.605 309.486 132.344 311.419C133.089 312.242 133.784 313.124 134.475 313.993C135.236 314.948 135.729 316.031 136.696 316.784C137.324 317.273 137.825 317.937 138.454 318.438C139.149 318.985 139.844 319.524 140.472 320.173C141.295 321.027 142.103 321.904 142.999 322.7C143.558 323.197 144.16 323.647 144.828 323.981C145.853 324.489 146.419 325.234 147.281 325.956C148.007 326.562 148.857 327.024 149.633 327.567C150.615 328.254 151.605 328.942 152.642 329.551C153.787 330.219 154.944 330.7 156.217 331.053C157.133 331.306 157.905 331.698 158.771 332.086C160.809 333.002 162.746 333.895 164.174 335.696C164.535 336.146 164.92 336.635 165.23 337.116C165.843 338.067 166.546 338.89 167.26 339.799C167.8 340.482 168.693 341.511 169.566 342.011C169.632 342.05 169.601 342.186 169.523 342.186H-20.6929C-19.9709 342.186 -21.3683 343.102 -21.7254 342.477C-22.164 341.712 -22.4202 340.889 -22.2417 339.927C-22.032 338.813 -21.1431 338.32 -20.262 337.761C-18.9927 336.953 -18.0727 335.816 -16.8965 334.9C-15.5379 333.844 -14.0163 333.025 -12.6033 332.047C-12.6033 332.047 -12.5995 332.043 -12.5995 332.039L-12.5956 332.035Z" fill="#5F9EFD"/>
<path d="M-13.1351 332.035C-13.1351 332.035 -13.1351 332.028 -13.1312 332.028C-11.0429 330.584 -8.92732 329.256 -6.79626 327.886C-5.1931 326.857 -3.57442 325.918 -2.07995 324.734C-1.45499 324.241 -0.810635 323.794 -0.243904 323.232C0.245193 322.746 0.443163 322.249 0.800282 321.702C1.33208 320.895 2.02691 320.278 2.87701 319.94C3.99106 319.497 5.03525 318.973 6.07167 318.426C7.01881 317.921 7.95818 317.017 8.74229 316.295C9.67002 315.449 10.621 314.54 11.607 313.756C12.395 313.127 13.02 312.304 13.8196 311.703C14.7628 310.989 15.8614 310.546 16.8124 309.836C17.9381 308.993 18.9512 308.225 20.1973 307.584C21.2414 307.045 22.0682 306.105 23.1202 305.531C23.6093 305.263 23.916 304.906 24.4982 305.084C25.0766 305.263 25.5269 305.83 26.0703 305.985C26.4197 306.09 27.4638 306.21 27.8016 306.059C28.2557 305.853 28.543 304.436 28.737 303.935C28.9661 303.345 29.0515 302.728 29.2378 302.193C29.3581 301.847 29.4707 301.56 29.6493 301.23C29.8123 300.919 29.9326 300.508 30.0995 300.228C30.6042 299.394 31.8386 298.843 32.5761 298.222C33.0924 297.783 33.4301 297.391 33.7716 296.879C34.0278 296.49 34.5364 296.118 34.8702 295.807C35.8872 294.864 36.9818 294.08 38.1153 293.296C38.8451 292.791 39.6719 292.496 40.3667 291.953C40.7587 291.646 41.143 291.316 41.5545 291.033C42.1057 290.652 42.6259 290.241 43.1654 289.829C44.0815 289.131 44.9044 288.416 45.7079 287.601C46.7288 286.569 48.037 286.014 49.1277 285.078C49.6984 284.585 50.3194 284.162 50.8512 283.622C51.3559 283.11 51.7673 282.528 52.2991 282.046C53.4442 280.994 54.7058 279.993 55.5947 278.689C55.8742 278.281 56.0178 277.974 56.3904 277.625C56.7359 277.307 57.0426 276.911 57.3454 276.55C57.6559 276.177 57.9082 275.762 58.211 275.382C58.6884 274.784 59.3561 274.392 59.8452 273.806C60.2838 273.274 60.7457 272.843 61.196 272.338C61.6075 271.88 61.852 271.286 62.2596 270.82C62.5934 270.444 63.0592 270.262 63.4202 269.92C63.6881 269.672 63.8472 269.353 64.0879 269.093C64.7711 268.371 65.6212 267.828 66.4829 267.339C67.4611 266.78 68.2064 266.127 69.336 266.131C70.8499 266.139 72.2667 267.082 73.6874 267.575C74.5375 267.87 75.4225 268.22 76.2144 268.651C77.1654 269.167 77.7904 269.656 78.559 270.425C79.0946 270.968 79.7041 271.325 80.2436 271.814C80.791 272.315 81.6876 272.517 82.3475 272.878C82.891 273.181 83.481 273.577 83.9817 273.945C84.2962 274.174 84.5096 274.473 84.8668 274.663C85.3753 274.931 85.7285 275.067 86.1439 275.479C88.4613 277.78 91.5783 278.957 94.474 280.206C94.9165 280.397 95.5532 280.564 95.9336 280.839C96.3994 281.177 96.7332 281.751 97.1214 282.163C97.7036 282.78 98.0918 283.537 98.6081 284.201C99.2059 284.965 99.6057 284.892 100.339 284.325C100.65 284.084 101.046 283.665 101.422 283.572C101.702 283.502 101.966 283.587 102.249 283.506C102.517 283.428 102.579 283.265 102.932 283.327C103.247 283.378 103.67 283.626 103.926 283.816C104.733 284.41 105.428 285.361 106.022 286.146C106.426 286.677 106.729 287.295 107.167 287.799C107.59 288.292 108.153 288.789 108.503 289.371C109.221 290.571 109.985 291.782 110.878 292.954C111.705 294.045 112.617 295.042 113.417 296.145C113.929 296.851 114.717 297.321 115.315 297.95C115.843 298.505 116.122 299.25 116.596 299.844C117.415 300.869 118.358 301.987 119.282 302.818C119.663 303.163 120 303.574 120.385 303.908C120.804 304.273 121.382 304.432 121.829 304.77C122.989 305.647 124.022 306.497 125.314 307.204C127.558 308.427 130.069 309.486 131.808 311.419C132.554 312.242 133.249 313.124 133.94 313.993C134.696 314.948 135.193 316.031 136.16 316.784C136.789 317.273 137.289 317.937 137.918 318.438C138.613 318.985 139.308 319.524 139.937 320.173C140.76 321.027 141.567 321.904 142.464 322.7C143.023 323.197 143.624 323.647 144.292 323.981C145.317 324.489 145.884 325.234 146.745 325.956C147.471 326.562 148.321 327.024 149.098 327.567C150.08 328.254 151.07 328.942 152.106 329.551C153.251 330.219 154.408 330.7 155.681 331.053C156.597 331.306 157.37 331.698 158.235 332.086C160.273 333.002 162.21 333.895 163.639 335.696C164 336.146 164.384 336.635 164.694 337.116C165.308 338.067 166.01 338.89 166.725 339.799C167.264 340.482 168.157 341.511 169.03 342.011C169.096 342.05 169.065 342.186 168.988 342.186H-21.2285C-20.5065 342.186 -21.9 343.102 -22.261 342.477C-22.6997 341.712 -22.9559 340.889 -22.7773 339.927C-22.5677 338.813 -21.6788 338.32 -20.7976 337.761C-19.5322 336.953 -18.6083 335.816 -17.4322 334.9C-16.0736 333.844 -14.5519 333.025 -13.139 332.047C-13.139 332.047 -13.1351 332.043 -13.1351 332.039V332.035Z" fill="url(#paint3_linear_199_2521)"/>
<path d="M334.636 299.576H-47.7756C-50.4811 299.576 -52.6743 301.769 -52.6743 304.475V341.65C-52.6743 344.356 -50.4811 346.549 -47.7756 346.549H334.636C337.342 346.549 339.535 344.356 339.535 341.65V304.475C339.535 301.769 337.342 299.576 334.636 299.576Z" fill="url(#paint4_linear_199_2521)"/>
<path d="M258.023 307.577C256.975 307.468 255.923 307.402 254.871 307.371C253.353 307.328 252.099 307.072 250.741 307.763C248.295 309.009 245.842 310.802 243.645 312.433C241.968 313.675 240.186 315.794 238.094 316.361C236.72 316.734 234.748 316.481 233.35 316.198C230.098 315.53 226.654 315.173 223.363 315.837C220.397 316.435 217.82 317.564 214.757 317.428C213.53 317.374 212.3 317.328 211.073 317.324C209.299 317.32 208.515 316.71 207.009 315.833C205.484 314.944 203.888 314.537 202.211 314.024C200.818 313.601 199.129 313.209 197.658 313.5C194.964 314.024 191.886 316.582 190.314 318.756C189.134 320.39 188.532 322.89 186.238 323.302C183.688 323.756 180.842 322.576 178.311 323.185C175.618 323.833 172.962 325.103 170.307 325.937C166.523 327.129 162.664 328.06 158.895 329.299C156.034 330.242 153.678 329.411 150.883 328.973C148.492 328.596 145.988 329.132 143.589 328.682C139.172 327.855 134.828 326.178 130.458 325.087C127.034 324.233 123.311 323.531 119.783 323.453C118.843 323.433 117.644 323.181 116.724 323.395C115.707 323.628 114.896 324.54 113.98 325.017C111.852 326.12 109.256 326.131 106.958 326.698C103.076 327.657 98.7012 326.376 94.7341 326.686C86.6912 327.319 78.5357 326.686 70.4423 326.426C67.5776 326.337 64.6663 326.081 61.7977 326.12C60.0975 326.143 58.4594 326.589 56.7631 326.578C53.9838 326.554 51.3558 326.092 48.6891 327.106C47.0238 327.742 45.4828 328.526 43.7477 328.973C42.5055 329.295 41.1663 329.613 40.2153 330.533C38.7674 331.938 38.8839 334.209 38.519 336.049C38.2589 337.357 37.8475 338.619 37.3933 339.869C36.384 342.652 38.1269 345.521 41.0576 345.951L158.806 363.307L245.027 366.07C247.515 366.152 249.669 364.351 250.03 361.886L258.03 307.584C258.03 307.584 258.03 307.577 258.023 307.577Z" fill="#6292F1"/>
<path d="M385.607 268.887C377.219 265.972 358.338 262.564 349.523 266.139C343.242 268.69 341.573 276.43 337.268 280.746C328.81 289.228 320.072 287.648 306.746 287.302C296.044 287.027 297.694 290.734 290.33 295.869C286.468 298.567 280.964 294.918 276.954 296.836C271.287 299.549 269.509 303.101 266.978 305.314C256.09 314.835 240.423 310.08 227.835 318.166C224.011 320.619 221.461 324.528 216.787 325.122C212.905 325.619 206.854 323.961 203.112 325.184C198.341 326.737 194.855 331.438 191.785 336.185C189.394 339.88 192.507 346.029 196.905 346.029H378.853C381.656 346.029 383.888 343.684 383.748 340.886C383.596 337.788 383.441 334.69 383.29 331.597L385.619 268.887H385.607Z" fill="url(#paint5_linear_199_2521)"/>
<g opacity="0.28">
<path d="M-36.8524 154.905C-36.8524 154.905 -12.9915 163.052 2.1395 163.052C17.2705 163.052 17.8527 161.888 21.3463 164.795C24.8398 167.706 25.4221 169.453 32.9837 168.871C40.5453 168.289 53.3511 170.614 59.1698 172.947C64.9885 175.276 70.8072 171.782 77.7943 172.947C84.7775 174.107 106.313 182.259 128.424 180.508C128.424 180.508 76.0514 178.765 45.7895 175.85C15.5276 172.939 -25.7895 162.462 -36.8446 154.901H-36.8485L-36.8524 154.905Z" fill="white"/>
</g>
<g opacity="0.28">
<path d="M150.569 145.41C150.569 145.41 171.891 149.971 184.891 148.465C197.891 146.959 198.275 145.918 201.567 148.042C204.859 150.165 205.538 151.597 211.978 150.351C218.421 149.105 229.659 149.816 234.892 151.213C240.128 152.618 244.778 149.07 250.896 149.361C257.013 149.653 276.337 154.446 295.167 150.767C295.167 150.767 249.984 154.485 223.685 155.017C197.386 155.549 160.828 150.747 150.569 145.418H150.561L150.569 145.41Z" fill="white"/>
</g>
<g opacity="0.28">
<path d="M-138.181 106.911C-138.181 106.911 31.9821 146.011 185.784 154.978C339.582 163.937 438.577 119.946 438.577 119.946L440.211 126.467C440.211 126.467 312.588 176.165 105.611 159.865C-101.371 143.574 -139 128.093 -139 128.093L-138.181 106.911Z" fill="white"/>
</g>
<path opacity="0.2" d="M-16.8926 -16C-16.8926 -16 95.5143 92.5951 308.462 102.897C308.462 102.897 306.878 97.3463 298.171 95.7587C289.465 94.1711 279.962 98.1382 277.587 92.5873C275.211 87.0365 267.296 71.1835 250.671 70.3955C234.045 69.6075 223.759 79.11 215.044 73.5669C206.334 68.0238 196.043 57.7139 187.336 58.5058C178.63 59.2977 157.257 65.6404 154.086 56.1263C150.918 46.6122 150.918 29.9713 132.709 9.3593C114.5 -11.2527 59.8801 25.2123 51.1734 13.3225C42.4822 1.44059 40.1066 -16 29.0243 -16H-16.8888H-16.8926Z" fill="white"/>
<path opacity="0.2" d="M228.13 105.257C228.13 105.257 90.7281 107.144 -4.18776 87.3199C-99.0959 67.4959 -134.982 38.2316 -134.982 38.2316C-134.982 38.2316 -114.204 47.6719 -105.233 46.7287C-96.2622 45.7816 -84.9276 34.9282 -77.3776 36.349C-69.8238 37.7697 -64.1604 56.1729 -58.0195 57.1201C-51.8786 58.0672 -48.1017 52.8696 -23.5498 53.3431C1.00212 53.8167 2.89252 69.8599 13.7536 77.4176C24.6107 84.9675 55.7732 80.2513 70.4112 79.7777C85.0492 79.3041 92.603 94.4118 102.047 96.2944C111.492 98.1771 131.323 91.1045 135.57 92.5136C139.816 93.9266 142.658 99.5978 147.374 99.1242C152.094 98.6506 151.155 93.4608 155.871 96.2905C160.591 99.1242 173.816 102.901 177.59 98.6506C181.37 94.4001 228.11 105.261 228.11 105.261H228.133L228.13 105.257Z" fill="white"/>
<path opacity="0.2" d="M189.933 57.4617C189.933 57.4617 317.021 82.9879 376.31 78.1125C376.31 78.1125 364.145 72.9381 357.286 73.6135C350.427 74.289 345.451 78.1746 337.342 70.4965C329.241 62.8223 306.781 55.6877 294.666 62.4536C282.563 69.2155 273.181 65.8656 269.745 63.2222C266.31 60.5787 262.234 63.0785 254.735 62.9233C247.224 62.7796 238.412 42.3463 227.85 42.583C217.288 42.8198 214.031 57.3413 207.708 53.611C201.388 49.8807 189.937 57.4656 189.937 57.4656L189.933 57.4617Z" fill="white"/>
<path d="M129.332 341.678H-23.2781V310.399C-21.8302 309.941 -20.293 309.483 -18.6705 309.04C-9.79297 306.614 1.65423 304.549 15.7682 304.009C23.5782 303.714 32.2112 303.881 41.6709 304.724C77.4022 307.883 109.958 327.47 129.328 341.681L129.332 341.678Z" fill="url(#paint6_linear_199_2521)"/>
<g opacity="0.34">
<path d="M129.332 341.678H123.311C115.769 336.173 102.354 326.954 91.652 322.719C75.8572 316.47 63.688 316.14 52.497 311.202C41.3138 306.265 26.505 306.595 18.2796 305.939C10.0542 305.279 1.16899 306.595 -7.38245 308.57C-11.8581 309.603 -18.2241 311.804 -23.2742 313.671V310.399C-21.8263 309.941 -20.2892 309.483 -18.6666 309.04C-9.78912 306.614 1.65808 304.549 15.772 304.009C23.5821 303.714 32.215 303.881 41.6748 304.724C77.406 307.883 109.962 327.47 129.332 341.681V341.678Z" fill="white"/>
</g>
<path opacity="0.46" d="M92.8942 341.678H-23.2781V310.399C-21.8302 309.941 -20.293 309.482 -18.6705 309.04C-18.8762 309.669 -18.9694 310.336 -18.9228 311.031C-18.7559 313.45 -16.8266 315.464 -14.6102 316.439C-12.3937 317.417 -9.90942 317.553 -7.4911 317.654C5.21378 318.193 17.9458 318.193 30.6507 317.654C32.25 317.588 33.9036 317.518 35.3942 318.096C36.8886 318.674 38.1813 320.087 38.0881 321.687C37.9522 324.004 35.1341 325.526 35.0992 327.851C35.0759 329.33 36.2792 330.607 37.6572 331.146C39.0391 331.686 40.5646 331.647 42.0475 331.593C53.9411 331.17 65.8463 330.417 77.7321 331.011C80.7056 331.154 83.7294 331.403 86.4893 332.521C89.2492 333.638 91.7452 335.766 92.603 338.619C92.9058 339.616 92.9873 340.653 92.8903 341.681L92.8942 341.678Z" fill="url(#paint7_linear_199_2521)"/>
<path d="M21.09 252.301C21.09 252.301 20.0924 261.283 19.0948 262.083C18.0972 262.882 15.1044 271.465 15.1044 271.465C15.1044 271.465 13.9049 280.047 13.1053 282.438C12.5929 283.976 10.1862 289.294 8.53652 292.907C8.53652 292.939 8.53652 292.966 8.53652 292.997C8.53652 293.09 8.53653 293.183 8.54429 293.276C8.83542 306.983 9.73985 344.022 9.73985 344.022L-0.604937 344.154L-4.18777 344.201L-10.8837 344.282L-7.09129 281.355C-7.09129 281.355 -10.4568 274.877 -10.9769 273.584C-11.4971 272.288 -13.0459 262.188 -13.0459 260.635C-13.0459 259.843 -15.0644 256.427 -17.044 253.263C-18.9461 250.228 -20.8132 247.425 -20.8132 247.425L-25.9992 241.471L-30.1371 231.891L-29.7683 231.444L-28.8484 230.338L-24.1825 238.362C-24.1825 238.362 -13.3098 250.278 -12.0094 251.315C-10.7207 252.351 -7.87153 261.931 -7.60757 262.968C-7.39019 263.857 -3.90052 271.271 -2.93397 273.32C-2.77482 273.65 -2.68554 273.84 -2.68554 273.84L-2.66613 273.417L-1.39681 243.544V217.901L-0.143011 217.668L1.63094 217.338L2.75275 217.128L5.20212 237.927C5.20212 237.927 5.21765 237.907 5.24094 237.876C5.75333 237.255 10.7258 231.25 10.9742 230.509C11.2343 229.736 11.5526 222.051 11.5526 222.051L13.2839 220.533L13.6216 220.234C13.6216 220.234 14.658 226.192 14.922 227.489C15.1782 228.785 13.1053 235.52 12.329 236.557C11.6264 237.492 6.4598 244.161 5.49325 245.415C5.39232 245.547 5.33798 245.62 5.33798 245.62C5.33798 245.62 5.59806 249.06 5.94353 253.26C6.44039 259.303 7.10805 266.931 7.4147 268.154C7.62044 268.988 7.83005 272.039 8.01249 275.537L9.37886 274.582L12.1155 272.664L14.3125 261.885C14.3125 261.885 16.5057 260.689 17.3053 260.285C18.105 259.89 18.7028 251.703 18.7028 251.703L20.3486 252.114L21.0978 252.301H21.09Z" fill="url(#paint8_linear_199_2521)"/>
<g opacity="0.45">
<path d="M21.0901 252.301C21.0901 252.301 20.0925 261.283 19.0949 262.083C18.0972 262.882 15.1044 271.465 15.1044 271.465C15.1044 271.465 14.3203 279.609 13.5207 282.004C13.0083 283.541 10.1902 289.298 8.53656 292.911C8.53656 292.942 8.53656 292.97 8.53656 293.001C7.53896 290.058 8.8471 284.884 9.64674 284.038C10.6599 282.966 13.9438 275.083 14.2427 274.365C14.5416 273.65 14.2427 273.231 14.1224 272.214C14.002 271.197 16.0904 267.851 16.2146 267.315C16.3349 266.78 15.7372 265.165 15.6789 264.268C15.6168 263.371 18.1283 262.059 18.664 261.283C19.1997 260.507 19.2618 259.432 19.4986 258.24C19.6965 257.254 20.1779 253.423 20.337 252.111L21.0862 252.297L21.0901 252.301Z" fill="white"/>
</g>
<g opacity="0.45">
<path d="M12.329 236.557C11.6264 237.492 6.45979 244.161 5.49324 245.415C5.1206 244.871 4.91487 244.204 4.91876 243.548C4.93428 242.216 5.67957 240.982 6.65 240.07C7.25555 239.495 7.95038 239.025 8.52875 238.428C9.23523 237.698 9.7515 236.813 10.2561 235.932C11.0946 234.476 11.933 233.024 12.7676 231.569C13.0354 231.103 13.311 230.621 13.3731 230.09C13.4236 229.62 13.3072 229.143 13.3615 228.673C13.4353 228.063 13.7924 227.532 13.9709 226.945C14.5881 224.869 12.8413 222.54 13.2839 220.541L13.6216 220.242C13.6216 220.242 14.658 226.2 14.922 227.497C15.1781 228.793 13.1053 235.528 12.329 236.564V236.557Z" fill="white"/>
</g>
<g opacity="0.45">
<path d="M5.23708 237.88C5.22544 237.935 5.21768 237.989 5.20603 238.043C5.13616 238.381 4.89549 238.816 4.56942 238.692C4.3831 238.622 4.31323 238.4 4.26665 238.206C3.95611 236.894 3.64947 235.586 3.34281 234.278C3.08662 233.191 2.82653 232.093 2.82265 230.975C2.81489 229.705 3.13319 228.459 3.15648 227.194C3.21471 223.863 1.25444 220.521 1.63097 217.342L2.75278 217.132L5.20215 237.931C5.20215 237.931 5.21768 237.911 5.24097 237.88H5.23708Z" fill="white"/>
</g>
<g opacity="0.45">
<path d="M9.37498 274.578C9.36333 274.733 9.3478 274.889 9.32451 275.048C9.23911 275.673 9.02174 276.364 8.45501 276.635C7.78735 276.958 6.96055 276.492 6.61508 275.832C6.27348 275.176 6.28124 274.396 6.29289 273.658C6.33558 270.425 6.21525 267.191 6.0988 263.962C6.04057 262.366 5.98235 260.771 5.8232 259.183C5.69122 257.894 4.79843 255.565 5.13614 254.339C5.30694 253.718 5.58253 253.384 5.94353 253.256C6.44039 259.3 7.10805 266.927 7.41471 268.15C7.62044 268.984 7.83006 272.035 8.0125 275.533L9.37886 274.578H9.37498Z" fill="white"/>
</g>
<g opacity="0.45">
<path d="M9.73987 344.026L-0.604922 344.158C-0.7796 342.299 -0.306029 340.346 1.03317 339.069C1.94537 338.196 3.18364 337.703 4.0609 336.798C5.37293 335.44 5.66794 333.433 5.89697 331.558C6.36665 327.727 6.83634 323.814 6.04059 320.037C5.36905 316.846 3.81636 313.5 5.05463 310.48C5.85814 308.524 7.73691 307.095 8.25317 305.042C8.80438 302.856 7.66315 300.625 7.43025 298.381C7.24393 296.622 7.6515 294.81 8.54818 293.28C8.83931 306.987 9.74375 344.026 9.74375 344.026H9.73987Z" fill="white"/>
</g>
<path opacity="0.3" d="M-0.329283 265.856C-0.403036 267.544 -0.476784 269.245 -0.251644 270.922C-0.042031 272.49 0.357786 274.322 -0.73686 275.459C-0.864956 275.591 -1.02023 275.715 -1.20267 275.719C-1.51709 275.727 -1.71894 275.397 -1.8548 275.114C-2.12652 274.551 -2.39824 273.984 -2.66608 273.417L-1.39676 243.544V217.901L-0.142956 217.668C-0.857193 222.004 -0.810618 226.464 -0.0148647 230.788C0.233566 232.12 0.547987 233.443 0.714901 234.787C0.95945 236.774 0.870175 238.781 0.780896 240.776C0.412132 249.137 0.043366 257.495 -0.325398 265.852L-0.329283 265.856Z" fill="url(#paint9_linear_199_2521)"/>
<path d="M44.2561 246.412C42.7694 247.647 40.914 248.578 38.8683 249.281C29.7501 252.41 16.9405 250.911 16.9405 250.911C4.15017 250.911 11.9291 241.059 11.9291 241.059C11.9291 241.059 11.0402 240.45 10.2173 239.491C9.00233 238.074 7.93097 235.893 10.0853 233.785C10.4347 233.44 10.8733 233.098 11.4051 232.76C17.4567 228.956 37.1642 227.229 43.5613 228.44C49.9584 229.647 42.6957 237.601 42.6957 237.601C42.6957 237.601 45.4168 238.183 46.7637 239.736C47.9593 241.11 48.0719 243.249 44.2523 246.416L44.2561 246.412Z" fill="url(#paint10_linear_199_2521)"/>
<path d="M44.2561 246.412C42.7694 247.647 40.914 248.578 38.8683 249.281C29.7501 252.41 16.9405 250.907 16.9405 250.907C4.15017 250.907 11.9291 241.055 11.9291 241.055C11.9291 241.055 11.0402 240.446 10.2173 239.487C9.00233 238.07 7.93097 235.889 10.0853 233.781C10.0853 233.801 10.0776 233.82 10.0737 233.839C9.79808 235.248 10.3765 236.786 11.506 237.671C13.4158 239.165 16.1331 238.606 18.563 238.676C17.1229 239.685 15.6789 240.694 14.2388 241.704C14.033 241.847 13.8157 242.01 13.7419 242.251C13.6837 242.437 13.7264 242.647 13.8001 242.829C14.2271 243.877 15.5003 244.262 16.6183 244.44C22.2972 245.364 28.1159 244.499 33.7134 243.156C38.0842 242.107 42.389 240.76 46.7637 239.732C47.9593 241.106 48.0719 243.245 44.2523 246.412H44.2561Z" fill="url(#paint11_linear_199_2521)"/>
<path d="M38.8722 249.281C29.754 252.409 16.9443 250.911 16.9443 250.911C4.15407 250.911 11.933 241.059 11.933 241.059C11.933 241.059 11.0441 240.45 10.2212 239.491C11.0674 239.844 11.968 240.081 12.7637 240.531C13.016 240.675 13.28 240.877 13.3072 241.168C13.3421 241.564 12.919 241.828 12.5852 242.045C11.5332 242.744 10.8811 244.009 10.9238 245.271C10.9626 246.533 11.6963 247.755 12.7909 248.384C13.3305 248.691 13.9399 248.862 14.5493 248.99C21.5947 250.469 28.869 246.734 35.9881 247.771C37.1021 247.93 38.3365 248.326 38.8683 249.285L38.8722 249.281Z" fill="url(#paint12_linear_199_2521)"/>
<path d="M42.948 213.81C42.948 213.81 43.507 214.062 43.9767 214.532C44.753 215.304 45.2809 216.659 42.6142 218.406C42.3541 218.576 42.063 218.751 41.7369 218.93C36.0812 222.027 25.5889 220.568 25.5889 220.568C17.9109 221.779 13.4508 220.548 14.3902 217.583C15.3334 214.621 18.5669 212.599 18.5669 212.599C18.5669 212.599 17.5343 211.407 19.1026 209.369C21.5325 206.209 24.5991 203.278 31.0699 203.139C31.493 203.131 31.8812 203.139 32.2344 203.154C32.8633 203.181 33.3912 203.251 33.8298 203.352C36.9197 204.039 35.6736 206.132 35.6736 206.132C35.6736 206.132 46.9889 203.034 49.2791 207.211C51.5693 211.387 42.948 213.81 42.948 213.81Z" fill="url(#paint13_linear_199_2521)"/>
<path d="M41.9582 218.406C41.6981 218.576 41.407 218.751 41.0809 218.93C35.4252 222.027 24.9329 220.568 24.9329 220.568C17.2549 221.779 12.7948 220.548 13.7342 217.583C14.6774 214.621 17.9109 212.599 17.9109 212.599C17.9109 212.599 16.8783 211.407 18.4466 209.369C20.8765 206.209 23.9431 203.278 30.4139 203.139C30.837 203.131 31.2252 203.139 31.5784 203.154C32.2073 203.181 32.7352 203.251 33.1738 203.352C32.3936 204.16 31.6716 205.033 31.33 206.089C30.903 207.401 31.264 209.078 32.4906 209.703C30.6274 210.794 28.8457 212.016 27.1649 213.375C26.571 213.852 25.9499 214.423 25.8839 215.18C25.8141 215.968 26.408 216.686 27.1261 217.016C27.8442 217.342 28.6594 217.354 29.4474 217.334C33.4456 217.233 37.4321 216.5 41.209 215.172C41.8999 214.928 42.5986 214.664 43.3168 214.536C44.0931 215.308 44.621 216.663 41.9543 218.409L41.9582 218.406Z" fill="url(#paint14_linear_199_2521)"/>
<path d="M41.9582 218.406C41.6981 218.576 41.407 218.751 41.0809 218.93C35.4252 222.027 24.9329 220.568 24.9329 220.568C17.2549 221.779 12.7948 220.548 13.7342 217.583C14.6774 214.621 17.9109 212.599 17.9109 212.599C17.9109 212.599 16.8783 211.407 18.4466 209.369C20.8765 206.209 23.9431 203.278 30.4139 203.139C30.837 203.131 31.2252 203.139 31.5784 203.154L31.2019 203.181C29.2145 204.004 27.7045 205.883 27.3241 207.999C27.1766 208.825 27.1804 209.703 26.7806 210.444C26.2566 211.43 25.1619 211.931 24.2226 212.533C22.9105 213.375 21.8004 214.524 21.0085 215.867C20.6281 216.515 20.3176 217.311 20.6242 217.998C20.9891 218.813 22.0488 219.054 22.9338 218.949C23.8189 218.844 24.6845 218.503 25.5734 218.58C26.5788 218.662 27.4716 219.263 28.4498 219.5C30.4062 219.974 32.4091 218.953 34.4199 218.937C35.7358 218.926 37.0323 219.341 38.3443 219.248C39.5748 219.159 40.7471 218.631 41.9543 218.409L41.9582 218.406Z" fill="url(#paint15_linear_199_2521)"/>
<path d="M20.2749 212.047C17.5228 215.277 9.60794 215.335 9.60794 215.335C9.60794 215.335 9.02957 217.311 6.03676 219.104C3.04395 220.902 -3.05424 219.582 -3.05424 219.582C-14.9013 218.386 -7.00196 210.852 -7.00196 210.852C-7.00196 210.852 -11.9046 209.416 -10.7129 207.382C-10.6081 207.203 -10.4994 207.036 -10.3829 206.877C-9.16019 205.169 -7.36296 204.272 -7.36296 204.272C-7.36296 204.272 -7.85205 203.997 -8.182 203.461C-8.50418 202.941 -8.67498 202.168 -8.08108 201.159C-6.88551 199.125 -0.542772 194.941 4.36373 194.459C9.26634 193.982 9.39056 199.366 9.39056 199.366C9.39056 199.366 17.4917 198.015 20.7912 199.991C21.1677 200.216 21.4821 200.484 21.7111 200.798C23.9858 203.907 18.0002 207.261 18.0002 207.261C18.0002 207.261 19.3394 207.673 20.2594 208.523C21.1172 209.315 21.6063 210.483 20.2749 212.047Z" fill="url(#paint16_linear_199_2521)"/>
<path d="M19.3898 212.385C16.6377 215.615 8.72287 215.673 8.72287 215.673C8.72287 215.673 8.14449 217.649 5.15168 219.442C2.15887 221.239 -3.93931 219.92 -3.93931 219.92C-15.7863 218.724 -7.88703 211.19 -7.88703 211.19C-7.88703 211.19 -12.7896 209.753 -11.598 207.719C-11.4932 207.541 -11.3845 207.374 -11.268 207.215C-10.0453 205.507 -8.24803 204.61 -8.24803 204.61C-8.24803 204.61 -8.73712 204.334 -9.06707 203.799C-7.84821 204.61 -6.28387 204.82 -4.80106 204.944C-5.64339 205.231 -6.49737 205.53 -7.19996 206.07C-7.90643 206.613 -8.43823 207.452 -8.38001 208.337C-8.32178 209.253 -7.62695 210.037 -6.79238 210.417C-5.95393 210.798 -5.00291 210.821 -4.09071 210.712C-4.23821 212.222 -3.26778 213.705 -1.91694 214.392C-0.56998 215.079 1.072 215.036 2.49271 214.509C3.94447 213.969 5.20991 212.94 6.03284 211.628C8.54431 212.284 11.2072 212.358 13.7536 211.842C14.5532 211.683 15.3684 211.45 15.9778 210.914C16.5911 210.378 16.9405 209.466 16.6105 208.725C16.2534 207.929 15.3101 207.615 14.4678 207.386C16.3815 206.893 18.1166 205.744 19.32 204.171C20.1584 203.069 20.6436 201.369 19.9061 200.329C20.2826 200.554 20.5971 200.822 20.8261 201.136C23.1008 204.245 17.1152 207.599 17.1152 207.599C17.1152 207.599 18.4543 208.01 19.3743 208.861C20.2322 209.652 20.7213 210.821 19.3898 212.385Z" fill="url(#paint17_linear_199_2521)"/>
<path d="M46.9074 212.703C44.1553 215.933 36.2404 215.991 36.2404 215.991C36.2404 215.991 35.6621 217.967 32.6693 219.76C29.6764 221.558 23.5783 220.238 23.5783 220.238C11.7312 219.042 19.6305 211.508 19.6305 211.508C19.6305 211.508 14.7279 210.072 15.9196 208.038C16.0244 207.859 16.1331 207.692 16.2496 207.533C16.4825 207.731 16.696 207.964 16.8784 208.201C17.4102 208.884 17.8605 209.672 18.6019 210.118C19.0405 210.378 19.5451 210.502 19.9993 210.735C20.4573 210.968 20.8805 211.368 20.9154 211.877C20.9348 212.148 20.8416 212.412 20.7562 212.668C20.5466 213.301 20.3991 214.015 20.698 214.609C21.0008 215.207 21.9441 215.463 22.3322 214.924C24.0906 216.76 26.6681 217.777 29.2068 217.629C31.7454 217.482 34.1948 216.177 35.7281 214.155C37.4942 214.186 39.2759 214.217 41.0111 213.891C42.7501 213.565 44.4619 212.855 45.7002 211.593C46.3407 210.945 46.8414 210.06 46.8919 209.183C47.7498 209.975 48.2388 211.143 46.9074 212.707V212.703Z" fill="url(#paint18_linear_199_2521)"/>
<path d="M29.4862 217.253C29.4202 217.513 29.3232 217.757 29.1912 217.986C27.7356 220.513 22.4331 221.127 18.4582 221.849C14.1224 222.637 10.8423 223.817 7.95428 220.929C5.06628 218.041 7.43026 216.729 7.43026 216.729C7.43026 216.729 2.83429 216.861 3.4903 214.365C3.59511 213.957 3.92506 213.596 4.39475 213.278C5.01583 212.855 5.89309 212.502 6.85188 212.218C9.61955 211.384 13.0782 211.081 13.0782 211.081C13.0782 211.081 23.8461 207.801 26.7341 209.637C29.6221 211.477 25.2901 213.705 25.2901 213.705C25.2901 213.705 27.4444 213.876 28.6982 214.889C29.3542 215.417 29.7618 216.174 29.4901 217.253H29.4862Z" fill="url(#paint19_linear_199_2521)"/>
<path d="M34.3228 215.875L33.8259 215.584C34.0161 215.642 34.183 215.743 34.3228 215.875Z" fill="url(#paint20_linear_199_2521)"/>
<path d="M29.9249 218.996C29.8589 219.256 29.7618 219.5 29.6299 219.729C28.1742 222.256 22.8718 222.87 18.8969 223.592C14.561 224.38 11.2809 225.56 8.39294 222.672C5.50494 219.784 7.86891 218.472 7.86891 218.472C7.86891 218.472 3.27295 218.604 3.92896 216.108C4.03377 215.7 4.36372 215.339 4.83341 215.021C5.45449 214.598 6.33175 214.244 7.29054 213.961C7.33712 214.322 7.37981 214.687 7.51956 215.017C8.0203 216.181 9.53418 216.438 10.7996 216.523C10.0466 217.245 9.96504 218.503 10.4891 219.399C11.0131 220.296 12.0418 220.832 13.0821 220.905C14.1224 220.983 15.1549 220.645 16.0555 220.117C16.203 220.036 16.3505 219.939 16.5135 219.916C16.7115 219.885 16.9133 219.947 17.1074 220.009C20.3176 221.002 23.9082 220.719 26.9243 219.229C27.7705 218.813 28.6167 218.254 28.9894 217.389C29.0903 217.156 29.1408 216.892 29.1408 216.632C29.7968 217.16 30.2044 217.916 29.9326 218.996H29.9249Z" fill="url(#paint21_linear_199_2521)"/>
<path d="M29.6299 219.729C28.1742 222.256 22.8718 222.87 18.8969 223.592C14.561 224.38 11.2809 225.56 8.39294 222.672C5.50494 219.784 7.86891 218.472 7.86891 218.472C7.86891 218.472 3.27295 218.604 3.92896 216.108C4.03377 215.7 4.36372 215.339 4.83341 215.021C4.88387 215.886 5.38073 216.76 6.09884 217.276C7.18184 218.056 8.61032 218.188 9.94563 218.083C9.09942 218.549 8.31531 219.283 8.14839 220.23C7.91937 221.507 8.90922 222.761 10.1126 223.246C11.3159 223.735 12.6667 223.638 13.9555 223.479C17.3675 223.056 20.7252 222.26 24.0751 221.464C25.9694 221.014 27.8831 220.556 29.6337 219.729H29.6299Z" fill="url(#paint22_linear_199_2521)"/>
<path d="M16.1874 341.922C16.1874 341.922 14.5649 324.198 19.4054 315.569C22.3439 310.329 27.786 308.489 31.6057 307.852" stroke="url(#paint23_linear_199_2521)" stroke-width="0.74" stroke-miterlimit="10"/>
<path d="M29.4901 310.635C27.5104 311.555 22.895 314.253 20.6669 317.122C18.5552 319.843 16.5251 317.351 17.4994 315.053C17.5538 314.929 17.6159 314.801 17.6857 314.676C18.8231 312.728 24.6263 307.324 28.2246 307.297C29.0281 307.289 29.7191 307.549 30.2276 308.174C30.2276 308.174 31.4697 309.723 29.4901 310.639V310.635Z" fill="url(#paint24_linear_199_2521)"/>
<g opacity="0.28">
<path d="M29.4901 310.635C27.5104 311.555 22.895 314.253 20.6669 317.122C18.5552 319.843 16.5251 317.351 17.4994 315.053C18.4854 315.328 19.8052 315.305 21.5636 314.684C25.6122 313.252 27.4599 309.533 28.2285 307.297C29.032 307.289 29.723 307.549 30.2315 308.174C30.2315 308.174 31.4736 309.723 29.4939 310.639L29.4901 310.635Z" fill="#82007E"/>
</g>
<path d="M40.7432 317.762C40.685 318.015 36.9081 334.112 38.7596 339.706C38.7596 339.706 45.2615 329.551 40.7432 317.766V317.762Z" fill="url(#paint25_linear_199_2521)"/>
<g opacity="0.28">
<path d="M40.7354 317.766C40.6772 318.015 36.9042 334.104 38.7558 339.694C38.7558 339.694 41.5972 329.45 40.7354 317.766Z" fill="#82007E"/>
</g>
<path d="M54.3681 324.842C54.1546 325.002 40.6384 334.904 37.9988 340.746C37.9988 340.746 49.2131 337.625 54.3719 324.842H54.3681Z" fill="url(#paint26_linear_199_2521)"/>
<g opacity="0.28">
<path d="M54.3642 324.842C54.1507 324.998 40.6346 334.9 37.995 340.742C37.995 340.742 46.8919 334.768 54.3642 324.842Z" fill="#82007E"/>
</g>
<path d="M50.2107 314.055C50.0399 314.358 39.0508 333.444 39.0275 341.53C39.0275 341.53 50.8978 331.383 50.2146 314.055H50.2107Z" fill="url(#paint27_linear_199_2521)"/>
<g opacity="0.28">
<path d="M50.0399 314.059C49.873 314.354 39.0313 333.375 39.0081 341.433C39.0081 341.433 46.4299 329.524 50.0399 314.059Z" fill="#82007E"/>
</g>
<path d="M52.1555 327.971C52.0235 328.115 43.6467 337.326 42.6025 341.879C42.6025 341.879 50.3233 337.831 52.1593 327.971H52.1555Z" fill="url(#paint28_linear_199_2521)"/>
<g opacity="0.28">
<path d="M52.1089 327.971C51.9769 328.115 43.6389 337.311 42.5986 341.856C42.5986 341.856 48.1689 336.189 52.1089 327.971Z" fill="#82007E"/>
</g>
<path d="M58.0751 338.161C57.8849 338.176 45.5333 339.143 41.5428 342.07C41.5428 342.07 49.7255 344.833 58.0751 338.161Z" fill="url(#paint29_linear_199_2521)"/>
<g opacity="0.28">
<path d="M58.0712 338.161C57.881 338.176 45.5294 339.147 41.5389 342.07C41.5389 342.07 49.446 341.813 58.0712 338.161Z" fill="#82007E"/>
</g>
<path d="M59.7482 329.244C59.523 329.376 45.1102 337.687 41.8573 343.23C41.8573 343.23 53.2385 341.456 59.7482 329.244Z" fill="url(#paint30_linear_199_2521)"/>
<g opacity="0.28">
<path d="M59.7482 329.248C59.523 329.376 45.1102 337.687 41.8573 343.234C41.8573 343.234 51.2821 338.316 59.7482 329.248Z" fill="#82007E"/>
</g>
<path d="M37.9911 342.695H9.06445C9.06445 342.695 9.36334 333.561 10.9549 326.419C11.4634 324.148 12.1 322.079 12.8957 320.561C16.2068 314.288 17.9497 329.625 17.9497 329.625C17.9497 329.625 20.9115 321.26 24.2226 319.866C27.5337 318.473 28.4032 329.8 28.4032 329.8C28.4032 329.8 31.8929 322.133 36.0735 322.308C40.2541 322.479 37.9872 342.695 37.9872 342.695H37.9911Z" fill="url(#paint31_linear_199_2521)"/>
<g opacity="0.46">
<path d="M37.5835 342.694H9.06445C9.06445 342.694 9.36334 333.561 10.9549 326.418C11.3314 325.145 11.7623 323.996 12.2552 323.065C15.5625 316.792 17.3054 332.128 17.3054 332.128C17.3054 332.128 20.2671 323.763 23.5821 322.37C26.8893 320.976 27.7627 332.303 27.7627 332.303C27.7627 332.303 31.2485 324.637 35.4291 324.811C38.6936 324.947 38.0338 337.283 37.5835 342.702V342.694Z" fill="#4194F2"/>
</g>
<path d="M49.8555 279.308L47.3325 285.813L46.3047 288.465C46.3047 288.465 43.626 286.543 42.1443 283.455C40.667 280.371 39.9106 274.698 41.3434 274.538C41.3478 274.533 41.3523 274.533 41.3567 274.533C42.8073 274.409 43.7818 276.959 45.6461 278.191C47.5061 279.424 49.8599 279.308 49.8599 279.308H49.8555Z" fill="#FFBF59"/>
<path opacity="0.13" d="M47.3325 285.813L46.3047 288.465C46.3047 288.465 43.626 286.543 42.1443 283.455C40.667 280.371 39.9106 274.698 41.3434 274.538C41.5748 275.588 42.3846 278.845 44.2178 281.964C45.8464 284.736 46.892 285.564 47.337 285.813H47.3325Z" fill="#590800"/>
<path d="M84.9006 274.703C84.8294 275.116 84.7627 275.472 84.7004 275.784C84.5847 276.322 84.4779 276.718 84.3934 276.999C84.2465 277.479 84.1531 277.63 84.1531 277.63L76.6199 275.624C76.6199 275.624 76.8957 275.423 77.3096 275.09C78.1283 274.436 79.4721 273.265 80.2107 272.144C80.8782 271.134 81.4877 269.986 82.1418 269.247C82.5734 268.758 83.0318 268.451 83.5346 268.486C84.8027 268.571 85.3011 272.353 84.9006 274.707V274.703Z" fill="#FFBF59"/>
<path opacity="0.13" d="M84.7004 275.779C84.5847 276.318 84.4779 276.714 84.3934 276.994L77.3096 275.081C78.1283 274.427 79.4721 273.256 80.2107 272.135C80.8782 271.125 81.4877 269.977 82.1418 269.238C82.1908 269.817 82.3287 270.898 82.6713 272.544C83.0763 274.476 84.1486 275.414 84.7004 275.779Z" fill="#590800"/>
<path d="M92.7142 304.671C92.7142 304.671 98.0448 312.756 98.8858 313.975C99.7268 315.194 100.181 315.546 102.299 318.789C103.429 320.525 103.687 322.803 103.344 322.927C103.002 323.052 102.81 321.668 102.463 320.974C102.116 320.28 101.658 319.728 101.658 319.728C101.658 319.728 101.974 320.36 102.303 322.282C102.632 324.204 102.352 324.948 102.005 324.93C101.658 324.912 101.72 323.746 101.391 322.376C101.062 321.005 100.572 320.089 100.572 320.089C100.572 320.089 100.87 320.734 100.839 322.451C100.808 324.169 100.777 324.863 100.368 324.845C99.9581 324.827 100.052 323.172 99.927 322.496C99.8024 321.819 99.6289 320.369 99.6289 320.369C99.6289 320.369 99.6467 321.584 99.5488 322.34C99.4509 323.097 99.4064 324.058 99.0593 324.12C98.7122 324.182 98.7746 322.687 98.7123 321.993C98.65 321.299 98.5877 319.755 98.4453 319.644C98.3029 319.532 97.5776 320.275 97.453 320.872C97.3284 321.472 97.0436 321.833 96.7455 321.69C96.4474 321.548 96.7767 320.333 97.0614 319.564C97.3462 318.789 98.3385 316.929 98.2895 316.662C98.2406 316.395 91.1613 310.331 91.1613 310.331C91.1613 310.331 91.4327 305.36 92.7275 304.662L92.7142 304.671Z" fill="#B70400"/>
<path d="M49.7709 310.411C49.7709 310.411 44.4403 318.496 43.5993 319.715C42.7583 320.934 42.3045 321.286 40.1865 324.529C39.0563 326.265 38.7982 328.543 39.1408 328.667C39.4879 328.792 39.6748 327.408 40.0218 326.714C40.3689 326.02 40.8272 325.468 40.8272 325.468C40.8272 325.468 40.5113 326.1 40.182 328.022C39.8527 329.944 40.1331 330.688 40.4801 330.67C40.8272 330.652 40.7649 329.486 41.0942 328.116C41.4234 326.745 41.9129 325.829 41.9129 325.829C41.9129 325.829 41.6148 326.474 41.6459 328.191C41.6771 329.909 41.7082 330.603 42.1176 330.585C42.527 330.567 42.4335 328.912 42.5581 328.236C42.6827 327.559 42.8562 326.109 42.8562 326.109C42.8562 326.109 42.8384 327.324 42.9363 328.08C43.0298 328.836 43.0787 329.798 43.4258 329.86C43.7729 329.922 43.7106 328.427 43.7728 327.733C43.8351 327.039 43.8975 325.495 44.0398 325.384C44.1822 325.272 44.9075 326.015 45.0321 326.612C45.1567 327.212 45.4414 327.573 45.7396 327.43C46.0377 327.288 45.7084 326.073 45.4237 325.304C45.1389 324.529 44.1466 322.669 44.1956 322.402C44.2445 322.135 51.3238 316.071 51.3238 316.071C51.3238 316.071 51.0524 311.1 49.7576 310.402L49.7709 310.411Z" fill="url(#paint32_linear_199_2521)"/>
<path opacity="0.5" d="M50.4962 313.094L44.2089 322.411L51.1904 316.182L50.4962 313.094Z" fill="#B70400"/>
<path d="M93.7286 316.306C93.0567 322.273 91.5438 328.578 91.3792 335.894C91.2057 343.209 86.2488 349.683 86.2488 349.683H84.202C84.202 349.683 84.202 349.634 84.1931 349.541C84.1397 348.7 83.7259 344.277 81.3765 340.935C78.7735 337.237 66.9953 340.014 64.3078 342.532C61.6202 345.051 57.3308 351.863 57.3308 351.863L56.076 352.535C56.076 352.535 52.0357 344.045 52.1158 329.166C52.2004 314.286 48.5028 309.409 46.5672 298.931C45.6328 293.871 45.4236 287.798 47.7063 282.774C47.7107 282.77 47.7063 282.765 47.7063 282.765C47.7107 282.756 47.7152 282.752 47.7152 282.739C49.7264 278.338 53.6554 274.743 60.6992 273.345C61.816 273.123 63.004 272.958 64.2811 272.851C64.7705 272.811 65.2689 272.776 65.7851 272.754C78.0793 272.211 86.4757 277.105 87.9219 278.858C88.042 279.005 88.1177 279.13 88.1399 279.228C88.4336 280.487 88.3134 282.36 87.2989 286.058C86.2889 289.756 87.0942 296.127 91.2101 302.032C95.3305 307.932 94.4094 310.335 93.7331 316.302L93.7286 316.306Z" fill="url(#paint33_linear_199_2521)"/>
<path d="M65.3802 310.215C70.6293 310.215 74.8845 304.491 74.8845 297.431C74.8845 290.371 70.6293 284.647 65.3802 284.647C60.131 284.647 55.8758 290.371 55.8758 297.431C55.8758 304.491 60.131 310.215 65.3802 310.215Z" fill="#B70400"/>
<path d="M87.1388 294.748C87.1388 296.964 86.4402 298.962 85.3189 300.359C85.1453 300.573 84.9629 300.777 84.7716 300.955C84.4734 300.982 84.1442 301.013 83.7926 301.053C83.6992 301.062 83.6058 301.075 83.5079 301.084H83.5034C83.0095 301.147 82.4711 301.227 81.9016 301.325C81.381 301.414 80.9182 301.498 80.4955 301.574C80.2285 301.623 79.9793 301.667 79.748 301.712C79.5922 301.738 79.4498 301.765 79.3163 301.792C79.0805 301.663 78.8491 301.503 78.6266 301.325C76.9625 299.999 75.8456 297.551 75.8456 294.748C75.8456 290.534 78.3775 287.112 81.4922 287.112C84.6069 287.112 87.1388 290.53 87.1388 294.748Z" fill="#B70400"/>
<path d="M65.7851 308.947C70.4567 308.947 74.2438 303.791 74.2438 297.431C74.2438 291.071 70.4567 285.916 65.7851 285.916C61.1135 285.916 57.3264 291.071 57.3264 297.431C57.3264 303.791 61.1135 308.947 65.7851 308.947Z" fill="#CAE7EF"/>
<path d="M66.1855 308.404C70.6359 308.404 74.2437 303.491 74.2437 297.431C74.2437 291.371 70.6359 286.458 66.1855 286.458C61.7351 286.458 58.1273 291.371 58.1273 297.431C58.1273 303.491 61.7351 308.404 66.1855 308.404Z" fill="white"/>
<path d="M69.3136 303.661C71.8399 303.661 73.8878 300.872 73.8878 297.431C73.8878 293.991 71.8399 291.202 69.3136 291.202C66.7873 291.202 64.7394 293.991 64.7394 297.431C64.7394 300.872 66.7873 303.661 69.3136 303.661Z" fill="url(#paint34_linear_199_2521)"/>
<path d="M73.3004 297.431C73.3004 299.892 71.8365 301.885 70.03 301.885C68.2234 301.885 66.7595 299.892 66.7595 297.431C66.7595 294.97 68.2234 292.977 70.03 292.977C71.8365 292.977 73.3004 294.97 73.3004 297.431Z" fill="#590800"/>
<path d="M64.9975 300.016C66.4252 300.016 67.5827 298.859 67.5827 297.431C67.5827 296.003 66.4252 294.846 64.9975 294.846C63.5697 294.846 62.4122 296.003 62.4122 297.431C62.4122 298.859 63.5697 300.016 64.9975 300.016Z" fill="white"/>
<path d="M69.0867 299.611C69.6101 299.611 70.0345 299.187 70.0345 298.664C70.0345 298.14 69.6101 297.716 69.0867 297.716C68.5632 297.716 68.1389 298.14 68.1389 298.664C68.1389 299.187 68.5632 299.611 69.0867 299.611Z" fill="white"/>
<path d="M85.8573 295.625C85.8573 296.154 85.8083 296.67 85.7149 297.16C85.5013 298.37 85.0341 299.447 84.3934 300.27C84.162 300.573 83.9039 300.844 83.628 301.075C83.539 301.084 83.4456 301.098 83.3522 301.107H83.3477C82.8627 301.169 82.3377 301.244 81.777 301.338C81.2697 301.422 80.8114 301.503 80.4021 301.578C80.1395 301.623 79.8992 301.667 79.6723 301.707C79.3742 301.569 79.085 301.4 78.818 301.187C77.3986 300.083 76.4464 298.001 76.4464 295.616C76.4464 292.074 78.551 289.204 81.154 289.204C83.3566 289.204 85.2032 291.268 85.7149 294.058C85.8128 294.552 85.8617 295.077 85.8617 295.616L85.8573 295.625Z" fill="#CAE7EF"/>
<path d="M85.8573 295.625C85.8573 296.154 85.8084 296.67 85.7149 297.16C85.4836 298.383 84.9763 299.456 84.2955 300.257C84.0063 300.59 83.6904 300.875 83.3477 301.111H83.3433C82.8583 301.173 82.3332 301.249 81.7726 301.342C81.2653 301.427 80.807 301.507 80.3977 301.583C79.9794 301.462 79.5834 301.253 79.2229 300.982C78.1595 300.19 77.3586 298.828 77.0382 297.2C76.9848 296.919 76.9403 296.63 76.9181 296.332C76.8958 296.096 76.8869 295.865 76.8869 295.625C76.8869 292.256 78.8937 289.52 81.3721 289.52C83.4501 289.52 85.1988 291.446 85.7105 294.063C85.8084 294.557 85.8573 295.082 85.8573 295.62V295.625Z" fill="white"/>
<path d="M82.1508 296.31C82.1508 298.223 81.0117 299.776 79.6056 299.776C78.1995 299.776 77.0604 298.223 77.0604 296.31C77.0604 294.396 78.1995 292.844 79.6056 292.844C81.0117 292.844 82.1508 294.396 82.1508 296.31Z" fill="url(#paint35_linear_199_2521)"/>
<path d="M80.9538 296.457C80.9538 297.827 80.1395 298.935 79.1339 298.935C78.1283 298.935 77.314 297.827 77.314 296.457C77.314 295.086 78.1283 293.978 79.1339 293.978C80.1395 293.978 80.9538 295.086 80.9538 296.457Z" fill="#590800"/>
<path d="M79.3476 296.599C79.3476 297.275 78.7958 297.827 78.1195 297.827C77.4431 297.827 76.8914 297.275 76.8914 296.599C76.8914 295.923 77.4431 295.371 78.1195 295.371C78.7958 295.371 79.3476 295.923 79.3476 296.599Z" fill="white"/>
<path d="M80.8248 297.302C80.8248 297.591 80.589 297.827 80.2998 297.827C80.0105 297.827 79.7747 297.591 79.7747 297.302C79.7747 297.013 80.0105 296.777 80.2998 296.777C80.589 296.777 80.8248 297.013 80.8248 297.302Z" fill="white"/>
<path d="M76.4464 289.097C76.4464 289.097 77.3185 286.165 81.154 283.326C84.9896 280.487 87.5437 279.828 87.5437 279.828L85.5592 282.004L88.9008 281.217C88.9008 281.217 88.6917 283.419 87.3034 285.052C85.7683 286.859 80.9583 287.633 78.3508 289.471C77.3318 290.192 76.6377 290.864 76.6377 290.864L77.5854 288.576L76.4508 289.097H76.4464Z" fill="#590800"/>
<path d="M74.0347 291.086C74.0347 291.086 70.6085 288.83 67.0443 288.207C63.4802 287.584 58.1273 287.237 58.1273 287.237L60.0451 286.356C60.0451 286.356 59.3198 286.125 58.4076 285.097C57.6957 284.296 56.5789 281.631 56.5789 281.631C56.5789 281.631 60.4144 282.151 64.7394 282.828C70.7642 283.771 73.6965 287.335 73.6965 287.335L72.4684 287.273C72.4684 287.273 73.8656 289.635 74.0347 291.086Z" fill="#590800"/>
<path opacity="0.88" d="M84.1887 349.541C84.1353 348.7 83.7215 344.277 81.3721 340.935C78.7691 337.237 66.991 340.014 64.3034 342.532C61.6158 345.051 57.3264 351.863 57.3264 351.863L56.0716 352.535C56.0716 352.535 52.0313 344.045 52.1114 329.166C52.196 314.286 48.4984 309.41 46.5628 298.931C45.6284 293.871 45.4192 287.798 47.7019 282.774C47.5417 283.522 45.0588 295.509 50.4295 304.666C55.9782 314.117 59.6268 333.793 66.7507 335.306C73.8834 336.819 80.273 333.793 83.9707 336.988C87.6683 340.183 84.1842 349.545 84.1842 349.545L84.1887 349.541Z" fill="#B70400"/>
<path opacity="0.5" d="M73.8878 323.177C73.8878 323.177 76.0503 326.865 79.521 327.066C86.0798 327.444 87.7751 318.295 87.7751 318.295C87.7751 318.295 86.6226 323.533 79.2674 324.418C75.592 324.859 73.8878 323.177 73.8878 323.177Z" fill="#B70400"/>
<path d="M73.8878 323.177C73.8878 323.177 77.8302 325.005 82.6669 323.177C87.5036 321.348 88.1355 316.302 88.1355 316.302C88.1355 316.302 87.8819 321.837 83.2187 323.986C78.551 326.136 73.8878 323.172 73.8878 323.172V323.177Z" fill="#5B1800"/>
<path opacity="0.43" d="M75.908 322.905C75.908 322.905 81.2875 323.03 84.2287 319.795C87.1699 316.56 86.9029 312.627 86.9029 312.627C86.9029 312.627 88.0821 316.8 85.1988 320.538C82.2442 324.369 75.908 322.905 75.908 322.905Z" fill="white"/>
<path opacity="0.43" d="M87.1299 311.43C87.1744 311.968 87.0854 312.413 86.9341 312.426C86.7828 312.44 86.6271 312.012 86.5826 311.474C86.5381 310.936 86.6271 310.491 86.7784 310.477C86.9297 310.464 87.0854 310.891 87.1299 311.43Z" fill="white"/>
<path d="M74.8801 305.289L75.1916 301.195L77.5009 304.27L74.8801 305.289Z" fill="white"/>
<path d="M87.9086 302.597L88.9142 299.776L89.8353 302.98L87.9086 302.597Z" fill="white"/>
<path d="M64.3033 311.892C64.3033 311.892 71.6586 305.547 79.7702 303.612C87.8818 301.676 90.1111 303.109 90.1111 303.109L86.8762 309.16L88.4959 304.671C88.4959 304.671 86.6226 303.696 80.0238 304.915C73.5185 306.117 64.3033 311.892 64.3033 311.892Z" fill="#590800"/>
<path d="M77.7501 287.348C77.7501 287.348 78.9292 285.862 80.273 284.639C81.8971 283.157 84.0552 282.147 84.0552 282.147L83.3254 283.224L86.458 282.507C86.458 282.507 84.073 283.419 81.8126 284.914C79.6767 286.325 78.3463 288.14 78.3463 288.14L78.5377 287.175L77.7545 287.348H77.7501Z" fill="#8C130D"/>
<path d="M71.9967 286.356C71.9967 286.356 70.2569 284.607 66.7595 283.624C63.2621 282.641 59.0305 282.342 59.0305 282.342L61.9317 283.539L58.3987 282.908C58.3987 282.908 60.2275 284.065 63.7783 284.821C67.3291 285.577 71.7431 287.629 71.7431 287.629L70.8798 286.04L71.9922 286.356H71.9967Z" fill="#8C130D"/>
<path d="M86.7917 300.884C86.7917 300.884 85.9641 300.862 84.5891 300.982C84.2955 301.009 83.9751 301.035 83.6325 301.08C83.5435 301.089 83.4501 301.102 83.3566 301.111H83.3522C82.8672 301.173 82.3421 301.249 81.7814 301.342C81.2742 301.427 80.8159 301.507 80.4065 301.583C80.144 301.627 79.9037 301.672 79.6768 301.712C79.5255 301.738 79.3831 301.761 79.2541 301.787C78.0571 302.01 77.5187 302.125 77.5187 302.125C77.5187 302.125 77.8881 301.756 78.5777 301.338C78.6534 301.293 78.7335 301.24 78.8269 301.191C78.9515 301.12 79.0894 301.049 79.2363 300.977C79.8503 300.675 80.6246 300.395 81.5367 300.234C82.48 300.074 83.459 300.123 84.3088 300.248C84.34 300.252 84.3756 300.257 84.4067 300.261C84.6648 300.301 84.9051 300.346 85.132 300.399C86.1243 300.613 86.8006 300.88 86.8006 300.88L86.7917 300.884Z" fill="#B70400"/>
<path d="M53.4285 305.988C53.7044 307.923 53.2995 309.587 52.5252 309.694C51.751 309.806 50.8967 308.324 50.6208 306.388C50.3449 304.453 50.7498 302.789 51.5241 302.682C52.2983 302.57 53.1526 304.052 53.4285 305.988Z" fill="#FF5B57"/>
<path d="M53.74 305.943C54.0159 307.879 53.6109 309.543 52.8367 309.65C52.0625 309.761 51.2082 308.279 50.9323 306.344C50.6564 304.408 51.0613 302.744 51.8355 302.637C52.6098 302.526 53.4641 304.008 53.74 305.943Z" fill="#8C0000"/>
<path d="M55.6577 322.296C55.8402 323.582 55.5732 324.681 55.0615 324.756C54.5453 324.832 53.9802 323.849 53.7978 322.563C53.6154 321.277 53.8823 320.178 54.394 320.102C54.9102 320.026 55.4753 321.01 55.6577 322.296Z" fill="#FF5B57"/>
<path d="M55.9024 322.282C56.0849 323.568 55.8179 324.667 55.3062 324.743C54.79 324.818 54.2249 323.835 54.0425 322.549C53.8601 321.263 54.127 320.164 54.6387 320.089C55.1549 320.013 55.72 320.996 55.9024 322.282Z" fill="#8C0000"/>
<path d="M55.2395 330.536C55.4219 331.822 55.1549 332.921 54.6432 332.997C54.1271 333.073 53.562 332.089 53.3795 330.803C53.1971 329.517 53.4641 328.418 53.9758 328.343C54.4919 328.267 55.057 329.25 55.2395 330.536Z" fill="#FF5B57"/>
<path d="M55.4842 330.536C55.6666 331.822 55.3996 332.921 54.8879 332.997C54.3717 333.073 53.8067 332.089 53.6242 330.803C53.4418 329.517 53.7087 328.418 54.2205 328.343C54.7366 328.267 55.3017 329.25 55.4842 330.536Z" fill="#8C0000"/>
<path d="M57.8114 326.99C57.936 327.858 57.7535 328.601 57.4065 328.65C57.0594 328.699 56.6767 328.036 56.5521 327.168C56.4276 326.3 56.61 325.557 56.957 325.508C57.3041 325.459 57.6868 326.122 57.8114 326.99Z" fill="#FF5B57"/>
<path d="M57.976 326.99C58.1006 327.858 57.9182 328.601 57.5711 328.65C57.2241 328.699 56.8414 328.036 56.7168 327.168C56.5922 326.3 56.7746 325.557 57.1217 325.508C57.4688 325.459 57.8514 326.122 57.976 326.99Z" fill="#8C0000"/>
<path d="M48.9033 289.07C48.7965 289.938 48.4227 290.61 48.0756 290.565C47.7285 290.521 47.5328 289.782 47.644 288.91C47.7553 288.038 48.1246 287.371 48.4716 287.415C48.8187 287.46 49.0145 288.198 48.9033 289.07Z" fill="#FF5B57"/>
<path d="M49.059 289.11C48.9522 289.978 48.5784 290.65 48.2313 290.605C47.8843 290.561 47.6885 289.822 47.7997 288.95C47.911 288.078 48.2803 287.411 48.6274 287.455C48.9744 287.5 49.1702 288.238 49.059 289.11Z" fill="#8C0000"/>
<path d="M58.3675 314.286C58.7814 317.17 58.1807 319.644 57.0238 319.808C55.8669 319.973 54.5987 317.77 54.1849 314.883C53.7711 311.999 54.3718 309.525 55.5287 309.361C56.6856 309.196 57.9537 311.398 58.3675 314.286Z" fill="#FF5B57"/>
<path d="M58.8437 314.22C59.2575 317.103 58.6568 319.577 57.4999 319.741C56.343 319.906 55.0749 317.704 54.6611 314.816C54.2472 311.932 54.8479 309.458 56.0048 309.294C57.1617 309.129 58.4299 311.332 58.8437 314.22Z" fill="#8C0000"/>
<path d="M50.6386 296.403C50.9278 298.432 50.5051 300.172 49.6908 300.288C48.8765 300.404 47.9822 298.851 47.6929 296.822C47.4037 294.793 47.8264 293.053 48.6407 292.937C49.455 292.821 50.3494 294.374 50.6386 296.403Z" fill="#FF5B57"/>
<path d="M50.9768 296.39C51.266 298.419 50.8433 300.159 50.029 300.275C49.2147 300.39 48.3204 298.837 48.0311 296.808C47.7419 294.779 48.1646 293.039 48.9789 292.924C49.7932 292.808 50.6876 294.361 50.9768 296.39Z" fill="#8C0000"/>
<path opacity="0.26" d="M87.9219 278.863C85.1275 279.472 78.3374 280.674 70.9244 279.833C61.2198 278.729 56.2762 274.938 56.2762 274.938L60.6992 273.35C61.816 273.127 63.0041 272.963 64.2811 272.856C64.7705 272.816 65.2689 272.78 65.7851 272.758C78.0793 272.215 86.4758 277.11 87.9219 278.863Z" fill="white"/>
<path d="M53.4241 276.149C53.4241 276.149 56.2006 270.747 61.6603 267.548C68.753 263.387 73.3049 264.037 73.3049 264.037L68.0099 266.747C68.0099 266.747 69.2202 266.408 71.6185 266.213C75.1159 265.928 76.3173 266.529 76.3173 266.529L68.3392 269.176C68.3392 269.176 69.3715 268.971 71.9967 269.114C74.4885 269.247 75.3607 269.63 75.3607 269.63L69.5228 272.762C69.5228 272.762 58.1763 273.403 53.4241 276.153V276.149Z" fill="#590800"/>
<path d="M121.009 299.304C119.634 303.073 116.422 304.595 116.422 304.595C116.422 304.595 115.923 304.306 115.167 303.754C114.255 303.073 112.96 302.001 111.718 300.564C110.904 299.616 110.108 298.512 109.462 297.258C109.231 296.808 109.022 296.341 108.835 295.852C108.457 294.864 108.194 293.907 108.03 292.986C107.829 291.882 107.767 290.828 107.794 289.858C107.794 289.818 107.794 289.782 107.794 289.742C107.918 286.543 109.058 284.256 109.663 283.851C110.281 283.437 110.811 285.257 113.721 288.447C114.099 288.861 114.517 289.293 114.975 289.751C115.719 290.481 116.577 291.273 117.574 292.109C118.135 292.581 118.744 293.071 119.403 293.569C119.75 293.831 120.11 294.103 120.489 294.374C120.653 294.499 120.818 294.619 120.991 294.739C120.991 294.739 121.147 295.108 121.267 295.722C121.432 296.572 121.521 297.889 121.009 299.304Z" fill="#FF9E12"/>
<path d="M114.975 289.751C114.397 290.338 113.458 291.104 112.074 291.731C110.53 292.434 109.022 292.804 108.025 292.986C107.825 291.882 107.763 290.828 107.789 289.858C107.789 289.818 107.789 289.782 107.789 289.742C108.577 289.742 109.925 289.702 111.269 289.395C112.337 289.15 113.164 288.763 113.716 288.447C114.094 288.861 114.513 289.293 114.971 289.751H114.975Z" fill="#F93D31"/>
<path d="M119.403 293.569C118.887 294.539 117.739 296.381 115.736 298.045C114.321 299.224 112.8 300.056 111.718 300.559C110.904 299.611 110.108 298.508 109.462 297.253C110.228 297.035 111.487 296.581 113.298 295.607C115.701 294.303 117.045 292.795 117.574 292.105C118.135 292.577 118.744 293.066 119.403 293.564V293.569Z" fill="#F93D31"/>
<path opacity="0.13" d="M121.267 295.722L115.167 303.754C113.431 302.468 110.339 299.763 108.831 295.851C107.994 293.685 107.736 291.633 107.789 289.858C108.586 291.558 110.085 293.756 112.813 294.975C116.484 296.612 119.309 295.189 120.484 294.379C120.649 294.503 120.813 294.623 120.987 294.744C120.987 294.744 121.143 295.113 121.263 295.727L121.267 295.722Z" fill="#590800"/>
<path d="M111.545 340.348C111.545 340.348 113.236 340.984 113.236 341.331C113.236 341.678 110.846 341.144 110.846 341.144C110.846 341.144 110.953 342.47 109.729 342.39C108.506 342.31 108.217 341.193 108.217 341.193C108.217 341.193 105.747 342.123 104.737 341.513C103.727 340.904 105.881 340.477 105.881 340.477C105.881 340.477 103.037 340.343 102.881 339.84C102.721 339.338 105.76 339.071 105.76 339.071L111.549 340.343L111.545 340.348Z" fill="#443551"/>
<path d="M112.617 309.022C112.617 309.022 106.81 316.831 105.658 317.343C104.506 317.855 103.068 317.699 101.564 317.646C99.3351 317.566 99.3574 317.112 99.0993 317.13C98.6321 317.161 98.641 318.117 99.5131 318.558C100.39 318.998 101.653 319.016 101.653 319.016C101.653 319.016 98.2895 322.153 98.4541 322.692C98.6187 323.226 101.351 321.406 101.351 321.406C101.351 321.406 99.6243 324.556 99.9759 325.001C100.327 325.446 102.294 322.767 102.294 322.767C102.294 322.767 101.466 325.263 101.689 325.686C101.911 326.109 103.273 323.515 103.273 323.515C103.273 323.515 103.5 325.392 103.989 325.352C104.256 325.33 104.83 322.954 104.986 322.554C105.142 322.153 106.481 318.754 106.481 318.754L118.433 312.133L112.608 309.018L112.617 309.022Z" fill="#009579"/>
<path d="M152.379 345.233C149.9 347.182 144.73 345.976 144.73 345.976C144.73 345.976 142.047 340.236 139.893 338.968C138.358 338.069 120.088 336.37 117.65 337.055C115.394 337.696 111.545 340.348 111.545 340.348C111.545 340.348 110.272 340.472 108.515 340.134C106.953 339.836 105.751 339.071 105.751 339.071C105.751 339.071 105.431 330.572 105.751 324.2C106.072 317.828 115.843 299.242 119.688 296.056C120.729 295.197 122.242 294.187 123.968 293.191C128.636 290.508 134.865 287.922 137.491 288.621C141.081 289.578 149.295 301.471 152.379 316.871C155.458 332.272 152.379 345.229 152.379 345.229V345.233Z" fill="url(#paint36_linear_199_2521)"/>
<path d="M141.679 309.802C142.49 305.433 140.43 301.388 137.079 300.766C133.727 300.145 130.354 303.182 129.543 307.55C128.733 311.919 130.792 315.964 134.144 316.586C137.495 317.208 140.869 314.171 141.679 309.802Z" fill="#009579"/>
<path d="M140.45 309.81C140.369 310.17 140.267 310.522 140.147 310.865C139.88 311.652 139.52 312.369 139.088 312.996C138.247 314.228 137.148 315.114 135.964 315.51C135.364 315.71 134.745 315.781 134.131 315.706C134.007 315.688 133.886 315.666 133.762 315.643C130.932 315.012 129.339 311.372 130.202 307.518C131.065 303.665 134.055 301.053 136.885 301.685C139.72 302.317 141.313 305.957 140.45 309.81Z" fill="#CAE7EF"/>
<path d="M139.968 309.722C140.79 306.05 139.27 302.585 136.575 301.982C133.879 301.379 131.028 303.867 130.207 307.538C129.385 311.21 130.905 314.675 133.6 315.278C136.296 315.881 139.147 313.393 139.968 309.722Z" fill="white"/>
<path d="M140.147 310.865C139.88 311.652 139.52 312.369 139.088 312.996C138.247 314.228 137.148 315.114 135.964 315.51C135.364 315.71 134.745 315.781 134.131 315.706C133.317 314.651 133.277 312.862 134.14 311.243C134.149 311.225 134.158 311.212 134.167 311.194C134.385 310.798 134.634 310.437 134.919 310.126C136.067 308.84 137.664 308.319 138.865 308.973C139.551 309.343 139.987 310.032 140.147 310.86V310.865Z" fill="url(#paint37_linear_199_2521)"/>
<path d="M139.088 312.996C138.247 314.228 137.148 315.114 135.964 315.51C135.769 315.483 135.586 315.425 135.413 315.332C134.34 314.753 134.118 313.103 134.905 311.648C135.693 310.193 137.201 309.481 138.265 310.064C139.155 310.544 139.457 311.763 139.084 312.996H139.088Z" fill="#590800"/>
<path d="M135.639 311.915C135.502 312.435 135.809 312.969 136.329 313.107C136.85 313.245 137.384 312.938 137.522 312.417C137.66 311.897 137.353 311.363 136.832 311.225C136.311 311.087 135.777 311.394 135.639 311.915Z" fill="white"/>
<path d="M133.824 310.477C133.726 310.842 133.944 311.216 134.305 311.314C134.67 311.412 135.043 311.194 135.141 310.833C135.239 310.468 135.021 310.095 134.661 309.997C134.296 309.899 133.922 310.117 133.824 310.477Z" fill="white"/>
<path d="M125.543 308.778C124.32 313.031 121.009 315.697 118.153 314.731C115.296 313.766 113.974 309.534 115.198 305.28C116.422 301.026 119.732 298.361 122.589 299.327C125.445 300.292 126.767 304.524 125.543 308.778Z" fill="#009579"/>
<path d="M125.437 308.925C125.325 309.276 125.192 309.614 125.049 309.939C124.725 310.691 124.324 311.367 123.875 311.946C122.994 313.08 121.926 313.85 120.849 314.117C120.302 314.255 119.75 314.26 119.22 314.117C119.114 314.086 119.011 314.055 118.905 314.015C116.506 313.094 115.545 309.312 116.751 305.574C117.961 301.836 120.885 299.554 123.283 300.475C125.686 301.396 126.647 305.173 125.441 308.916L125.437 308.925Z" fill="#CAE7EF"/>
<path d="M116.746 305.583C115.594 309.143 116.515 312.742 118.798 313.623C121.085 314.504 123.87 312.328 125.023 308.769C126.175 305.209 125.254 301.609 122.971 300.728C120.684 299.847 117.899 302.023 116.746 305.583Z" fill="white"/>
<path d="M125.049 309.939C124.725 310.691 124.324 311.367 123.875 311.946C122.994 313.08 121.926 313.85 120.849 314.117C120.302 314.255 119.75 314.26 119.22 314.117C118.633 312.987 118.811 311.207 119.754 309.685C119.763 309.668 119.772 309.659 119.781 309.641C120.017 309.272 120.279 308.938 120.564 308.662C121.721 307.505 123.176 307.154 124.151 307.928C124.707 308.364 125.005 309.094 125.049 309.935V309.939Z" fill="url(#paint38_linear_199_2521)"/>
<path d="M123.87 311.95C122.989 313.085 121.921 313.855 120.845 314.122C120.675 314.077 120.524 313.997 120.382 313.886C119.514 313.201 119.514 311.536 120.373 310.175C121.232 308.813 122.633 308.261 123.497 308.951C124.217 309.521 124.337 310.762 123.866 311.946L123.87 311.95Z" fill="#590800"/>
<path d="M120.987 310.513C120.805 311.016 121.009 311.576 121.45 311.772C121.886 311.964 122.393 311.714 122.575 311.212C122.758 310.709 122.553 310.148 122.113 309.952C121.677 309.761 121.169 310.01 120.987 310.513Z" fill="white"/>
<path d="M119.568 308.898C119.438 309.249 119.585 309.641 119.888 309.779C120.195 309.912 120.546 309.739 120.675 309.387C120.804 309.036 120.658 308.644 120.355 308.506C120.048 308.373 119.697 308.546 119.568 308.898Z" fill="white"/>
<path d="M117.342 317.429C117.414 317.62 118.171 319.206 123.327 320.614C128.83 322.117 133.772 321.381 133.772 321.381C133.772 321.381 133.77 322.434 133.558 323.829C133.09 326.88 131.612 331.573 126.884 330.468C121.711 329.253 118.916 322.483 117.853 319.198C117.564 318.318 117.406 317.688 117.355 317.482L117.342 317.434L117.342 317.429Z" fill="#590800"/>
<path d="M117.342 317.429C117.414 317.62 118.171 319.206 123.327 320.614C128.83 322.116 133.772 321.381 133.772 321.381L133.714 322.514C133.714 322.514 130.05 324.238 125.866 323.543C121.226 322.77 117.853 319.198 117.853 319.198L117.355 317.482L117.342 317.434L117.342 317.429Z" fill="#8B1229"/>
<path d="M122.497 327.302L123.263 326.62L124.861 325.193L125.592 329.127L125.684 329.638L126.336 329.469L127.724 329.115L128.145 329.793L128.206 329.891L128.341 329.788L129.366 328.992L129.62 329.522L129.81 329.919L130.09 329.309L131.839 325.483L132.033 328.079C132.033 328.079 131.106 330.188 128.724 330.366C126.944 330.499 125.497 329.88 124.444 329.16L124.434 329.152C124.147 328.954 123.887 328.755 123.667 328.558C122.903 327.892 122.493 327.298 122.493 327.298L122.497 327.302Z" fill="white"/>
<path d="M134.304 321.395L135.617 326.834L130.331 321.424L134.304 321.395Z" fill="white"/>
<path d="M123.998 320.88L117.215 325.76L119.338 318.52L123.998 320.88Z" fill="white"/>
<path d="M136.467 320.43L134.395 321.781C134.395 321.781 131.4 322.714 126.545 322.002C117.062 320.609 115.792 314.899 115.792 314.899C115.792 314.899 118.525 320.125 126.968 320.855C132.092 321.297 134.698 319.928 134.698 319.928L136.467 320.43Z" fill="#590800"/>
<path d="M122.497 327.302L123.263 326.62C123.465 327.056 124.167 328.328 125.592 329.128L125.684 329.638L126.336 329.469C126.68 329.595 127.058 329.696 127.468 329.75C127.707 329.781 127.931 329.796 128.145 329.793L128.206 329.891L128.341 329.788C128.817 329.765 129.238 329.667 129.615 329.523L129.806 329.919L130.086 329.309C131.394 328.604 131.977 327.392 131.977 327.392L132.029 328.084C132.029 328.084 131.102 330.192 128.719 330.371C126.94 330.504 125.493 329.885 124.439 329.165L124.43 329.156C124.17 328.962 123.905 328.763 123.663 328.562C122.899 327.897 122.489 327.303 122.489 327.303L122.497 327.302Z" fill="#8ECEDD"/>
<path d="M133.447 324.618L133.877 325.059C133.877 325.059 133.331 330.931 128.849 331.267C122.783 331.72 119.337 324.299 119.337 324.299L119.815 323.893C119.815 323.893 123.681 331.252 128.759 330.604C132.945 330.072 133.447 324.618 133.447 324.618Z" fill="#02896F"/>
<path d="M142.616 300.675C142.616 300.675 141.7 298.784 139.715 297.089C137.735 295.393 136.707 295.197 136.707 295.197L139.395 295.171L138.541 294.196C138.541 294.196 140.979 294.325 142.332 296.016C143.684 297.703 143.582 300.274 143.582 300.274L142.777 299.242L142.616 300.679V300.675Z" fill="#590800"/>
<path d="M158.186 294.027C158.177 294.116 158.168 294.205 158.159 294.299C158.03 295.558 157.736 296.897 157.193 298.29C157.011 298.757 156.811 299.207 156.584 299.643C156.045 300.706 155.4 301.663 154.724 302.504C152.357 305.449 149.602 307.038 149.602 307.038C149.602 307.038 146.39 305.516 145.015 301.747C144.187 299.482 144.917 297.48 145.015 297.213C145.024 297.191 145.028 297.182 145.028 297.182C145.153 297.097 145.268 297.008 145.389 296.924C145.856 296.59 146.296 296.256 146.723 295.932C147.208 295.562 147.667 295.197 148.098 294.841C149.438 293.742 150.532 292.723 151.44 291.793C151.845 291.38 152.21 290.988 152.539 290.614C155.231 287.593 155.752 285.893 156.348 286.294C156.926 286.676 157.981 288.741 158.19 291.669C158.239 292.408 158.239 293.2 158.168 294.036L158.186 294.027Z" fill="#FF9E12"/>
<path d="M149.593 312.769C149.593 312.769 158.586 309.054 159.365 308.061C160.143 307.069 160.375 305.391 160.882 303.977C161.385 302.57 160.806 301.796 160.971 301.596C161.265 301.231 161.87 301.712 162.079 302.668C162.288 303.625 161.968 304.595 161.968 304.595C161.968 304.595 166.293 301.863 166.773 302.157C167.25 302.45 164.357 304.889 164.357 304.889C164.357 304.889 168.549 303.616 168.896 304.07C169.243 304.519 165.447 306.139 165.447 306.139C165.447 306.139 169.176 305.948 169.537 306.264C169.893 306.584 165.888 307.518 165.888 307.518C165.888 307.518 168.277 307.941 168.117 308.404C168.033 308.658 165.007 308.644 164.584 308.698C164.161 308.751 160.535 309.214 160.535 309.214L151.191 319.181C151.191 319.181 149.513 318.749 148.846 316.36C148.174 313.953 149.598 312.773 149.598 312.773L149.593 312.769Z" fill="url(#paint39_linear_199_2521)"/>
<path d="M144.735 345.976C144.735 345.976 142.051 340.236 139.898 338.968C138.363 338.069 120.093 336.37 117.654 337.055C115.398 337.696 111.549 340.348 111.549 340.348C111.549 340.348 110.277 340.472 108.519 340.134C106.957 339.836 105.756 339.071 105.756 339.071C105.756 339.071 105.436 330.572 105.756 324.2C106.076 317.828 115.848 299.242 119.692 296.056C120.733 295.197 122.246 294.187 123.973 293.191L127.212 292.39L127.515 298.285C127.515 298.285 122.304 297.444 119.332 298.842C116.368 300.239 111.652 309.886 111.438 320.013C111.224 330.14 115.287 333.117 123.91 334.318C132.538 335.52 138.487 336.232 141.104 338.003C143.724 339.769 144.73 345.976 144.73 345.976H144.735Z" fill="#02896F"/>
<path d="M127.203 293.226C127.203 293.226 125.334 293.871 123.563 294.632C122.108 295.26 120.502 296.332 120.502 296.332L121.263 295.162L120.315 295.34C120.315 295.34 121.014 293.702 122.771 292.79C124.938 291.66 127.519 291.825 127.519 291.825L126.108 292.772L127.208 293.226H127.203Z" fill="#590800"/>
<path d="M141.66 292.181C141.66 292.181 137.695 291.482 133.504 293.275C129.317 295.068 127.514 298.29 127.514 298.29C127.514 298.29 124.555 292.737 127.212 288.915C128.569 286.961 130.522 287.032 130.522 287.032L127.096 285.942C127.096 285.942 129.899 284.243 133.415 285.039C135.568 285.528 136.151 286.338 136.151 286.338L134.487 283.206C134.487 283.206 139.422 283.58 141.304 286.445C142.656 288.505 141.664 292.181 141.664 292.181H141.66Z" fill="#443551"/>
<path opacity="0.72" d="M140.681 290.855C140.681 290.855 138.946 288.131 134.803 287.722C130.607 287.304 128.645 289.101 128.645 289.101L131.644 288.808C131.644 288.808 129.966 289.128 128.698 291.033C127.563 292.737 127.741 294.752 127.741 294.752C127.741 294.752 129.819 291.584 133.459 290.895C137.099 290.205 139.875 291.304 139.875 291.304L139.212 290.134L140.681 290.85V290.855Z" fill="#725F82"/>
<path opacity="0.43" d="M151.765 322.18C151.685 321.833 151.178 321.882 151.16 322.233C151.071 324.222 150.968 327.519 151 331.417C151.026 334.866 151.12 338.176 151.2 340.494C151.213 340.868 151.756 340.895 151.809 340.526C152.161 338.003 152.601 334.421 152.753 331.417C152.922 328.022 152.259 324.36 151.765 322.18Z" fill="white"/>
<path opacity="0.43" d="M151.778 342.648C151.778 343.436 151.636 344.072 151.458 344.072C151.28 344.072 151.138 343.436 151.138 342.648C151.138 341.861 151.28 341.224 151.458 341.224C151.636 341.224 151.778 341.861 151.778 342.648Z" fill="white"/>
<path d="M115 329.248C115 329.248 117.683 328.464 121.474 329.684C125.261 330.903 126.128 332.078 126.128 332.078L115 329.243V329.248Z" fill="#02896F"/>
<path d="M156.588 299.638C156.05 300.702 155.405 301.658 154.728 302.499C154.083 302.348 152.575 301.832 150.345 300.119C147.302 297.783 146.732 295.927 146.732 295.927C147.217 295.558 147.676 295.193 148.107 294.837C148.655 295.576 149.981 297.195 151.867 298.29C153.643 299.327 155.596 299.58 156.588 299.643V299.638Z" fill="#F93D31"/>
<path d="M158.186 294.027C157.389 294.134 156.228 294.147 154.844 293.747C153.144 293.253 152.036 292.376 151.453 291.789C151.858 291.375 152.223 290.984 152.552 290.61C153.095 290.904 153.927 291.246 155.16 291.518C156.473 291.807 157.483 291.785 158.208 291.66C158.257 292.399 158.257 293.191 158.186 294.027Z" fill="#F93D31"/>
<path opacity="0.13" d="M158.163 294.299C158.034 295.558 157.741 296.897 157.198 298.29C155.031 303.901 149.611 307.033 149.611 307.033C149.611 307.033 146.399 305.512 145.024 301.743C144.196 299.478 144.926 297.476 145.024 297.209L145.398 296.919C145.398 296.919 150.626 298.21 154.506 296.692C156.286 295.994 157.443 295.082 158.159 294.299H158.163Z" fill="#590800"/>
<path opacity="0.67" d="M147.271 297.516C146.959 297.663 146.697 297.235 146.973 297.022C148.143 296.119 149.723 294.815 151.124 293.355C152.383 292.043 153.447 290.779 154.212 289.822C154.43 289.551 154.853 289.822 154.697 290.134C154.114 291.304 153.158 292.852 151.663 294.432C150.248 295.932 148.561 296.911 147.271 297.511V297.516Z" fill="white"/>
<path opacity="0.67" d="M111.18 287.869C111.033 287.531 111.496 287.264 111.714 287.562C112.439 288.554 113.432 289.804 114.593 290.984C115.696 292.105 116.844 293.079 117.774 293.814C118.068 294.045 117.779 294.503 117.445 294.334C116.471 293.84 115.296 293.124 114.126 292.105C112.693 290.859 111.754 289.195 111.176 287.864L111.18 287.869Z" fill="white"/>
</g>
<defs>
<linearGradient id="paint0_linear_199_2521" x1="145.5" y1="0" x2="145.5" y2="342" gradientUnits="userSpaceOnUse">
<stop stop-color="#42ADFF"/>
<stop offset="0.328125" stop-color="#A6A9ED"/>
<stop offset="0.682292" stop-color="#FFA6DD"/>
</linearGradient>
<linearGradient id="paint1_linear_199_2521" x1="-25.2422" y1="307.386" x2="78.6017" y2="307.386" gradientUnits="userSpaceOnUse">
<stop stop-color="#90C9FD"/>
<stop offset="0.27" stop-color="#8AC3FD"/>
<stop offset="0.62" stop-color="#79B5FD"/>
<stop offset="1" stop-color="#5F9EFD"/>
</linearGradient>
<linearGradient id="paint2_linear_199_2521" x1="184.472" y1="293.695" x2="408.777" y2="293.695" gradientUnits="userSpaceOnUse">
<stop stop-color="#90C9FD"/>
<stop offset="0.27" stop-color="#8AC3FD"/>
<stop offset="0.62" stop-color="#79B5FD"/>
<stop offset="1" stop-color="#5F9EFD"/>
</linearGradient>
<linearGradient id="paint3_linear_199_2521" x1="-22.8317" y1="304.413" x2="169.442" y2="304.413" gradientUnits="userSpaceOnUse">
<stop stop-color="#90C9FD"/>
<stop offset="0.27" stop-color="#8AC3FD"/>
<stop offset="0.62" stop-color="#79B5FD"/>
<stop offset="1" stop-color="#5F9EFD"/>
</linearGradient>
<linearGradient id="paint4_linear_199_2521" x1="143.43" y1="346.553" x2="143.43" y2="299.576" gradientUnits="userSpaceOnUse">
<stop stop-color="#74BCFD"/>
<stop offset="0.19" stop-color="#79BEFD"/>
<stop offset="0.43" stop-color="#8AC6FD"/>
<stop offset="0.71" stop-color="#A5D3FD"/>
<stop offset="1" stop-color="#CAE4FD"/>
</linearGradient>
<linearGradient id="paint5_linear_199_2521" x1="240.811" y1="289.305" x2="356.945" y2="331.449" gradientUnits="userSpaceOnUse">
<stop stop-color="#478CEC"/>
<stop offset="1" stop-color="#8AC8F9"/>
</linearGradient>
<linearGradient id="paint6_linear_199_2521" x1="53.0289" y1="296.343" x2="53.0289" y2="336.037" gradientUnits="userSpaceOnUse">
<stop stop-color="#D1FAFF"/>
<stop offset="1" stop-color="#4194F2"/>
</linearGradient>
<linearGradient id="paint7_linear_199_2521" x1="40.7975" y1="317.277" x2="14.0952" y2="356.339" gradientUnits="userSpaceOnUse">
<stop stop-color="#FFA6DD" stop-opacity="0.5"/>
<stop offset="0.21" stop-color="#F2AFDD" stop-opacity="0.63"/>
<stop offset="0.57" stop-color="#DFBDDE" stop-opacity="0.83"/>
<stop offset="0.84" stop-color="#D3C6DF" stop-opacity="0.95"/>
<stop offset="1" stop-color="#CFCAE0"/>
</linearGradient>
<linearGradient id="paint8_linear_199_2521" x1="-4.52547" y1="217.132" x2="-4.52547" y2="344.286" gradientUnits="userSpaceOnUse">
<stop stop-color="#6E0782"/>
<stop offset="1" stop-color="#08204D"/>
</linearGradient>
<linearGradient id="paint9_linear_199_2521" x1="-2.66996" y1="246.696" x2="0.870173" y2="246.696" gradientUnits="userSpaceOnUse">
<stop stop-color="#6E0782"/>
<stop offset="1" stop-color="#08204D"/>
</linearGradient>
<linearGradient id="paint10_linear_199_2521" x1="33.4766" y1="228.906" x2="16.56" y2="261.155" gradientUnits="userSpaceOnUse">
<stop stop-color="#FFA6DD"/>
<stop offset="0.12" stop-color="#FAA2DC"/>
<stop offset="0.26" stop-color="#EB97D9"/>
<stop offset="0.41" stop-color="#D485D5"/>
<stop offset="0.56" stop-color="#B36BD0"/>
<stop offset="0.72" stop-color="#894AC9"/>
<stop offset="0.89" stop-color="#5623C0"/>
<stop offset="1" stop-color="#2E04BA"/>
</linearGradient>
<linearGradient id="paint11_linear_199_2521" x1="29.5017" y1="235.361" x2="23.5083" y2="251.816" gradientUnits="userSpaceOnUse">
<stop stop-color="#FFA6DD" stop-opacity="0.5"/>
<stop offset="0.21" stop-color="#F2AFDD" stop-opacity="0.63"/>
<stop offset="0.57" stop-color="#DFBDDE" stop-opacity="0.83"/>
<stop offset="0.84" stop-color="#D3C6DF" stop-opacity="0.95"/>
<stop offset="1" stop-color="#CFCAE0"/>
</linearGradient>
<linearGradient id="paint12_linear_199_2521" x1="27.8559" y1="240.636" x2="18.1516" y2="251.618" gradientUnits="userSpaceOnUse">
<stop stop-color="#FFA6DD" stop-opacity="0.5"/>
<stop offset="0.21" stop-color="#F2AFDD" stop-opacity="0.63"/>
<stop offset="0.57" stop-color="#DFBDDE" stop-opacity="0.83"/>
<stop offset="0.84" stop-color="#D3C6DF" stop-opacity="0.95"/>
<stop offset="1" stop-color="#CFCAE0"/>
</linearGradient>
<linearGradient id="paint13_linear_199_2521" x1="39.862" y1="203.189" x2="18.0273" y2="229.752" gradientUnits="userSpaceOnUse">
<stop stop-color="#FFA6DD"/>
<stop offset="0.12" stop-color="#FAA2DC"/>
<stop offset="0.26" stop-color="#EB97D9"/>
<stop offset="0.41" stop-color="#D485D5"/>
<stop offset="0.56" stop-color="#B36BD0"/>
<stop offset="0.72" stop-color="#894AC9"/>
<stop offset="0.89" stop-color="#5623C0"/>
<stop offset="1" stop-color="#2E04BA"/>
</linearGradient>
<linearGradient id="paint14_linear_199_2521" x1="34.0977" y1="210.433" x2="20.5349" y2="221.041" gradientUnits="userSpaceOnUse">
<stop stop-color="#FFA6DD" stop-opacity="0.5"/>
<stop offset="0.21" stop-color="#F2AFDD" stop-opacity="0.63"/>
<stop offset="0.57" stop-color="#DFBDDE" stop-opacity="0.83"/>
<stop offset="0.84" stop-color="#D3C6DF" stop-opacity="0.95"/>
<stop offset="1" stop-color="#CFCAE0"/>
</linearGradient>
<linearGradient id="paint15_linear_199_2521" x1="13.6099" y1="212.082" x2="41.9582" y2="212.082" gradientUnits="userSpaceOnUse">
<stop stop-color="#FFA6DD" stop-opacity="0.5"/>
<stop offset="0.21" stop-color="#F2AFDD" stop-opacity="0.63"/>
<stop offset="0.57" stop-color="#DFBDDE" stop-opacity="0.83"/>
<stop offset="0.84" stop-color="#D3C6DF" stop-opacity="0.95"/>
<stop offset="1" stop-color="#CFCAE0"/>
</linearGradient>
<linearGradient id="paint16_linear_199_2521" x1="9.8913" y1="199.482" x2="-4.75833" y2="227.407" gradientUnits="userSpaceOnUse">
<stop stop-color="#FFA6DD"/>
<stop offset="0.12" stop-color="#FAA2DC"/>
<stop offset="0.26" stop-color="#EB97D9"/>
<stop offset="0.41" stop-color="#D485D5"/>
<stop offset="0.56" stop-color="#B36BD0"/>
<stop offset="0.72" stop-color="#894AC9"/>
<stop offset="0.89" stop-color="#5623C0"/>
<stop offset="1" stop-color="#2E04BA"/>
</linearGradient>
<linearGradient id="paint17_linear_199_2521" x1="9.65448" y1="202.378" x2="-0.85723" y2="215.766" gradientUnits="userSpaceOnUse">
<stop stop-color="#FFA6DD" stop-opacity="0.5"/>
<stop offset="0.21" stop-color="#F2AFDD" stop-opacity="0.63"/>
<stop offset="0.57" stop-color="#DFBDDE" stop-opacity="0.83"/>
<stop offset="0.84" stop-color="#D3C6DF" stop-opacity="0.95"/>
<stop offset="1" stop-color="#CFCAE0"/>
</linearGradient>
<linearGradient id="paint18_linear_199_2521" x1="34.1909" y1="206.275" x2="26.5866" y2="217.528" gradientUnits="userSpaceOnUse">
<stop stop-color="#FFA6DD" stop-opacity="0.5"/>
<stop offset="0.21" stop-color="#F2AFDD" stop-opacity="0.63"/>
<stop offset="0.57" stop-color="#DFBDDE" stop-opacity="0.83"/>
<stop offset="0.84" stop-color="#D3C6DF" stop-opacity="0.95"/>
<stop offset="1" stop-color="#CFCAE0"/>
</linearGradient>
<linearGradient id="paint19_linear_199_2521" x1="19.8789" y1="209.396" x2="10.4386" y2="227.396" gradientUnits="userSpaceOnUse">
<stop stop-color="#FFA6DD"/>
<stop offset="0.12" stop-color="#FAA2DC"/>
<stop offset="0.26" stop-color="#EB97D9"/>
<stop offset="0.41" stop-color="#D485D5"/>
<stop offset="0.56" stop-color="#B36BD0"/>
<stop offset="0.72" stop-color="#894AC9"/>
<stop offset="0.89" stop-color="#5623C0"/>
<stop offset="1" stop-color="#2E04BA"/>
</linearGradient>
<linearGradient id="paint20_linear_199_2521" x1="34.1481" y1="215.685" x2="33.9773" y2="215.789" gradientUnits="userSpaceOnUse">
<stop stop-color="#FFA6DD" stop-opacity="0.5"/>
<stop offset="0.21" stop-color="#F2AFDD" stop-opacity="0.63"/>
<stop offset="0.57" stop-color="#DFBDDE" stop-opacity="0.83"/>
<stop offset="0.84" stop-color="#D3C6DF" stop-opacity="0.95"/>
<stop offset="1" stop-color="#CFCAE0"/>
</linearGradient>
<linearGradient id="paint21_linear_199_2521" x1="23.0736" y1="214.027" x2="9.08001" y2="222.652" gradientUnits="userSpaceOnUse">
<stop stop-color="#FFA6DD" stop-opacity="0.5"/>
<stop offset="0.21" stop-color="#F2AFDD" stop-opacity="0.63"/>
<stop offset="0.57" stop-color="#DFBDDE" stop-opacity="0.83"/>
<stop offset="0.84" stop-color="#D3C6DF" stop-opacity="0.95"/>
<stop offset="1" stop-color="#CFCAE0"/>
</linearGradient>
<linearGradient id="paint22_linear_199_2521" x1="3.86297" y1="219.768" x2="29.6299" y2="219.768" gradientUnits="userSpaceOnUse">
<stop stop-color="#FFA6DD" stop-opacity="0.5"/>
<stop offset="0.21" stop-color="#F2AFDD" stop-opacity="0.63"/>
<stop offset="0.57" stop-color="#DFBDDE" stop-opacity="0.83"/>
<stop offset="0.84" stop-color="#D3C6DF" stop-opacity="0.95"/>
<stop offset="1" stop-color="#CFCAE0"/>
</linearGradient>
<linearGradient id="paint23_linear_199_2521" x1="18.2176" y1="313.57" x2="29.0942" y2="335.448" gradientUnits="userSpaceOnUse">
<stop stop-color="#6E0782"/>
<stop offset="1" stop-color="#08204D"/>
</linearGradient>
<linearGradient id="paint24_linear_199_2521" x1="30.4061" y1="309.576" x2="17.1966" y2="315.453" gradientUnits="userSpaceOnUse">
<stop stop-color="#FFA6DD"/>
<stop offset="0.12" stop-color="#FAA2DC"/>
<stop offset="0.26" stop-color="#EB97D9"/>
<stop offset="0.41" stop-color="#D485D5"/>
<stop offset="0.56" stop-color="#B36BD0"/>
<stop offset="0.72" stop-color="#894AC9"/>
<stop offset="0.89" stop-color="#5623C0"/>
<stop offset="1" stop-color="#2E04BA"/>
</linearGradient>
<linearGradient id="paint25_linear_199_2521" x1="47.6371" y1="320.146" x2="36.5199" y2="332.253" gradientUnits="userSpaceOnUse">
<stop stop-color="#FFA6DD"/>
<stop offset="0.12" stop-color="#FAA2DC"/>
<stop offset="0.26" stop-color="#EB97D9"/>
<stop offset="0.41" stop-color="#D485D5"/>
<stop offset="0.56" stop-color="#B36BD0"/>
<stop offset="0.72" stop-color="#894AC9"/>
<stop offset="0.89" stop-color="#5623C0"/>
<stop offset="1" stop-color="#2E04BA"/>
</linearGradient>
<linearGradient id="paint26_linear_199_2521" x1="58.8786" y1="326.861" x2="37.7815" y2="336.884" gradientUnits="userSpaceOnUse">
<stop stop-color="#FFA6DD"/>
<stop offset="0.12" stop-color="#FAA2DC"/>
<stop offset="0.26" stop-color="#EB97D9"/>
<stop offset="0.41" stop-color="#D485D5"/>
<stop offset="0.56" stop-color="#B36BD0"/>
<stop offset="0.72" stop-color="#894AC9"/>
<stop offset="0.89" stop-color="#5623C0"/>
<stop offset="1" stop-color="#2E04BA"/>
</linearGradient>
<linearGradient id="paint27_linear_199_2521" x1="49.314" y1="315.635" x2="39.8892" y2="344.818" gradientUnits="userSpaceOnUse">
<stop stop-color="#FFA6DD"/>
<stop offset="0.12" stop-color="#FAA2DC"/>
<stop offset="0.26" stop-color="#EB97D9"/>
<stop offset="0.41" stop-color="#D485D5"/>
<stop offset="0.56" stop-color="#B36BD0"/>
<stop offset="0.72" stop-color="#894AC9"/>
<stop offset="0.89" stop-color="#5623C0"/>
<stop offset="1" stop-color="#2E04BA"/>
</linearGradient>
<linearGradient id="paint28_linear_199_2521" x1="55.4472" y1="333.076" x2="44.0776" y2="335.684" gradientUnits="userSpaceOnUse">
<stop stop-color="#FFA6DD"/>
<stop offset="0.12" stop-color="#FAA2DC"/>
<stop offset="0.26" stop-color="#EB97D9"/>
<stop offset="0.41" stop-color="#D485D5"/>
<stop offset="0.56" stop-color="#B36BD0"/>
<stop offset="0.72" stop-color="#894AC9"/>
<stop offset="0.89" stop-color="#5623C0"/>
<stop offset="1" stop-color="#2E04BA"/>
</linearGradient>
<linearGradient id="paint29_linear_199_2521" x1="60.0548" y1="341.448" x2="42.9597" y2="339.368" gradientUnits="userSpaceOnUse">
<stop stop-color="#FFA6DD"/>
<stop offset="0.12" stop-color="#FAA2DC"/>
<stop offset="0.26" stop-color="#EB97D9"/>
<stop offset="0.41" stop-color="#D485D5"/>
<stop offset="0.56" stop-color="#B36BD0"/>
<stop offset="0.72" stop-color="#894AC9"/>
<stop offset="0.89" stop-color="#5623C0"/>
<stop offset="1" stop-color="#2E04BA"/>
</linearGradient>
<linearGradient id="paint30_linear_199_2521" x1="59.2746" y1="330.906" x2="40.3512" y2="344.899" gradientUnits="userSpaceOnUse">
<stop stop-color="#FFA6DD"/>
<stop offset="0.12" stop-color="#FAA2DC"/>
<stop offset="0.26" stop-color="#EB97D9"/>
<stop offset="0.41" stop-color="#D485D5"/>
<stop offset="0.56" stop-color="#B36BD0"/>
<stop offset="0.72" stop-color="#894AC9"/>
<stop offset="0.89" stop-color="#5623C0"/>
<stop offset="1" stop-color="#2E04BA"/>
</linearGradient>
<linearGradient id="paint31_linear_199_2521" x1="26.6875" y1="318.725" x2="22.1614" y2="349.919" gradientUnits="userSpaceOnUse">
<stop stop-color="#A6CBFF"/>
<stop offset="0.12" stop-color="#A3C6FD"/>
<stop offset="0.26" stop-color="#9AB7F8"/>
<stop offset="0.42" stop-color="#8CA0F0"/>
<stop offset="0.58" stop-color="#787FE4"/>
<stop offset="0.74" stop-color="#5F55D6"/>
<stop offset="0.91" stop-color="#4022C4"/>
<stop offset="1" stop-color="#2E04BA"/>
</linearGradient>
<linearGradient id="paint32_linear_199_2521" x1="39.0029" y1="320.538" x2="51.3372" y2="320.538" gradientUnits="userSpaceOnUse">
<stop stop-color="#F93D31"/>
<stop offset="1" stop-color="#B70400"/>
</linearGradient>
<linearGradient id="paint33_linear_199_2521" x1="70.1101" y1="272.718" x2="70.1101" y2="352.54" gradientUnits="userSpaceOnUse">
<stop stop-color="#F93D31"/>
<stop offset="1" stop-color="#B70400"/>
</linearGradient>
<linearGradient id="paint34_linear_199_2521" x1="64.7438" y1="297.431" x2="73.8878" y2="297.431" gradientUnits="userSpaceOnUse">
<stop stop-color="#A43113"/>
<stop offset="1" stop-color="#6F160D"/>
</linearGradient>
<linearGradient id="paint35_linear_199_2521" x1="77.0604" y1="296.31" x2="82.1508" y2="296.31" gradientUnits="userSpaceOnUse">
<stop stop-color="#A43113"/>
<stop offset="1" stop-color="#6F160D"/>
</linearGradient>
<linearGradient id="paint36_linear_199_2521" x1="129.681" y1="346.346" x2="129.681" y2="288.51" gradientUnits="userSpaceOnUse">
<stop stop-color="#009579"/>
<stop offset="1" stop-color="#02B695"/>
</linearGradient>
<linearGradient id="paint37_linear_199_2521" x1="133.504" y1="312.217" x2="140.147" y2="312.217" gradientUnits="userSpaceOnUse">
<stop stop-color="#A43113"/>
<stop offset="1" stop-color="#6F160D"/>
</linearGradient>
<linearGradient id="paint38_linear_199_2521" x1="119.104" y1="310.582" x2="124.91" y2="311.272" gradientUnits="userSpaceOnUse">
<stop stop-color="#A43113"/>
<stop offset="1" stop-color="#6F160D"/>
</linearGradient>
<linearGradient id="paint39_linear_199_2521" x1="148.663" y1="310.322" x2="169.559" y2="310.322" gradientUnits="userSpaceOnUse">
<stop stop-color="#009579"/>
<stop offset="1" stop-color="#02B695"/>
</linearGradient>
</defs>
</svg>
