<svg width="291" height="342" viewBox="0 0 291 342" fill="none" xmlns="http://www.w3.org/2000/svg">
<mask id="mask0_199_8565" style="mask-type:alpha" maskUnits="userSpaceOnUse" x="0" y="0" width="291" height="342">
<rect width="291" height="342" rx="5" fill="url(#paint0_linear_199_8565)"/>
</mask>
<g mask="url(#mask0_199_8565)">
<path d="M78.6017 330.211C78.6017 330.211 78.6017 330.211 78.5978 330.211C77.837 329.594 77.0723 328.965 76.2921 328.39C75.1392 327.536 73.8505 327.009 72.6277 326.263C70.5743 325.009 68.6528 323.255 66.9759 321.547C65.5591 320.107 64.2471 318.577 62.8496 317.122C62.314 316.563 61.6813 316.155 61.1805 315.554C60.3537 314.556 59.7365 313.43 59.0145 312.359C57.062 309.467 53.6422 307.39 50.8901 305.29C49.0307 303.873 47.2839 302.387 45.541 300.826C44.458 299.86 43.375 298.913 42.3542 297.88C41.6516 297.166 40.8519 296.653 40.1183 295.982C38.2512 294.274 36.4462 292.209 34.2064 291.006C33.1816 290.458 32.1763 289.686 31.1826 289.034C30.2354 288.409 29.7696 287.675 29.0476 286.829C28.5197 286.208 27.8326 285.373 27.2077 284.869C26.7419 284.496 26.5284 284.57 25.8607 284.574C25.1698 284.574 24.4051 284.422 23.815 284.876C23.3065 285.264 22.8912 286.006 22.5302 286.534C21.191 288.479 20.1313 290.613 18.4583 292.302C17.2549 293.513 15.5547 294.348 14.1418 295.326C11.5721 297.115 10.2368 300.023 8.40848 302.441C7.16245 304.095 5.9824 305.469 3.86298 305.612C3.20697 305.659 2.57037 305.554 1.91824 305.663C-0.41468 306.051 -1.87421 307.406 -3.7452 308.737C-4.94465 309.591 -5.84133 310.414 -6.57109 311.711C-7.25816 312.937 -7.6308 313.962 -8.65946 314.94C-9.69588 315.922 -10.2587 317.13 -11.3611 318.038C-12.087 318.64 -12.6926 319.362 -13.4223 319.952C-15.3632 321.516 -17.6612 322.576 -19.6447 324.089C-20.7471 324.932 -22.1252 325.662 -22.8976 326.857C-23.4488 327.711 -23.5498 328.682 -24.3494 329.384C-24.7376 329.73 -24.5396 330.207 -24.0233 330.207H78.5939C78.5939 330.207 78.5978 330.207 78.5939 330.211H78.6017Z" fill="url(#paint1_linear_199_8565)"/>
<path d="M186.583 318.077C187.546 316.442 188.738 314.971 189.689 313.318C190.527 311.858 191.067 310.138 192.037 308.76C193.803 306.253 198.667 304.739 201.59 305.104C205.798 305.632 210.11 305.612 214.388 305.527C216.612 305.484 219.112 303.912 220.917 302.736C224.046 300.698 226.806 298.039 230.183 296.397C232.31 295.365 234.41 294.685 236.7 294.072C238.494 293.595 240.128 292.799 242.018 292.826C243.454 292.845 244.46 292.515 245.83 292.352C247.196 292.193 248.803 291.335 250.088 290.784C251.4 290.221 252.445 289.495 253.617 288.719C254.832 287.912 256.249 287.042 257.223 285.944C258.694 284.294 259.855 282.147 262.386 282.427C265.111 282.73 267.486 283.459 270.134 284.1C271.562 284.449 273.014 284.686 274.485 284.667C275.646 284.651 277.078 284.899 278.196 284.589C280.692 283.89 282.943 281.612 284.492 279.69C286.045 277.761 287.007 274.396 289.305 273.316C290.885 272.571 292.322 272.893 293.975 273.223C294.453 273.316 295.423 273.522 295.9 273.355C296.58 273.118 296.84 272.175 297.127 271.531C297.589 270.494 297.636 269.474 297.903 268.387C298.156 267.374 298.726 266.554 299.072 265.58C299.526 264.291 299.421 262.917 299.825 261.625C299.984 261.12 300.205 260.751 300.427 260.266C300.57 259.944 300.76 259.125 300.947 258.904C301.723 258.003 303.466 258.36 304.498 258.356C306.063 258.352 307.037 258.461 308.248 259.571C309.51 260.724 309.564 262.723 310.049 264.253C310.449 265.499 310.655 266.683 311.175 267.882C311.73 269.159 312.607 270.149 313.372 271.286C314.61 273.122 315.212 275.218 316.551 276.973C317.277 277.928 317.704 278.906 318.643 279.682C319.509 280.397 320.643 281.022 321.656 281.499C323.329 282.287 325.196 282.361 326.962 282.85C328.891 283.382 330.879 283.708 332.754 284.426C337.998 286.429 341.623 291.638 345.753 295.213C348.343 297.457 350.959 299.631 353.521 301.909C354.856 303.101 356.339 303.982 357.729 305.065C358.978 306.039 360.201 307.181 361.603 307.938C363.38 308.904 365.504 309.595 367.437 310.173C368.376 310.457 369.25 310.375 370.158 310.608C371.117 310.853 372.285 311.377 373.457 311.435C376.054 311.567 378.212 311.334 380.724 312.262C385.064 313.873 388.825 317.063 392.334 320.002C393.821 321.248 395.688 322.405 396.911 323.888C398.001 325.211 399.018 325.751 400.532 326.496C401.58 327.012 402.663 327.575 403.785 327.921C404.593 328.169 405.353 328.115 406.184 328.27C407.089 328.441 407.876 329 408.793 329.093H187.045C186.071 329.093 185.209 328.278 184.984 327.331C184.736 326.306 184.413 325.3 184.483 324.237C184.623 322.086 185.5 319.909 186.583 318.073V318.077Z" fill="url(#paint2_linear_199_8565)"/>
<path d="M-12.5956 332.035V332.028C-10.5072 330.584 -8.39167 329.256 -6.25673 327.886C-4.65357 326.857 -3.03878 325.918 -1.54043 324.734C-0.919357 324.241 -0.271105 323.794 0.295626 323.232C0.784723 322.746 0.982693 322.249 1.33981 321.702C1.86773 320.895 2.56644 320.278 3.41654 319.94C4.53447 319.497 5.57477 318.973 6.61119 318.426C7.55833 317.921 8.49771 317.017 9.28182 316.295C10.2095 315.449 11.1606 314.54 12.1465 313.756C12.9345 313.127 13.5595 312.304 14.3591 311.703C15.3024 310.989 16.4009 310.546 17.348 309.836C18.4737 308.993 19.4869 308.225 20.7329 307.584C21.7771 307.045 22.6039 306.105 23.6558 305.531C24.1449 305.263 24.4516 304.906 25.0338 305.084C25.6122 305.263 26.0625 305.83 26.606 305.985C26.9553 306.09 27.9995 306.21 28.3372 306.059C28.7914 305.853 29.0786 304.436 29.2727 303.935C29.5017 303.345 29.5871 302.728 29.7734 302.193C29.8938 301.847 30.0063 301.56 30.181 301.23C30.344 300.919 30.4644 300.508 30.6352 300.228C31.1359 299.394 32.3742 298.843 33.1117 298.222C33.628 297.783 33.9657 297.391 34.3073 296.879C34.5635 296.49 35.072 296.118 35.4097 295.807C36.4267 294.864 37.5214 294.08 38.6548 293.296C39.3846 292.791 40.2114 292.496 40.9062 291.953C41.2983 291.646 41.6826 291.316 42.094 291.033C42.6452 290.652 43.1654 290.241 43.7011 289.829C44.6172 289.131 45.4401 288.416 46.2475 287.601C47.2684 286.569 48.5765 286.014 49.6673 285.078C50.2379 284.585 50.8551 284.162 51.3908 283.622C51.8954 283.11 52.3068 282.528 52.8386 282.046C53.9837 280.994 55.2453 279.993 56.1342 278.689C56.4137 278.281 56.5573 277.974 56.93 277.625C57.2755 277.307 57.5821 276.911 57.8849 276.55C58.1954 276.177 58.4438 275.762 58.7505 275.382C59.228 274.784 59.8956 274.392 60.3847 273.806C60.8234 273.274 61.2853 272.843 61.7355 272.338C62.147 271.88 62.3916 271.286 62.7991 270.82C63.133 270.444 63.5988 270.262 63.9598 269.92C64.2276 269.672 64.3829 269.353 64.6274 269.093C65.3106 268.371 66.1607 267.828 67.0186 267.339C67.9968 266.78 68.7421 266.127 69.8717 266.131C71.3855 266.139 72.8023 267.082 74.2231 267.575C75.0732 267.87 75.9582 268.22 76.7501 268.651C77.7011 269.167 78.326 269.656 79.0946 270.425C79.6303 270.968 80.2397 271.325 80.7793 271.814C81.3266 272.315 82.2233 272.517 82.8832 272.878C83.4305 273.181 84.0166 273.577 84.5213 273.945C84.8357 274.174 85.0492 274.473 85.4024 274.663C85.9109 274.931 86.2642 275.067 86.6795 275.479C88.9969 277.78 92.1139 278.957 95.0097 280.206C95.4522 280.397 96.0927 280.564 96.4692 280.839C96.935 281.177 97.2688 281.751 97.6609 282.163C98.2432 282.78 98.6313 283.537 99.1476 284.201C99.7454 284.965 100.145 284.892 100.879 284.325C101.189 284.084 101.585 283.665 101.958 283.572C102.237 283.502 102.505 283.587 102.785 283.506C103.053 283.428 103.115 283.265 103.468 283.327C103.782 283.378 104.205 283.626 104.462 283.816C105.269 284.41 105.964 285.361 106.558 286.146C106.962 286.677 107.264 287.295 107.703 287.799C108.13 288.292 108.689 288.789 109.038 289.371C109.756 290.571 110.521 291.782 111.414 292.954C112.241 294.045 113.153 295.042 113.952 296.145C114.465 296.851 115.253 297.321 115.851 297.95C116.379 298.505 116.658 299.25 117.132 299.844C117.951 300.869 118.894 301.987 119.818 302.818C120.198 303.163 120.536 303.574 120.92 303.908C121.339 304.273 121.918 304.432 122.364 304.77C123.525 305.647 124.557 306.497 125.85 307.204C128.094 308.427 130.605 309.486 132.344 311.419C133.089 312.242 133.784 313.124 134.475 313.993C135.236 314.948 135.729 316.031 136.696 316.784C137.324 317.273 137.825 317.937 138.454 318.438C139.149 318.985 139.844 319.524 140.472 320.173C141.295 321.027 142.103 321.904 142.999 322.7C143.558 323.197 144.16 323.647 144.828 323.981C145.853 324.489 146.419 325.234 147.281 325.956C148.007 326.562 148.857 327.024 149.633 327.567C150.615 328.254 151.605 328.942 152.642 329.551C153.787 330.219 154.944 330.7 156.217 331.053C157.133 331.306 157.905 331.698 158.771 332.086C160.809 333.002 162.746 333.895 164.174 335.696C164.535 336.146 164.92 336.635 165.23 337.116C165.843 338.067 166.546 338.89 167.26 339.799C167.8 340.482 168.693 341.511 169.566 342.011C169.632 342.05 169.601 342.186 169.523 342.186H-20.6929C-19.9709 342.186 -21.3683 343.102 -21.7254 342.477C-22.164 341.712 -22.4202 340.889 -22.2417 339.927C-22.032 338.813 -21.1431 338.32 -20.262 337.761C-18.9927 336.953 -18.0727 335.816 -16.8965 334.9C-15.5379 333.844 -14.0163 333.025 -12.6033 332.047C-12.6033 332.047 -12.5995 332.043 -12.5995 332.039L-12.5956 332.035Z" fill="#5F9EFD"/>
<path d="M-13.1351 332.035C-13.1351 332.035 -13.1351 332.028 -13.1312 332.028C-11.0429 330.584 -8.92732 329.256 -6.79626 327.886C-5.1931 326.857 -3.57442 325.918 -2.07995 324.734C-1.45499 324.241 -0.810635 323.794 -0.243904 323.232C0.245193 322.746 0.443163 322.249 0.800282 321.702C1.33208 320.895 2.02691 320.278 2.87701 319.94C3.99106 319.497 5.03525 318.973 6.07167 318.426C7.01881 317.921 7.95818 317.017 8.74229 316.295C9.67002 315.449 10.621 314.54 11.607 313.756C12.395 313.127 13.02 312.304 13.8196 311.703C14.7628 310.989 15.8614 310.546 16.8124 309.836C17.9381 308.993 18.9512 308.225 20.1973 307.584C21.2414 307.045 22.0682 306.105 23.1202 305.531C23.6093 305.263 23.916 304.906 24.4982 305.084C25.0766 305.263 25.5269 305.83 26.0703 305.985C26.4197 306.09 27.4638 306.21 27.8016 306.059C28.2557 305.853 28.543 304.436 28.737 303.935C28.9661 303.345 29.0515 302.728 29.2378 302.193C29.3581 301.847 29.4707 301.56 29.6493 301.23C29.8123 300.919 29.9326 300.508 30.0995 300.228C30.6042 299.394 31.8386 298.843 32.5761 298.222C33.0924 297.783 33.4301 297.391 33.7716 296.879C34.0278 296.49 34.5364 296.118 34.8702 295.807C35.8872 294.864 36.9818 294.08 38.1153 293.296C38.8451 292.791 39.6719 292.496 40.3667 291.953C40.7587 291.646 41.143 291.316 41.5545 291.033C42.1057 290.652 42.6259 290.241 43.1654 289.829C44.0815 289.131 44.9044 288.416 45.7079 287.601C46.7288 286.569 48.037 286.014 49.1277 285.078C49.6984 284.585 50.3194 284.162 50.8512 283.622C51.3559 283.11 51.7673 282.528 52.2991 282.046C53.4442 280.994 54.7058 279.993 55.5947 278.689C55.8742 278.281 56.0178 277.974 56.3904 277.625C56.7359 277.307 57.0426 276.911 57.3454 276.55C57.6559 276.177 57.9082 275.762 58.211 275.382C58.6884 274.784 59.3561 274.392 59.8452 273.806C60.2838 273.274 60.7457 272.843 61.196 272.338C61.6075 271.88 61.852 271.286 62.2596 270.82C62.5934 270.444 63.0592 270.262 63.4202 269.92C63.6881 269.672 63.8472 269.353 64.0879 269.093C64.7711 268.371 65.6212 267.828 66.4829 267.339C67.4611 266.78 68.2064 266.127 69.336 266.131C70.8499 266.139 72.2667 267.082 73.6874 267.575C74.5375 267.87 75.4225 268.22 76.2144 268.651C77.1654 269.167 77.7904 269.656 78.559 270.425C79.0946 270.968 79.7041 271.325 80.2436 271.814C80.791 272.315 81.6876 272.517 82.3475 272.878C82.891 273.181 83.481 273.577 83.9817 273.945C84.2962 274.174 84.5096 274.473 84.8668 274.663C85.3753 274.931 85.7285 275.067 86.1439 275.479C88.4613 277.78 91.5783 278.957 94.474 280.206C94.9165 280.397 95.5532 280.564 95.9336 280.839C96.3994 281.177 96.7332 281.751 97.1214 282.163C97.7036 282.78 98.0918 283.537 98.6081 284.201C99.2059 284.965 99.6057 284.892 100.339 284.325C100.65 284.084 101.046 283.665 101.422 283.572C101.702 283.502 101.966 283.587 102.249 283.506C102.517 283.428 102.579 283.265 102.932 283.327C103.247 283.378 103.67 283.626 103.926 283.816C104.733 284.41 105.428 285.361 106.022 286.146C106.426 286.677 106.729 287.295 107.167 287.799C107.59 288.292 108.153 288.789 108.503 289.371C109.221 290.571 109.985 291.782 110.878 292.954C111.705 294.045 112.617 295.042 113.417 296.145C113.929 296.851 114.717 297.321 115.315 297.95C115.843 298.505 116.122 299.25 116.596 299.844C117.415 300.869 118.358 301.987 119.282 302.818C119.663 303.163 120 303.574 120.385 303.908C120.804 304.273 121.382 304.432 121.829 304.77C122.989 305.647 124.022 306.497 125.314 307.204C127.558 308.427 130.069 309.486 131.808 311.419C132.554 312.242 133.249 313.124 133.94 313.993C134.696 314.948 135.193 316.031 136.16 316.784C136.789 317.273 137.289 317.937 137.918 318.438C138.613 318.985 139.308 319.524 139.937 320.173C140.76 321.027 141.567 321.904 142.464 322.7C143.023 323.197 143.624 323.647 144.292 323.981C145.317 324.489 145.884 325.234 146.745 325.956C147.471 326.562 148.321 327.024 149.098 327.567C150.08 328.254 151.07 328.942 152.106 329.551C153.251 330.219 154.408 330.7 155.681 331.053C156.597 331.306 157.37 331.698 158.235 332.086C160.273 333.002 162.21 333.895 163.639 335.696C164 336.146 164.384 336.635 164.694 337.116C165.308 338.067 166.01 338.89 166.725 339.799C167.264 340.482 168.157 341.511 169.03 342.011C169.096 342.05 169.065 342.186 168.988 342.186H-21.2285C-20.5065 342.186 -21.9 343.102 -22.261 342.477C-22.6997 341.712 -22.9559 340.889 -22.7773 339.927C-22.5677 338.813 -21.6788 338.32 -20.7976 337.761C-19.5322 336.953 -18.6083 335.816 -17.4322 334.9C-16.0736 333.844 -14.5519 333.025 -13.139 332.047C-13.139 332.047 -13.1351 332.043 -13.1351 332.039V332.035Z" fill="url(#paint3_linear_199_8565)"/>
<path d="M334.636 299.576H-47.7756C-50.4811 299.576 -52.6743 301.769 -52.6743 304.475V341.65C-52.6743 344.356 -50.4811 346.549 -47.7756 346.549H334.636C337.342 346.549 339.535 344.356 339.535 341.65V304.475C339.535 301.769 337.342 299.576 334.636 299.576Z" fill="url(#paint4_linear_199_8565)"/>
<g style="mix-blend-mode:multiply" opacity="0.4">
<path d="M-0.396727 339.903C4.04156 340.857 9.64398 340.995 14.5956 341.055C24.5474 341.172 34.4507 341.249 44.3984 341.488C52.5555 341.682 60.7489 341.864 68.9222 341.718C77.152 341.573 85.3333 341.189 93.5753 341.075C109.893 340.853 126.224 341.043 142.542 340.881C159.111 340.716 175.51 339.729 192.014 339.204C208.324 338.682 224.573 338.885 240.867 339.406C257 339.923 273.091 340.667 289.252 341.039C305.635 341.415 321.965 341.282 338.324 340.792C351.921 340.388 365.544 339.822 379.178 339.41C377.529 339.426 375.875 339.45 374.226 339.463C341.266 339.758 308.476 338.593 275.61 337.769C242.391 336.94 209.1 337.187 175.837 337.235C159.321 337.256 142.906 337.478 126.434 337.979C109.922 338.476 93.4176 339.095 76.8691 339.361C60.757 339.624 44.6288 339.418 28.5087 339.515C20.6427 339.564 12.8373 339.515 4.99147 339.264C0.577439 339.123 -3.69916 338.678 -7.99597 338.286V338.327C-5.22305 338.573 -2.92711 339.357 -0.392681 339.903H-0.396727Z" fill="#4EC9F5"/>
</g>
<g style="mix-blend-mode:multiply" opacity="0.4">
<path d="M360.879 326.152C353.999 326.285 347.172 326.233 340.284 326.196C324.487 326.115 308.658 326.039 292.866 326.144C276.818 326.253 260.84 326.774 244.861 327.336C237.205 327.607 229.598 328.25 221.893 328.278C218.773 328.29 215.64 328.193 212.512 328.12C214.27 328.379 216.008 328.666 217.831 328.864C221.675 329.284 225.839 329.301 229.804 329.333C237.286 329.394 244.784 329.361 252.266 329.268C267.61 329.074 282.865 328.407 298.197 328.145C313.392 327.886 328.622 327.518 343.829 327.482C350.292 327.465 356.752 327.457 363.215 327.397C368.64 327.348 374.266 327.275 379.473 326.6C373.498 325.889 367.039 326.03 360.883 326.148L360.879 326.152Z" fill="#4EC9F5"/>
</g>
<g style="mix-blend-mode:multiply" opacity="0.4">
<path d="M274.639 317.918C282.728 317.898 290.784 317.667 298.521 316.661C303.864 315.966 309.058 315.096 314.414 314.417C279.624 315.452 244.865 315.452 210.078 316.681C183.287 317.627 78.405 316.552 62.0626 316.56C51.8562 316.564 41.3749 315.545 31.0633 315.452C30.3923 315.46 29.7213 315.468 29.0503 315.476C26.8554 315.513 24.6767 315.561 22.5061 315.634C21.3743 315.699 20.2465 315.776 19.1228 315.877C18.8884 315.897 18.7065 315.856 18.6014 315.796C17.9344 315.828 17.2634 315.86 16.5965 315.901C15.7638 315.949 14.927 315.998 14.0944 316.042C21.4753 316.6 28.4844 317.764 35.9422 318.245C45.6353 318.876 55.4658 318.755 65.2155 319.135C75.6604 319.543 86.0366 319.749 96.5341 319.696C106.773 319.648 117.004 319.47 127.242 319.438C143.666 319.389 160.069 319.992 176.492 319.68C192.972 319.365 209.185 317.999 225.636 317.538C242.031 317.077 258.265 317.958 274.648 317.91L274.639 317.918Z" fill="#4EC9F5"/>
</g>
<g style="mix-blend-mode:multiply" opacity="0.4">
<path d="M186.541 311.556C193.728 311.576 200.907 311.418 208.09 311.438C215.026 311.463 221.95 311.632 228.866 311.83C242.884 312.235 256.89 312.708 270.905 312.016C280.739 311.531 290.424 310.715 300.117 309.906C299.919 309.906 299.717 309.898 299.519 309.894C292.348 309.749 285.21 309.441 278.031 309.373C263.41 309.227 248.802 309.644 234.182 309.563C226.877 309.522 219.634 309.223 212.342 309.106C205.094 308.989 197.847 309.021 190.599 309.094C177.761 309.219 164.899 309.397 152.106 308.912C156.807 309.417 161.366 310.117 166.088 310.614C172.737 311.317 179.681 311.535 186.541 311.556Z" fill="#4EC9F5"/>
</g>
<g style="mix-blend-mode:multiply" opacity="0.4">
<path d="M72.9361 311.2C83.4901 311.406 94.0361 311.216 104.57 310.941C111.951 310.747 119.748 310.589 126.818 309.607C118.35 309.636 109.877 309.652 101.397 309.595C86.9381 309.494 72.4833 309.336 58.0286 309.175C46.6863 309.045 35.3966 308.973 24.0664 309.175C23.549 309.183 21.726 309.243 19.5311 309.276C26.4634 309.825 33.517 310.125 40.5827 310.319C51.351 310.614 62.1556 310.998 72.932 311.208L72.9361 311.2Z" fill="#4EC9F5"/>
</g>
<g style="mix-blend-mode:multiply" opacity="0.4">
<path d="M25.3033 333.601C33.5412 333.646 41.7872 333.468 50.0211 333.387C64.5284 333.25 78.8376 333.747 93.3004 334.062C118.289 334.604 145.998 334.915 169.204 330.566C166.585 330.554 163.965 330.542 161.346 330.533C127.97 330.449 94.5737 330.683 61.1976 330.784C44.932 330.833 28.6664 331.128 12.3967 331.014C7.1015 330.978 1.73351 331.039 -3.52129 330.732C-4.98455 330.647 -6.50845 330.537 -8 330.38V330.679C-4.25697 330.849 -0.530094 331.136 3.18465 331.54C10.4444 332.332 17.6717 333.565 25.3033 333.605V333.601Z" fill="#4EC9F5"/>
</g>
<g style="mix-blend-mode:multiply" opacity="0.3">
<path d="M31.7505 303.98C64.8517 303.617 97.8721 303.621 130.941 304.385C147.49 304.765 164.018 305.266 180.534 305.82C196.856 306.365 213.235 306.422 229.598 306.167C262.19 305.658 294.814 304.441 327.216 302.986C343.061 302.279 359.395 301.588 375.301 302.396C387.072 302.994 398.645 304.296 410.432 304.85V299.837H-8V304.445C5.25018 304.304 18.5004 304.126 31.7505 303.98Z" fill="#4EC9F5"/>
</g>
<path opacity="0.4" d="M299.119 309.829C286.047 309.599 272.918 309.749 259.837 309.66C247.383 309.575 235.018 309.146 222.548 309.167C209.581 309.187 196.699 308.977 183.74 308.815C171.035 308.653 158.464 308.124 145.731 308.31C145.404 308.314 145.428 308.508 145.752 308.512C157.862 308.686 169.903 309.316 182.002 309.583C194.949 309.87 207.879 310.052 220.843 310.076C246.85 310.121 273.197 311.458 299.159 310.226C299.79 310.197 299.754 309.846 299.119 309.834V309.829Z" fill="white"/>
<path opacity="0.4" d="M119.764 309.316C102.011 308.977 84.0076 309.753 66.307 309.183C57.1919 308.888 47.9354 308.977 38.792 308.766C34.6084 308.669 30.4167 308.597 26.225 308.564C21.3542 308.528 16.0913 308.843 11.2811 308.572C10.9416 308.552 10.8243 308.742 11.1598 308.783C18.5408 309.64 27.3972 309.041 35.0611 309.304C45.0371 309.644 54.9849 309.728 64.9771 309.878C83.2274 310.157 101.575 310.157 119.793 309.656C120.351 309.64 120.302 309.324 119.76 309.316H119.764Z" fill="white"/>
<path opacity="0.4" d="M310.926 314.745C285.917 314.906 260.929 315.844 235.916 316.131C212.362 316.398 188.905 316.923 165.324 316.952C141.418 316.98 117.513 317.069 93.6319 316.616C68.9182 316.147 44.3783 315.4 19.6403 315.586C19.3007 315.586 19.329 315.792 19.6605 315.796C43.7275 315.978 67.7258 316.818 91.7685 317.275C115.666 317.732 139.551 317.667 163.476 317.651C187.05 317.635 210.462 317.045 234 316.758C259.591 316.446 285.489 316.123 310.95 315.016C311.371 314.995 311.354 314.749 310.926 314.749V314.745Z" fill="white"/>
<path d="M258.023 307.577C256.975 307.468 255.923 307.402 254.871 307.371C253.353 307.328 252.099 307.072 250.741 307.763C248.295 309.009 245.842 310.802 243.645 312.433C241.968 313.675 240.186 315.794 238.094 316.361C236.72 316.734 234.748 316.481 233.35 316.198C230.098 315.53 226.654 315.173 223.363 315.837C220.397 316.435 217.82 317.564 214.757 317.428C213.53 317.374 212.3 317.328 211.073 317.324C209.299 317.32 208.515 316.71 207.009 315.833C205.484 314.944 203.888 314.537 202.211 314.024C200.818 313.601 199.129 313.209 197.658 313.5C194.964 314.024 191.886 316.582 190.314 318.756C189.134 320.39 188.532 322.89 186.238 323.302C183.688 323.756 180.842 322.576 178.311 323.185C175.618 323.833 172.962 325.103 170.307 325.937C166.523 327.129 162.664 328.06 158.895 329.299C156.034 330.242 153.678 329.411 150.883 328.973C148.492 328.596 145.988 329.132 143.589 328.682C139.172 327.855 134.828 326.178 130.458 325.087C127.034 324.233 123.311 323.531 119.783 323.453C118.843 323.433 117.644 323.181 116.724 323.395C115.707 323.628 114.896 324.54 113.98 325.017C111.852 326.12 109.256 326.131 106.958 326.698C103.076 327.657 98.7012 326.376 94.7341 326.686C86.6912 327.319 78.5357 326.686 70.4423 326.426C67.5776 326.337 64.6663 326.081 61.7977 326.12C60.0975 326.143 58.4594 326.589 56.7631 326.578C53.9838 326.554 51.3558 326.092 48.6891 327.106C47.0238 327.742 45.4828 328.526 43.7477 328.973C42.5055 329.295 41.1663 329.613 40.2153 330.533C38.7674 331.938 38.8839 334.209 38.519 336.049C38.2589 337.357 37.8475 338.619 37.3933 339.869C36.384 342.652 38.1269 345.521 41.0576 345.951L158.806 363.307L245.027 366.07C247.515 366.152 249.669 364.351 250.03 361.886L258.03 307.584C258.03 307.584 258.03 307.577 258.023 307.577Z" fill="#6292F1"/>
<path d="M385.607 268.887C377.219 265.972 358.338 262.564 349.523 266.139C343.242 268.69 341.573 276.43 337.268 280.746C328.81 289.228 320.072 287.648 306.746 287.302C296.044 287.027 297.694 290.734 290.33 295.869C286.468 298.567 280.964 294.918 276.954 296.836C271.286 299.549 269.509 303.101 266.978 305.314C256.09 314.835 240.423 310.08 227.834 318.166C224.011 320.619 221.461 324.528 216.787 325.122C212.905 325.619 206.854 323.961 203.112 325.184C198.341 326.737 194.855 331.438 191.785 336.185C189.394 339.88 192.507 346.029 196.905 346.029H378.853C381.656 346.029 383.887 343.684 383.748 340.886C383.596 337.788 383.441 334.69 383.29 331.597L385.619 268.887H385.607Z" fill="url(#paint5_linear_199_8565)"/>
<path d="M317.914 350.107C310.026 351.485 300.982 351.186 293.556 349.214C286.786 347.413 283.6 342.239 276.535 344.898C272.055 346.578 267.844 349.99 263.383 351.854C248.862 357.921 236.429 344.242 222.68 347.758C211.896 350.514 203.729 358.394 192.6 358.883C181.46 359.369 171.662 362.459 160.549 360.091C148.12 357.439 135.97 352.77 123.195 353.255C115.094 353.562 106.768 355.957 98.647 354.897C93.6008 354.241 88.9388 351.559 83.9935 350.049C79.5761 348.698 74.0563 347.355 69.6467 349.21C66.1454 350.685 64.0531 353.387 60.447 354.066C51.9732 355.658 46.3486 346.019 38.3988 344.405C35.7088 343.861 32.4675 341.932 29.859 342.002C28.5237 342.037 26.9322 342.53 25.2747 343.357C23.8035 344.09 23 345.67 23 347.312V370.847C23 373.553 25.1932 375.746 27.8987 375.746H313.011C315.717 375.746 317.91 373.553 317.91 370.847V350.107C317.91 350.107 317.91 350.103 317.906 350.103L317.914 350.107Z" fill="#000045"/>
<g opacity="0.28">
<path d="M-36.8524 154.905C-36.8524 154.905 -12.9915 163.052 2.1395 163.052C17.2705 163.052 17.8527 161.888 21.3463 164.795C24.8398 167.706 25.4221 169.453 32.9837 168.871C40.5453 168.289 53.3511 170.614 59.1698 172.947C64.9885 175.276 70.8072 171.782 77.7943 172.947C84.7775 174.107 106.313 182.259 128.424 180.508C128.424 180.508 76.0514 178.766 45.7895 175.85C15.5276 172.939 -25.7895 162.462 -36.8446 154.901H-36.8485L-36.8524 154.905Z" fill="white"/>
</g>
<g opacity="0.28">
<path d="M150.569 145.41C150.569 145.41 171.891 149.971 184.891 148.465C197.891 146.959 198.275 145.918 201.567 148.042C204.859 150.165 205.538 151.597 211.978 150.351C218.421 149.105 229.659 149.816 234.891 151.213C240.128 152.618 244.778 149.07 250.896 149.361C257.013 149.653 276.337 154.446 295.167 150.767C295.167 150.767 249.984 154.485 223.685 155.017C197.386 155.549 160.828 150.747 150.569 145.418H150.561L150.569 145.41Z" fill="white"/>
</g>
<g opacity="0.28">
<path d="M-138.181 106.911C-138.181 106.911 31.9821 146.011 185.784 154.978C339.582 163.937 438.577 119.946 438.577 119.946L440.211 126.467C440.211 126.467 312.588 176.165 105.611 159.865C-101.371 143.574 -139 128.093 -139 128.093L-138.181 106.911Z" fill="white"/>
</g>
<path opacity="0.2" d="M-16.8926 -16C-16.8926 -16 95.5144 92.5951 308.462 102.897C308.462 102.897 306.878 97.3463 298.171 95.7587C289.465 94.1711 279.962 98.1382 277.587 92.5873C275.211 87.0365 267.296 71.1835 250.671 70.3955C234.045 69.6075 223.759 79.11 215.044 73.5669C206.334 68.0238 196.043 57.7139 187.337 58.5058C178.63 59.2977 157.257 65.6404 154.086 56.1263C150.918 46.6122 150.918 29.9713 132.709 9.3593C114.5 -11.2527 59.8801 25.2123 51.1734 13.3225C42.4823 1.44059 40.1066 -16 29.0243 -16H-16.8887H-16.8926Z" fill="white"/>
<path opacity="0.2" d="M228.13 105.257C228.13 105.257 90.7281 107.144 -4.18776 87.3199C-99.0959 67.4959 -134.982 38.2316 -134.982 38.2316C-134.982 38.2316 -114.204 47.6719 -105.233 46.7287C-96.2622 45.7816 -84.9276 34.9282 -77.3776 36.349C-69.8238 37.7697 -64.1604 56.1729 -58.0195 57.1201C-51.8786 58.0672 -48.1017 52.8696 -23.5498 53.3431C1.00212 53.8167 2.89252 69.8599 13.7536 77.4176C24.6107 84.9675 55.7732 80.2513 70.4112 79.7777C85.0492 79.3041 92.603 94.4118 102.047 96.2944C111.492 98.1771 131.323 91.1045 135.57 92.5136C139.816 93.9266 142.658 99.5978 147.374 99.1242C152.094 98.6506 151.155 93.4608 155.871 96.2905C160.591 99.1242 173.816 102.901 177.59 98.6506C181.37 94.4001 228.11 105.261 228.11 105.261H228.133L228.13 105.257Z" fill="white"/>
<path opacity="0.2" d="M189.933 57.4617C189.933 57.4617 317.021 82.9879 376.31 78.1125C376.31 78.1125 364.145 72.9381 357.286 73.6135C350.427 74.289 345.451 78.1746 337.342 70.4965C329.241 62.8223 306.781 55.6877 294.666 62.4536C282.563 69.2155 273.181 65.8656 269.745 63.2222C266.31 60.5787 262.234 63.0785 254.735 62.9233C247.224 62.7796 238.412 42.3463 227.85 42.583C217.288 42.8198 214.031 57.3413 207.708 53.611C201.388 49.8807 189.937 57.4656 189.937 57.4656L189.933 57.4617Z" fill="white"/>
<path d="M129.332 341.678H-23.2781V310.399C-21.8302 309.941 -20.293 309.483 -18.6705 309.04C-9.79297 306.614 1.65423 304.549 15.7682 304.009C23.5782 303.714 32.2112 303.881 41.6709 304.724C77.4022 307.883 109.958 327.47 129.328 341.681L129.332 341.678Z" fill="url(#paint6_linear_199_8565)"/>
<g opacity="0.34">
<path d="M129.332 341.678H123.311C115.769 336.173 102.354 326.954 91.652 322.719C75.8573 316.47 63.6881 316.14 52.4971 311.202C41.3138 306.265 26.5051 306.595 18.2797 305.939C10.0543 305.279 1.16905 306.595 -7.38239 308.57C-11.858 309.603 -18.224 311.804 -23.2742 313.671V310.399C-21.8263 309.941 -20.2891 309.483 -18.6666 309.04C-9.78906 306.614 1.65814 304.549 15.7721 304.009C23.5821 303.714 32.2151 303.881 41.6748 304.724C77.4061 307.883 109.962 327.47 129.332 341.681V341.678Z" fill="white"/>
</g>
<path opacity="0.46" d="M92.8942 341.678H-23.2781V310.399C-21.8302 309.941 -20.293 309.482 -18.6705 309.04C-18.8762 309.669 -18.9694 310.336 -18.9228 311.031C-18.7559 313.45 -16.8266 315.464 -14.6102 316.439C-12.3937 317.417 -9.90942 317.553 -7.4911 317.654C5.21378 318.193 17.9458 318.193 30.6507 317.654C32.25 317.588 33.9036 317.518 35.3942 318.096C36.8886 318.674 38.1813 320.087 38.0881 321.687C37.9522 324.004 35.1341 325.526 35.0992 327.851C35.0759 329.33 36.2792 330.607 37.6572 331.146C39.0391 331.686 40.5646 331.647 42.0475 331.593C53.9411 331.17 65.8463 330.417 77.7321 331.011C80.7056 331.154 83.7294 331.403 86.4893 332.521C89.2492 333.638 91.7452 335.766 92.603 338.619C92.9058 339.616 92.9873 340.653 92.8903 341.681L92.8942 341.678Z" fill="url(#paint7_linear_199_8565)"/>
<path d="M21.09 252.301C21.09 252.301 20.0924 261.283 19.0948 262.083C18.0972 262.882 15.1044 271.465 15.1044 271.465C15.1044 271.465 13.9049 280.047 13.1053 282.438C12.5929 283.976 10.1862 289.294 8.53652 292.907C8.53652 292.939 8.53652 292.966 8.53652 292.997C8.53652 293.09 8.53653 293.183 8.54429 293.276C8.83542 306.983 9.73985 344.022 9.73985 344.022L-0.604937 344.154L-4.18777 344.201L-10.8837 344.282L-7.09129 281.355C-7.09129 281.355 -10.4568 274.877 -10.9769 273.584C-11.4971 272.288 -13.0459 262.188 -13.0459 260.635C-13.0459 259.843 -15.0644 256.427 -17.044 253.263C-18.9461 250.228 -20.8132 247.425 -20.8132 247.425L-25.9992 241.471L-30.1371 231.891L-29.7683 231.444L-28.8484 230.338L-24.1825 238.362C-24.1825 238.362 -13.3098 250.278 -12.0094 251.315C-10.7207 252.351 -7.87153 261.931 -7.60757 262.968C-7.39019 263.857 -3.90052 271.271 -2.93397 273.32C-2.77482 273.65 -2.68554 273.84 -2.68554 273.84L-2.66613 273.417L-1.39681 243.544V217.901L-0.143011 217.668L1.63094 217.338L2.75275 217.128L5.20212 237.927C5.20212 237.927 5.21765 237.907 5.24094 237.876C5.75333 237.255 10.7258 231.25 10.9742 230.509C11.2343 229.736 11.5526 222.051 11.5526 222.051L13.2839 220.533L13.6216 220.234C13.6216 220.234 14.658 226.192 14.922 227.489C15.1782 228.785 13.1053 235.52 12.329 236.557C11.6264 237.492 6.4598 244.161 5.49325 245.415C5.39232 245.547 5.33798 245.62 5.33798 245.62C5.33798 245.62 5.59806 249.06 5.94353 253.26C6.44039 259.303 7.10805 266.931 7.4147 268.154C7.62044 268.988 7.83005 272.039 8.01249 275.537L9.37886 274.582L12.1155 272.664L14.3125 261.885C14.3125 261.885 16.5057 260.689 17.3053 260.285C18.105 259.89 18.7028 251.703 18.7028 251.703L20.3486 252.114L21.0978 252.301H21.09Z" fill="url(#paint8_linear_199_8565)"/>
<g opacity="0.45">
<path d="M21.0901 252.301C21.0901 252.301 20.0925 261.283 19.0949 262.083C18.0972 262.882 15.1044 271.465 15.1044 271.465C15.1044 271.465 14.3203 279.609 13.5207 282.004C13.0083 283.541 10.1902 289.298 8.53656 292.911C8.53656 292.942 8.53656 292.97 8.53656 293.001C7.53896 290.058 8.8471 284.884 9.64674 284.038C10.6599 282.966 13.9438 275.083 14.2427 274.365C14.5416 273.65 14.2427 273.231 14.1224 272.214C14.002 271.197 16.0904 267.851 16.2146 267.315C16.3349 266.78 15.7372 265.165 15.6789 264.268C15.6168 263.371 18.1283 262.059 18.664 261.283C19.1997 260.507 19.2618 259.432 19.4986 258.24C19.6965 257.254 20.1779 253.423 20.337 252.111L21.0862 252.297L21.0901 252.301Z" fill="white"/>
</g>
<g opacity="0.45">
<path d="M12.329 236.557C11.6264 237.492 6.45979 244.161 5.49324 245.415C5.1206 244.871 4.91487 244.204 4.91876 243.548C4.93428 242.216 5.67957 240.982 6.65 240.07C7.25555 239.495 7.95038 239.025 8.52875 238.428C9.23523 237.698 9.7515 236.813 10.2561 235.932C11.0946 234.476 11.933 233.024 12.7676 231.569C13.0354 231.103 13.311 230.621 13.3731 230.09C13.4236 229.62 13.3072 229.143 13.3615 228.673C13.4353 228.063 13.7924 227.532 13.9709 226.945C14.5881 224.869 12.8413 222.54 13.2839 220.541L13.6216 220.242C13.6216 220.242 14.658 226.2 14.922 227.497C15.1781 228.793 13.1053 235.528 12.329 236.564V236.557Z" fill="white"/>
</g>
<g opacity="0.45">
<path d="M5.23708 237.88C5.22544 237.935 5.21768 237.989 5.20603 238.043C5.13616 238.381 4.89549 238.816 4.56942 238.692C4.3831 238.622 4.31323 238.4 4.26665 238.206C3.95611 236.894 3.64947 235.586 3.34281 234.278C3.08662 233.191 2.82653 232.093 2.82265 230.975C2.81489 229.705 3.13319 228.459 3.15648 227.194C3.21471 223.863 1.25444 220.521 1.63097 217.342L2.75278 217.132L5.20215 237.931C5.20215 237.931 5.21768 237.911 5.24097 237.88H5.23708Z" fill="white"/>
</g>
<g opacity="0.45">
<path d="M9.37491 274.578C9.36327 274.733 9.34774 274.889 9.32445 275.048C9.23905 275.673 9.02168 276.364 8.45495 276.635C7.78729 276.958 6.96049 276.492 6.61501 275.832C6.27342 275.176 6.28118 274.396 6.29282 273.658C6.33552 270.425 6.21519 267.191 6.09874 263.962C6.04051 262.366 5.98229 260.771 5.82314 259.183C5.69116 257.894 4.79837 255.565 5.13608 254.339C5.30687 253.718 5.58247 253.384 5.94347 253.256C6.44033 259.3 7.10799 266.927 7.41465 268.15C7.62038 268.984 7.83 272.035 8.01244 275.533L9.3788 274.578H9.37491Z" fill="white"/>
</g>
<g opacity="0.45">
<path d="M9.73993 344.026L-0.604861 344.158C-0.779539 342.299 -0.305968 340.346 1.03323 339.069C1.94543 338.196 3.1837 337.703 4.06097 336.798C5.37299 335.44 5.668 333.433 5.89703 331.558C6.36671 327.727 6.8364 323.814 6.04065 320.037C5.36911 316.846 3.81642 313.5 5.05469 310.48C5.8582 308.524 7.73697 307.095 8.25323 305.042C8.80444 302.856 7.66321 300.625 7.43031 298.381C7.24399 296.622 7.65156 294.81 8.54824 293.28C8.83937 306.987 9.74382 344.026 9.74382 344.026H9.73993Z" fill="white"/>
</g>
<path opacity="0.3" d="M-0.329344 265.856C-0.403097 267.544 -0.476845 269.245 -0.251705 270.922C-0.0420921 272.49 0.357725 274.322 -0.736921 275.459C-0.865018 275.591 -1.02029 275.715 -1.20273 275.719C-1.51715 275.727 -1.719 275.397 -1.85486 275.114C-2.12658 274.551 -2.3983 273.984 -2.66614 273.417L-1.39682 243.544V217.901L-0.143017 217.668C-0.857255 222.004 -0.810679 226.464 -0.0149257 230.788C0.233505 232.12 0.547926 233.443 0.71484 234.787C0.959389 236.774 0.870114 238.781 0.780835 240.776C0.412071 249.137 0.0433049 257.495 -0.325459 265.852L-0.329344 265.856Z" fill="url(#paint9_linear_199_8565)"/>
<path d="M44.2561 246.412C42.7694 247.647 40.914 248.578 38.8683 249.281C29.7501 252.41 16.9405 250.911 16.9405 250.911C4.15017 250.911 11.9291 241.059 11.9291 241.059C11.9291 241.059 11.0402 240.45 10.2173 239.491C9.00233 238.074 7.93097 235.893 10.0853 233.785C10.4347 233.44 10.8733 233.098 11.4051 232.76C17.4567 228.956 37.1642 227.229 43.5613 228.44C49.9584 229.647 42.6957 237.601 42.6957 237.601C42.6957 237.601 45.4168 238.183 46.7637 239.736C47.9593 241.11 48.0719 243.249 44.2523 246.416L44.2561 246.412Z" fill="url(#paint10_linear_199_8565)"/>
<path d="M44.2561 246.412C42.7694 247.647 40.914 248.578 38.8683 249.281C29.7501 252.41 16.9405 250.907 16.9405 250.907C4.15017 250.907 11.9291 241.055 11.9291 241.055C11.9291 241.055 11.0402 240.446 10.2173 239.487C9.00233 238.07 7.93097 235.889 10.0853 233.781C10.0853 233.801 10.0776 233.82 10.0737 233.839C9.79808 235.248 10.3765 236.786 11.506 237.671C13.4158 239.165 16.1331 238.606 18.563 238.676C17.1229 239.685 15.6789 240.694 14.2388 241.704C14.033 241.847 13.8157 242.01 13.7419 242.251C13.6837 242.437 13.7264 242.647 13.8001 242.829C14.2271 243.877 15.5003 244.262 16.6183 244.44C22.2972 245.364 28.1159 244.499 33.7134 243.156C38.0842 242.107 42.389 240.76 46.7637 239.732C47.9593 241.106 48.0719 243.245 44.2523 246.412H44.2561Z" fill="url(#paint11_linear_199_8565)"/>
<path d="M38.8723 249.281C29.7541 252.409 16.9444 250.911 16.9444 250.911C4.15413 250.911 11.9331 241.059 11.9331 241.059C11.9331 241.059 11.0442 240.45 10.2213 239.491C11.0675 239.844 11.968 240.081 12.7638 240.531C13.0161 240.675 13.2801 240.877 13.3072 241.168C13.3422 241.564 12.9191 241.828 12.5852 242.045C11.5333 242.744 10.8812 244.009 10.9239 245.271C10.9627 246.533 11.6963 247.755 12.791 248.384C13.3305 248.691 13.94 248.862 14.5494 248.99C21.5947 250.469 28.8691 246.734 35.9881 247.771C37.1022 247.93 38.3366 248.326 38.8684 249.285L38.8723 249.281Z" fill="url(#paint12_linear_199_8565)"/>
<path d="M42.948 213.81C42.948 213.81 43.507 214.062 43.9767 214.532C44.753 215.304 45.2809 216.659 42.6142 218.406C42.3541 218.576 42.063 218.751 41.7369 218.93C36.0812 222.027 25.5889 220.568 25.5889 220.568C17.9109 221.779 13.4508 220.548 14.3902 217.583C15.3334 214.621 18.5669 212.599 18.5669 212.599C18.5669 212.599 17.5343 211.407 19.1026 209.369C21.5325 206.209 24.5991 203.278 31.0699 203.139C31.493 203.131 31.8812 203.139 32.2344 203.154C32.8633 203.181 33.3912 203.251 33.8298 203.352C36.9197 204.039 35.6736 206.132 35.6736 206.132C35.6736 206.132 46.9889 203.034 49.2791 207.211C51.5693 211.387 42.948 213.81 42.948 213.81Z" fill="url(#paint13_linear_199_8565)"/>
<path d="M41.9582 218.406C41.6981 218.576 41.407 218.751 41.0809 218.93C35.4252 222.027 24.9329 220.568 24.9329 220.568C17.2549 221.779 12.7948 220.548 13.7342 217.583C14.6774 214.621 17.9109 212.599 17.9109 212.599C17.9109 212.599 16.8783 211.407 18.4466 209.369C20.8765 206.209 23.9431 203.278 30.4139 203.139C30.837 203.131 31.2252 203.139 31.5784 203.154C32.2073 203.181 32.7352 203.251 33.1738 203.352C32.3936 204.16 31.6716 205.033 31.33 206.089C30.903 207.401 31.264 209.078 32.4906 209.703C30.6274 210.794 28.8457 212.016 27.1649 213.375C26.571 213.852 25.9499 214.423 25.8839 215.18C25.8141 215.968 26.408 216.686 27.1261 217.016C27.8442 217.342 28.6594 217.354 29.4474 217.334C33.4456 217.233 37.4321 216.5 41.209 215.172C41.8999 214.928 42.5986 214.664 43.3168 214.536C44.0931 215.308 44.621 216.663 41.9543 218.409L41.9582 218.406Z" fill="url(#paint14_linear_199_8565)"/>
<path d="M41.9582 218.406C41.6981 218.576 41.407 218.751 41.0809 218.93C35.4252 222.027 24.9329 220.568 24.9329 220.568C17.2549 221.779 12.7948 220.548 13.7342 217.583C14.6774 214.621 17.9109 212.599 17.9109 212.599C17.9109 212.599 16.8783 211.407 18.4466 209.369C20.8765 206.209 23.9431 203.278 30.4139 203.139C30.837 203.131 31.2252 203.139 31.5784 203.154L31.2019 203.181C29.2145 204.004 27.7045 205.883 27.3241 207.999C27.1766 208.825 27.1804 209.703 26.7806 210.444C26.2566 211.43 25.1619 211.931 24.2226 212.533C22.9105 213.375 21.8004 214.524 21.0085 215.867C20.6281 216.515 20.3176 217.311 20.6242 217.998C20.9891 218.813 22.0488 219.054 22.9338 218.949C23.8189 218.844 24.6845 218.503 25.5734 218.58C26.5788 218.662 27.4716 219.263 28.4498 219.5C30.4062 219.974 32.4091 218.953 34.4199 218.937C35.7358 218.926 37.0323 219.341 38.3443 219.248C39.5748 219.159 40.7471 218.631 41.9543 218.409L41.9582 218.406Z" fill="url(#paint15_linear_199_8565)"/>
<path d="M20.2749 212.047C17.5227 215.277 9.60788 215.335 9.60788 215.335C9.60788 215.335 9.02951 217.311 6.0367 219.104C3.04389 220.902 -3.0543 219.582 -3.0543 219.582C-14.9013 218.386 -7.00202 210.852 -7.00202 210.852C-7.00202 210.852 -11.9046 209.416 -10.7129 207.382C-10.6081 207.203 -10.4995 207.036 -10.383 206.877C-9.16026 205.169 -7.36302 204.272 -7.36302 204.272C-7.36302 204.272 -7.85211 203.997 -8.18206 203.461C-8.50424 202.941 -8.67504 202.168 -8.08114 201.159C-6.88557 199.125 -0.542833 194.941 4.36367 194.459C9.26628 193.982 9.3905 199.366 9.3905 199.366C9.3905 199.366 17.4917 198.015 20.7911 199.991C21.1676 200.216 21.4821 200.484 21.7111 200.798C23.9858 203.907 18.0002 207.261 18.0002 207.261C18.0002 207.261 19.3394 207.673 20.2593 208.523C21.1172 209.315 21.6063 210.483 20.2749 212.047Z" fill="url(#paint16_linear_199_8565)"/>
<path d="M19.3898 212.385C16.6377 215.615 8.72287 215.673 8.72287 215.673C8.72287 215.673 8.14449 217.649 5.15168 219.442C2.15887 221.239 -3.93931 219.92 -3.93931 219.92C-15.7863 218.724 -7.88703 211.19 -7.88703 211.19C-7.88703 211.19 -12.7896 209.753 -11.598 207.719C-11.4932 207.541 -11.3845 207.374 -11.268 207.215C-10.0453 205.507 -8.24803 204.61 -8.24803 204.61C-8.24803 204.61 -8.73712 204.334 -9.06707 203.799C-7.84821 204.61 -6.28387 204.82 -4.80106 204.944C-5.64339 205.231 -6.49737 205.53 -7.19996 206.07C-7.90643 206.613 -8.43823 207.452 -8.38001 208.337C-8.32178 209.253 -7.62695 210.037 -6.79238 210.417C-5.95393 210.798 -5.00291 210.821 -4.09071 210.712C-4.23821 212.222 -3.26778 213.705 -1.91694 214.392C-0.56998 215.079 1.072 215.036 2.49271 214.509C3.94447 213.969 5.20991 212.94 6.03284 211.628C8.54431 212.284 11.2072 212.358 13.7536 211.842C14.5532 211.683 15.3684 211.45 15.9778 210.914C16.5911 210.378 16.9405 209.466 16.6105 208.725C16.2534 207.929 15.3101 207.615 14.4678 207.386C16.3815 206.893 18.1166 205.744 19.32 204.171C20.1584 203.069 20.6436 201.369 19.9061 200.329C20.2826 200.554 20.5971 200.822 20.8261 201.136C23.1008 204.245 17.1152 207.599 17.1152 207.599C17.1152 207.599 18.4543 208.01 19.3743 208.861C20.2322 209.652 20.7213 210.821 19.3898 212.385Z" fill="url(#paint17_linear_199_8565)"/>
<path d="M46.9074 212.703C44.1553 215.933 36.2404 215.991 36.2404 215.991C36.2404 215.991 35.6621 217.967 32.6693 219.76C29.6764 221.558 23.5783 220.238 23.5783 220.238C11.7312 219.042 19.6305 211.508 19.6305 211.508C19.6305 211.508 14.7279 210.072 15.9196 208.038C16.0244 207.859 16.1331 207.692 16.2496 207.533C16.4825 207.731 16.696 207.964 16.8784 208.201C17.4102 208.884 17.8605 209.672 18.6019 210.118C19.0405 210.378 19.5451 210.502 19.9993 210.735C20.4573 210.968 20.8805 211.368 20.9154 211.877C20.9348 212.148 20.8416 212.412 20.7562 212.668C20.5466 213.301 20.3991 214.015 20.698 214.609C21.0008 215.207 21.9441 215.463 22.3322 214.924C24.0906 216.76 26.6681 217.777 29.2068 217.629C31.7454 217.482 34.1948 216.177 35.7281 214.155C37.4942 214.186 39.2759 214.217 41.0111 213.891C42.7501 213.565 44.4619 212.855 45.7002 211.593C46.3407 210.945 46.8414 210.06 46.8919 209.183C47.7498 209.975 48.2388 211.143 46.9074 212.707V212.703Z" fill="url(#paint18_linear_199_8565)"/>
<path d="M29.4861 217.253C29.4202 217.513 29.3231 217.757 29.1911 217.986C27.7355 220.513 22.4331 221.127 18.4582 221.849C14.1223 222.637 10.8422 223.817 7.95422 220.929C5.06622 218.041 7.4302 216.729 7.4302 216.729C7.4302 216.729 2.83423 216.861 3.49024 214.365C3.59505 213.957 3.925 213.596 4.39469 213.278C5.01577 212.855 5.89303 212.502 6.85182 212.218C9.61948 211.384 13.0781 211.081 13.0781 211.081C13.0781 211.081 23.846 207.801 26.734 209.637C29.622 211.477 25.29 213.705 25.29 213.705C25.29 213.705 27.4444 213.876 28.6982 214.889C29.3542 215.417 29.7617 216.174 29.49 217.253H29.4861Z" fill="url(#paint19_linear_199_8565)"/>
<path d="M34.3228 215.875L33.8259 215.584C34.0161 215.642 34.183 215.743 34.3228 215.875Z" fill="url(#paint20_linear_199_8565)"/>
<path d="M29.9249 218.996C29.8589 219.256 29.7618 219.5 29.6299 219.729C28.1742 222.256 22.8718 222.87 18.8969 223.592C14.561 224.38 11.2809 225.56 8.39294 222.672C5.50494 219.784 7.86891 218.472 7.86891 218.472C7.86891 218.472 3.27295 218.604 3.92896 216.108C4.03377 215.7 4.36372 215.339 4.83341 215.021C5.45449 214.598 6.33175 214.244 7.29054 213.961C7.33712 214.322 7.37981 214.687 7.51956 215.017C8.0203 216.181 9.53418 216.438 10.7996 216.523C10.0466 217.245 9.96504 218.503 10.4891 219.399C11.0131 220.296 12.0418 220.832 13.0821 220.905C14.1224 220.983 15.1549 220.645 16.0555 220.117C16.203 220.036 16.3505 219.939 16.5135 219.916C16.7115 219.885 16.9133 219.947 17.1074 220.009C20.3176 221.002 23.9082 220.719 26.9243 219.229C27.7705 218.813 28.6167 218.254 28.9894 217.389C29.0903 217.156 29.1408 216.892 29.1408 216.632C29.7968 217.16 30.2044 217.916 29.9326 218.996H29.9249Z" fill="url(#paint21_linear_199_8565)"/>
<path d="M29.6299 219.729C28.1742 222.256 22.8718 222.87 18.8969 223.592C14.561 224.38 11.2809 225.56 8.39294 222.672C5.50494 219.784 7.86891 218.472 7.86891 218.472C7.86891 218.472 3.27295 218.604 3.92896 216.108C4.03377 215.7 4.36372 215.339 4.83341 215.021C4.88387 215.886 5.38073 216.76 6.09884 217.276C7.18184 218.056 8.61032 218.188 9.94563 218.083C9.09942 218.549 8.31531 219.283 8.14839 220.23C7.91937 221.507 8.90922 222.761 10.1126 223.246C11.3159 223.735 12.6667 223.638 13.9555 223.479C17.3675 223.056 20.7252 222.26 24.0751 221.464C25.9694 221.014 27.8831 220.556 29.6337 219.729H29.6299Z" fill="url(#paint22_linear_199_8565)"/>
<path d="M16.1874 341.922C16.1874 341.922 14.5648 324.198 19.4053 315.569C22.3438 310.329 27.786 308.489 31.6056 307.852" stroke="url(#paint23_linear_199_8565)" stroke-width="0.74" stroke-miterlimit="10"/>
<path d="M29.4901 310.635C27.5104 311.555 22.8951 314.253 20.667 317.122C18.5553 319.843 16.5252 317.351 17.4995 315.053C17.5538 314.929 17.6159 314.801 17.6858 314.676C18.8231 312.728 24.6263 307.324 28.2247 307.297C29.0282 307.289 29.7191 307.549 30.2276 308.174C30.2276 308.174 31.4698 309.723 29.4901 310.639V310.635Z" fill="url(#paint24_linear_199_8565)"/>
<g opacity="0.28">
<path d="M29.4901 310.635C27.5104 311.555 22.8951 314.253 20.667 317.122C18.5553 319.843 16.5252 317.351 17.4995 315.053C18.4854 315.328 19.8052 315.305 21.5636 314.684C25.6123 313.252 27.46 309.533 28.2286 307.297C29.0321 307.289 29.723 307.549 30.2315 308.174C30.2315 308.174 31.4737 309.723 29.494 310.639L29.4901 310.635Z" fill="#82007E"/>
</g>
<path d="M40.7433 317.762C40.685 318.015 36.9081 334.112 38.7597 339.706C38.7597 339.706 45.2616 329.551 40.7433 317.766V317.762Z" fill="url(#paint25_linear_199_8565)"/>
<g opacity="0.28">
<path d="M40.7354 317.766C40.6772 318.015 36.9041 334.104 38.7557 339.694C38.7557 339.694 41.5971 329.45 40.7354 317.766Z" fill="#82007E"/>
</g>
<path d="M54.368 324.842C54.1545 325.002 40.6384 334.904 37.9988 340.746C37.9988 340.746 49.2131 337.625 54.3719 324.842H54.368Z" fill="url(#paint26_linear_199_8565)"/>
<g opacity="0.28">
<path d="M54.3642 324.842C54.1507 324.998 40.6346 334.9 37.995 340.742C37.995 340.742 46.8919 334.768 54.3642 324.842Z" fill="#82007E"/>
</g>
<path d="M50.2107 314.055C50.0399 314.358 39.0508 333.444 39.0275 341.53C39.0275 341.53 50.8978 331.383 50.2146 314.055H50.2107Z" fill="url(#paint27_linear_199_8565)"/>
<g opacity="0.28">
<path d="M50.0399 314.059C49.873 314.354 39.0313 333.375 39.0081 341.433C39.0081 341.433 46.4299 329.524 50.0399 314.059Z" fill="#82007E"/>
</g>
<path d="M52.1555 327.971C52.0235 328.115 43.6467 337.326 42.6025 341.879C42.6025 341.879 50.3233 337.831 52.1593 327.971H52.1555Z" fill="url(#paint28_linear_199_8565)"/>
<g opacity="0.28">
<path d="M52.1089 327.971C51.9769 328.115 43.6389 337.311 42.5986 341.856C42.5986 341.856 48.1689 336.189 52.1089 327.971Z" fill="#82007E"/>
</g>
<path d="M58.0751 338.161C57.8849 338.176 45.5333 339.143 41.5428 342.07C41.5428 342.07 49.7255 344.833 58.0751 338.161Z" fill="url(#paint29_linear_199_8565)"/>
<g opacity="0.28">
<path d="M58.0712 338.161C57.881 338.176 45.5294 339.147 41.5389 342.07C41.5389 342.07 49.446 341.813 58.0712 338.161Z" fill="#82007E"/>
</g>
<path d="M59.7482 329.244C59.523 329.376 45.1102 337.687 41.8573 343.23C41.8573 343.23 53.2385 341.456 59.7482 329.244Z" fill="url(#paint30_linear_199_8565)"/>
<g opacity="0.28">
<path d="M59.7482 329.248C59.523 329.376 45.1102 337.687 41.8573 343.234C41.8573 343.234 51.2821 338.316 59.7482 329.248Z" fill="#82007E"/>
</g>
<path d="M37.9911 342.695H9.06445C9.06445 342.695 9.36334 333.561 10.9549 326.419C11.4634 324.148 12.1 322.079 12.8957 320.561C16.2068 314.288 17.9497 329.625 17.9497 329.625C17.9497 329.625 20.9115 321.26 24.2226 319.866C27.5337 318.473 28.4032 329.8 28.4032 329.8C28.4032 329.8 31.8929 322.133 36.0735 322.308C40.2541 322.479 37.9872 342.695 37.9872 342.695H37.9911Z" fill="url(#paint31_linear_199_8565)"/>
<g opacity="0.46">
<path d="M37.5835 342.694H9.06445C9.06445 342.694 9.36334 333.561 10.9549 326.418C11.3314 325.145 11.7623 323.996 12.2552 323.065C15.5625 316.792 17.3054 332.128 17.3054 332.128C17.3054 332.128 20.2671 323.763 23.5821 322.37C26.8893 320.976 27.7627 332.303 27.7627 332.303C27.7627 332.303 31.2485 324.637 35.4291 324.811C38.6936 324.947 38.0338 337.283 37.5835 342.702V342.694Z" fill="#4194F2"/>
</g>
</g>
<mask id="mask1_199_8565" style="mask-type:luminance" maskUnits="userSpaceOnUse" x="75" y="285" width="35" height="22">
<path d="M109.884 305.659L96.7751 306.5C94.0668 306.674 91.3546 306.678 88.6463 306.508L75 305.659V285H109.884V305.659Z" fill="white"/>
</mask>
<g mask="url(#mask1_199_8565)">
<path d="M87.0573 298.168C87.0573 298.168 82.3146 302.43 82.0365 302.642C81.7583 302.854 81.1837 302.709 80.8216 302.48C80.4595 302.251 80.0587 301.862 79.9665 301.957C79.8743 302.052 80.3503 302.492 80.6673 302.705C80.9843 302.918 81.2641 302.92 81.2641 302.92C81.2641 302.92 80.9444 303.009 80.5928 302.853C80.1522 302.659 79.8091 302.208 79.7167 302.219C79.6244 302.23 79.8143 302.74 80.301 303.074C80.6553 303.316 80.93 303.351 80.93 303.351C80.93 303.351 80.6363 303.451 80.261 303.273C79.8858 303.095 79.6977 302.794 79.529 302.813C79.3604 302.831 79.6805 303.387 80.0696 303.588C80.4577 303.791 81.5419 303.651 81.5419 303.651C81.5419 303.651 80.9203 303.846 80.7614 304.003C80.6026 304.161 80.7012 304.431 80.7012 304.431C80.7012 304.431 81.0048 304.17 81.3771 304.052C81.7495 303.934 82.1564 303.088 82.2515 302.987C82.3475 302.885 85.5817 300.928 85.5817 300.928C85.5817 300.928 87.122 298.446 87.0537 298.17L87.0573 298.168Z" fill="#9CA000"/>
<path d="M98.4437 305.454C98.1965 308.664 98.4739 311.203 98.4739 311.203L97.8738 311.347C97.8738 311.347 94.9056 308.33 91.7039 307.629C88.4983 306.927 86.6485 309.392 86.6485 309.392L86.0741 309.313C86.0741 309.313 84.0425 305.49 84.3608 299.656C84.6791 293.821 85.2959 289.874 85.7354 289.598C85.9618 289.456 87.018 288.726 88.656 288.16C88.6748 288.153 88.6832 288.15 88.6832 288.15C90.2214 287.619 92.2681 287.235 94.6139 287.612C99.4787 288.394 101.297 292.111 101.432 292.863C101.565 293.614 98.6889 302.243 98.4418 305.454L98.4437 305.454Z" fill="url(#paint32_linear_199_8565)"/>
<path d="M97.017 300.906L96.8615 301.492C96.8615 301.492 95.572 302.509 93.6741 303.008C93.6741 303.008 93.6721 303.008 93.6701 303.01C92.6638 303.274 91.4853 303.393 90.2394 303.139C87.7594 302.63 87.1739 300.938 87.0473 299.941C87.0455 299.925 87.0456 299.916 87.0456 299.916C86.9945 299.481 87.0308 299.184 87.0308 299.184L87.2902 298.656C87.2902 298.656 89.2727 300.27 92.0438 300.862C94.8346 301.457 97.0189 300.909 97.0189 300.909L97.017 300.906Z" fill="#590800"/>
<path d="M100.961 291.902C100.961 291.902 103.074 288.407 103.544 288.491C104.015 288.575 102.169 291.492 102.169 291.492C102.169 291.492 106.858 289.536 107.383 290.612C107.907 291.691 102.167 292.052 102.167 292.052C102.167 292.052 104.773 292.872 104.563 293.352C104.352 293.833 101.434 292.863 101.434 292.863L100.963 291.902L100.961 291.902Z" fill="#590800"/>
<path d="M94.9499 290.429C94.9499 290.429 96.2542 290.84 97.4911 291.778C98.7299 292.716 99.045 293.54 99.045 293.54L98.972 292.911L99.4788 293.215L100.164 292.59C100.164 292.59 99.3985 291.267 98.1427 290.289C96.8508 289.282 95.2531 288.818 95.2531 288.818L95.1143 289.424C95.1143 289.424 95.4483 289.583 95.8685 289.8C96.2177 289.981 96.5536 290.285 96.5536 290.285L95.0913 289.706L94.9516 290.432L94.9499 290.429Z" fill="#590800"/>
<path d="M92.5626 289.78C92.5626 289.78 91.1975 289.859 89.7689 290.466C88.3384 291.074 87.8164 291.613 87.8164 291.613L87.8664 291.146L87.4923 291.374L86.9801 290.601C86.9801 290.601 88.046 289.505 89.5027 288.863C91.0017 288.201 92.6642 288.143 92.6642 288.143L92.6506 288.765C92.6506 288.765 92.288 288.837 91.8275 288.945C91.4448 289.035 91.2666 289.142 91.2666 289.142L92.6042 289.043L92.5623 289.781L92.5626 289.78Z" fill="#590800"/>
<path d="M93.6721 303.008C93.6721 303.008 93.6701 303.008 93.6681 303.01C92.6618 303.274 91.4833 303.393 90.2374 303.139C87.7574 302.63 87.1719 300.938 87.0453 299.941C87.0435 299.925 87.0436 299.916 87.0436 299.916C87.0436 299.916 89.5956 300.738 91.4711 301.772C93.3446 302.809 93.6701 303.01 93.6701 303.01L93.6721 303.008Z" fill="#8B1229"/>
<path d="M87.0289 299.182L86.916 299.855C86.916 299.855 86.7733 302.218 89.1292 303.134C92.776 304.551 96.4759 302.03 96.4761 302.007C96.4763 301.983 96.8577 301.492 96.8577 301.492C96.8577 301.492 92.6088 304.299 89.264 302.851C86.5438 301.674 87.025 299.182 87.025 299.182L87.0289 299.182Z" fill="#DCED00"/>
<path d="M97.8738 311.347C97.8738 311.347 94.9057 308.33 91.7039 307.629C88.4983 306.927 86.6486 309.392 86.6486 309.392L86.0742 309.313C86.0742 309.313 84.0426 305.49 84.3608 299.656C84.6791 293.821 85.2959 289.874 85.7354 289.599C85.9618 289.456 87.018 288.726 88.656 288.16C88.3893 288.276 86.2218 289.395 85.4637 295.25C84.6549 301.499 85.7393 305.413 88.5912 306.307C91.4411 307.201 92.0164 306.664 94.9873 308.553C97.9143 310.412 97.8941 311.568 97.8719 311.347L97.8738 311.347Z" fill="#9CA000"/>
<path d="M86.3968 289.249C86.3968 289.249 85.6371 285.713 84.8733 285.543C84.1095 285.373 85.5864 288.974 85.5864 288.974C85.5864 288.974 80.8565 286.287 80.2501 287.299C79.6435 288.312 85.0448 289.463 85.0448 289.463C85.0448 289.463 81.326 289.23 81.2519 289.827C81.1779 290.424 85.4511 290.209 85.4511 290.209L86.3968 289.249Z" fill="#590800"/>
<path d="M99.1707 297.003C99.1707 297.003 101.376 302.986 101.521 303.305C101.666 303.624 102.244 303.763 102.67 303.728C103.096 303.692 103.633 303.537 103.67 303.664C103.707 303.793 103.082 303.958 102.7 303.999C102.318 304.04 102.072 303.908 102.072 303.908C102.072 303.908 102.313 304.136 102.697 304.163C103.178 304.197 103.691 303.957 103.77 304.011C103.846 304.063 103.442 304.425 102.853 304.494C102.428 304.542 102.166 304.445 102.166 304.445C102.166 304.445 102.38 304.67 102.795 304.688C103.21 304.707 103.517 304.529 103.657 304.624C103.797 304.719 103.254 305.061 102.817 305.058C102.379 305.055 101.485 304.425 101.485 304.425C101.485 304.425 101.943 304.888 102.01 305.101C102.076 305.313 101.864 305.507 101.864 305.507C101.864 305.507 101.717 305.134 101.444 304.856C101.17 304.578 101.204 303.639 101.166 303.506C101.129 303.372 99.1816 300.129 99.1816 300.129C99.1816 300.129 98.9778 297.214 99.1688 297.003L99.1707 297.003Z" fill="#B3CC00"/>
<path d="M96.5916 301.065L96.2757 301.514L95.3382 302.84L94.9311 301.471L94.8853 301.317L94.6355 301.449L93.813 301.883L92.9474 301.244L92.9024 301.21L92.8352 301.225L92.3607 301.343L91.9022 301.033L91.7356 300.921L91.3358 300.871L90.5538 300.773L90.4552 300.565L90.4223 300.494L90.1938 300.464L89.1795 300.332L89.0056 299.954L88.9573 299.845L88.8603 299.884L87.3398 300.504L87.4825 299.184L87.5084 298.946C87.5084 298.946 88.2468 299.688 90.7492 300.546C93.9277 301.637 96.5935 301.063 96.5935 301.063L96.5916 301.065Z" fill="white"/>
<path d="M96.5915 301.065L96.2757 301.514C96.0489 301.516 95.5756 301.513 94.9311 301.472L94.8852 301.317L94.6355 301.449C94.1448 301.411 93.5735 301.344 92.9474 301.244L92.9023 301.21L92.8351 301.225C92.7347 301.208 92.6323 301.191 92.528 301.173C92.3232 301.137 92.1146 301.088 91.9022 301.035L91.7356 300.923L91.3357 300.873C91.0388 300.782 90.742 300.676 90.4551 300.567L90.4223 300.496L90.1938 300.466C89.7694 300.298 89.3648 300.123 89.0075 299.956L88.9592 299.847L88.8622 299.886C88.0435 299.501 87.4844 299.186 87.4844 299.186L87.5104 298.948C87.5104 298.948 88.2488 299.69 90.7511 300.548C93.9297 301.64 96.5955 301.065 96.5955 301.065L96.5915 301.065Z" fill="#CAE7EF"/>
<path d="M87.5597 301.433L88.3382 300.863L88.2403 302.238C88.2403 302.238 87.7283 301.742 87.5597 301.431L87.5597 301.433Z" fill="white"/>
<path d="M91.9876 303.24L92.44 302.116L92.8387 303.122C92.8387 303.122 92.3819 303.25 91.9876 303.242L91.9876 303.24Z" fill="white"/>
<path d="M94.8739 302.502L94.7519 303.308L95.2885 302.67L95.1986 302.367L94.8739 302.502Z" fill="#9CA000"/>
<path opacity="0.43" d="M99.2241 299.019C99.0251 298.893 98.1556 301.257 97.8803 303.477C97.6051 305.696 97.4726 307.79 97.6467 307.811C97.909 307.844 97.946 305.414 98.3331 303.223C98.7182 301.031 99.4267 299.148 99.2238 299.021L99.2241 299.019Z" fill="white"/>
<path opacity="0.43" d="M99.4916 297.759C99.3394 298.217 99.2828 298.609 99.3648 298.637C99.447 298.663 99.6352 298.315 99.7874 297.857C99.9396 297.399 99.9962 297.007 99.9143 296.979C99.8321 296.953 99.6438 297.301 99.4916 297.759Z" fill="white"/>
<path d="M86.2037 303.445C86.2834 304.133 86.1257 304.715 85.8512 304.749C85.5768 304.782 85.2872 304.25 85.2076 303.562C85.1279 302.875 85.2856 302.292 85.56 302.259C85.8344 302.225 86.124 302.758 86.2037 303.445Z" fill="#DCED00"/>
<path d="M86.3187 303.431C86.3983 304.119 86.2406 304.701 85.9662 304.735C85.6901 304.766 85.4022 304.236 85.3225 303.548C85.2429 302.861 85.4006 302.278 85.675 302.245C85.9494 302.211 86.239 302.744 86.3187 303.431Z" fill="#7A7A00"/>
<path d="M96.6082 303.623C96.4932 304.165 96.5771 304.642 96.7941 304.687C97.0109 304.734 97.2795 304.33 97.3944 303.788C97.5094 303.246 97.4255 302.768 97.2085 302.724C96.9918 302.677 96.7231 303.081 96.6082 303.623Z" fill="#DCED00"/>
<path d="M96.5172 303.604C96.4023 304.146 96.4862 304.623 96.7032 304.668C96.9199 304.715 97.1886 304.311 97.3035 303.769C97.4185 303.227 97.3346 302.749 97.1176 302.704C96.9006 302.66 96.6322 303.062 96.5172 303.604Z" fill="#7A7A00"/>
<path d="M96.8871 305.541C96.8106 305.901 96.8669 306.216 97.01 306.248C97.1534 306.278 97.3314 306.012 97.4079 305.651C97.4844 305.291 97.4281 304.976 97.2849 304.945C97.1416 304.915 96.9635 305.181 96.8871 305.541Z" fill="#DCED00"/>
<path d="M96.827 305.528C96.7505 305.888 96.8068 306.203 96.95 306.235C97.0933 306.264 97.2714 305.998 97.3479 305.638C97.4243 305.278 97.368 304.963 97.2249 304.931C97.0815 304.902 96.9035 305.168 96.827 305.528Z" fill="#7A7A00"/>
<path d="M86.7719 305.386C86.8133 305.741 86.7322 306.042 86.5891 306.058C86.448 306.075 86.2992 305.8 86.2576 305.447C86.2161 305.092 86.2973 304.79 86.4404 304.774C86.5834 304.758 86.7302 305.033 86.7719 305.386Z" fill="#DCED00"/>
<path d="M86.8304 305.379C86.8718 305.734 86.7906 306.036 86.6476 306.052C86.5064 306.068 86.3577 305.793 86.316 305.44C86.2746 305.085 86.3558 304.783 86.4988 304.767C86.64 304.751 86.7887 305.026 86.8304 305.379Z" fill="#7A7A00"/>
<path d="M85.769 305.655C85.799 305.909 85.7405 306.124 85.6378 306.135C85.5371 306.147 85.4302 305.951 85.3999 305.698C85.3698 305.444 85.4283 305.229 85.531 305.218C85.6318 305.207 85.7386 305.403 85.769 305.655Z" fill="#DCED00"/>
<path d="M85.8113 305.65C85.8414 305.904 85.7829 306.119 85.6802 306.13C85.5794 306.142 85.4726 305.946 85.4423 305.694C85.4122 305.439 85.4707 305.224 85.5734 305.213C85.6742 305.202 85.781 305.398 85.8113 305.65Z" fill="#7A7A00"/>
<path d="M84.9115 301.368C84.8949 301.63 84.7955 301.838 84.6911 301.831C84.5866 301.824 84.5143 301.606 84.5309 301.344C84.5475 301.082 84.6469 300.874 84.7513 300.881C84.8558 300.888 84.9282 301.105 84.9115 301.368Z" fill="#DCED00"/>
<path d="M84.955 301.371C84.9384 301.633 84.839 301.841 84.7345 301.834C84.6301 301.827 84.5577 301.61 84.5744 301.347C84.591 301.085 84.6903 300.877 84.7948 300.884C84.8992 300.891 84.9716 301.109 84.955 301.371Z" fill="#7A7A00"/>
<path d="M96.8746 299.918C96.8746 299.918 96.8729 300.518 96.8627 301.182C96.8524 301.848 96.6923 302.719 96.6923 302.719C96.6923 302.719 97.2513 302.002 97.2959 301.249C97.3405 300.496 96.8727 299.918 96.8727 299.918L96.8746 299.918Z" fill="#9CA000"/>
<path d="M87.9811 297.745C87.9811 297.745 87.3663 298.526 87.1012 299.035C86.8361 299.543 86.5019 300.469 86.5019 300.469C86.5019 300.469 86.3817 299.213 86.7962 298.549C87.1987 297.906 87.9812 297.743 87.9812 297.743L87.9811 297.745Z" fill="#9CA000"/>
<path d="M87.5439 303.101C87.5439 303.101 88.3082 304.03 89.8987 304.346C91.6978 304.705 92.8274 304.325 92.8274 304.325C92.8274 304.325 91.5488 305.025 89.6449 304.697C88.3041 304.467 87.5459 303.103 87.5459 303.103L87.5439 303.101Z" fill="#9CA000"/>
<path d="M92.6507 291.907C92.6507 291.907 93.8472 293.386 93.2264 295.514C92.6863 297.363 90.5963 299.152 87.9692 298.317C85.3427 297.483 85.8198 294.453 86.6925 293.13C87.5652 291.806 90.5975 289.821 92.6507 291.907Z" fill="#9CA000"/>
<path d="M92.1712 291.998C92.1712 291.998 93.3909 293.167 93.0136 295.064C92.6869 296.711 90.9432 298.447 88.4807 297.966C86.0182 297.484 86.1839 294.821 86.8606 293.598C87.5378 292.374 90.1198 290.383 92.1712 291.998Z" fill="#DEDEDE"/>
<path d="M92.2811 292.295C92.2811 292.295 93.2543 293.377 92.814 294.96C92.4314 296.336 90.8292 297.683 88.7475 297.093C86.6658 296.505 86.9735 294.255 87.6294 293.266C88.2853 292.276 90.6224 290.773 92.2811 292.295Z" fill="#F5F5F5"/>
<path d="M94.2643 292.46C94.2643 292.46 93.1812 293.724 93.6743 295.63C94.1027 297.285 95.8909 298.943 98.2102 298.301C100.53 297.658 100.184 294.96 99.4513 293.757C98.7188 292.555 96.1107 290.689 94.2643 292.46Z" fill="#9CA000"/>
<path d="M94.5655 292.418C94.5655 292.418 93.4521 293.412 93.745 295.117C93.9999 296.598 95.5142 298.212 97.7195 297.878C99.9248 297.543 99.8375 295.164 99.2618 294.048C98.6867 292.931 96.4303 291.057 94.5655 292.418Z" fill="#DEDEDE"/>
<path d="M94.5648 292.675C94.5648 292.675 93.663 293.661 94.0295 295.184C94.348 296.508 95.7696 297.857 97.6636 297.389C99.5576 296.92 99.3247 294.769 98.7514 293.8C98.1781 292.831 96.0952 291.301 94.5648 292.674V292.675Z" fill="#F5F5F5"/>
<path d="M96 295C96 294.448 96.4375 294 96.9772 294C97.5169 294 97.9544 294.448 97.9544 295" stroke="#590800" stroke-width="0.5" stroke-linecap="round" stroke-linejoin="round"/>
<path d="M90 295C90 294.448 90.4375 294 90.9772 294C91.5169 294 91.9544 294.448 91.9544 295" stroke="#590800" stroke-width="0.5" stroke-linecap="round" stroke-linejoin="round"/>
<path d="M91.0186 297.641C91.0062 297.647 90.9943 297.654 90.9818 297.659C90.9931 297.781 91.046 297.92 91.1333 298.065C91.1767 298.042 91.22 298.018 91.2622 297.993C91.1476 297.879 91.0638 297.761 91.0186 297.641Z" fill="#038055"/>
<path d="M90.9872 297.522C90.9825 297.55 90.9801 297.578 90.9795 297.607C90.9795 297.624 90.9795 297.642 90.9819 297.66C90.9943 297.654 91.0068 297.648 91.0187 297.642C91.0038 297.602 90.9932 297.562 90.9872 297.523" fill="#C6CCCD"/>
</g>
<mask id="mask2_199_8565" style="mask-type:luminance" maskUnits="userSpaceOnUse" x="113" y="278" width="57" height="37">
<path d="M169.61 278H113V314.994H169.61V278Z" fill="white"/>
</mask>
<g mask="url(#mask2_199_8565)">
<path d="M147.811 309.129C147.811 309.129 159.343 313.159 159.99 313.332C160.637 313.502 161.546 312.819 162.015 312.148C162.484 311.477 162.694 310.899 162.929 311C163.163 311.101 162.856 311.821 162.452 312.435C162.047 313.05 161.554 313.252 161.554 313.252C161.554 313.252 162.185 313.175 162.694 312.637C163.329 311.97 163.604 310.919 163.778 310.867C163.947 310.818 163.992 311.857 163.377 312.807C162.929 313.498 162.472 313.761 162.472 313.761C162.472 313.761 163.062 313.716 163.596 313.126C164.129 312.536 164.238 311.865 164.55 311.772C164.861 311.679 164.521 312.924 163.895 313.628C163.337 314.254 162.116 314.577 162.116 314.577C162.116 314.577 162.852 314.626 163.252 314.784C163.648 314.941 163.676 315.495 163.676 315.495C163.676 315.495 162.945 315.257 162.201 315.321C161.457 315.386 160.111 314.193 159.869 314.084C159.626 313.975 152.46 312.904 152.46 312.904C152.46 312.904 147.904 309.654 147.819 309.112L147.811 309.129Z" fill="#68004D"/>
<path d="M136.554 309.982C136.554 309.982 124.831 313.413 124.173 313.551C123.518 313.688 122.645 312.961 122.208 312.265C121.776 311.57 121.618 311.045 121.379 311.134C121.141 311.222 121.387 311.893 121.759 312.528C122.131 313.163 122.612 313.393 122.612 313.393C122.612 313.393 121.986 313.284 121.505 312.722C120.902 312.023 120.684 310.96 120.514 310.899C120.345 310.842 120.252 311.877 120.818 312.86C121.23 313.571 121.674 313.858 121.674 313.858C121.674 313.858 121.084 313.785 120.583 313.167C120.082 312.548 120.005 311.873 119.702 311.764C119.395 311.655 119.718 312.831 120.163 313.543C120.66 314.335 122.083 314.743 122.083 314.743C122.083 314.743 121.246 314.703 120.842 314.84C120.438 314.978 120.381 315.531 120.381 315.531C120.381 315.531 121.121 315.333 121.864 315.434C122.604 315.535 124.011 314.416 124.257 314.323C124.508 314.226 131.715 313.526 131.715 313.526C131.715 313.526 136.432 310.515 136.542 309.982H136.554Z" fill="#68004D"/>
<path d="M124.524 289.294C124.536 289.35 124.548 289.403 124.561 289.459C124.742 290.232 125.042 291.04 125.49 291.861C125.644 292.135 125.806 292.398 125.979 292.649C126.404 293.263 126.885 293.805 127.374 294.274C129.088 295.907 130.931 296.671 130.931 296.671C130.931 296.671 132.803 295.458 133.348 293.004C133.676 291.529 133.057 290.345 132.972 290.187C132.964 290.175 132.96 290.171 132.96 290.171C132.875 290.126 132.794 290.082 132.714 290.042C132.394 289.872 132.095 289.702 131.8 289.532C131.469 289.342 131.153 289.152 130.854 288.966C129.933 288.392 129.165 287.851 128.522 287.349C128.235 287.127 127.976 286.913 127.742 286.707C125.818 285.049 125.353 284.039 125.013 284.334C124.686 284.621 124.201 285.991 124.31 287.826C124.338 288.291 124.403 288.78 124.52 289.298L124.524 289.294Z" fill="#FF7F00"/>
<path d="M125.983 292.653C126.408 293.267 126.889 293.809 127.378 294.278C127.766 294.128 128.663 293.684 129.908 292.434C131.606 290.729 131.808 289.528 131.808 289.528C131.477 289.338 131.161 289.148 130.862 288.962C130.583 289.468 129.892 290.583 128.809 291.42C127.79 292.212 126.598 292.532 125.987 292.649L125.983 292.653Z" fill="#FFF594"/>
<path d="M124.524 289.294C125.029 289.294 125.753 289.205 126.582 288.841C127.596 288.392 128.215 287.754 128.526 287.341C128.239 287.119 127.98 286.905 127.746 286.699C127.43 286.925 126.941 287.208 126.198 287.479C125.405 287.766 124.775 287.839 124.314 287.822C124.342 288.287 124.407 288.776 124.524 289.294Z" fill="#FFF594"/>
<path opacity="0.13" d="M124.565 289.464C124.746 290.236 125.046 291.044 125.494 291.865C127.305 295.175 130.935 296.675 130.935 296.675C130.935 296.675 132.807 295.462 133.352 293.008C133.68 291.533 133.061 290.349 132.976 290.191L132.722 290.042C132.722 290.042 129.577 291.278 127.038 290.656C125.874 290.369 125.082 289.896 124.569 289.468L124.565 289.464Z" fill="#590800"/>
<path opacity="0.67" d="M131.598 290.563C131.804 290.628 131.929 290.341 131.743 290.232C130.943 289.767 129.852 289.088 128.857 288.295C127.964 287.584 127.2 286.889 126.646 286.355C126.489 286.206 126.25 286.408 126.371 286.59C126.832 287.269 127.552 288.15 128.615 289.011C129.617 289.823 130.749 290.296 131.598 290.563Z" fill="white"/>
<path d="M155.843 332.145L154.751 333.091C154.751 333.091 152.835 329.849 151.789 329.44C151.223 329.218 147.532 329.461 144.096 329.845C141.23 330.164 138.542 330.58 137.997 330.904C136.796 331.615 136.339 334.065 136.339 334.065L135.139 334.15C135.139 334.15 132.823 328.442 131.667 320.354C131.117 316.502 130.596 310.56 130.236 305.24C129.832 299.395 129.617 294.286 129.759 293.518C129.993 292.208 137.625 286.893 141.234 285.615C141.659 285.462 142.027 285.365 142.322 285.341C145.115 285.09 150.774 289.322 151.732 290.656C152.698 291.99 154.691 320.697 155.313 324.756C155.94 328.814 155.839 332.149 155.839 332.149L155.843 332.145Z" fill="url(#paint33_linear_199_8565)"/>
<path d="M134.472 314.275C134.609 314.913 134.504 315.475 134.237 315.532C133.971 315.588 133.643 315.119 133.506 314.481C133.368 313.842 133.473 313.28 133.74 313.224C134.007 313.167 134.334 313.636 134.472 314.275Z" fill="#68004D"/>
<path d="M134.577 314.254C134.714 314.893 134.609 315.455 134.343 315.511C134.076 315.568 133.748 315.099 133.611 314.46C133.473 313.822 133.579 313.26 133.845 313.203C134.112 313.147 134.44 313.615 134.577 314.254Z" fill="#FF7F00"/>
<path d="M132.241 306.647C132.366 307.225 132.273 307.734 132.031 307.787C131.788 307.839 131.493 307.415 131.368 306.833C131.242 306.255 131.335 305.746 131.578 305.693C131.82 305.64 132.115 306.065 132.241 306.647Z" fill="#68004D"/>
<path d="M132.338 306.627C132.463 307.205 132.37 307.714 132.128 307.766C131.885 307.819 131.59 307.395 131.465 306.812C131.339 306.23 131.432 305.725 131.675 305.673C131.917 305.62 132.212 306.049 132.338 306.627Z" fill="#FF7F00"/>
<path d="M132.095 309.456C132.156 309.739 132.111 309.986 131.994 310.01C131.877 310.034 131.731 309.828 131.671 309.545C131.61 309.262 131.655 309.016 131.772 308.991C131.889 308.967 132.035 309.173 132.095 309.452V309.456Z" fill="#68004D"/>
<path d="M132.144 309.448C132.204 309.731 132.16 309.977 132.043 310.002C131.925 310.026 131.78 309.82 131.719 309.537C131.659 309.254 131.703 309.007 131.82 308.983C131.938 308.959 132.083 309.165 132.144 309.448Z" fill="#FF7F00"/>
<path d="M144.519 305.459C147.389 305.255 149.488 301.88 149.206 297.921C148.924 293.962 146.369 290.918 143.499 291.122C140.628 291.326 138.53 294.701 138.812 298.66C139.093 302.62 141.649 305.664 144.519 305.459Z" fill="#68004D"/>
<path d="M138.272 299.339C138.858 303.263 137.556 306.715 135.361 307.043C133.166 307.37 130.915 304.452 130.325 300.527C129.739 296.602 131.04 293.15 133.235 292.823C135.43 292.495 137.681 295.414 138.272 299.339Z" fill="#68004D"/>
<path d="M139.496 299.003C139.953 302.479 142.172 304.973 144.456 304.573C146.736 304.173 148.215 301.028 147.759 297.552C147.302 294.076 145.083 291.582 142.799 291.982C140.519 292.382 139.04 295.527 139.496 299.003Z" fill="#CAE7EF"/>
<path d="M144.013 304.343C146.206 304.129 147.72 301.257 147.394 297.928C147.068 294.6 145.026 292.076 142.834 292.291C140.641 292.505 139.127 295.377 139.453 298.706C139.778 302.034 141.82 304.558 144.013 304.343Z" fill="white"/>
<path d="M144.25 297.208C144.371 298.114 145.123 298.732 145.932 298.591C146.74 298.449 147.302 297.596 147.181 296.691C147.059 295.785 146.307 295.167 145.499 295.308C144.691 295.45 144.129 296.303 144.25 297.208Z" fill="white"/>
<path d="M143.502 299.12C143.547 299.452 143.821 299.678 144.117 299.626C144.412 299.573 144.618 299.262 144.573 298.93C144.529 298.599 144.254 298.372 143.959 298.425C143.664 298.478 143.458 298.789 143.502 299.12Z" fill="white"/>
<path d="M131.432 301.174C132.208 304.387 134.29 306.481 136.081 305.85C137.871 305.22 138.692 302.103 137.912 298.886C137.136 295.672 135.054 293.578 133.263 294.209C131.473 294.84 130.652 297.956 131.432 301.174Z" fill="#CAE7EF"/>
<path d="M131.432 301.174C132.172 304.238 134.157 306.23 135.858 305.628C137.564 305.026 138.344 302.059 137.605 298.995C136.865 295.931 134.88 293.938 133.178 294.54C131.473 295.143 130.692 298.11 131.432 301.174Z" fill="white"/>
<path d="M136.348 303.562C137.51 303.341 138.136 301.502 137.745 299.456C137.355 297.41 136.097 295.932 134.934 296.153C133.772 296.375 133.146 298.213 133.537 300.259C133.927 302.305 135.186 303.784 136.348 303.562Z" fill="url(#paint34_linear_199_8565)"/>
<path d="M134.181 300.422C134.529 301.865 135.466 302.807 136.271 302.524C137.075 302.241 137.443 300.838 137.095 299.395C136.748 297.952 135.81 297.01 135.006 297.293C134.201 297.576 133.833 298.979 134.181 300.422Z" fill="#590800"/>
<path d="M135.204 299.355C135.406 300.191 136.085 300.689 136.719 300.466C137.354 300.244 137.706 299.383 137.504 298.542C137.301 297.701 136.622 297.208 135.988 297.431C135.353 297.653 135.001 298.514 135.204 299.355Z" fill="white"/>
<path d="M134.698 301.012C134.771 301.319 135.022 301.501 135.252 301.42C135.483 301.339 135.612 301.024 135.539 300.717C135.466 300.41 135.216 300.228 134.985 300.309C134.751 300.389 134.626 300.705 134.698 301.012Z" fill="white"/>
<path d="M155.843 332.145L154.751 333.091C154.751 333.091 152.835 329.849 151.788 329.44C150.75 329.032 139.205 330.192 137.997 330.904C136.796 331.615 136.339 334.065 136.339 334.065C136.339 334.065 136.485 330.673 137.386 329.792C138.288 328.911 149.06 327.706 150.442 325.39C151.821 323.074 151.987 303.664 150.374 296.622C148.761 289.581 141.234 285.615 141.234 285.615C141.659 285.462 142.027 285.365 142.322 285.341C145.115 285.09 150.774 289.322 151.732 290.656C152.698 291.99 154.691 320.697 155.313 324.756C155.94 328.814 155.839 332.149 155.839 332.149L155.843 332.145Z" fill="#68004D"/>
<path d="M157.718 286.581C157.714 286.638 157.71 286.695 157.702 286.751C157.629 287.539 157.452 288.384 157.12 289.257C157.007 289.552 156.886 289.835 156.748 290.11C156.417 290.781 156.017 291.384 155.6 291.913C154.133 293.772 152.419 294.787 152.419 294.787C152.419 294.787 150.394 293.853 149.509 291.497C148.975 290.082 149.42 288.821 149.484 288.655C149.489 288.643 149.493 288.635 149.493 288.635C149.569 288.582 149.642 288.526 149.719 288.469C150.01 288.255 150.285 288.045 150.548 287.839C150.851 287.604 151.134 287.374 151.404 287.147C152.237 286.448 152.92 285.801 153.482 285.215C153.733 284.952 153.959 284.706 154.165 284.467C155.835 282.555 156.15 281.488 156.53 281.735C156.894 281.969 157.569 283.259 157.718 285.094C157.755 285.559 157.759 286.052 157.718 286.577V286.581Z" fill="#FF7F00"/>
<path d="M156.752 290.114C156.421 290.785 156.021 291.388 155.604 291.917C155.2 291.824 154.25 291.513 152.84 290.45C150.915 289.003 150.548 287.843 150.548 287.843C150.851 287.608 151.134 287.378 151.405 287.151C151.752 287.612 152.593 288.619 153.785 289.294C154.905 289.932 156.134 290.082 156.752 290.11V290.114Z" fill="#FFF594"/>
<path d="M157.718 286.581C157.217 286.654 156.49 286.666 155.62 286.428C154.553 286.129 153.85 285.583 153.482 285.219C153.733 284.957 153.959 284.71 154.165 284.471C154.509 284.653 155.034 284.864 155.806 285.025C156.631 285.199 157.266 285.179 157.718 285.098C157.755 285.563 157.759 286.056 157.718 286.581Z" fill="#FFF594"/>
<path opacity="0.13" d="M157.706 286.755C157.633 287.543 157.456 288.388 157.124 289.261C155.798 292.794 152.419 294.791 152.419 294.791C152.419 294.791 150.394 293.857 149.509 291.501C148.975 290.086 149.42 288.825 149.484 288.659L149.719 288.477C149.719 288.477 153.005 289.253 155.43 288.279C156.542 287.83 157.262 287.252 157.706 286.755Z" fill="#590800"/>
<path opacity="0.67" d="M150.895 288.837C150.701 288.93 150.535 288.663 150.705 288.53C151.433 287.956 152.419 287.127 153.288 286.206C154.072 285.377 154.731 284.577 155.204 283.97C155.338 283.796 155.604 283.97 155.511 284.164C155.152 284.9 154.561 285.878 153.632 286.881C152.755 287.83 151.7 288.457 150.899 288.837H150.895Z" fill="white"/>
<path d="M140.559 285.874C140.559 285.874 136.19 281.266 136.671 280.813C137.152 280.361 141.125 285.13 141.125 285.13C141.125 285.13 138.728 278.097 139.565 277.681C140.406 277.268 142.483 284.811 142.483 284.811C142.483 284.811 142.795 277.45 144.577 277.131C146.356 276.812 143.514 284.346 143.514 284.346C143.514 284.346 146.457 282.305 147.387 282.721C148.316 283.138 144.145 285.619 144.145 285.619L140.555 285.874H140.559Z" fill="#3F0300"/>
<path d="M149.573 315.042C149.585 315.972 149.901 316.72 150.273 316.716C150.645 316.712 150.936 315.952 150.923 315.022C150.911 314.092 150.596 313.345 150.224 313.349C149.852 313.353 149.561 314.113 149.573 315.042Z" fill="#68004D"/>
<path d="M149.424 315.042C149.436 315.972 149.751 316.72 150.123 316.716C150.495 316.712 150.786 315.952 150.774 315.022C150.762 314.092 150.446 313.345 150.075 313.349C149.703 313.353 149.412 314.113 149.424 315.042Z" fill="#FF7F00"/>
<path d="M150.062 309.921C150.071 310.378 150.224 310.75 150.406 310.745C150.588 310.745 150.733 310.37 150.725 309.909C150.717 309.452 150.564 309.08 150.382 309.084C150.2 309.084 150.054 309.46 150.062 309.921Z" fill="#68004D"/>
<path d="M149.99 309.921C149.998 310.378 150.151 310.75 150.333 310.746C150.515 310.746 150.661 310.37 150.653 309.909C150.645 309.452 150.491 309.08 150.309 309.084C150.127 309.084 149.982 309.46 149.99 309.921Z" fill="#FF7F00"/>
<path d="M149.949 304.601C149.957 305.058 150.111 305.43 150.293 305.426C150.475 305.426 150.62 305.05 150.612 304.589C150.604 304.133 150.451 303.761 150.269 303.765C150.087 303.765 149.941 304.141 149.949 304.601Z" fill="#68004D"/>
<path d="M149.877 304.606C149.885 305.062 150.038 305.434 150.22 305.43C150.402 305.43 150.548 305.054 150.539 304.593C150.531 304.137 150.378 303.765 150.196 303.769C150.014 303.769 149.868 304.145 149.877 304.606Z" fill="#FF7F00"/>
<path d="M148.559 304.622C148.563 304.969 148.68 305.252 148.822 305.252C148.963 305.252 149.072 304.965 149.064 304.618C149.06 304.27 148.943 303.987 148.801 303.987C148.66 303.987 148.551 304.274 148.559 304.622Z" fill="#68004D"/>
<path d="M148.502 304.626C148.506 304.973 148.624 305.256 148.765 305.256C148.906 305.256 149.016 304.969 149.008 304.622C149.003 304.274 148.886 303.991 148.745 303.991C148.603 303.991 148.494 304.278 148.502 304.626Z" fill="#FF7F00"/>
<path d="M148.826 291.824C148.826 291.824 147.229 290.927 145.62 290.765C144.015 290.599 141.618 290.616 141.618 290.616L142.447 290.163C142.447 290.163 142.116 290.082 141.675 289.654C141.331 289.318 140.749 288.166 140.749 288.166C140.749 288.166 142.475 288.275 144.424 288.441C147.136 288.671 148.559 290.167 148.559 290.167L148.009 290.179C148.009 290.179 148.708 291.19 148.826 291.828V291.824Z" fill="#3F0300"/>
<path opacity="0.61" d="M147.771 289.779C147.771 289.779 146.942 289.055 145.349 288.728C143.761 288.4 142.14 288.493 142.14 288.493L143.195 288.845L141.602 288.675C141.602 288.675 142.213 289.35 144.06 289.358C146.522 289.367 147.698 290.357 147.698 290.357L147.265 289.674L147.771 289.779Z" fill="#8C130D"/>
<path d="M131.331 293.065C131.331 293.065 132.338 292.184 133.393 291.812C134.832 291.307 136.101 291.246 136.101 291.246L135.491 290.951C135.491 290.951 135.705 290.846 135.959 290.434C136.158 290.11 136.424 289.067 136.424 289.067C136.424 289.067 135.951 289.1 133.955 289.702C131.796 290.353 131.331 291.622 131.331 291.622L131.707 291.57C131.707 291.57 131.343 292.503 131.331 293.061V293.065Z" fill="#3F0300"/>
<path opacity="0.61" d="M131.832 291.291C131.832 291.291 132.317 290.583 133.364 290.131C134.411 289.678 135.697 289.472 135.697 289.472L134.84 289.993L135.903 289.674C135.903 289.674 135.373 290.155 134.306 290.523C133.239 290.89 131.942 291.772 131.942 291.772L132.164 291.145L131.832 291.291Z" fill="#8C130D"/>
<path opacity="0.24" d="M135.082 308.029C135.082 308.029 136.622 311.53 139.399 312.079C142.176 312.633 144.181 310.572 144.181 310.572C144.181 310.572 141.481 312.362 139.04 311.469C136.63 310.584 135.082 308.029 135.082 308.029Z" fill="white"/>
<path d="M148.51 306.271L147.868 308.789L148.539 310.709L146.057 310.721L146.303 311.328C146.303 311.328 144.941 312.678 142.904 313.365C140.883 314.048 138.571 313.826 138.571 313.826L136.214 311.667L133.906 310.648L134.084 307.386C134.084 307.386 136.618 313.429 140.677 312.872C145.495 312.205 148.502 306.275 148.502 306.275L148.51 306.271Z" fill="#68004D"/>
<path d="M134.589 308.745L133.801 310.968L135.604 310.325L134.589 308.745Z" fill="white"/>
<path d="M136.271 311.024L135.745 312.342L137.063 311.934L136.271 311.024Z" fill="white"/>
<path d="M138.466 312.702L138.571 314.169L139.816 313.114L138.466 312.702Z" fill="white"/>
<path d="M141.663 312.888L143.268 313.712L143.365 312.354L141.663 312.888Z" fill="white"/>
<path d="M146.186 309.646L148.539 310.709L147.528 307.827L146.186 309.646Z" fill="white"/>
<path d="M144.565 311.279L146.307 311.328L145.81 310.115L144.565 311.279Z" fill="white"/>
<path d="M134.229 307.302C134.229 307.302 136.521 313.058 140.741 312.661C144.957 312.265 148.446 306.129 148.446 306.129L148.607 306.158C148.607 306.158 145.495 313.045 140.806 313.377C136.02 313.716 134.1 307.528 134.1 307.528L134.229 307.298V307.302Z" fill="#590800"/>
<path d="M146.663 305.47C146.663 305.47 147.548 305.713 148.518 306.449C149.489 307.184 149.844 307.916 149.844 307.916C149.844 307.916 149.525 306.521 148.7 305.794C147.876 305.066 146.663 305.47 146.663 305.47Z" fill="#68004D"/>
<path d="M135.22 306.493C135.22 306.493 134.553 307.14 134.112 307.714C133.676 308.288 133.372 309.678 133.372 309.678C133.372 309.678 133.138 308.441 133.583 307.576C134.088 306.594 135.22 306.493 135.22 306.493Z" fill="#68004D"/>
<path d="M144.587 295L141.772 298.329" stroke="#70170E" stroke-linecap="round" stroke-linejoin="round"/>
<path d="M145.883 298.222L141.54 298.597" stroke="#70170E" stroke-linecap="round" stroke-linejoin="round"/>
</g>
<path d="M91.2212 311.48C95.7565 311.545 98.683 311.145 101.812 310.069C104.94 308.994 105.276 305.853 102.964 304.73C101.092 303.82 95.514 304.447 91.3223 304.39C87.1306 304.33 81.5726 303.549 79.6769 304.402C77.3324 305.461 77.579 308.61 80.6793 309.77C83.7756 310.93 86.69 311.415 91.2253 311.476L91.2212 311.48Z" fill="#F2A73D"/>
<path d="M87.5549 307.268C87.5711 306.132 88.6948 305.114 90.5138 304.37C86.4433 304.237 81.4513 303.602 79.6727 304.402C77.3283 305.461 77.5748 308.61 80.6752 309.77C83.7714 310.93 86.6858 311.415 91.2211 311.476C92.4863 311.492 93.6222 311.476 94.6772 311.415C90.5016 310.765 87.5266 309.132 87.5549 307.264V307.268Z" fill="#EF9337"/>
<g style="mix-blend-mode:screen" opacity="0.5">
<path d="M91.298 305.829C95.8535 305.894 101.836 305.251 104.281 306.072C104.055 305.526 103.61 305.049 102.96 304.73C101.088 303.82 95.5099 304.447 91.3182 304.39C87.1265 304.33 81.5685 303.549 79.6727 304.402C79.0098 304.701 78.5571 305.166 78.3146 305.704C80.7803 304.952 86.7425 305.764 91.298 305.825V305.829Z" fill="#FFB64D"/>
</g>
<g style="mix-blend-mode:screen" opacity="0.5">
<path d="M99.1114 305.445C99.1033 305.926 97.8987 306.298 96.4234 306.274C94.9439 306.254 93.7515 305.849 93.7596 305.368C93.7676 304.887 94.9722 304.515 96.4517 304.536C97.9311 304.556 99.1235 304.96 99.1154 305.441L99.1114 305.445Z" fill="#FFB64D"/>
</g>
<g style="mix-blend-mode:screen" opacity="0.5">
<path d="M100.554 305.441C100.554 305.712 100.28 305.926 99.9481 305.922C99.6167 305.918 99.3499 305.696 99.3539 305.425C99.3539 305.154 99.6288 304.94 99.9603 304.944C100.292 304.948 100.558 305.17 100.554 305.441Z" fill="#FFB64D"/>
</g>
<path d="M142.989 321.906C149.27 321.995 153.316 321.518 157.645 320.232C161.975 318.947 162.431 315.168 159.226 313.809C156.635 312.71 148.91 313.454 143.11 313.369C137.309 313.288 129.609 312.33 126.986 313.357C123.744 314.626 124.096 318.418 128.384 319.824C132.673 321.231 136.707 321.817 142.989 321.906Z" fill="#F2A73D"/>
<path d="M137.9 316.825C137.92 315.459 139.472 314.234 141.99 313.345C136.355 313.175 129.439 312.395 126.982 313.357C123.74 314.626 124.092 318.418 128.38 319.824C132.669 321.231 136.703 321.817 142.985 321.906C144.735 321.93 146.311 321.906 147.771 321.841C141.99 321.049 137.867 319.076 137.9 316.825Z" fill="#EF9337"/>
<g style="mix-blend-mode:screen" opacity="0.5">
<path d="M143.082 315.107C149.387 315.196 157.674 314.44 161.057 315.43C160.742 314.771 160.127 314.198 159.222 313.814C156.631 312.714 148.906 313.458 143.106 313.373C137.305 313.292 129.605 312.334 126.982 313.361C126.068 313.721 125.438 314.278 125.102 314.925C128.514 314.028 136.772 315.018 143.078 315.107H143.082Z" fill="#FFB64D"/>
</g>
<g style="mix-blend-mode:screen" opacity="0.5">
<path d="M153.898 314.662C153.89 315.24 152.225 315.685 150.176 315.657C148.126 315.628 146.473 315.135 146.481 314.561C146.489 313.983 148.154 313.539 150.204 313.567C152.253 313.595 153.906 314.088 153.898 314.662Z" fill="#FFB64D"/>
</g>
<g style="mix-blend-mode:screen" opacity="0.5">
<path d="M155.895 314.662C155.891 314.986 155.515 315.244 155.054 315.236C154.594 315.228 154.226 314.961 154.23 314.638C154.234 314.315 154.61 314.056 155.071 314.064C155.531 314.072 155.899 314.339 155.895 314.662Z" fill="#FFB64D"/>
</g>
<defs>
<linearGradient id="paint0_linear_199_8565" x1="145.5" y1="0" x2="145.5" y2="342" gradientUnits="userSpaceOnUse">
<stop stop-color="#42ADFF"/>
<stop offset="0.328125" stop-color="#A6A9ED"/>
<stop offset="0.682292" stop-color="#FFA6DD"/>
</linearGradient>
<linearGradient id="paint1_linear_199_8565" x1="-25.2422" y1="307.386" x2="78.6017" y2="307.386" gradientUnits="userSpaceOnUse">
<stop stop-color="#90C9FD"/>
<stop offset="0.27" stop-color="#8AC3FD"/>
<stop offset="0.62" stop-color="#79B5FD"/>
<stop offset="1" stop-color="#5F9EFD"/>
</linearGradient>
<linearGradient id="paint2_linear_199_8565" x1="184.472" y1="293.695" x2="408.777" y2="293.695" gradientUnits="userSpaceOnUse">
<stop stop-color="#90C9FD"/>
<stop offset="0.27" stop-color="#8AC3FD"/>
<stop offset="0.62" stop-color="#79B5FD"/>
<stop offset="1" stop-color="#5F9EFD"/>
</linearGradient>
<linearGradient id="paint3_linear_199_8565" x1="-22.8317" y1="304.413" x2="169.442" y2="304.413" gradientUnits="userSpaceOnUse">
<stop stop-color="#90C9FD"/>
<stop offset="0.27" stop-color="#8AC3FD"/>
<stop offset="0.62" stop-color="#79B5FD"/>
<stop offset="1" stop-color="#5F9EFD"/>
</linearGradient>
<linearGradient id="paint4_linear_199_8565" x1="143.43" y1="346.553" x2="143.43" y2="299.576" gradientUnits="userSpaceOnUse">
<stop stop-color="#74BCFD"/>
<stop offset="0.19" stop-color="#79BEFD"/>
<stop offset="0.43" stop-color="#8AC6FD"/>
<stop offset="0.71" stop-color="#A5D3FD"/>
<stop offset="1" stop-color="#CAE4FD"/>
</linearGradient>
<linearGradient id="paint5_linear_199_8565" x1="240.811" y1="289.305" x2="356.944" y2="331.449" gradientUnits="userSpaceOnUse">
<stop stop-color="#478CEC"/>
<stop offset="1" stop-color="#8AC8F9"/>
</linearGradient>
<linearGradient id="paint6_linear_199_8565" x1="53.0289" y1="296.343" x2="53.0289" y2="336.037" gradientUnits="userSpaceOnUse">
<stop stop-color="#D1FAFF"/>
<stop offset="1" stop-color="#4194F2"/>
</linearGradient>
<linearGradient id="paint7_linear_199_8565" x1="40.7975" y1="317.277" x2="14.0952" y2="356.339" gradientUnits="userSpaceOnUse">
<stop stop-color="#FFA6DD" stop-opacity="0.5"/>
<stop offset="0.21" stop-color="#F2AFDD" stop-opacity="0.63"/>
<stop offset="0.57" stop-color="#DFBDDE" stop-opacity="0.83"/>
<stop offset="0.84" stop-color="#D3C6DF" stop-opacity="0.95"/>
<stop offset="1" stop-color="#CFCAE0"/>
</linearGradient>
<linearGradient id="paint8_linear_199_8565" x1="-4.52547" y1="217.132" x2="-4.52547" y2="344.286" gradientUnits="userSpaceOnUse">
<stop stop-color="#6E0782"/>
<stop offset="1" stop-color="#08204D"/>
</linearGradient>
<linearGradient id="paint9_linear_199_8565" x1="-2.67002" y1="246.696" x2="0.870112" y2="246.696" gradientUnits="userSpaceOnUse">
<stop stop-color="#6E0782"/>
<stop offset="1" stop-color="#08204D"/>
</linearGradient>
<linearGradient id="paint10_linear_199_8565" x1="33.4766" y1="228.906" x2="16.56" y2="261.155" gradientUnits="userSpaceOnUse">
<stop stop-color="#FFA6DD"/>
<stop offset="0.12" stop-color="#FAA2DC"/>
<stop offset="0.26" stop-color="#EB97D9"/>
<stop offset="0.41" stop-color="#D485D5"/>
<stop offset="0.56" stop-color="#B36BD0"/>
<stop offset="0.72" stop-color="#894AC9"/>
<stop offset="0.89" stop-color="#5623C0"/>
<stop offset="1" stop-color="#2E04BA"/>
</linearGradient>
<linearGradient id="paint11_linear_199_8565" x1="29.5017" y1="235.361" x2="23.5083" y2="251.816" gradientUnits="userSpaceOnUse">
<stop stop-color="#FFA6DD" stop-opacity="0.5"/>
<stop offset="0.21" stop-color="#F2AFDD" stop-opacity="0.63"/>
<stop offset="0.57" stop-color="#DFBDDE" stop-opacity="0.83"/>
<stop offset="0.84" stop-color="#D3C6DF" stop-opacity="0.95"/>
<stop offset="1" stop-color="#CFCAE0"/>
</linearGradient>
<linearGradient id="paint12_linear_199_8565" x1="27.8559" y1="240.636" x2="18.1516" y2="251.618" gradientUnits="userSpaceOnUse">
<stop stop-color="#FFA6DD" stop-opacity="0.5"/>
<stop offset="0.21" stop-color="#F2AFDD" stop-opacity="0.63"/>
<stop offset="0.57" stop-color="#DFBDDE" stop-opacity="0.83"/>
<stop offset="0.84" stop-color="#D3C6DF" stop-opacity="0.95"/>
<stop offset="1" stop-color="#CFCAE0"/>
</linearGradient>
<linearGradient id="paint13_linear_199_8565" x1="39.862" y1="203.189" x2="18.0273" y2="229.752" gradientUnits="userSpaceOnUse">
<stop stop-color="#FFA6DD"/>
<stop offset="0.12" stop-color="#FAA2DC"/>
<stop offset="0.26" stop-color="#EB97D9"/>
<stop offset="0.41" stop-color="#D485D5"/>
<stop offset="0.56" stop-color="#B36BD0"/>
<stop offset="0.72" stop-color="#894AC9"/>
<stop offset="0.89" stop-color="#5623C0"/>
<stop offset="1" stop-color="#2E04BA"/>
</linearGradient>
<linearGradient id="paint14_linear_199_8565" x1="34.0977" y1="210.433" x2="20.5349" y2="221.041" gradientUnits="userSpaceOnUse">
<stop stop-color="#FFA6DD" stop-opacity="0.5"/>
<stop offset="0.21" stop-color="#F2AFDD" stop-opacity="0.63"/>
<stop offset="0.57" stop-color="#DFBDDE" stop-opacity="0.83"/>
<stop offset="0.84" stop-color="#D3C6DF" stop-opacity="0.95"/>
<stop offset="1" stop-color="#CFCAE0"/>
</linearGradient>
<linearGradient id="paint15_linear_199_8565" x1="13.6099" y1="212.082" x2="41.9582" y2="212.082" gradientUnits="userSpaceOnUse">
<stop stop-color="#FFA6DD" stop-opacity="0.5"/>
<stop offset="0.21" stop-color="#F2AFDD" stop-opacity="0.63"/>
<stop offset="0.57" stop-color="#DFBDDE" stop-opacity="0.83"/>
<stop offset="0.84" stop-color="#D3C6DF" stop-opacity="0.95"/>
<stop offset="1" stop-color="#CFCAE0"/>
</linearGradient>
<linearGradient id="paint16_linear_199_8565" x1="9.89124" y1="199.482" x2="-4.75839" y2="227.407" gradientUnits="userSpaceOnUse">
<stop stop-color="#FFA6DD"/>
<stop offset="0.12" stop-color="#FAA2DC"/>
<stop offset="0.26" stop-color="#EB97D9"/>
<stop offset="0.41" stop-color="#D485D5"/>
<stop offset="0.56" stop-color="#B36BD0"/>
<stop offset="0.72" stop-color="#894AC9"/>
<stop offset="0.89" stop-color="#5623C0"/>
<stop offset="1" stop-color="#2E04BA"/>
</linearGradient>
<linearGradient id="paint17_linear_199_8565" x1="9.65448" y1="202.378" x2="-0.85723" y2="215.766" gradientUnits="userSpaceOnUse">
<stop stop-color="#FFA6DD" stop-opacity="0.5"/>
<stop offset="0.21" stop-color="#F2AFDD" stop-opacity="0.63"/>
<stop offset="0.57" stop-color="#DFBDDE" stop-opacity="0.83"/>
<stop offset="0.84" stop-color="#D3C6DF" stop-opacity="0.95"/>
<stop offset="1" stop-color="#CFCAE0"/>
</linearGradient>
<linearGradient id="paint18_linear_199_8565" x1="34.1909" y1="206.275" x2="26.5866" y2="217.528" gradientUnits="userSpaceOnUse">
<stop stop-color="#FFA6DD" stop-opacity="0.5"/>
<stop offset="0.21" stop-color="#F2AFDD" stop-opacity="0.63"/>
<stop offset="0.57" stop-color="#DFBDDE" stop-opacity="0.83"/>
<stop offset="0.84" stop-color="#D3C6DF" stop-opacity="0.95"/>
<stop offset="1" stop-color="#CFCAE0"/>
</linearGradient>
<linearGradient id="paint19_linear_199_8565" x1="19.8789" y1="209.396" x2="10.4385" y2="227.396" gradientUnits="userSpaceOnUse">
<stop stop-color="#FFA6DD"/>
<stop offset="0.12" stop-color="#FAA2DC"/>
<stop offset="0.26" stop-color="#EB97D9"/>
<stop offset="0.41" stop-color="#D485D5"/>
<stop offset="0.56" stop-color="#B36BD0"/>
<stop offset="0.72" stop-color="#894AC9"/>
<stop offset="0.89" stop-color="#5623C0"/>
<stop offset="1" stop-color="#2E04BA"/>
</linearGradient>
<linearGradient id="paint20_linear_199_8565" x1="34.1481" y1="215.685" x2="33.9773" y2="215.789" gradientUnits="userSpaceOnUse">
<stop stop-color="#FFA6DD" stop-opacity="0.5"/>
<stop offset="0.21" stop-color="#F2AFDD" stop-opacity="0.63"/>
<stop offset="0.57" stop-color="#DFBDDE" stop-opacity="0.83"/>
<stop offset="0.84" stop-color="#D3C6DF" stop-opacity="0.95"/>
<stop offset="1" stop-color="#CFCAE0"/>
</linearGradient>
<linearGradient id="paint21_linear_199_8565" x1="23.0736" y1="214.027" x2="9.08001" y2="222.652" gradientUnits="userSpaceOnUse">
<stop stop-color="#FFA6DD" stop-opacity="0.5"/>
<stop offset="0.21" stop-color="#F2AFDD" stop-opacity="0.63"/>
<stop offset="0.57" stop-color="#DFBDDE" stop-opacity="0.83"/>
<stop offset="0.84" stop-color="#D3C6DF" stop-opacity="0.95"/>
<stop offset="1" stop-color="#CFCAE0"/>
</linearGradient>
<linearGradient id="paint22_linear_199_8565" x1="3.86297" y1="219.768" x2="29.6299" y2="219.768" gradientUnits="userSpaceOnUse">
<stop stop-color="#FFA6DD" stop-opacity="0.5"/>
<stop offset="0.21" stop-color="#F2AFDD" stop-opacity="0.63"/>
<stop offset="0.57" stop-color="#DFBDDE" stop-opacity="0.83"/>
<stop offset="0.84" stop-color="#D3C6DF" stop-opacity="0.95"/>
<stop offset="1" stop-color="#CFCAE0"/>
</linearGradient>
<linearGradient id="paint23_linear_199_8565" x1="18.2175" y1="313.57" x2="29.0941" y2="335.448" gradientUnits="userSpaceOnUse">
<stop stop-color="#6E0782"/>
<stop offset="1" stop-color="#08204D"/>
</linearGradient>
<linearGradient id="paint24_linear_199_8565" x1="30.4062" y1="309.576" x2="17.1967" y2="315.453" gradientUnits="userSpaceOnUse">
<stop stop-color="#FFA6DD"/>
<stop offset="0.12" stop-color="#FAA2DC"/>
<stop offset="0.26" stop-color="#EB97D9"/>
<stop offset="0.41" stop-color="#D485D5"/>
<stop offset="0.56" stop-color="#B36BD0"/>
<stop offset="0.72" stop-color="#894AC9"/>
<stop offset="0.89" stop-color="#5623C0"/>
<stop offset="1" stop-color="#2E04BA"/>
</linearGradient>
<linearGradient id="paint25_linear_199_8565" x1="47.6372" y1="320.146" x2="36.52" y2="332.253" gradientUnits="userSpaceOnUse">
<stop stop-color="#FFA6DD"/>
<stop offset="0.12" stop-color="#FAA2DC"/>
<stop offset="0.26" stop-color="#EB97D9"/>
<stop offset="0.41" stop-color="#D485D5"/>
<stop offset="0.56" stop-color="#B36BD0"/>
<stop offset="0.72" stop-color="#894AC9"/>
<stop offset="0.89" stop-color="#5623C0"/>
<stop offset="1" stop-color="#2E04BA"/>
</linearGradient>
<linearGradient id="paint26_linear_199_8565" x1="58.8786" y1="326.861" x2="37.7814" y2="336.884" gradientUnits="userSpaceOnUse">
<stop stop-color="#FFA6DD"/>
<stop offset="0.12" stop-color="#FAA2DC"/>
<stop offset="0.26" stop-color="#EB97D9"/>
<stop offset="0.41" stop-color="#D485D5"/>
<stop offset="0.56" stop-color="#B36BD0"/>
<stop offset="0.72" stop-color="#894AC9"/>
<stop offset="0.89" stop-color="#5623C0"/>
<stop offset="1" stop-color="#2E04BA"/>
</linearGradient>
<linearGradient id="paint27_linear_199_8565" x1="49.314" y1="315.635" x2="39.8892" y2="344.818" gradientUnits="userSpaceOnUse">
<stop stop-color="#FFA6DD"/>
<stop offset="0.12" stop-color="#FAA2DC"/>
<stop offset="0.26" stop-color="#EB97D9"/>
<stop offset="0.41" stop-color="#D485D5"/>
<stop offset="0.56" stop-color="#B36BD0"/>
<stop offset="0.72" stop-color="#894AC9"/>
<stop offset="0.89" stop-color="#5623C0"/>
<stop offset="1" stop-color="#2E04BA"/>
</linearGradient>
<linearGradient id="paint28_linear_199_8565" x1="55.4472" y1="333.076" x2="44.0776" y2="335.684" gradientUnits="userSpaceOnUse">
<stop stop-color="#FFA6DD"/>
<stop offset="0.12" stop-color="#FAA2DC"/>
<stop offset="0.26" stop-color="#EB97D9"/>
<stop offset="0.41" stop-color="#D485D5"/>
<stop offset="0.56" stop-color="#B36BD0"/>
<stop offset="0.72" stop-color="#894AC9"/>
<stop offset="0.89" stop-color="#5623C0"/>
<stop offset="1" stop-color="#2E04BA"/>
</linearGradient>
<linearGradient id="paint29_linear_199_8565" x1="60.0548" y1="341.448" x2="42.9597" y2="339.368" gradientUnits="userSpaceOnUse">
<stop stop-color="#FFA6DD"/>
<stop offset="0.12" stop-color="#FAA2DC"/>
<stop offset="0.26" stop-color="#EB97D9"/>
<stop offset="0.41" stop-color="#D485D5"/>
<stop offset="0.56" stop-color="#B36BD0"/>
<stop offset="0.72" stop-color="#894AC9"/>
<stop offset="0.89" stop-color="#5623C0"/>
<stop offset="1" stop-color="#2E04BA"/>
</linearGradient>
<linearGradient id="paint30_linear_199_8565" x1="59.2746" y1="330.906" x2="40.3512" y2="344.899" gradientUnits="userSpaceOnUse">
<stop stop-color="#FFA6DD"/>
<stop offset="0.12" stop-color="#FAA2DC"/>
<stop offset="0.26" stop-color="#EB97D9"/>
<stop offset="0.41" stop-color="#D485D5"/>
<stop offset="0.56" stop-color="#B36BD0"/>
<stop offset="0.72" stop-color="#894AC9"/>
<stop offset="0.89" stop-color="#5623C0"/>
<stop offset="1" stop-color="#2E04BA"/>
</linearGradient>
<linearGradient id="paint31_linear_199_8565" x1="26.6875" y1="318.725" x2="22.1614" y2="349.919" gradientUnits="userSpaceOnUse">
<stop stop-color="#A6CBFF"/>
<stop offset="0.12" stop-color="#A3C6FD"/>
<stop offset="0.26" stop-color="#9AB7F8"/>
<stop offset="0.42" stop-color="#8CA0F0"/>
<stop offset="0.58" stop-color="#787FE4"/>
<stop offset="0.74" stop-color="#5F55D6"/>
<stop offset="0.91" stop-color="#4022C4"/>
<stop offset="1" stop-color="#2E04BA"/>
</linearGradient>
<linearGradient id="paint32_linear_199_8565" x1="93.8693" y1="287.511" x2="91.0184" y2="310.496" gradientUnits="userSpaceOnUse">
<stop stop-color="#DCED00"/>
<stop offset="1" stop-color="#9CA000"/>
</linearGradient>
<linearGradient id="paint33_linear_199_8565" x1="134.568" y1="288.021" x2="151.463" y2="334.268" gradientUnits="userSpaceOnUse">
<stop stop-color="#931A6E"/>
<stop offset="1" stop-color="#700D56"/>
</linearGradient>
<linearGradient id="paint34_linear_199_8565" x1="163.439" y1="290.896" x2="159.344" y2="292.34" gradientUnits="userSpaceOnUse">
<stop stop-color="#A43113"/>
<stop offset="1" stop-color="#6F160D"/>
</linearGradient>
</defs>
</svg>
