<svg width="291" height="342" viewBox="0 0 291 342" fill="none" xmlns="http://www.w3.org/2000/svg">
<mask id="mask0_199_2288" style="mask-type:alpha" maskUnits="userSpaceOnUse" x="0" y="0" width="291" height="342">
<rect width="291" height="342" rx="5" fill="url(#paint0_linear_199_2288)"/>
</mask>
<g mask="url(#mask0_199_2288)">
<path d="M103.658 270.641C103.658 270.641 112.068 268.147 112.517 267.974C112.966 267.801 113.209 267.021 113.2 266.434C113.191 265.845 113.071 265.419 113.25 265.381C113.429 265.343 113.552 265.891 113.573 266.417C113.593 266.942 113.394 267.27 113.394 267.27C113.394 267.27 113.728 266.959 113.799 266.434C113.89 265.777 113.605 265.05 113.684 264.95C113.763 264.85 114.224 265.44 114.265 266.249C114.294 266.839 114.139 267.185 114.139 267.185C114.139 267.185 114.465 266.912 114.529 266.343C114.591 265.774 114.374 265.337 114.517 265.155C114.661 264.97 114.984 265.839 114.913 266.51C114.852 267.109 114.277 267.813 114.277 267.813C114.277 267.813 114.726 267.531 115.025 267.458C115.321 267.385 115.57 267.696 115.57 267.696C115.57 267.696 115.045 267.866 114.638 268.215C114.23 268.567 112.948 268.435 112.76 268.476C112.572 268.517 107.949 270.899 107.949 270.899C107.949 270.899 103.93 270.919 103.658 270.638V270.641Z" fill="#68004D"/>
<path d="M95.262 269.3C95.262 269.3 86.5231 268.555 86.0479 268.476C85.5727 268.4 85.1796 267.684 85.0681 267.106C84.9596 266.528 84.9889 266.135 84.807 266.132C84.6251 266.132 84.6134 266.642 84.6985 267.165C84.7836 267.687 85.0476 267.965 85.0476 267.965C85.0476 267.965 84.6574 267.728 84.4814 267.229C84.2614 266.604 84.3905 265.836 84.2937 265.754C84.1969 265.671 83.8624 266.34 83.9856 267.144C84.0766 267.728 84.2995 268.036 84.2995 268.036C84.2995 268.036 83.924 267.833 83.748 267.291C83.572 266.748 83.6982 266.276 83.5222 266.123C83.3461 265.971 83.2552 266.842 83.3696 267.434C83.4958 268.094 84.3435 268.737 84.3435 268.737C84.3435 268.737 83.795 268.493 83.487 268.479C83.1819 268.467 83 268.822 83 268.822C83 268.822 83.5486 268.881 84.0179 269.142C84.4873 269.403 85.7193 269.016 85.91 269.019C86.1007 269.019 91.1111 270.424 91.1111 270.424C91.1111 270.424 95.0508 269.632 95.2649 269.303L95.262 269.3Z" fill="#68004D"/>
<path d="M92.4399 252.87C92.4341 252.911 92.4282 252.949 92.4223 252.99C92.3461 253.553 92.3314 254.172 92.4223 254.838C92.4517 255.061 92.4927 255.281 92.5455 255.495C92.6688 256.017 92.8506 256.504 93.056 256.944C93.7805 258.484 94.8161 259.473 94.8161 259.473C94.8161 259.473 96.3825 259.147 97.3858 257.645C97.9901 256.742 97.8816 255.789 97.864 255.662C97.864 255.654 97.864 255.648 97.864 255.648C97.82 255.598 97.776 255.545 97.7349 255.495C97.5647 255.299 97.4063 255.108 97.2567 254.917C97.0836 254.703 96.9223 254.495 96.7698 254.292C96.3004 253.668 95.9279 253.107 95.6286 252.606C95.4966 252.383 95.3764 252.172 95.2737 251.972C94.4142 250.365 94.3702 249.567 94.0651 249.678C93.7717 249.784 93.0912 250.576 92.6893 251.834C92.5895 252.151 92.5045 252.497 92.4487 252.873L92.4399 252.87Z" fill="#FF7F00"/>
<path d="M92.5455 255.495C92.6687 256.017 92.8506 256.504 93.056 256.944C93.3552 256.944 94.068 256.88 95.2267 256.369C96.805 255.668 97.2508 254.917 97.2508 254.917C97.0778 254.703 96.9164 254.495 96.7639 254.293C96.4441 254.557 95.6932 255.126 94.7515 255.404C93.8656 255.668 92.9826 255.574 92.5426 255.495H92.5455Z" fill="#FFF594"/>
<path d="M92.4399 252.87C92.7773 253.002 93.2848 253.131 93.9331 253.101C94.7281 253.066 95.3089 252.799 95.6257 252.603C95.4937 252.38 95.3734 252.169 95.2708 251.969C95.0009 252.04 94.6019 252.101 94.0328 252.089C93.4285 252.078 92.9885 251.96 92.6834 251.828C92.5837 252.145 92.4986 252.491 92.4429 252.867L92.4399 252.87Z" fill="#FFF594"/>
<path opacity="0.13" d="M92.4223 252.993C92.3461 253.556 92.3314 254.175 92.4223 254.841C92.7743 257.528 94.816 259.473 94.816 259.473C94.816 259.473 96.3825 259.147 97.3858 257.645C97.9901 256.742 97.8815 255.788 97.8639 255.662L97.7319 255.495C97.7319 255.495 95.3059 255.507 93.7688 254.43C93.0648 253.937 92.6541 253.415 92.4253 252.993H92.4223Z" fill="#590800"/>
<path opacity="0.67" d="M96.849 255.554C96.9692 255.651 97.1306 255.492 97.0308 255.369C96.6143 254.85 96.0599 254.111 95.6022 253.324C95.1886 252.617 94.8571 251.952 94.6254 251.45C94.5579 251.306 94.3438 251.382 94.379 251.535C94.511 252.107 94.7633 252.887 95.2531 253.738C95.7137 254.545 96.3473 255.152 96.849 255.551V255.554Z" fill="white"/>
<path d="M102.279 289.685L101.302 290.034C101.302 290.034 100.859 287.368 100.266 286.822C99.9438 286.526 97.4122 285.731 95.0126 285.094C93.012 284.563 91.1052 284.144 90.6534 284.22C89.6649 284.384 88.7261 285.904 88.7261 285.904L87.8989 285.649C87.8989 285.649 87.8314 281.228 89.1574 275.51C89.791 272.788 90.9849 268.675 92.1261 265.02C93.3728 261.001 94.5579 257.528 94.8513 257.047C95.3499 256.232 101.839 254.656 104.585 254.735C104.91 254.744 105.18 254.774 105.385 254.835C107.319 255.393 110.009 259.696 110.305 260.837C110.607 261.981 104.485 281.715 103.848 284.595C103.215 287.476 102.282 289.682 102.282 289.682L102.279 289.685Z" fill="url(#paint1_linear_199_2288)"/>
<path d="M91.0788 277.546C90.9116 278.605 90.4305 279.409 90.0081 279.342C89.5827 279.274 89.3774 278.362 89.5446 277.303C89.7118 276.244 90.1929 275.44 90.6153 275.507C91.0407 275.575 91.246 276.487 91.0788 277.546Z" fill="#68004D"/>
<path d="M91.249 277.576C91.0817 278.635 90.6006 279.438 90.1782 279.371C89.7529 279.303 89.5475 278.391 89.7147 277.332C89.882 276.273 90.363 275.469 90.7855 275.537C91.2108 275.604 91.4162 276.517 91.249 277.576Z" fill="#FF7F00"/>
<path d="M91.0906 273.249C91.0172 273.712 90.8002 274.061 90.6065 274.032C90.4129 274.003 90.3161 273.601 90.3895 273.14C90.4628 272.677 90.6799 272.328 90.8735 272.357C91.0671 272.386 91.1639 272.788 91.0906 273.249Z" fill="#68004D"/>
<path d="M91.167 273.261C91.0937 273.724 90.8766 274.073 90.683 274.044C90.4894 274.014 90.3926 273.613 90.4659 273.152C90.5393 272.689 90.7563 272.339 90.9499 272.369C91.1435 272.398 91.2403 272.8 91.167 273.261Z" fill="#FF7F00"/>
<path d="M92.613 272.175C92.5397 272.638 92.3226 272.988 92.129 272.958C91.9354 272.929 91.8386 272.527 91.9119 272.066C91.9853 271.603 92.2023 271.254 92.3959 271.283C92.5896 271.313 92.6864 271.714 92.613 272.175Z" fill="#68004D"/>
<path d="M92.6924 272.187C92.6191 272.65 92.402 272.999 92.2084 272.97C92.0148 272.941 91.9179 272.539 91.9913 272.078C92.0646 271.615 92.2817 271.266 92.4753 271.295C92.6689 271.324 92.7657 271.726 92.6924 272.187Z" fill="#FF7F00"/>
<path d="M93.1029 266.49C93.0354 266.909 92.8418 267.226 92.6658 267.2C92.4898 267.173 92.4018 266.81 92.4693 266.39C92.5367 265.971 92.7303 265.654 92.9064 265.68C93.0824 265.707 93.1704 266.07 93.1029 266.49Z" fill="#68004D"/>
<path d="M93.1735 266.502C93.106 266.921 92.9124 267.238 92.7364 267.212C92.5604 267.185 92.4724 266.821 92.5398 266.402C92.6073 265.982 92.8009 265.666 92.9769 265.692C93.153 265.718 93.241 266.082 93.1735 266.502Z" fill="#FF7F00"/>
<path d="M92.2727 268.332C92.2405 268.537 92.1466 268.69 92.0586 268.678C91.9735 268.664 91.9295 268.488 91.9618 268.285C91.994 268.08 92.0879 267.927 92.1759 267.939C92.261 267.954 92.305 268.13 92.2727 268.332Z" fill="#68004D"/>
<path d="M92.308 268.338C92.2757 268.543 92.1789 268.696 92.0939 268.684C92.0088 268.672 91.9648 268.493 91.997 268.291C92.0293 268.086 92.1232 267.933 92.2112 267.945C92.2963 267.96 92.3403 268.136 92.308 268.338Z" fill="#FF7F00"/>
<path d="M92.0703 274.894C92.0117 275.258 91.8415 275.537 91.689 275.51C91.5364 275.487 91.4602 275.17 91.5159 274.806C91.5746 274.443 91.7447 274.164 91.8973 274.19C92.0498 274.214 92.1261 274.531 92.0703 274.894Z" fill="#68004D"/>
<path d="M92.1321 274.903C92.0734 275.267 91.9033 275.546 91.7507 275.519C91.5982 275.496 91.5219 275.179 91.5777 274.815C91.6363 274.451 91.8065 274.173 91.959 274.199C92.1115 274.223 92.1878 274.539 92.1321 274.903Z" fill="#FF7F00"/>
<path d="M106.692 265.045C107.532 262.322 106.612 259.621 104.638 259.012C102.664 258.404 100.383 260.118 99.5437 262.842C98.7043 265.565 99.6241 268.266 101.598 268.874C103.572 269.483 105.853 267.768 106.692 265.045Z" fill="#68004D"/>
<path d="M99.0344 263.16C98.4066 265.941 96.6407 267.913 95.086 267.561C93.5312 267.212 92.7802 264.671 93.408 261.893C94.0358 259.112 95.8017 257.141 97.3565 257.493C98.9112 257.845 99.6622 260.382 99.0344 263.16Z" fill="#68004D"/>
<path d="M99.9438 263.257C99.3483 265.704 100.187 267.948 101.818 268.273C103.449 268.596 105.256 266.877 105.852 264.431C106.447 261.984 105.608 259.74 103.977 259.414C102.346 259.092 100.539 260.811 99.9438 263.257Z" fill="#CAE7EF"/>
<path d="M105.516 264.588C106.162 262.275 105.452 260.056 103.929 259.63C102.406 259.205 100.647 260.735 100.001 263.047C99.3553 265.359 100.066 267.579 101.589 268.005C103.112 268.43 104.87 266.9 105.516 264.588Z" fill="white"/>
<path d="M101.161 263.515C100.786 265.053 101.314 266.461 102.338 266.666C103.361 266.871 104.497 265.789 104.869 264.252C105.245 262.715 104.717 261.306 103.693 261.101C102.669 260.899 101.534 261.978 101.161 263.515Z" fill="url(#paint2_linear_199_2288)"/>
<path d="M101.68 263.65C101.413 264.751 101.789 265.76 102.522 265.903C103.256 266.05 104.065 265.276 104.335 264.176C104.602 263.075 104.227 262.066 103.493 261.923C102.76 261.776 101.95 262.55 101.68 263.65Z" fill="#590800"/>
<path d="M103.59 263.29C103.435 263.926 103.778 264.536 104.356 264.654C104.934 264.768 105.529 264.346 105.685 263.706C105.84 263.067 105.497 262.459 104.919 262.342C104.341 262.228 103.746 262.65 103.59 263.29Z" fill="white"/>
<path d="M102.593 264.375C102.537 264.61 102.66 264.832 102.874 264.874C103.086 264.915 103.303 264.759 103.361 264.527C103.42 264.296 103.294 264.07 103.08 264.029C102.868 263.988 102.651 264.143 102.593 264.375Z" fill="white"/>
<path d="M93.98 262.615C93.6661 264.967 94.5139 266.912 95.878 266.953C97.2391 266.994 98.5973 265.123 98.9112 262.767C99.2251 260.415 98.3773 258.47 97.0132 258.429C95.6521 258.388 94.2939 260.259 93.98 262.615Z" fill="#CAE7EF"/>
<path d="M93.98 262.615C93.6808 264.856 94.4904 266.707 95.787 266.748C97.0836 266.789 98.3773 265.003 98.6765 262.761C98.9757 260.52 98.1661 258.669 96.8695 258.628C95.5729 258.587 94.2792 260.373 93.98 262.615Z" fill="white"/>
<path d="M98.637 263.101C98.9069 261.63 98.4488 260.313 97.6138 260.16C96.7788 260.007 95.8831 261.075 95.6132 262.546C95.3432 264.017 95.8013 265.333 96.6363 265.486C97.4713 265.64 98.367 264.572 98.637 263.101Z" fill="url(#paint3_linear_199_2288)"/>
<path d="M96.0159 262.826C95.875 263.885 96.2564 264.756 96.8695 264.777C97.4826 264.794 98.0928 263.952 98.2336 262.896C98.3744 261.84 97.993 260.966 97.3799 260.946C96.7668 260.925 96.1567 261.77 96.0159 262.826Z" fill="#590800"/>
<path d="M96.978 262.377C96.8959 262.99 97.2215 263.501 97.7055 263.515C98.1896 263.53 98.6472 263.046 98.7293 262.433C98.8115 261.82 98.4859 261.309 98.0018 261.295C97.5178 261.28 97.0602 261.764 96.978 262.377Z" fill="white"/>
<path d="M96.2094 263.354C96.1801 263.58 96.2975 263.765 96.4764 263.771C96.6524 263.776 96.8196 263.597 96.8519 263.375C96.8812 263.149 96.7639 262.964 96.5849 262.958C96.4089 262.952 96.2417 263.131 96.2094 263.354Z" fill="white"/>
<path d="M102.279 289.685L101.302 290.034C101.302 290.034 100.859 287.368 100.266 286.822C99.6768 286.279 91.6479 284.059 90.6534 284.22C89.6648 284.384 88.7261 285.904 88.7261 285.904C88.7261 285.904 89.703 283.671 90.5361 283.313C91.3692 282.956 98.8936 284.95 100.419 283.756C101.944 282.562 107.093 269.614 107.844 264.48C108.592 259.347 104.585 254.738 104.585 254.738C104.91 254.747 105.18 254.776 105.385 254.838C107.319 255.395 110.009 259.699 110.305 260.84C110.607 261.984 104.485 281.718 103.848 284.598C103.215 287.479 102.282 289.685 102.282 289.685H102.279Z" fill="#68004D"/>
<path d="M115.369 259.672C115.351 259.708 115.333 259.746 115.316 259.784C115.064 260.294 114.723 260.814 114.277 261.312C114.125 261.479 113.969 261.638 113.808 261.785C113.412 262.145 112.987 262.448 112.57 262.694C111.106 263.559 109.692 263.791 109.692 263.791C109.692 263.791 108.581 262.641 108.598 260.834C108.61 259.749 109.235 259.021 109.32 258.924C109.326 258.916 109.329 258.913 109.329 258.913C109.393 258.895 109.458 258.877 109.522 258.86C109.772 258.792 110.012 258.722 110.241 258.652C110.505 258.572 110.754 258.49 110.995 258.411C111.734 258.159 112.356 257.904 112.887 257.657C113.122 257.549 113.339 257.44 113.538 257.334C115.152 256.49 115.641 255.856 115.829 256.12C116.011 256.372 116.128 257.411 115.753 258.678C115.656 258.998 115.533 259.329 115.369 259.672Z" fill="#FF7F00"/>
<path d="M113.802 261.785C113.406 262.145 112.98 262.448 112.564 262.694C112.314 262.527 111.763 262.072 111.094 260.995C110.182 259.529 110.237 258.655 110.237 258.655C110.501 258.575 110.751 258.493 110.991 258.414C111.106 258.813 111.408 259.705 112.027 260.467C112.611 261.186 113.394 261.603 113.802 261.788V261.785Z" fill="#FFF594"/>
<path d="M115.368 259.673C115.016 259.59 114.523 259.411 114.004 259.024C113.367 258.546 113.039 258 112.886 257.66C113.121 257.552 113.338 257.443 113.538 257.337C113.719 257.549 114.016 257.824 114.494 258.135C115.001 258.467 115.43 258.616 115.755 258.681C115.658 259.001 115.535 259.332 115.371 259.675L115.368 259.673Z" fill="#FFF594"/>
<path opacity="0.13" d="M115.312 259.784C115.06 260.294 114.72 260.814 114.274 261.312C112.47 263.333 109.689 263.791 109.689 263.791C109.689 263.791 108.577 262.641 108.595 260.834C108.606 259.749 109.231 259.021 109.316 258.924L109.519 258.863C109.519 258.863 111.516 260.239 113.394 260.215C114.253 260.203 114.887 260.004 115.315 259.784H115.312Z" fill="#590800"/>
<path opacity="0.67" d="M110.214 259.411C110.058 259.423 110.017 259.203 110.167 259.156C110.804 258.963 111.678 258.663 112.499 258.27C113.238 257.918 113.887 257.555 114.362 257.273C114.497 257.194 114.632 257.376 114.517 257.481C114.086 257.88 113.438 258.382 112.555 258.81C111.719 259.218 110.853 259.362 110.217 259.411H110.214Z" fill="white"/>
<path d="M102.279 289.685C102.279 289.685 105.421 288.605 105.74 288.822C106.06 289.042 103.737 290.134 103.737 290.134C103.737 290.134 106.327 289.879 106.521 290.195C106.749 290.568 103.831 290.891 103.831 290.891C103.831 290.891 105.84 291.647 105.561 292.011C105.35 292.29 102.053 290.779 101.675 290.471C101.352 290.207 101.299 290.034 101.299 290.034L102.276 289.685H102.279Z" fill="#68004D"/>
<path d="M87.9019 285.651C87.9019 285.651 84.4257 284.616 84.414 285.009C84.4022 285.402 86.9456 286.03 86.9456 286.03C86.9456 286.03 84.7806 286.326 84.7454 286.675C84.7102 287.027 87.3797 286.834 87.3797 286.834C87.3797 286.834 86.2151 288.321 86.6111 288.514C87.0071 288.708 88.732 285.904 88.732 285.904L87.9048 285.648L87.9019 285.651Z" fill="#68004D"/>
<path d="M104.065 254.744C104.065 254.744 102.338 250.526 102.778 250.347C103.218 250.168 104.64 254.392 104.64 254.392C104.64 254.392 104.86 249.059 105.532 249C106.201 248.942 105.635 254.533 105.635 254.533C105.635 254.533 107.756 249.687 109.029 249.936C110.302 250.186 106.444 254.492 106.444 254.492C106.444 254.492 108.944 253.888 109.46 254.41C109.973 254.929 106.535 255.507 106.535 255.507L104.068 254.747L104.065 254.744Z" fill="#3F0300"/>
<path d="M101.346 279.597C101.053 280.216 101.017 280.814 101.267 280.931C101.516 281.049 101.953 280.641 102.247 280.022C102.54 279.403 102.575 278.805 102.326 278.687C102.076 278.57 101.639 278.978 101.346 279.597Z" fill="#68004D"/>
<path d="M101.243 279.55C100.95 280.169 100.915 280.767 101.161 280.885C101.411 281.002 101.848 280.594 102.141 279.975C102.434 279.356 102.47 278.758 102.223 278.64C101.977 278.523 101.537 278.931 101.243 279.55Z" fill="#FF7F00"/>
<path d="M101.103 277.408C100.956 277.719 100.938 278.021 101.062 278.08C101.188 278.139 101.408 277.933 101.554 277.622C101.701 277.312 101.719 277.009 101.595 276.951C101.469 276.892 101.249 277.097 101.103 277.408Z" fill="#68004D"/>
<path d="M101.053 277.385C100.906 277.696 100.888 277.998 101.012 278.057C101.138 278.115 101.358 277.91 101.504 277.599C101.651 277.288 101.669 276.986 101.545 276.927C101.419 276.869 101.199 277.074 101.053 277.385Z" fill="#FF7F00"/>
<path d="M102.525 276.608C102.294 277.232 102.308 277.816 102.558 277.91C102.807 278.004 103.2 277.573 103.432 276.945C103.663 276.317 103.649 275.736 103.399 275.642C103.15 275.549 102.757 275.98 102.525 276.608Z" fill="#68004D"/>
<path d="M102.423 276.572C102.191 277.197 102.206 277.781 102.455 277.875C102.704 277.969 103.097 277.537 103.329 276.91C103.561 276.282 103.546 275.701 103.297 275.607C103.047 275.513 102.654 275.944 102.423 276.572Z" fill="#FF7F00"/>
<path d="M104.183 273.31C104.068 273.618 104.074 273.906 104.197 273.953C104.321 274 104.514 273.786 104.629 273.478C104.743 273.17 104.737 272.882 104.614 272.835C104.491 272.788 104.297 273.002 104.183 273.31Z" fill="#68004D"/>
<path d="M104.133 273.29C104.018 273.598 104.024 273.885 104.147 273.932C104.271 273.979 104.464 273.765 104.579 273.457C104.693 273.149 104.687 272.861 104.564 272.815C104.441 272.768 104.247 272.982 104.133 273.29Z" fill="#FF7F00"/>
<path d="M105.488 269.72C105.374 270.028 105.38 270.315 105.503 270.362C105.626 270.409 105.82 270.195 105.934 269.887C106.049 269.579 106.043 269.291 105.919 269.244C105.796 269.198 105.603 269.412 105.488 269.72Z" fill="#68004D"/>
<path d="M105.438 269.702C105.324 270.01 105.33 270.298 105.453 270.344C105.576 270.391 105.77 270.177 105.884 269.869C105.999 269.561 105.993 269.274 105.869 269.227C105.746 269.18 105.553 269.394 105.438 269.702Z" fill="#FF7F00"/>
<path d="M104.549 269.37C104.461 269.605 104.467 269.825 104.561 269.86C104.655 269.896 104.802 269.734 104.89 269.5C104.978 269.265 104.972 269.045 104.878 269.01C104.784 268.974 104.637 269.136 104.549 269.37Z" fill="#68004D"/>
<path d="M104.511 269.356C104.423 269.591 104.429 269.811 104.523 269.846C104.617 269.881 104.764 269.72 104.852 269.485C104.94 269.25 104.934 269.03 104.84 268.995C104.746 268.96 104.599 269.121 104.511 269.356Z" fill="#FF7F00"/>
<path d="M108.055 260.872C108.055 260.872 107.219 259.857 106.186 259.329C105.154 258.801 103.546 258.191 103.546 258.191L104.218 258.103C104.218 258.103 104.018 257.965 103.834 257.56C103.693 257.246 103.602 256.325 103.602 256.325C103.602 256.325 104.728 256.848 105.99 257.464C107.747 258.323 108.31 259.69 108.31 259.69L107.94 259.555C107.94 259.555 108.146 260.412 108.061 260.872H108.055Z" fill="#3F0300"/>
<path opacity="0.61" d="M107.876 259.23C107.876 259.23 107.509 258.528 106.529 257.898C105.55 257.267 104.441 256.906 104.441 256.906L105.057 257.414L104.033 256.886C104.033 256.886 104.268 257.499 105.5 257.98C107.146 258.625 107.676 259.593 107.676 259.593L107.562 259.024L107.873 259.227L107.876 259.23Z" fill="#8C130D"/>
<path d="M96.0188 257.161C96.0188 257.161 96.9223 256.833 97.7261 256.859C98.8232 256.894 99.6857 257.185 99.6857 257.185L99.3512 256.827C99.3512 256.827 99.5214 256.812 99.8001 256.601C100.014 256.437 100.466 255.809 100.466 255.809C100.466 255.809 100.14 255.709 98.6472 255.595C97.0308 255.472 96.3943 256.199 96.3943 256.199L96.6583 256.264C96.6583 256.264 96.1713 256.795 96.0188 257.164V257.161Z" fill="#3F0300"/>
<path opacity="0.61" d="M96.8138 256.102C96.8138 256.102 97.3213 255.756 98.1397 255.724C98.9582 255.692 99.8734 255.888 99.8734 255.888L99.1635 256.014L99.9585 256.079C99.9585 256.079 99.4803 256.264 98.6707 256.232C97.861 256.199 96.7639 256.452 96.7639 256.452L97.0749 256.088L96.8138 256.1V256.102Z" fill="#8C130D"/>
<path opacity="0.24" d="M94.643 268.153C94.643 268.153 94.7633 270.896 96.4794 271.987C98.1955 273.078 100.073 272.219 100.073 272.219C100.073 272.219 97.7994 272.718 96.3972 271.483C95.0156 270.265 94.6401 268.153 94.6401 268.153H94.643Z" fill="white"/>
<path d="M104.089 270.462L103.006 271.981L102.956 273.439L101.293 272.803L101.302 273.272C101.302 273.272 100.041 273.824 98.4976 273.753C96.9663 273.686 95.479 272.938 95.479 272.938L94.464 270.881L93.1851 269.599L94.1502 267.461C94.1502 267.461 94.2763 272.163 97.1394 272.844C100.536 273.648 104.092 270.459 104.092 270.459L104.089 270.462Z" fill="#68004D"/>
<path d="M94.1296 268.505L93.0237 269.787L94.3966 269.825L94.1296 268.505Z" fill="white"/>
<path d="M94.6635 270.468L93.9683 271.213L94.9539 271.28L94.6635 270.468Z" fill="white"/>
<path d="M95.6961 272.16L95.3852 273.166L96.494 272.785L95.6961 272.16Z" fill="white"/>
<path d="M97.7906 273.114L98.6472 274.082L99.0638 273.199L97.7906 273.114Z" fill="white"/>
<path d="M101.657 272.116L102.956 273.439L103.03 271.248L101.657 272.116Z" fill="white"/>
<path d="M100.149 272.791L101.302 273.272L101.284 272.333L100.149 272.791Z" fill="white"/>
<path d="M94.2617 267.443C94.2617 267.443 94.3027 271.89 97.2274 272.721C100.155 273.551 104.083 270.35 104.083 270.35L104.186 270.412C104.186 270.412 100.313 274.214 97.0866 273.219C93.8598 272.225 94.1179 267.564 94.1179 267.564L94.2646 267.443H94.2617Z" fill="#590800"/>
<path d="M103.059 269.447C103.059 269.447 103.59 269.84 104.048 270.582C104.505 271.327 104.555 271.908 104.555 271.908C104.555 271.908 104.705 270.893 104.338 270.189C103.974 269.485 103.059 269.444 103.059 269.444V269.447Z" fill="#68004D"/>
<path d="M95.1358 267.159C95.1358 267.159 94.5198 267.417 94.0768 267.69C93.6339 267.962 93.0706 268.813 93.0706 268.813C93.0706 268.813 93.2349 267.924 93.7571 267.461C94.3496 266.933 95.1358 267.159 95.1358 267.159Z" fill="#68004D"/>
<path opacity="0.31" d="M57.0522 558.57C175.293 551.815 267.22 477.597 262.372 392.801C257.528 308.004 157.748 244.74 39.5068 251.494C-78.7344 258.252 -170.661 332.467 -165.817 417.263C-160.973 502.059 -61.1929 565.324 57.0483 558.566L57.0522 558.57Z" fill="url(#paint4_radial_199_2288)"/>
<path d="M78.6017 330.211C78.6017 330.211 78.6017 330.211 78.5978 330.211C77.837 329.594 77.0723 328.965 76.292 328.39C75.1392 327.536 73.8504 327.009 72.6277 326.263C70.5742 325.009 68.6528 323.255 66.9759 321.547C65.5591 320.107 64.247 318.577 62.8496 317.122C62.3139 316.563 61.6812 316.155 61.1805 315.554C60.3537 314.556 59.7365 313.43 59.0145 312.359C57.062 309.467 53.6422 307.39 50.89 305.29C49.0307 303.873 47.2839 302.387 45.541 300.826C44.458 299.86 43.375 298.913 42.3541 297.88C41.6515 297.166 40.8519 296.653 40.1182 295.982C38.2511 294.274 36.4461 292.209 34.2064 291.006C33.1816 290.458 32.1762 289.686 31.1825 289.034C30.2354 288.409 29.7696 287.675 29.0476 286.829C28.5197 286.208 27.8326 285.373 27.2076 284.869C26.7418 284.496 26.5283 284.57 25.8607 284.574C25.1697 284.574 24.405 284.422 23.815 284.876C23.3065 285.264 22.8912 286.006 22.5302 286.534C21.191 288.479 20.1313 290.613 18.4582 292.302C17.2549 293.513 15.5547 294.348 14.1418 295.326C11.572 297.115 10.2367 300.023 8.40845 302.441C7.16241 304.095 5.98237 305.469 3.86295 305.612C3.20694 305.659 2.57034 305.554 1.91821 305.663C-0.414711 306.051 -1.87424 307.406 -3.74523 308.737C-4.94468 309.591 -5.84136 310.414 -6.57112 311.711C-7.25819 312.937 -7.63083 313.962 -8.65949 314.94C-9.69591 315.922 -10.2588 317.13 -11.3612 318.038C-12.0871 318.64 -12.6926 319.362 -13.4224 319.952C-15.3632 321.516 -17.6612 322.576 -19.6448 324.089C-20.7472 324.932 -22.1252 325.662 -22.8977 326.857C-23.4489 327.711 -23.5498 328.682 -24.3494 329.384C-24.7376 329.73 -24.5396 330.207 -24.0233 330.207H78.5939C78.5939 330.207 78.5978 330.207 78.5939 330.211H78.6017Z" fill="url(#paint5_linear_199_2288)"/>
<path d="M186.583 318.077C187.546 316.442 188.738 314.971 189.689 313.318C190.527 311.858 191.067 310.138 192.037 308.76C193.803 306.253 198.667 304.739 201.59 305.104C205.798 305.632 210.111 305.612 214.388 305.527C216.612 305.484 219.112 303.912 220.917 302.736C224.046 300.698 226.806 298.039 230.183 296.397C232.31 295.365 234.41 294.685 236.7 294.072C238.494 293.595 240.128 292.799 242.018 292.826C243.455 292.845 244.46 292.515 245.83 292.352C247.197 292.193 248.804 291.335 250.088 290.784C251.4 290.221 252.445 289.495 253.617 288.719C254.832 287.912 256.249 287.042 257.223 285.944C258.694 284.294 259.855 282.147 262.386 282.427C265.111 282.73 267.486 283.459 270.134 284.1C271.562 284.449 273.014 284.686 274.485 284.667C275.646 284.651 277.078 284.899 278.196 284.589C280.692 283.89 282.943 281.612 284.492 279.69C286.045 277.761 287.007 274.396 289.305 273.316C290.885 272.571 292.322 272.893 293.975 273.223C294.453 273.316 295.423 273.522 295.901 273.355C296.58 273.118 296.84 272.175 297.127 271.531C297.589 270.494 297.636 269.474 297.903 268.387C298.156 267.374 298.726 266.554 299.072 265.58C299.526 264.291 299.421 262.917 299.825 261.625C299.984 261.12 300.205 260.751 300.427 260.266C300.57 259.944 300.76 259.125 300.947 258.904C301.723 258.003 303.466 258.36 304.499 258.356C306.063 258.352 307.037 258.461 308.248 259.571C309.51 260.724 309.564 262.723 310.049 264.253C310.449 265.499 310.655 266.683 311.175 267.882C311.73 269.159 312.607 270.149 313.372 271.286C314.61 273.122 315.212 275.218 316.551 276.973C317.277 277.928 317.704 278.906 318.644 279.682C319.509 280.397 320.643 281.022 321.656 281.499C323.329 282.287 325.196 282.361 326.962 282.85C328.891 283.382 330.879 283.708 332.754 284.426C337.998 286.429 341.623 291.638 345.754 295.213C348.343 297.457 350.959 299.631 353.521 301.909C354.856 303.101 356.339 303.982 357.729 305.065C358.979 306.039 360.201 307.181 361.603 307.938C363.38 308.904 365.504 309.595 367.437 310.173C368.376 310.457 369.25 310.375 370.158 310.608C371.117 310.853 372.285 311.377 373.457 311.435C376.054 311.567 378.212 311.334 380.724 312.262C385.064 313.873 388.825 317.063 392.334 320.002C393.821 321.248 395.688 322.405 396.911 323.888C398.001 325.211 399.018 325.751 400.532 326.496C401.58 327.012 402.663 327.575 403.785 327.921C404.593 328.169 405.353 328.115 406.184 328.27C407.089 328.441 407.877 329 408.793 329.093H187.045C186.071 329.093 185.209 328.278 184.984 327.331C184.736 326.306 184.414 325.3 184.483 324.237C184.623 322.086 185.5 319.909 186.583 318.073V318.077Z" fill="url(#paint6_linear_199_2288)"/>
<path d="M-12.5956 332.035V332.028C-10.5072 330.584 -8.39167 329.256 -6.25673 327.886C-4.65357 326.857 -3.03878 325.918 -1.54043 324.734C-0.919357 324.241 -0.271105 323.794 0.295626 323.232C0.784723 322.746 0.982693 322.249 1.33981 321.702C1.86773 320.895 2.56644 320.278 3.41654 319.94C4.53447 319.497 5.57477 318.973 6.61119 318.426C7.55833 317.921 8.49771 317.017 9.28182 316.295C10.2095 315.449 11.1606 314.54 12.1465 313.756C12.9345 313.127 13.5595 312.304 14.3591 311.703C15.3024 310.989 16.4009 310.546 17.348 309.836C18.4737 308.993 19.4869 308.225 20.7329 307.584C21.7771 307.045 22.6039 306.105 23.6558 305.531C24.1449 305.263 24.4516 304.906 25.0338 305.084C25.6122 305.263 26.0625 305.83 26.606 305.985C26.9553 306.09 27.9995 306.21 28.3372 306.059C28.7914 305.853 29.0786 304.436 29.2727 303.935C29.5017 303.345 29.5871 302.728 29.7734 302.193C29.8938 301.847 30.0063 301.56 30.181 301.23C30.344 300.919 30.4644 300.508 30.6352 300.228C31.1359 299.394 32.3742 298.843 33.1117 298.222C33.628 297.783 33.9657 297.391 34.3073 296.879C34.5635 296.49 35.072 296.118 35.4097 295.807C36.4267 294.864 37.5214 294.08 38.6548 293.296C39.3846 292.791 40.2114 292.496 40.9062 291.953C41.2983 291.646 41.6826 291.316 42.094 291.033C42.6452 290.652 43.1654 290.241 43.7011 289.829C44.6172 289.131 45.4401 288.416 46.2475 287.601C47.2684 286.569 48.5765 286.014 49.6673 285.078C50.2379 284.585 50.8551 284.162 51.3908 283.622C51.8954 283.11 52.3068 282.528 52.8386 282.046C53.9837 280.994 55.2453 279.993 56.1342 278.689C56.4137 278.281 56.5573 277.974 56.93 277.625C57.2755 277.307 57.5821 276.911 57.8849 276.55C58.1954 276.177 58.4438 275.762 58.7505 275.382C59.228 274.784 59.8956 274.392 60.3847 273.806C60.8234 273.274 61.2853 272.843 61.7355 272.338C62.147 271.88 62.3916 271.286 62.7991 270.82C63.133 270.444 63.5988 270.262 63.9598 269.92C64.2276 269.672 64.3829 269.353 64.6274 269.093C65.3106 268.371 66.1607 267.828 67.0186 267.339C67.9968 266.78 68.7421 266.127 69.8717 266.131C71.3855 266.139 72.8023 267.082 74.2231 267.575C75.0732 267.87 75.9582 268.22 76.7501 268.651C77.7011 269.167 78.326 269.656 79.0946 270.425C79.6303 270.968 80.2397 271.325 80.7793 271.814C81.3266 272.315 82.2233 272.517 82.8832 272.878C83.4305 273.181 84.0166 273.577 84.5213 273.945C84.8357 274.174 85.0492 274.473 85.4024 274.663C85.9109 274.931 86.2642 275.067 86.6795 275.479C88.9969 277.78 92.1139 278.957 95.0097 280.206C95.4522 280.397 96.0927 280.564 96.4692 280.839C96.935 281.177 97.2688 281.751 97.6609 282.163C98.2432 282.78 98.6313 283.537 99.1476 284.201C99.7454 284.965 100.145 284.892 100.879 284.325C101.189 284.084 101.585 283.665 101.958 283.572C102.237 283.502 102.505 283.587 102.785 283.506C103.053 283.428 103.115 283.265 103.468 283.327C103.782 283.378 104.205 283.626 104.462 283.816C105.269 284.41 105.964 285.361 106.558 286.146C106.962 286.677 107.264 287.295 107.703 287.799C108.13 288.292 108.689 288.789 109.038 289.371C109.756 290.571 110.521 291.782 111.414 292.954C112.241 294.045 113.153 295.042 113.952 296.145C114.465 296.851 115.253 297.321 115.851 297.95C116.379 298.505 116.658 299.25 117.132 299.844C117.951 300.869 118.894 301.987 119.818 302.818C120.198 303.163 120.536 303.574 120.92 303.908C121.339 304.273 121.918 304.432 122.364 304.77C123.525 305.647 124.557 306.497 125.85 307.204C128.094 308.427 130.605 309.486 132.344 311.419C133.089 312.242 133.784 313.124 134.475 313.993C135.236 314.948 135.729 316.031 136.696 316.784C137.324 317.273 137.825 317.937 138.454 318.438C139.149 318.985 139.844 319.524 140.472 320.173C141.295 321.027 142.103 321.904 142.999 322.7C143.558 323.197 144.16 323.647 144.828 323.981C145.853 324.489 146.419 325.234 147.281 325.956C148.007 326.562 148.857 327.024 149.633 327.567C150.615 328.254 151.605 328.942 152.642 329.551C153.787 330.219 154.944 330.7 156.217 331.053C157.133 331.306 157.905 331.698 158.771 332.086C160.809 333.002 162.746 333.895 164.174 335.696C164.535 336.146 164.92 336.635 165.23 337.116C165.843 338.067 166.546 338.89 167.26 339.799C167.8 340.482 168.693 341.511 169.566 342.011C169.632 342.05 169.601 342.186 169.523 342.186H-20.6929C-19.9709 342.186 -21.3683 343.102 -21.7254 342.477C-22.164 341.712 -22.4202 340.889 -22.2417 339.927C-22.032 338.813 -21.1431 338.32 -20.262 337.761C-18.9927 336.953 -18.0727 335.816 -16.8965 334.9C-15.5379 333.844 -14.0163 333.025 -12.6033 332.047C-12.6033 332.047 -12.5995 332.043 -12.5995 332.039L-12.5956 332.035Z" fill="#5F9EFD"/>
<path d="M-13.1351 332.035C-13.1351 332.035 -13.1351 332.028 -13.1312 332.028C-11.0429 330.584 -8.92734 329.256 -6.79627 327.886C-5.19312 326.857 -3.57443 325.918 -2.07997 324.734C-1.45501 324.241 -0.81065 323.794 -0.243919 323.232C0.245178 322.746 0.443148 322.249 0.800266 321.702C1.33206 320.895 2.02689 320.278 2.87699 319.94C3.99105 319.497 5.03523 318.973 6.07166 318.426C7.0188 317.921 7.95816 317.017 8.74227 316.295C9.67 315.449 10.621 314.54 11.607 313.756C12.395 313.127 13.0199 312.304 13.8196 311.703C14.7628 310.989 15.8614 310.546 16.8124 309.836C17.9381 308.993 18.9512 308.225 20.1972 307.584C21.2414 307.045 22.0682 306.105 23.1202 305.531C23.6093 305.263 23.9159 304.906 24.4982 305.084C25.0766 305.263 25.5269 305.83 26.0703 305.985C26.4196 306.09 27.4638 306.21 27.8015 306.059C28.2557 305.853 28.5429 304.436 28.737 303.935C28.9661 303.345 29.0515 302.728 29.2378 302.193C29.3581 301.847 29.4707 301.56 29.6492 301.23C29.8123 300.919 29.9326 300.508 30.0995 300.228C30.6041 299.394 31.8385 298.843 32.5761 298.222C33.0923 297.783 33.43 297.391 33.7716 296.879C34.0278 296.49 34.5363 296.118 34.8702 295.807C35.8872 294.864 36.9818 294.08 38.1153 293.296C38.845 292.791 39.6718 292.496 40.3667 291.953C40.7587 291.646 41.143 291.316 41.5545 291.033C42.1057 290.652 42.6258 290.241 43.1654 289.829C44.0815 289.131 44.9044 288.416 45.7079 287.601C46.7288 286.569 48.037 286.014 49.1277 285.078C49.6983 284.585 50.3194 284.162 50.8512 283.622C51.3558 283.11 51.7673 282.528 52.2991 282.046C53.4442 280.994 54.7058 279.993 55.5947 278.689C55.8742 278.281 56.0178 277.974 56.3904 277.625C56.7359 277.307 57.0426 276.911 57.3453 276.55C57.6559 276.177 57.9082 275.762 58.211 275.382C58.6884 274.784 59.3561 274.392 59.8452 273.806C60.2838 273.274 60.7457 272.843 61.196 272.338C61.6075 271.88 61.852 271.286 62.2596 270.82C62.5934 270.444 63.0592 270.262 63.4202 269.92C63.6881 269.672 63.8472 269.353 64.0879 269.093C64.7711 268.371 65.6212 267.828 66.4829 267.339C67.4611 266.78 68.2064 266.127 69.336 266.131C70.8499 266.139 72.2667 267.082 73.6874 267.575C74.5375 267.87 75.4225 268.22 76.2144 268.651C77.1654 269.167 77.7904 269.656 78.5589 270.425C79.0946 270.968 79.7041 271.325 80.2436 271.814C80.7909 272.315 81.6876 272.517 82.3475 272.878C82.891 273.181 83.481 273.577 83.9817 273.945C84.2961 274.174 84.5096 274.473 84.8667 274.663C85.3753 274.931 85.7285 275.067 86.1439 275.479C88.4612 277.78 91.5782 278.957 94.474 280.206C94.9165 280.397 95.5531 280.564 95.9335 280.839C96.3994 281.177 96.7332 281.751 97.1214 282.163C97.7036 282.78 98.0918 283.537 98.6081 284.201C99.2058 284.965 99.6057 284.892 100.339 284.325C100.65 284.084 101.046 283.665 101.422 283.572C101.702 283.502 101.966 283.587 102.249 283.506C102.517 283.428 102.579 283.265 102.932 283.327C103.247 283.378 103.67 283.626 103.926 283.816C104.733 284.41 105.428 285.361 106.022 286.146C106.426 286.677 106.729 287.295 107.167 287.799C107.59 288.292 108.153 288.789 108.503 289.371C109.221 290.571 109.985 291.782 110.878 292.954C111.705 294.045 112.617 295.042 113.417 296.145C113.929 296.851 114.717 297.321 115.315 297.95C115.843 298.505 116.122 299.25 116.596 299.844C117.415 300.869 118.358 301.987 119.282 302.818C119.663 303.163 120 303.574 120.385 303.908C120.804 304.273 121.382 304.432 121.829 304.77C122.989 305.647 124.022 306.497 125.314 307.204C127.558 308.427 130.069 309.486 131.808 311.419C132.554 312.242 133.249 313.124 133.94 313.993C134.696 314.948 135.193 316.031 136.16 316.784C136.789 317.273 137.289 317.937 137.918 318.438C138.613 318.985 139.308 319.524 139.937 320.173C140.76 321.027 141.567 321.904 142.464 322.7C143.023 323.197 143.624 323.647 144.292 323.981C145.317 324.489 145.884 325.234 146.745 325.956C147.471 326.562 148.321 327.024 149.098 327.567C150.08 328.254 151.07 328.942 152.106 329.551C153.251 330.219 154.408 330.7 155.681 331.053C156.597 331.306 157.37 331.698 158.235 332.086C160.273 333.002 162.21 333.895 163.639 335.696C164 336.146 164.384 336.635 164.694 337.116C165.308 338.067 166.01 338.89 166.725 339.799C167.264 340.482 168.157 341.511 169.03 342.011C169.096 342.05 169.065 342.186 168.988 342.186H-21.2285C-20.5065 342.186 -21.9001 343.102 -22.2611 342.477C-22.6997 341.712 -22.9559 340.889 -22.7773 339.927C-22.5677 338.813 -21.6788 338.32 -20.7976 337.761C-19.5322 336.953 -18.6084 335.816 -17.4322 334.9C-16.0736 333.844 -14.552 333.025 -13.139 332.047C-13.139 332.047 -13.1351 332.043 -13.1351 332.039V332.035Z" fill="url(#paint7_linear_199_2288)"/>
<path d="M334.636 299.576H-47.7756C-50.4811 299.576 -52.6743 301.769 -52.6743 304.475V341.65C-52.6743 344.356 -50.4811 346.549 -47.7756 346.549H334.636C337.342 346.549 339.535 344.356 339.535 341.65V304.475C339.535 301.769 337.342 299.576 334.636 299.576Z" fill="url(#paint8_linear_199_2288)"/>
<path d="M137.864 321.263C137.864 321.263 125.317 321.62 124.63 321.585C123.942 321.549 123.265 320.599 123.013 319.794C122.761 318.989 122.655 317.894 122.396 317.92C122.136 317.945 122.289 319.213 122.494 319.936C122.699 320.659 123.117 321.018 123.117 321.018C123.117 321.018 122.524 320.744 122.194 320.063C121.78 319.211 121.84 318.096 121.687 317.995C121.534 317.895 121.169 318.902 121.475 320.022C121.698 320.838 122.065 321.24 122.065 321.24C122.065 321.24 121.498 321.015 121.161 320.271C120.824 319.526 120.925 318.835 120.649 318.647C120.373 318.46 120.145 319.703 120.472 320.5C120.796 321.299 122.602 322.47 122.602 322.47C122.602 322.47 121.421 321.971 120.982 322.004C120.543 322.038 120.347 322.57 120.347 322.57C120.347 322.57 121.135 322.564 121.845 322.861C122.554 323.158 124.242 322.406 124.513 322.377C124.787 322.346 132.133 323.528 132.133 323.528C132.133 323.528 137.606 321.764 137.855 321.262L137.864 321.263Z" fill="#9CA000"/>
<path opacity="0.44" d="M188.923 325.946C189.26 326.86 176.272 332.499 159.911 338.539C143.549 344.579 130.013 348.732 129.675 347.818C129.338 346.904 142.326 341.265 158.687 335.225C175.049 329.185 188.585 325.032 188.923 325.946Z" fill="#9B9B9B"/>
<path d="M162.854 322.457C165.323 328.294 168.102 332.482 168.102 332.482L167.183 333.276C167.183 333.276 159.266 330.683 153.034 332.351C146.794 334.021 145.787 340.004 145.787 340.004L144.711 340.384C144.711 340.384 137.704 335.536 132.987 325.045C128.27 314.555 125.781 307.095 126.301 306.217C126.568 305.762 127.756 303.532 130.108 301.062C130.134 301.032 130.146 301.019 130.146 301.019C132.357 298.701 135.589 296.18 140.031 294.718C149.245 291.689 155.783 296.545 156.7 297.738C157.612 298.932 160.381 316.621 162.85 322.458L162.854 322.457Z" fill="url(#paint9_linear_199_2288)"/>
<path d="M154.767 317.005L154.891 318.193C154.891 318.193 153.229 320.966 150.086 323.211C150.086 323.211 150.082 323.212 150.08 323.217C148.413 324.407 146.328 325.45 143.857 325.853C138.938 326.651 136.678 323.948 135.748 322.202C135.734 322.174 135.727 322.156 135.727 322.156C135.329 321.392 135.188 320.819 135.188 320.819L135.296 319.666C135.296 319.666 140.073 321.251 145.586 320.403C151.137 319.545 154.773 317.011 154.773 317.011L154.767 317.005Z" fill="#590800"/>
<path d="M155.008 296.484C155.008 296.484 155.543 288.462 156.441 288.184C157.34 287.906 156.748 294.675 156.748 294.675C156.748 294.675 163.181 287.016 165.071 288.425C166.962 289.837 157.251 295.656 157.251 295.656C157.251 295.656 162.55 294.734 162.616 295.765C162.682 296.796 156.703 297.737 156.703 297.737L155.011 296.483L155.008 296.484Z" fill="#590800"/>
<path d="M143.165 299.342C143.165 299.342 145.817 298.88 148.828 299.403C151.842 299.924 153.138 301.081 153.138 301.081L152.442 300.047L153.602 300.119L154.236 298.407C154.236 298.407 151.701 296.786 148.621 296.21C145.452 295.617 142.239 296.249 142.239 296.249L142.544 297.436C142.544 297.436 143.272 297.411 144.203 297.411C144.976 297.411 145.838 297.639 145.838 297.639L142.758 297.948L143.17 299.344L143.165 299.342Z" fill="#590800"/>
<path d="M138.403 300.363C138.403 300.363 136.088 301.735 134.139 304.089C132.186 306.444 131.761 307.859 131.761 307.859L131.426 306.997L130.978 307.734L129.384 306.845C129.384 306.845 130.258 303.966 132.225 301.526C134.247 299.013 137.102 297.409 137.102 297.409L137.64 298.509C137.64 298.509 137.071 298.963 136.364 299.568C135.775 300.071 135.56 300.419 135.56 300.419L137.811 299.038L138.404 300.366L138.403 300.363Z" fill="#590800"/>
<path d="M155.58 306.57C154.569 302.722 151.356 300.231 148.403 301.007C145.451 301.783 143.877 305.531 144.888 309.38C145.899 313.228 149.112 315.719 152.065 314.943C155.017 314.167 156.591 310.418 155.58 306.57Z" fill="#9CA000"/>
<path d="M143.259 310.177C142.248 306.329 139.035 303.838 136.083 304.614C133.13 305.39 131.556 309.138 132.567 312.987C133.578 316.835 136.792 319.326 139.744 318.55C142.697 317.774 144.271 314.026 143.259 310.177Z" fill="#9CA000"/>
<path d="M142.872 310.275C141.973 306.856 139.209 304.619 136.699 305.279C134.188 305.939 132.88 309.245 133.779 312.664C134.677 316.083 137.441 318.32 139.952 317.66C142.463 317.001 143.77 313.694 142.872 310.275Z" fill="#CAE7EF"/>
<path d="M142.848 310.262C143.703 313.521 142.458 316.671 140.067 317.301C137.676 317.931 135.044 315.8 134.185 312.542C133.326 309.284 134.575 306.133 136.965 305.503C139.356 304.873 141.989 307.004 142.848 310.262Z" fill="white"/>
<path d="M141.532 310.533C142.097 312.679 141.275 314.757 139.7 315.173C138.122 315.586 136.388 314.182 135.823 312.036C135.258 309.89 136.08 307.812 137.656 307.396C139.232 306.979 140.968 308.387 141.532 310.533Z" fill="url(#paint10_linear_199_2288)"/>
<path d="M140.759 310.804C140.356 309.268 139.114 308.262 137.986 308.559C136.858 308.855 136.271 310.341 136.675 311.877C137.078 313.414 138.32 314.419 139.448 314.123C140.576 313.826 141.163 312.34 140.759 310.804Z" fill="#590800"/>
<path d="M142.252 310.929C142.721 310.135 142.457 309.112 141.663 308.643C140.869 308.175 139.846 308.439 139.377 309.233C138.909 310.027 139.173 311.05 139.967 311.518C140.761 311.987 141.784 311.723 142.252 310.929Z" fill="white"/>
<path d="M139.324 311.936C139.41 312.26 139.216 312.596 138.887 312.68C138.563 312.767 138.226 312.572 138.142 312.244C138.058 311.915 138.25 311.583 138.579 311.499C138.903 311.412 139.239 311.607 139.324 311.936Z" fill="white"/>
<path d="M145.092 309.078C145.865 312.529 148.545 314.867 151.079 314.299C153.613 313.732 155.041 310.474 154.268 307.023C153.495 303.572 150.815 301.234 148.281 301.802C145.747 302.369 144.319 305.627 145.092 309.078Z" fill="#CAE7EF"/>
<path d="M145.092 309.078C145.829 312.364 148.381 314.592 150.795 314.048C153.211 313.508 154.569 310.404 153.831 307.118C153.094 303.832 150.542 301.604 148.128 302.148C145.712 302.688 144.355 305.792 145.092 309.078Z" fill="white"/>
<path d="M146.385 308.713C146.87 310.88 148.554 312.348 150.144 311.992C151.734 311.637 152.629 309.589 152.144 307.422C151.658 305.256 149.975 303.788 148.384 304.143C146.794 304.498 145.899 306.546 146.385 308.713Z" fill="url(#paint11_linear_199_2288)"/>
<path d="M147.21 308.573C147.559 310.124 148.762 311.174 149.901 310.919C151.04 310.664 151.679 309.2 151.334 307.651C150.985 306.1 149.783 305.05 148.644 305.305C147.505 305.56 146.866 307.025 147.21 308.573Z" fill="#590800"/>
<path d="M150.356 307.826C150.556 308.724 151.452 309.292 152.349 309.089C153.248 308.889 153.815 307.993 153.612 307.096C153.409 306.198 152.516 305.63 151.619 305.833C150.72 306.032 150.153 306.928 150.356 307.826Z" fill="white"/>
<path d="M148.989 308.943C149.061 309.272 149.39 309.478 149.719 309.406C150.048 309.334 150.254 309.006 150.182 308.676C150.11 308.347 149.782 308.141 149.452 308.213C149.123 308.285 148.917 308.613 148.989 308.943Z" fill="white"/>
<path d="M150.082 323.212C150.082 323.212 150.078 323.213 150.076 323.218C148.409 324.409 146.324 325.451 143.854 325.854C138.935 326.652 136.675 323.949 135.744 322.203C135.73 322.175 135.723 322.157 135.723 322.157C135.723 322.157 140.994 321.887 145.168 322.477C149.341 323.076 150.08 323.217 150.08 323.217L150.082 323.212Z" fill="#8B1229"/>
<path d="M135.183 320.817L135.446 322.135C135.446 322.135 136.836 326.583 141.811 326.621C149.512 326.679 154.558 319.453 154.542 319.41C154.525 319.366 154.884 318.195 154.884 318.195C154.884 318.195 149.028 326.332 141.862 326.007C136.033 325.742 135.176 320.82 135.176 320.82L135.183 320.817Z" fill="#DCED00"/>
<path d="M167.183 333.276C167.183 333.276 159.266 330.683 153.034 332.351C146.794 334.021 145.787 340.004 145.787 340.004L144.711 340.384C144.711 340.384 137.704 335.536 132.987 325.046C128.27 314.555 125.781 307.095 126.301 306.217C126.568 305.762 127.756 303.532 130.108 301.062C129.747 301.506 126.967 305.42 130.934 316.345C135.167 328.002 140.6 333.866 146.396 332.852C152.187 331.84 152.708 330.381 159.61 330.999C166.409 331.605 167.418 333.645 167.179 333.278L167.183 333.276Z" fill="#9CA000"/>
<path d="M127.142 305.008C127.142 305.008 122.618 299.512 121.128 299.904C119.639 300.297 125.476 305.259 125.476 305.259C125.476 305.259 114.776 304.835 114.631 307.152C114.486 309.473 124.971 306.604 124.971 306.604C124.971 306.604 118.258 309.558 118.668 310.669C119.078 311.779 126.356 307.541 126.356 307.541L127.142 305.008Z" fill="#590800"/>
<path d="M157.775 317.252C157.775 317.252 164.496 306.652 164.822 306.044C165.148 305.435 164.674 304.365 164.109 303.742C163.544 303.119 162.661 302.464 162.815 302.254C162.973 302.043 163.976 302.823 164.497 303.371C165.018 303.919 165.107 304.462 165.107 304.462C165.107 304.462 165.173 303.812 164.758 303.18C164.238 302.387 163.248 301.871 163.238 301.684C163.228 301.502 164.278 301.701 165.089 302.54C165.673 303.148 165.833 303.672 165.833 303.672C165.833 303.672 165.93 303.07 165.462 302.398C164.995 301.726 164.35 301.46 164.331 301.127C164.312 300.795 165.496 301.235 166.015 301.921C166.534 302.611 166.616 304.761 166.616 304.761C166.616 304.761 166.793 303.492 167.046 303.134C167.298 302.776 167.856 302.876 167.856 302.876C167.856 302.876 167.448 303.552 167.34 304.312C167.231 305.072 165.723 306.142 165.559 306.359C165.395 306.577 162.65 313.499 162.65 313.499C162.65 313.499 158.336 317.302 157.777 317.256L157.775 317.252Z" fill="#B3CC00"/>
<path d="M144.715 340.383C144.715 340.383 140.769 342.394 141.177 342.736C141.584 343.078 144.207 341.092 144.207 341.092C144.207 341.092 141.266 343.617 141.6 343.916C141.934 344.215 144.865 341.147 144.865 341.147C144.865 341.147 143.102 343.747 143.73 343.833C144.356 343.917 145.791 340.002 145.791 340.002L144.715 340.383Z" fill="#9CA000"/>
<path d="M168.102 332.482C168.102 332.482 171.085 330.888 171.275 331.17C171.466 331.451 168.871 332.513 168.871 332.513C168.871 332.513 171.712 331.691 172.001 332.093C172.29 332.496 168.651 333.016 168.651 333.016C168.651 333.016 171.093 333.062 171.01 333.498C170.926 333.934 167.183 333.276 167.183 333.276L168.102 332.482Z" fill="#9CA000"/>
<path d="M154.096 317.596L153.828 318.643L153.03 321.739L151.324 319.505L151.132 319.253L150.765 319.67L149.555 321.044L147.515 320.473L147.408 320.442L147.295 320.517L146.505 321.065L145.444 320.815L145.059 320.725L144.289 320.915L142.782 321.281L142.455 320.967L142.344 320.859L141.903 320.964L139.945 321.43L139.36 320.856L139.195 320.689L139.044 320.828L136.68 323.033L136.019 320.504L135.9 320.047C135.9 320.047 137.778 320.897 142.983 320.727C149.594 320.512 154.098 317.591 154.098 317.591L154.096 317.596Z" fill="white"/>
<path d="M154.096 317.597L153.828 318.643C153.412 318.805 152.539 319.131 151.324 319.505L151.132 319.253L150.765 319.67C149.835 319.943 148.737 320.22 147.515 320.473L147.408 320.442L147.295 320.517C147.099 320.556 146.899 320.597 146.694 320.635C146.292 320.713 145.874 320.768 145.446 320.819L145.061 320.729L144.291 320.918C143.68 320.957 143.06 320.971 142.456 320.971L142.346 320.862L141.905 320.967C141.007 320.955 140.139 320.916 139.365 320.858L139.2 320.691L139.049 320.83C137.273 320.695 136.024 320.506 136.024 320.506L135.905 320.05C135.905 320.05 137.783 320.9 142.988 320.729C149.599 320.514 154.103 317.594 154.103 317.594L154.096 317.597Z" fill="#CAE7EF"/>
<path d="M137.734 324.588L138.768 322.994L139.549 325.594C139.549 325.594 138.261 325.039 137.733 324.585L137.734 324.588Z" fill="white"/>
<path d="M147.145 324.817L147.192 322.433L148.629 324.005C148.629 324.005 147.877 324.559 147.146 324.821L147.145 324.817Z" fill="white"/>
<path d="M151.94 321.442L152.279 323.009L152.82 321.46L152.443 320.966L151.94 321.442Z" fill="#9CA000"/>
<path opacity="0.43" d="M158.402 310.499C157.94 310.459 158.557 315.379 160.081 319.508C161.606 323.638 163.266 327.419 163.59 327.299C164.078 327.119 161.947 322.837 160.643 318.655C159.336 314.475 158.873 310.541 158.404 310.503L158.402 310.499Z" fill="white"/>
<path opacity="0.43" d="M157.731 308.053C157.879 308.992 158.135 309.729 158.303 309.704C158.471 309.675 158.485 308.896 158.337 307.958C158.189 307.019 157.934 306.282 157.765 306.307C157.598 306.336 157.583 307.115 157.731 308.053Z" fill="white"/>
<path d="M139.635 330.006C140.395 331.137 140.646 332.298 140.197 332.604C139.747 332.911 138.759 332.241 137.999 331.111C137.238 329.981 136.987 328.82 137.437 328.513C137.886 328.206 138.874 328.876 139.635 330.006Z" fill="#DCED00"/>
<path d="M139.824 329.879C140.584 331.009 140.835 332.17 140.385 332.477C139.931 332.781 138.948 332.114 138.187 330.983C137.427 329.853 137.176 328.692 137.625 328.385C138.075 328.079 139.063 328.748 139.824 329.879Z" fill="#7A7A00"/>
<path d="M157.989 320.914C158.278 321.965 158.856 322.724 159.276 322.607C159.697 322.492 159.802 321.543 159.513 320.492C159.224 319.44 158.646 318.681 158.226 318.799C157.805 318.913 157.7 319.862 157.989 320.914Z" fill="#DCED00"/>
<path d="M157.813 320.962C158.102 322.014 158.68 322.773 159.1 322.655C159.521 322.541 159.626 321.592 159.337 320.54C159.048 319.488 158.47 318.729 158.05 318.847C157.63 318.965 157.524 319.91 157.813 320.962Z" fill="#7A7A00"/>
<path d="M160.21 324.016C160.402 324.715 160.785 325.215 161.064 325.141C161.342 325.063 161.412 324.437 161.221 323.738C161.029 323.039 160.646 322.54 160.367 322.614C160.089 322.691 160.018 323.317 160.21 324.016Z" fill="#DCED00"/>
<path d="M160.093 324.047C160.285 324.746 160.668 325.246 160.947 325.172C161.225 325.094 161.296 324.468 161.104 323.769C160.912 323.07 160.529 322.57 160.25 322.644C159.972 322.722 159.902 323.348 160.093 324.047Z" fill="#7A7A00"/>
<path d="M142.382 332.886C142.775 333.469 142.906 334.071 142.67 334.228C142.438 334.384 141.93 334.038 141.538 333.458C141.145 332.875 141.014 332.274 141.25 332.117C141.485 331.959 141.99 332.307 142.382 332.886Z" fill="#DCED00"/>
<path d="M142.478 332.821C142.871 333.404 143.002 334.006 142.767 334.163C142.534 334.319 142.026 333.973 141.634 333.394C141.241 332.81 141.11 332.209 141.346 332.052C141.578 331.896 142.086 332.242 142.478 332.821Z" fill="#7A7A00"/>
<path d="M140.871 334.263C141.153 334.68 141.246 335.11 141.076 335.222C140.91 335.333 140.546 335.086 140.265 334.673C139.983 334.256 139.891 333.826 140.06 333.714C140.226 333.603 140.59 333.85 140.871 334.263Z" fill="#DCED00"/>
<path d="M140.941 334.216C141.223 334.634 141.315 335.063 141.146 335.175C140.98 335.286 140.616 335.04 140.335 334.626C140.053 334.209 139.96 333.78 140.13 333.667C140.296 333.557 140.66 333.803 140.941 334.216Z" fill="#7A7A00"/>
<path d="M135.497 327.541C135.705 328.015 135.72 328.469 135.531 328.551C135.342 328.633 135.018 328.318 134.811 327.844C134.603 327.371 134.588 326.917 134.777 326.835C134.966 326.752 135.289 327.068 135.497 327.541Z" fill="#DCED00"/>
<path d="M135.576 327.508C135.784 327.981 135.799 328.435 135.61 328.517C135.421 328.599 135.097 328.284 134.889 327.811C134.682 327.337 134.667 326.883 134.856 326.801C135.045 326.719 135.368 327.034 135.576 327.508Z" fill="#7A7A00"/>
<path d="M153.814 315.288C153.814 315.288 154.23 316.392 154.676 317.622C155.123 318.856 155.437 320.569 155.437 320.569C155.437 320.569 155.965 318.86 155.52 317.443C155.076 316.026 153.811 315.289 153.811 315.289L153.814 315.288Z" fill="#9CA000"/>
<path d="M135.931 317.508C135.931 317.508 135.346 319.375 135.213 320.495C135.081 321.616 135.113 323.553 135.113 323.553C135.113 323.553 134.014 321.327 134.312 319.814C134.603 318.35 135.93 317.504 135.93 317.504L135.931 317.508Z" fill="#9CA000"/>
<path d="M138.871 327.669C138.871 327.669 140.926 328.843 144.075 328.314C147.635 327.715 149.449 326.226 149.449 326.226C149.449 326.226 147.585 328.408 143.853 329.136C141.225 329.651 138.876 327.671 138.876 327.671L138.871 327.669Z" fill="#9CA000"/>
<path d="M258.023 307.577C256.975 307.468 255.923 307.402 254.871 307.371C253.353 307.328 252.099 307.072 250.741 307.763C248.295 309.009 245.842 310.802 243.645 312.433C241.968 313.675 240.186 315.794 238.094 316.361C236.72 316.734 234.748 316.481 233.35 316.198C230.098 315.53 226.654 315.173 223.363 315.837C220.397 316.435 217.82 317.564 214.757 317.428C213.53 317.374 212.3 317.328 211.073 317.324C209.299 317.32 208.515 316.71 207.009 315.833C205.484 314.944 203.888 314.537 202.211 314.024C200.818 313.601 199.129 313.209 197.658 313.5C194.964 314.024 191.886 316.582 190.314 318.756C189.134 320.39 188.532 322.89 186.238 323.302C183.688 323.756 180.842 322.576 178.311 323.185C175.618 323.833 172.962 325.103 170.307 325.937C166.523 327.129 162.664 328.06 158.895 329.299C156.034 330.242 153.678 329.411 150.883 328.973C148.492 328.596 145.988 329.132 143.589 328.682C139.172 327.855 134.828 326.178 130.458 325.087C127.034 324.233 123.311 323.531 119.783 323.453C118.843 323.433 117.644 323.181 116.724 323.395C115.707 323.628 114.896 324.54 113.98 325.017C111.852 326.12 109.256 326.131 106.958 326.698C103.076 327.657 98.7012 326.376 94.7341 326.686C86.6912 327.319 78.5357 326.686 70.4423 326.426C67.5776 326.337 64.6663 326.081 61.7977 326.12C60.0975 326.143 58.4594 326.589 56.7631 326.578C53.9838 326.554 51.3558 326.092 48.6891 327.106C47.0238 327.742 45.4828 328.526 43.7477 328.973C42.5055 329.295 41.1663 329.613 40.2153 330.533C38.7674 331.938 38.8839 334.209 38.519 336.049C38.2589 337.357 37.8474 338.619 37.3933 339.869C36.384 342.652 38.1269 345.521 41.0576 345.951L158.806 363.307L245.027 366.07C247.515 366.152 249.669 364.351 250.03 361.886L258.03 307.584C258.03 307.584 258.03 307.577 258.023 307.577Z" fill="#6292F1"/>
<path d="M385.607 268.887C377.219 265.972 358.338 262.564 349.523 266.139C343.242 268.69 341.573 276.43 337.268 280.746C328.81 289.228 320.072 287.648 306.746 287.302C296.044 287.027 297.694 290.734 290.33 295.869C286.468 298.567 280.964 294.918 276.954 296.836C271.287 299.549 269.509 303.101 266.978 305.314C256.09 314.835 240.423 310.08 227.835 318.166C224.011 320.619 221.461 324.528 216.787 325.122C212.905 325.619 206.854 323.961 203.112 325.184C198.341 326.737 194.855 331.438 191.785 336.185C189.394 339.88 192.507 346.029 196.905 346.029H378.853C381.656 346.029 383.888 343.684 383.748 340.886C383.596 337.788 383.441 334.69 383.29 331.597L385.619 268.887H385.607Z" fill="url(#paint12_linear_199_2288)"/>
<path d="M313.392 347.868C305.504 349.246 296.46 348.947 289.034 346.975C282.264 345.174 279.077 340 272.012 342.659C267.533 344.34 263.321 347.752 258.861 349.615C244.34 355.682 231.906 342.003 218.157 345.52C207.374 348.276 199.207 356.156 188.078 356.645C176.937 357.13 167.14 360.22 156.027 357.852C143.597 355.201 131.447 350.531 118.673 351.016C110.572 351.323 102.245 353.718 94.1247 352.658C89.0785 352.002 84.4165 349.32 79.4712 347.81C75.0538 346.459 69.534 345.116 65.1243 346.971C61.623 348.446 59.5308 351.148 55.9247 351.827C47.4508 353.419 41.8262 343.781 33.8765 342.166C31.1864 341.622 27.9452 339.693 25.3367 339.763C24.0013 339.798 22.4098 340.291 20.7523 341.118C19.2812 341.851 18.4777 343.431 18.4777 345.073V368.608C18.4777 371.314 20.6708 373.507 23.3764 373.507H308.489C311.195 373.507 313.388 371.314 313.388 368.608V347.868C313.388 347.868 313.388 347.864 313.384 347.864L313.392 347.868Z" fill="#000045"/>
<g opacity="0.28">
<path d="M-36.8524 154.905C-36.8524 154.905 -12.9915 163.052 2.13947 163.052C17.2704 163.052 17.8527 161.888 21.3462 164.795C24.8398 167.706 25.422 169.453 32.9836 168.871C40.5452 168.289 53.351 170.614 59.1697 172.947C64.9884 175.276 70.8072 171.782 77.7943 172.947C84.7775 174.107 106.313 182.259 128.424 180.508C128.424 180.508 76.0514 178.766 45.7894 175.85C15.5275 172.939 -25.7895 162.462 -36.8447 154.901H-36.8486L-36.8524 154.905Z" fill="white"/>
</g>
<g opacity="0.28">
<path d="M150.569 145.41C150.569 145.41 171.891 149.971 184.891 148.465C197.891 146.959 198.275 145.918 201.567 148.042C204.859 150.165 205.538 151.597 211.978 150.351C218.421 149.105 229.659 149.816 234.892 151.213C240.128 152.618 244.778 149.07 250.896 149.361C257.013 149.653 276.337 154.447 295.167 150.767C295.167 150.767 249.984 154.485 223.685 155.017C197.386 155.549 160.828 150.747 150.569 145.418H150.561L150.569 145.41Z" fill="white"/>
</g>
<g opacity="0.28">
<path d="M-138.181 106.911C-138.181 106.911 31.9821 146.012 185.784 154.978C339.582 163.937 438.577 119.946 438.577 119.946L440.211 126.467C440.211 126.467 312.588 176.165 105.611 159.865C-101.371 143.574 -139 128.093 -139 128.093L-138.181 106.911Z" fill="white"/>
</g>
<path opacity="0.2" d="M-16.8926 -16C-16.8926 -16 95.5143 92.5951 308.462 102.897C308.462 102.897 306.878 97.3463 298.171 95.7587C289.465 94.1711 279.962 98.1382 277.587 92.5873C275.211 87.0365 267.296 71.1835 250.671 70.3955C234.045 69.6075 223.759 79.11 215.044 73.5669C206.334 68.0238 196.043 57.7139 187.336 58.5058C178.63 59.2977 157.257 65.6404 154.086 56.1263C150.918 46.6122 150.918 29.9713 132.709 9.3593C114.5 -11.2527 59.8801 25.2123 51.1734 13.3225C42.4822 1.44059 40.1066 -16 29.0243 -16H-16.8888H-16.8926Z" fill="white"/>
<path opacity="0.2" d="M228.13 105.257C228.13 105.257 90.7281 107.144 -4.18776 87.3199C-99.0959 67.4959 -134.982 38.2316 -134.982 38.2316C-134.982 38.2316 -114.204 47.6719 -105.233 46.7287C-96.2622 45.7816 -84.9276 34.9282 -77.3776 36.349C-69.8238 37.7697 -64.1604 56.1729 -58.0195 57.1201C-51.8786 58.0672 -48.1017 52.8696 -23.5498 53.3431C1.00212 53.8167 2.89252 69.8599 13.7536 77.4176C24.6107 84.9675 55.7732 80.2513 70.4112 79.7777C85.0492 79.3041 92.603 94.4118 102.047 96.2944C111.492 98.1771 131.323 91.1045 135.57 92.5136C139.816 93.9266 142.658 99.5978 147.374 99.1242C152.094 98.6506 151.155 93.4608 155.871 96.2905C160.591 99.1242 173.816 102.901 177.59 98.6506C181.37 94.4001 228.11 105.261 228.11 105.261H228.133L228.13 105.257Z" fill="white"/>
<path opacity="0.2" d="M189.933 57.4617C189.933 57.4617 317.021 82.9879 376.31 78.1125C376.31 78.1125 364.145 72.9381 357.286 73.6135C350.427 74.289 345.451 78.1746 337.342 70.4965C329.241 62.8223 306.781 55.6877 294.666 62.4536C282.563 69.2155 273.181 65.8656 269.745 63.2222C266.31 60.5787 262.234 63.0785 254.735 62.9233C247.224 62.7796 238.412 42.3463 227.85 42.583C217.288 42.8198 214.031 57.3413 207.708 53.611C201.388 49.8807 189.937 57.4656 189.937 57.4656L189.933 57.4617Z" fill="white"/>
<path d="M129.332 341.678H-23.2781V310.399C-21.8302 309.941 -20.293 309.483 -18.6705 309.04C-9.79297 306.614 1.65423 304.549 15.7682 304.009C23.5782 303.714 32.2112 303.881 41.6709 304.724C77.4022 307.883 109.958 327.47 129.328 341.681L129.332 341.678Z" fill="url(#paint13_linear_199_2288)"/>
<g opacity="0.34">
<path d="M129.332 341.678H123.311C115.769 336.173 102.354 326.954 91.652 322.719C75.8573 316.47 63.688 316.14 52.497 311.202C41.3138 306.265 26.505 306.595 18.2796 305.939C10.0543 305.279 1.16902 306.595 -7.38242 308.57C-11.858 309.603 -18.2241 311.804 -23.2742 313.671V310.399C-21.8263 309.941 -20.2892 309.483 -18.6666 309.04C-9.78909 306.614 1.65811 304.549 15.7721 304.009C23.5821 303.714 32.215 303.881 41.6748 304.724C77.4061 307.883 109.962 327.47 129.332 341.681V341.678Z" fill="white"/>
</g>
<path opacity="0.46" d="M92.8942 341.678H-23.2781V310.399C-21.8302 309.941 -20.293 309.482 -18.6705 309.04C-18.8762 309.669 -18.9694 310.336 -18.9228 311.031C-18.7559 313.45 -16.8266 315.464 -14.6102 316.439C-12.3937 317.417 -9.90942 317.553 -7.4911 317.654C5.21378 318.193 17.9458 318.193 30.6507 317.654C32.25 317.588 33.9036 317.518 35.3942 318.096C36.8886 318.674 38.1813 320.087 38.0881 321.687C37.9522 324.004 35.1341 325.526 35.0992 327.851C35.0759 329.33 36.2792 330.607 37.6572 331.146C39.0391 331.686 40.5646 331.647 42.0475 331.593C53.9411 331.17 65.8463 330.417 77.7321 331.011C80.7056 331.154 83.7294 331.403 86.4893 332.521C89.2492 333.638 91.7452 335.766 92.603 338.619C92.9058 339.616 92.9873 340.653 92.8903 341.681L92.8942 341.678Z" fill="url(#paint14_linear_199_2288)"/>
<path d="M21.0901 252.301C21.0901 252.301 20.0924 261.283 19.0948 262.083C18.0972 262.882 15.1044 271.465 15.1044 271.465C15.1044 271.465 13.905 280.047 13.1053 282.438C12.593 283.976 10.1863 289.294 8.53655 292.907C8.53655 292.939 8.53655 292.966 8.53655 292.997C8.53655 293.09 8.53656 293.183 8.54432 293.276C8.83545 306.983 9.73988 344.022 9.73988 344.022L-0.604906 344.154L-4.18774 344.201L-10.8837 344.282L-7.09126 281.355C-7.09126 281.355 -10.4567 274.877 -10.9769 273.584C-11.497 272.288 -13.0458 262.188 -13.0458 260.635C-13.0458 259.843 -15.0643 256.427 -17.044 253.263C-18.9461 250.228 -20.8132 247.425 -20.8132 247.425L-25.9991 241.471L-30.1371 231.891L-29.7683 231.444L-28.8483 230.338L-24.1825 238.362C-24.1825 238.362 -13.3098 250.278 -12.0094 251.315C-10.7207 252.351 -7.8715 261.931 -7.60754 262.968C-7.39016 263.857 -3.90049 271.271 -2.93394 273.32C-2.77479 273.65 -2.6855 273.84 -2.6855 273.84L-2.6661 273.417L-1.39678 243.544V217.901L-0.142981 217.668L1.63097 217.338L2.75278 217.128L5.20215 237.927C5.20215 237.927 5.21768 237.907 5.24097 237.876C5.75336 237.255 10.7258 231.25 10.9743 230.509C11.2343 229.736 11.5527 222.051 11.5527 222.051L13.2839 220.533L13.6216 220.234C13.6216 220.234 14.658 226.192 14.922 227.489C15.1782 228.785 13.1053 235.52 12.329 236.557C11.6264 237.492 6.45983 244.161 5.49328 245.415C5.39235 245.547 5.33801 245.62 5.33801 245.62C5.33801 245.62 5.59809 249.06 5.94356 253.26C6.44042 259.303 7.10808 266.931 7.41473 268.154C7.62047 268.988 7.83008 272.039 8.01252 275.537L9.37889 274.582L12.1155 272.664L14.3126 261.885C14.3126 261.885 16.5057 260.689 17.3054 260.285C18.105 259.89 18.7028 251.703 18.7028 251.703L20.3486 252.114L21.0978 252.301H21.0901Z" fill="url(#paint15_linear_199_2288)"/>
<g opacity="0.45">
<path d="M21.09 252.301C21.09 252.301 20.0924 261.283 19.0948 262.083C18.0972 262.882 15.1044 271.465 15.1044 271.465C15.1044 271.465 14.3203 279.609 13.5207 282.004C13.0083 283.541 10.1902 289.298 8.53655 292.911C8.53655 292.942 8.53655 292.97 8.53655 293.001C7.53894 290.058 8.84709 284.884 9.64672 284.038C10.6599 282.966 13.9438 275.083 14.2427 274.365C14.5416 273.65 14.2427 273.231 14.1224 272.214C14.002 271.197 16.0904 267.851 16.2146 267.315C16.3349 266.78 15.7372 265.165 15.6789 264.268C15.6168 263.371 18.1283 262.059 18.664 261.283C19.1997 260.507 19.2618 259.432 19.4985 258.24C19.6965 257.254 20.1778 253.423 20.337 252.111L21.0862 252.297L21.09 252.301Z" fill="white"/>
</g>
<g opacity="0.45">
<path d="M12.329 236.557C11.6264 237.492 6.45982 244.161 5.49327 245.415C5.12063 244.871 4.9149 244.204 4.91879 243.548C4.93431 242.216 5.6796 240.982 6.65003 240.07C7.25558 239.495 7.95041 239.025 8.52878 238.428C9.23526 237.698 9.75153 236.813 10.2562 235.932C11.0946 234.476 11.9331 233.024 12.7676 231.569C13.0355 231.103 13.3111 230.621 13.3732 230.09C13.4236 229.62 13.3072 229.143 13.3615 228.673C13.4353 228.063 13.7924 227.532 13.971 226.945C14.5882 224.869 12.8414 222.54 13.2839 220.541L13.6216 220.242C13.6216 220.242 14.658 226.2 14.922 227.497C15.1782 228.793 13.1053 235.528 12.329 236.564V236.557Z" fill="white"/>
</g>
<g opacity="0.45">
<path d="M5.23705 237.88C5.22541 237.935 5.21765 237.989 5.206 238.043C5.13613 238.381 4.89546 238.816 4.56939 238.692C4.38307 238.622 4.3132 238.4 4.26662 238.206C3.95608 236.894 3.64944 235.586 3.34278 234.278C3.08659 233.191 2.8265 232.093 2.82262 230.975C2.81486 229.705 3.13316 228.459 3.15645 227.194C3.21468 223.863 1.25441 220.521 1.63094 217.342L2.75275 217.132L5.20212 237.931C5.20212 237.931 5.21765 237.911 5.24094 237.88H5.23705Z" fill="white"/>
</g>
<g opacity="0.45">
<path d="M9.37498 274.578C9.36333 274.733 9.3478 274.889 9.32451 275.048C9.23911 275.673 9.02174 276.364 8.45501 276.635C7.78735 276.958 6.96055 276.492 6.61508 275.832C6.27348 275.176 6.28124 274.396 6.29289 273.658C6.33558 270.425 6.21525 267.191 6.0988 263.962C6.04057 262.366 5.98235 260.771 5.8232 259.183C5.69122 257.894 4.79843 255.565 5.13614 254.339C5.30694 253.718 5.58253 253.384 5.94353 253.256C6.44039 259.3 7.10805 266.927 7.41471 268.15C7.62044 268.984 7.83006 272.035 8.0125 275.533L9.37886 274.578H9.37498Z" fill="white"/>
</g>
<g opacity="0.45">
<path d="M9.73987 344.026L-0.604922 344.158C-0.7796 342.299 -0.306029 340.346 1.03317 339.069C1.94537 338.196 3.18364 337.703 4.0609 336.798C5.37293 335.44 5.66794 333.433 5.89697 331.558C6.36665 327.727 6.83634 323.814 6.04059 320.037C5.36905 316.846 3.81636 313.5 5.05463 310.48C5.85814 308.524 7.73691 307.095 8.25317 305.042C8.80438 302.856 7.66315 300.625 7.43025 298.381C7.24393 296.622 7.6515 294.81 8.54818 293.28C8.83931 306.987 9.74375 344.026 9.74375 344.026H9.73987Z" fill="white"/>
</g>
<path opacity="0.3" d="M-0.329298 265.856C-0.403051 267.544 -0.476799 269.245 -0.251659 270.922C-0.0420463 272.49 0.357771 274.322 -0.736875 275.459C-0.864972 275.591 -1.02025 275.715 -1.20269 275.719C-1.51711 275.727 -1.71895 275.397 -1.85481 275.114C-2.12653 274.551 -2.39825 273.984 -2.66609 273.417L-1.39677 243.544V217.901L-0.142972 217.668C-0.857209 222.004 -0.810633 226.464 -0.0148799 230.788C0.23355 232.12 0.547972 233.443 0.714886 234.787C0.959435 236.774 0.87016 238.781 0.78088 240.776C0.412117 249.137 0.0433507 257.495 -0.325413 265.852L-0.329298 265.856Z" fill="url(#paint16_linear_199_2288)"/>
<path d="M44.2561 246.412C42.7694 247.647 40.914 248.578 38.8683 249.281C29.7501 252.41 16.9405 250.911 16.9405 250.911C4.15017 250.911 11.9291 241.059 11.9291 241.059C11.9291 241.059 11.0402 240.45 10.2173 239.491C9.00233 238.074 7.93097 235.893 10.0853 233.785C10.4347 233.44 10.8733 233.098 11.4051 232.76C17.4567 228.956 37.1642 227.229 43.5613 228.44C49.9584 229.647 42.6957 237.601 42.6957 237.601C42.6957 237.601 45.4168 238.183 46.7637 239.736C47.9593 241.11 48.0719 243.249 44.2523 246.416L44.2561 246.412Z" fill="url(#paint17_linear_199_2288)"/>
<path d="M44.2561 246.412C42.7694 247.647 40.914 248.578 38.8683 249.281C29.7501 252.41 16.9405 250.907 16.9405 250.907C4.15017 250.907 11.9291 241.055 11.9291 241.055C11.9291 241.055 11.0402 240.446 10.2173 239.487C9.00233 238.07 7.93097 235.889 10.0853 233.781C10.0853 233.801 10.0776 233.82 10.0737 233.839C9.79808 235.248 10.3765 236.786 11.506 237.671C13.4158 239.165 16.1331 238.606 18.563 238.676C17.1229 239.685 15.6789 240.695 14.2388 241.704C14.033 241.847 13.8157 242.01 13.7419 242.251C13.6837 242.437 13.7264 242.647 13.8001 242.829C14.2271 243.878 15.5003 244.262 16.6183 244.44C22.2972 245.364 28.1159 244.499 33.7134 243.156C38.0842 242.107 42.389 240.76 46.7637 239.732C47.9593 241.106 48.0719 243.245 44.2523 246.412H44.2561Z" fill="url(#paint18_linear_199_2288)"/>
<path d="M38.8722 249.281C29.7541 252.409 16.9444 250.911 16.9444 250.911C4.15408 250.911 11.9331 241.059 11.9331 241.059C11.9331 241.059 11.0442 240.45 10.2212 239.491C11.0674 239.844 11.968 240.081 12.7638 240.531C13.0161 240.675 13.28 240.877 13.3072 241.168C13.3421 241.564 12.919 241.828 12.5852 242.045C11.5332 242.744 10.8811 244.009 10.9238 245.271C10.9626 246.533 11.6963 247.755 12.7909 248.384C13.3305 248.691 13.9399 248.862 14.5493 248.99C21.5947 250.469 28.869 246.734 35.9881 247.771C37.1022 247.93 38.3365 248.326 38.8683 249.285L38.8722 249.281Z" fill="url(#paint19_linear_199_2288)"/>
<path d="M42.948 213.81C42.948 213.81 43.507 214.062 43.9767 214.532C44.753 215.304 45.2809 216.659 42.6142 218.406C42.3541 218.576 42.063 218.751 41.7369 218.93C36.0812 222.027 25.5889 220.568 25.5889 220.568C17.9109 221.779 13.4508 220.548 14.3902 217.583C15.3334 214.621 18.5669 212.599 18.5669 212.599C18.5669 212.599 17.5344 211.407 19.1026 209.369C21.5325 206.209 24.5991 203.278 31.0699 203.139C31.493 203.131 31.8812 203.139 32.2345 203.154C32.8633 203.181 33.3912 203.251 33.8298 203.352C36.9197 204.039 35.6737 206.132 35.6737 206.132C35.6737 206.132 46.9889 203.034 49.2791 207.211C51.5693 211.387 42.948 213.81 42.948 213.81Z" fill="url(#paint20_linear_199_2288)"/>
<path d="M41.9582 218.406C41.6981 218.576 41.407 218.751 41.0809 218.93C35.4252 222.027 24.9329 220.568 24.9329 220.568C17.2549 221.779 12.7948 220.548 13.7342 217.583C14.6774 214.621 17.9109 212.599 17.9109 212.599C17.9109 212.599 16.8783 211.407 18.4466 209.369C20.8765 206.209 23.9431 203.278 30.4139 203.139C30.837 203.131 31.2252 203.139 31.5784 203.154C32.2073 203.181 32.7352 203.251 33.1738 203.352C32.3936 204.16 31.6716 205.033 31.33 206.089C30.903 207.401 31.264 209.078 32.4906 209.703C30.6274 210.794 28.8457 212.016 27.1649 213.375C26.571 213.852 25.9499 214.423 25.8839 215.18C25.8141 215.968 26.408 216.686 27.1261 217.016C27.8442 217.342 28.6594 217.354 29.4474 217.334C33.4456 217.233 37.4321 216.5 41.209 215.172C41.8999 214.928 42.5986 214.664 43.3168 214.536C44.0931 215.308 44.621 216.663 41.9543 218.409L41.9582 218.406Z" fill="url(#paint21_linear_199_2288)"/>
<path d="M41.9582 218.406C41.6981 218.576 41.407 218.751 41.0809 218.93C35.4252 222.027 24.9329 220.568 24.9329 220.568C17.2549 221.779 12.7948 220.548 13.7342 217.583C14.6774 214.621 17.9109 212.599 17.9109 212.599C17.9109 212.599 16.8783 211.407 18.4466 209.369C20.8765 206.209 23.9431 203.278 30.4139 203.139C30.837 203.131 31.2252 203.139 31.5784 203.154L31.2019 203.181C29.2145 204.004 27.7045 205.883 27.3241 207.999C27.1766 208.825 27.1804 209.703 26.7806 210.444C26.2566 211.43 25.1619 211.931 24.2226 212.533C22.9105 213.375 21.8004 214.524 21.0085 215.867C20.6281 216.515 20.3176 217.311 20.6242 217.998C20.9891 218.813 22.0488 219.054 22.9338 218.949C23.8189 218.844 24.6845 218.503 25.5734 218.58C26.5788 218.662 27.4716 219.263 28.4498 219.5C30.4062 219.974 32.4091 218.953 34.4199 218.937C35.7358 218.926 37.0323 219.341 38.3443 219.248C39.5748 219.159 40.7471 218.631 41.9543 218.409L41.9582 218.406Z" fill="url(#paint22_linear_199_2288)"/>
<path d="M20.2749 212.047C17.5228 215.277 9.60792 215.335 9.60792 215.335C9.60792 215.335 9.02955 217.311 6.03675 219.104C3.04394 220.902 -3.05426 219.582 -3.05426 219.582C-14.9013 218.386 -7.00198 210.852 -7.00198 210.852C-7.00198 210.852 -11.9046 209.416 -10.7129 207.382C-10.6081 207.203 -10.4994 207.036 -10.383 206.877C-9.16021 205.169 -7.36297 204.272 -7.36297 204.272C-7.36297 204.272 -7.85206 203.997 -8.18201 203.461C-8.50419 202.941 -8.675 202.168 -8.08109 201.159C-6.88552 199.125 -0.542788 194.941 4.36371 194.459C9.26633 193.982 9.39055 199.366 9.39055 199.366C9.39055 199.366 17.4917 198.015 20.7912 199.991C21.1677 200.216 21.4821 200.484 21.7111 200.798C23.9858 203.907 18.0002 207.261 18.0002 207.261C18.0002 207.261 19.3394 207.673 20.2594 208.523C21.1172 209.315 21.6063 210.483 20.2749 212.047Z" fill="url(#paint23_linear_199_2288)"/>
<path d="M19.3898 212.385C16.6377 215.615 8.72287 215.673 8.72287 215.673C8.72287 215.673 8.14449 217.649 5.15168 219.442C2.15887 221.239 -3.93931 219.92 -3.93931 219.92C-15.7863 218.724 -7.88703 211.19 -7.88703 211.19C-7.88703 211.19 -12.7896 209.753 -11.598 207.719C-11.4932 207.541 -11.3845 207.374 -11.268 207.215C-10.0453 205.507 -8.24803 204.61 -8.24803 204.61C-8.24803 204.61 -8.73712 204.334 -9.06707 203.799C-7.84821 204.61 -6.28387 204.82 -4.80106 204.944C-5.64339 205.231 -6.49737 205.53 -7.19996 206.07C-7.90643 206.613 -8.43823 207.452 -8.38001 208.337C-8.32178 209.253 -7.62695 210.037 -6.79238 210.417C-5.95393 210.798 -5.00291 210.821 -4.09071 210.712C-4.23821 212.222 -3.26778 213.705 -1.91694 214.392C-0.56998 215.079 1.072 215.036 2.49271 214.509C3.94447 213.969 5.20991 212.94 6.03284 211.628C8.54431 212.284 11.2072 212.358 13.7536 211.842C14.5532 211.683 15.3684 211.45 15.9778 210.914C16.5911 210.378 16.9405 209.466 16.6105 208.725C16.2534 207.929 15.3101 207.615 14.4678 207.386C16.3815 206.893 18.1166 205.744 19.32 204.171C20.1584 203.069 20.6436 201.369 19.9061 200.329C20.2826 200.554 20.5971 200.822 20.8261 201.136C23.1008 204.245 17.1152 207.599 17.1152 207.599C17.1152 207.599 18.4543 208.01 19.3743 208.861C20.2322 209.652 20.7213 210.821 19.3898 212.385Z" fill="url(#paint24_linear_199_2288)"/>
<path d="M46.9074 212.703C44.1553 215.933 36.2404 215.991 36.2404 215.991C36.2404 215.991 35.6621 217.967 32.6693 219.76C29.6764 221.558 23.5783 220.238 23.5783 220.238C11.7312 219.042 19.6305 211.508 19.6305 211.508C19.6305 211.508 14.7279 210.072 15.9196 208.038C16.0244 207.859 16.1331 207.692 16.2496 207.533C16.4825 207.731 16.696 207.964 16.8784 208.201C17.4102 208.884 17.8605 209.672 18.6019 210.118C19.0405 210.378 19.5451 210.502 19.9993 210.735C20.4573 210.968 20.8805 211.368 20.9154 211.877C20.9348 212.148 20.8416 212.412 20.7562 212.668C20.5466 213.301 20.3991 214.015 20.698 214.609C21.0008 215.207 21.9441 215.463 22.3322 214.924C24.0906 216.76 26.6681 217.777 29.2068 217.629C31.7454 217.482 34.1948 216.177 35.7281 214.155C37.4942 214.186 39.2759 214.217 41.0111 213.891C42.7501 213.565 44.4619 212.855 45.7002 211.593C46.3407 210.945 46.8414 210.06 46.8919 209.183C47.7498 209.975 48.2388 211.143 46.9074 212.707V212.703Z" fill="url(#paint25_linear_199_2288)"/>
<path d="M29.4862 217.253C29.4202 217.513 29.3232 217.757 29.1912 217.986C27.7355 220.513 22.4331 221.127 18.4582 221.849C14.1223 222.637 10.8423 223.817 7.95427 220.929C5.06627 218.041 7.43025 216.729 7.43025 216.729C7.43025 216.729 2.83428 216.861 3.49029 214.365C3.59509 213.957 3.92505 213.596 4.39474 213.278C5.01581 212.855 5.89308 212.502 6.85186 212.218C9.61953 211.384 13.0781 211.081 13.0781 211.081C13.0781 211.081 23.846 207.801 26.734 209.637C29.6221 211.477 25.29 213.705 25.29 213.705C25.29 213.705 27.4444 213.876 28.6982 214.889C29.3542 215.417 29.7618 216.174 29.4901 217.253H29.4862Z" fill="url(#paint26_linear_199_2288)"/>
<path d="M34.3228 215.875L33.826 215.584C34.0162 215.642 34.1831 215.743 34.3228 215.875Z" fill="url(#paint27_linear_199_2288)"/>
<path d="M29.9248 218.996C29.8589 219.256 29.7618 219.5 29.6298 219.729C28.1742 222.256 22.8718 222.87 18.8969 223.592C14.561 224.38 11.2809 225.56 8.39293 222.672C5.50493 219.784 7.86889 218.472 7.86889 218.472C7.86889 218.472 3.27294 218.604 3.92895 216.108C4.03375 215.7 4.36371 215.339 4.8334 215.021C5.45447 214.598 6.33174 214.244 7.29052 213.961C7.3371 214.322 7.3798 214.687 7.51954 215.017C8.02028 216.181 9.53416 216.438 10.7996 216.523C10.0465 217.245 9.96502 218.503 10.4891 219.399C11.0131 220.296 12.0418 220.832 13.0821 220.905C14.1224 220.983 15.1549 220.645 16.0555 220.117C16.203 220.036 16.3505 219.939 16.5135 219.916C16.7115 219.885 16.9133 219.947 17.1074 220.009C20.3176 221.002 23.9082 220.719 26.9243 219.229C27.7705 218.813 28.6167 218.254 28.9894 217.389C29.0903 217.156 29.1407 216.892 29.1407 216.632C29.7968 217.16 30.2043 217.917 29.9326 218.996H29.9248Z" fill="url(#paint28_linear_199_2288)"/>
<path d="M29.6298 219.729C28.1742 222.256 22.8718 222.87 18.8969 223.592C14.561 224.38 11.2809 225.56 8.39293 222.672C5.50493 219.784 7.86889 218.472 7.86889 218.472C7.86889 218.472 3.27294 218.604 3.92895 216.108C4.03375 215.7 4.36371 215.339 4.8334 215.021C4.88386 215.886 5.38071 216.76 6.09883 217.276C7.18183 218.056 8.61031 218.188 9.94562 218.083C9.0994 218.549 8.31529 219.283 8.14838 220.23C7.91936 221.507 8.90921 222.761 10.1125 223.246C11.3159 223.735 12.6667 223.638 13.9554 223.479C17.3675 223.056 20.7252 222.26 24.0751 221.464C25.9694 221.014 27.8831 220.556 29.6337 219.729H29.6298Z" fill="url(#paint29_linear_199_2288)"/>
<path d="M16.1874 341.922C16.1874 341.922 14.5649 324.198 19.4054 315.569C22.3438 310.329 27.786 308.489 31.6056 307.852" stroke="url(#paint30_linear_199_2288)" stroke-width="0.74" stroke-miterlimit="10"/>
<path d="M29.4901 310.635C27.5104 311.555 22.895 314.253 20.6669 317.122C18.5553 319.843 16.5251 317.351 17.4994 315.053C17.5538 314.929 17.6159 314.801 17.6858 314.676C18.8231 312.728 24.6263 307.324 28.2246 307.297C29.0281 307.289 29.7191 307.549 30.2276 308.174C30.2276 308.174 31.4698 309.723 29.4901 310.639V310.635Z" fill="url(#paint31_linear_199_2288)"/>
<g opacity="0.28">
<path d="M29.4901 310.635C27.5104 311.555 22.895 314.253 20.6669 317.122C18.5553 319.843 16.5251 317.351 17.4994 315.053C18.4854 315.328 19.8052 315.305 21.5636 314.684C25.6122 313.252 27.4599 309.533 28.2285 307.297C29.032 307.289 29.723 307.549 30.2315 308.174C30.2315 308.174 31.4736 309.723 29.494 310.639L29.4901 310.635Z" fill="#82007E"/>
</g>
<path d="M40.7432 317.762C40.685 318.015 36.9081 334.112 38.7596 339.706C38.7596 339.706 45.2615 329.551 40.7432 317.766V317.762Z" fill="url(#paint32_linear_199_2288)"/>
<g opacity="0.28">
<path d="M40.7354 317.766C40.6772 318.015 36.9042 334.104 38.7558 339.694C38.7558 339.694 41.5972 329.45 40.7354 317.766Z" fill="#82007E"/>
</g>
<path d="M54.3681 324.842C54.1546 325.002 40.6384 334.904 37.9988 340.746C37.9988 340.746 49.2131 337.625 54.3719 324.842H54.3681Z" fill="url(#paint33_linear_199_2288)"/>
<g opacity="0.28">
<path d="M54.3642 324.842C54.1507 324.998 40.6345 334.9 37.995 340.742C37.995 340.742 46.8919 334.768 54.3642 324.842Z" fill="#82007E"/>
</g>
<path d="M50.2107 314.055C50.0399 314.358 39.0508 333.444 39.0275 341.53C39.0275 341.53 50.8978 331.383 50.2146 314.055H50.2107Z" fill="url(#paint34_linear_199_2288)"/>
<g opacity="0.28">
<path d="M50.0399 314.059C49.873 314.354 39.0314 333.375 39.0081 341.433C39.0081 341.433 46.4299 329.524 50.0399 314.059Z" fill="#82007E"/>
</g>
<path d="M52.1555 327.971C52.0235 328.115 43.6467 337.326 42.6025 341.879C42.6025 341.879 50.3233 337.831 52.1593 327.971H52.1555Z" fill="url(#paint35_linear_199_2288)"/>
<g opacity="0.28">
<path d="M52.1089 327.971C51.9769 328.115 43.639 337.311 42.5986 341.856C42.5986 341.856 48.1689 336.189 52.1089 327.971Z" fill="#82007E"/>
</g>
<path d="M58.0751 338.161C57.8849 338.176 45.5333 339.143 41.5429 342.07C41.5429 342.07 49.7255 344.833 58.0751 338.161Z" fill="url(#paint36_linear_199_2288)"/>
<g opacity="0.28">
<path d="M58.0712 338.161C57.881 338.176 45.5294 339.147 41.5389 342.07C41.5389 342.07 49.446 341.813 58.0712 338.161Z" fill="#82007E"/>
</g>
<path d="M59.7481 329.244C59.523 329.376 45.1102 337.687 41.8573 343.23C41.8573 343.23 53.2385 341.456 59.7481 329.244Z" fill="url(#paint37_linear_199_2288)"/>
<g opacity="0.28">
<path d="M59.7481 329.248C59.523 329.376 45.1102 337.687 41.8573 343.234C41.8573 343.234 51.2821 338.316 59.7481 329.248Z" fill="#82007E"/>
</g>
<path d="M37.9911 342.695H9.06448C9.06448 342.695 9.36337 333.561 10.9549 326.419C11.4634 324.148 12.1 322.079 12.8957 320.561C16.2069 314.288 17.9497 329.625 17.9497 329.625C17.9497 329.625 20.9115 321.26 24.2226 319.866C27.5337 318.473 28.4032 329.8 28.4032 329.8C28.4032 329.8 31.8929 322.133 36.0735 322.308C40.2541 322.479 37.9872 342.695 37.9872 342.695H37.9911Z" fill="url(#paint38_linear_199_2288)"/>
<g opacity="0.46">
<path d="M37.5835 342.694H9.06448C9.06448 342.694 9.36337 333.561 10.9549 326.418C11.3314 325.145 11.7623 323.996 12.2553 323.065C15.5625 316.792 17.3054 332.128 17.3054 332.128C17.3054 332.128 20.2671 323.763 23.5821 322.37C26.8894 320.976 27.7627 332.303 27.7627 332.303C27.7627 332.303 31.2485 324.637 35.4291 324.811C38.6937 324.947 38.0338 337.283 37.5835 342.702V342.694Z" fill="#4194F2"/>
</g>
</g>
<defs>
<linearGradient id="paint0_linear_199_2288" x1="145.5" y1="0" x2="145.5" y2="342" gradientUnits="userSpaceOnUse">
<stop stop-color="#42ADFF"/>
<stop offset="0.328125" stop-color="#A6A9ED"/>
<stop offset="0.682292" stop-color="#FFA6DD"/>
</linearGradient>
<linearGradient id="paint1_linear_199_2288" x1="99.4953" y1="254.632" x2="98.7991" y2="289.976" gradientUnits="userSpaceOnUse">
<stop stop-color="#931A6E"/>
<stop offset="1" stop-color="#700D56"/>
</linearGradient>
<linearGradient id="paint2_linear_199_2288" x1="111.778" y1="266.556" x2="108.051" y2="265.817" gradientUnits="userSpaceOnUse">
<stop stop-color="#A43113"/>
<stop offset="1" stop-color="#6F160D"/>
</linearGradient>
<linearGradient id="paint3_linear_199_2288" x1="115.057" y1="263.865" x2="111.942" y2="263.768" gradientUnits="userSpaceOnUse">
<stop stop-color="#A43113"/>
<stop offset="1" stop-color="#6F160D"/>
</linearGradient>
<radialGradient id="paint4_radial_199_2288" cx="0" cy="0" r="1" gradientUnits="userSpaceOnUse" gradientTransform="translate(47.8127 404.21) rotate(-3.27) scale(214.039 154.115)">
<stop stop-color="#FFD8A6"/>
<stop offset="1" stop-color="#222221" stop-opacity="0"/>
</radialGradient>
<linearGradient id="paint5_linear_199_2288" x1="-25.2422" y1="307.386" x2="78.6017" y2="307.386" gradientUnits="userSpaceOnUse">
<stop stop-color="#90C9FD"/>
<stop offset="0.27" stop-color="#8AC3FD"/>
<stop offset="0.62" stop-color="#79B5FD"/>
<stop offset="1" stop-color="#5F9EFD"/>
</linearGradient>
<linearGradient id="paint6_linear_199_2288" x1="184.472" y1="293.695" x2="408.777" y2="293.695" gradientUnits="userSpaceOnUse">
<stop stop-color="#90C9FD"/>
<stop offset="0.27" stop-color="#8AC3FD"/>
<stop offset="0.62" stop-color="#79B5FD"/>
<stop offset="1" stop-color="#5F9EFD"/>
</linearGradient>
<linearGradient id="paint7_linear_199_2288" x1="-22.8317" y1="304.413" x2="169.442" y2="304.413" gradientUnits="userSpaceOnUse">
<stop stop-color="#90C9FD"/>
<stop offset="0.27" stop-color="#8AC3FD"/>
<stop offset="0.62" stop-color="#79B5FD"/>
<stop offset="1" stop-color="#5F9EFD"/>
</linearGradient>
<linearGradient id="paint8_linear_199_2288" x1="143.43" y1="346.553" x2="143.43" y2="299.576" gradientUnits="userSpaceOnUse">
<stop stop-color="#74BCFD"/>
<stop offset="0.19" stop-color="#79BEFD"/>
<stop offset="0.43" stop-color="#8AC6FD"/>
<stop offset="0.71" stop-color="#A5D3FD"/>
<stop offset="1" stop-color="#CAE4FD"/>
</linearGradient>
<linearGradient id="paint9_linear_199_2288" x1="138.638" y1="295.216" x2="154.427" y2="337.985" gradientUnits="userSpaceOnUse">
<stop stop-color="#DCED00"/>
<stop offset="1" stop-color="#9CA000"/>
</linearGradient>
<linearGradient id="paint10_linear_199_2288" x1="135.826" y1="312.054" x2="141.536" y2="310.554" gradientUnits="userSpaceOnUse">
<stop stop-color="#A43113"/>
<stop offset="1" stop-color="#6F160D"/>
</linearGradient>
<linearGradient id="paint11_linear_199_2288" x1="152.126" y1="307.426" x2="146.365" y2="308.716" gradientUnits="userSpaceOnUse">
<stop stop-color="#A43113"/>
<stop offset="1" stop-color="#6F160D"/>
</linearGradient>
<linearGradient id="paint12_linear_199_2288" x1="240.811" y1="289.305" x2="356.945" y2="331.449" gradientUnits="userSpaceOnUse">
<stop stop-color="#478CEC"/>
<stop offset="1" stop-color="#8AC8F9"/>
</linearGradient>
<linearGradient id="paint13_linear_199_2288" x1="53.0289" y1="296.343" x2="53.0289" y2="336.037" gradientUnits="userSpaceOnUse">
<stop stop-color="#D1FAFF"/>
<stop offset="1" stop-color="#4194F2"/>
</linearGradient>
<linearGradient id="paint14_linear_199_2288" x1="40.7975" y1="317.277" x2="14.0952" y2="356.339" gradientUnits="userSpaceOnUse">
<stop stop-color="#FFA6DD" stop-opacity="0.5"/>
<stop offset="0.21" stop-color="#F2AFDD" stop-opacity="0.63"/>
<stop offset="0.57" stop-color="#DFBDDE" stop-opacity="0.83"/>
<stop offset="0.84" stop-color="#D3C6DF" stop-opacity="0.95"/>
<stop offset="1" stop-color="#CFCAE0"/>
</linearGradient>
<linearGradient id="paint15_linear_199_2288" x1="-4.52544" y1="217.132" x2="-4.52544" y2="344.286" gradientUnits="userSpaceOnUse">
<stop stop-color="#6E0782"/>
<stop offset="1" stop-color="#08204D"/>
</linearGradient>
<linearGradient id="paint16_linear_199_2288" x1="-2.66997" y1="246.696" x2="0.870157" y2="246.696" gradientUnits="userSpaceOnUse">
<stop stop-color="#6E0782"/>
<stop offset="1" stop-color="#08204D"/>
</linearGradient>
<linearGradient id="paint17_linear_199_2288" x1="33.4766" y1="228.906" x2="16.56" y2="261.155" gradientUnits="userSpaceOnUse">
<stop stop-color="#FFA6DD"/>
<stop offset="0.12" stop-color="#FAA2DC"/>
<stop offset="0.26" stop-color="#EB97D9"/>
<stop offset="0.41" stop-color="#D485D5"/>
<stop offset="0.56" stop-color="#B36BD0"/>
<stop offset="0.72" stop-color="#894AC9"/>
<stop offset="0.89" stop-color="#5623C0"/>
<stop offset="1" stop-color="#2E04BA"/>
</linearGradient>
<linearGradient id="paint18_linear_199_2288" x1="29.5017" y1="235.361" x2="23.5083" y2="251.816" gradientUnits="userSpaceOnUse">
<stop stop-color="#FFA6DD" stop-opacity="0.5"/>
<stop offset="0.21" stop-color="#F2AFDD" stop-opacity="0.63"/>
<stop offset="0.57" stop-color="#DFBDDE" stop-opacity="0.83"/>
<stop offset="0.84" stop-color="#D3C6DF" stop-opacity="0.95"/>
<stop offset="1" stop-color="#CFCAE0"/>
</linearGradient>
<linearGradient id="paint19_linear_199_2288" x1="27.8559" y1="240.636" x2="18.1516" y2="251.618" gradientUnits="userSpaceOnUse">
<stop stop-color="#FFA6DD" stop-opacity="0.5"/>
<stop offset="0.21" stop-color="#F2AFDD" stop-opacity="0.63"/>
<stop offset="0.57" stop-color="#DFBDDE" stop-opacity="0.83"/>
<stop offset="0.84" stop-color="#D3C6DF" stop-opacity="0.95"/>
<stop offset="1" stop-color="#CFCAE0"/>
</linearGradient>
<linearGradient id="paint20_linear_199_2288" x1="39.862" y1="203.189" x2="18.0273" y2="229.752" gradientUnits="userSpaceOnUse">
<stop stop-color="#FFA6DD"/>
<stop offset="0.12" stop-color="#FAA2DC"/>
<stop offset="0.26" stop-color="#EB97D9"/>
<stop offset="0.41" stop-color="#D485D5"/>
<stop offset="0.56" stop-color="#B36BD0"/>
<stop offset="0.72" stop-color="#894AC9"/>
<stop offset="0.89" stop-color="#5623C0"/>
<stop offset="1" stop-color="#2E04BA"/>
</linearGradient>
<linearGradient id="paint21_linear_199_2288" x1="34.0977" y1="210.433" x2="20.5349" y2="221.041" gradientUnits="userSpaceOnUse">
<stop stop-color="#FFA6DD" stop-opacity="0.5"/>
<stop offset="0.21" stop-color="#F2AFDD" stop-opacity="0.63"/>
<stop offset="0.57" stop-color="#DFBDDE" stop-opacity="0.83"/>
<stop offset="0.84" stop-color="#D3C6DF" stop-opacity="0.95"/>
<stop offset="1" stop-color="#CFCAE0"/>
</linearGradient>
<linearGradient id="paint22_linear_199_2288" x1="13.6099" y1="212.082" x2="41.9582" y2="212.082" gradientUnits="userSpaceOnUse">
<stop stop-color="#FFA6DD" stop-opacity="0.5"/>
<stop offset="0.21" stop-color="#F2AFDD" stop-opacity="0.63"/>
<stop offset="0.57" stop-color="#DFBDDE" stop-opacity="0.83"/>
<stop offset="0.84" stop-color="#D3C6DF" stop-opacity="0.95"/>
<stop offset="1" stop-color="#CFCAE0"/>
</linearGradient>
<linearGradient id="paint23_linear_199_2288" x1="9.89129" y1="199.482" x2="-4.75834" y2="227.407" gradientUnits="userSpaceOnUse">
<stop stop-color="#FFA6DD"/>
<stop offset="0.12" stop-color="#FAA2DC"/>
<stop offset="0.26" stop-color="#EB97D9"/>
<stop offset="0.41" stop-color="#D485D5"/>
<stop offset="0.56" stop-color="#B36BD0"/>
<stop offset="0.72" stop-color="#894AC9"/>
<stop offset="0.89" stop-color="#5623C0"/>
<stop offset="1" stop-color="#2E04BA"/>
</linearGradient>
<linearGradient id="paint24_linear_199_2288" x1="9.65448" y1="202.378" x2="-0.85723" y2="215.766" gradientUnits="userSpaceOnUse">
<stop stop-color="#FFA6DD" stop-opacity="0.5"/>
<stop offset="0.21" stop-color="#F2AFDD" stop-opacity="0.63"/>
<stop offset="0.57" stop-color="#DFBDDE" stop-opacity="0.83"/>
<stop offset="0.84" stop-color="#D3C6DF" stop-opacity="0.95"/>
<stop offset="1" stop-color="#CFCAE0"/>
</linearGradient>
<linearGradient id="paint25_linear_199_2288" x1="34.1909" y1="206.275" x2="26.5866" y2="217.528" gradientUnits="userSpaceOnUse">
<stop stop-color="#FFA6DD" stop-opacity="0.5"/>
<stop offset="0.21" stop-color="#F2AFDD" stop-opacity="0.63"/>
<stop offset="0.57" stop-color="#DFBDDE" stop-opacity="0.83"/>
<stop offset="0.84" stop-color="#D3C6DF" stop-opacity="0.95"/>
<stop offset="1" stop-color="#CFCAE0"/>
</linearGradient>
<linearGradient id="paint26_linear_199_2288" x1="19.8789" y1="209.396" x2="10.4386" y2="227.396" gradientUnits="userSpaceOnUse">
<stop stop-color="#FFA6DD"/>
<stop offset="0.12" stop-color="#FAA2DC"/>
<stop offset="0.26" stop-color="#EB97D9"/>
<stop offset="0.41" stop-color="#D485D5"/>
<stop offset="0.56" stop-color="#B36BD0"/>
<stop offset="0.72" stop-color="#894AC9"/>
<stop offset="0.89" stop-color="#5623C0"/>
<stop offset="1" stop-color="#2E04BA"/>
</linearGradient>
<linearGradient id="paint27_linear_199_2288" x1="34.1481" y1="215.685" x2="33.9773" y2="215.789" gradientUnits="userSpaceOnUse">
<stop stop-color="#FFA6DD" stop-opacity="0.5"/>
<stop offset="0.21" stop-color="#F2AFDD" stop-opacity="0.63"/>
<stop offset="0.57" stop-color="#DFBDDE" stop-opacity="0.83"/>
<stop offset="0.84" stop-color="#D3C6DF" stop-opacity="0.95"/>
<stop offset="1" stop-color="#CFCAE0"/>
</linearGradient>
<linearGradient id="paint28_linear_199_2288" x1="23.0736" y1="214.027" x2="9.08" y2="222.652" gradientUnits="userSpaceOnUse">
<stop stop-color="#FFA6DD" stop-opacity="0.5"/>
<stop offset="0.21" stop-color="#F2AFDD" stop-opacity="0.63"/>
<stop offset="0.57" stop-color="#DFBDDE" stop-opacity="0.83"/>
<stop offset="0.84" stop-color="#D3C6DF" stop-opacity="0.95"/>
<stop offset="1" stop-color="#CFCAE0"/>
</linearGradient>
<linearGradient id="paint29_linear_199_2288" x1="3.86296" y1="219.768" x2="29.6298" y2="219.768" gradientUnits="userSpaceOnUse">
<stop stop-color="#FFA6DD" stop-opacity="0.5"/>
<stop offset="0.21" stop-color="#F2AFDD" stop-opacity="0.63"/>
<stop offset="0.57" stop-color="#DFBDDE" stop-opacity="0.83"/>
<stop offset="0.84" stop-color="#D3C6DF" stop-opacity="0.95"/>
<stop offset="1" stop-color="#CFCAE0"/>
</linearGradient>
<linearGradient id="paint30_linear_199_2288" x1="18.2176" y1="313.57" x2="29.0942" y2="335.448" gradientUnits="userSpaceOnUse">
<stop stop-color="#6E0782"/>
<stop offset="1" stop-color="#08204D"/>
</linearGradient>
<linearGradient id="paint31_linear_199_2288" x1="30.4062" y1="309.576" x2="17.1967" y2="315.453" gradientUnits="userSpaceOnUse">
<stop stop-color="#FFA6DD"/>
<stop offset="0.12" stop-color="#FAA2DC"/>
<stop offset="0.26" stop-color="#EB97D9"/>
<stop offset="0.41" stop-color="#D485D5"/>
<stop offset="0.56" stop-color="#B36BD0"/>
<stop offset="0.72" stop-color="#894AC9"/>
<stop offset="0.89" stop-color="#5623C0"/>
<stop offset="1" stop-color="#2E04BA"/>
</linearGradient>
<linearGradient id="paint32_linear_199_2288" x1="47.6371" y1="320.146" x2="36.5199" y2="332.253" gradientUnits="userSpaceOnUse">
<stop stop-color="#FFA6DD"/>
<stop offset="0.12" stop-color="#FAA2DC"/>
<stop offset="0.26" stop-color="#EB97D9"/>
<stop offset="0.41" stop-color="#D485D5"/>
<stop offset="0.56" stop-color="#B36BD0"/>
<stop offset="0.72" stop-color="#894AC9"/>
<stop offset="0.89" stop-color="#5623C0"/>
<stop offset="1" stop-color="#2E04BA"/>
</linearGradient>
<linearGradient id="paint33_linear_199_2288" x1="58.8786" y1="326.861" x2="37.7815" y2="336.884" gradientUnits="userSpaceOnUse">
<stop stop-color="#FFA6DD"/>
<stop offset="0.12" stop-color="#FAA2DC"/>
<stop offset="0.26" stop-color="#EB97D9"/>
<stop offset="0.41" stop-color="#D485D5"/>
<stop offset="0.56" stop-color="#B36BD0"/>
<stop offset="0.72" stop-color="#894AC9"/>
<stop offset="0.89" stop-color="#5623C0"/>
<stop offset="1" stop-color="#2E04BA"/>
</linearGradient>
<linearGradient id="paint34_linear_199_2288" x1="49.3141" y1="315.635" x2="39.8893" y2="344.818" gradientUnits="userSpaceOnUse">
<stop stop-color="#FFA6DD"/>
<stop offset="0.12" stop-color="#FAA2DC"/>
<stop offset="0.26" stop-color="#EB97D9"/>
<stop offset="0.41" stop-color="#D485D5"/>
<stop offset="0.56" stop-color="#B36BD0"/>
<stop offset="0.72" stop-color="#894AC9"/>
<stop offset="0.89" stop-color="#5623C0"/>
<stop offset="1" stop-color="#2E04BA"/>
</linearGradient>
<linearGradient id="paint35_linear_199_2288" x1="55.4471" y1="333.076" x2="44.0776" y2="335.684" gradientUnits="userSpaceOnUse">
<stop stop-color="#FFA6DD"/>
<stop offset="0.12" stop-color="#FAA2DC"/>
<stop offset="0.26" stop-color="#EB97D9"/>
<stop offset="0.41" stop-color="#D485D5"/>
<stop offset="0.56" stop-color="#B36BD0"/>
<stop offset="0.72" stop-color="#894AC9"/>
<stop offset="0.89" stop-color="#5623C0"/>
<stop offset="1" stop-color="#2E04BA"/>
</linearGradient>
<linearGradient id="paint36_linear_199_2288" x1="60.0548" y1="341.448" x2="42.9597" y2="339.368" gradientUnits="userSpaceOnUse">
<stop stop-color="#FFA6DD"/>
<stop offset="0.12" stop-color="#FAA2DC"/>
<stop offset="0.26" stop-color="#EB97D9"/>
<stop offset="0.41" stop-color="#D485D5"/>
<stop offset="0.56" stop-color="#B36BD0"/>
<stop offset="0.72" stop-color="#894AC9"/>
<stop offset="0.89" stop-color="#5623C0"/>
<stop offset="1" stop-color="#2E04BA"/>
</linearGradient>
<linearGradient id="paint37_linear_199_2288" x1="59.2746" y1="330.906" x2="40.3512" y2="344.899" gradientUnits="userSpaceOnUse">
<stop stop-color="#FFA6DD"/>
<stop offset="0.12" stop-color="#FAA2DC"/>
<stop offset="0.26" stop-color="#EB97D9"/>
<stop offset="0.41" stop-color="#D485D5"/>
<stop offset="0.56" stop-color="#B36BD0"/>
<stop offset="0.72" stop-color="#894AC9"/>
<stop offset="0.89" stop-color="#5623C0"/>
<stop offset="1" stop-color="#2E04BA"/>
</linearGradient>
<linearGradient id="paint38_linear_199_2288" x1="26.6875" y1="318.725" x2="22.1614" y2="349.919" gradientUnits="userSpaceOnUse">
<stop stop-color="#A6CBFF"/>
<stop offset="0.12" stop-color="#A3C6FD"/>
<stop offset="0.26" stop-color="#9AB7F8"/>
<stop offset="0.42" stop-color="#8CA0F0"/>
<stop offset="0.58" stop-color="#787FE4"/>
<stop offset="0.74" stop-color="#5F55D6"/>
<stop offset="0.91" stop-color="#4022C4"/>
<stop offset="1" stop-color="#2E04BA"/>
</linearGradient>
</defs>
</svg>
