<svg width="291" height="342" viewBox="0 0 291 342" fill="none" xmlns="http://www.w3.org/2000/svg">
<mask id="mask0_199_3569" style="mask-type:alpha" maskUnits="userSpaceOnUse" x="0" y="0" width="291" height="342">
<rect width="291" height="342" rx="5" fill="url(#paint0_linear_199_3569)"/>
</mask>
<g mask="url(#mask0_199_3569)">
<path d="M78.6017 330.211C78.6017 330.211 78.6017 330.211 78.5978 330.211C77.837 329.594 77.0723 328.965 76.292 328.39C75.1392 327.536 73.8504 327.009 72.6277 326.263C70.5743 325.009 68.6528 323.255 66.9759 321.547C65.5591 320.107 64.247 318.577 62.8496 317.122C62.3139 316.563 61.6812 316.155 61.1805 315.554C60.3537 314.556 59.7365 313.43 59.0145 312.359C57.062 309.467 53.6422 307.39 50.89 305.29C49.0307 303.873 47.2839 302.387 45.541 300.826C44.458 299.86 43.375 298.913 42.3541 297.88C41.6515 297.166 40.8519 296.653 40.1183 295.982C38.2511 294.274 36.4461 292.209 34.2064 291.006C33.1816 290.458 32.1763 289.686 31.1825 289.034C30.2354 288.409 29.7696 287.675 29.0476 286.829C28.5197 286.208 27.8326 285.373 27.2076 284.869C26.7418 284.496 26.5283 284.57 25.8607 284.574C25.1697 284.574 24.405 284.422 23.815 284.876C23.3065 285.264 22.8912 286.006 22.5302 286.534C21.191 288.479 20.1313 290.613 18.4582 292.302C17.2549 293.513 15.5547 294.348 14.1418 295.326C11.5721 297.115 10.2367 300.023 8.40845 302.441C7.16242 304.095 5.98238 305.469 3.86296 305.612C3.20695 305.659 2.57034 305.554 1.91821 305.663C-0.414703 306.051 -1.87423 307.406 -3.74522 308.737C-4.94467 309.591 -5.84135 310.414 -6.57112 311.711C-7.25818 312.937 -7.63083 313.962 -8.65948 314.94C-9.6959 315.922 -10.2588 317.13 -11.3612 318.038C-12.087 318.64 -12.6926 319.362 -13.4224 319.952C-15.3632 321.516 -17.6612 322.576 -19.6448 324.089C-20.7472 324.932 -22.1252 325.662 -22.8976 326.857C-23.4488 327.711 -23.5498 328.682 -24.3494 329.384C-24.7376 329.73 -24.5396 330.207 -24.0233 330.207H78.5939C78.5939 330.207 78.5978 330.207 78.5939 330.211H78.6017Z" fill="url(#paint1_linear_199_3569)"/>
<path d="M186.583 318.077C187.546 316.442 188.738 314.971 189.689 313.318C190.527 311.858 191.067 310.138 192.037 308.76C193.803 306.253 198.667 304.739 201.59 305.104C205.798 305.632 210.111 305.612 214.388 305.527C216.612 305.484 219.112 303.912 220.917 302.736C224.046 300.698 226.806 298.039 230.183 296.397C232.31 295.365 234.41 294.685 236.7 294.072C238.494 293.595 240.128 292.799 242.018 292.826C243.455 292.845 244.46 292.515 245.83 292.352C247.197 292.193 248.804 291.335 250.088 290.784C251.4 290.221 252.445 289.495 253.617 288.719C254.832 287.912 256.249 287.042 257.223 285.944C258.694 284.294 259.855 282.147 262.386 282.427C265.111 282.73 267.486 283.459 270.134 284.1C271.562 284.449 273.014 284.686 274.485 284.667C275.646 284.651 277.078 284.899 278.196 284.589C280.692 283.89 282.943 281.612 284.492 279.69C286.045 277.761 287.007 274.396 289.305 273.316C290.885 272.571 292.322 272.893 293.975 273.223C294.453 273.316 295.423 273.522 295.901 273.355C296.58 273.118 296.84 272.175 297.127 271.531C297.589 270.494 297.636 269.474 297.903 268.387C298.156 267.374 298.726 266.554 299.072 265.58C299.526 264.291 299.421 262.917 299.825 261.625C299.984 261.12 300.205 260.751 300.427 260.266C300.57 259.944 300.76 259.125 300.947 258.904C301.723 258.003 303.466 258.36 304.499 258.356C306.063 258.352 307.037 258.461 308.248 259.571C309.51 260.724 309.564 262.723 310.049 264.253C310.449 265.499 310.655 266.683 311.175 267.882C311.73 269.159 312.607 270.149 313.372 271.286C314.61 273.122 315.212 275.218 316.551 276.973C317.277 277.928 317.704 278.906 318.644 279.682C319.509 280.397 320.643 281.022 321.656 281.499C323.329 282.287 325.196 282.361 326.962 282.85C328.891 283.382 330.879 283.708 332.754 284.426C337.998 286.429 341.623 291.638 345.754 295.213C348.343 297.457 350.959 299.631 353.521 301.909C354.856 303.101 356.339 303.982 357.729 305.065C358.979 306.039 360.201 307.181 361.603 307.938C363.38 308.904 365.504 309.595 367.437 310.173C368.376 310.457 369.25 310.375 370.158 310.608C371.117 310.853 372.285 311.377 373.457 311.435C376.054 311.567 378.212 311.334 380.724 312.262C385.064 313.873 388.825 317.063 392.334 320.002C393.821 321.248 395.688 322.405 396.911 323.888C398.001 325.211 399.018 325.751 400.532 326.496C401.58 327.012 402.663 327.575 403.785 327.921C404.593 328.169 405.353 328.115 406.184 328.27C407.089 328.441 407.877 329 408.793 329.093H187.045C186.071 329.093 185.209 328.278 184.984 327.331C184.736 326.306 184.414 325.3 184.483 324.237C184.623 322.086 185.5 319.909 186.583 318.073V318.077Z" fill="url(#paint2_linear_199_3569)"/>
<path d="M-12.5956 332.035V332.028C-10.5072 330.584 -8.39168 329.256 -6.25673 327.886C-4.65358 326.857 -3.03879 325.918 -1.54044 324.734C-0.919365 324.241 -0.271112 323.794 0.295618 323.232C0.784716 322.746 0.982685 322.249 1.3398 321.702C1.86772 320.895 2.56643 320.278 3.41653 319.94C4.53447 319.497 5.57476 318.973 6.61118 318.426C7.55832 317.921 8.4977 317.017 9.28181 316.295C10.2095 315.449 11.1606 314.54 12.1465 313.756C12.9345 313.127 13.5595 312.304 14.3591 311.703C15.3024 310.989 16.4009 310.546 17.348 309.836C18.4737 308.993 19.4869 308.225 20.7329 307.584C21.7771 307.045 22.6039 306.105 23.6558 305.531C24.1449 305.263 24.4516 304.906 25.0338 305.084C25.6122 305.263 26.0625 305.83 26.6059 305.985C26.9553 306.09 27.9995 306.21 28.3372 306.059C28.7914 305.853 29.0786 304.436 29.2727 303.935C29.5017 303.345 29.5871 302.728 29.7734 302.193C29.8938 301.847 30.0063 301.56 30.181 301.23C30.344 300.919 30.4644 300.508 30.6352 300.228C31.1359 299.394 32.3742 298.843 33.1117 298.222C33.628 297.783 33.9657 297.391 34.3073 296.879C34.5635 296.49 35.072 296.118 35.4097 295.807C36.4267 294.864 37.5214 294.08 38.6548 293.296C39.3846 292.791 40.2114 292.496 40.9062 291.953C41.2983 291.646 41.6826 291.316 42.094 291.033C42.6452 290.652 43.1654 290.241 43.7011 289.829C44.6171 289.131 45.4401 288.416 46.2475 287.601C47.2684 286.569 48.5765 286.014 49.6673 285.078C50.2379 284.585 50.8551 284.162 51.3908 283.622C51.8954 283.11 52.3068 282.528 52.8386 282.046C53.9837 280.994 55.2453 279.993 56.1342 278.689C56.4137 278.281 56.5573 277.974 56.93 277.625C57.2754 277.307 57.5821 276.911 57.8849 276.55C58.1954 276.177 58.4438 275.762 58.7505 275.382C59.228 274.784 59.8956 274.392 60.3847 273.806C60.8233 273.274 61.2853 272.843 61.7355 272.338C62.147 271.88 62.3916 271.286 62.7991 270.82C63.133 270.444 63.5988 270.262 63.9598 269.92C64.2276 269.672 64.3829 269.353 64.6274 269.093C65.3106 268.371 66.1607 267.828 67.0186 267.339C67.9968 266.78 68.7421 266.127 69.8717 266.131C71.3855 266.139 72.8023 267.082 74.223 267.575C75.0731 267.87 75.9582 268.22 76.7501 268.651C77.7011 269.167 78.326 269.656 79.0946 270.425C79.6303 270.968 80.2397 271.325 80.7793 271.814C81.3266 272.315 82.2233 272.517 82.8832 272.878C83.4305 273.181 84.0166 273.577 84.5213 273.945C84.8357 274.174 85.0492 274.473 85.4024 274.663C85.9109 274.931 86.2642 275.067 86.6795 275.479C88.9969 277.78 92.1139 278.957 95.0097 280.206C95.4522 280.397 96.0927 280.564 96.4692 280.839C96.935 281.177 97.2688 281.751 97.6609 282.163C98.2431 282.78 98.6313 283.537 99.1476 284.201C99.7454 284.965 100.145 284.892 100.879 284.325C101.189 284.084 101.585 283.665 101.958 283.572C102.237 283.502 102.505 283.587 102.785 283.506C103.053 283.428 103.115 283.265 103.468 283.327C103.782 283.378 104.205 283.626 104.462 283.816C105.269 284.41 105.964 285.361 106.558 286.146C106.961 286.677 107.264 287.295 107.703 287.799C108.13 288.292 108.689 288.789 109.038 289.371C109.756 290.571 110.521 291.782 111.414 292.954C112.241 294.045 113.153 295.042 113.952 296.145C114.465 296.851 115.253 297.321 115.851 297.95C116.379 298.505 116.658 299.25 117.132 299.844C117.951 300.869 118.894 301.987 119.818 302.818C120.198 303.163 120.536 303.574 120.92 303.908C121.339 304.273 121.918 304.432 122.364 304.77C123.525 305.647 124.557 306.497 125.85 307.204C128.094 308.427 130.605 309.486 132.344 311.419C133.089 312.242 133.784 313.124 134.475 313.993C135.236 314.948 135.729 316.031 136.696 316.784C137.324 317.273 137.825 317.937 138.454 318.438C139.149 318.985 139.844 319.524 140.472 320.173C141.295 321.027 142.103 321.904 142.999 322.7C143.558 323.197 144.16 323.647 144.828 323.981C145.853 324.489 146.419 325.234 147.281 325.956C148.007 326.562 148.857 327.024 149.633 327.567C150.615 328.254 151.605 328.942 152.642 329.551C153.787 330.219 154.944 330.7 156.217 331.053C157.133 331.306 157.905 331.698 158.771 332.086C160.809 333.002 162.746 333.895 164.174 335.696C164.535 336.146 164.92 336.635 165.23 337.116C165.843 338.067 166.546 338.89 167.26 339.799C167.8 340.482 168.693 341.511 169.566 342.011C169.632 342.05 169.601 342.186 169.523 342.186H-20.6929C-19.9709 342.186 -21.3683 343.102 -21.7254 342.477C-22.164 341.712 -22.4202 340.889 -22.2417 339.927C-22.0321 338.813 -21.1431 338.32 -20.262 337.761C-18.9927 336.953 -18.0727 335.816 -16.8965 334.9C-15.5379 333.844 -14.0163 333.025 -12.6034 332.047C-12.6034 332.047 -12.5995 332.043 -12.5995 332.039L-12.5956 332.035Z" fill="#5F9EFD"/>
<path d="M-13.1351 332.035C-13.1351 332.035 -13.1351 332.028 -13.1312 332.028C-11.0429 330.584 -8.92734 329.256 -6.79627 327.886C-5.19312 326.857 -3.57443 325.918 -2.07997 324.734C-1.45501 324.241 -0.81065 323.794 -0.243919 323.232C0.245178 322.746 0.443148 322.249 0.800266 321.702C1.33206 320.895 2.02689 320.278 2.87699 319.94C3.99105 319.497 5.03523 318.973 6.07166 318.426C7.0188 317.921 7.95816 317.017 8.74227 316.295C9.67 315.449 10.621 314.54 11.607 313.756C12.395 313.127 13.0199 312.304 13.8196 311.703C14.7628 310.989 15.8614 310.546 16.8124 309.836C17.9381 308.993 18.9512 308.225 20.1972 307.584C21.2414 307.045 22.0682 306.105 23.1202 305.531C23.6093 305.263 23.9159 304.906 24.4982 305.084C25.0766 305.263 25.5269 305.83 26.0703 305.985C26.4196 306.09 27.4638 306.21 27.8015 306.059C28.2557 305.853 28.5429 304.436 28.737 303.935C28.9661 303.345 29.0515 302.728 29.2378 302.193C29.3581 301.847 29.4707 301.56 29.6492 301.23C29.8123 300.919 29.9326 300.508 30.0995 300.228C30.6041 299.394 31.8385 298.843 32.5761 298.222C33.0923 297.783 33.43 297.391 33.7716 296.879C34.0278 296.49 34.5363 296.118 34.8702 295.807C35.8872 294.864 36.9818 294.08 38.1153 293.296C38.845 292.791 39.6718 292.496 40.3667 291.953C40.7587 291.646 41.143 291.316 41.5545 291.033C42.1057 290.652 42.6258 290.241 43.1654 289.829C44.0815 289.131 44.9044 288.416 45.7079 287.601C46.7288 286.569 48.037 286.014 49.1277 285.078C49.6983 284.585 50.3194 284.162 50.8512 283.622C51.3558 283.11 51.7673 282.528 52.2991 282.046C53.4442 280.994 54.7058 279.993 55.5947 278.689C55.8742 278.281 56.0178 277.974 56.3904 277.625C56.7359 277.307 57.0426 276.911 57.3453 276.55C57.6559 276.177 57.9082 275.762 58.211 275.382C58.6884 274.784 59.3561 274.392 59.8452 273.806C60.2838 273.274 60.7457 272.843 61.196 272.338C61.6075 271.88 61.852 271.286 62.2596 270.82C62.5934 270.444 63.0592 270.262 63.4202 269.92C63.6881 269.672 63.8472 269.353 64.0879 269.093C64.7711 268.371 65.6212 267.828 66.4829 267.339C67.4611 266.78 68.2064 266.127 69.336 266.131C70.8499 266.139 72.2667 267.082 73.6874 267.575C74.5375 267.87 75.4225 268.22 76.2144 268.651C77.1654 269.167 77.7904 269.656 78.5589 270.425C79.0946 270.968 79.7041 271.325 80.2436 271.814C80.7909 272.315 81.6876 272.517 82.3475 272.878C82.891 273.181 83.481 273.577 83.9817 273.945C84.2961 274.174 84.5096 274.473 84.8667 274.663C85.3753 274.931 85.7285 275.067 86.1439 275.479C88.4612 277.78 91.5782 278.957 94.474 280.206C94.9165 280.397 95.5531 280.564 95.9335 280.839C96.3994 281.177 96.7332 281.751 97.1214 282.163C97.7036 282.78 98.0918 283.537 98.6081 284.201C99.2058 284.965 99.6057 284.892 100.339 284.325C100.65 284.084 101.046 283.665 101.422 283.572C101.702 283.502 101.966 283.587 102.249 283.506C102.517 283.428 102.579 283.265 102.932 283.327C103.247 283.378 103.67 283.626 103.926 283.816C104.733 284.41 105.428 285.361 106.022 286.146C106.426 286.677 106.729 287.295 107.167 287.799C107.59 288.292 108.153 288.789 108.503 289.371C109.221 290.571 109.985 291.782 110.878 292.954C111.705 294.045 112.617 295.042 113.417 296.145C113.929 296.851 114.717 297.321 115.315 297.95C115.843 298.505 116.122 299.25 116.596 299.844C117.415 300.869 118.358 301.987 119.282 302.818C119.663 303.163 120 303.574 120.385 303.908C120.804 304.273 121.382 304.432 121.829 304.77C122.989 305.647 124.022 306.497 125.314 307.204C127.558 308.427 130.069 309.486 131.808 311.419C132.554 312.242 133.249 313.124 133.94 313.993C134.696 314.948 135.193 316.031 136.16 316.784C136.789 317.273 137.289 317.937 137.918 318.438C138.613 318.985 139.308 319.524 139.937 320.173C140.76 321.027 141.567 321.904 142.464 322.7C143.023 323.197 143.624 323.647 144.292 323.981C145.317 324.489 145.884 325.234 146.745 325.956C147.471 326.562 148.321 327.024 149.098 327.567C150.08 328.254 151.07 328.942 152.106 329.551C153.251 330.219 154.408 330.7 155.681 331.053C156.597 331.306 157.37 331.698 158.235 332.086C160.273 333.002 162.21 333.895 163.639 335.696C164 336.146 164.384 336.635 164.694 337.116C165.308 338.067 166.01 338.89 166.725 339.799C167.264 340.482 168.157 341.511 169.03 342.011C169.096 342.05 169.065 342.186 168.988 342.186H-21.2285C-20.5065 342.186 -21.9001 343.102 -22.2611 342.477C-22.6997 341.712 -22.9559 340.889 -22.7773 339.927C-22.5677 338.813 -21.6788 338.32 -20.7976 337.761C-19.5322 336.953 -18.6084 335.816 -17.4322 334.9C-16.0736 333.844 -14.552 333.025 -13.139 332.047C-13.139 332.047 -13.1351 332.043 -13.1351 332.039V332.035Z" fill="url(#paint3_linear_199_3569)"/>
<path d="M334.636 299.576H-47.7756C-50.4811 299.576 -52.6743 301.769 -52.6743 304.475V341.65C-52.6743 344.356 -50.4811 346.549 -47.7756 346.549H334.636C337.342 346.549 339.535 344.356 339.535 341.65V304.475C339.535 301.769 337.342 299.576 334.636 299.576Z" fill="url(#paint4_linear_199_3569)"/>
<path d="M258.023 307.577C256.975 307.468 255.923 307.402 254.871 307.371C253.353 307.328 252.099 307.072 250.741 307.763C248.295 309.009 245.842 310.802 243.645 312.433C241.968 313.675 240.186 315.794 238.094 316.361C236.72 316.734 234.748 316.481 233.35 316.198C230.098 315.53 226.654 315.173 223.363 315.837C220.397 316.435 217.82 317.564 214.757 317.428C213.53 317.374 212.3 317.328 211.073 317.324C209.299 317.32 208.515 316.71 207.009 315.833C205.484 314.944 203.888 314.537 202.211 314.024C200.818 313.601 199.129 313.209 197.658 313.5C194.964 314.024 191.886 316.582 190.314 318.756C189.134 320.39 188.532 322.89 186.238 323.302C183.688 323.756 180.842 322.576 178.311 323.185C175.618 323.833 172.962 325.103 170.307 325.937C166.523 327.129 162.664 328.06 158.895 329.299C156.034 330.242 153.678 329.411 150.883 328.973C148.492 328.596 145.988 329.132 143.589 328.682C139.172 327.855 134.828 326.178 130.458 325.087C127.034 324.233 123.311 323.531 119.783 323.453C118.843 323.433 117.644 323.181 116.724 323.395C115.707 323.628 114.896 324.54 113.98 325.017C111.852 326.12 109.256 326.131 106.958 326.698C103.076 327.657 98.7012 326.376 94.7341 326.686C86.6912 327.319 78.5357 326.686 70.4423 326.426C67.5776 326.337 64.6663 326.081 61.7977 326.12C60.0975 326.143 58.4594 326.589 56.7631 326.578C53.9838 326.554 51.3558 326.092 48.6891 327.106C47.0238 327.742 45.4828 328.526 43.7477 328.973C42.5055 329.295 41.1663 329.613 40.2153 330.533C38.7674 331.938 38.8839 334.209 38.519 336.049C38.2589 337.357 37.8474 338.619 37.3933 339.869C36.384 342.652 38.1269 345.521 41.0576 345.951L158.806 363.307L245.027 366.07C247.515 366.152 249.669 364.351 250.03 361.886L258.03 307.584C258.03 307.584 258.03 307.577 258.023 307.577Z" fill="#6292F1"/>
<path d="M385.607 268.887C377.219 265.972 358.338 262.564 349.523 266.139C343.242 268.69 341.573 276.43 337.268 280.746C328.81 289.228 320.072 287.648 306.746 287.302C296.044 287.027 297.694 290.734 290.33 295.869C286.468 298.567 280.964 294.918 276.954 296.836C271.287 299.549 269.509 303.101 266.978 305.314C256.09 314.835 240.423 310.08 227.835 318.166C224.011 320.619 221.461 324.528 216.787 325.122C212.905 325.619 206.854 323.961 203.112 325.184C198.341 326.737 194.855 331.438 191.785 336.185C189.394 339.88 192.507 346.029 196.905 346.029H378.853C381.656 346.029 383.888 343.684 383.748 340.886C383.596 337.788 383.441 334.69 383.29 331.597L385.619 268.887H385.607Z" fill="url(#paint5_linear_199_3569)"/>
<g opacity="0.28">
<path d="M-36.8524 154.905C-36.8524 154.905 -12.9915 163.052 2.13947 163.052C17.2704 163.052 17.8527 161.888 21.3462 164.795C24.8398 167.706 25.422 169.453 32.9836 168.871C40.5452 168.289 53.351 170.614 59.1697 172.947C64.9884 175.276 70.8072 171.782 77.7943 172.947C84.7775 174.107 106.313 182.259 128.424 180.508C128.424 180.508 76.0514 178.766 45.7894 175.85C15.5275 172.939 -25.7895 162.462 -36.8447 154.901H-36.8486L-36.8524 154.905Z" fill="white"/>
</g>
<g opacity="0.28">
<path d="M150.569 145.41C150.569 145.41 171.891 149.971 184.891 148.465C197.891 146.959 198.275 145.918 201.567 148.042C204.859 150.165 205.538 151.597 211.978 150.351C218.421 149.105 229.659 149.816 234.892 151.213C240.128 152.618 244.778 149.07 250.896 149.361C257.013 149.653 276.337 154.447 295.167 150.767C295.167 150.767 249.984 154.485 223.685 155.017C197.386 155.549 160.828 150.747 150.569 145.418H150.561L150.569 145.41Z" fill="white"/>
</g>
<g opacity="0.28">
<path d="M-138.181 106.911C-138.181 106.911 31.9821 146.012 185.784 154.978C339.582 163.937 438.577 119.946 438.577 119.946L440.211 126.467C440.211 126.467 312.588 176.165 105.611 159.865C-101.371 143.574 -139 128.093 -139 128.093L-138.181 106.911Z" fill="white"/>
</g>
<path opacity="0.2" d="M-16.8926 -16C-16.8926 -16 95.5143 92.5951 308.462 102.897C308.462 102.897 306.878 97.3463 298.171 95.7587C289.465 94.1711 279.962 98.1382 277.587 92.5873C275.211 87.0365 267.296 71.1835 250.671 70.3955C234.045 69.6075 223.759 79.11 215.044 73.5669C206.334 68.0238 196.043 57.7139 187.336 58.5058C178.63 59.2977 157.257 65.6404 154.086 56.1263C150.918 46.6122 150.918 29.9713 132.709 9.3593C114.5 -11.2527 59.8801 25.2123 51.1734 13.3225C42.4822 1.44059 40.1066 -16 29.0243 -16H-16.8888H-16.8926Z" fill="white"/>
<path opacity="0.2" d="M228.13 105.257C228.13 105.257 90.7282 107.144 -4.18774 87.3199C-99.0959 67.4959 -134.982 38.2316 -134.982 38.2316C-134.982 38.2316 -114.204 47.6719 -105.233 46.7287C-96.2622 45.7816 -84.9276 34.9282 -77.3776 36.349C-69.8238 37.7697 -64.1604 56.1729 -58.0195 57.1201C-51.8786 58.0672 -48.1017 52.8696 -23.5498 53.3431C1.00214 53.8167 2.89253 69.8599 13.7536 77.4176C24.6108 84.9675 55.7733 80.2513 70.4112 79.7777C85.0492 79.3041 92.603 94.4118 102.047 96.2944C111.492 98.1771 131.323 91.1045 135.57 92.5136C139.816 93.9266 142.658 99.5978 147.374 99.1242C152.094 98.6506 151.155 93.4608 155.871 96.2905C160.591 99.1242 173.816 102.901 177.59 98.6506C181.37 94.4001 228.11 105.261 228.11 105.261H228.133L228.13 105.257Z" fill="white"/>
<path opacity="0.2" d="M189.933 57.4617C189.933 57.4617 317.021 82.9879 376.31 78.1125C376.31 78.1125 364.145 72.9381 357.286 73.6135C350.427 74.289 345.451 78.1746 337.342 70.4965C329.241 62.8223 306.781 55.6877 294.666 62.4536C282.563 69.2155 273.181 65.8656 269.745 63.2222C266.31 60.5787 262.234 63.0785 254.735 62.9233C247.224 62.7796 238.412 42.3463 227.85 42.583C217.288 42.8198 214.031 57.3413 207.708 53.611C201.388 49.8807 189.937 57.4656 189.937 57.4656L189.933 57.4617Z" fill="white"/>
<path d="M129.332 341.678H-23.2781V310.399C-21.8302 309.941 -20.293 309.483 -18.6705 309.04C-9.79297 306.614 1.65423 304.549 15.7682 304.009C23.5782 303.714 32.2112 303.881 41.6709 304.724C77.4022 307.883 109.958 327.47 129.328 341.681L129.332 341.678Z" fill="url(#paint6_linear_199_3569)"/>
<g opacity="0.34">
<path d="M129.332 341.678H123.311C115.769 336.173 102.354 326.954 91.652 322.719C75.8573 316.47 63.688 316.14 52.497 311.202C41.3138 306.265 26.505 306.595 18.2796 305.939C10.0543 305.279 1.16901 306.595 -7.38243 308.57C-11.8581 309.603 -18.2241 311.804 -23.2742 313.671V310.399C-21.8263 309.941 -20.2892 309.483 -18.6666 309.04C-9.7891 306.614 1.6581 304.549 15.7721 304.009C23.5821 303.714 32.215 303.881 41.6748 304.724C77.4061 307.883 109.962 327.47 129.332 341.681V341.678Z" fill="white"/>
</g>
<path opacity="0.46" d="M92.8942 341.678H-23.2781V310.399C-21.8302 309.941 -20.293 309.482 -18.6705 309.04C-18.8762 309.669 -18.9694 310.336 -18.9228 311.031C-18.7559 313.45 -16.8266 315.464 -14.6102 316.439C-12.3937 317.417 -9.90942 317.553 -7.4911 317.654C5.21378 318.193 17.9458 318.193 30.6507 317.654C32.25 317.588 33.9036 317.518 35.3942 318.096C36.8886 318.674 38.1813 320.087 38.0881 321.687C37.9522 324.004 35.1341 325.526 35.0992 327.851C35.0759 329.33 36.2792 330.607 37.6572 331.146C39.0391 331.686 40.5646 331.647 42.0475 331.593C53.9411 331.17 65.8463 330.417 77.7321 331.011C80.7056 331.154 83.7294 331.403 86.4893 332.521C89.2492 333.638 91.7452 335.766 92.603 338.619C92.9058 339.616 92.9873 340.653 92.8903 341.681L92.8942 341.678Z" fill="url(#paint7_linear_199_3569)"/>
<path d="M21.0901 252.301C21.0901 252.301 20.0924 261.283 19.0948 262.083C18.0972 262.882 15.1044 271.465 15.1044 271.465C15.1044 271.465 13.905 280.047 13.1053 282.438C12.593 283.976 10.1863 289.294 8.53655 292.907C8.53655 292.939 8.53655 292.966 8.53655 292.997C8.53655 293.09 8.53656 293.183 8.54432 293.276C8.83545 306.983 9.73988 344.022 9.73988 344.022L-0.604906 344.154L-4.18774 344.201L-10.8837 344.282L-7.09126 281.355C-7.09126 281.355 -10.4567 274.877 -10.9769 273.584C-11.497 272.288 -13.0458 262.188 -13.0458 260.635C-13.0458 259.843 -15.0643 256.427 -17.044 253.263C-18.9461 250.228 -20.8132 247.425 -20.8132 247.425L-25.9991 241.471L-30.1371 231.891L-29.7683 231.444L-28.8483 230.338L-24.1825 238.362C-24.1825 238.362 -13.3098 250.278 -12.0094 251.315C-10.7207 252.351 -7.8715 261.931 -7.60754 262.968C-7.39016 263.857 -3.90049 271.271 -2.93394 273.32C-2.77479 273.65 -2.6855 273.84 -2.6855 273.84L-2.6661 273.417L-1.39678 243.544V217.901L-0.142981 217.668L1.63097 217.338L2.75278 217.128L5.20215 237.927C5.20215 237.927 5.21768 237.907 5.24097 237.876C5.75336 237.255 10.7258 231.25 10.9743 230.509C11.2343 229.736 11.5527 222.051 11.5527 222.051L13.2839 220.533L13.6216 220.234C13.6216 220.234 14.658 226.192 14.922 227.489C15.1782 228.785 13.1053 235.52 12.329 236.557C11.6264 237.492 6.45983 244.161 5.49328 245.415C5.39235 245.547 5.33801 245.62 5.33801 245.62C5.33801 245.62 5.59809 249.06 5.94356 253.26C6.44042 259.303 7.10808 266.931 7.41473 268.154C7.62047 268.988 7.83008 272.039 8.01252 275.537L9.37889 274.582L12.1155 272.664L14.3126 261.885C14.3126 261.885 16.5057 260.689 17.3054 260.285C18.105 259.89 18.7028 251.703 18.7028 251.703L20.3486 252.114L21.0978 252.301H21.0901Z" fill="url(#paint8_linear_199_3569)"/>
<g opacity="0.45">
<path d="M21.09 252.301C21.09 252.301 20.0924 261.283 19.0948 262.083C18.0972 262.882 15.1044 271.465 15.1044 271.465C15.1044 271.465 14.3203 279.609 13.5207 282.004C13.0083 283.541 10.1902 289.298 8.53655 292.911C8.53655 292.942 8.53655 292.97 8.53655 293.001C7.53894 290.058 8.84709 284.884 9.64672 284.038C10.6599 282.966 13.9438 275.083 14.2427 274.365C14.5416 273.65 14.2427 273.231 14.1224 272.214C14.002 271.197 16.0904 267.851 16.2146 267.315C16.3349 266.78 15.7372 265.165 15.6789 264.268C15.6168 263.371 18.1283 262.059 18.664 261.283C19.1997 260.507 19.2618 259.432 19.4985 258.24C19.6965 257.254 20.1778 253.423 20.337 252.111L21.0862 252.297L21.09 252.301Z" fill="white"/>
</g>
<g opacity="0.45">
<path d="M12.329 236.557C11.6264 237.492 6.45982 244.161 5.49327 245.415C5.12063 244.871 4.9149 244.204 4.91879 243.548C4.93431 242.216 5.6796 240.982 6.65003 240.07C7.25558 239.495 7.95041 239.025 8.52878 238.428C9.23526 237.698 9.75153 236.813 10.2562 235.932C11.0946 234.476 11.9331 233.024 12.7676 231.569C13.0355 231.103 13.3111 230.621 13.3732 230.09C13.4236 229.62 13.3072 229.143 13.3615 228.673C13.4353 228.063 13.7924 227.532 13.971 226.945C14.5882 224.869 12.8414 222.54 13.2839 220.541L13.6216 220.242C13.6216 220.242 14.658 226.2 14.922 227.497C15.1782 228.793 13.1053 235.528 12.329 236.564V236.557Z" fill="white"/>
</g>
<g opacity="0.45">
<path d="M5.23705 237.88C5.22541 237.935 5.21765 237.989 5.206 238.043C5.13613 238.381 4.89546 238.816 4.56939 238.692C4.38307 238.622 4.3132 238.4 4.26662 238.206C3.95608 236.894 3.64944 235.586 3.34278 234.278C3.08659 233.191 2.8265 232.093 2.82262 230.975C2.81486 229.705 3.13316 228.459 3.15645 227.194C3.21468 223.863 1.25441 220.521 1.63094 217.342L2.75275 217.132L5.20212 237.931C5.20212 237.931 5.21765 237.911 5.24094 237.88H5.23705Z" fill="white"/>
</g>
<g opacity="0.45">
<path d="M9.37498 274.578C9.36333 274.733 9.3478 274.889 9.32451 275.048C9.23911 275.673 9.02174 276.364 8.45501 276.635C7.78735 276.958 6.96055 276.492 6.61508 275.832C6.27348 275.176 6.28124 274.396 6.29289 273.658C6.33558 270.425 6.21525 267.191 6.0988 263.962C6.04057 262.366 5.98235 260.771 5.8232 259.183C5.69122 257.894 4.79843 255.565 5.13614 254.339C5.30694 253.718 5.58253 253.384 5.94353 253.256C6.44039 259.3 7.10805 266.927 7.41471 268.15C7.62044 268.984 7.83006 272.035 8.0125 275.533L9.37886 274.578H9.37498Z" fill="white"/>
</g>
<g opacity="0.45">
<path d="M9.73987 344.026L-0.604922 344.158C-0.7796 342.299 -0.306029 340.346 1.03317 339.069C1.94537 338.196 3.18364 337.703 4.0609 336.798C5.37293 335.44 5.66794 333.433 5.89697 331.558C6.36665 327.727 6.83634 323.814 6.04059 320.037C5.36905 316.846 3.81636 313.5 5.05463 310.48C5.85814 308.524 7.73691 307.095 8.25317 305.042C8.80438 302.856 7.66315 300.625 7.43025 298.381C7.24393 296.622 7.6515 294.81 8.54818 293.28C8.83931 306.987 9.74375 344.026 9.74375 344.026H9.73987Z" fill="white"/>
</g>
<path opacity="0.3" d="M-0.329298 265.856C-0.403051 267.544 -0.476799 269.245 -0.251659 270.922C-0.0420463 272.49 0.357771 274.322 -0.736875 275.459C-0.864972 275.591 -1.02025 275.715 -1.20269 275.719C-1.51711 275.727 -1.71895 275.397 -1.85481 275.114C-2.12653 274.551 -2.39825 273.984 -2.66609 273.417L-1.39677 243.544V217.901L-0.142972 217.668C-0.857209 222.004 -0.810633 226.464 -0.0148799 230.788C0.23355 232.12 0.547972 233.443 0.714886 234.787C0.959435 236.774 0.87016 238.781 0.78088 240.776C0.412117 249.137 0.0433507 257.495 -0.325413 265.852L-0.329298 265.856Z" fill="url(#paint9_linear_199_3569)"/>
<path d="M58.086 279.554C58.086 279.554 53.5142 274.349 53.2865 274.045C53.0589 273.741 53.224 273.116 53.4785 272.728C53.733 272.34 54.1616 271.906 54.0589 271.808C53.9562 271.706 53.4741 272.219 53.2374 272.563C53.0008 272.907 52.9964 273.21 52.9964 273.21C52.9964 273.21 52.9026 272.862 53.0767 272.482C53.291 272.005 53.7866 271.639 53.7777 271.536C53.7687 271.433 53.2107 271.634 52.8401 272.161C52.5722 272.54 52.532 272.84 52.532 272.84C52.532 272.84 52.4294 272.518 52.6258 272.112C52.8222 271.706 53.1526 271.505 53.1348 271.322C53.1169 271.139 52.5097 271.478 52.2865 271.898C52.0633 272.317 52.2017 273.496 52.2017 273.496C52.2017 273.496 51.9963 272.817 51.8311 272.643C51.6659 272.469 51.3668 272.572 51.3668 272.572C51.3668 272.572 51.6481 272.907 51.7731 273.313C51.8981 273.719 52.8088 274.17 52.9205 274.277C53.0276 274.384 55.117 277.92 55.117 277.92C55.117 277.92 57.7958 279.626 58.0949 279.554H58.086Z" fill="#9CA000"/>
<path d="M66.3811 290.591C64.7739 293.698 63.9702 296.354 63.9702 296.354L63.3095 296.243C63.3095 296.243 61.6219 291.966 58.7155 289.908C55.809 287.845 52.9115 289.524 52.9115 289.524L52.3713 289.202C52.3713 289.202 51.9606 284.519 54.7554 278.818C57.5502 273.121 59.8405 269.433 60.3986 269.344C60.6843 269.299 62.0505 269.018 63.9301 269.143C63.9524 269.143 63.9613 269.143 63.9613 269.143C65.7248 269.263 67.9348 269.75 70.118 271.121C74.6495 273.969 74.8906 278.456 74.7075 279.264C74.52 280.072 67.9839 287.483 66.3722 290.586L66.3811 290.591Z" fill="url(#paint10_linear_199_3569)"/>
<path d="M65.8454 285.233L65.3855 285.702C65.3855 285.702 63.622 285.974 61.5594 285.43C61.5594 285.43 61.5594 285.43 61.5549 285.43C60.4611 285.139 59.2869 284.622 58.2422 283.715C56.1706 281.907 56.5189 279.996 56.9386 278.983C56.9475 278.965 56.952 278.956 56.952 278.956C57.135 278.518 57.3314 278.255 57.3314 278.255L57.8583 277.893C57.8583 277.893 58.8673 280.483 61.171 282.523C63.4881 284.581 65.8498 285.229 65.8498 285.229L65.8454 285.233Z" fill="#590800"/>
<path d="M74.6495 278.108C74.6495 278.108 78.2435 275.509 78.681 275.791C79.1185 276.072 76.0335 278.206 76.0335 278.206C76.0335 278.206 81.5517 278.242 81.6187 279.541C81.6857 280.84 75.7924 278.764 75.7924 278.764C75.7924 278.764 78.0515 280.688 77.6363 281.081C77.2211 281.47 74.7165 279.264 74.7165 279.264L74.654 278.103L74.6495 278.108Z" fill="#590800"/>
<path d="M69.2652 274.081C69.2652 274.081 70.3948 275.045 71.2341 276.509C72.0735 277.974 72.0377 278.929 72.0377 278.929L72.2297 278.268L72.6092 278.786L73.5602 278.452C73.5602 278.452 73.3548 276.804 72.5154 275.291C71.6493 273.732 70.2519 272.594 70.2519 272.594L69.8546 273.143C69.8546 273.143 70.1224 273.442 70.4483 273.84C70.7207 274.17 70.9305 274.616 70.9305 274.616L69.7117 273.42L69.2652 274.085V274.081Z" fill="#590800"/>
<path d="M67.1535 272.415C67.1535 272.415 65.7561 271.915 64.0685 271.915C62.3809 271.915 61.6308 272.232 61.6308 272.232L61.8764 271.786L61.4076 271.853L61.2245 270.862C61.2245 270.862 62.7559 270.219 64.4837 270.197C66.265 270.17 67.9526 270.817 67.9526 270.817L67.6758 271.433C67.6758 271.433 67.283 271.353 66.7785 271.264C66.3588 271.192 66.1356 271.223 66.1356 271.223L67.5151 271.692L67.1624 272.411L67.1535 272.415Z" fill="#590800"/>
<path d="M70.5626 281.87C71.8415 280.084 71.7682 277.841 70.3988 276.861C69.0295 275.88 66.8827 276.534 65.6038 278.32C64.3249 280.106 64.3982 282.349 65.7676 283.329C67.1369 284.31 69.2837 283.656 70.5626 281.87Z" fill="#9CA000"/>
<path d="M64.693 277.909C65.9719 276.123 65.8986 273.88 64.5293 272.9C63.1599 271.92 61.0131 272.573 59.7342 274.359C58.4553 276.146 58.5286 278.389 59.898 279.369C61.2673 280.349 63.4141 279.696 64.693 277.909Z" fill="#9CA000"/>
<path d="M64.5121 277.776C65.6475 276.19 65.6236 274.229 64.4588 273.395C63.2939 272.561 61.4292 273.17 60.2939 274.756C59.1585 276.342 59.1824 278.304 60.3473 279.137C61.5121 279.971 63.3768 279.362 64.5121 277.776Z" fill="#CAE7EF"/>
<path d="M64.515 277.795C63.4345 279.309 61.6576 279.889 60.546 279.094C59.4343 278.3 59.412 276.429 60.4969 274.92C61.5817 273.411 63.3542 272.826 64.4658 273.621C65.5775 274.416 65.5999 276.286 64.515 277.795Z" fill="white"/>
<path d="M63.9345 277.331C63.2202 278.326 62.0505 278.71 61.3183 278.188C60.5861 277.666 60.5727 276.434 61.287 275.433C62.0014 274.438 63.1711 274.054 63.9033 274.576C64.6355 275.099 64.6489 276.331 63.9345 277.331Z" fill="url(#paint11_linear_199_3569)"/>
<path d="M63.545 277.065C64.056 276.351 64.046 275.469 63.5227 275.094C62.9994 274.719 62.161 274.994 61.65 275.708C61.1391 276.422 61.149 277.304 61.6723 277.679C62.1956 278.053 63.034 277.778 63.545 277.065Z" fill="#590800"/>
<path d="M63.872 277.791C64.38 277.791 64.7917 277.379 64.7917 276.871C64.7917 276.363 64.38 275.951 63.872 275.951C63.3641 275.951 62.9523 276.363 62.9523 276.871C62.9523 277.379 63.3641 277.791 63.872 277.791Z" fill="white"/>
<path d="M62.5639 276.884C62.4568 277.036 62.2469 277.072 62.0951 276.96C61.9433 276.853 61.9076 276.643 62.0192 276.492C62.1309 276.34 62.3362 276.304 62.488 276.416C62.6398 276.523 62.6755 276.733 62.5639 276.884Z" fill="white"/>
<path d="M65.8052 278.331C64.6132 279.876 64.564 281.836 65.698 282.715C66.832 283.59 68.7206 283.05 69.9126 281.505C71.1046 279.961 71.1537 278.001 70.0197 277.121C68.8857 276.246 66.9972 276.786 65.8052 278.331Z" fill="#CAE7EF"/>
<path d="M65.8052 278.331C64.6667 279.8 64.6221 281.67 65.7025 282.505C66.7829 283.34 68.5777 282.822 69.7161 281.353C70.8546 279.885 70.8993 278.014 69.8188 277.179C68.7384 276.344 66.9436 276.862 65.8052 278.331Z" fill="white"/>
<path d="M66.4168 278.751C65.6668 279.719 65.6355 280.952 66.3499 281.501C67.0597 282.05 68.2473 281.711 68.9973 280.742C69.7474 279.773 69.7787 278.541 69.0643 277.992C68.3545 277.443 67.1669 277.782 66.4168 278.751Z" fill="url(#paint12_linear_199_3569)"/>
<path d="M66.7695 279.054C66.2338 279.746 66.2114 280.63 66.7204 281.023C67.2294 281.416 68.0776 281.175 68.6134 280.478C69.1491 279.786 69.1714 278.902 68.6625 278.51C68.1535 278.117 67.3053 278.358 66.7695 279.054Z" fill="#590800"/>
<path d="M68.1937 280.126C67.8812 280.528 67.9571 281.108 68.3589 281.416C68.7607 281.729 69.3411 281.653 69.6492 281.251C69.9572 280.849 69.8858 280.269 69.484 279.961C69.0822 279.648 68.5018 279.724 68.1937 280.126Z" fill="white"/>
<path d="M67.2383 279.938C67.1267 280.086 67.1535 280.295 67.3008 280.411C67.4481 280.523 67.658 280.496 67.774 280.349C67.8857 280.202 67.8589 279.992 67.7115 279.876C67.5642 279.76 67.3544 279.791 67.2383 279.938Z" fill="white"/>
<path d="M61.5594 285.43C61.5594 285.43 61.5594 285.43 61.5549 285.43C60.4611 285.139 59.2869 284.622 58.2422 283.715C56.1706 281.907 56.5189 279.996 56.9386 278.983C56.9475 278.965 56.952 278.956 56.952 278.956C56.952 278.956 58.9253 281.099 60.1441 283.081C61.3585 285.064 61.5594 285.43 61.5594 285.43Z" fill="#8B1229"/>
<path d="M57.3314 278.255L56.8627 278.831C56.8627 278.831 55.4608 280.987 57.202 283.117C59.8897 286.407 64.7382 286.006 64.7516 285.983C64.765 285.961 65.39 285.702 65.39 285.702C65.39 285.702 59.8718 286.081 57.4833 282.921C55.5412 280.353 57.3314 278.255 57.3314 278.255Z" fill="#DCED00"/>
<path d="M63.3095 296.243C63.3095 296.243 61.6219 291.966 58.7155 289.908C55.809 287.845 52.9115 289.524 52.9115 289.524L52.3713 289.202C52.3713 289.202 51.9606 284.519 54.7554 278.818C57.5502 273.121 59.8405 269.433 60.3986 269.344C60.6843 269.299 62.0505 269.018 63.9301 269.143C63.6131 269.143 60.9745 269.344 57.7288 274.88C54.2687 280.786 53.6883 285.157 56.1617 287.265C58.6306 289.367 59.4342 289.077 61.604 292.225C63.7425 295.328 63.2336 296.475 63.305 296.243H63.3095Z" fill="#9CA000"/>
<path d="M61.2112 269.272C61.2112 269.272 61.9523 265.415 61.2603 264.919C60.5682 264.424 60.5192 268.652 60.5192 268.652C60.5192 268.652 56.9296 263.955 55.8938 264.714C54.8581 265.469 59.7691 268.915 59.7691 268.915C59.7691 268.915 56.1483 267.103 55.8224 267.67C55.4965 268.237 59.8584 269.83 59.8584 269.83L61.2112 269.272Z" fill="#590800"/>
<path d="M66.8008 286.599C66.8008 286.599 73.6718 285.72 74.0423 285.644C74.4129 285.568 74.7031 284.988 74.77 284.528C74.837 284.068 74.8013 283.461 74.9442 283.456C75.087 283.447 75.1138 284.153 75.0602 284.564C75.0067 284.974 74.8102 285.206 74.8102 285.206C74.8102 285.206 75.1094 285.006 75.2344 284.608C75.3862 284.108 75.2611 283.505 75.3326 283.438C75.4085 283.371 75.6942 283.889 75.6228 284.523C75.5692 284.988 75.404 285.238 75.404 285.238C75.404 285.238 75.6942 285.068 75.8148 284.631C75.9353 284.197 75.8192 283.827 75.9532 283.702C76.0871 283.577 76.3193 284.233 76.2076 284.697C76.1005 285.162 75.212 285.952 75.212 285.952C75.212 285.952 75.8148 285.581 76.0558 285.559C76.2969 285.537 76.4532 285.814 76.4532 285.814C76.4532 285.814 76.0246 285.881 75.663 286.099C75.3013 286.323 74.3191 286.059 74.1673 286.064C74.0155 286.073 70.109 287.345 70.109 287.345C70.109 287.345 66.9749 286.849 66.7963 286.599H66.8008Z" fill="#B3CC00"/>
<path d="M52.3758 289.198C52.3758 289.198 50.1301 288.229 50.1301 288.524C50.1301 288.818 51.8981 289.229 51.8981 289.229C51.8981 289.229 49.7908 288.872 49.7819 289.117C49.7729 289.363 52.1079 289.528 52.1079 289.528C52.1079 289.528 50.3801 289.693 50.5676 289.992C50.7551 290.287 52.9204 289.519 52.9204 289.519L52.3802 289.198H52.3758Z" fill="#9CA000"/>
<path d="M63.9747 296.35C63.9747 296.35 65.7025 297.055 65.6489 297.234C65.5953 297.413 64.2292 296.685 64.2292 296.685C64.2292 296.685 65.5775 297.605 65.5105 297.868C65.4391 298.131 63.939 296.77 63.939 296.77C63.939 296.77 64.7783 297.823 64.564 297.939C64.3497 298.055 63.3095 296.238 63.3095 296.238L63.9702 296.35H63.9747Z" fill="#9CA000"/>
<path d="M65.3587 285.157L64.8185 285.412L63.2247 286.162L63.5729 284.648L63.6131 284.479L63.305 284.47L62.296 284.438L61.8183 283.371L61.7915 283.313L61.7201 283.291L61.2111 283.148L60.9433 282.608L60.845 282.412L60.4924 282.153L59.8048 281.639L59.8227 281.389V281.304L59.6307 281.153L58.7422 280.483L58.7824 280.032L58.7958 279.902L58.6842 279.889L56.9118 279.661L57.7511 278.492L57.9029 278.282C57.9029 278.282 58.202 279.38 60.1084 281.528C62.5282 284.26 65.3543 285.144 65.3543 285.144L65.3587 285.157Z" fill="white"/>
<path d="M65.3587 285.157L64.8185 285.412C64.6042 285.291 64.1578 285.037 63.5729 284.653L63.6131 284.483L63.305 284.474C62.863 284.175 62.3585 283.805 61.8183 283.376L61.7915 283.318L61.7201 283.296C61.6353 283.224 61.546 283.153 61.4567 283.081C61.2826 282.938 61.1129 282.782 60.9388 282.617L60.8406 282.421L60.4879 282.162C60.2557 281.916 60.0325 281.657 59.8182 281.403V281.318L59.6262 281.166C59.3137 280.782 59.028 280.398 58.778 280.05L58.7914 279.92L58.6798 279.907C58.1128 279.108 57.7511 278.51 57.7511 278.51L57.9029 278.3C57.9029 278.3 58.202 279.398 60.1084 281.545C62.5282 284.278 65.3543 285.162 65.3543 285.162L65.3587 285.157Z" fill="#CAE7EF"/>
<path d="M56.626 280.67L57.6663 280.55L56.8359 281.8C56.8359 281.8 56.6171 281.059 56.626 280.675V280.67Z" fill="white"/>
<path d="M59.845 284.747L60.8763 283.925L60.7156 285.09C60.7156 285.09 60.2155 284.965 59.8495 284.747H59.845Z" fill="white"/>
<path d="M62.9657 285.595L62.4211 286.291L63.2693 285.974L63.3452 285.639L62.9657 285.595Z" fill="#9CA000"/>
<path opacity="0.43" d="M69.8947 284.483C69.7474 284.273 67.8768 286.269 66.6579 288.367C65.4391 290.466 64.4212 292.506 64.5864 292.604C64.8364 292.747 65.9034 290.336 67.2205 288.305C68.5375 286.278 70.0421 284.693 69.8947 284.483Z" fill="white"/>
<path opacity="0.43" d="M70.6939 283.34C70.3501 283.733 70.1269 284.104 70.1939 284.166C70.2653 284.229 70.6001 283.961 70.9484 283.563C71.2966 283.166 71.5154 282.8 71.4484 282.737C71.377 282.675 71.0421 282.943 70.6939 283.34Z" fill="white"/>
<path d="M54.9965 283.385C54.7866 284.108 54.3804 284.622 54.0902 284.537C53.8 284.452 53.7375 283.8 53.9518 283.077C54.1616 282.354 54.5679 281.84 54.8581 281.925C55.1483 282.01 55.2108 282.662 54.9965 283.385Z" fill="#DCED00"/>
<path d="M55.1126 283.421C54.9028 284.144 54.4965 284.657 54.2063 284.573C53.9161 284.488 53.8536 283.836 54.0679 283.113C54.2777 282.389 54.684 281.876 54.9742 281.961C55.2644 282.046 55.3269 282.697 55.1126 283.421Z" fill="#7A7A00"/>
<path d="M65.323 287.979C64.9792 288.474 64.8587 288.983 65.0551 289.122C65.2516 289.26 65.6936 288.97 66.0373 288.479C66.3811 287.983 66.5017 287.474 66.3052 287.336C66.1088 287.198 65.6668 287.488 65.323 287.979Z" fill="#DCED00"/>
<path d="M65.2427 287.921C64.8989 288.416 64.7783 288.925 64.9748 289.064C65.1712 289.202 65.6132 288.912 65.957 288.421C66.3007 287.925 66.4213 287.416 66.2248 287.278C66.0284 287.14 65.5864 287.43 65.2427 287.921Z" fill="#7A7A00"/>
<path d="M64.7872 290.015C64.5595 290.341 64.4792 290.68 64.6086 290.774C64.7381 290.863 65.0328 290.676 65.2605 290.345C65.4882 290.019 65.5685 289.68 65.4391 289.586C65.3096 289.497 65.0149 289.684 64.7872 290.015Z" fill="#DCED00"/>
<path d="M64.7337 289.975C64.506 290.3 64.4256 290.64 64.5551 290.734C64.6846 290.823 64.9793 290.635 65.2069 290.305C65.4346 289.979 65.515 289.64 65.3855 289.546C65.256 289.457 64.9614 289.644 64.7337 289.975Z" fill="#7A7A00"/>
<path d="M54.7375 285.568C54.6304 285.939 54.4205 286.206 54.2687 286.162C54.1214 286.117 54.0857 285.782 54.1973 285.407C54.3045 285.037 54.5143 284.769 54.6661 284.814C54.8179 284.858 54.8491 285.193 54.7375 285.568Z" fill="#DCED00"/>
<path d="M54.8 285.586C54.6929 285.957 54.483 286.224 54.3312 286.18C54.1839 286.135 54.1482 285.8 54.2598 285.425C54.367 285.055 54.5768 284.787 54.7286 284.831C54.8759 284.876 54.9116 285.211 54.8 285.586Z" fill="#7A7A00"/>
<path d="M53.6214 285.407C53.5455 285.675 53.3937 285.863 53.2865 285.831C53.1794 285.8 53.1571 285.559 53.2329 285.291C53.3088 285.023 53.4606 284.836 53.5678 284.867C53.6749 284.898 53.6973 285.139 53.6214 285.407Z" fill="#DCED00"/>
<path d="M53.666 285.421C53.5901 285.689 53.4383 285.876 53.3312 285.845C53.224 285.814 53.2017 285.572 53.2776 285.305C53.3535 285.037 53.5053 284.849 53.6124 284.881C53.7196 284.912 53.7419 285.153 53.666 285.421Z" fill="#7A7A00"/>
<path d="M54.5857 280.76C54.4563 281.014 54.2688 281.179 54.1705 281.13C54.0678 281.081 54.0902 280.831 54.2196 280.577C54.3491 280.322 54.5366 280.157 54.6349 280.206C54.7375 280.255 54.7152 280.505 54.5857 280.76Z" fill="#DCED00"/>
<path d="M54.6259 280.782C54.4964 281.037 54.3089 281.202 54.2107 281.153C54.108 281.103 54.1303 280.853 54.2553 280.599C54.3848 280.345 54.5723 280.179 54.6705 280.228C54.7732 280.278 54.7509 280.528 54.6214 280.782H54.6259Z" fill="#7A7A00"/>
<path d="M66.2427 284.224C66.2427 284.224 65.9213 284.791 65.5552 285.412C65.1891 286.037 64.573 286.773 64.573 286.773C64.573 286.773 65.4837 286.394 65.9302 285.706C66.3767 285.019 66.2427 284.22 66.2427 284.22V284.224Z" fill="#9CA000"/>
<path d="M58.9967 277.407C58.9967 277.407 57.9967 277.818 57.4743 278.157C56.952 278.496 56.1394 279.193 56.1394 279.193C56.1394 279.193 56.6975 277.943 57.4475 277.536C58.1708 277.143 59.0012 277.411 59.0012 277.411L58.9967 277.407Z" fill="#9CA000"/>
<path d="M55.7197 282.237C55.7197 282.237 55.943 283.523 57.2779 284.675C58.7869 285.979 60.0593 286.22 60.0593 286.22C60.0593 286.22 58.4788 286.198 56.8493 284.867C55.7063 283.934 55.7197 282.237 55.7197 282.237Z" fill="#9CA000"/>
<path d="M53.2107 272.5C52.0946 272.5 51.1838 271.464 51.0052 270.397C50.7998 269.174 51.34 267.964 51.7686 267.161C51.8937 266.928 52.0231 266.696 52.1481 266.469C52.541 265.768 52.9518 265.04 53.1527 264.263C53.3804 263.406 53.3491 262.151 52.5276 261.433C52.2374 261.178 51.8803 261.017 51.5052 260.848C51.2642 260.741 51.0186 260.629 50.7864 260.491C49.4247 259.678 48.7327 257.861 49.2194 256.347C49.4605 255.593 49.9426 254.954 50.407 254.343C50.5811 254.115 50.7507 253.887 50.9114 253.655C51.3222 253.057 51.9472 251.901 51.5231 250.887C51.3222 250.405 50.9249 250.043 50.5052 249.664C50.3177 249.494 50.1257 249.32 49.9516 249.133C49.1256 248.253 48.6792 247.057 48.7194 245.847C48.7595 244.641 49.2908 243.481 50.1748 242.655C50.2507 242.583 50.3712 242.588 50.4427 242.664C50.5141 242.739 50.5096 242.86 50.4337 242.931C49.6212 243.686 49.1345 244.753 49.0988 245.86C49.0587 246.967 49.4694 248.066 50.2284 248.874C50.3936 249.048 50.5766 249.218 50.7597 249.383C51.1927 249.776 51.6347 250.177 51.8713 250.74C52.3624 251.914 51.6749 253.2 51.2195 253.865C51.0543 254.102 50.8802 254.338 50.7061 254.571C50.2418 255.187 49.7998 255.771 49.5765 256.463C49.1435 257.816 49.7596 259.441 50.9784 260.165C51.1927 260.294 51.4293 260.397 51.6615 260.504C52.0455 260.678 52.4473 260.857 52.7776 261.147C53.7331 261.977 53.7732 263.397 53.5232 264.361C53.3045 265.183 52.8848 265.933 52.483 266.656C52.3535 266.884 52.2285 267.111 52.1035 267.344C51.7017 268.103 51.1927 269.237 51.3802 270.344C51.541 271.29 52.4116 272.255 53.4072 272.116C53.5098 272.103 53.6036 272.174 53.617 272.277C53.6304 272.38 53.5589 272.473 53.4563 272.487C53.3759 272.496 53.2955 272.505 53.2152 272.505L53.2107 272.5Z" fill="#FF8A8A"/>
<path d="M50.8489 240.663H50.34H50.215H49.706L48.6925 243.199H50.215H50.34H51.8624L50.8489 240.663Z" fill="#C94EFF"/>
<path d="M60.6174 231.685C60.6174 237.168 56.0055 241.614 50.3132 241.614C49.7729 241.614 49.2461 241.574 48.7327 241.503C48.7238 241.503 48.7193 241.503 48.7193 241.503C43.777 240.766 40 236.654 40 231.69C40 226.725 44.027 222.359 49.197 221.827C49.5631 221.787 49.9337 221.765 50.3042 221.765C55.9966 221.765 60.6085 226.207 60.6085 231.69L60.6174 231.685Z" fill="#C94EFF"/>
<path d="M50.7864 229.498C51.8368 229.498 52.6883 228.646 52.6883 227.596C52.6883 226.545 51.8368 225.694 50.7864 225.694C49.736 225.694 48.8845 226.545 48.8845 227.596C48.8845 228.646 49.736 229.498 50.7864 229.498Z" fill="#E9A9FF"/>
<path d="M46.9156 232.038C46.9156 232.841 46.2638 233.498 45.4557 233.498C44.6476 233.498 43.9958 232.846 43.9958 232.038C43.9958 231.23 44.6476 230.578 45.4557 230.578C46.2638 230.578 46.9156 231.23 46.9156 232.038Z" fill="#E9A9FF"/>
<path d="M50.7194 232.542C50.7194 232.962 50.3801 233.301 49.9605 233.301C49.5408 233.301 49.2015 232.962 49.2015 232.542C49.2015 232.123 49.5408 231.783 49.9605 231.783C50.3801 231.783 50.7194 232.123 50.7194 232.542Z" fill="#E9A9FF"/>
<path d="M55.6037 233.94C56.9006 233.94 57.952 232.888 57.952 231.591C57.952 230.294 56.9006 229.243 55.6037 229.243C54.3067 229.243 53.2553 230.294 53.2553 231.591C53.2553 232.888 54.3067 233.94 55.6037 233.94Z" fill="#E9A9FF"/>
<path d="M54.8447 237.302C54.8447 238.003 54.2777 238.57 53.5768 238.57C52.8758 238.57 52.3088 238.003 52.3088 237.302C52.3088 236.601 52.8758 236.034 53.5768 236.034C54.2777 236.034 54.8447 236.601 54.8447 237.302Z" fill="#E9A9FF"/>
<path d="M51.2284 237.11C51.2284 237.529 50.8891 237.869 50.4694 237.869C50.0497 237.869 49.7104 237.529 49.7104 237.11C49.7104 236.69 50.0497 236.351 50.4694 236.351C50.8891 236.351 51.2284 236.69 51.2284 237.11Z" fill="#E9A9FF"/>
<path d="M45.7102 237.172C45.7102 237.699 45.286 238.123 44.7592 238.123C44.2324 238.123 43.8083 237.699 43.8083 237.172C43.8083 236.645 44.2324 236.221 44.7592 236.221C45.286 236.221 45.7102 236.645 45.7102 237.172Z" fill="#E9A9FF"/>
<path d="M44.5673 226.774C45.164 226.774 45.6477 226.29 45.6477 225.694C45.6477 225.097 45.164 224.613 44.5673 224.613C43.9706 224.613 43.4869 225.097 43.4869 225.694C43.4869 226.29 43.9706 226.774 44.5673 226.774Z" fill="#E9A9FF"/>
<path opacity="0.38" d="M60.6174 231.685C60.6174 237.168 56.0055 241.614 50.3132 241.614C49.773 241.614 49.2462 241.574 48.7327 241.503C48.7238 241.503 48.7193 241.503 48.7193 241.503C48.7193 241.503 55.1706 239.61 55.3135 232.346C55.4519 225.194 49.3935 221.926 49.2015 221.827C49.5676 221.787 49.9382 221.765 50.3087 221.765C56.0011 221.765 60.613 226.207 60.613 231.69L60.6174 231.685Z" fill="#6C0A9C"/>
<path opacity="0.29" d="M45.4557 224.082C41.9332 226.997 40.9287 229.056 41.0224 232.038C41.1162 235.02 42.4154 236.377 44.7593 236.855C47.1032 237.328 48.3845 235.873 48.0497 233.944C47.7193 232.016 46.7281 230.542 46.9157 228.122C47.0987 225.703 48.1523 225.18 48.1032 224.086C48.0497 222.993 46.1299 223.533 45.4557 224.086V224.082Z" fill="#F7DEFF"/>
<path d="M44.2561 246.412C42.7694 247.647 40.914 248.578 38.8683 249.281C29.7501 252.41 16.9405 250.911 16.9405 250.911C4.15017 250.911 11.9291 241.059 11.9291 241.059C11.9291 241.059 11.0402 240.45 10.2173 239.491C9.00233 238.074 7.93097 235.893 10.0853 233.785C10.4347 233.44 10.8733 233.098 11.4051 232.76C17.4567 228.956 37.1642 227.229 43.5613 228.44C49.9584 229.647 42.6957 237.601 42.6957 237.601C42.6957 237.601 45.4168 238.183 46.7637 239.736C47.9593 241.11 48.0719 243.249 44.2523 246.416L44.2561 246.412Z" fill="url(#paint13_linear_199_3569)"/>
<path d="M44.2561 246.412C42.7694 247.647 40.914 248.578 38.8683 249.281C29.7501 252.41 16.9405 250.907 16.9405 250.907C4.15017 250.907 11.9291 241.055 11.9291 241.055C11.9291 241.055 11.0402 240.446 10.2173 239.487C9.00233 238.07 7.93097 235.889 10.0853 233.781C10.0853 233.801 10.0776 233.82 10.0737 233.839C9.79808 235.248 10.3765 236.786 11.506 237.671C13.4158 239.165 16.1331 238.606 18.563 238.676C17.1229 239.685 15.6789 240.695 14.2388 241.704C14.033 241.847 13.8157 242.01 13.7419 242.251C13.6837 242.437 13.7264 242.647 13.8001 242.829C14.2271 243.878 15.5003 244.262 16.6183 244.44C22.2972 245.364 28.1159 244.499 33.7134 243.156C38.0842 242.107 42.389 240.76 46.7637 239.732C47.9593 241.106 48.0719 243.245 44.2523 246.412H44.2561Z" fill="url(#paint14_linear_199_3569)"/>
<path d="M38.8722 249.281C29.7541 252.409 16.9444 250.911 16.9444 250.911C4.15408 250.911 11.9331 241.059 11.9331 241.059C11.9331 241.059 11.0442 240.45 10.2212 239.491C11.0674 239.844 11.968 240.081 12.7638 240.531C13.0161 240.675 13.28 240.877 13.3072 241.168C13.3421 241.564 12.919 241.828 12.5852 242.045C11.5332 242.744 10.8811 244.009 10.9238 245.271C10.9626 246.533 11.6963 247.755 12.7909 248.384C13.3305 248.691 13.9399 248.862 14.5493 248.99C21.5947 250.469 28.869 246.734 35.9881 247.771C37.1022 247.93 38.3365 248.326 38.8683 249.285L38.8722 249.281Z" fill="url(#paint15_linear_199_3569)"/>
<path d="M42.948 213.81C42.948 213.81 43.507 214.062 43.9767 214.532C44.753 215.304 45.2809 216.659 42.6142 218.406C42.3541 218.576 42.063 218.751 41.7369 218.93C36.0812 222.027 25.5889 220.568 25.5889 220.568C17.9109 221.779 13.4508 220.548 14.3902 217.583C15.3334 214.621 18.5669 212.599 18.5669 212.599C18.5669 212.599 17.5344 211.407 19.1026 209.369C21.5325 206.209 24.5991 203.278 31.0699 203.139C31.493 203.131 31.8812 203.139 32.2345 203.154C32.8633 203.181 33.3912 203.251 33.8298 203.352C36.9197 204.039 35.6737 206.132 35.6737 206.132C35.6737 206.132 46.9889 203.034 49.2791 207.211C51.5693 211.387 42.948 213.81 42.948 213.81Z" fill="url(#paint16_linear_199_3569)"/>
<path d="M41.9582 218.406C41.6981 218.576 41.407 218.751 41.0809 218.93C35.4252 222.027 24.9329 220.568 24.9329 220.568C17.2549 221.779 12.7948 220.548 13.7342 217.583C14.6774 214.621 17.9109 212.599 17.9109 212.599C17.9109 212.599 16.8783 211.407 18.4466 209.369C20.8765 206.209 23.9431 203.278 30.4139 203.139C30.837 203.131 31.2252 203.139 31.5784 203.154C32.2073 203.181 32.7352 203.251 33.1738 203.352C32.3936 204.16 31.6716 205.033 31.33 206.089C30.903 207.401 31.264 209.078 32.4906 209.703C30.6274 210.794 28.8457 212.016 27.1649 213.375C26.571 213.852 25.9499 214.423 25.8839 215.18C25.8141 215.968 26.408 216.686 27.1261 217.016C27.8442 217.342 28.6594 217.354 29.4474 217.334C33.4456 217.233 37.4321 216.5 41.209 215.172C41.8999 214.928 42.5986 214.664 43.3168 214.536C44.0931 215.308 44.621 216.663 41.9543 218.409L41.9582 218.406Z" fill="url(#paint17_linear_199_3569)"/>
<path d="M41.9582 218.406C41.6981 218.576 41.407 218.751 41.0809 218.93C35.4252 222.027 24.9329 220.568 24.9329 220.568C17.2549 221.779 12.7948 220.548 13.7342 217.583C14.6774 214.621 17.9109 212.599 17.9109 212.599C17.9109 212.599 16.8783 211.407 18.4466 209.369C20.8765 206.209 23.9431 203.278 30.4139 203.139C30.837 203.131 31.2252 203.139 31.5784 203.154L31.2019 203.181C29.2145 204.004 27.7045 205.883 27.3241 207.999C27.1766 208.825 27.1804 209.703 26.7806 210.444C26.2566 211.43 25.1619 211.931 24.2226 212.533C22.9105 213.375 21.8004 214.524 21.0085 215.867C20.6281 216.515 20.3176 217.311 20.6242 217.998C20.9891 218.813 22.0488 219.054 22.9338 218.949C23.8189 218.844 24.6845 218.503 25.5734 218.58C26.5788 218.662 27.4716 219.263 28.4498 219.5C30.4062 219.974 32.4091 218.953 34.4199 218.937C35.7358 218.926 37.0323 219.341 38.3443 219.248C39.5748 219.159 40.7471 218.631 41.9543 218.409L41.9582 218.406Z" fill="url(#paint18_linear_199_3569)"/>
<path d="M20.2749 212.047C17.5228 215.277 9.60792 215.335 9.60792 215.335C9.60792 215.335 9.02955 217.311 6.03675 219.104C3.04394 220.902 -3.05426 219.582 -3.05426 219.582C-14.9013 218.386 -7.00198 210.852 -7.00198 210.852C-7.00198 210.852 -11.9046 209.416 -10.7129 207.382C-10.6081 207.203 -10.4994 207.036 -10.383 206.877C-9.16021 205.169 -7.36297 204.272 -7.36297 204.272C-7.36297 204.272 -7.85206 203.997 -8.18201 203.461C-8.50419 202.941 -8.675 202.168 -8.08109 201.159C-6.88552 199.125 -0.542788 194.941 4.36371 194.459C9.26633 193.982 9.39055 199.366 9.39055 199.366C9.39055 199.366 17.4917 198.015 20.7912 199.991C21.1677 200.216 21.4821 200.484 21.7111 200.798C23.9858 203.907 18.0002 207.261 18.0002 207.261C18.0002 207.261 19.3394 207.673 20.2594 208.523C21.1172 209.315 21.6063 210.483 20.2749 212.047Z" fill="url(#paint19_linear_199_3569)"/>
<path d="M19.3898 212.385C16.6377 215.615 8.72287 215.673 8.72287 215.673C8.72287 215.673 8.14449 217.649 5.15168 219.442C2.15887 221.239 -3.93931 219.92 -3.93931 219.92C-15.7863 218.724 -7.88703 211.19 -7.88703 211.19C-7.88703 211.19 -12.7896 209.753 -11.598 207.719C-11.4932 207.541 -11.3845 207.374 -11.268 207.215C-10.0453 205.507 -8.24803 204.61 -8.24803 204.61C-8.24803 204.61 -8.73712 204.334 -9.06707 203.799C-7.84821 204.61 -6.28387 204.82 -4.80106 204.944C-5.64339 205.231 -6.49737 205.53 -7.19996 206.07C-7.90643 206.613 -8.43823 207.452 -8.38001 208.337C-8.32178 209.253 -7.62695 210.037 -6.79238 210.417C-5.95393 210.798 -5.00291 210.821 -4.09071 210.712C-4.23821 212.222 -3.26778 213.705 -1.91694 214.392C-0.56998 215.079 1.072 215.036 2.49271 214.509C3.94447 213.969 5.20991 212.94 6.03284 211.628C8.54431 212.284 11.2072 212.358 13.7536 211.842C14.5532 211.683 15.3684 211.45 15.9778 210.914C16.5911 210.378 16.9405 209.466 16.6105 208.725C16.2534 207.929 15.3101 207.615 14.4678 207.386C16.3815 206.893 18.1166 205.744 19.32 204.171C20.1584 203.069 20.6436 201.369 19.9061 200.329C20.2826 200.554 20.5971 200.822 20.8261 201.136C23.1008 204.245 17.1152 207.599 17.1152 207.599C17.1152 207.599 18.4543 208.01 19.3743 208.861C20.2322 209.652 20.7213 210.821 19.3898 212.385Z" fill="url(#paint20_linear_199_3569)"/>
<path d="M46.9074 212.703C44.1553 215.933 36.2404 215.991 36.2404 215.991C36.2404 215.991 35.6621 217.967 32.6693 219.76C29.6764 221.558 23.5783 220.238 23.5783 220.238C11.7312 219.042 19.6305 211.508 19.6305 211.508C19.6305 211.508 14.7279 210.072 15.9196 208.038C16.0244 207.859 16.1331 207.692 16.2496 207.533C16.4825 207.731 16.696 207.964 16.8784 208.201C17.4102 208.884 17.8605 209.672 18.6019 210.118C19.0405 210.378 19.5451 210.502 19.9993 210.735C20.4573 210.968 20.8805 211.368 20.9154 211.877C20.9348 212.148 20.8416 212.412 20.7562 212.668C20.5466 213.301 20.3991 214.015 20.698 214.609C21.0008 215.207 21.9441 215.463 22.3322 214.924C24.0906 216.76 26.6681 217.777 29.2068 217.629C31.7454 217.482 34.1948 216.177 35.7281 214.155C37.4942 214.186 39.2759 214.217 41.0111 213.891C42.7501 213.565 44.4619 212.855 45.7002 211.593C46.3407 210.945 46.8414 210.06 46.8919 209.183C47.7498 209.975 48.2388 211.143 46.9074 212.707V212.703Z" fill="url(#paint21_linear_199_3569)"/>
<path d="M29.4862 217.253C29.4202 217.513 29.3232 217.757 29.1912 217.986C27.7355 220.513 22.4331 221.127 18.4582 221.849C14.1223 222.637 10.8423 223.817 7.95427 220.929C5.06627 218.041 7.43025 216.729 7.43025 216.729C7.43025 216.729 2.83428 216.861 3.49029 214.365C3.59509 213.957 3.92505 213.596 4.39474 213.278C5.01581 212.855 5.89308 212.502 6.85186 212.218C9.61953 211.384 13.0781 211.081 13.0781 211.081C13.0781 211.081 23.846 207.801 26.734 209.637C29.6221 211.477 25.29 213.705 25.29 213.705C25.29 213.705 27.4444 213.876 28.6982 214.889C29.3542 215.417 29.7618 216.174 29.4901 217.253H29.4862Z" fill="url(#paint22_linear_199_3569)"/>
<path d="M34.3228 215.875L33.826 215.584C34.0162 215.642 34.1831 215.743 34.3228 215.875Z" fill="url(#paint23_linear_199_3569)"/>
<path d="M29.9248 218.996C29.8589 219.256 29.7618 219.5 29.6298 219.729C28.1742 222.256 22.8718 222.87 18.8969 223.592C14.561 224.38 11.2809 225.56 8.39293 222.672C5.50493 219.784 7.86889 218.472 7.86889 218.472C7.86889 218.472 3.27294 218.604 3.92895 216.108C4.03375 215.7 4.36371 215.339 4.8334 215.021C5.45447 214.598 6.33174 214.244 7.29052 213.961C7.3371 214.322 7.3798 214.687 7.51954 215.017C8.02028 216.181 9.53416 216.438 10.7996 216.523C10.0465 217.245 9.96502 218.503 10.4891 219.399C11.0131 220.296 12.0418 220.832 13.0821 220.905C14.1224 220.983 15.1549 220.645 16.0555 220.117C16.203 220.036 16.3505 219.939 16.5135 219.916C16.7115 219.885 16.9133 219.947 17.1074 220.009C20.3176 221.002 23.9082 220.719 26.9243 219.229C27.7705 218.813 28.6167 218.254 28.9894 217.389C29.0903 217.156 29.1407 216.892 29.1407 216.632C29.7968 217.16 30.2043 217.917 29.9326 218.996H29.9248Z" fill="url(#paint24_linear_199_3569)"/>
<path d="M29.6298 219.729C28.1742 222.256 22.8718 222.87 18.8969 223.592C14.561 224.38 11.2809 225.56 8.39293 222.672C5.50493 219.784 7.86889 218.472 7.86889 218.472C7.86889 218.472 3.27294 218.604 3.92895 216.108C4.03375 215.7 4.36371 215.339 4.8334 215.021C4.88386 215.886 5.38071 216.76 6.09883 217.276C7.18183 218.056 8.61031 218.188 9.94562 218.083C9.0994 218.549 8.31529 219.283 8.14838 220.23C7.91936 221.507 8.90921 222.761 10.1125 223.246C11.3159 223.735 12.6667 223.638 13.9554 223.479C17.3675 223.056 20.7252 222.26 24.0751 221.464C25.9694 221.014 27.8831 220.556 29.6337 219.729H29.6298Z" fill="url(#paint25_linear_199_3569)"/>
<path d="M16.1874 341.922C16.1874 341.922 14.5649 324.198 19.4054 315.569C22.3438 310.329 27.786 308.489 31.6056 307.852" stroke="url(#paint26_linear_199_3569)" stroke-width="0.74" stroke-miterlimit="10"/>
<path d="M29.4901 310.635C27.5104 311.555 22.895 314.253 20.6669 317.122C18.5553 319.843 16.5251 317.351 17.4994 315.053C17.5538 314.929 17.6159 314.801 17.6858 314.676C18.8231 312.728 24.6263 307.324 28.2246 307.297C29.0281 307.289 29.7191 307.549 30.2276 308.174C30.2276 308.174 31.4698 309.723 29.4901 310.639V310.635Z" fill="url(#paint27_linear_199_3569)"/>
<g opacity="0.28">
<path d="M29.4901 310.635C27.5104 311.555 22.895 314.253 20.6669 317.122C18.5553 319.843 16.5251 317.351 17.4994 315.053C18.4854 315.328 19.8052 315.305 21.5636 314.684C25.6122 313.252 27.4599 309.533 28.2285 307.297C29.032 307.289 29.723 307.549 30.2315 308.174C30.2315 308.174 31.4736 309.723 29.494 310.639L29.4901 310.635Z" fill="#82007E"/>
</g>
<path d="M40.7432 317.762C40.685 318.015 36.9081 334.112 38.7596 339.706C38.7596 339.706 45.2615 329.551 40.7432 317.766V317.762Z" fill="url(#paint28_linear_199_3569)"/>
<g opacity="0.28">
<path d="M40.7354 317.766C40.6772 318.015 36.9042 334.104 38.7558 339.694C38.7558 339.694 41.5972 329.45 40.7354 317.766Z" fill="#82007E"/>
</g>
<path d="M54.3681 324.842C54.1546 325.002 40.6384 334.904 37.9988 340.746C37.9988 340.746 49.2131 337.625 54.3719 324.842H54.3681Z" fill="url(#paint29_linear_199_3569)"/>
<g opacity="0.28">
<path d="M54.3642 324.842C54.1507 324.998 40.6345 334.9 37.995 340.742C37.995 340.742 46.8919 334.768 54.3642 324.842Z" fill="#82007E"/>
</g>
<path d="M50.2107 314.055C50.0399 314.358 39.0508 333.444 39.0275 341.53C39.0275 341.53 50.8978 331.383 50.2146 314.055H50.2107Z" fill="url(#paint30_linear_199_3569)"/>
<g opacity="0.28">
<path d="M50.0399 314.059C49.873 314.354 39.0314 333.375 39.0081 341.433C39.0081 341.433 46.4299 329.524 50.0399 314.059Z" fill="#82007E"/>
</g>
<path d="M52.1555 327.971C52.0235 328.115 43.6467 337.326 42.6025 341.879C42.6025 341.879 50.3233 337.831 52.1593 327.971H52.1555Z" fill="url(#paint31_linear_199_3569)"/>
<g opacity="0.28">
<path d="M52.1089 327.971C51.9769 328.115 43.639 337.311 42.5986 341.856C42.5986 341.856 48.1689 336.189 52.1089 327.971Z" fill="#82007E"/>
</g>
<path d="M58.0751 338.161C57.8849 338.176 45.5333 339.143 41.5429 342.07C41.5429 342.07 49.7255 344.833 58.0751 338.161Z" fill="url(#paint32_linear_199_3569)"/>
<g opacity="0.28">
<path d="M58.0712 338.161C57.881 338.176 45.5294 339.147 41.5389 342.07C41.5389 342.07 49.446 341.813 58.0712 338.161Z" fill="#82007E"/>
</g>
<path d="M59.7481 329.244C59.523 329.376 45.1102 337.687 41.8573 343.23C41.8573 343.23 53.2385 341.456 59.7481 329.244Z" fill="url(#paint33_linear_199_3569)"/>
<g opacity="0.28">
<path d="M59.7481 329.248C59.523 329.376 45.1102 337.687 41.8573 343.234C41.8573 343.234 51.2821 338.316 59.7481 329.248Z" fill="#82007E"/>
</g>
<path d="M37.9911 342.695H9.06448C9.06448 342.695 9.36337 333.561 10.9549 326.419C11.4634 324.148 12.1 322.079 12.8957 320.561C16.2069 314.288 17.9497 329.625 17.9497 329.625C17.9497 329.625 20.9115 321.26 24.2226 319.866C27.5337 318.473 28.4032 329.8 28.4032 329.8C28.4032 329.8 31.8929 322.133 36.0735 322.308C40.2541 322.479 37.9872 342.695 37.9872 342.695H37.9911Z" fill="url(#paint34_linear_199_3569)"/>
<g opacity="0.46">
<path d="M37.5835 342.694H9.06448C9.06448 342.694 9.36337 333.561 10.9549 326.418C11.3314 325.145 11.7623 323.996 12.2553 323.065C15.5625 316.792 17.3054 332.128 17.3054 332.128C17.3054 332.128 20.2671 323.763 23.5821 322.37C26.8894 320.976 27.7627 332.303 27.7627 332.303C27.7627 332.303 31.2485 324.637 35.4291 324.811C38.6937 324.947 38.0338 337.283 37.5835 342.702V342.694Z" fill="#4194F2"/>
</g>
<path d="M109.327 228.41C109.327 228.41 114.096 220.385 114.323 219.926C114.549 219.467 114.177 218.683 113.744 218.23C113.31 217.777 112.911 217.532 113.021 217.373C113.131 217.214 113.625 217.552 114.021 217.947C114.417 218.343 114.498 218.743 114.498 218.743C114.498 218.743 114.533 218.259 114.211 217.796C113.804 217.217 113.06 216.853 113.05 216.718C113.04 216.583 113.825 216.71 114.443 217.315C114.89 217.753 115.018 218.139 115.018 218.139C115.018 218.139 115.076 217.689 114.715 217.203C114.355 216.716 113.868 216.529 113.848 216.283C113.827 216.037 114.704 216.482 115.137 217.055C115.521 217.566 115.581 218.531 115.581 218.531C115.581 218.531 115.731 217.987 115.911 217.714C116.091 217.441 116.511 217.506 116.511 217.506C116.511 217.506 116.223 218.018 116.16 218.586C116.096 219.153 114.997 219.981 114.881 220.147C114.764 220.313 112.873 225.515 112.873 225.515C112.873 225.515 109.75 228.435 109.333 228.412L109.327 228.41Z" fill="#68004D"/>
<path d="M101.801 233.429C101.801 233.429 94.4349 239.158 94.0092 239.441C93.5836 239.725 92.7556 239.452 92.2531 239.079C91.7506 238.706 91.4908 238.377 91.3452 238.507C91.1996 238.636 91.5627 239.045 92.0072 239.392C92.4518 239.74 92.8563 239.767 92.8563 239.767C92.8563 239.767 92.3809 239.864 91.8829 239.6C91.2583 239.271 90.806 238.576 90.6692 238.582C90.5324 238.588 90.758 239.353 91.4348 239.887C91.9256 240.279 92.3257 240.356 92.3257 240.356C92.3257 240.356 91.8867 240.472 91.3557 240.173C90.8247 239.874 90.582 239.418 90.3349 239.424C90.0895 239.435 90.6476 240.179 91.1617 240.557C91.7378 240.982 92.8642 240.868 92.8642 240.868C92.8642 240.868 92.2589 241.074 92.0118 241.287C91.7647 241.5 91.8774 241.906 91.8774 241.906C91.8774 241.906 92.3489 241.557 92.9058 241.423C93.4626 241.289 94.1441 240.098 94.2947 239.957C94.447 239.82 99.3739 237.297 99.3739 237.297C99.3739 237.297 101.88 233.835 101.808 233.422L101.801 233.429Z" fill="#68004D"/>
<path d="M87.7277 222.635C87.7508 222.669 87.7755 222.707 87.8044 222.744C88.1497 223.241 88.5895 223.735 89.1389 224.19C89.324 224.342 89.5141 224.483 89.7092 224.612C90.1805 224.93 90.6777 225.18 91.1536 225.376C92.8296 226.058 94.355 226.079 94.355 226.079C94.355 226.079 95.344 224.695 95.0393 222.794C94.8567 221.652 94.0852 220.987 93.9786 220.899L93.9653 220.89C93.8957 220.884 93.8245 220.874 93.7549 220.868C93.4831 220.836 93.2196 220.801 92.9644 220.762C92.6752 220.723 92.3968 220.675 92.1326 220.625C91.3157 220.478 90.6192 220.307 90.0214 220.13C89.7555 220.053 89.5122 219.971 89.2845 219.893C87.4541 219.258 86.8364 218.667 86.6793 218.974C86.5272 219.269 86.5665 220.377 87.1622 221.654C87.3126 221.973 87.4961 222.304 87.7236 222.637L87.7277 222.635Z" fill="#FF7F00"/>
<path d="M89.7034 224.61C90.1747 224.928 90.6719 225.178 91.1478 225.374C91.385 225.16 91.8955 224.593 92.4288 223.355C93.1579 221.665 92.9627 220.758 92.9627 220.758C92.6736 220.719 92.3952 220.671 92.1309 220.621C92.0727 221.057 91.8962 222.044 91.3643 222.945C90.8634 223.791 90.1024 224.356 89.7051 224.614L89.7034 224.61Z" fill="#FFF594"/>
<path d="M87.7277 222.635C88.0848 222.494 88.575 222.228 89.0629 221.738C89.6606 221.137 89.9161 220.508 90.0255 220.128C89.7597 220.051 89.5163 219.97 89.2886 219.892C89.1284 220.142 88.8625 220.478 88.4082 220.883C87.9239 221.309 87.4993 221.535 87.1664 221.652C87.3168 221.972 87.5003 222.302 87.7277 222.635Z" fill="#FFF594"/>
<path opacity="0.13" d="M87.7985 222.741C88.1438 223.239 88.5837 223.732 89.1331 224.187C91.349 226.028 94.3491 226.077 94.3491 226.077C94.3491 226.077 95.3381 224.692 95.0335 222.791C94.8509 221.649 94.0793 220.984 93.9727 220.897L93.749 220.865C93.749 220.865 91.8614 222.624 89.8855 222.896C88.9788 223.019 88.2812 222.906 87.796 222.747L87.7985 222.741Z" fill="#590800"/>
<path opacity="0.67" d="M93.1062 221.546C93.2696 221.535 93.2805 221.295 93.1165 221.269C92.418 221.166 91.4496 220.987 90.5222 220.705C89.6867 220.449 88.9476 220.17 88.4038 219.948C88.249 219.885 88.1362 220.097 88.2743 220.192C88.7926 220.544 89.5511 220.969 90.5497 221.285C91.4919 221.58 92.4261 221.599 93.1062 221.546Z" fill="white"/>
<path d="M122.009 244.285L121.499 245.265C121.499 245.265 119.226 243.498 118.368 243.501C117.903 243.503 115.352 244.712 113.017 245.947C111.073 246.98 109.28 248.029 108.979 248.412C108.328 249.255 108.692 251.122 108.692 251.122L107.861 251.523C107.861 251.523 104.614 248.116 101.521 242.694C100.049 240.112 98.0111 236.036 96.2589 232.355C94.3315 228.316 92.748 224.746 92.6269 224.16C92.4254 223.164 96.3566 217.247 98.5632 215.324C98.8237 215.096 99.0574 214.922 99.2584 214.823C101.173 213.861 106.38 215.278 107.435 215.956C108.494 216.632 117.971 236.472 119.556 239.182C121.141 241.892 122.005 244.287 122.005 244.287L122.009 244.285Z" fill="url(#paint35_linear_199_3569)"/>
<path d="M104.491 242.898C105.126 243.847 105.333 244.822 104.954 245.077C104.575 245.333 103.752 244.769 103.118 243.82C102.484 242.871 102.276 241.896 102.655 241.641C103.034 241.386 103.857 241.949 104.491 242.898Z" fill="#68004D"/>
<path d="M104.643 242.795C105.277 243.745 105.485 244.719 105.105 244.974C104.726 245.23 103.904 244.667 103.269 243.717C102.635 242.768 102.428 241.794 102.807 241.538C103.186 241.283 104.008 241.846 104.643 242.795Z" fill="#FF7F00"/>
<path d="M101.393 239.529C101.672 239.942 101.756 240.374 101.58 240.487C101.404 240.6 101.04 240.359 100.766 239.945C100.487 239.531 100.403 239.099 100.579 238.986C100.755 238.873 101.119 239.114 101.393 239.529Z" fill="#68004D"/>
<path d="M101.461 239.482C101.74 239.895 101.824 240.328 101.648 240.441C101.474 240.558 101.108 240.313 100.834 239.898C100.555 239.485 100.471 239.053 100.647 238.94C100.822 238.823 101.187 239.067 101.461 239.482Z" fill="#FF7F00"/>
<path d="M101.809 237.593C102.088 238.006 102.172 238.438 101.996 238.551C101.821 238.668 101.456 238.424 101.182 238.009C100.903 237.596 100.819 237.163 100.995 237.05C101.169 236.933 101.535 237.178 101.809 237.593Z" fill="#68004D"/>
<path d="M101.877 237.546C102.156 237.96 102.24 238.392 102.064 238.505C101.889 238.622 101.524 238.377 101.25 237.963C100.971 237.549 100.887 237.117 101.063 237.004C101.238 236.887 101.603 237.132 101.877 237.546Z" fill="#FF7F00"/>
<path d="M98.0803 232.797C98.3299 233.173 98.4062 233.561 98.2507 233.666C98.0952 233.77 97.7637 233.551 97.5099 233.176C97.2603 232.799 97.184 232.412 97.3395 232.307C97.4949 232.202 97.8265 232.422 98.0803 232.797Z" fill="#68004D"/>
<path d="M98.1442 232.752C98.3938 233.129 98.4701 233.516 98.3147 233.621C98.1592 233.726 97.8277 233.506 97.5739 233.131C97.3201 232.756 97.2479 232.367 97.4034 232.262C97.5588 232.158 97.8904 232.377 98.1442 232.752Z" fill="#FF7F00"/>
<path d="M98.7656 234.835C98.8859 235.018 98.9274 235.208 98.8467 235.259C98.7703 235.308 98.609 235.204 98.4887 235.021C98.3685 234.838 98.327 234.648 98.4076 234.597C98.4841 234.548 98.6453 234.652 98.7656 234.835Z" fill="#68004D"/>
<path d="M98.7955 234.813C98.9158 234.996 98.9573 235.186 98.8766 235.237C98.796 235.289 98.6389 235.183 98.5186 235C98.3984 234.817 98.3569 234.627 98.4375 234.576C98.514 234.526 98.6752 234.631 98.7955 234.813Z" fill="#FF7F00"/>
<path d="M103.349 240.104C103.569 240.43 103.636 240.769 103.499 240.861C103.363 240.953 103.075 240.76 102.855 240.434C102.635 240.108 102.569 239.77 102.705 239.677C102.841 239.585 103.129 239.779 103.349 240.104Z" fill="#68004D"/>
<path d="M103.402 240.069C103.622 240.395 103.689 240.733 103.553 240.826C103.416 240.918 103.128 240.724 102.908 240.399C102.688 240.073 102.622 239.734 102.758 239.642C102.895 239.549 103.182 239.743 103.402 240.069Z" fill="#FF7F00"/>
<path d="M106.474 228.496C108.457 227.544 109.001 224.556 107.689 221.822C106.377 219.088 103.706 217.642 101.723 218.594C99.7402 219.545 99.1963 222.533 100.508 225.268C101.82 228.002 104.491 229.447 106.474 228.496Z" fill="#68004D"/>
<path d="M100.312 225.909C101.83 228.535 101.872 231.351 100.407 232.199C98.9422 233.047 96.5207 231.608 94.9987 228.984C93.4808 226.357 93.4386 223.542 94.9038 222.694C96.369 221.846 98.7904 223.285 100.312 225.909Z" fill="#68004D"/>
<path d="M101.091 225.328C102.391 227.67 104.669 228.82 106.18 227.892C107.686 226.965 107.854 224.316 106.553 221.974C105.253 219.631 102.975 218.482 101.465 219.41C99.9543 220.338 99.7907 222.985 101.091 225.328Z" fill="#CAE7EF"/>
<path d="M105.799 227.857C107.295 227.09 107.563 224.625 106.398 222.352C105.232 220.079 103.074 218.859 101.577 219.626C100.081 220.393 99.8133 222.858 100.979 225.131C102.145 227.404 104.303 228.624 105.799 227.857Z" fill="white"/>
<path d="M102.229 224.648C103.046 226.12 104.478 226.841 105.425 226.26C106.371 225.68 106.477 224.015 105.66 222.543C104.843 221.07 103.411 220.35 102.464 220.93C101.517 221.511 101.412 223.175 102.229 224.648Z" fill="url(#paint36_linear_199_3569)"/>
<path d="M102.733 224.381C103.316 225.432 104.342 225.949 105.017 225.533C105.693 225.117 105.769 223.925 105.186 222.874C104.602 221.823 103.577 221.306 102.902 221.722C102.226 222.138 102.15 223.33 102.733 224.381Z" fill="#590800"/>
<path d="M103.963 222.719C104.3 223.33 105.01 223.558 105.548 223.231C106.085 222.903 106.24 222.141 105.903 221.53C105.565 220.919 104.856 220.691 104.318 221.019C103.78 221.346 103.625 222.108 103.963 222.719Z" fill="white"/>
<path d="M103.968 224.287C104.09 224.512 104.354 224.595 104.547 224.476C104.744 224.355 104.802 224.077 104.675 223.854C104.548 223.63 104.289 223.545 104.097 223.665C103.9 223.786 103.841 224.063 103.968 224.287Z" fill="white"/>
<path d="M95.9697 229.133C97.4244 231.198 99.4916 232.105 100.585 231.154C101.678 230.203 101.389 227.759 99.9328 225.689C98.4781 223.624 96.4109 222.718 95.3176 223.668C94.2242 224.619 94.5134 227.063 95.9697 229.133Z" fill="#CAE7EF"/>
<path d="M95.9697 229.133C97.3568 231.1 99.3239 231.96 100.369 231.057C101.412 230.15 101.131 227.823 99.7481 225.854C98.361 223.886 96.3939 223.027 95.3488 223.929C94.3054 224.836 94.5867 227.164 95.9697 229.133Z" fill="white"/>
<path d="M100.13 229.448C100.892 228.965 100.82 227.484 99.9683 226.141C99.117 224.798 97.8089 224.1 97.0467 224.583C96.2844 225.066 96.3565 226.547 97.2079 227.89C98.0592 229.234 99.3672 229.931 100.13 229.448Z" fill="url(#paint37_linear_199_3569)"/>
<path d="M97.7111 227.83C98.3655 228.757 99.2941 229.163 99.7841 228.739C100.277 228.309 100.146 227.213 99.4917 226.286C98.8373 225.359 97.9088 224.953 97.4187 225.377C96.9287 225.801 97.0567 226.903 97.7111 227.83Z" fill="#590800"/>
<path d="M98.1375 226.783C98.5174 227.319 99.1402 227.486 99.5288 227.145C99.919 226.809 99.9253 226.096 99.5453 225.559C99.1654 225.023 98.5426 224.856 98.154 225.197C97.7638 225.534 97.7575 226.247 98.1375 226.783Z" fill="white"/>
<path d="M98.2464 228.103C98.3857 228.298 98.6126 228.362 98.7557 228.238C98.8988 228.114 98.9016 227.854 98.7623 227.659C98.623 227.465 98.3961 227.401 98.253 227.525C98.1098 227.648 98.1071 227.909 98.2464 228.103Z" fill="white"/>
<path d="M122.01 244.285L121.499 245.265C121.499 245.265 119.226 243.498 118.368 243.501C117.514 243.503 109.636 247.571 108.979 248.412C108.328 249.255 108.692 251.122 108.692 251.122C108.692 251.122 107.844 248.673 108.236 247.793C108.628 246.914 115.946 243.033 116.276 241.001C116.605 238.966 111.272 225.131 108.148 220.58C105.025 216.03 98.5632 215.324 98.5632 215.324C98.8237 215.096 99.0574 214.922 99.2584 214.823C101.173 213.861 106.38 215.278 107.435 215.956C108.494 216.632 117.971 236.472 119.556 239.182C121.141 241.892 122.005 244.287 122.005 244.287L122.01 244.285Z" fill="#68004D"/>
<path d="M110.549 211.384C110.565 211.426 110.572 211.467 110.588 211.508C110.76 212.088 110.869 212.741 110.881 213.452C110.884 213.691 110.877 213.928 110.855 214.163C110.807 214.734 110.693 215.273 110.544 215.769C110.023 217.501 109.088 218.706 109.088 218.706C109.088 218.706 107.389 218.61 106.097 217.186C105.322 216.33 105.283 215.309 105.281 215.17L105.276 215.158C105.319 215.098 105.357 215.035 105.396 214.976C105.543 214.74 105.679 214.514 105.809 214.295C105.959 214.043 106.092 213.798 106.224 213.559C106.618 212.832 106.922 212.179 107.16 211.605C107.265 211.347 107.358 211.109 107.436 210.881C108.087 209.054 108.011 208.206 108.346 208.275C108.669 208.34 109.513 209.067 110.136 210.328C110.291 210.646 110.434 210.998 110.553 211.383L110.549 211.384Z" fill="#FF7F00"/>
<path d="M110.855 214.163C110.807 214.734 110.693 215.273 110.544 215.769C110.231 215.816 109.467 215.863 108.168 215.503C106.395 215.013 105.808 214.294 105.808 214.294C105.959 214.043 106.092 213.798 106.224 213.559C106.602 213.789 107.482 214.267 108.516 214.415C109.492 214.553 110.406 214.316 110.855 214.163Z" fill="#FFF594"/>
<path d="M110.549 211.384C110.211 211.575 109.701 211.791 109.014 211.861C108.17 211.95 107.519 211.761 107.154 211.602C107.259 211.345 107.352 211.107 107.43 210.879C107.726 210.911 108.155 210.914 108.753 210.812C109.388 210.705 109.834 210.51 110.13 210.326C110.285 210.644 110.428 210.995 110.547 211.38L110.549 211.384Z" fill="#FFF594"/>
<path opacity="0.13" d="M110.59 211.512C110.761 212.092 110.871 212.745 110.882 213.456C110.933 216.34 109.092 218.705 109.092 218.705C109.092 218.705 107.393 218.608 106.101 217.184C105.326 216.329 105.287 215.307 105.285 215.169L105.4 214.974C105.4 214.974 107.956 214.603 109.401 213.23C110.064 212.599 110.412 211.986 110.592 211.506L110.59 211.512Z" fill="#590800"/>
<path opacity="0.67" d="M106.337 214.902C106.226 215.022 106.03 214.879 106.113 214.736C106.471 214.124 106.935 213.259 107.295 212.358C107.618 211.549 107.863 210.794 108.03 210.234C108.078 210.076 108.316 210.121 108.3 210.286C108.249 210.91 108.108 211.768 107.73 212.743C107.373 213.662 106.801 214.401 106.337 214.902Z" fill="white"/>
<path d="M122.009 244.285C122.009 244.285 123.683 241.171 124.091 241.11C124.499 241.05 123.474 243.581 123.474 243.581C123.474 243.581 125.315 241.51 125.694 241.619C126.142 241.745 124.094 244.105 124.094 244.105C124.094 244.105 126.211 243.244 126.255 243.731C126.291 244.101 122.622 245.301 122.106 245.332C121.665 245.357 121.497 245.26 121.497 245.26L122.008 244.281L122.009 244.285Z" fill="#68004D"/>
<path d="M107.861 251.523C107.861 251.523 104.395 253.224 104.67 253.542C104.945 253.861 107.384 252.513 107.384 252.513C107.384 252.513 105.904 254.308 106.132 254.606C106.357 254.906 108.304 252.826 108.304 252.826C108.304 252.826 108.468 254.831 108.918 254.696C109.369 254.561 108.688 251.124 108.688 251.124L107.857 251.524L107.861 251.523Z" fill="#68004D"/>
<path d="M98.1596 215.699C98.1596 215.699 93.7608 213.655 93.9775 213.195C94.1941 212.735 98.3565 215.007 98.3565 215.007C98.3565 215.007 94.6786 210.681 95.1558 210.151C95.6372 209.62 99.2337 214.396 99.2337 214.396C99.2337 214.396 97.3905 209.076 98.5641 208.353C99.7361 207.626 99.8348 213.78 99.8348 213.78C99.8348 213.78 101.353 211.499 102.132 211.537C102.908 211.571 100.641 214.508 100.641 214.508L98.1638 215.698L98.1596 215.699Z" fill="#3F0300"/>
<path d="M113.992 237.079C114.21 237.776 114.615 238.268 114.893 238.183C115.172 238.097 115.221 237.458 115 236.763C114.782 236.066 114.376 235.574 114.098 235.66C113.82 235.746 113.77 236.385 113.992 237.079Z" fill="#68004D"/>
<path d="M113.876 237.116C114.094 237.812 114.5 238.305 114.778 238.219C115.056 238.133 115.106 237.494 114.884 236.799C114.667 236.102 114.261 235.61 113.983 235.696C113.705 235.782 113.655 236.421 113.876 237.116Z" fill="#FF7F00"/>
<path d="M112.222 235.542C112.332 235.892 112.537 236.142 112.677 236.097C112.817 236.051 112.841 235.734 112.731 235.384C112.622 235.033 112.417 234.783 112.277 234.829C112.136 234.875 112.113 235.191 112.222 235.542Z" fill="#68004D"/>
<path d="M112.163 235.561C112.272 235.911 112.477 236.161 112.617 236.115C112.757 236.07 112.781 235.753 112.672 235.403C112.562 235.052 112.357 234.802 112.217 234.848C112.077 234.894 112.053 235.21 112.163 235.561Z" fill="#FF7F00"/>
<path d="M112.752 233.892C113.021 234.549 113.455 234.992 113.715 234.885C113.981 234.78 113.969 234.155 113.7 233.498C113.431 232.842 112.997 232.399 112.737 232.506C112.471 232.611 112.482 233.236 112.752 233.892Z" fill="#68004D"/>
<path d="M112.645 233.939C112.914 234.596 113.349 235.039 113.609 234.932C113.874 234.827 113.863 234.202 113.594 233.545C113.324 232.888 112.89 232.446 112.63 232.553C112.365 232.658 112.376 233.282 112.645 233.939Z" fill="#FF7F00"/>
<path d="M111.663 230.117C111.797 230.444 112.012 230.661 112.139 230.606C112.268 230.555 112.267 230.248 112.133 229.922C111.999 229.596 111.784 229.378 111.657 229.433C111.528 229.484 111.529 229.791 111.663 230.117Z" fill="#68004D"/>
<path d="M111.615 230.141C111.748 230.467 111.964 230.685 112.091 230.63C112.22 230.579 112.218 230.272 112.085 229.946C111.951 229.619 111.735 229.402 111.608 229.457C111.48 229.508 111.481 229.815 111.615 230.141Z" fill="#FF7F00"/>
<path d="M110.091 226.37C110.225 226.697 110.44 226.914 110.567 226.859C110.696 226.808 110.695 226.501 110.561 226.175C110.427 225.848 110.212 225.631 110.085 225.686C109.956 225.737 109.957 226.044 110.091 226.37Z" fill="#68004D"/>
<path d="M110.037 226.391C110.171 226.718 110.386 226.935 110.513 226.88C110.642 226.829 110.641 226.522 110.507 226.196C110.373 225.87 110.158 225.652 110.031 225.707C109.902 225.758 109.903 226.065 110.037 226.391Z" fill="#FF7F00"/>
<path d="M109.109 226.777C109.208 227.026 109.374 227.191 109.473 227.152C109.573 227.112 109.572 226.878 109.469 226.63C109.37 226.381 109.204 226.216 109.105 226.256C109.005 226.295 109.007 226.53 109.109 226.777Z" fill="#68004D"/>
<path d="M109.068 226.794C109.166 227.043 109.332 227.208 109.432 227.168C109.531 227.129 109.53 226.894 109.427 226.647C109.329 226.398 109.163 226.233 109.063 226.272C108.964 226.312 108.965 226.546 109.068 226.794Z" fill="#FF7F00"/>
<path d="M105.705 217.604C105.705 217.604 104.321 217.417 103.131 217.748C101.943 218.083 100.246 218.768 100.246 218.768L100.708 218.211C100.708 218.211 100.448 218.247 100.017 218.067C99.6783 217.927 98.944 217.271 98.944 217.271C98.944 217.271 100.2 216.866 101.633 216.434C103.623 215.835 105.052 216.499 105.052 216.499L104.665 216.662C104.665 216.662 105.443 217.185 105.709 217.603L105.705 217.604Z" fill="#3F0300"/>
<path opacity="0.61" d="M104.381 216.452C104.381 216.452 103.588 216.171 102.367 216.384C101.145 216.598 100.022 217.119 100.022 217.119L100.872 217.071L99.6904 217.399C99.6904 217.399 100.317 217.708 101.63 217.194C103.38 216.507 104.494 216.883 104.494 216.883L103.994 216.519L104.385 216.451L104.381 216.452Z" fill="#8C130D"/>
<path d="M93.6191 223.403C93.6191 223.403 94.0855 222.494 94.7337 221.935C95.6165 221.169 96.4969 220.773 96.4969 220.773L95.9773 220.733C95.9773 220.733 96.1014 220.598 96.1634 220.233C96.2144 219.949 96.1116 219.13 96.1116 219.13C96.1116 219.13 95.7852 219.288 94.5383 220.275C93.1858 221.347 93.2122 222.373 93.2122 222.373L93.4632 222.231C93.4632 222.231 93.4683 222.997 93.6159 223.395L93.6191 223.403Z" fill="#3F0300"/>
<path opacity="0.61" d="M93.4774 222C93.4774 222 93.6235 221.361 94.2404 220.748C94.8573 220.134 95.7116 219.624 95.7116 219.624L95.2473 220.235L95.9144 219.712C95.9144 219.712 95.6711 220.202 95.0188 220.762C94.3623 221.324 93.6883 222.315 93.6883 222.315L93.6705 221.808L93.4749 222.006L93.4774 222Z" fill="#8C130D"/>
<path opacity="0.24" d="M100.487 232.983C100.487 232.983 102.562 235.039 104.692 234.648C106.821 234.263 107.666 232.235 107.666 232.235C107.666 232.235 106.251 234.267 104.263 234.314C102.304 234.363 100.487 232.983 100.487 232.983Z" fill="white"/>
<path d="M109.535 227.963L109.785 229.933L110.801 231.106L109.044 231.81L109.389 232.173C109.389 232.173 108.8 233.515 107.545 234.577C106.3 235.631 104.598 236.121 104.598 236.121L102.319 235.25L100.393 235.176L99.6023 232.81C99.6023 232.81 103.097 236.393 105.825 234.854C109.059 233.028 109.532 227.969 109.532 227.969L109.535 227.963Z" fill="#68004D"/>
<path d="M100.338 233.628L100.401 235.427L101.504 234.463L100.338 233.628Z" fill="white"/>
<path d="M102.174 234.774L102.171 235.861L102.991 235.201L102.174 234.774Z" fill="white"/>
<path d="M104.206 235.349L104.689 236.363L105.282 235.265L104.206 235.349Z" fill="white"/>
<path d="M106.53 234.585L107.899 234.72L107.589 233.729L106.53 234.585Z" fill="white"/>
<path d="M108.833 231.01L110.801 231.106L109.274 229.343L108.833 231.01Z" fill="white"/>
<path d="M108.138 232.629L109.389 232.173L108.694 231.449L108.138 232.629Z" fill="white"/>
<path d="M99.6798 232.702C99.6798 232.702 102.924 236.149 105.81 234.682C108.696 233.215 109.452 227.876 109.452 227.876L109.577 227.85C109.577 227.85 109.298 233.62 106.062 235.173C102.756 236.758 99.6566 232.899 99.6566 232.899L99.684 232.701L99.6798 232.702Z" fill="#590800"/>
<path d="M107.998 227.913C107.998 227.913 108.698 227.838 109.588 228.086C110.484 228.337 110.942 228.756 110.942 228.756C110.942 228.756 110.323 227.858 109.533 227.57C108.742 227.282 107.998 227.913 107.998 227.913Z" fill="#68004D"/>
<path d="M100.155 231.852C100.155 231.852 99.8638 232.5 99.7132 233.03C99.5643 233.564 99.7373 234.633 99.7373 234.633C99.7373 234.633 99.2233 233.819 99.296 233.079C99.3774 232.241 100.153 231.848 100.153 231.848L100.155 231.852Z" fill="#68004D"/>
<path d="M115.966 217.112C114.737 217.597 113.285 216.851 112.621 215.755C111.861 214.5 111.931 212.926 112.051 211.857C112.086 211.545 112.127 211.236 112.168 210.927C112.299 209.982 112.431 209.004 112.317 208.06C112.192 207.015 111.612 205.645 110.395 205.214C109.966 205.062 109.501 205.039 109.012 205.017C108.698 205.001 108.381 204.987 108.063 204.936C106.207 204.637 104.659 202.93 104.532 201.055C104.47 200.12 104.724 199.208 104.967 198.329C105.06 198.005 105.146 197.677 105.223 197.349C105.415 196.51 105.596 194.965 104.696 194.034C104.266 193.59 103.674 193.368 103.043 193.132C102.766 193.026 102.478 192.918 102.207 192.79C100.914 192.178 99.9037 191.056 99.4243 189.709C98.9449 188.362 99.025 186.852 99.6388 185.563C99.6907 185.451 99.8252 185.403 99.9386 185.459C100.05 185.511 100.099 185.645 100.043 185.758C99.4781 186.942 99.4068 188.328 99.8477 189.565C100.289 190.803 101.219 191.832 102.402 192.397C102.656 192.517 102.937 192.622 103.209 192.726C103.853 192.97 104.522 193.219 105.024 193.736C106.076 194.819 105.88 196.533 105.666 197.462C105.591 197.795 105.498 198.129 105.404 198.464C105.159 199.348 104.925 200.179 104.988 201.043C105.098 202.718 106.488 204.243 108.144 204.51C108.437 204.557 108.744 204.57 109.042 204.582C109.541 204.606 110.059 204.631 110.551 204.807C111.964 205.309 112.627 206.852 112.767 208.021C112.884 209.021 112.75 210.03 112.62 211.002C112.578 211.307 112.537 211.616 112.504 211.922C112.394 212.931 112.323 214.404 113.013 215.542C113.599 216.516 114.982 217.198 116.015 216.617C116.121 216.556 116.262 216.596 116.318 216.704C116.379 216.809 116.339 216.95 116.232 217.007C116.145 217.055 116.06 217.094 115.973 217.128L115.966 217.112Z" fill="#FF8A8A"/>
<path d="M99.5025 183.068L98.9419 183.289L98.8049 183.343L98.2444 183.565L98.2318 186.8L99.9092 186.138L100.046 186.083L101.724 185.421L99.5025 183.068Z" fill="#FF9B48"/>
<path d="M106.358 168.928C108.745 174.97 105.598 181.873 99.328 184.351C98.7342 184.586 98.1349 184.77 97.539 184.914C97.5307 184.917 97.5266 184.919 97.5266 184.919C91.7615 186.256 85.8126 183.375 83.6517 177.906C81.4907 172.438 84.0234 165.873 89.4887 163.036C89.4887 163.036 89.4871 163.032 89.4929 163.035C89.8776 162.83 90.2763 162.648 90.6873 162.486C96.957 160.008 103.974 162.895 106.36 168.932L106.358 168.928Z" fill="#FF9B48"/>
<path d="M94.5734 170.801C95.7314 170.343 96.2992 169.034 95.8416 167.876C95.3839 166.718 94.0742 166.15 92.9161 166.607C91.7581 167.065 91.1903 168.375 91.6479 169.533C92.1056 170.691 93.4153 171.259 94.5734 170.801Z" fill="#FFEF9A"/>
<path d="M91.4176 175.279C91.7687 176.167 91.3343 177.17 90.4457 177.521C89.5572 177.872 88.555 177.437 88.2039 176.549C87.8527 175.66 88.2872 174.658 89.1757 174.307C90.0643 173.956 91.0664 174.39 91.4176 175.279Z" fill="#FFEF9A"/>
<path d="M95.3238 175.348C95.787 175.165 96.0141 174.641 95.8311 174.178C95.648 173.715 95.1241 173.488 94.6609 173.671C94.1977 173.854 93.9706 174.378 94.1536 174.841C94.3367 175.304 94.8606 175.531 95.3238 175.348Z" fill="#FFEF9A"/>
<path d="M103.381 169.985C103.946 171.413 103.245 173.029 101.817 173.594C100.389 174.158 98.7723 173.457 98.2078 172.029C97.6434 170.601 98.344 168.985 99.7723 168.42C101.201 167.856 102.817 168.556 103.381 169.985Z" fill="#FFEF9A"/>
<path d="M102.44 177.625C102.745 178.397 102.366 179.272 101.594 179.577C100.822 179.882 99.9468 179.503 99.6416 178.731C99.3364 177.958 99.7156 177.084 100.488 176.778C101.26 176.473 102.135 176.852 102.44 177.625Z" fill="#FFEF9A"/>
<path d="M97.8689 180.161C98.3321 179.978 98.5592 179.454 98.3762 178.991C98.1931 178.527 97.6692 178.3 97.206 178.483C96.7428 178.666 96.5157 179.19 96.6987 179.653C96.8818 180.117 97.4057 180.344 97.8689 180.161Z" fill="#FFEF9A"/>
<path d="M92.3254 181.463C92.5534 182.04 92.2697 182.695 91.6925 182.923C91.1154 183.151 90.4608 182.867 90.2327 182.29C90.0046 181.713 90.2884 181.059 90.8656 180.83C91.4427 180.602 92.0973 180.886 92.3254 181.463Z" fill="#FFEF9A"/>
<path d="M86.5386 170.501C87.1944 170.241 87.516 169.5 87.2568 168.844C86.9976 168.188 86.2559 167.866 85.6 168.126C84.9442 168.385 84.6226 169.127 84.8818 169.782C85.141 170.438 85.8827 170.76 86.5386 170.501Z" fill="#FFEF9A"/>
<path opacity="0.27" d="M106.399 169.032C108.786 175.073 105.639 181.977 99.369 184.455C98.7753 184.689 98.1759 184.873 97.5801 185.018C97.5718 185.021 97.5676 185.023 97.5676 185.023C97.5676 185.023 103.848 180.131 100.844 172.067C97.885 164.13 89.7842 163.165 89.5339 163.139C89.9186 162.934 90.3173 162.752 90.7284 162.59C96.9981 160.112 104.015 162.999 106.401 169.036L106.399 169.032Z" fill="#FF5E4D"/>
<path opacity="0.29" d="M86.3469 167.149C83.7331 171.893 83.5261 174.6 84.9262 177.839C86.3279 181.083 88.3527 182.015 91.1363 181.516C93.9215 181.02 94.6982 178.855 93.4927 176.873C92.2872 174.892 90.5594 173.703 89.7078 170.952C88.8562 168.202 89.7924 167.17 89.2584 165.989C88.7245 164.807 86.8415 166.238 86.3436 167.14L86.3469 167.149Z" fill="#FFF9DD"/>
</g>
<defs>
<linearGradient id="paint0_linear_199_3569" x1="145.5" y1="0" x2="145.5" y2="342" gradientUnits="userSpaceOnUse">
<stop stop-color="#42ADFF"/>
<stop offset="0.328125" stop-color="#A6A9ED"/>
<stop offset="0.682292" stop-color="#FFA6DD"/>
</linearGradient>
<linearGradient id="paint1_linear_199_3569" x1="-25.2422" y1="307.386" x2="78.6017" y2="307.386" gradientUnits="userSpaceOnUse">
<stop stop-color="#90C9FD"/>
<stop offset="0.27" stop-color="#8AC3FD"/>
<stop offset="0.62" stop-color="#79B5FD"/>
<stop offset="1" stop-color="#5F9EFD"/>
</linearGradient>
<linearGradient id="paint2_linear_199_3569" x1="184.472" y1="293.695" x2="408.777" y2="293.695" gradientUnits="userSpaceOnUse">
<stop stop-color="#90C9FD"/>
<stop offset="0.27" stop-color="#8AC3FD"/>
<stop offset="0.62" stop-color="#79B5FD"/>
<stop offset="1" stop-color="#5F9EFD"/>
</linearGradient>
<linearGradient id="paint3_linear_199_3569" x1="-22.8317" y1="304.413" x2="169.442" y2="304.413" gradientUnits="userSpaceOnUse">
<stop stop-color="#90C9FD"/>
<stop offset="0.27" stop-color="#8AC3FD"/>
<stop offset="0.62" stop-color="#79B5FD"/>
<stop offset="1" stop-color="#5F9EFD"/>
</linearGradient>
<linearGradient id="paint4_linear_199_3569" x1="143.43" y1="346.553" x2="143.43" y2="299.576" gradientUnits="userSpaceOnUse">
<stop stop-color="#74BCFD"/>
<stop offset="0.19" stop-color="#79BEFD"/>
<stop offset="0.43" stop-color="#8AC6FD"/>
<stop offset="0.71" stop-color="#A5D3FD"/>
<stop offset="1" stop-color="#CAE4FD"/>
</linearGradient>
<linearGradient id="paint5_linear_199_3569" x1="240.811" y1="289.305" x2="356.945" y2="331.449" gradientUnits="userSpaceOnUse">
<stop stop-color="#478CEC"/>
<stop offset="1" stop-color="#8AC8F9"/>
</linearGradient>
<linearGradient id="paint6_linear_199_3569" x1="53.0289" y1="296.343" x2="53.0289" y2="336.037" gradientUnits="userSpaceOnUse">
<stop stop-color="#D1FAFF"/>
<stop offset="1" stop-color="#4194F2"/>
</linearGradient>
<linearGradient id="paint7_linear_199_3569" x1="40.7975" y1="317.277" x2="14.0952" y2="356.339" gradientUnits="userSpaceOnUse">
<stop stop-color="#FFA6DD" stop-opacity="0.5"/>
<stop offset="0.21" stop-color="#F2AFDD" stop-opacity="0.63"/>
<stop offset="0.57" stop-color="#DFBDDE" stop-opacity="0.83"/>
<stop offset="0.84" stop-color="#D3C6DF" stop-opacity="0.95"/>
<stop offset="1" stop-color="#CFCAE0"/>
</linearGradient>
<linearGradient id="paint8_linear_199_3569" x1="-4.52544" y1="217.132" x2="-4.52544" y2="344.286" gradientUnits="userSpaceOnUse">
<stop stop-color="#6E0782"/>
<stop offset="1" stop-color="#08204D"/>
</linearGradient>
<linearGradient id="paint9_linear_199_3569" x1="-2.66997" y1="246.696" x2="0.870157" y2="246.696" gradientUnits="userSpaceOnUse">
<stop stop-color="#6E0782"/>
<stop offset="1" stop-color="#08204D"/>
</linearGradient>
<linearGradient id="paint10_linear_199_3569" x1="69.3953" y1="270.709" x2="56.7876" y2="292.485" gradientUnits="userSpaceOnUse">
<stop stop-color="#DCED00"/>
<stop offset="1" stop-color="#9CA000"/>
</linearGradient>
<linearGradient id="paint11_linear_199_3569" x1="61.3161" y1="275.445" x2="63.9661" y2="277.342" gradientUnits="userSpaceOnUse">
<stop stop-color="#A43113"/>
<stop offset="1" stop-color="#6F160D"/>
</linearGradient>
<linearGradient id="paint12_linear_199_3569" x1="68.9846" y1="280.773" x2="66.4059" y2="278.78" gradientUnits="userSpaceOnUse">
<stop stop-color="#A43113"/>
<stop offset="1" stop-color="#6F160D"/>
</linearGradient>
<linearGradient id="paint13_linear_199_3569" x1="33.4766" y1="228.906" x2="16.56" y2="261.155" gradientUnits="userSpaceOnUse">
<stop stop-color="#FFA6DD"/>
<stop offset="0.12" stop-color="#FAA2DC"/>
<stop offset="0.26" stop-color="#EB97D9"/>
<stop offset="0.41" stop-color="#D485D5"/>
<stop offset="0.56" stop-color="#B36BD0"/>
<stop offset="0.72" stop-color="#894AC9"/>
<stop offset="0.89" stop-color="#5623C0"/>
<stop offset="1" stop-color="#2E04BA"/>
</linearGradient>
<linearGradient id="paint14_linear_199_3569" x1="29.5017" y1="235.361" x2="23.5083" y2="251.816" gradientUnits="userSpaceOnUse">
<stop stop-color="#FFA6DD" stop-opacity="0.5"/>
<stop offset="0.21" stop-color="#F2AFDD" stop-opacity="0.63"/>
<stop offset="0.57" stop-color="#DFBDDE" stop-opacity="0.83"/>
<stop offset="0.84" stop-color="#D3C6DF" stop-opacity="0.95"/>
<stop offset="1" stop-color="#CFCAE0"/>
</linearGradient>
<linearGradient id="paint15_linear_199_3569" x1="27.8559" y1="240.636" x2="18.1516" y2="251.618" gradientUnits="userSpaceOnUse">
<stop stop-color="#FFA6DD" stop-opacity="0.5"/>
<stop offset="0.21" stop-color="#F2AFDD" stop-opacity="0.63"/>
<stop offset="0.57" stop-color="#DFBDDE" stop-opacity="0.83"/>
<stop offset="0.84" stop-color="#D3C6DF" stop-opacity="0.95"/>
<stop offset="1" stop-color="#CFCAE0"/>
</linearGradient>
<linearGradient id="paint16_linear_199_3569" x1="39.862" y1="203.189" x2="18.0273" y2="229.752" gradientUnits="userSpaceOnUse">
<stop stop-color="#FFA6DD"/>
<stop offset="0.12" stop-color="#FAA2DC"/>
<stop offset="0.26" stop-color="#EB97D9"/>
<stop offset="0.41" stop-color="#D485D5"/>
<stop offset="0.56" stop-color="#B36BD0"/>
<stop offset="0.72" stop-color="#894AC9"/>
<stop offset="0.89" stop-color="#5623C0"/>
<stop offset="1" stop-color="#2E04BA"/>
</linearGradient>
<linearGradient id="paint17_linear_199_3569" x1="34.0977" y1="210.433" x2="20.5349" y2="221.041" gradientUnits="userSpaceOnUse">
<stop stop-color="#FFA6DD" stop-opacity="0.5"/>
<stop offset="0.21" stop-color="#F2AFDD" stop-opacity="0.63"/>
<stop offset="0.57" stop-color="#DFBDDE" stop-opacity="0.83"/>
<stop offset="0.84" stop-color="#D3C6DF" stop-opacity="0.95"/>
<stop offset="1" stop-color="#CFCAE0"/>
</linearGradient>
<linearGradient id="paint18_linear_199_3569" x1="13.6099" y1="212.082" x2="41.9582" y2="212.082" gradientUnits="userSpaceOnUse">
<stop stop-color="#FFA6DD" stop-opacity="0.5"/>
<stop offset="0.21" stop-color="#F2AFDD" stop-opacity="0.63"/>
<stop offset="0.57" stop-color="#DFBDDE" stop-opacity="0.83"/>
<stop offset="0.84" stop-color="#D3C6DF" stop-opacity="0.95"/>
<stop offset="1" stop-color="#CFCAE0"/>
</linearGradient>
<linearGradient id="paint19_linear_199_3569" x1="9.89129" y1="199.482" x2="-4.75834" y2="227.407" gradientUnits="userSpaceOnUse">
<stop stop-color="#FFA6DD"/>
<stop offset="0.12" stop-color="#FAA2DC"/>
<stop offset="0.26" stop-color="#EB97D9"/>
<stop offset="0.41" stop-color="#D485D5"/>
<stop offset="0.56" stop-color="#B36BD0"/>
<stop offset="0.72" stop-color="#894AC9"/>
<stop offset="0.89" stop-color="#5623C0"/>
<stop offset="1" stop-color="#2E04BA"/>
</linearGradient>
<linearGradient id="paint20_linear_199_3569" x1="9.65448" y1="202.378" x2="-0.85723" y2="215.766" gradientUnits="userSpaceOnUse">
<stop stop-color="#FFA6DD" stop-opacity="0.5"/>
<stop offset="0.21" stop-color="#F2AFDD" stop-opacity="0.63"/>
<stop offset="0.57" stop-color="#DFBDDE" stop-opacity="0.83"/>
<stop offset="0.84" stop-color="#D3C6DF" stop-opacity="0.95"/>
<stop offset="1" stop-color="#CFCAE0"/>
</linearGradient>
<linearGradient id="paint21_linear_199_3569" x1="34.1909" y1="206.275" x2="26.5866" y2="217.528" gradientUnits="userSpaceOnUse">
<stop stop-color="#FFA6DD" stop-opacity="0.5"/>
<stop offset="0.21" stop-color="#F2AFDD" stop-opacity="0.63"/>
<stop offset="0.57" stop-color="#DFBDDE" stop-opacity="0.83"/>
<stop offset="0.84" stop-color="#D3C6DF" stop-opacity="0.95"/>
<stop offset="1" stop-color="#CFCAE0"/>
</linearGradient>
<linearGradient id="paint22_linear_199_3569" x1="19.8789" y1="209.396" x2="10.4386" y2="227.396" gradientUnits="userSpaceOnUse">
<stop stop-color="#FFA6DD"/>
<stop offset="0.12" stop-color="#FAA2DC"/>
<stop offset="0.26" stop-color="#EB97D9"/>
<stop offset="0.41" stop-color="#D485D5"/>
<stop offset="0.56" stop-color="#B36BD0"/>
<stop offset="0.72" stop-color="#894AC9"/>
<stop offset="0.89" stop-color="#5623C0"/>
<stop offset="1" stop-color="#2E04BA"/>
</linearGradient>
<linearGradient id="paint23_linear_199_3569" x1="34.1481" y1="215.685" x2="33.9773" y2="215.789" gradientUnits="userSpaceOnUse">
<stop stop-color="#FFA6DD" stop-opacity="0.5"/>
<stop offset="0.21" stop-color="#F2AFDD" stop-opacity="0.63"/>
<stop offset="0.57" stop-color="#DFBDDE" stop-opacity="0.83"/>
<stop offset="0.84" stop-color="#D3C6DF" stop-opacity="0.95"/>
<stop offset="1" stop-color="#CFCAE0"/>
</linearGradient>
<linearGradient id="paint24_linear_199_3569" x1="23.0736" y1="214.027" x2="9.08" y2="222.652" gradientUnits="userSpaceOnUse">
<stop stop-color="#FFA6DD" stop-opacity="0.5"/>
<stop offset="0.21" stop-color="#F2AFDD" stop-opacity="0.63"/>
<stop offset="0.57" stop-color="#DFBDDE" stop-opacity="0.83"/>
<stop offset="0.84" stop-color="#D3C6DF" stop-opacity="0.95"/>
<stop offset="1" stop-color="#CFCAE0"/>
</linearGradient>
<linearGradient id="paint25_linear_199_3569" x1="3.86296" y1="219.768" x2="29.6298" y2="219.768" gradientUnits="userSpaceOnUse">
<stop stop-color="#FFA6DD" stop-opacity="0.5"/>
<stop offset="0.21" stop-color="#F2AFDD" stop-opacity="0.63"/>
<stop offset="0.57" stop-color="#DFBDDE" stop-opacity="0.83"/>
<stop offset="0.84" stop-color="#D3C6DF" stop-opacity="0.95"/>
<stop offset="1" stop-color="#CFCAE0"/>
</linearGradient>
<linearGradient id="paint26_linear_199_3569" x1="18.2176" y1="313.57" x2="29.0942" y2="335.448" gradientUnits="userSpaceOnUse">
<stop stop-color="#6E0782"/>
<stop offset="1" stop-color="#08204D"/>
</linearGradient>
<linearGradient id="paint27_linear_199_3569" x1="30.4062" y1="309.576" x2="17.1967" y2="315.453" gradientUnits="userSpaceOnUse">
<stop stop-color="#FFA6DD"/>
<stop offset="0.12" stop-color="#FAA2DC"/>
<stop offset="0.26" stop-color="#EB97D9"/>
<stop offset="0.41" stop-color="#D485D5"/>
<stop offset="0.56" stop-color="#B36BD0"/>
<stop offset="0.72" stop-color="#894AC9"/>
<stop offset="0.89" stop-color="#5623C0"/>
<stop offset="1" stop-color="#2E04BA"/>
</linearGradient>
<linearGradient id="paint28_linear_199_3569" x1="47.6371" y1="320.146" x2="36.5199" y2="332.253" gradientUnits="userSpaceOnUse">
<stop stop-color="#FFA6DD"/>
<stop offset="0.12" stop-color="#FAA2DC"/>
<stop offset="0.26" stop-color="#EB97D9"/>
<stop offset="0.41" stop-color="#D485D5"/>
<stop offset="0.56" stop-color="#B36BD0"/>
<stop offset="0.72" stop-color="#894AC9"/>
<stop offset="0.89" stop-color="#5623C0"/>
<stop offset="1" stop-color="#2E04BA"/>
</linearGradient>
<linearGradient id="paint29_linear_199_3569" x1="58.8786" y1="326.861" x2="37.7815" y2="336.884" gradientUnits="userSpaceOnUse">
<stop stop-color="#FFA6DD"/>
<stop offset="0.12" stop-color="#FAA2DC"/>
<stop offset="0.26" stop-color="#EB97D9"/>
<stop offset="0.41" stop-color="#D485D5"/>
<stop offset="0.56" stop-color="#B36BD0"/>
<stop offset="0.72" stop-color="#894AC9"/>
<stop offset="0.89" stop-color="#5623C0"/>
<stop offset="1" stop-color="#2E04BA"/>
</linearGradient>
<linearGradient id="paint30_linear_199_3569" x1="49.3141" y1="315.635" x2="39.8893" y2="344.818" gradientUnits="userSpaceOnUse">
<stop stop-color="#FFA6DD"/>
<stop offset="0.12" stop-color="#FAA2DC"/>
<stop offset="0.26" stop-color="#EB97D9"/>
<stop offset="0.41" stop-color="#D485D5"/>
<stop offset="0.56" stop-color="#B36BD0"/>
<stop offset="0.72" stop-color="#894AC9"/>
<stop offset="0.89" stop-color="#5623C0"/>
<stop offset="1" stop-color="#2E04BA"/>
</linearGradient>
<linearGradient id="paint31_linear_199_3569" x1="55.4471" y1="333.076" x2="44.0776" y2="335.684" gradientUnits="userSpaceOnUse">
<stop stop-color="#FFA6DD"/>
<stop offset="0.12" stop-color="#FAA2DC"/>
<stop offset="0.26" stop-color="#EB97D9"/>
<stop offset="0.41" stop-color="#D485D5"/>
<stop offset="0.56" stop-color="#B36BD0"/>
<stop offset="0.72" stop-color="#894AC9"/>
<stop offset="0.89" stop-color="#5623C0"/>
<stop offset="1" stop-color="#2E04BA"/>
</linearGradient>
<linearGradient id="paint32_linear_199_3569" x1="60.0548" y1="341.448" x2="42.9597" y2="339.368" gradientUnits="userSpaceOnUse">
<stop stop-color="#FFA6DD"/>
<stop offset="0.12" stop-color="#FAA2DC"/>
<stop offset="0.26" stop-color="#EB97D9"/>
<stop offset="0.41" stop-color="#D485D5"/>
<stop offset="0.56" stop-color="#B36BD0"/>
<stop offset="0.72" stop-color="#894AC9"/>
<stop offset="0.89" stop-color="#5623C0"/>
<stop offset="1" stop-color="#2E04BA"/>
</linearGradient>
<linearGradient id="paint33_linear_199_3569" x1="59.2746" y1="330.906" x2="40.3512" y2="344.899" gradientUnits="userSpaceOnUse">
<stop stop-color="#FFA6DD"/>
<stop offset="0.12" stop-color="#FAA2DC"/>
<stop offset="0.26" stop-color="#EB97D9"/>
<stop offset="0.41" stop-color="#D485D5"/>
<stop offset="0.56" stop-color="#B36BD0"/>
<stop offset="0.72" stop-color="#894AC9"/>
<stop offset="0.89" stop-color="#5623C0"/>
<stop offset="1" stop-color="#2E04BA"/>
</linearGradient>
<linearGradient id="paint34_linear_199_3569" x1="26.6875" y1="318.725" x2="22.1614" y2="349.919" gradientUnits="userSpaceOnUse">
<stop stop-color="#A6CBFF"/>
<stop offset="0.12" stop-color="#A3C6FD"/>
<stop offset="0.26" stop-color="#9AB7F8"/>
<stop offset="0.42" stop-color="#8CA0F0"/>
<stop offset="0.58" stop-color="#787FE4"/>
<stop offset="0.74" stop-color="#5F55D6"/>
<stop offset="0.91" stop-color="#4022C4"/>
<stop offset="1" stop-color="#2E04BA"/>
</linearGradient>
<linearGradient id="paint35_linear_199_3569" x1="94.507" y1="218.896" x2="119.496" y2="247.011" gradientUnits="userSpaceOnUse">
<stop stop-color="#931A6E"/>
<stop offset="1" stop-color="#700D56"/>
</linearGradient>
<linearGradient id="paint36_linear_199_3569" x1="115.819" y1="217.882" x2="112.374" y2="219.997" gradientUnits="userSpaceOnUse">
<stop stop-color="#A43113"/>
<stop offset="1" stop-color="#6F160D"/>
</linearGradient>
<linearGradient id="paint37_linear_199_3569" x1="119.806" y1="209.585" x2="117.304" y2="211.759" gradientUnits="userSpaceOnUse">
<stop stop-color="#A43113"/>
<stop offset="1" stop-color="#6F160D"/>
</linearGradient>
</defs>
</svg>
